0
SECTION
2
HEADER
9
$INSUNITS
70
4
9
$ACADVER
1
AC1014
9
$HANDSEED
5
FFFF
0
ENDSEC
0
SECTION
2
TABLES
0
TABLE
2
VPORT
5
8
100
AcDbSymbolTable
0
ENDTAB
0
TABLE
2
LTYPE
5
5
100
AcDbSymbolTable
70
2
0
LTYPE
5
14
100
AcDbSymbolTableRecord
100
AcDbLinetypeTableRecord
2
BYBLOCK
70
0
0
LTYPE
5
15
100
AcDbSymbolTableRecord
100
AcDbLinetypeTableRecord
2
BYLAYER
70
0
0
ENDTAB
0
TABLE
2
LAYER
5
2
100
AcDbSymbolTable
70
3
0
LAYER
5
50
100
AcDbSymbolTableRecord
100
AcDbLayerTableRecord
2
0
70
0
6
CONTINUOUS
0
LAYER
5
51
100
AcDbSymbolTableRecord
100
AcDbLayerTableRecord
2
CUTOUTS
70
0
62
1
6
CONTINUOUS
0
LAYER
5
52
100
AcDbSymbolTableRecord
100
AcDbLayerTableRecord
2
PERIMETER
70
0
62
5
6
CONTINUOUS
0
ENDTAB
0
TABLE
2
STYLE
5
3
100
AcDbSymbolTable
70
1
0
STYLE
5
11
100
AcDbSymbolTableRecord
100
AcDbTextStyleTableRecord
2
STANDARD
70
0
0
ENDTAB
0
TABLE
2
VIEW
5
6
100
AcDbSymbolTable
0
ENDTAB
0
TABLE
2
UCS
5
7
100
AcDbSymbolTable
0
ENDTAB
0
TABLE
2
APPID
5
9
100
AcDbSymbolTable
70
1
0
APPID
5
12
100
AcDbSymbolTableRecord
100
AcDbRegAppTableRecord
2
ACAD
70
0
0
ENDTAB
0
TABLE
2
DIMSTYLE
5
A
100
AcDbSymbolTable
0
ENDTAB
0
TABLE
2
BLOCK_RECORD
5
1
100
AcDbSymbolTable
70
2
0
BLOCK_RECORD
5
1F
100
AcDbSymbolTableRecord
100
AcDbBlockTableRecord
2
*MODEL_SPACE
0
BLOCK_RECORD
5
1B
100
AcDbSymbolTableRecord
100
AcDbBlockTableRecord
2
*PAPER_SPACE
0
ENDTAB
0
ENDSEC
0
SECTION
2
BLOCKS
0
BLOCK
5
20
100
AcDbEntity
100
AcDbBlockBegin
2
*MODEL_SPACE
0
ENDBLK
5
21
100
AcDbEntity
100
AcDbBlockEnd
0
BLOCK
5
1C
100
AcDbEntity
100
AcDbBlockBegin
2
*PAPER_SPACE
0
ENDBLK
5
1D
100
AcDbEntity
100
AcDbBlockEnd
0
ENDSEC
0
SECTION
2
ENTITIES
0
CIRCLE
5
100
100
AcDbEntity
8
CUTOUTS
100
AcDbCircle
10
-113.99936236090824
20
65.491267675343209
30
0
40
3.0000000000000071
210
0
220
0
230
1
0
CIRCLE
5
101
100
AcDbEntity
8
CUTOUTS
100
AcDbCircle
10
114.00063762568635
20
65.500764568479568
30
0
40
3.0000000000000071
210
0
220
0
230
1
0
ARC
5
102
100
AcDbEntity
8
CUTOUTS
100
AcDbCircle
10
168.0711582343198
20
-54.740041579449155
30
0
40
4.7514491881671708
210
0
220
0
230
1
100
AcDbArc
50
269.98900775298097
51
359.98900775447305
0
LINE
5
103
100
AcDbEntity
8
CUTOUTS
100
AcDbLine
10
168.07024666450963
20
-59.491490680173584
30
0
11
139.0145932441358
21
-59.491490505288731
31
0
0
LINE
5
104
100
AcDbEntity
8
CUTOUTS
100
AcDbLine
10
139.0145932441358
20
-59.491490505288731
30
0
11
-123.39238917773199
21
-59.491490505287963
31
0
0
LINE
5
105
100
AcDbEntity
8
CUTOUTS
100
AcDbLine
10
-123.39238917773199
20
-59.491490505287963
30
0
11
-167.9278537258258
21
-59.491490680961022
31
0
0
ARC
5
106
100
AcDbEntity
8
CUTOUTS
100
AcDbCircle
10
-167.9269401057872
20
-54.740038320551079
30
0
40
4.7514524482464049
210
0
220
0
230
1
100
AcDbArc
50
179.98898303790736
51
269.98898303767464
0
LINE
5
107
100
AcDbEntity
8
CUTOUTS
100
AcDbLine
10
-172.67839246619715
20
-54.739124700529558
30
0
11
-172.6783922905278
21
54.644649846245514
31
0
0
ARC
5
108
100
AcDbEntity
8
CUTOUTS
100
AcDbCircle
10
-167.9280001505432
20
54.740137379954909
30
0
40
4.7513517395285669
210
0
220
-0
230
1
100
AcDbArc
50
88.835962241012609
51
181.1515461964581
0
LINE
5
109
100
AcDbEntity
8
CUTOUTS
100
AcDbLine
10
-167.8314769438669
20
59.49050858895469
30
0
11
168.07269801150042
21
59.491515023386512
31
0
0
ARC
5
10A
100
AcDbEntity
8
CUTOUTS
100
AcDbCircle
10
168.07285214280972
20
54.74176000104481
30
0
40
4.7497550248424849
210
-0
220
0
230
1
100
AcDbArc
50
-0.0018592753583251526
51
90.001859269261089
0
LINE
5
10B
100
AcDbEntity
8
CUTOUTS
100
AcDbLine
10
172.8226071651514
20
54.741605869213636
30
0
11
172.82260733504415
21
-54.740953149137084
31
0
0
LINE
5
10C
100
AcDbEntity
8
CUTOUTS
100
AcDbLine
10
-178.54503907375238
20
65.490519310168665
30
0
11
-177.18826594115677
21
67.840519310168673
31
0
0
LINE
5
10D
100
AcDbEntity
8
CUTOUTS
100
AcDbLine
10
-177.18826594115677
20
67.840519310168659
30
0
11
-174.47471967596553
21
67.840519310168659
31
0
0
LINE
5
10E
100
AcDbEntity
8
CUTOUTS
100
AcDbLine
10
-174.47471967596553
20
67.840519310168659
30
0
11
-173.1179465433699
21
65.490519310168651
31
0
0
LINE
5
10F
100
AcDbEntity
8
CUTOUTS
100
AcDbLine
10
-173.11794654336992
20
65.490519310168651
30
0
11
-174.47471967596556
21
63.140519310168663
31
0
0
LINE
5
110
100
AcDbEntity
8
CUTOUTS
100
AcDbLine
10
-174.47471967596553
20
63.140519310168663
30
0
11
-177.18826594115677
21
63.140519310168663
31
0
0
LINE
5
111
100
AcDbEntity
8
CUTOUTS
100
AcDbLine
10
-177.18826594115677
20
63.140519310168663
30
0
11
-178.54503907375238
21
65.490519310168665
31
0
0
LINE
5
112
100
AcDbEntity
8
CUTOUTS
100
AcDbLine
10
-126.30735319775667
20
-63.141490286168079
30
0
11
-123.59380693256543
21
-63.14149029198002
31
0
0
LINE
5
113
100
AcDbEntity
8
CUTOUTS
100
AcDbLine
10
-123.59380693256543
20
-63.14149029198002
30
0
11
-122.23703380500311
21
-65.491490294885992
31
0
0
LINE
5
114
100
AcDbEntity
8
CUTOUTS
100
AcDbLine
10
-122.23703380500311
20
-65.491490294885992
30
0
11
-123.59380694263201
21
-67.841490291980023
31
0
0
LINE
5
115
100
AcDbEntity
8
CUTOUTS
100
AcDbLine
10
-123.59380694263201
20
-67.841490291980023
30
0
11
-126.30735320782324
21
-67.841490286168082
31
0
0
LINE
5
116
100
AcDbEntity
8
CUTOUTS
100
AcDbLine
10
-126.30735320782324
20
-67.841490286168082
30
0
11
-127.66412633538557
21
-65.49149028326211
31
0
0
LINE
5
117
100
AcDbEntity
8
CUTOUTS
100
AcDbLine
10
-127.66412633538557
20
-65.49149028326211
30
0
11
-126.30735319775667
21
-63.141490286168079
31
0
0
LINE
5
118
100
AcDbEntity
8
CUTOUTS
100
AcDbLine
10
89.195724181978193
20
67.84136695817557
30
0
11
91.909270446922164
21
67.841403591690309
31
0
0
LINE
5
119
100
AcDbEntity
8
CUTOUTS
100
AcDbLine
10
91.909270446922164
20
67.841403591690309
30
0
11
93.266075304948544
21
65.491421908661835
31
0
0
LINE
5
11A
100
AcDbEntity
8
CUTOUTS
100
AcDbLine
10
93.266075304948544
20
65.491421908661835
30
0
11
91.909333898030951
21
63.141403592118614
31
0
0
LINE
5
11B
100
AcDbEntity
8
CUTOUTS
100
AcDbLine
10
91.909333898030951
20
63.141403592118607
30
0
11
89.195787633086994
21
63.141366958603854
31
0
0
LINE
5
11C
100
AcDbEntity
8
CUTOUTS
100
AcDbLine
10
89.195787633086994
20
63.141366958603854
30
0
11
87.838982775060614
21
65.491348641632342
31
0
0
LINE
5
11D
100
AcDbEntity
8
CUTOUTS
100
AcDbLine
10
87.838982775060614
20
65.491348641632342
30
0
11
89.195724181978193
21
67.84136695817557
31
0
0
LINE
5
11E
100
AcDbEntity
8
CUTOUTS
100
AcDbLine
10
42.069216156639655
20
-65.491490467770575
30
0
11
40.712443019010784
21
-67.841490464864634
31
0
0
LINE
5
11F
100
AcDbEntity
8
CUTOUTS
100
AcDbLine
10
40.712443019010784
20
-67.841490464864634
30
0
11
37.998896753819551
21
-67.841490459052707
31
0
0
LINE
5
120
100
AcDbEntity
8
CUTOUTS
100
AcDbLine
10
37.998896753819551
20
-67.841490459052707
30
0
11
36.642123626257188
21
-65.491490456146778
31
0
0
LINE
5
121
100
AcDbEntity
8
CUTOUTS
100
AcDbLine
10
36.642123626257188
20
-65.491490456146778
30
0
11
37.998896763886059
21
-63.14149045905274
31
0
0
LINE
5
122
100
AcDbEntity
8
CUTOUTS
100
AcDbLine
10
37.998896763886059
20
-63.14149045905274
30
0
11
40.712443029077292
21
-63.141490464864638
31
0
0
LINE
5
123
100
AcDbEntity
8
CUTOUTS
100
AcDbLine
10
40.712443029077292
20
-63.141490464864638
30
0
11
42.069216156639655
21
-65.491490467770575
31
0
0
LINE
5
124
100
AcDbEntity
8
CUTOUTS
100
AcDbLine
10
8.2332496940468403
20
67.841274650957459
30
0
11
10.946795959228588
21
67.841281825862296
31
0
0
LINE
5
125
100
AcDbEntity
8
CUTOUTS
100
AcDbLine
10
10.946795959228588
20
67.841281825862296
30
0
11
12.303575305469323
21
65.491285413322927
31
0
0
LINE
5
126
100
AcDbEntity
8
CUTOUTS
100
AcDbLine
10
12.303575305469323
20
65.491285413322927
30
0
11
10.946808386528311
21
63.141281825878728
31
0
0
LINE
5
127
100
AcDbEntity
8
CUTOUTS
100
AcDbLine
10
10.946808386528311
20
63.141281825878728
30
0
11
8.2332621213465629
21
63.141274650973898
31
0
0
LINE
5
128
100
AcDbEntity
8
CUTOUTS
100
AcDbLine
10
8.2332621213465629
20
63.141274650973898
30
0
11
6.8764827751058277
21
65.491271063513253
31
0
0
LINE
5
129
100
AcDbEntity
8
CUTOUTS
100
AcDbLine
10
6.8764827751058277
20
65.491271063513253
30
0
11
8.2332496940468403
21
67.841274650957445
31
0
0
LINE
5
12A
100
AcDbEntity
8
CUTOUTS
100
AcDbLine
10
-68.658924694247659
20
65.491178376593965
30
0
11
-70.015691613188679
21
63.141174789149758
31
0
0
LINE
5
12B
100
AcDbEntity
8
CUTOUTS
100
AcDbLine
10
-70.015691613188679
20
63.141174789149744
30
0
11
-72.729237878370441
21
63.141167614244893
31
0
0
LINE
5
12C
100
AcDbEntity
8
CUTOUTS
100
AcDbLine
10
-72.729237878370441
20
63.141167614244893
30
0
11
-74.086017224611197
21
65.491164026784261
31
0
0
LINE
5
12D
100
AcDbEntity
8
CUTOUTS
100
AcDbLine
10
-74.086017224611197
20
65.491164026784261
30
0
11
-72.729250305670178
21
67.841167614228482
31
0
0
LINE
5
12E
100
AcDbEntity
8
CUTOUTS
100
AcDbLine
10
-72.729250305670178
20
67.841167614228482
30
0
11
-70.015704040488416
21
67.841174789133333
31
0
0
LINE
5
12F
100
AcDbEntity
8
CUTOUTS
100
AcDbLine
10
-70.015704040488416
20
67.841174789133333
30
0
11
-68.658924694247659
21
65.491178376593965
31
0
0
LINE
5
130
100
AcDbEntity
8
CUTOUTS
100
AcDbLine
10
174.71347374636571
20
-67.841490310678068
30
0
11
173.35670084107278
21
-65.491490704377838
31
0
0
LINE
5
131
100
AcDbEntity
8
CUTOUTS
100
AcDbLine
10
173.35670084107278
20
-65.491490704377838
30
0
11
174.71347374636571
21
-63.141491098077644
31
0
0
LINE
5
132
100
AcDbEntity
8
CUTOUTS
100
AcDbLine
10
174.71347374636571
20
-63.141491098077644
30
0
11
177.42701955695162
21
-63.141491098077644
31
0
0
LINE
5
133
100
AcDbEntity
8
CUTOUTS
100
AcDbLine
10
177.42701955695162
20
-63.141491098077644
30
0
11
178.78379246224455
21
-65.491490704377867
31
0
0
LINE
5
134
100
AcDbEntity
8
CUTOUTS
100
AcDbLine
10
178.78379246224455
20
-65.491490704377867
30
0
11
177.42701955695162
21
-67.841490310678083
31
0
0
LINE
5
135
100
AcDbEntity
8
CUTOUTS
100
AcDbLine
10
177.42701955695162
20
-67.841490310678083
30
0
11
174.71347374636571
21
-67.841490310678068
31
0
0
LINE
5
136
100
AcDbEntity
8
CUTOUTS
100
AcDbLine
10
174.715909014283
20
67.841508916261859
30
0
11
177.42945527947427
21
67.841508916261887
31
0
0
LINE
5
137
100
AcDbEntity
8
CUTOUTS
100
AcDbLine
10
177.42945527947427
20
67.841508916261887
30
0
11
178.7862284120699
21
65.491508916261864
31
0
0
LINE
5
138
100
AcDbEntity
8
CUTOUTS
100
AcDbLine
10
178.7862284120699
20
65.491508916261864
30
0
11
177.42945527947427
21
63.141508916261841
31
0
0
LINE
5
139
100
AcDbEntity
8
CUTOUTS
100
AcDbLine
10
177.42945527947427
20
63.141508916261841
30
0
11
174.715909014283
21
63.141508916261841
31
0
0
LINE
5
13A
100
AcDbEntity
8
CUTOUTS
100
AcDbLine
10
174.715909014283
20
63.141508916261841
30
0
11
173.35913588168737
21
65.491508916261864
31
0
0
LINE
5
13B
100
AcDbEntity
8
CUTOUTS
100
AcDbLine
10
173.35913588168737
20
65.491508916261864
30
0
11
174.715909014283
21
67.841508916261873
31
0
0
LINE
5
13C
100
AcDbEntity
8
CUTOUTS
100
AcDbLine
10
-177.28462687127234
20
-67.841490310678083
30
0
11
-178.64140000386797
21
-65.491490310678088
31
0
0
LINE
5
13D
100
AcDbEntity
8
CUTOUTS
100
AcDbLine
10
-178.64140000386794
20
-65.491490310678088
30
0
11
-177.28462687127231
21
-63.141490310678094
31
0
0
LINE
5
13E
100
AcDbEntity
8
CUTOUTS
100
AcDbLine
10
-177.28462687127234
20
-63.141490310678094
30
0
11
-174.5710806060811
21
-63.141490310678094
31
0
0
LINE
5
13F
100
AcDbEntity
8
CUTOUTS
100
AcDbLine
10
-174.5710806060811
20
-63.141490310678094
30
0
11
-173.21430747348552
21
-65.491490310678088
31
0
0
LINE
5
140
100
AcDbEntity
8
CUTOUTS
100
AcDbLine
10
-173.21430747348546
20
-65.491490310678088
30
0
11
-174.5710806060811
21
-67.841490310678083
31
0
0
LINE
5
141
100
AcDbEntity
8
CUTOUTS
100
AcDbLine
10
-174.5710806060811
20
-67.841490310678083
30
0
11
-177.28462687127234
21
-67.841490310678083
31
0
0
LINE
5
142
100
AcDbEntity
8
PERIMETER
100
AcDbLine
10
-176.17921120606042
20
-73.49148995699143
30
0
11
176.19020484429052
21
-73.491490711704472
31
0
0
ARC
5
143
100
AcDbEntity
8
PERIMETER
100
AcDbCircle
10
176.19020486142512
20
-65.491490711704458
30
0
40
8.0000000000000071
210
0
220
0
230
1
100
AcDbArc
50
269.99999987728251
51
360
0
LINE
5
144
100
AcDbEntity
8
PERIMETER
100
AcDbLine
10
184.19020486142514
20
-65.491490775904651
30
0
11
184.19020591256663
21
65.491481902852897
31
0
0
ARC
5
145
100
AcDbEntity
8
PERIMETER
100
AcDbCircle
10
176.19020591256671
20
65.49148196705309
30
0
40
7.9999999999999005
210
-0
220
0
230
1
100
AcDbArc
50
0
51
90.000151496133171
0
LINE
5
146
100
AcDbEntity
8
PERIMETER
100
AcDbLine
10
176.19018475971609
20
73.491481967025024
30
0
11
-176.18995581107569
21
73.490550236467854
31
0
0
ARC
5
147
100
AcDbEntity
8
PERIMETER
100
AcDbCircle
10
-176.1899346582251
20
65.490550236495807
30
0
40
8.0000000000000124
210
0
220
0
230
1
100
AcDbArc
50
90.000151496132943
51
180.00469079216342
0
LINE
5
148
100
AcDbEntity
8
PERIMETER
100
AcDbLine
10
-184.18993463141447
20
65.489895278350559
30
0
11
-184.17921116211522
21
-65.492144915136691
31
0
0
ARC
5
149
100
AcDbEntity
8
PERIMETER
100
AcDbCircle
10
-176.17921118892585
20
-65.491489956991444
30
0
40
8.0000000000000178
210
0
220
0
230
1
100
AcDbArc
50
180.00469079216342
51
269.99999987728268
0
ENDSEC
0
SECTION
2
OBJECTS
0
DICTIONARY
5
C
100
AcDbDictionary
3
ACAD_GROUP
350
D
3
ACAD_MLINESTYLE
350
17
0
DICTIONARY
5
D
100
AcDbDictionary
0
DICTIONARY
5
1A
330
C
100
AcDbDictionary
0
DICTIONARY
5
17
100
AcDbDictionary
0
ENDSEC
0
EOF
