0
SECTION
2
HEADER
9
$INSUNITS
70
4
9
$ACADVER
1
AC1014
9
$HANDSEED
5
FFFF
0
ENDSEC
0
SECTION
2
TABLES
0
TABLE
2
VPORT
5
8
100
AcDbSymbolTable
0
ENDTAB
0
TABLE
2
LTYPE
5
5
100
AcDbSymbolTable
70
2
0
LTYPE
5
14
100
AcDbSymbolTableRecord
100
AcDbLinetypeTableRecord
2
BYBLOCK
70
0
0
LTYPE
5
15
100
AcDbSymbolTableRecord
100
AcDbLinetypeTableRecord
2
BYLAYER
70
0
0
ENDTAB
0
TABLE
2
LAYER
5
2
100
AcDbSymbolTable
70
3
0
LAYER
5
50
100
AcDbSymbolTableRecord
100
AcDbLayerTableRecord
2
0
70
0
6
CONTINUOUS
0
LAYER
5
51
100
AcDbSymbolTableRecord
100
AcDbLayerTableRecord
2
CUTOUTS
70
0
62
1
6
CONTINUOUS
0
LAYER
5
52
100
AcDbSymbolTableRecord
100
AcDbLayerTableRecord
2
PERIMETER
70
0
62
5
6
CONTINUOUS
0
ENDTAB
0
TABLE
2
STYLE
5
3
100
AcDbSymbolTable
70
1
0
STYLE
5
11
100
AcDbSymbolTableRecord
100
AcDbTextStyleTableRecord
2
STANDARD
70
0
0
ENDTAB
0
TABLE
2
VIEW
5
6
100
AcDbSymbolTable
0
ENDTAB
0
TABLE
2
UCS
5
7
100
AcDbSymbolTable
0
ENDTAB
0
TABLE
2
APPID
5
9
100
AcDbSymbolTable
70
1
0
APPID
5
12
100
AcDbSymbolTableRecord
100
AcDbRegAppTableRecord
2
ACAD
70
0
0
ENDTAB
0
TABLE
2
DIMSTYLE
5
A
100
AcDbSymbolTable
0
ENDTAB
0
TABLE
2
BLOCK_RECORD
5
1
100
AcDbSymbolTable
70
2
0
BLOCK_RECORD
5
1F
100
AcDbSymbolTableRecord
100
AcDbBlockTableRecord
2
*MODEL_SPACE
0
BLOCK_RECORD
5
1B
100
AcDbSymbolTableRecord
100
AcDbBlockTableRecord
2
*PAPER_SPACE
0
ENDTAB
0
ENDSEC
0
SECTION
2
BLOCKS
0
BLOCK
5
20
100
AcDbEntity
100
AcDbBlockBegin
2
*MODEL_SPACE
0
ENDBLK
5
21
100
AcDbEntity
100
AcDbBlockEnd
0
BLOCK
5
1C
100
AcDbEntity
100
AcDbBlockBegin
2
*PAPER_SPACE
0
ENDBLK
5
1D
100
AcDbEntity
100
AcDbBlockEnd
0
ENDSEC
0
SECTION
2
ENTITIES
0
LINE
5
100
100
AcDbEntity
8
CUTOUTS
100
AcDbLine
10
91.909304353714816
20
67.841402498609966
30
0
11
93.266109211741195
21
65.491420815581478
31
0
0
LINE
5
101
100
AcDbEntity
8
CUTOUTS
100
AcDbLine
10
93.266109211741195
20
65.491420815581492
30
0
11
91.909367804823603
21
63.141402499038279
31
0
0
LINE
5
102
100
AcDbEntity
8
CUTOUTS
100
AcDbLine
10
91.909367804823603
20
63.141402499038279
30
0
11
89.195821539879631
21
63.141365865523525
31
0
0
LINE
5
103
100
AcDbEntity
8
CUTOUTS
100
AcDbLine
10
89.195821539879631
20
63.141365865523518
30
0
11
87.839016681853252
21
65.491347548552
31
0
0
LINE
5
104
100
AcDbEntity
8
CUTOUTS
100
AcDbLine
10
87.839016681853252
20
65.491347548552
30
0
11
89.195758088770845
21
67.841365865095213
31
0
0
LINE
5
105
100
AcDbEntity
8
CUTOUTS
100
AcDbLine
10
89.195758088770845
20
67.841365865095227
30
0
11
91.909304353714816
21
67.84140249860998
31
0
0
ARC
5
106
100
AcDbEntity
8
CUTOUTS
100
AcDbCircle
10
173.3713288110921
20
-40.767430776835653
30
0
40
0.99999999999994316
210
-0
220
0
230
1
100
AcDbArc
50
0
51
90.000000000004889
0
LINE
5
107
100
AcDbEntity
8
CUTOUTS
100
AcDbLine
10
155.32132881109203
20
-39.767430776835724
30
0
11
173.37132881109201
21
-39.767430776835724
31
0
0
LINE
5
108
100
AcDbEntity
8
CUTOUTS
100
AcDbLine
10
155.32132881109203
20
-21.717430776835727
30
0
11
155.32132881109203
21
-39.767430776835724
31
0
0
ARC
5
109
100
AcDbEntity
8
CUTOUTS
100
AcDbCircle
10
154.32132881109209
20
-21.717430776835638
30
0
40
0.99999999999994316
210
-0
220
0
230
1
100
AcDbArc
50
0
51
90.000000000004889
0
LINE
5
10A
100
AcDbEntity
8
CUTOUTS
100
AcDbLine
10
136.32132881109203
20
-20.717430776835748
30
0
11
154.321328811092
21
-20.71743077683573
31
0
0
ARC
5
10B
100
AcDbEntity
8
CUTOUTS
100
AcDbCircle
10
136.321328811092
20
-21.717430776835727
30
0
40
0.99999999999997868
210
0
220
-0
230
1
100
AcDbArc
50
89.99999999999838
51
180
0
LINE
5
10C
100
AcDbEntity
8
CUTOUTS
100
AcDbLine
10
135.32132881109203
20
-39.767430776835724
30
0
11
135.32132881109203
21
-21.717430776835727
31
0
0
LINE
5
10D
100
AcDbEntity
8
CUTOUTS
100
AcDbLine
10
117.2713288110921
20
-39.767430776835724
30
0
11
135.32132881109203
21
-39.767430776835724
31
0
0
ARC
5
10E
100
AcDbEntity
8
CUTOUTS
100
AcDbCircle
10
117.2713288110921
20
-40.767430776835738
30
0
40
1.0000000000000142
210
0
220
-0
230
1
100
AcDbArc
50
90
51
180
0
LINE
5
10F
100
AcDbEntity
8
CUTOUTS
100
AcDbLine
10
116.27132881109208
20
-58.767430776835724
30
0
11
116.27132881109208
21
-40.767430776835724
31
0
0
ARC
5
110
100
AcDbEntity
8
CUTOUTS
100
AcDbCircle
10
117.2713288110921
20
-58.76743077683571
30
0
40
1.0000000000000142
210
0
220
0
230
1
100
AcDbArc
50
180
51
270
0
LINE
5
111
100
AcDbEntity
8
CUTOUTS
100
AcDbLine
10
173.37132881109201
20
-59.767430776835724
30
0
11
117.2713288110921
21
-59.767430776835724
31
0
0
ARC
5
112
100
AcDbEntity
8
CUTOUTS
100
AcDbCircle
10
173.3713288110921
20
-58.767430776835795
30
0
40
0.99999999999992539
210
0
220
0
230
1
100
AcDbArc
50
-90.000000000004889
51
0
0
LINE
5
113
100
AcDbEntity
8
CUTOUTS
100
AcDbLine
10
174.37132881109204
20
-40.767430776835724
30
0
11
174.37132881109204
21
-58.767430776835724
31
0
0
ARC
5
114
100
AcDbEntity
8
CUTOUTS
100
AcDbCircle
10
-149.42867118890797
20
41.245069223164272
30
0
40
1.0000000000000142
210
0
220
0
230
1
100
AcDbArc
50
180
51
270
0
LINE
5
115
100
AcDbEntity
8
CUTOUTS
100
AcDbLine
10
-74.278671188907936
20
40.245069223164265
30
0
11
-149.42867118890797
21
40.245069223164265
31
0
0
ARC
5
116
100
AcDbEntity
8
CUTOUTS
100
AcDbCircle
10
-74.278671188907936
20
41.245069223164272
30
0
40
1.0000000000000053
210
-0
220
0
230
1
100
AcDbArc
50
-90
51
0
0
LINE
5
117
100
AcDbEntity
8
CUTOUTS
100
AcDbLine
10
-73.278671188907936
20
59.245069223164265
30
0
11
-73.278671188907936
21
41.245069223164272
31
0
0
ARC
5
118
100
AcDbEntity
8
CUTOUTS
100
AcDbCircle
10
-74.278671188907936
20
59.245069223164265
30
0
40
0.99999999999999645
210
0
220
0
230
1
100
AcDbArc
50
0
51
89.99999999999838
0
LINE
5
119
100
AcDbEntity
8
CUTOUTS
100
AcDbLine
10
-149.42867118890797
20
60.245069223164265
30
0
11
-74.278671188907907
21
60.245069223164265
31
0
0
ARC
5
11A
100
AcDbEntity
8
CUTOUTS
100
AcDbCircle
10
-149.42867118890797
20
59.245069223164265
30
0
40
1.0000000000000053
210
0
220
-0
230
1
100
AcDbArc
50
90
51
180
0
LINE
5
11B
100
AcDbEntity
8
CUTOUTS
100
AcDbLine
10
-150.42867118890794
20
41.245069223164272
30
0
11
-150.42867118890797
21
59.245069223164265
31
0
0
LINE
5
11C
100
AcDbEntity
8
CUTOUTS
100
AcDbLine
10
-178.54500516695975
20
65.490518217088322
30
0
11
-177.18823203436412
21
67.840518217088317
31
0
0
LINE
5
11D
100
AcDbEntity
8
CUTOUTS
100
AcDbLine
10
-177.18823203436412
20
67.840518217088317
30
0
11
-174.47468576917288
21
67.840518217088317
31
0
0
LINE
5
11E
100
AcDbEntity
8
CUTOUTS
100
AcDbLine
10
-174.47468576917288
20
67.840518217088317
30
0
11
-173.11791263657727
21
65.490518217088322
31
0
0
LINE
5
11F
100
AcDbEntity
8
CUTOUTS
100
AcDbLine
10
-173.11791263657727
20
65.490518217088322
30
0
11
-174.47468576917288
21
63.140518217088335
31
0
0
LINE
5
120
100
AcDbEntity
8
CUTOUTS
100
AcDbLine
10
-174.47468576917288
20
63.140518217088328
30
0
11
-177.18823203436412
21
63.140518217088328
31
0
0
LINE
5
121
100
AcDbEntity
8
CUTOUTS
100
AcDbLine
10
-177.18823203436412
20
63.140518217088328
30
0
11
-178.54500516695975
21
65.490518217088322
31
0
0
ARC
5
122
100
AcDbEntity
8
CUTOUTS
100
AcDbCircle
10
-173.24117118890797
20
-58.767430776835724
30
0
40
0.99999999999997868
210
0
220
0
230
1
100
AcDbArc
50
180
51
270
0
LINE
5
123
100
AcDbEntity
8
CUTOUTS
100
AcDbLine
10
111.45882881109213
20
-59.767430776835724
30
0
11
-173.24117118890797
21
-59.767430776835724
31
0
0
ARC
5
124
100
AcDbEntity
8
CUTOUTS
100
AcDbCircle
10
111.45882881109205
20
-58.767430776835674
30
0
40
1.0000000000000497
210
-0
220
0
230
1
100
AcDbArc
50
270.00000000000489
51
360
0
LINE
5
125
100
AcDbEntity
8
CUTOUTS
100
AcDbLine
10
112.4588288110921
20
35.432569223164265
30
0
11
112.4588288110921
21
-58.767430776835724
31
0
0
ARC
5
126
100
AcDbEntity
8
CUTOUTS
100
AcDbCircle
10
111.45882881109205
20
35.432569223164208
30
0
40
1.0000000000000497
210
0
220
-0
230
1
100
AcDbArc
50
0
51
89.999999999997556
0
LINE
5
127
100
AcDbEntity
8
CUTOUTS
100
AcDbLine
10
-173.24117118890797
20
36.432569223164265
30
0
11
111.45882881109209
21
36.432569223164258
31
0
0
ARC
5
128
100
AcDbEntity
8
CUTOUTS
100
AcDbCircle
10
-173.24117118890794
20
35.432569223164265
30
0
40
1.0000000000000009
210
0
220
-0
230
1
100
AcDbArc
50
90
51
180
0
LINE
5
129
100
AcDbEntity
8
CUTOUTS
100
AcDbLine
10
-174.24117118890794
20
-58.767430776835724
30
0
11
-174.24117118890794
21
35.432569223164293
31
0
0
ARC
5
12A
100
AcDbEntity
8
CUTOUTS
100
AcDbCircle
10
173.37132881109201
20
41.245069223164364
30
0
40
1.0000000000000941
210
-0
220
0
230
1
100
AcDbArc
50
270.00000000000489
51
360
0
LINE
5
12B
100
AcDbEntity
8
CUTOUTS
100
AcDbLine
10
174.3713288110921
20
59.245069223164265
30
0
11
174.3713288110921
21
41.245069223164272
31
0
0
ARC
5
12C
100
AcDbEntity
8
CUTOUTS
100
AcDbCircle
10
173.3713288110921
20
59.245069223164293
30
0
40
1.0000000000000142
210
-0
220
0
230
1
100
AcDbArc
50
0
51
90
0
LINE
5
12D
100
AcDbEntity
8
CUTOUTS
100
AcDbLine
10
117.2713288110921
20
60.245069223164272
30
0
11
173.3713288110921
21
60.245069223164307
31
0
0
ARC
5
12E
100
AcDbEntity
8
CUTOUTS
100
AcDbCircle
10
117.2713288110921
20
59.245069223164265
30
0
40
1.0000000000000053
210
0
220
-0
230
1
100
AcDbArc
50
90
51
180
0
LINE
5
12F
100
AcDbEntity
8
CUTOUTS
100
AcDbLine
10
116.27132881109208
20
41.245069223164279
30
0
11
116.27132881109208
21
59.245069223164286
31
0
0
ARC
5
130
100
AcDbEntity
8
CUTOUTS
100
AcDbCircle
10
117.2713288110921
20
41.245069223164279
30
0
40
1.0000000000000142
210
0
220
0
230
1
100
AcDbArc
50
180
51
270
0
LINE
5
131
100
AcDbEntity
8
CUTOUTS
100
AcDbLine
10
173.3713288110921
20
40.245069223164265
30
0
11
117.2713288110921
21
40.245069223164265
31
0
0
ARC
5
132
100
AcDbEntity
8
CUTOUTS
100
AcDbCircle
10
93.458828811092076
20
59.245069223164258
30
0
40
1.0000000000000053
210
0
220
-0
230
1
100
AcDbArc
50
90
51
180
0
LINE
5
133
100
AcDbEntity
8
CUTOUTS
100
AcDbLine
10
92.458828811092076
20
41.245069223164272
30
0
11
92.458828811092076
21
59.245069223164265
31
0
0
ARC
5
134
100
AcDbEntity
8
CUTOUTS
100
AcDbCircle
10
93.458828811092076
20
41.245069223164279
30
0
40
1.0000000000000142
210
0
220
0
230
1
100
AcDbArc
50
180
51
269.9999999999992
0
LINE
5
135
100
AcDbEntity
8
CUTOUTS
100
AcDbLine
10
111.45882881109205
20
40.245069223164265
30
0
11
93.458828811092076
21
40.245069223164265
31
0
0
ARC
5
136
100
AcDbEntity
8
CUTOUTS
100
AcDbCircle
10
111.45882881109205
20
41.245069223164279
30
0
40
1.0000000000000142
210
-0
220
0
230
1
100
AcDbArc
50
270
51
360
0
LINE
5
137
100
AcDbEntity
8
CUTOUTS
100
AcDbLine
10
112.45882881109208
20
59.245069223164279
30
0
11
112.45882881109208
21
41.245069223164279
31
0
0
ARC
5
138
100
AcDbEntity
8
CUTOUTS
100
AcDbCircle
10
111.45882881109205
20
59.245069223164265
30
0
40
1.0000000000000142
210
0
220
-0
230
1
100
AcDbArc
50
0
51
90
0
LINE
5
139
100
AcDbEntity
8
CUTOUTS
100
AcDbLine
10
93.458828811092076
20
60.245069223164265
30
0
11
111.45882881109205
21
60.245069223164272
31
0
0
LINE
5
13A
100
AcDbEntity
8
CUTOUTS
100
AcDbLine
10
177.42948918626692
20
63.141507823181506
30
0
11
174.71594292107565
21
63.141507823181506
31
0
0
LINE
5
13B
100
AcDbEntity
8
CUTOUTS
100
AcDbLine
10
174.71594292107565
20
63.141507823181506
30
0
11
173.35916978848002
21
65.491507823181522
31
0
0
LINE
5
13C
100
AcDbEntity
8
CUTOUTS
100
AcDbLine
10
173.35916978848002
20
65.491507823181522
30
0
11
174.71594292107565
21
67.84150782318153
31
0
0
LINE
5
13D
100
AcDbEntity
8
CUTOUTS
100
AcDbLine
10
174.71594292107565
20
67.84150782318153
30
0
11
177.42948918626692
21
67.841507823181558
31
0
0
LINE
5
13E
100
AcDbEntity
8
CUTOUTS
100
AcDbLine
10
177.42948918626692
20
67.841507823181558
30
0
11
178.78626231886255
21
65.491507823181522
31
0
0
LINE
5
13F
100
AcDbEntity
8
CUTOUTS
100
AcDbLine
10
178.78626231886255
20
65.491507823181536
30
0
11
177.42948918626692
21
63.141507823181513
31
0
0
LINE
5
140
100
AcDbEntity
8
CUTOUTS
100
AcDbLine
10
117.2713288110921
20
36.432569223164265
30
0
11
173.37132881109201
21
36.432569223164251
31
0
0
ARC
5
141
100
AcDbEntity
8
CUTOUTS
100
AcDbCircle
10
173.3713288110921
20
35.43256922316435
30
0
40
0.99999999999994316
210
-0
220
0
230
1
100
AcDbArc
50
0
51
90.000000000004889
0
LINE
5
142
100
AcDbEntity
8
CUTOUTS
100
AcDbLine
10
174.37132881109204
20
35.432569223164265
30
0
11
174.37132881109204
21
-1.6174307768357377
31
0
0
ARC
5
143
100
AcDbEntity
8
CUTOUTS
100
AcDbCircle
10
173.37132881109216
20
-1.6174307768358087
30
0
40
0.99999999999989875
210
0
220
0
230
1
100
AcDbArc
50
-90.000000000008143
51
0
0
LINE
5
144
100
AcDbEntity
8
CUTOUTS
100
AcDbLine
10
173.37132881109201
20
-2.6174307768357075
30
0
11
117.2713288110921
21
-2.6174307768357252
31
0
0
ARC
5
145
100
AcDbEntity
8
CUTOUTS
100
AcDbCircle
10
117.2713288110921
20
-1.617430776835711
30
0
40
1.0000000000000142
210
0
220
0
230
1
100
AcDbArc
50
180
51
270
0
LINE
5
146
100
AcDbEntity
8
CUTOUTS
100
AcDbLine
10
116.27132881109208
20
-1.6174307768357377
30
0
11
116.27132881109208
21
35.432569223164272
31
0
0
ARC
5
147
100
AcDbEntity
8
CUTOUTS
100
AcDbCircle
10
117.2713288110921
20
35.432569223164265
30
0
40
1.0000000000000053
210
0
220
-0
230
1
100
AcDbArc
50
90
51
180
0
LINE
5
148
100
AcDbEntity
8
CUTOUTS
100
AcDbLine
10
177.42705346374424
20
-63.14149219115798
30
0
11
178.7838263690372
21
-65.491491797458195
31
0
0
LINE
5
149
100
AcDbEntity
8
CUTOUTS
100
AcDbLine
10
178.7838263690372
20
-65.491491797458195
30
0
11
177.42705346374424
21
-67.841491403758425
31
0
0
LINE
5
14A
100
AcDbEntity
8
CUTOUTS
100
AcDbLine
10
177.42705346374424
20
-67.841491403758425
30
0
11
174.71350765315836
21
-67.841491403758397
31
0
0
LINE
5
14B
100
AcDbEntity
8
CUTOUTS
100
AcDbLine
10
174.71350765315836
20
-67.841491403758397
30
0
11
173.35673474786543
21
-65.491491797458181
31
0
0
LINE
5
14C
100
AcDbEntity
8
CUTOUTS
100
AcDbLine
10
173.35673474786543
20
-65.491491797458181
30
0
11
174.71350765315836
21
-63.14149219115798
31
0
0
LINE
5
14D
100
AcDbEntity
8
CUTOUTS
100
AcDbLine
10
174.71350765315836
20
-63.14149219115798
30
0
11
177.42705346374424
21
-63.14149219115798
31
0
0
LINE
5
14E
100
AcDbEntity
8
CUTOUTS
100
AcDbLine
10
-68.658890787455022
20
65.491177283513636
30
0
11
-70.015657706396027
21
63.141173696069416
31
0
0
LINE
5
14F
100
AcDbEntity
8
CUTOUTS
100
AcDbLine
10
-70.015657706396027
20
63.141173696069409
30
0
11
-72.729203971577789
21
63.14116652116455
31
0
0
LINE
5
150
100
AcDbEntity
8
CUTOUTS
100
AcDbLine
10
-72.729203971577789
20
63.14116652116455
30
0
11
-74.085983317818574
21
65.491162933703919
31
0
0
LINE
5
151
100
AcDbEntity
8
CUTOUTS
100
AcDbLine
10
-74.085983317818574
20
65.491162933703919
30
0
11
-72.729216398877526
21
67.841166521148153
31
0
0
LINE
5
152
100
AcDbEntity
8
CUTOUTS
100
AcDbLine
10
-72.729216398877526
20
67.841166521148153
30
0
11
-70.015670133695778
21
67.841173696052991
31
0
0
LINE
5
153
100
AcDbEntity
8
CUTOUTS
100
AcDbLine
10
-70.015670133695778
20
67.841173696052991
30
0
11
-68.658890787455022
21
65.491177283513636
31
0
0
LINE
5
154
100
AcDbEntity
8
CUTOUTS
100
AcDbLine
10
-173.21427356669284
20
-65.491491403758431
30
0
11
-174.57104669928844
21
-67.841491403758425
31
0
0
LINE
5
155
100
AcDbEntity
8
CUTOUTS
100
AcDbLine
10
-174.57104669928844
20
-67.841491403758425
30
0
11
-177.28459296447969
21
-67.841491403758425
31
0
0
LINE
5
156
100
AcDbEntity
8
CUTOUTS
100
AcDbLine
10
-177.28459296447969
20
-67.841491403758425
30
0
11
-178.64136609707529
21
-65.491491403758431
31
0
0
LINE
5
157
100
AcDbEntity
8
CUTOUTS
100
AcDbLine
10
-178.64136609707529
20
-65.491491403758431
30
0
11
-177.28459296447969
21
-63.14149140375843
31
0
0
LINE
5
158
100
AcDbEntity
8
CUTOUTS
100
AcDbLine
10
-177.28459296447969
20
-63.14149140375843
30
0
11
-174.57104669928844
21
-63.14149140375843
31
0
0
LINE
5
159
100
AcDbEntity
8
CUTOUTS
100
AcDbLine
10
-174.57104669928844
20
-63.14149140375843
30
0
11
-173.21427356669284
21
-65.491491403758431
31
0
0
LINE
5
15A
100
AcDbEntity
8
CUTOUTS
100
AcDbLine
10
88.646328811092019
20
59.245069223164265
30
0
11
88.646328811092047
21
41.245069223164272
31
0
0
ARC
5
15B
100
AcDbEntity
8
CUTOUTS
100
AcDbCircle
10
87.646328811092076
20
41.245069223164272
30
0
40
0.99999999999999645
210
0
220
0
230
1
100
AcDbArc
50
-90.000000000001634
51
0
0
LINE
5
15C
100
AcDbEntity
8
CUTOUTS
100
AcDbLine
10
87.646328811092047
20
40.245069223164265
30
0
11
12.496328811091999
21
40.245069223164265
31
0
0
ARC
5
15D
100
AcDbEntity
8
CUTOUTS
100
AcDbCircle
10
12.496328811091999
20
41.245069223164265
30
0
40
0.99999999999997868
210
0
220
0
230
1
100
AcDbArc
50
180
51
270
0
LINE
5
15E
100
AcDbEntity
8
CUTOUTS
100
AcDbLine
10
11.49632881109202
20
41.245069223164272
30
0
11
11.496328811091985
21
59.245069223164265
31
0
0
ARC
5
15F
100
AcDbEntity
8
CUTOUTS
100
AcDbCircle
10
12.496328811092035
20
59.245069223164236
30
0
40
1.0000000000000409
210
0
220
0
230
1
100
AcDbArc
50
90.000000000002032
51
180
0
LINE
5
160
100
AcDbEntity
8
CUTOUTS
100
AcDbLine
10
12.496328811091999
20
60.245069223164265
30
0
11
87.646328811092047
21
60.245069223164236
31
0
0
ARC
5
161
100
AcDbEntity
8
CUTOUTS
100
AcDbCircle
10
87.646328811092076
20
59.245069223164307
30
0
40
0.99999999999994316
210
-0
220
0
230
1
100
AcDbArc
50
0
51
90.000000000001634
0
LINE
5
162
100
AcDbEntity
8
CUTOUTS
100
AcDbLine
10
37.998930670678703
20
-63.141491552133076
30
0
11
40.712476935869937
21
-63.141491557944974
31
0
0
LINE
5
163
100
AcDbEntity
8
CUTOUTS
100
AcDbLine
10
40.712476935869937
20
-63.141491557944974
30
0
11
42.0692500634323
21
-65.491491560850918
31
0
0
LINE
5
164
100
AcDbEntity
8
CUTOUTS
100
AcDbLine
10
42.0692500634323
20
-65.491491560850918
30
0
11
40.712476925803429
21
-67.841491557944963
31
0
0
LINE
5
165
100
AcDbEntity
8
CUTOUTS
100
AcDbLine
10
40.712476925803429
20
-67.841491557944963
30
0
11
37.998930660612196
21
-67.84149155213305
31
0
0
LINE
5
166
100
AcDbEntity
8
CUTOUTS
100
AcDbLine
10
37.998930660612196
20
-67.84149155213305
30
0
11
36.642157533049833
21
-65.491491549227106
31
0
0
LINE
5
167
100
AcDbEntity
8
CUTOUTS
100
AcDbLine
10
36.642157533049833
20
-65.491491549227106
30
0
11
37.998930670678703
21
-63.141491552133076
31
0
0
ARC
5
168
100
AcDbEntity
8
CUTOUTS
100
AcDbCircle
10
-173.24117118890797
20
59.245069223164279
30
0
40
0.99999999999999645
210
0
220
-0
230
1
100
AcDbArc
50
90
51
180
0
LINE
5
169
100
AcDbEntity
8
CUTOUTS
100
AcDbLine
10
-174.24117118890794
20
41.245069223164279
30
0
11
-174.24117118890794
21
59.245069223164265
31
0
0
ARC
5
16A
100
AcDbEntity
8
CUTOUTS
100
AcDbCircle
10
-173.24117118890797
20
41.245069223164279
30
0
40
1.0000000000000142
210
0
220
0
230
1
100
AcDbArc
50
180
51
270
0
LINE
5
16B
100
AcDbEntity
8
CUTOUTS
100
AcDbLine
10
-155.24117118890797
20
40.245069223164272
30
0
11
-173.24117118890797
21
40.245069223164272
31
0
0
ARC
5
16C
100
AcDbEntity
8
CUTOUTS
100
AcDbCircle
10
-155.24117118890797
20
41.245069223164279
30
0
40
1.0000000000000053
210
-0
220
0
230
1
100
AcDbArc
50
-90
51
0
0
LINE
5
16D
100
AcDbEntity
8
CUTOUTS
100
AcDbLine
10
-154.24117118890794
20
59.245069223164265
30
0
11
-154.24117118890794
21
41.245069223164272
31
0
0
ARC
5
16E
100
AcDbEntity
8
CUTOUTS
100
AcDbCircle
10
-155.24117118890797
20
59.245069223164279
30
0
40
1.0000000000000142
210
-0
220
0
230
1
100
AcDbArc
50
0
51
90
0
LINE
5
16F
100
AcDbEntity
8
CUTOUTS
100
AcDbLine
10
-173.24117118890797
20
60.245069223164272
30
0
11
-155.24117118890797
21
60.245069223164279
31
0
0
LINE
5
170
100
AcDbEntity
8
CUTOUTS
100
AcDbLine
10
8.2332960281392076
20
63.141273557893562
30
0
11
6.8765166818984724
21
65.49126997043291
31
0
0
LINE
5
171
100
AcDbEntity
8
CUTOUTS
100
AcDbLine
10
6.8765166818984724
20
65.49126997043291
30
0
11
8.233283600839485
21
67.841273557877116
31
0
0
LINE
5
172
100
AcDbEntity
8
CUTOUTS
100
AcDbLine
10
8.233283600839485
20
67.841273557877116
30
0
11
10.946829866021233
21
67.841280732781954
31
0
0
LINE
5
173
100
AcDbEntity
8
CUTOUTS
100
AcDbLine
10
10.946829866021233
20
67.841280732781954
30
0
11
12.303609212261968
21
65.491284320242599
31
0
0
LINE
5
174
100
AcDbEntity
8
CUTOUTS
100
AcDbLine
10
12.303609212261968
20
65.491284320242599
30
0
11
10.946842293320955
21
63.141280732798393
31
0
0
LINE
5
175
100
AcDbEntity
8
CUTOUTS
100
AcDbLine
10
10.946842293320955
20
63.141280732798393
30
0
11
8.2332960281392076
21
63.141273557893562
31
0
0
LINE
5
176
100
AcDbEntity
8
CUTOUTS
100
AcDbLine
10
7.6838288110920772
20
59.245069223164265
30
0
11
7.6838288110920772
21
41.245069223164272
31
0
0
ARC
5
177
100
AcDbEntity
8
CUTOUTS
100
AcDbCircle
10
6.6838288110920985
20
41.245069223164272
30
0
40
0.99999999999999645
210
0
220
0
230
1
100
AcDbArc
50
-90.000000000002032
51
0
0
LINE
5
178
100
AcDbEntity
8
CUTOUTS
100
AcDbLine
10
6.6838288110920629
20
40.245069223164265
30
0
11
-68.466171188907964
21
40.245069223164258
31
0
0
ARC
5
179
100
AcDbEntity
8
CUTOUTS
100
AcDbCircle
10
-68.466171188907936
20
41.245069223164279
30
0
40
1.0000000000000142
210
0
220
0
230
1
100
AcDbArc
50
180
51
269.99999999999835
0
LINE
5
17A
100
AcDbEntity
8
CUTOUTS
100
AcDbLine
10
-69.466171188907964
20
41.245069223164272
30
0
11
-69.466171188907964
21
59.245069223164265
31
0
0
ARC
5
17B
100
AcDbEntity
8
CUTOUTS
100
AcDbCircle
10
-68.466171188907964
20
59.245069223164265
30
0
40
1.0000000000000053
210
0
220
-0
230
1
100
AcDbArc
50
90
51
180
0
LINE
5
17C
100
AcDbEntity
8
CUTOUTS
100
AcDbLine
10
-68.466171188907964
20
60.245069223164265
30
0
11
6.6838288110920629
21
60.245069223164265
31
0
0
ARC
5
17D
100
AcDbEntity
8
CUTOUTS
100
AcDbCircle
10
6.6838288110920629
20
59.245069223164265
30
0
40
1.0000000000000142
210
0
220
0
230
1
100
AcDbArc
50
0
51
90
0
LINE
5
17E
100
AcDbEntity
8
CUTOUTS
100
AcDbLine
10
-123.59377302577279
20
-63.141491385060355
30
0
11
-122.23699989821046
21
-65.491491387966335
31
0
0
LINE
5
17F
100
AcDbEntity
8
CUTOUTS
100
AcDbLine
10
-122.23699989821046
20
-65.491491387966335
30
0
11
-123.59377303583938
21
-67.841491385060365
31
0
0
LINE
5
180
100
AcDbEntity
8
CUTOUTS
100
AcDbLine
10
-123.59377303583938
20
-67.841491385060365
30
0
11
-126.3073193010306
21
-67.841491379248424
31
0
0
LINE
5
181
100
AcDbEntity
8
CUTOUTS
100
AcDbLine
10
-126.3073193010306
20
-67.841491379248424
30
0
11
-127.66409242859294
21
-65.491491376342452
31
0
0
LINE
5
182
100
AcDbEntity
8
CUTOUTS
100
AcDbLine
10
-127.66409242859294
20
-65.491491376342452
30
0
11
-126.30731929096402
21
-63.141491379248421
31
0
0
LINE
5
183
100
AcDbEntity
8
CUTOUTS
100
AcDbLine
10
-126.30731929096402
20
-63.141491379248421
30
0
11
-123.59377302577279
21
-63.141491385060355
31
0
0
ARC
5
184
100
AcDbEntity
8
PERIMETER
100
AcDbCircle
10
176.1902398193541
20
65.49148087396749
30
0
40
10.000000000005187
210
-0
220
0
230
1
100
AcDbArc
50
0
51
90.000151496102418
0
LINE
5
185
100
AcDbEntity
8
PERIMETER
100
AcDbLine
10
176.19021337829619
20
75.491480873937718
30
0
11
123.77128056600441
21
75.491346238865617
31
0
0
ARC
5
186
100
AcDbEntity
8
PERIMETER
100
AcDbCircle
10
123.77128717627019
20
72.991346238874371
30
0
40
2.4999999999999996
210
0
220
0
230
1
100
AcDbArc
50
90.000151496132389
51
180.0001514961132
0
LINE
5
187
100
AcDbEntity
8
PERIMETER
100
AcDbLine
10
121.27128717627895
20
72.991339628608529
30
0
11
121.27129613431066
21
67.245069223163568
31
0
0
ARC
5
188
100
AcDbEntity
8
PERIMETER
100
AcDbCircle
10
120.27129613431185
20
67.245067664233886
30
0
40
1.0000000000000213
210
-0
220
0
230
1
100
AcDbArc
50
-89.999910679937969
51
8.9316313072063631e-05
0
LINE
5
189
100
AcDbEntity
8
PERIMETER
100
AcDbLine
10
120.27129769324102
20
66.24506766423508
30
0
11
108.45879769331316
21
66.245049249383868
31
0
0
ARC
5
18A
100
AcDbEntity
8
PERIMETER
100
AcDbCircle
10
108.45879613438396
20
67.24504924938266
30
0
40
0.9999999999999859
210
0
220
0
230
1
100
AcDbArc
50
180.00008931631305
51
270.00008932006364
0
LINE
5
18B
100
AcDbEntity
8
PERIMETER
100
AcDbLine
10
107.45879613438518
20
67.245047690453447
30
0
11
107.45878717638597
21
72.99129914073049
31
0
0
ARC
5
18C
100
AcDbEntity
8
PERIMETER
100
AcDbCircle
10
104.95878717639471
20
72.991292530464705
30
0
40
2.4999999999999996
210
0
220
-0
230
1
100
AcDbArc
50
0.00015149611320898552
51
90.000151496132389
0
LINE
5
18D
100
AcDbEntity
8
PERIMETER
100
AcDbLine
10
104.95878056612892
20
75.491292530455951
30
0
11
-176.18992719249565
21
75.49054914338052
31
0
0
ARC
5
18E
100
AcDbEntity
8
PERIMETER
100
AcDbCircle
10
-176.18990075143245
20
65.490549143415478
30
0
40
10.000000000000007
210
0
220
0
230
1
100
AcDbArc
50
90.000151496132716
51
180.00469079216342
0
LINE
5
18F
100
AcDbEntity
8
PERIMETER
100
AcDbLine
10
-186.18990071791916
20
65.489730445733898
30
0
11
-186.17917724861994
21
-65.492309747753339
31
0
0
ARC
5
190
100
AcDbEntity
8
PERIMETER
100
AcDbCircle
10
-176.1791772821332
20
-65.491491050071772
30
0
40
10.000000000000014
210
0
220
0
230
1
100
AcDbArc
50
180.00469079216342
51
269.99999987728256
0
LINE
5
191
100
AcDbEntity
8
PERIMETER
100
AcDbLine
10
-176.17917730355146
20
-75.491491050071772
30
0
11
176.19023874679948
21
-75.4914918047848
31
0
0
ARC
5
192
100
AcDbEntity
8
PERIMETER
100
AcDbCircle
10
176.19023876821774
20
-65.4914918047848
30
0
40
10
210
0
220
0
230
1
100
AcDbArc
50
269.99999987728256
51
360
0
LINE
5
193
100
AcDbEntity
8
PERIMETER
100
AcDbLine
10
186.19023876821774
20
-65.491491885035046
30
0
11
186.19023981935928
21
65.491480793717244
31
0
0
ENDSEC
0
SECTION
2
OBJECTS
0
DICTIONARY
5
C
100
AcDbDictionary
3
ACAD_GROUP
350
D
3
ACAD_MLINESTYLE
350
17
0
DICTIONARY
5
D
100
AcDbDictionary
0
DICTIONARY
5
1A
330
C
100
AcDbDictionary
0
DICTIONARY
5
17
100
AcDbDictionary
0
ENDSEC
0
EOF
