0
SECTION
2
HEADER
9
$INSUNITS
70
4
9
$ACADVER
1
AC1014
9
$HANDSEED
5
FFFF
0
ENDSEC
0
SECTION
2
TABLES
0
TABLE
2
VPORT
5
8
100
AcDbSymbolTable
0
ENDTAB
0
TABLE
2
LTYPE
5
5
100
AcDbSymbolTable
70
2
0
LTYPE
5
14
100
AcDbSymbolTableRecord
100
AcDbLinetypeTableRecord
2
BYBLOCK
70
0
0
LTYPE
5
15
100
AcDbSymbolTableRecord
100
AcDbLinetypeTableRecord
2
BYLAYER
70
0
0
ENDTAB
0
TABLE
2
LAYER
5
2
100
AcDbSymbolTable
70
3
0
LAYER
5
50
100
AcDbSymbolTableRecord
100
AcDbLayerTableRecord
2
0
70
0
6
CONTINUOUS
0
LAYER
5
51
100
AcDbSymbolTableRecord
100
AcDbLayerTableRecord
2
CUTOUTS
70
0
62
1
6
CONTINUOUS
0
LAYER
5
52
100
AcDbSymbolTableRecord
100
AcDbLayerTableRecord
2
PERIMETER
70
0
62
5
6
CONTINUOUS
0
ENDTAB
0
TABLE
2
STYLE
5
3
100
AcDbSymbolTable
70
1
0
STYLE
5
11
100
AcDbSymbolTableRecord
100
AcDbTextStyleTableRecord
2
STANDARD
70
0
0
ENDTAB
0
TABLE
2
VIEW
5
6
100
AcDbSymbolTable
0
ENDTAB
0
TABLE
2
UCS
5
7
100
AcDbSymbolTable
0
ENDTAB
0
TABLE
2
APPID
5
9
100
AcDbSymbolTable
70
1
0
APPID
5
12
100
AcDbSymbolTableRecord
100
AcDbRegAppTableRecord
2
ACAD
70
0
0
ENDTAB
0
TABLE
2
DIMSTYLE
5
A
100
AcDbSymbolTable
0
ENDTAB
0
TABLE
2
BLOCK_RECORD
5
1
100
AcDbSymbolTable
70
2
0
BLOCK_RECORD
5
1F
100
AcDbSymbolTableRecord
100
AcDbBlockTableRecord
2
*MODEL_SPACE
0
BLOCK_RECORD
5
1B
100
AcDbSymbolTableRecord
100
AcDbBlockTableRecord
2
*PAPER_SPACE
0
ENDTAB
0
ENDSEC
0
SECTION
2
BLOCKS
0
BLOCK
5
20
100
AcDbEntity
100
AcDbBlockBegin
2
*MODEL_SPACE
0
ENDBLK
5
21
100
AcDbEntity
100
AcDbBlockEnd
0
BLOCK
5
1C
100
AcDbEntity
100
AcDbBlockBegin
2
*PAPER_SPACE
0
ENDBLK
5
1D
100
AcDbEntity
100
AcDbBlockEnd
0
ENDSEC
0
SECTION
2
ENTITIES
0
LINE
5
100
100
AcDbEntity
8
CUTOUTS
100
AcDbLine
10
89.195787633087235
20
63.141366958604735
30
0
11
87.838982775060856
21
65.491348641633223
31
0
0
LINE
5
101
100
AcDbEntity
8
CUTOUTS
100
AcDbLine
10
87.838982775060856
20
65.491348641633223
30
0
11
89.195724181978449
21
67.841366958176437
31
0
0
LINE
5
102
100
AcDbEntity
8
CUTOUTS
100
AcDbLine
10
89.195724181978449
20
67.841366958176451
30
0
11
91.90927044692242
21
67.84140359169119
31
0
0
LINE
5
103
100
AcDbEntity
8
CUTOUTS
100
AcDbLine
10
91.90927044692242
20
67.841403591691176
30
0
11
93.266075304948799
21
65.491421908662701
31
0
0
LINE
5
104
100
AcDbEntity
8
CUTOUTS
100
AcDbLine
10
93.266075304948799
20
65.491421908662716
30
0
11
91.909333898031207
21
63.141403592119488
31
0
0
LINE
5
105
100
AcDbEntity
8
CUTOUTS
100
AcDbLine
10
91.909333898031207
20
63.141403592119488
30
0
11
89.195787633087235
21
63.141366958604749
31
0
0
LINE
5
106
100
AcDbEntity
8
CUTOUTS
100
AcDbLine
10
37.998896763886307
20
-63.141490459051859
30
0
11
40.712443029077541
21
-63.141490464863764
31
0
0
LINE
5
107
100
AcDbEntity
8
CUTOUTS
100
AcDbLine
10
40.712443029077541
20
-63.141490464863764
30
0
11
42.069216156639904
21
-65.491490467769694
31
0
0
LINE
5
108
100
AcDbEntity
8
CUTOUTS
100
AcDbLine
10
42.069216156639904
20
-65.491490467769694
30
0
11
40.712443019011033
21
-67.841490464863753
31
0
0
LINE
5
109
100
AcDbEntity
8
CUTOUTS
100
AcDbLine
10
40.712443019011033
20
-67.841490464863753
30
0
11
37.9988967538198
21
-67.841490459051826
31
0
0
LINE
5
10A
100
AcDbEntity
8
CUTOUTS
100
AcDbLine
10
37.9988967538198
20
-67.841490459051826
30
0
11
36.642123626257437
21
-65.491490456145897
31
0
0
LINE
5
10B
100
AcDbEntity
8
CUTOUTS
100
AcDbLine
10
36.642123626257437
20
-65.491490456145897
30
0
11
37.998896763886307
21
-63.141490459051859
31
0
0
LINE
5
10C
100
AcDbEntity
8
CUTOUTS
100
AcDbLine
10
173.35670084107304
20
-65.491490704376957
30
0
11
174.71347374636596
21
-63.141491098076763
31
0
0
LINE
5
10D
100
AcDbEntity
8
CUTOUTS
100
AcDbLine
10
174.71347374636596
20
-63.141491098076763
30
0
11
177.42701955695185
21
-63.141491098076763
31
0
0
LINE
5
10E
100
AcDbEntity
8
CUTOUTS
100
AcDbLine
10
177.42701955695185
20
-63.141491098076763
30
0
11
178.7837924622448
21
-65.491490704376986
31
0
0
LINE
5
10F
100
AcDbEntity
8
CUTOUTS
100
AcDbLine
10
178.7837924622448
20
-65.491490704376986
30
0
11
177.42701955695185
21
-67.841490310677202
31
0
0
LINE
5
110
100
AcDbEntity
8
CUTOUTS
100
AcDbLine
10
177.42701955695185
20
-67.841490310677202
30
0
11
174.71347374636596
21
-67.841490310677187
31
0
0
LINE
5
111
100
AcDbEntity
8
CUTOUTS
100
AcDbLine
10
174.71347374636596
20
-67.841490310677187
30
0
11
173.35670084107304
21
-65.491490704376957
31
0
0
LINE
5
112
100
AcDbEntity
8
CUTOUTS
100
AcDbLine
10
-174.47471967596528
20
67.84051931016954
30
0
11
-173.11794654336967
21
65.490519310169532
31
0
0
LINE
5
113
100
AcDbEntity
8
CUTOUTS
100
AcDbLine
10
-173.11794654336967
20
65.490519310169546
30
0
11
-174.47471967596528
21
63.140519310169552
31
0
0
LINE
5
114
100
AcDbEntity
8
CUTOUTS
100
AcDbLine
10
-174.47471967596528
20
63.140519310169545
30
0
11
-177.18826594115652
21
63.140519310169545
31
0
0
LINE
5
115
100
AcDbEntity
8
CUTOUTS
100
AcDbLine
10
-177.18826594115652
20
63.140519310169545
30
0
11
-178.54503907375215
21
65.490519310169546
31
0
0
LINE
5
116
100
AcDbEntity
8
CUTOUTS
100
AcDbLine
10
-178.54503907375215
20
65.490519310169546
30
0
11
-177.18826594115652
21
67.84051931016954
31
0
0
LINE
5
117
100
AcDbEntity
8
CUTOUTS
100
AcDbLine
10
-177.18826594115652
20
67.84051931016954
30
0
11
-174.47471967596528
21
67.84051931016954
31
0
0
LINE
5
118
100
AcDbEntity
8
CUTOUTS
100
AcDbLine
10
-122.23703380500285
20
-65.491490294885111
30
0
11
-123.59380694263177
21
-67.841490291979142
31
0
0
LINE
5
119
100
AcDbEntity
8
CUTOUTS
100
AcDbLine
10
-123.59380694263177
20
-67.841490291979142
30
0
11
-126.307353207823
21
-67.841490286167215
31
0
0
LINE
5
11A
100
AcDbEntity
8
CUTOUTS
100
AcDbLine
10
-126.307353207823
20
-67.841490286167215
30
0
11
-127.66412633538533
21
-65.491490283261243
31
0
0
LINE
5
11B
100
AcDbEntity
8
CUTOUTS
100
AcDbLine
10
-127.66412633538533
20
-65.491490283261243
30
0
11
-126.30735319775641
21
-63.141490286167198
31
0
0
LINE
5
11C
100
AcDbEntity
8
CUTOUTS
100
AcDbLine
10
-126.30735319775641
20
-63.141490286167198
30
0
11
-123.59380693256519
21
-63.141490291979139
31
0
0
LINE
5
11D
100
AcDbEntity
8
CUTOUTS
100
AcDbLine
10
-123.59380693256519
20
-63.141490291979139
30
0
11
-122.23703380500285
21
-65.491490294885111
31
0
0
LINE
5
11E
100
AcDbEntity
8
CUTOUTS
100
AcDbLine
10
-173.21430747348523
20
-65.491490310677207
30
0
11
-174.57108060608084
21
-67.841490310677202
31
0
0
LINE
5
11F
100
AcDbEntity
8
CUTOUTS
100
AcDbLine
10
-174.57108060608084
20
-67.841490310677202
30
0
11
-177.28462687127208
21
-67.841490310677202
31
0
0
LINE
5
120
100
AcDbEntity
8
CUTOUTS
100
AcDbLine
10
-177.28462687127208
20
-67.841490310677202
30
0
11
-178.64140000386769
21
-65.491490310677207
31
0
0
LINE
5
121
100
AcDbEntity
8
CUTOUTS
100
AcDbLine
10
-178.64140000386769
20
-65.491490310677207
30
0
11
-177.28462687127208
21
-63.141490310677213
31
0
0
LINE
5
122
100
AcDbEntity
8
CUTOUTS
100
AcDbLine
10
-177.28462687127208
20
-63.141490310677213
30
0
11
-174.57108060608084
21
-63.141490310677213
31
0
0
LINE
5
123
100
AcDbEntity
8
CUTOUTS
100
AcDbLine
10
-174.57108060608084
20
-63.141490310677213
30
0
11
-173.21430747348523
21
-65.491490310677207
31
0
0
LINE
5
124
100
AcDbEntity
8
CUTOUTS
100
AcDbLine
10
7.6837949042996811
20
59.245070316245489
30
0
11
7.6837949042997167
21
41.245070316245474
31
0
0
ARC
5
125
100
AcDbEntity
8
CUTOUTS
100
AcDbCircle
10
6.6837949042997025
20
41.245070316245489
30
0
40
0.99999999999999645
210
0
220
0
230
1
100
AcDbArc
50
-90.000000000002032
51
0
0
LINE
5
126
100
AcDbEntity
8
CUTOUTS
100
AcDbLine
10
6.6837949042996669
20
40.245070316245481
30
0
11
-68.466205095700332
21
40.245070316245474
31
0
0
ARC
5
127
100
AcDbEntity
8
CUTOUTS
100
AcDbCircle
10
-68.466205095700332
20
41.245070316245496
30
0
40
1.0000000000000142
210
0
220
0
230
1
100
AcDbArc
50
180
51
269.9999999999992
0
LINE
5
128
100
AcDbEntity
8
CUTOUTS
100
AcDbLine
10
-69.46620509570036
20
41.245070316245489
30
0
11
-69.46620509570036
21
59.245070316245489
31
0
0
ARC
5
129
100
AcDbEntity
8
CUTOUTS
100
AcDbCircle
10
-68.46620509570036
20
59.245070316245489
30
0
40
1.0000000000000053
210
0
220
-0
230
1
100
AcDbArc
50
89.99999999999838
51
180
0
LINE
5
12A
100
AcDbEntity
8
CUTOUTS
100
AcDbLine
10
-68.466205095700332
20
60.245070316245481
30
0
11
6.6837949042996669
21
60.245070316245489
31
0
0
ARC
5
12B
100
AcDbEntity
8
CUTOUTS
100
AcDbCircle
10
6.6837949042996669
20
59.245070316245489
30
0
40
1.0000000000000142
210
0
220
0
230
1
100
AcDbArc
50
0
51
90
0
LINE
5
12C
100
AcDbEntity
8
CUTOUTS
100
AcDbLine
10
117.27129490429971
20
36.432570316245489
30
0
11
173.37129490429962
21
36.432570316245467
31
0
0
ARC
5
12D
100
AcDbEntity
8
CUTOUTS
100
AcDbCircle
10
173.3712949042997
20
35.432570316245567
30
0
40
0.99999999999994316
210
-0
220
0
230
1
100
AcDbArc
50
0
51
90.000000000004889
0
LINE
5
12E
100
AcDbEntity
8
CUTOUTS
100
AcDbLine
10
174.37129490429965
20
35.432570316245481
30
0
11
174.37129490429965
21
-1.6174296837545299
31
0
0
ARC
5
12F
100
AcDbEntity
8
CUTOUTS
100
AcDbCircle
10
173.37129490429976
20
-1.6174296837545921
30
0
40
0.99999999999989875
210
0
220
0
230
1
100
AcDbArc
50
-90.000000000008143
51
0
0
LINE
5
130
100
AcDbEntity
8
CUTOUTS
100
AcDbLine
10
173.37129490429962
20
-2.6174296837544908
30
0
11
117.27129490429971
21
-2.6174296837545086
31
0
0
ARC
5
131
100
AcDbEntity
8
CUTOUTS
100
AcDbCircle
10
117.27129490429971
20
-1.6174296837544944
30
0
40
1.0000000000000142
210
0
220
0
230
1
100
AcDbArc
50
180
51
270
0
LINE
5
132
100
AcDbEntity
8
CUTOUTS
100
AcDbLine
10
116.27129490429968
20
-1.617429683754521
30
0
11
116.27129490429968
21
35.432570316245489
31
0
0
ARC
5
133
100
AcDbEntity
8
CUTOUTS
100
AcDbCircle
10
117.27129490429971
20
35.432570316245481
30
0
40
1.0000000000000053
210
0
220
-0
230
1
100
AcDbArc
50
90
51
180
0
LINE
5
134
100
AcDbEntity
8
CUTOUTS
100
AcDbLine
10
174.37129490429965
20
-40.7674296837545
30
0
11
174.37129490429965
21
-58.767429683754514
31
0
0
ARC
5
135
100
AcDbEntity
8
CUTOUTS
100
AcDbCircle
10
173.3712949042997
20
-58.767429683754585
30
0
40
0.99999999999992539
210
0
220
0
230
1
100
AcDbArc
50
-90.000000000004889
51
0
0
LINE
5
136
100
AcDbEntity
8
CUTOUTS
100
AcDbLine
10
173.37129490429962
20
-59.767429683754507
30
0
11
117.27129490429971
21
-59.767429683754507
31
0
0
ARC
5
137
100
AcDbEntity
8
CUTOUTS
100
AcDbCircle
10
117.27129490429971
20
-58.767429683754493
30
0
40
1.0000000000000142
210
0
220
0
230
1
100
AcDbArc
50
180
51
270
0
LINE
5
138
100
AcDbEntity
8
CUTOUTS
100
AcDbLine
10
116.27129490429968
20
-58.767429683754514
30
0
11
116.27129490429968
21
-40.7674296837545
31
0
0
ARC
5
139
100
AcDbEntity
8
CUTOUTS
100
AcDbCircle
10
117.27129490429971
20
-40.767429683754521
30
0
40
1.0000000000000142
210
0
220
-0
230
1
100
AcDbArc
50
90
51
180
0
LINE
5
13A
100
AcDbEntity
8
CUTOUTS
100
AcDbLine
10
117.27129490429971
20
-39.767429683754507
30
0
11
135.32129490429963
21
-39.767429683754507
31
0
0
LINE
5
13B
100
AcDbEntity
8
CUTOUTS
100
AcDbLine
10
135.32129490429963
20
-39.767429683754507
30
0
11
135.32129490429963
21
-21.71742968375451
31
0
0
ARC
5
13C
100
AcDbEntity
8
CUTOUTS
100
AcDbCircle
10
136.32129490429961
20
-21.71742968375451
30
0
40
0.99999999999997868
210
0
220
-0
230
1
100
AcDbArc
50
89.99999999999838
51
180
0
LINE
5
13D
100
AcDbEntity
8
CUTOUTS
100
AcDbLine
10
136.32129490429963
20
-20.717429683754531
30
0
11
154.32129490429961
21
-20.717429683754514
31
0
0
ARC
5
13E
100
AcDbEntity
8
CUTOUTS
100
AcDbCircle
10
154.32129490429969
20
-21.717429683754421
30
0
40
0.99999999999994316
210
-0
220
0
230
1
100
AcDbArc
50
0
51
90.000000000004889
0
LINE
5
13F
100
AcDbEntity
8
CUTOUTS
100
AcDbLine
10
155.32129490429963
20
-21.71742968375451
30
0
11
155.32129490429963
21
-39.767429683754507
31
0
0
LINE
5
140
100
AcDbEntity
8
CUTOUTS
100
AcDbLine
10
155.32129490429963
20
-39.767429683754507
30
0
11
173.37129490429962
21
-39.767429683754507
31
0
0
ARC
5
141
100
AcDbEntity
8
CUTOUTS
100
AcDbCircle
10
173.3712949042997
20
-40.767429683754429
30
0
40
0.99999999999994316
210
-0
220
0
230
1
100
AcDbArc
50
0
51
90.000000000004889
0
ARC
5
142
100
AcDbEntity
8
CUTOUTS
100
AcDbCircle
10
-173.24120509570034
20
35.432570316245481
30
0
40
1.0000000000000009
210
0
220
-0
230
1
100
AcDbArc
50
90
51
180
0
LINE
5
143
100
AcDbEntity
8
CUTOUTS
100
AcDbLine
10
-174.24120509570034
20
-58.767429683754514
30
0
11
-174.24120509570034
21
35.432570316245503
31
0
0
ARC
5
144
100
AcDbEntity
8
CUTOUTS
100
AcDbCircle
10
-173.24120509570037
20
-58.767429683754514
30
0
40
0.99999999999997868
210
0
220
0
230
1
100
AcDbArc
50
180
51
270
0
LINE
5
145
100
AcDbEntity
8
CUTOUTS
100
AcDbLine
10
111.45879490429974
20
-59.767429683754507
30
0
11
-173.24120509570037
21
-59.767429683754507
31
0
0
ARC
5
146
100
AcDbEntity
8
CUTOUTS
100
AcDbCircle
10
111.45879490429965
20
-58.767429683754457
30
0
40
1.0000000000000497
210
-0
220
0
230
1
100
AcDbArc
50
270.00000000000489
51
360
0
LINE
5
147
100
AcDbEntity
8
CUTOUTS
100
AcDbLine
10
112.45879490429971
20
35.432570316245481
30
0
11
112.45879490429971
21
-58.767429683754514
31
0
0
ARC
5
148
100
AcDbEntity
8
CUTOUTS
100
AcDbCircle
10
111.45879490429965
20
35.432570316245425
30
0
40
1.0000000000000497
210
0
220
-0
230
1
100
AcDbArc
50
0
51
89.999999999997556
0
LINE
5
149
100
AcDbEntity
8
CUTOUTS
100
AcDbLine
10
-173.24120509570037
20
36.432570316245489
30
0
11
111.45879490429969
21
36.432570316245489
31
0
0
LINE
5
14A
100
AcDbEntity
8
CUTOUTS
100
AcDbLine
10
8.233249694047089
20
67.84127465095834
30
0
11
10.946795959228837
21
67.841281825863177
31
0
0
LINE
5
14B
100
AcDbEntity
8
CUTOUTS
100
AcDbLine
10
10.946795959228837
20
67.841281825863177
30
0
11
12.303575305469572
21
65.491285413323808
31
0
0
LINE
5
14C
100
AcDbEntity
8
CUTOUTS
100
AcDbLine
10
12.303575305469572
20
65.491285413323808
30
0
11
10.946808386528559
21
63.141281825879609
31
0
0
LINE
5
14D
100
AcDbEntity
8
CUTOUTS
100
AcDbLine
10
10.946808386528559
20
63.141281825879609
30
0
11
8.2332621213468116
21
63.141274650974779
31
0
0
LINE
5
14E
100
AcDbEntity
8
CUTOUTS
100
AcDbLine
10
8.2332621213468116
20
63.141274650974779
30
0
11
6.8764827751060764
21
65.491271063514134
31
0
0
LINE
5
14F
100
AcDbEntity
8
CUTOUTS
100
AcDbLine
10
6.8764827751060764
20
65.491271063514134
30
0
11
8.233249694047089
21
67.841274650958326
31
0
0
ARC
5
150
100
AcDbEntity
8
CUTOUTS
100
AcDbCircle
10
12.496294904299639
20
59.245070316245446
30
0
40
1.0000000000000409
210
0
220
0
230
1
100
AcDbArc
50
90.000000000002032
51
180
0
LINE
5
151
100
AcDbEntity
8
CUTOUTS
100
AcDbLine
10
11.496294904299624
20
41.245070316245489
30
0
11
11.496294904299589
21
59.245070316245489
31
0
0
ARC
5
152
100
AcDbEntity
8
CUTOUTS
100
AcDbCircle
10
12.496294904299603
20
41.245070316245474
30
0
40
0.99999999999997868
210
0
220
0
230
1
100
AcDbArc
50
180
51
270
0
LINE
5
153
100
AcDbEntity
8
CUTOUTS
100
AcDbLine
10
87.646294904299651
20
40.245070316245481
30
0
11
12.496294904299603
21
40.24507031624551
31
0
0
ARC
5
154
100
AcDbEntity
8
CUTOUTS
100
AcDbCircle
10
87.64629490429968
20
41.245070316245489
30
0
40
0.99999999999999645
210
0
220
0
230
1
100
AcDbArc
50
-90.000000000001634
51
0
0
LINE
5
155
100
AcDbEntity
8
CUTOUTS
100
AcDbLine
10
88.646294904299623
20
59.245070316245489
30
0
11
88.646294904299651
21
41.245070316245474
31
0
0
ARC
5
156
100
AcDbEntity
8
CUTOUTS
100
AcDbCircle
10
87.64629490429968
20
59.245070316245517
30
0
40
0.99999999999994316
210
-0
220
0
230
1
100
AcDbArc
50
0
51
90.000000000001634
0
LINE
5
157
100
AcDbEntity
8
CUTOUTS
100
AcDbLine
10
12.496294904299603
20
60.245070316245481
30
0
11
87.646294904299651
21
60.245070316245481
31
0
0
LINE
5
158
100
AcDbEntity
8
CUTOUTS
100
AcDbLine
10
-155.24120509570037
20
40.245070316245489
30
0
11
-173.24120509570037
21
40.245070316245489
31
0
0
ARC
5
159
100
AcDbEntity
8
CUTOUTS
100
AcDbCircle
10
-173.24120509570037
20
41.245070316245496
30
0
40
1.0000000000000142
210
0
220
0
230
1
100
AcDbArc
50
180
51
270
0
LINE
5
15A
100
AcDbEntity
8
CUTOUTS
100
AcDbLine
10
-174.24120509570034
20
41.245070316245496
30
0
11
-174.24120509570034
21
59.245070316245489
31
0
0
ARC
5
15B
100
AcDbEntity
8
CUTOUTS
100
AcDbCircle
10
-173.24120509570037
20
59.245070316245496
30
0
40
0.99999999999999645
210
0
220
-0
230
1
100
AcDbArc
50
90
51
180
0
LINE
5
15C
100
AcDbEntity
8
CUTOUTS
100
AcDbLine
10
-173.24120509570037
20
60.245070316245489
30
0
11
-155.24120509570037
21
60.245070316245489
31
0
0
ARC
5
15D
100
AcDbEntity
8
CUTOUTS
100
AcDbCircle
10
-155.24120509570037
20
59.245070316245496
30
0
40
0.99999999999999645
210
-0
220
0
230
1
100
AcDbArc
50
0
51
90
0
LINE
5
15E
100
AcDbEntity
8
CUTOUTS
100
AcDbLine
10
-154.24120509570034
20
59.245070316245489
30
0
11
-154.24120509570034
21
41.245070316245489
31
0
0
ARC
5
15F
100
AcDbEntity
8
CUTOUTS
100
AcDbCircle
10
-155.24120509570037
20
41.245070316245496
30
0
40
1.0000000000000053
210
-0
220
0
230
1
100
AcDbArc
50
-90
51
0
0
LINE
5
160
100
AcDbEntity
8
CUTOUTS
100
AcDbLine
10
-150.42870509570034
20
41.245070316245489
30
0
11
-150.42870509570037
21
59.245070316245489
31
0
0
ARC
5
161
100
AcDbEntity
8
CUTOUTS
100
AcDbCircle
10
-149.42870509570037
20
59.245070316245489
30
0
40
1.0000000000000053
210
0
220
-0
230
1
100
AcDbArc
50
90
51
180
0
LINE
5
162
100
AcDbEntity
8
CUTOUTS
100
AcDbLine
10
-149.42870509570037
20
60.245070316245481
30
0
11
-74.278705095700303
21
60.245070316245481
31
0
0
ARC
5
163
100
AcDbEntity
8
CUTOUTS
100
AcDbCircle
10
-74.278705095700332
20
59.245070316245489
30
0
40
0.99999999999999645
210
0
220
0
230
1
100
AcDbArc
50
0
51
89.99999999999838
0
LINE
5
164
100
AcDbEntity
8
CUTOUTS
100
AcDbLine
10
-73.278705095700332
20
59.245070316245489
30
0
11
-73.278705095700332
21
41.245070316245489
31
0
0
ARC
5
165
100
AcDbEntity
8
CUTOUTS
100
AcDbCircle
10
-74.278705095700332
20
41.245070316245489
30
0
40
1.0000000000000053
210
-0
220
0
230
1
100
AcDbArc
50
-90
51
0
0
LINE
5
166
100
AcDbEntity
8
CUTOUTS
100
AcDbLine
10
-74.278705095700332
20
40.245070316245481
30
0
11
-149.42870509570037
21
40.245070316245481
31
0
0
ARC
5
167
100
AcDbEntity
8
CUTOUTS
100
AcDbCircle
10
-149.42870509570037
20
41.245070316245489
30
0
40
1.0000000000000142
210
0
220
0
230
1
100
AcDbArc
50
180
51
270
0
ARC
5
168
100
AcDbEntity
8
CUTOUTS
100
AcDbCircle
10
117.27129490429971
20
59.245070316245474
30
0
40
1.0000000000000053
210
0
220
-0
230
1
100
AcDbArc
50
90
51
180
0
LINE
5
169
100
AcDbEntity
8
CUTOUTS
100
AcDbLine
10
116.27129490429968
20
41.245070316245489
30
0
11
116.27129490429968
21
59.245070316245489
31
0
0
ARC
5
16A
100
AcDbEntity
8
CUTOUTS
100
AcDbCircle
10
117.27129490429971
20
41.245070316245496
30
0
40
1.0000000000000142
210
0
220
0
230
1
100
AcDbArc
50
180
51
269.99999999999835
0
LINE
5
16B
100
AcDbEntity
8
CUTOUTS
100
AcDbLine
10
173.3712949042997
20
40.245070316245481
30
0
11
117.27129490429971
21
40.245070316245481
31
0
0
ARC
5
16C
100
AcDbEntity
8
CUTOUTS
100
AcDbCircle
10
173.37129490429962
20
41.245070316245588
30
0
40
1.0000000000000941
210
-0
220
0
230
1
100
AcDbArc
50
270.00000000000489
51
360
0
LINE
5
16D
100
AcDbEntity
8
CUTOUTS
100
AcDbLine
10
174.3712949042997
20
59.245070316245489
30
0
11
174.3712949042997
21
41.245070316245489
31
0
0
ARC
5
16E
100
AcDbEntity
8
CUTOUTS
100
AcDbCircle
10
173.3712949042997
20
59.24507031624551
30
0
40
1.0000000000000142
210
-0
220
0
230
1
100
AcDbArc
50
0
51
90
0
LINE
5
16F
100
AcDbEntity
8
CUTOUTS
100
AcDbLine
10
117.27129490429971
20
60.245070316245489
30
0
11
173.3712949042997
21
60.245070316245531
31
0
0
LINE
5
170
100
AcDbEntity
8
CUTOUTS
100
AcDbLine
10
111.45879490429965
20
40.245070316245481
30
0
11
93.45879490429968
21
40.245070316245481
31
0
0
ARC
5
171
100
AcDbEntity
8
CUTOUTS
100
AcDbCircle
10
93.45879490429968
20
41.245070316245496
30
0
40
1.0000000000000142
210
0
220
0
230
1
100
AcDbArc
50
180
51
269.9999999999992
0
LINE
5
172
100
AcDbEntity
8
CUTOUTS
100
AcDbLine
10
92.45879490429968
20
41.245070316245489
30
0
11
92.45879490429968
21
59.245070316245489
31
0
0
ARC
5
173
100
AcDbEntity
8
CUTOUTS
100
AcDbCircle
10
93.45879490429968
20
59.245070316245474
30
0
40
1.0000000000000053
210
0
220
-0
230
1
100
AcDbArc
50
90
51
180
0
LINE
5
174
100
AcDbEntity
8
CUTOUTS
100
AcDbLine
10
93.45879490429968
20
60.245070316245489
30
0
11
111.45879490429965
21
60.245070316245503
31
0
0
ARC
5
175
100
AcDbEntity
8
CUTOUTS
100
AcDbCircle
10
111.45879490429965
20
59.245070316245474
30
0
40
1.0000000000000142
210
0
220
-0
230
1
100
AcDbArc
50
0
51
90
0
LINE
5
176
100
AcDbEntity
8
CUTOUTS
100
AcDbLine
10
112.45879490429968
20
59.245070316245489
30
0
11
112.45879490429968
21
41.245070316245489
31
0
0
ARC
5
177
100
AcDbEntity
8
CUTOUTS
100
AcDbCircle
10
111.45879490429965
20
41.245070316245496
30
0
40
1.0000000000000142
210
-0
220
0
230
1
100
AcDbArc
50
270
51
360
0
LINE
5
178
100
AcDbEntity
8
CUTOUTS
100
AcDbLine
10
173.35913588168762
20
65.491508916262745
30
0
11
174.71590901428326
21
67.841508916262754
31
0
0
LINE
5
179
100
AcDbEntity
8
CUTOUTS
100
AcDbLine
10
174.71590901428326
20
67.841508916262754
30
0
11
177.42945527947452
21
67.841508916262782
31
0
0
LINE
5
17A
100
AcDbEntity
8
CUTOUTS
100
AcDbLine
10
177.42945527947452
20
67.841508916262768
30
0
11
178.78622841207016
21
65.491508916262745
31
0
0
LINE
5
17B
100
AcDbEntity
8
CUTOUTS
100
AcDbLine
10
178.78622841207016
20
65.491508916262745
30
0
11
177.42945527947452
21
63.14150891626273
31
0
0
LINE
5
17C
100
AcDbEntity
8
CUTOUTS
100
AcDbLine
10
177.42945527947452
20
63.141508916262723
30
0
11
174.71590901428326
21
63.141508916262723
31
0
0
LINE
5
17D
100
AcDbEntity
8
CUTOUTS
100
AcDbLine
10
174.71590901428326
20
63.141508916262723
30
0
11
173.35913588168762
21
65.491508916262745
31
0
0
LINE
5
17E
100
AcDbEntity
8
CUTOUTS
100
AcDbLine
10
-74.08601722461097
20
65.491164026785142
30
0
11
-72.729250305669922
21
67.841167614229363
31
0
0
LINE
5
17F
100
AcDbEntity
8
CUTOUTS
100
AcDbLine
10
-72.729250305669922
20
67.841167614229363
30
0
11
-70.015704040488174
21
67.841174789134215
31
0
0
LINE
5
180
100
AcDbEntity
8
CUTOUTS
100
AcDbLine
10
-70.015704040488174
20
67.841174789134215
30
0
11
-68.658924694247389
21
65.491178376594846
31
0
0
LINE
5
181
100
AcDbEntity
8
CUTOUTS
100
AcDbLine
10
-68.658924694247389
20
65.491178376594846
30
0
11
-70.015691613188437
21
63.141174789150639
31
0
0
LINE
5
182
100
AcDbEntity
8
CUTOUTS
100
AcDbLine
10
-70.015691613188437
20
63.141174789150625
30
0
11
-72.729237878370185
21
63.141167614245774
31
0
0
LINE
5
183
100
AcDbEntity
8
CUTOUTS
100
AcDbLine
10
-72.729237878370185
20
63.141167614245774
30
0
11
-74.08601722461097
21
65.491164026785142
31
0
0
LINE
5
184
100
AcDbEntity
8
PERIMETER
100
AcDbLine
10
-176.17921120606019
20
-73.491489956990563
30
0
11
176.19020484429072
21
-73.491490711703591
31
0
0
ARC
5
185
100
AcDbEntity
8
PERIMETER
100
AcDbCircle
10
176.19020486142534
20
-65.491490711703591
30
0
40
8.0000000000000071
210
0
220
0
230
1
100
AcDbArc
50
269.99999987728251
51
360
0
LINE
5
186
100
AcDbEntity
8
PERIMETER
100
AcDbLine
10
184.1902048614254
20
-65.491490775903785
30
0
11
184.19020591256685
21
65.49148190284852
31
0
0
ARC
5
187
100
AcDbEntity
8
PERIMETER
100
AcDbCircle
10
176.19020591256171
20
65.491481967048713
30
0
40
8.0000000000051585
210
-0
220
0
230
1
100
AcDbArc
50
0
51
90.000151496102816
0
LINE
5
188
100
AcDbEntity
8
PERIMETER
100
AcDbLine
10
176.19018475971532
20
73.491481967025891
30
0
11
-176.18995578856473
21
73.490550236468792
31
0
0
ARC
5
189
100
AcDbEntity
8
PERIMETER
100
AcDbCircle
10
-176.18993465822484
20
65.490550236496688
30
0
40
8.0000000000000053
210
0
220
0
230
1
100
AcDbArc
50
90.000151334911905
51
180.00469079216342
0
LINE
5
18A
100
AcDbEntity
8
PERIMETER
100
AcDbLine
10
-184.18993463141422
20
65.48989527835144
30
0
11
-184.179211162115
21
-65.49214491513581
31
0
0
ARC
5
18B
100
AcDbEntity
8
PERIMETER
100
AcDbCircle
10
-176.17921118892559
20
-65.491489956990563
30
0
40
8.0000000000000178
210
0
220
0
230
1
100
AcDbArc
50
180.00469079216342
51
269.99999987728251
0
ENDSEC
0
SECTION
2
OBJECTS
0
DICTIONARY
5
C
100
AcDbDictionary
3
ACAD_GROUP
350
D
3
ACAD_MLINESTYLE
350
17
0
DICTIONARY
5
D
100
AcDbDictionary
0
DICTIONARY
5
1A
330
C
100
AcDbDictionary
0
DICTIONARY
5
17
100
AcDbDictionary
0
ENDSEC
0
EOF
