0
SECTION
2
HEADER
9
$INSUNITS
70
4
9
$ACADVER
1
AC1014
9
$HANDSEED
5
FFFF
0
ENDSEC
0
SECTION
2
TABLES
0
TABLE
2
VPORT
5
8
100
AcDbSymbolTable
0
ENDTAB
0
TABLE
2
LTYPE
5
5
100
AcDbSymbolTable
0
LTYPE
5
14
100
AcDbSymbolTableRecord
100
AcDbLinetypeTableRecord
2
BYBLOCK
70
0
0
LTYPE
5
15
100
AcDbSymbolTableRecord
100
AcDbLinetypeTableRecord
2
BYLAYER
70
0
0
ENDTAB
0
TABLE
2
LAYER
5
2
100
AcDbSymbolTable
70
2
0
LAYER
5
50
100
AcDbSymbolTableRecord
100
AcDbLayerTableRecord
2
0
70
0
6
CONTINUOUS
0
ENDTAB
0
TABLE
2
STYLE
5
3
100
AcDbSymbolTable
70
1
0
STYLE
5
11
100
AcDbSymbolTableRecord
100
AcDbTextStyleTableRecord
2
STANDARD
70
0
0
ENDTAB
0
TABLE
2
VIEW
5
6
100
AcDbSymbolTable
70
0
0
ENDTAB
0
TABLE
2
UCS
5
7
100
AcDbSymbolTable
70
0
0
ENDTAB
0
TABLE
2
APPID
5
9
100
AcDbSymbolTable
70
2
0
APPID
5
12
100
AcDbSymbolTableRecord
100
AcDbRegAppTableRecord
2
ACAD
70
0
0
ENDTAB
0
TABLE
2
DIMSTYLE
5
A
100
AcDbSymbolTable
70
1
0
ENDTAB
0
TABLE
2
BLOCK_RECORD
5
1
100
AcDbSymbolTable
70
1
0
BLOCK_RECORD
5
1F
100
AcDbSymbolTableRecord
100
AcDbBlockTableRecord
2
*MODEL_SPACE
0
BLOCK_RECORD
5
1B
100
AcDbSymbolTableRecord
100
AcDbBlockTableRecord
2
*PAPER_SPACE
0
ENDTAB
0
ENDSEC
0
SECTION
2
BLOCKS
0
BLOCK
5
20
100
AcDbEntity
100
AcDbBlockBegin
2
*MODEL_SPACE
0
ENDBLK
5
21
100
AcDbEntity
100
AcDbBlockEnd
0
BLOCK
5
1C
100
AcDbEntity
100
AcDbBlockBegin
2
*PAPER_SPACE
0
ENDBLK
5
1D
100
AcDbEntity
100
AcDbBlockEnd
0
ENDSEC
0
SECTION
2
ENTITIES
0
LWPOLYLINE
5
100
100
AcDbEntity
8
0
100
AcDbPolyline
90
8
70
1
43
0.0
10
56.571328811092059
20
-23.717430776835684
10
43.571328811092044
20
-23.717430776835688
42
0.41421356237311324
10
43.07132881109208
20
-24.217430776835709
10
43.071328811092037
20
-37.217430776835705
42
0.41421356237310802
10
43.571328811092044
20
-37.717430776835705
10
56.571328811092066
20
-37.717430776835727
42
0.41421356237311585
10
57.071328811092073
20
-37.217430776835755
10
57.071328811092073
20
-24.217430776835656
42
0.41421356237312101
0
LWPOLYLINE
5
101
100
AcDbEntity
8
0
100
AcDbPolyline
90
8
70
1
43
0.0
10
-85.516171188907961
20
13.882569223164269
10
-85.516171188907947
20
0.88256922316426234
42
0.41421356237310025
10
-85.016171188907933
20
0.38256922316424635
10
-72.016171188907961
20
0.38256922316426412
42
0.41421356237310542
10
-71.516171188907947
20
0.88256922316426234
10
-71.516171188907933
20
13.882569223164269
42
0.41421356237309503
10
-72.016171188907933
20
14.382569223164277
10
-85.016171188907933
20
14.382569223164259
42
0.41421356237311063
0
LWPOLYLINE
5
102
100
AcDbEntity
8
0
100
AcDbPolyline
90
8
70
1
43
0.0
10
4.9713288110920564
20
-24.217430776835709
10
4.9713288110920573
20
-37.217430776835705
42
0.41421356237314444
10
5.4713288110920644
20
-37.717430776835705
10
18.471328811092075
20
-37.71743077683572
42
0.41421356237311585
10
18.971328811092079
20
-37.217430776835691
10
18.971328811092082
20
-24.217430776835677
42
0.41421356237309503
10
18.471328811092075
20
-23.71743077683567
10
5.4713288110920644
20
-23.717430776835684
42
0.41421356237314705
0
LWPOLYLINE
5
103
100
AcDbEntity
8
0
100
AcDbPolyline
90
8
70
1
43
0.0
10
-0.078671188907950551
20
-37.217430776835727
42
-0.41421356237309509
10
-0.57867118890793989
20
-37.71743077683572
10
-13.578671188907947
20
-37.717430776835712
42
-0.41421356237309503
10
-14.078671188907954
20
-37.217430776835705
10
-14.078671188907954
20
-24.217430776835691
42
-0.41421356237309503
10
-13.578671188907947
20
-23.717430776835684
10
-0.57867118890793989
20
-23.71743077683567
42
-0.41421356237309503
10
-0.078671188907932788
20
-24.217430776835677
0
LWPOLYLINE
5
104
100
AcDbEntity
8
0
100
AcDbPolyline
90
8
70
1
43
0.0
10
-43.441171188907965
20
33.432569223164279
10
-56.441171188907937
20
33.432569223164279
42
0.41421356237310281
10
-56.941171188907944
20
32.932569223164293
10
-56.941171188907944
20
19.932569223164293
42
0.41421356237308982
10
-56.441171188907944
20
19.432569223164286
10
-43.441171188907958
20
19.432569223164286
42
0.41421356237310542
10
-42.941171188907944
20
19.932569223164283
10
-42.941171188907958
20
32.932569223164279
42
0.41421356237309503
0
LWPOLYLINE
5
105
100
AcDbEntity
8
0
100
AcDbPolyline
90
8
70
1
43
0.0
10
-33.128671188907965
20
-24.217430776835709
10
-33.128671188907965
20
-37.217430776835705
42
0.41421356237309503
10
-32.628671188907958
20
-37.717430776835712
10
-19.628671188907951
20
-37.717430776835712
42
0.41421356237310281
10
-19.128671188907944
20
-37.217430776835691
10
-19.128671188907944
20
-24.217430776835691
42
0.41421356237309503
10
-19.628671188907951
20
-23.717430776835684
10
-32.628671188907958
20
-23.717430776835684
42
0.41421356237310542
0
LWPOLYLINE
5
106
100
AcDbEntity
8
0
100
AcDbPolyline
90
8
70
1
43
0.0
10
151.821328811092
20
33.432569223164251
10
138.82132881109209
20
33.432569223164279
42
0.41421356237309503
10
138.32132881109203
20
32.932569223164229
10
138.32132881109206
20
19.932569223164283
42
0.41421356237310025
10
138.82132881109209
20
19.432569223164272
10
151.821328811092
20
19.432569223164275
42
0.41421356237320689
10
152.32132881109197
20
19.932569223164283
10
152.321328811092
20
32.932569223164279
42
0.41421356237303519
0
LWPOLYLINE
5
107
100
AcDbEntity
8
0
100
AcDbPolyline
90
8
70
1
43
0.0
10
57.85882881109206
20
19.432569223164265
42
-0.41421356237309503
10
57.358828811092053
20
19.932569223164272
10
57.358828811092053
20
32.932569223164229
42
-0.414213562373069
10
57.85882881109206
20
33.432569223164293
10
70.858828811092067
20
33.432569223164279
42
-0.41421356237313667
10
71.358828811092081
20
32.932569223164279
10
71.358828811092081
20
19.932569223164247
42
-0.41421356237312101
10
70.858828811092067
20
19.432569223164272
0
LWPOLYLINE
5
108
100
AcDbEntity
8
0
100
AcDbPolyline
90
8
70
1
43
0.0
10
33.258828811092087
20
19.932569223164283
10
33.25882881109208
20
32.932569223164279
42
0.41421356237310281
10
32.758828811092073
20
33.4325692231643
10
19.758828811092073
20
33.432569223164286
42
0.41421356237309503
10
19.258828811092044
20
32.932569223164251
10
19.258828811092066
20
19.932569223164283
42
0.41421356237311063
10
19.758828811092073
20
19.432569223164265
10
32.758828811092073
20
19.432569223164279
42
0.41421356237313406
0
LWPOLYLINE
5
109
100
AcDbEntity
8
0
100
AcDbPolyline
90
8
70
1
43
0.0
10
119.27132881109209
20
32.932569223164229
42
-0.41421356237307422
10
119.7713288110921
20
33.432569223164279
10
132.77132881109208
20
33.4325692231643
42
-0.41421356237310281
10
133.27132881109208
20
32.932569223164279
10
133.2713288110921
20
19.932569223164265
42
-0.41421356237310542
10
132.77132881109208
20
19.432569223164272
10
119.7713288110921
20
19.432569223164265
42
-0.41421356237310025
10
119.27132881109209
20
19.932569223164283
0
LWPOLYLINE
5
110
100
AcDbEntity
8
0
100
AcDbPolyline
90
8
70
1
43
0.0
10
52.308828811092063
20
19.932569223164283
10
52.308828811092063
20
32.932569223164279
42
0.41421356237312623
10
51.808828811092063
20
33.432569223164293
10
38.808828811092049
20
33.432569223164279
42
0.41421356237304041
10
38.308828811092042
20
32.932569223164293
10
38.308828811092042
20
19.932569223164272
42
0.41421356237309503
10
38.808828811092049
20
19.432569223164265
10
51.808828811092056
20
19.432569223164279
42
0.41421356237313667
0
LWPOLYLINE
5
111
100
AcDbEntity
8
0
100
AcDbPolyline
90
8
70
1
43
0.0
10
-46.916171188907967
20
0.38256922316424635
42
-0.41421356237307422
10
-47.416171188907953
20
0.88256922316427122
10
-47.416171188907938
20
13.882569223164269
42
-0.41421356237310025
10
-46.91617118890796
20
14.382569223164268
10
-33.91617118890796
20
14.382569223164277
42
-0.41421356237309503
10
-33.416171188907953
20
13.882569223164269
10
-33.416171188907938
20
0.88256922316426234
42
-0.41421356237310802
10
-33.916171188907953
20
0.38256922316426412
0
LWPOLYLINE
5
112
100
AcDbEntity
8
0
100
AcDbPolyline
90
8
70
1
43
0.0
10
-91.066171188907887
20
14.382569223164277
42
-0.41421356237306384
10
-90.566171188907916
20
13.882569223164252
10
-90.566171188907958
20
0.88256922316424458
42
-0.41421356237309503
10
-91.066171188907944
20
0.38256922316426412
10
-104.06617118890799
20
0.38256922316426412
42
-0.41421356237307422
10
-104.56617118890793
20
0.88256922316425346
10
-104.56617118890793
20
13.882569223164269
42
-0.41421356237310542
10
-104.06617118890793
20
14.382569223164268
0
LWPOLYLINE
5
113
100
AcDbEntity
8
0
100
AcDbPolyline
90
8
70
1
43
0.0
10
-142.16617118890795
20
0.382569223164273
10
-129.16617118890795
20
0.38256922316426412
42
0.41421356237309503
10
-128.66617118890798
20
0.88256922316426234
10
-128.66617118890795
20
13.882569223164261
42
0.41421356237309503
10
-129.16617118890795
20
14.382569223164277
10
-142.16617118890795
20
14.382569223164259
42
0.41421356237309503
10
-142.66617118890795
20
13.882569223164261
10
-142.66617118890795
20
0.88256922316426234
42
0.41421356237309503
0
LWPOLYLINE
5
114
100
AcDbEntity
8
0
100
AcDbPolyline
90
8
70
1
43
0.0
10
-75.991171188907956
20
32.932569223164293
10
-75.991171188907956
20
19.932569223164283
42
0.4142135623730781
10
-75.49117118890797
20
19.432569223164286
10
-62.491171188907948
20
19.432569223164286
42
0.41421356237310542
10
-61.991171188907934
20
19.932569223164283
10
-61.991171188907934
20
32.932569223164279
42
0.41421356237308982
10
-62.491171188907934
20
33.432569223164286
10
-75.491171188907941
20
33.432569223164279
42
0.41421356237310281
0
LWPOLYLINE
5
115
100
AcDbEntity
8
0
100
AcDbPolyline
90
8
70
1
43
0.0
10
-57.228671188907953
20
-37.217430776835691
42
-0.4142135623730846
10
-57.728671188907953
20
-37.71743077683572
10
-70.728671188907953
20
-37.717430776835712
42
-0.41421356237309503
10
-71.228671188907953
20
-37.217430776835705
10
-71.228671188907967
20
-24.217430776835691
42
-0.41421356237309503
10
-70.728671188907953
20
-23.717430776835705
10
-57.728671188907967
20
-23.717430776835684
42
-0.41421356237307944
10
-57.228671188907967
20
-24.217430776835691
0
LWPOLYLINE
5
116
100
AcDbEntity
8
0
100
AcDbPolyline
90
8
70
1
43
0.0
10
90.69632881109203
20
-43.267430776835681
42
-0.41421356237311585
10
91.196328811092044
20
-42.76743077683571
10
106.57757881109205
20
-42.76743077683571
42
-0.41421356237310542
10
107.07757881109204
20
-43.267430776835681
10
107.07757881109205
20
-56.26743077683571
42
-0.41421356237309503
10
106.57757881109205
20
-56.767430776835717
10
91.196328811092059
20
-56.767430776835717
42
-0.41421356237309503
10
90.696328811092059
20
-56.26743077683571
0
LWPOLYLINE
5
117
100
AcDbEntity
8
0
100
AcDbPolyline
90
8
70
1
43
0.0
10
-118.35367118890794
20
-18.667430776835712
10
-105.35367118890797
20
-18.667430776835726
42
0.41421356237309503
10
-104.85367118890795
20
-18.167430776835726
10
-104.85367118890795
20
-5.1674307768357339
42
0.41421356237309503
10
-105.35367118890797
20
-4.6674307768357268
10
-118.35367118890794
20
-4.6674307768357357
42
0.41421356237309437
10
-118.85367118890797
20
-5.167430776835733
10
-118.85367118890795
20
-18.167430776835726
42
0.41421356237309503
0
LWPOLYLINE
5
118
100
AcDbEntity
8
0
100
AcDbPolyline
90
8
70
1
43
0.0
10
-121.23492118890795
20
-43.267430776835702
10
-121.23492118890795
20
-56.26743077683571
42
0.41421356237310542
10
-120.73492118890795
20
-56.767430776835695
10
-105.35367118890795
20
-56.76743077683571
42
0.414213562373069
10
-104.85367118890795
20
-56.26743077683571
10
-104.85367118890795
20
-43.267430776835731
42
0.41421356237309503
10
-105.35367118890797
20
-42.76743077683571
10
-120.73492118890796
20
-42.767430776835724
42
0.41421356237307944
0
LWPOLYLINE
5
119
100
AcDbEntity
8
0
100
AcDbPolyline
90
8
70
1
43
0.0
10
138.32132881109206
20
13.882569223164269
10
138.32132881109203
20
0.88256922316426234
42
0.41421356237312623
10
138.82132881109203
20
0.382569223164273
10
151.821328811092
20
0.38256922316426412
42
0.4142135623731939
10
152.32132881109197
20
0.88256922316425346
10
152.321328811092
20
13.882569223164216
42
0.41421356237306384
10
151.821328811092
20
14.382569223164252
10
138.82132881109209
20
14.382569223164268
42
0.41421356237303258
0
LWPOLYLINE
5
120
100
AcDbEntity
8
0
100
AcDbPolyline
90
8
70
1
43
0.0
10
119.27132881109209
20
13.882569223164216
42
-0.41421356237306384
10
119.7713288110921
20
14.382569223164268
10
132.77132881109208
20
14.38256922316425
42
-0.41421356237310542
10
133.27132881109208
20
13.882569223164278
10
133.27132881109205
20
0.88256922316431563
42
-0.41421356237304302
10
132.77132881109208
20
0.38256922316426417
10
119.77132881109212
20
0.382569223164273
42
-0.41421356237311585
10
119.2713288110921
20
0.88256922316424458
0
LWPOLYLINE
5
121
100
AcDbEntity
8
0
100
AcDbPolyline
90
8
70
1
43
0.0
10
23.233828811092078
20
14.382569223164285
10
10.233828811092067
20
14.382569223164268
42
0.41421356237307422
10
9.7338288110920246
20
13.882569223164269
10
9.7338288110920619
20
0.88256922316426234
42
0.41421356237313528
10
10.233828811092067
20
0.38256922316426412
10
23.233828811092074
20
0.38256922316426417
42
0.41421356237301699
10
23.733828811092078
20
0.88256922316425346
10
23.733828811092081
20
13.882569223164261
42
0.41421356237312362
0
LWPOLYLINE
5
122
100
AcDbEntity
8
0
100
AcDbPolyline
90
8
70
1
43
0.0
10
-143.39692118890795
20
-39.717430776835691
10
-137.39692118890795
20
-39.717430776835684
42
0.41421356237306384
10
-136.89692118890798
20
-39.21743077683567
10
-136.89692118890795
20
-25.21743077683567
42
0.41421356237310802
10
-137.39692118890792
20
-24.717430776835659
10
-143.39692118890795
20
-24.717430776835663
42
0.41421356237309503
10
-143.89692118890795
20
-25.21743077683567
10
-143.89692118890795
20
-39.21743077683567
42
0.41421356237309503
0
LWPOLYLINE
5
123
100
AcDbEntity
8
0
100
AcDbPolyline
90
8
70
1
43
0.0
10
-114.37867118890793
20
-37.217430776835705
42
-0.41421356237309503
10
-114.87867118890793
20
-37.717430776835712
10
-127.87867118890794
20
-37.717430776835712
42
-0.41421356237309503
10
-128.37867118890796
20
-37.217430776835705
10
-128.37867118890796
20
-24.217430776835709
42
-0.41421356237310542
10
-127.87867118890794
20
-23.717430776835705
10
-114.87867118890792
20
-23.717430776835684
42
-0.41421356237307422
10
-114.37867118890794
20
-24.217430776835691
0
LWPOLYLINE
5
124
100
AcDbEntity
8
0
100
AcDbPolyline
90
8
70
1
43
0.0
10
-80.253671188907973
20
-18.667430776835737
10
-67.253671188907944
20
-18.667430776835726
42
0.41421356237310025
10
-66.75367118890793
20
-18.167430776835726
10
-66.75367118890793
20
-5.1674307768357339
42
0.41421356237309503
10
-67.253671188907944
20
-4.6674307768357268
10
-80.253671188907973
20
-4.6674307768357348
42
0.41421356237309503
10
-80.753671188907973
20
-5.1674307768357419
10
-80.753671188907973
20
-18.167430776835737
42
0.41421356237309503
0
LWPOLYLINE
5
125
100
AcDbEntity
8
0
100
AcDbPolyline
90
8
70
1
43
0.0
10
-85.803671188907941
20
-18.167430776835754
42
-0.41421356237309503
10
-86.303671188907941
20
-18.667430776835737
10
-99.303671188907941
20
-18.667430776835726
42
-0.41421356237309503
10
-99.803671188907941
20
-18.167430776835737
10
-99.803671188907941
20
-5.1674307768357339
42
-0.41421356237309503
10
-99.303671188907927
20
-4.6674307768357357
10
-86.303671188907913
20
-4.6674307768357259
42
-0.41421356237307488
10
-85.803671188907913
20
-5.167430776835733
0
LWPOLYLINE
5
126
100
AcDbEntity
8
0
100
AcDbPolyline
90
8
70
1
43
0.0
10
82.114578811092116
20
-17.167430776835744
42
-0.41421356237311585
10
81.614578811092088
20
-17.667430776835722
10
75.614578811092059
20
-17.667430776835715
42
-0.41421356237312623
10
75.114578811092059
20
-17.167430776835715
10
75.114578811092031
20
-3.1674307768357668
42
-0.41421356237309503
10
75.614578811092059
20
-2.667430776835733
10
81.614578811092059
20
-2.6674307768357246
42
-0.41421356237313667
10
82.114578811092102
20
-3.1674307768356957
0
LWPOLYLINE
5
127
100
AcDbEntity
8
0
100
AcDbPolyline
90
8
70
1
43
0.0
10
157.87132881109204
20
0.3825692231642997
10
170.87132881109198
20
0.38256922316426412
42
0.41421356237315748
10
171.37132881109198
20
0.88256922316417352
10
171.37132881109204
20
13.882569223164216
42
0.4142135623730534
10
170.87132881109204
20
14.382569223164259
10
157.87132881109204
20
14.382569223164259
42
0.41421356237312623
10
157.37132881109207
20
13.882569223164349
10
157.3713288110921
20
0.88256922316431563
42
0.41421356237304302
0
LWPOLYLINE
5
128
100
AcDbEntity
8
0
100
AcDbPolyline
90
8
70
1
43
0.0
10
47.046328811092053
20
-4.6674307768357339
42
-0.41421356237311585
10
47.54632881109206
20
-5.1674307768357064
10
47.546328811092081
20
-18.167430776835726
42
-0.41421356237307422
10
47.046328811092046
20
-18.667430776835722
10
34.046328811092046
20
-18.667430776835726
42
-0.41421356237311585
10
33.546328811092039
20
-18.167430776835754
10
33.546328811092067
20
-5.1674307768357854
42
-0.4142135623730534
10
34.046328811092046
20
-4.6674307768357339
0
LWPOLYLINE
5
129
100
AcDbEntity
8
0
100
AcDbPolyline
90
8
70
1
43
0.0
10
-137.90367118890796
20
-5.1674307768357339
42
-0.41421356237309503
10
-137.40367118890794
20
-4.6674307768357357
10
-124.40367118890792
20
-4.6674307768357268
42
-0.41421356237309503
10
-123.90367118890795
20
-5.167430776835733
10
-123.90367118890794
20
-18.167430776835726
42
-0.41421356237309503
10
-124.40367118890792
20
-18.667430776835722
10
-137.40367118890794
20
-18.667430776835733
42
-0.41421356237309503
10
-137.90367118890796
20
-18.167430776835726
0
LWPOLYLINE
5
130
100
AcDbEntity
8
0
100
AcDbPolyline
90
8
70
1
43
0.0
10
-145.33492118890794
20
-37.217430776835691
10
-145.33492118890797
20
-24.217430776835691
42
0.41421356237310281
10
-145.83492118890797
20
-23.717430776835684
10
-158.83492118890797
20
-23.717430776835684
42
0.41421356237310542
10
-159.33492118890797
20
-24.217430776835709
10
-159.334921188908
20
-37.217430776835705
42
0.41421356237310802
10
-158.83492118890797
20
-37.717430776835734
10
-145.83492118890797
20
-37.717430776835712
42
0.41421356237310281
0
LWPOLYLINE
5
131
100
AcDbEntity
8
0
100
AcDbPolyline
90
8
70
1
43
0.0
10
9.4463288110920445
20
-18.16743077683568
42
-0.4142135623730534
10
8.946328811092064
20
-18.667430776835733
10
-4.0536711889079422
20
-18.667430776835737
42
-0.41421356237311519
10
-4.5536711889079484
20
-18.167430776835765
10
-4.5536711889079742
20
-5.1674307768357686
42
-0.41421356237309503
10
-4.0536711889079413
20
-4.6674307768357437
10
8.9463288110920676
20
-4.6674307768357526
42
-0.4142135623731204
10
9.4463288110920729
20
-5.167430776835733
0
LWPOLYLINE
5
132
100
AcDbEntity
8
0
100
AcDbPolyline
90
8
70
1
43
0.0
10
66.596328811092064
20
-18.167430776835726
10
66.596328811092064
20
-5.1674307768357339
42
0.41421356237312756
10
66.096328811092079
20
-4.6674307768357339
10
53.096328811092057
20
-4.6674307768357339
42
0.4142135623730534
10
52.596328811092079
20
-5.1674307768357863
10
52.59632881109205
20
-18.167430776835726
42
0.41421356237313794
10
53.096328811092064
20
-18.667430776835722
10
66.096328811092064
20
-18.667430776835726
42
0.41421356237307422
0
LWPOLYLINE
5
133
100
AcDbEntity
8
0
100
AcDbPolyline
90
8
70
1
43
0.0
10
28.496328811092052
20
-18.167430776835726
10
28.496328811092049
20
-5.1674307768357339
42
0.41421356237313273
10
27.996328811092042
20
-4.6674307768357339
10
14.996328811092035
20
-4.6674307768357339
42
0.4142135623730534
10
14.496328811092054
20
-5.1674307768357846
10
14.496328811092029
20
-18.167430776835754
42
0.41421356237311585
10
14.996328811092036
20
-18.667430776835726
10
27.996328811092042
20
-18.667430776835726
42
0.41421356237307422
0
LWPOLYLINE
5
134
100
AcDbEntity
8
0
100
AcDbPolyline
90
8
70
1
43
0.0
10
-48.20367118890794
20
-4.6674307768357348
10
-61.20367118890794
20
-4.6674307768357348
42
0.41421356237308982
10
-61.703671188907947
20
-5.167430776835733
10
-61.703671188907947
20
-18.167430776835737
42
0.41421356237309503
10
-61.20367118890794
20
-18.667430776835744
10
-48.20367118890794
20
-18.667430776835737
42
0.41421356237309503
10
-47.703671188907961
20
-18.167430776835754
10
-47.703671188907947
20
-5.1674307768357339
42
0.41421356237306967
0
LWPOLYLINE
5
135
100
AcDbEntity
8
0
100
AcDbPolyline
90
8
70
1
43
0.0
10
99.490578811092092
20
-17.667430776835747
10
105.49057881109208
20
-17.667430776835722
42
0.41421356237310025
10
105.99057881109209
20
-17.167430776835737
10
105.99057881109205
20
-3.1674307768356962
42
0.41421356237309503
10
105.49057881109208
20
-2.6674307768357242
10
99.490578811092092
20
-2.6674307768357335
42
0.41421356237301798
10
98.990578811092149
20
-3.1674307768357246
10
98.990578811092078
20
-17.167430776835715
42
0.41421356237312101
0
LWPOLYLINE
5
136
100
AcDbEntity
8
0
100
AcDbPolyline
90
6
70
1
43
0.0
10
-174.47468576917285
20
63.140518217088335
10
-173.11791263657727
20
65.490518217088322
10
-174.47468576917285
20
67.840518217088317
10
-177.18823203436412
20
67.840518217088317
10
-178.54500516695975
20
65.490518217088351
10
-177.18823203436412
20
63.140518217088356
0
LWPOLYLINE
5
137
100
AcDbEntity
8
0
100
AcDbPolyline
90
8
70
1
43
0.0
10
-145.04742118890798
20
-43.267430776835702
10
-145.047421188908
20
-56.26743077683571
42
0.41421356237309503
10
-144.547421188908
20
-56.767430776835717
10
-129.16617118890795
20
-56.76743077683571
42
0.41421356237305862
10
-128.66617118890792
20
-56.26743077683571
10
-128.66617118890795
20
-43.267430776835731
42
0.41421356237309503
10
-129.16617118890795
20
-42.767430776835724
10
-144.547421188908
20
-42.767430776835724
42
0.41421356237307944
0
LWPOLYLINE
5
138
100
AcDbEntity
8
0
100
AcDbPolyline
90
8
70
1
43
0.0
10
-9.6036711889079385
20
-18.167430776835726
10
-9.6036711889079385
20
-5.1674307768357339
42
0.41421356237312168
10
-10.103671188907946
20
-4.6674307768357526
10
-23.103671188907953
20
-4.6674307768357348
42
0.41421356237308982
10
-23.603671188907963
20
-5.167430776835733
10
-23.60367118890796
20
-18.167430776835737
42
0.41421356237309503
10
-23.103671188907953
20
-18.667430776835744
10
-10.103671188907946
20
-18.667430776835733
42
0.41421356237302737
0
LWPOLYLINE
5
139
100
AcDbEntity
8
0
100
AcDbPolyline
90
8
70
1
43
0.0
10
83.265078811092081
20
-56.26743077683571
10
83.265078811092096
20
-43.267430776835731
42
0.41421356237311063
10
82.765078811092096
20
-42.767430776835695
10
67.383828811092059
20
-42.76743077683571
42
0.41421356237309503
10
66.883828811092087
20
-43.267430776835702
10
66.883828811092059
20
-56.26743077683571
42
0.41421356237307944
10
67.383828811092059
20
-56.767430776835688
10
82.765078811092096
20
-56.76743077683571
42
0.41421356237307944
0
LWPOLYLINE
5
140
100
AcDbEntity
8
0
100
AcDbPolyline
90
8
70
1
43
0.0
10
-42.653671188907936
20
-5.1674307768357419
42
-0.41421356237309503
10
-42.153671188907929
20
-4.6674307768357348
10
-29.153671188907943
20
-4.6674307768357259
42
-0.4142135623730846
10
-28.653671188907936
20
-5.1674307768357508
10
-28.653671188907953
20
-18.167430776835754
42
-0.41421356237309503
10
-29.153671188907936
20
-18.667430776835722
10
-42.153671188907929
20
-18.667430776835744
42
-0.41421356237310153
10
-42.653671188907936
20
-18.167430776835726
0
LWPOLYLINE
5
141
100
AcDbEntity
8
0
100
AcDbPolyline
90
8
70
1
43
0.0
10
-152.47867118890792
20
-56.267430776835681
42
-0.41421356237307422
10
-152.97867118890792
20
-56.76743077683571
10
-168.359921188908
20
-56.767430776835688
42
-0.41421356237305862
10
-168.85992118890798
20
-56.26743077683571
10
-168.85992118890798
20
-43.267430776835702
42
-0.41421356237307944
10
-168.35992118890798
20
-42.76743077683571
10
-152.97867118890795
20
-42.767430776835695
42
-0.41421356237311063
10
-152.47867118890795
20
-43.267430776835731
0
LWPOLYLINE
5
142
100
AcDbEntity
8
0
100
AcDbPolyline
90
20
70
1
43
0.0
10
84.495828811092053
20
17.932569223164325
42
-0.41421356237304302
10
83.995828811092082
20
17.432569223164272
10
77.995828811092039
20
17.432569223164286
42
-0.41421356237311452
10
77.495828811092039
20
17.932569223164265
10
77.495828811092039
20
19.432569223164265
10
76.908828811092064
20
19.432569223164265
42
-0.41421356237310025
10
76.408828811092064
20
19.932569223164283
10
76.40882881109205
20
32.932569223164229
42
-0.41421356237307944
10
76.908828811092064
20
33.432569223164293
10
108.95882881109209
20
33.432569223164279
42
-0.41421356237312623
10
109.45882881109212
20
32.932569223164307
10
109.45882881109212
20
19.932569223164283
42
-0.41421356237314705
10
108.95882881109209
20
19.432569223164272
10
108.37182881109207
20
19.432569223164272
10
108.37182881109212
20
17.932569223164307
42
-0.41421356237309503
10
107.87182881109206
20
17.432569223164272
10
101.87182881109209
20
17.432569223164286
42
-0.41421356237314055
10
101.37182881109206
20
17.932569223164265
10
101.37182881109206
20
19.432569223164261
10
84.495828811092053
20
19.432569223164272
0
LWPOLYLINE
5
143
100
AcDbEntity
8
0
100
AcDbPolyline
90
8
70
1
43
0.0
10
-150.09742118890796
20
-18.167430776835726
42
-0.41421356237309503
10
-150.59742118890796
20
-18.667430776835726
10
-168.35992118890798
20
-18.667430776835733
42
-0.41421356237309503
10
-168.85992118890798
20
-18.167430776835726
10
-168.85992118890798
20
-5.1674307768357339
42
-0.41421356237309503
10
-168.35992118890798
20
-4.6674307768357348
10
-150.59742118890802
20
-4.6674307768357268
42
-0.41421356237313667
10
-150.09742118890796
20
-5.167430776835733
0
LWPOLYLINE
5
144
100
AcDbEntity
8
0
100
AcDbPolyline
90
11
70
1
43
0.0
10
108.95882881109209
20
-23.717430776835705
10
94.728078811092075
20
-23.717430776835648
42
0.41421356237306384
10
94.228078811092075
20
-24.217430776835709
10
94.228078811092075
20
-39.21743077683567
42
0.4142135623730846
10
94.728078811092075
20
-39.717430776835663
10
100.7280788110921
20
-39.717430776835684
42
0.41421356237307422
10
101.22807881109213
20
-39.217430776835691
10
101.22807881109209
20
-37.717430776835705
10
108.95882881109209
20
-37.717430776835727
42
0.41421356237316265
10
109.4588288110921
20
-37.217430776835691
10
109.45882881109212
20
-24.217430776835691
42
0.41421356237314705
0
LWPOLYLINE
5
145
100
AcDbEntity
8
0
100
AcDbPolyline
90
14
70
1
43
0.0
10
92.790078811092059
20
-37.217430776835755
42
-0.41421356237311585
10
92.290078811092044
20
-37.717430776835727
10
77.352078811092028
20
-37.717430776835705
10
77.352078811092056
20
-39.217430776835656
42
-0.41421356237309503
10
76.852078811092042
20
-39.717430776835684
10
70.852078811092056
20
-39.717430776835684
42
-0.41421356237309503
10
70.352078811092042
20
-39.21743077683567
10
70.352078811092042
20
-37.717430776835677
10
69.765078811092081
20
-37.717430776835727
42
-0.41421356237312101
10
69.265078811092053
20
-37.217430776835755
10
69.265078811092053
20
-24.217430776835709
42
-0.41421356237314705
10
69.765078811092067
20
-23.717430776835705
10
92.290078811092044
20
-23.717430776835684
42
-0.41421356237313667
10
92.790078811092073
20
-24.217430776835691
0
LWPOLYLINE
5
146
100
AcDbEntity
8
0
100
AcDbPolyline
90
8
70
1
43
0.0
10
-49.297421188907947
20
-56.767430776835695
42
-0.41421356237307944
10
-49.797421188907968
20
-56.267430776835653
10
-49.797421188907961
20
-43.267430776835738
42
-0.4142135623730846
10
-49.297421188907947
20
-42.76743077683571
10
-24.391171188907954
20
-42.767430776835724
42
-0.41421356237309503
10
-23.891171188907947
20
-43.267430776835731
10
-23.891171188907947
20
-56.26743077683571
42
-0.414213562373069
10
-24.391171188907954
20
-56.767430776835717
0
LWPOLYLINE
5
147
100
AcDbEntity
8
0
100
AcDbPolyline
90
6
70
1
43
0.0
10
-177.28459296447969
20
-67.841491403758383
10
-174.57104669928844
20
-67.841491403758383
10
-173.21427356669287
20
-65.491491403758403
10
-174.57104669928844
20
-63.141491403758401
10
-177.28459296447969
20
-63.141491403758401
10
-178.64136609707526
20
-65.491491403758403
0
LWPOLYLINE
5
148
100
AcDbEntity
8
0
100
AcDbPolyline
90
6
70
1
43
0.0
10
-70.015670133695778
20
67.841173696052991
10
-72.72921639887754
20
67.841166521148153
10
-74.085983317818545
20
65.491162933703933
10
-72.729203971577803
20
63.141166521164564
10
-70.015657706396027
20
63.141173696069401
10
-68.658890787455022
20
65.491177283513636
0
LWPOLYLINE
5
149
100
AcDbEntity
8
0
100
AcDbPolyline
90
6
70
1
43
0.0
10
-123.59377303583938
20
-67.841491385060309
10
-122.23699989821046
20
-65.491491387966292
10
-123.5937730257728
20
-63.14149138506032
10
-126.30731929096402
20
-63.141491379248379
10
-127.66409242859294
20
-65.491491376342395
10
-126.3073193010306
20
-67.841491379248396
0
LWPOLYLINE
5
150
100
AcDbEntity
8
0
100
AcDbPolyline
90
6
70
1
43
0.0
10
93.26610921174121
20
65.491420815581492
10
91.909304353714788
20
67.841402498609966
10
89.195758088770845
20
67.841365865095241
10
87.839016681853252
20
65.491347548552028
10
89.195821539879631
20
63.141365865523518
10
91.909367804823589
20
63.141402499038286
0
LWPOLYLINE
5
151
100
AcDbEntity
8
0
100
AcDbPolyline
90
6
70
1
43
0.0
10
174.71594292107565
20
63.141507823181513
10
177.42948918626692
20
63.141507823181513
10
178.78626231886258
20
65.49150782318155
10
177.42948918626692
20
67.841507823181558
10
174.71594292107565
20
67.84150782318153
10
173.35916978848005
20
65.49150782318155
0
LWPOLYLINE
5
152
100
AcDbEntity
8
0
100
AcDbPolyline
90
8
70
1
43
0.0
10
-96.297421188907947
20
-41.267430776835702
42
-0.41421356237310542
10
-95.797421188907919
20
-40.767430776835695
10
-85.041171188907924
20
-40.767430776835681
42
-0.41421356237307422
10
-84.541171188907938
20
-41.26743077683571
10
-84.541171188907981
20
-55.267430776835731
42
-0.41421356237310542
10
-85.041171188907953
20
-55.767430776835702
10
-95.797421188907919
20
-55.767430776835724
42
-0.41421356237310025
10
-96.297421188907961
20
-55.267430776835702
0
LWPOLYLINE
5
153
100
AcDbEntity
8
0
100
AcDbPolyline
90
6
70
1
43
0.0
10
42.0692500634323
20
-65.491491560850903
10
40.712476935869937
20
-63.14149155794496
10
37.998930670678703
20
-63.14149155213304
10
36.642157533049826
20
-65.491491549227078
10
37.998930660612203
20
-67.841491552133007
10
40.712476925803429
20
-67.84149155794492
0
LWPOLYLINE
5
154
100
AcDbEntity
8
0
100
AcDbPolyline
90
6
70
1
43
0.0
10
8.2332960281392058
20
63.141273557893562
10
10.946842293320957
20
63.141280732798393
10
12.303609212261968
20
65.491284320242599
10
10.946829866021233
20
67.841280732781954
10
8.233283600839485
20
67.841273557877116
10
6.8765166818984724
20
65.491269970432924
0
LWPOLYLINE
5
155
100
AcDbEntity
8
0
100
AcDbPolyline
90
8
70
1
43
0.0
10
43.071328811092052
20
-43.267430776835702
42
-0.41421356237309503
10
43.571328811092044
20
-42.76743077683571
10
58.95257881109206
20
-42.767430776835695
42
-0.41421356237311063
10
59.452578811092074
20
-43.267430776835731
10
59.452578811092081
20
-56.26743077683571
42
-0.41421356237307944
10
58.95257881109206
20
-56.76743077683571
10
43.571328811092044
20
-56.767430776835688
42
-0.41421356237307944
10
43.071328811092044
20
-56.26743077683571
0
LWPOLYLINE
5
156
100
AcDbEntity
8
0
100
AcDbPolyline
90
11
70
1
43
0.0
10
22.140078811092078
20
-56.767430776835688
42
-0.41421356237309503
10
21.640078811092071
20
-56.267430776835681
10
21.640078811092085
20
-41.267430776835702
42
-0.41421356237305601
10
22.140078811092078
20
-40.767430776835681
10
29.258828811092066
20
-40.767430776835674
42
-0.41421356237309503
10
29.758828811092073
20
-41.267430776835681
10
29.758828811092076
20
-42.767430776835695
10
35.140078811092053
20
-42.767430776835695
42
-0.41421356237311063
10
35.640078811092046
20
-43.267430776835731
10
35.640078811092081
20
-56.26743077683571
42
-0.41421356237307944
10
35.140078811092053
20
-56.767430776835717
0
LWPOLYLINE
5
157
100
AcDbEntity
8
0
100
AcDbPolyline
90
8
70
1
43
0.0
10
157.3713288110921
20
32.932569223164379
42
-0.41421356237312623
10
157.87132881109204
20
33.432569223164279
10
170.87132881109204
20
33.432569223164272
42
-0.41421356237302481
10
171.37132881109198
20
32.932569223164279
10
171.37132881109198
20
19.93256922316418
42
-0.41421356237313667
10
170.87132881109201
20
19.432569223164275
10
157.87132881109204
20
19.432569223164315
42
-0.41421356237304302
10
157.3713288110921
20
19.932569223164357
0
LWPOLYLINE
5
158
100
AcDbEntity
8
0
100
AcDbPolyline
90
6
70
1
43
0.0
10
174.71350765315839
20
-63.14149219115798
10
173.35673474786546
20
-65.491491797458167
10
174.71350765315839
20
-67.841491403758369
10
177.42705346374424
20
-67.841491403758397
10
178.7838263690372
20
-65.491491797458167
10
177.42705346374424
20
-63.141492191157923
0
LWPOLYLINE
5
159
100
AcDbEntity
8
0
100
AcDbPolyline
90
8
70
1
43
0.0
10
-157.74117118890797
20
57.245069223164293
42
-0.41421356237309503
10
-157.24117118890797
20
56.745069223164286
10
-157.241171188908
20
43.745069223164279
42
-0.41421356237309503
10
-157.74117118890797
20
43.245069223164279
10
-170.74117118890797
20
43.245069223164272
42
-0.41421356237309503
10
-171.24117118890794
20
43.745069223164279
10
-171.24117118890797
20
56.745069223164286
42
-0.41421356237309503
10
-170.74117118890797
20
57.245069223164286
0
LWPOLYLINE
5
160
100
AcDbEntity
8
0
100
AcDbPolyline
90
8
70
1
43
0.0
10
33.546328811092025
20
56.745069223164215
42
-0.41421356237307422
10
34.046328811092039
20
57.245069223164265
10
47.046328811092046
20
57.245069223164286
42
-0.41421356237313667
10
47.54632881109206
20
56.745069223164286
10
47.546328811092067
20
43.745069223164279
42
-0.4142135623730846
10
47.046328811092046
20
43.245069223164272
10
34.046328811092046
20
43.2450692231643
42
-0.41421356237311585
10
33.546328811092039
20
43.745069223164272
0
LWPOLYLINE
5
161
100
AcDbEntity
8
0
100
AcDbPolyline
90
8
70
1
43
0.0
10
-76.278671188907936
20
43.745069223164272
42
-0.41421356237310542
10
-76.778671188907964
20
43.245069223164272
10
-89.778671188907978
20
43.245069223164272
42
-0.41421356237309503
10
-90.278671188907978
20
43.745069223164279
10
-90.278671188907964
20
56.745069223164293
42
-0.41421356237310025
10
-89.778671188907964
20
57.245069223164286
10
-76.778671188907964
20
57.245069223164293
42
-0.41421356237309503
10
-76.278671188907936
20
56.745069223164286
0
LWPOLYLINE
5
162
100
AcDbEntity
8
0
100
AcDbPolyline
90
8
70
1
43
0.0
10
66.096328811092064
20
57.245069223164293
10
53.096328811092064
20
57.2450692231643
42
0.41421356237307944
10
52.596328811092043
20
56.745069223164251
10
52.59632881109205
20
43.745069223164272
42
0.41421356237311063
10
53.09632881109205
20
43.2450692231643
10
66.096328811092064
20
43.245069223164272
42
0.41421356237309503
10
66.596328811092093
20
43.745069223164293
10
66.596328811092064
20
56.745069223164315
42
0.41421356237311585
0
LWPOLYLINE
5
163
100
AcDbEntity
8
0
100
AcDbPolyline
90
8
70
1
43
0.0
10
72.146328811092076
20
43.245069223164279
10
85.146328811092062
20
43.245069223164272
42
0.4142135623730846
10
85.646328811092062
20
43.745069223164279
10
85.646328811092062
20
56.745069223164286
42
0.41421356237313145
10
85.146328811092062
20
57.245069223164258
10
72.146328811092076
20
57.2450692231643
42
0.41421356237305862
10
71.646328811092062
20
56.745069223164286
10
71.646328811092062
20
43.745069223164272
42
0.41421356237311585
0
LWPOLYLINE
5
164
100
AcDbEntity
8
0
100
AcDbPolyline
90
8
70
1
43
0.0
10
-27.866171188907948
20
43.245069223164272
42
-0.41421356237308204
10
-28.366171188907948
20
43.745069223164293
10
-28.366171188907941
20
56.745069223164286
42
-0.41421356237306639
10
-27.866171188907938
20
57.245069223164286
10
-14.866171188907947
20
57.245069223164293
42
-0.4142135623730937
10
-14.366171188907941
20
56.745069223164286
10
-14.366171188907932
20
43.745069223164279
42
-0.41421356237311063
10
-14.866171188907948
20
43.245069223164272
0
LWPOLYLINE
5
165
100
AcDbEntity
8
0
100
AcDbPolyline
90
8
70
1
43
0.0
10
-114.09117118890792
20
32.932569223164293
10
-114.09117118890794
20
19.932569223164283
42
0.41421356237310542
10
-113.59117118890795
20
19.432569223164275
10
-100.59117118890798
20
19.432569223164279
42
0.41421356237311063
10
-100.09117118890796
20
19.932569223164283
10
-100.09117118890796
20
32.932569223164279
42
0.41421356237309503
10
-100.59117118890796
20
33.432569223164279
10
-113.59117118890795
20
33.432569223164286
42
0.41421356237309503
0
LWPOLYLINE
5
166
100
AcDbEntity
8
0
100
AcDbPolyline
90
8
70
1
43
0.0
10
-138.19117118890796
20
19.932569223164283
10
-138.19117118890796
20
32.932569223164279
42
0.41421356237309503
10
-138.69117118890796
20
33.432569223164286
10
-151.69117118890796
20
33.432569223164279
42
0.41421356237309503
10
-152.19117118890796
20
32.932569223164279
10
-152.19117118890802
20
19.932569223164272
42
0.41421356237311585
10
-151.69117118890799
20
19.432569223164286
10
-138.69117118890796
20
19.432569223164279
42
0.41421356237310025
0
LWPOLYLINE
5
167
100
AcDbEntity
8
0
100
AcDbPolyline
90
8
70
1
43
0.0
10
-47.416171188907967
20
56.745069223164251
10
-47.416171188907953
20
43.745069223164272
42
0.414213562373069
10
-46.916171188907953
20
43.245069223164272
10
-33.916171188907953
20
43.245069223164272
42
0.41421356237310802
10
-33.416171188907938
20
43.745069223164272
10
-33.416171188907953
20
56.745069223164286
42
0.41421356237309503
10
-33.91617118890796
20
57.245069223164293
10
-46.916171188907953
20
57.245069223164265
42
0.4142135623730846
0
LWPOLYLINE
5
168
100
AcDbEntity
8
0
100
AcDbPolyline
90
8
70
1
43
0.0
10
-52.966171188907964
20
57.245069223164293
10
-65.966171188907936
20
57.245069223164286
42
0.41421356237311063
10
-66.466171188907964
20
56.745069223164286
10
-66.46617118890795
20
43.745069223164272
42
0.41421356237309503
10
-65.966171188907936
20
43.245069223164272
10
-52.96617118890795
20
43.245069223164279
42
0.4142135623730846
10
-52.466171188907957
20
43.745069223164293
10
-52.46617118890795
20
56.745069223164251
42
0.41421356237308982
0
LWPOLYLINE
5
169
100
AcDbEntity
8
0
100
AcDbPolyline
90
8
70
1
43
0.0
10
-119.64117118890796
20
33.432569223164279
10
-132.64117118890795
20
33.432569223164279
42
0.41421356237309503
10
-133.14117118890795
20
32.932569223164279
10
-133.14117118890798
20
19.932569223164272
42
0.41421356237311585
10
-132.64117118890795
20
19.432569223164272
10
-119.64117118890798
20
19.432569223164279
42
0.41421356237310542
10
-119.14117118890798
20
19.932569223164272
10
-119.14117118890795
20
32.932569223164279
42
0.41421356237309503
0
LWPOLYLINE
5
170
100
AcDbEntity
8
0
100
AcDbPolyline
90
8
70
1
43
0.0
10
27.996328811092042
20
57.245069223164286
10
14.996328811092036
20
57.2450692231643
42
0.41421356237307555
10
14.496328811092019
20
56.745069223164251
10
14.496328811092029
20
43.745069223164272
42
0.41421356237311585
10
14.996328811092036
20
43.245069223164272
10
27.996328811092042
20
43.245069223164272
42
0.41421356237309503
10
28.496328811092067
20
43.745069223164293
10
28.496328811092049
20
56.745069223164315
42
0.41421356237311585
0
LWPOLYLINE
5
171
100
AcDbEntity
8
0
100
AcDbPolyline
90
8
70
1
43
0.0
10
-8.8161711889079442
20
43.245069223164272
10
4.1838288110920274
20
43.245069223164272
42
0.4142135623730846
10
4.6838288110920345
20
43.745069223164279
10
4.6838288110920345
20
56.745069223164286
42
0.41421356237313145
10
4.1838288110920274
20
57.245069223164258
10
-8.8161711889079442
20
57.245069223164286
42
0.41421356237309503
10
-9.3161711889079779
20
56.745069223164251
10
-9.3161711889079513
20
43.745069223164244
42
0.41421356237311585
0
LWPOLYLINE
5
172
100
AcDbEntity
8
0
100
AcDbPolyline
90
8
70
1
43
0.0
10
157.87132881109204
20
43.2450692231643
10
170.87132881109198
20
43.245069223164279
42
0.41421356237321472
10
171.37132881109198
20
43.745069223164279
10
171.37132881109204
20
56.745069223164286
42
0.4142135623730534
10
170.87132881109198
20
57.245069223164286
10
157.87132881109204
20
57.245069223164293
42
0.41421356237318346
10
157.3713288110921
20
56.745069223164293
10
157.3713288110921
20
43.745069223164343
42
0.41421356237304302
0
LWPOLYLINE
5
173
100
AcDbEntity
8
0
100
AcDbPolyline
90
8
70
1
43
0.0
10
-170.74117118890797
20
19.432569223164272
10
-157.74117118890797
20
19.432569223164286
42
0.41421356237311585
10
-157.24117118890797
20
19.932569223164283
10
-157.24117118890797
20
32.932569223164279
42
0.41421356237309503
10
-157.74117118890797
20
33.432569223164293
10
-170.74117118890797
20
33.432569223164279
42
0.41421356237309503
10
-171.24117118890797
20
32.932569223164279
10
-171.24117118890794
20
19.9325692231643
42
0.41421356237307422
0
LWPOLYLINE
5
174
100
AcDbEntity
8
0
100
AcDbPolyline
90
8
70
1
43
0.0
10
151.821328811092
20
57.245069223164258
42
-0.41421356237306384
10
152.321328811092
20
56.745069223164215
10
152.321328811092
20
43.74506922316418
42
-0.41421356237314705
10
151.821328811092
20
43.245069223164272
10
138.82132881109209
20
43.2450692231643
42
-0.41421356237313667
10
138.32132881109203
20
43.745069223164272
10
138.32132881109203
20
56.745069223164293
42
-0.41421356237304818
10
138.82132881109209
20
57.245069223164286
0
LWPOLYLINE
5
175
100
AcDbEntity
8
0
100
AcDbPolyline
90
8
70
1
43
0.0
10
132.77132881109208
20
-42.767430776835695
42
-0.41421356237309503
10
133.2713288110921
20
-43.267430776835702
10
133.2713288110921
20
-56.26743077683571
42
-0.41421356237307944
10
132.77132881109208
20
-56.767430776835717
10
119.7713288110921
20
-56.767430776835688
42
-0.41421356237309503
10
119.27132881109209
20
-56.267430776835681
10
119.2713288110921
20
-43.267430776835702
42
-0.41421356237309503
10
119.7713288110921
20
-42.76743077683571
0
LWPOLYLINE
5
176
100
AcDbEntity
8
0
100
AcDbPolyline
90
8
70
1
43
0.0
10
-109.32867118890795
20
56.745069223164286
42
-0.41421356237309503
10
-108.82867118890795
20
57.245069223164286
10
-95.828671188907947
20
57.245069223164293
42
-0.41421356237309503
10
-95.328671188907933
20
56.745069223164286
10
-95.328671188907947
20
43.745069223164279
42
-0.41421356237309503
10
-95.828671188907947
20
43.245069223164279
10
-108.82867118890799
20
43.245069223164265
42
-0.41421356237307422
10
-109.32867118890796
20
43.745069223164272
0
LWPOLYLINE
5
177
100
AcDbEntity
8
0
100
AcDbPolyline
90
8
70
1
43
0.0
10
4.2025788110920459
20
-55.767430776835724
42
-0.41421356237309503
10
3.7025788110920388
20
-55.26743077683571
10
3.7025788110920566
20
-41.267430776835681
42
-0.41421356237309503
10
4.2025788110920459
20
-40.767430776835667
10
10.20257881109206
20
-40.767430776835674
42
-0.41421356237310542
10
10.702578811092067
20
-41.267430776835702
10
10.702578811092014
20
-55.267430776835702
42
-0.41421356237307422
10
10.20257881109206
20
-55.767430776835702
0
LWPOLYLINE
5
178
100
AcDbEntity
8
0
100
AcDbPolyline
90
8
70
1
43
0.0
10
138.82132881109209
20
-37.717430776835705
10
151.821328811092
20
-37.717430776835712
42
0.41421356237314705
10
152.32132881109212
20
-37.217430776835705
10
152.321328811092
20
-24.217430776835748
42
0.41421356237306384
10
151.821328811092
20
-23.717430776835684
10
138.82132881109209
20
-23.717430776835688
42
0.41421356237309503
10
138.32132881109209
20
-24.217430776835677
10
138.32132881109206
20
-37.217430776835705
42
0.41421356237310802
0
LWPOLYLINE
5
179
100
AcDbEntity
8
0
100
AcDbPolyline
90
8
70
1
43
0.0
10
-114.37867118890793
20
43.745069223164279
10
-114.37867118890793
20
56.745069223164286
42
0.4142135623730846
10
-114.87867118890792
20
57.245069223164293
10
-127.87867118890794
20
57.245069223164286
42
0.41421356237309503
10
-128.37867118890796
20
56.745069223164286
10
-128.37867118890796
20
43.745069223164279
42
0.41421356237309503
10
-127.87867118890794
20
43.245069223164272
10
-114.87867118890793
20
43.245069223164279
42
0.41421356237309503
0
LWPOLYLINE
5
180
100
AcDbEntity
8
0
100
AcDbPolyline
90
8
70
1
43
0.0
10
-133.92867118890794
20
57.245069223164286
10
-146.92867118890797
20
57.245069223164286
42
0.41421356237309503
10
-147.42867118890797
20
56.745069223164286
10
-147.42867118890797
20
43.745069223164272
42
0.41421356237309503
10
-146.92867118890797
20
43.245069223164265
10
-133.92867118890797
20
43.245069223164279
42
0.41421356237312101
10
-133.42867118890794
20
43.745069223164279
10
-133.42867118890797
20
56.745069223164286
42
0.41421356237310025
0
LWPOLYLINE
5
181
100
AcDbEntity
8
0
100
AcDbPolyline
90
8
70
1
43
0.0
10
24.52132881109204
20
-37.717430776835705
10
37.521328811092047
20
-37.717430776835727
42
0.41421356237314966
10
38.021328811092047
20
-37.217430776835691
10
38.021328811092047
20
-24.217430776835656
42
0.41421356237311324
10
37.521328811092047
20
-23.717430776835684
10
24.52132881109204
20
-23.717430776835688
42
0.41421356237311324
10
24.021328811092072
20
-24.217430776835709
10
24.021328811092033
20
-37.217430776835705
42
0.41421356237310802
0
LWPOLYLINE
5
182
100
AcDbEntity
8
0
100
AcDbPolyline
90
8
70
1
43
0.0
10
13.708828811092033
20
33.432569223164279
42
-0.41421356237311585
10
14.20882881109204
20
32.932569223164307
10
14.208828811092037
20
19.932569223164283
42
-0.41421356237313667
10
13.708828811092033
20
19.432569223164272
10
0.70882881109206153
20
19.432569223164251
42
-0.41421356237309503
10
0.20882881109205442
20
19.932569223164258
10
0.20882881109203222
20
32.932569223164251
42
-0.41421356237309515
10
0.70882881109206153
20
33.432569223164286
0
LWPOLYLINE
5
183
100
AcDbEntity
8
0
100
AcDbPolyline
90
8
70
1
43
0.0
10
-18.841171188907914
20
32.932569223164293
42
-0.41421356237309503
10
-18.341171188907925
20
33.432569223164286
10
-5.3411711889079445
20
33.4325692231643
42
-0.41421356237310347
10
-4.8411711889079356
20
32.932569223164279
10
-4.8411711889079223
20
19.932569223164283
42
-0.41421356237312623
10
-5.3411711889079427
20
19.432569223164279
10
-18.341171188907936
20
19.432569223164265
42
-0.41421356237305601
10
-18.841171188907932
20
19.932569223164283
0
LWPOLYLINE
5
184
100
AcDbEntity
8
0
100
AcDbPolyline
90
8
70
1
43
0.0
10
-95.041171188907953
20
32.932569223164293
42
-0.41421356237309503
10
-94.541171188907953
20
33.432569223164286
10
-81.541171188907953
20
33.432569223164286
42
-0.41421356237309503
10
-81.041171188907953
20
32.932569223164279
10
-81.041171188907953
20
19.932569223164283
42
-0.41421356237310542
10
-81.541171188907953
20
19.432569223164272
10
-94.541171188907953
20
19.432569223164275
42
-0.41421356237311585
10
-95.041171188907953
20
19.932569223164283
0
LWPOLYLINE
5
185
100
AcDbEntity
8
0
100
AcDbPolyline
90
8
70
1
43
0.0
10
-95.828671188907947
20
-23.717430776835684
10
-108.82867118890795
20
-23.717430776835684
42
0.41421356237312623
10
-109.328671188908
20
-24.217430776835691
10
-109.32867118890796
20
-37.217430776835727
42
0.41421356237306384
10
-108.828671188908
20
-37.717430776835705
10
-95.828671188907947
20
-37.717430776835712
42
0.41421356237309503
10
-95.328671188907933
20
-37.217430776835705
10
-95.328671188907933
20
-24.217430776835691
42
0.41421356237309503
0
LWPOLYLINE
5
186
100
AcDbEntity
8
0
100
AcDbPolyline
90
8
70
1
43
0.0
10
-37.391171188907947
20
19.432569223164265
10
-24.391171188907954
20
19.432569223164286
42
0.41421356237310542
10
-23.89117118890794
20
19.932569223164283
10
-23.891171188907947
20
32.932569223164279
42
0.41421356237309503
10
-24.391171188907954
20
33.432569223164286
10
-37.391171188907947
20
33.432569223164286
42
0.41421356237309503
10
-37.89117118890794
20
32.932569223164293
10
-37.891171188907947
20
19.932569223164283
42
0.41421356237305601
0
LWPOLYLINE
5
187
100
AcDbEntity
8
0
100
AcDbPolyline
90
8
70
1
43
0.0
10
-38.178671188907941
20
-37.217430776835691
10
-38.178671188907941
20
-24.217430776835691
42
0.41421356237307422
10
-38.678671188907941
20
-23.717430776835684
10
-51.678671188907941
20
-23.717430776835684
42
0.41421356237310542
10
-52.178671188907941
20
-24.217430776835709
10
-52.178671188907948
20
-37.217430776835705
42
0.41421356237309503
10
-51.678671188907941
20
-37.717430776835712
10
-38.678671188907941
20
-37.71743077683572
42
0.41421356237308204
0
LWPOLYLINE
5
188
100
AcDbEntity
8
0
100
AcDbPolyline
90
8
70
1
43
0.0
10
83.552578811092033
20
-5.167430776835733
10
83.552578811092076
20
-18.167430776835726
42
0.41421356237312884
10
84.052578811092062
20
-18.667430776835722
10
97.052578811092076
20
-18.667430776835733
42
0.41421356237306384
10
97.55257881109209
20
-18.16743077683568
10
97.552578811092104
20
-5.1674307768357242
42
0.41421356237311585
10
97.052578811092104
20
-4.6674307768357526
10
84.052578811092062
20
-4.6674307768357348
42
0.41421356237307422
0
LWPOLYLINE
5
189
100
AcDbEntity
8
0
100
AcDbPolyline
90
8
70
1
43
0.0
10
-109.61617118890794
20
0.88256922316425346
10
-109.61617118890794
20
13.882569223164261
42
0.41421356237310025
10
-110.11617118890794
20
14.382569223164277
10
-123.11617118890794
20
14.382569223164259
42
0.41421356237308982
10
-123.61617118890793
20
13.882569223164269
10
-123.61617118890794
20
0.88256922316426234
42
0.41421356237309503
10
-123.11617118890794
20
0.38256922316425523
10
-110.11617118890796
20
0.38256922316426412
42
0.41421356237310542
0
LWPOLYLINE
5
190
100
AcDbEntity
8
0
100
AcDbPolyline
90
8
70
1
43
0.0
10
-161.27292118890796
20
-24.717430776835641
42
-0.41421356237309503
10
-160.77292118890796
20
-25.217430776835648
10
-160.77292118890796
20
-39.21743077683567
42
-0.4142135623730846
10
-161.27292118890796
20
-39.717430776835691
10
-167.27292118890799
20
-39.717430776835663
42
-0.41421356237309503
10
-167.77292118890799
20
-39.217430776835656
10
-167.77292118890799
20
-25.21743077683567
42
-0.41421356237309503
10
-167.27292118890799
20
-24.71743077683568
0
LWPOLYLINE
5
191
100
AcDbEntity
8
0
100
AcDbPolyline
90
8
70
1
43
0.0
10
138.32132881109206
20
-43.267430776835702
10
138.32132881109206
20
-56.26743077683571
42
0.41421356237307944
10
138.82132881109209
20
-56.767430776835688
10
151.821328811092
20
-56.767430776835717
42
0.41421356237314705
10
152.32132881109197
20
-56.26743077683571
10
152.321328811092
20
-43.267430776835731
42
0.4142135623730378
10
151.821328811092
20
-42.767430776835731
10
138.82132881109209
20
-42.76743077683571
42
0.41421356237309503
0
LWPOLYLINE
5
192
100
AcDbEntity
8
0
100
AcDbPolyline
90
8
70
1
43
0.0
10
-65.966171188907936
20
0.382569223164273
10
-52.966171188907964
20
0.38256922316426412
42
0.41421356237309503
10
-52.466171188907978
20
0.88256922316424458
10
-52.46617118890795
20
13.882569223164252
42
0.41421356237307422
10
-52.966171188907936
20
14.382569223164277
10
-65.966171188907936
20
14.382569223164259
42
0.41421356237311063
10
-66.466171188907964
20
13.882569223164261
10
-66.46617118890795
20
0.88256922316426234
42
0.41421356237310025
0
LWPOLYLINE
5
193
100
AcDbEntity
8
0
100
AcDbPolyline
90
8
70
1
43
0.0
10
157.87132881109204
20
-56.767430776835674
10
170.87132881109198
20
-56.767430776835717
42
0.41421356237315748
10
171.3713288110921
20
-56.26743077683571
10
171.37132881109204
20
-43.267430776835731
42
0.414213562373069
10
170.87132881109198
20
-42.767430776835695
10
157.87132881109204
20
-42.767430776835724
42
0.41421356237311063
10
157.37132881109198
20
-43.267430776835702
10
157.3713288110921
20
-56.267430776835639
42
0.41421356237304302
0
LWPOLYLINE
5
194
100
AcDbEntity
8
0
100
AcDbPolyline
90
8
70
1
43
0.0
10
42.283828811092093
20
14.382569223164285
10
29.283828811092079
20
14.382569223164268
42
0.41421356237309503
10
28.783828811092043
20
13.882569223164234
10
28.783828811092075
20
0.88256922316422692
42
0.41421356237311324
10
29.283828811092079
20
0.382569223164273
10
42.283828811092093
20
0.38256922316426417
42
0.41421356237304818
10
42.783828811092064
20
0.88256922316431563
10
42.783828811092093
20
13.882569223164278
42
0.41421356237311063
0
LWPOLYLINE
5
195
100
AcDbEntity
8
0
100
AcDbPolyline
90
8
70
1
43
0.0
10
-76.278671188907936
20
-37.217430776835691
10
-76.278671188907964
20
-24.217430776835691
42
0.41421356237309503
10
-76.778671188907964
20
-23.717430776835684
10
-89.778671188907978
20
-23.717430776835684
42
0.41421356237309503
10
-90.278671188907978
20
-24.217430776835691
10
-90.278671188907978
20
-37.217430776835705
42
0.41421356237309503
10
-89.778671188907978
20
-37.717430776835727
10
-76.778671188907964
20
-37.717430776835712
42
0.41421356237310281
0
LWPOLYLINE
5
196
100
AcDbEntity
8
0
100
AcDbPolyline
90
8
70
1
43
0.0
10
67.383828811092059
20
0.382569223164273
10
80.383828811092059
20
0.38256922316426417
42
0.41421356237309503
10
80.883828811092087
20
0.88256922316429787
10
80.883828811092101
20
13.882569223164296
42
0.41421356237311585
10
80.383828811092087
20
14.382569223164268
10
67.383828811092059
20
14.382569223164268
42
0.41421356237301699
10
66.883828811092087
20
13.882569223164269
10
66.883828811092059
20
0.88256922316424458
42
0.41421356237311585
0
LWPOLYLINE
5
197
100
AcDbEntity
8
0
100
AcDbPolyline
90
8
70
1
43
0.0
10
-14.866171188907948
20
14.382569223164277
42
-0.41421356237309503
10
-14.366171188907941
20
13.882569223164269
10
-14.366171188907932
20
0.88256922316425346
42
-0.41421356237310025
10
-14.866171188907948
20
0.38256922316426412
10
-27.866171188907941
20
0.38256922316424635
42
-0.4142135623730846
10
-28.366171188907948
20
0.88256922316427122
10
-28.36617118890792
20
13.882569223164278
42
-0.41421356237309503
10
-27.866171188907938
20
14.382569223164259
0
LWPOLYLINE
5
198
100
AcDbEntity
8
0
100
AcDbPolyline
90
8
70
1
43
0.0
10
-152.97867118890795
20
14.38256922316425
42
-0.41421356237309503
10
-152.47867118890798
20
13.882569223164261
10
-152.47867118890795
20
0.88256922316426234
42
-0.41421356237309503
10
-152.97867118890795
20
0.38256922316426412
10
-165.97867118890798
20
0.38256922316425523
42
-0.41421356237309503
10
-166.4786711889079
20
0.88256922316426234
10
-166.47867118890798
20
13.882569223164269
42
-0.41421356237308982
10
-165.97867118890798
20
14.382569223164268
0
LWPOLYLINE
5
199
100
AcDbEntity
8
0
100
AcDbPolyline
90
8
70
1
43
0.0
10
91.196328811092059
20
0.382569223164273
10
104.19632881109209
20
0.38256922316426417
42
0.41421356237298579
10
104.69632881109207
20
0.88256922316425346
10
104.69632881109206
20
13.882569223164278
42
0.41421356237311585
10
104.19632881109206
20
14.38256922316425
10
91.196328811092059
20
14.382569223164268
42
0.41421356237307422
10
90.696328811092002
20
13.882569223164269
10
90.69632881109203
20
0.88256922316426234
42
0.41421356237314699
0
LWPOLYLINE
5
200
100
AcDbEntity
8
0
100
AcDbPolyline
90
8
70
1
43
0.0
10
4.6838288110920612
20
0.88256922316429787
42
-0.41421356237309503
10
4.1838288110920274
20
0.38256922316426417
10
-8.8161711889079442
20
0.38256922316425535
42
-0.41421356237311585
10
-9.3161711889079513
20
0.88256922316422681
10
-9.3161711889079779
20
13.882569223164269
42
-0.41421356237307422
10
-8.8161711889079442
20
14.382569223164268
10
4.1838288110920283
20
14.382569223164268
42
-0.41421356237313633
10
4.6838288110920345
20
13.882569223164261
0
LWPOLYLINE
5
201
100
AcDbEntity
8
0
100
AcDbPolyline
90
8
70
1
43
0.0
10
61.833828811092069
20
0.88256922316425346
10
61.833828811092069
20
13.882569223164261
42
0.41421356237313667
10
61.333828811092062
20
14.382569223164268
10
48.333828811092054
20
14.382569223164268
42
0.4142135623730222
10
47.833828811092083
20
13.882569223164269
10
47.833828811092054
20
0.88256922316426234
42
0.41421356237311585
10
48.333828811092047
20
0.38256922316426412
10
61.333828811092062
20
0.38256922316426417
42
0.414213562373069
0
LINE
5
202
100
AcDbEntity
8
0
100
AcDbLine
10
104.95878056612894
20
75.491292530455965
30
0
11
-176.18992719249562
21
75.490549143380548
31
0
0
LINE
5
203
100
AcDbEntity
8
0
100
AcDbLine
10
121.27128717627897
20
72.991339628608557
30
-4.4408920985006254e-15
11
121.27132748904243
21
57.745067901111113
31
-4.1633363423443362e-15
0
LINE
5
204
100
AcDbEntity
8
0
100
AcDbLine
10
95.958828811092076
20
57.245069223164286
30
-4.4408920985006254e-15
11
106.95882766146886
21
57.245073016881676
31
-4.4408920985006254e-15
0
LINE
5
205
100
AcDbEntity
8
0
100
AcDbLine
10
186.19023876821774
20
-65.491491885035003
30
0
11
186.19023981935928
21
65.491480793717258
31
2.2204460492503127e-15
0
ARC
5
206
100
AcDbEntity
8
0
100
AcDbCircle
10
95.958828811092133
20
56.745069223164215
30
-4.4408920985006254e-15
40
0.50000000000005151
210
0
220
0
230
1
100
AcDbArc
50
90.000000000006523
51
180
0
LINE
5
207
100
AcDbEntity
8
0
100
AcDbLine
10
119.27132881109209
20
43.745069223164279
30
0
11
119.27132881109209
21
53.245069223164279
31
0
0
ARC
5
208
100
AcDbEntity
8
0
100
AcDbCircle
10
108.95882881109209
20
43.745069223164293
30
0
40
0.50000000000002487
210
0
220
0
230
1
100
AcDbArc
50
-90
51
0
0
ARC
5
209
100
AcDbEntity
8
0
100
AcDbCircle
10
132.77132881109202
20
43.745069223164322
30
0
40
0.50000000000004263
210
0
220
0
230
1
100
AcDbArc
50
-89.999999999993491
51
0
0
LINE
5
210
100
AcDbEntity
8
0
100
AcDbLine
10
-186.18990071791922
20
65.489730445733912
30
0
11
-186.17917724861996
21
-65.49230974775331
31
0
0
LINE
5
211
100
AcDbEntity
8
0
100
AcDbLine
10
107.45882748902534
20
57.745074338934785
30
4.4408920985006254e-15
11
107.45878717638597
21
72.99129914073049
31
4.4408920985006254e-15
0
LINE
5
212
100
AcDbEntity
8
0
100
AcDbLine
10
-176.17917730355148
20
-75.49149105007173
30
0
11
176.19023874679951
21
-75.491491804784744
31
0
0
LINE
5
213
100
AcDbEntity
8
0
100
AcDbLine
10
108.95882881109209
20
43.245069223164272
30
0
11
95.958828811092076
21
43.245069223164272
31
3.0814879110195768e-32
0
LINE
5
214
100
AcDbEntity
8
0
100
AcDbLine
10
118.77132881109208
20
53.745069223164293
30
0
11
109.9588288110921
21
53.745069223164279
31
0
0
ARC
5
215
100
AcDbEntity
8
0
100
AcDbCircle
10
-176.17917728213317
20
-65.491491050071744
30
0
40
10.000000000000014
210
0
220
0
230
1
100
AcDbArc
50
180.00469079216342
51
269.99999987728205
0
ARC
5
216
100
AcDbEntity
8
0
100
AcDbCircle
10
176.19023876821774
20
-65.491491804784744
30
0
40
10
210
0
220
0
230
1
100
AcDbArc
50
-90.00000012271741
51
0
0
ARC
5
217
100
AcDbEntity
8
0
100
AcDbCircle
10
119.77132881109208
20
43.745069223164272
30
0
40
0.49999999999997158
210
0
220
0
230
1
100
AcDbArc
50
180
51
270.00000000000489
0
ARC
5
218
100
AcDbEntity
8
0
100
AcDbCircle
10
123.77128717627019
20
72.991346238874385
30
0
40
2.4999999999999996
210
0
220
0
230
1
100
AcDbArc
50
90.000151496132389
51
180.0001514961132
0
LINE
5
219
100
AcDbEntity
8
0
100
AcDbLine
10
109.4588288110921
20
53.245069223164272
30
0
11
109.45882881109212
21
43.745069223164293
31
0
0
ARC
5
220
100
AcDbEntity
8
0
100
AcDbCircle
10
-176.18990075143242
20
65.490549143415478
30
0
40
10.000000000000007
210
0
220
0
230
1
100
AcDbArc
50
90.000151496132716
51
180.00469079216342
0
LINE
5
221
100
AcDbEntity
8
0
100
AcDbLine
10
176.19021337829619
20
75.491480873937732
30
0
11
123.77128056600441
21
75.491346238865646
31
0
0
ARC
5
222
100
AcDbEntity
8
0
100
AcDbCircle
10
176.1902398193541
20
65.49148087396749
30
4.4408920985006254e-15
40
10.000000000005187
210
0
220
0
230
1
100
AcDbArc
50
0
51
90.000151496102418
0
LINE
5
223
100
AcDbEntity
8
0
100
AcDbLine
10
121.7713274890407
20
57.245069223164293
30
0
11
132.77132881109208
21
57.245069223164286
31
0
0
LINE
5
224
100
AcDbEntity
8
0
100
AcDbLine
10
133.27132881109208
20
56.745069223164286
30
0
11
133.27132881109208
21
43.745069223164322
31
0
0
ARC
5
225
100
AcDbEntity
8
0
100
AcDbCircle
10
132.77132881109208
20
56.745069223164293
30
0
40
0.50000000000000711
210
0
220
0
230
1
100
AcDbArc
50
0
51
90
0
ARC
5
226
100
AcDbEntity
8
0
100
AcDbCircle
10
106.95882748902717
20
57.745073016881598
30
0
40
0.49999999999994804
210
3.0631797115874817e-21
220
-8.8817841970016436e-15
230
1
100
AcDbArc
50
-89.999980239638177
51
0.00015149611320898552
0
ARC
5
227
100
AcDbEntity
8
0
100
AcDbCircle
10
121.77132748904064
20
57.745069223164272
30
0
40
0.49999999999997857
210
-8.3266726846602183e-15
220
-2.2016607874819398e-20
230
1
100
AcDbArc
50
180.0001514961132
51
270.00000000000648
0
ARC
5
228
100
AcDbEntity
8
0
100
AcDbCircle
10
95.958828811092047
20
43.745069223164272
30
0
40
0.49999999999997158
210
0
220
0
230
1
100
AcDbArc
50
180
51
270.00000000000324
0
LINE
5
229
100
AcDbEntity
8
0
100
AcDbLine
10
132.77132881109208
20
43.245069223164279
30
0
11
119.77132881109212
21
43.2450692231643
31
0
0
ARC
5
230
100
AcDbEntity
8
0
100
AcDbCircle
10
104.95878717639471
20
72.991292530464705
30
0
40
2.4999999999999996
210
-1.7763568393940409e-15
220
-4.6968763340056287e-21
230
1
100
AcDbArc
50
0.00015149611320898552
51
90.000151496132062
0
ARC
5
231
100
AcDbEntity
8
0
100
AcDbCircle
10
109.95882881109209
20
53.245069223164307
30
-4.4408920985006254e-15
40
0.49999999999998046
210
-3.1554436208844055e-28
220
-8.8817841970017556e-15
230
1
100
AcDbArc
50
89.99999999999838
51
180
0
LINE
5
232
100
AcDbEntity
8
0
100
AcDbLine
10
95.458828811092076
20
43.745069223164272
30
0
11
95.458828811092076
21
56.745069223164215
31
-4.4408920985006254e-15
0
ARC
5
233
100
AcDbEntity
8
0
100
AcDbCircle
10
118.77132881109208
20
53.245069223164279
30
0
40
0.50000000000000711
210
0
220
0
230
1
100
AcDbArc
50
0
51
90
0
ENDSEC
0
SECTION
2
OBJECTS
0
DICTIONARY
5
C
100
AcDbDictionary
3
ACAD_GROUP
350
D
3
ACAD_MLINESTYLE
350
17
0
DICTIONARY
5
D
100
AcDbDictionary
0
DICTIONARY
5
1A
330
C
100
AcDbDictionary
0
DICTIONARY
5
17
100
AcDbDictionary
0
ENDSEC
0
EOF
