0
SECTION
2
HEADER
9
$INSUNITS
70
4
9
$ACADVER
1
AC1014
9
$HANDSEED
5
FFFF
0
ENDSEC
0
SECTION
2
TABLES
0
TABLE
2
VPORT
5
8
100
AcDbSymbolTable
0
ENDTAB
0
TABLE
2
LTYPE
5
5
100
AcDbSymbolTable
70
2
0
LTYPE
5
14
100
AcDbSymbolTableRecord
100
AcDbLinetypeTableRecord
2
BYBLOCK
70
0
0
LTYPE
5
15
100
AcDbSymbolTableRecord
100
AcDbLinetypeTableRecord
2
BYLAYER
70
0
0
ENDTAB
0
TABLE
2
LAYER
5
2
100
AcDbSymbolTable
70
3
0
LAYER
5
50
100
AcDbSymbolTableRecord
100
AcDbLayerTableRecord
2
0
70
0
6
CONTINUOUS
0
LAYER
5
51
100
AcDbSymbolTableRecord
100
AcDbLayerTableRecord
2
CUTOUTS
70
0
62
1
6
CONTINUOUS
0
LAYER
5
52
100
AcDbSymbolTableRecord
100
AcDbLayerTableRecord
2
PERIMETER
70
0
62
5
6
CONTINUOUS
0
ENDTAB
0
TABLE
2
STYLE
5
3
100
AcDbSymbolTable
70
1
0
STYLE
5
11
100
AcDbSymbolTableRecord
100
AcDbTextStyleTableRecord
2
STANDARD
70
0
0
ENDTAB
0
TABLE
2
VIEW
5
6
100
AcDbSymbolTable
0
ENDTAB
0
TABLE
2
UCS
5
7
100
AcDbSymbolTable
0
ENDTAB
0
TABLE
2
APPID
5
9
100
AcDbSymbolTable
70
1
0
APPID
5
12
100
AcDbSymbolTableRecord
100
AcDbRegAppTableRecord
2
ACAD
70
0
0
ENDTAB
0
TABLE
2
DIMSTYLE
5
A
100
AcDbSymbolTable
0
ENDTAB
0
TABLE
2
BLOCK_RECORD
5
1
100
AcDbSymbolTable
70
2
0
BLOCK_RECORD
5
1F
100
AcDbSymbolTableRecord
100
AcDbBlockTableRecord
2
*MODEL_SPACE
0
BLOCK_RECORD
5
1B
100
AcDbSymbolTableRecord
100
AcDbBlockTableRecord
2
*PAPER_SPACE
0
ENDTAB
0
ENDSEC
0
SECTION
2
BLOCKS
0
BLOCK
5
20
100
AcDbEntity
100
AcDbBlockBegin
2
*MODEL_SPACE
0
ENDBLK
5
21
100
AcDbEntity
100
AcDbBlockEnd
0
BLOCK
5
1C
100
AcDbEntity
100
AcDbBlockBegin
2
*PAPER_SPACE
0
ENDBLK
5
1D
100
AcDbEntity
100
AcDbBlockEnd
0
ENDSEC
0
SECTION
2
ENTITIES
0
LINE
5
100
100
AcDbEntity
8
CUTOUTS
100
AcDbLine
10
-76.278671188907936
20
-24.217430776835727
30
0
11
-76.278671188907936
21
-37.217430776835734
31
0
0
ARC
5
101
100
AcDbEntity
8
CUTOUTS
100
AcDbCircle
10
-76.77867118890795
20
-37.217430776835734
30
0
40
0.50000000000000711
210
-0
220
0
230
1
100
AcDbArc
50
-90
51
0
0
LINE
5
102
100
AcDbEntity
8
CUTOUTS
100
AcDbLine
10
-76.77867118890795
20
-37.717430776835741
30
0
11
-89.778671188907964
21
-37.717430776835741
31
0
0
ARC
5
103
100
AcDbEntity
8
CUTOUTS
100
AcDbCircle
10
-89.778671188907964
20
-37.217430776835734
30
0
40
0.50000000000000711
210
0
220
0
230
1
100
AcDbArc
50
180
51
270
0
LINE
5
104
100
AcDbEntity
8
CUTOUTS
100
AcDbLine
10
-90.278671188907964
20
-37.217430776835734
30
0
11
-90.278671188907964
21
-24.217430776835727
31
0
0
ARC
5
105
100
AcDbEntity
8
CUTOUTS
100
AcDbCircle
10
-89.778671188907964
20
-24.217430776835727
30
0
40
0.50000000000000711
210
0
220
-0
230
1
100
AcDbArc
50
90
51
180
0
LINE
5
106
100
AcDbEntity
8
CUTOUTS
100
AcDbLine
10
-89.778671188907964
20
-23.71743077683572
30
0
11
-76.77867118890795
21
-23.71743077683572
31
0
0
ARC
5
107
100
AcDbEntity
8
CUTOUTS
100
AcDbCircle
10
-76.77867118890795
20
-24.217430776835727
30
0
40
0.50000000000000711
210
0
220
-0
230
1
100
AcDbArc
50
0
51
90
0
LINE
5
108
100
AcDbEntity
8
CUTOUTS
100
AcDbLine
10
67.383828811092059
20
-42.767430776835731
30
0
11
82.765078811092081
21
-42.767430776835731
31
0
0
ARC
5
109
100
AcDbEntity
8
CUTOUTS
100
AcDbCircle
10
82.765078811092081
20
-43.267430776835724
30
0
40
0.50000000000000711
210
-0
220
0
230
1
100
AcDbArc
50
0
51
90
0
LINE
5
10A
100
AcDbEntity
8
CUTOUTS
100
AcDbLine
10
83.265078811092081
20
-43.267430776835738
30
0
11
83.265078811092081
21
-56.267430776835724
31
0
0
ARC
5
10B
100
AcDbEntity
8
CUTOUTS
100
AcDbCircle
10
82.765078811092081
20
-56.26743077683571
30
0
40
0.50000000000002487
210
-0
220
0
230
1
100
AcDbArc
50
270
51
360
0
LINE
5
10C
100
AcDbEntity
8
CUTOUTS
100
AcDbLine
10
82.765078811092081
20
-56.767430776835738
30
0
11
67.383828811092059
21
-56.767430776835738
31
0
0
ARC
5
10D
100
AcDbEntity
8
CUTOUTS
100
AcDbCircle
10
67.383828811092059
20
-56.26743077683571
30
0
40
0.50000000000000711
210
0
220
0
230
1
100
AcDbArc
50
180
51
270
0
LINE
5
10E
100
AcDbEntity
8
CUTOUTS
100
AcDbLine
10
66.883828811092059
20
-56.267430776835724
30
0
11
66.883828811092087
21
-43.267430776835738
31
0
0
ARC
5
10F
100
AcDbEntity
8
CUTOUTS
100
AcDbCircle
10
67.383828811092059
20
-43.267430776835724
30
0
40
0.49999999999998934
210
0
220
-0
230
1
100
AcDbArc
50
90
51
180
0
LINE
5
110
100
AcDbEntity
8
CUTOUTS
100
AcDbLine
10
170.87132881109201
20
43.245069223164272
30
0
11
157.87132881109204
21
43.245069223164272
31
0
0
ARC
5
111
100
AcDbEntity
8
CUTOUTS
100
AcDbCircle
10
157.87132881109213
20
43.745069223164336
30
0
40
0.50000000000004263
210
0
220
0
230
1
100
AcDbArc
50
180
51
269.99999999999022
0
LINE
5
112
100
AcDbEntity
8
CUTOUTS
100
AcDbLine
10
157.37132881109207
20
43.745069223164272
30
0
11
157.37132881109207
21
56.745069223164265
31
0
0
ARC
5
113
100
AcDbEntity
8
CUTOUTS
100
AcDbCircle
10
157.87132881109198
20
56.745069223164364
30
0
40
0.49999999999990052
210
0
220
-0
230
1
100
AcDbArc
50
89.999999999993491
51
180
0
LINE
5
114
100
AcDbEntity
8
CUTOUTS
100
AcDbLine
10
157.87132881109204
20
57.245069223164265
30
0
11
170.87132881109201
21
57.245069223164279
31
0
0
ARC
5
115
100
AcDbEntity
8
CUTOUTS
100
AcDbCircle
10
170.87132881109196
20
56.745069223164215
30
0
40
0.50000000000004263
210
0
220
-0
230
1
100
AcDbArc
50
0
51
89.999999999993491
0
LINE
5
116
100
AcDbEntity
8
CUTOUTS
100
AcDbLine
10
171.37132881109198
20
56.745069223164265
30
0
11
171.37132881109198
21
43.745069223164279
31
0
0
ARC
5
117
100
AcDbEntity
8
CUTOUTS
100
AcDbCircle
10
170.8713288110921
20
43.745069223164172
30
0
40
0.49999999999990052
210
0
220
0
230
1
100
AcDbArc
50
-90.000000000009777
51
0
0
LINE
5
118
100
AcDbEntity
8
CUTOUTS
100
AcDbLine
10
37.998930670678703
20
-63.141491552133076
30
0
11
40.712476935869937
21
-63.141491557944974
31
0
0
LINE
5
119
100
AcDbEntity
8
CUTOUTS
100
AcDbLine
10
40.712476935869937
20
-63.141491557944974
30
0
11
42.0692500634323
21
-65.491491560850918
31
0
0
LINE
5
11A
100
AcDbEntity
8
CUTOUTS
100
AcDbLine
10
42.0692500634323
20
-65.491491560850918
30
0
11
40.712476925803429
21
-67.841491557944963
31
0
0
LINE
5
11B
100
AcDbEntity
8
CUTOUTS
100
AcDbLine
10
40.712476925803429
20
-67.841491557944963
30
0
11
37.998930660612196
21
-67.84149155213305
31
0
0
LINE
5
11C
100
AcDbEntity
8
CUTOUTS
100
AcDbLine
10
37.998930660612196
20
-67.84149155213305
30
0
11
36.642157533049833
21
-65.491491549227106
31
0
0
LINE
5
11D
100
AcDbEntity
8
CUTOUTS
100
AcDbLine
10
36.642157533049833
20
-65.491491549227106
30
0
11
37.998930670678703
21
-63.141491552133076
31
0
0
LINE
5
11E
100
AcDbEntity
8
CUTOUTS
100
AcDbLine
10
-23.103671188907953
20
-4.6674307768357348
30
0
11
-10.103671188907946
21
-4.6674307768357259
31
0
0
ARC
5
11F
100
AcDbEntity
8
CUTOUTS
100
AcDbCircle
10
-10.10367118890791
20
-5.1674307768357153
30
0
40
0.49999999999997158
210
-0
220
0
230
1
100
AcDbArc
50
0
51
90.000000000004079
0
LINE
5
120
100
AcDbEntity
8
CUTOUTS
100
AcDbLine
10
-9.6036711889079385
20
-5.167430776835733
30
0
11
-9.6036711889079385
21
-18.167430776835729
31
0
0
ARC
5
121
100
AcDbEntity
8
CUTOUTS
100
AcDbCircle
10
-10.103671188908017
20
-18.16743077683568
30
0
40
0.50000000000005151
210
-0
220
0
230
1
100
AcDbArc
50
270.00000000000813
51
360
0
LINE
5
122
100
AcDbEntity
8
CUTOUTS
100
AcDbLine
10
-10.103671188907946
20
-18.667430776835729
30
0
11
-23.103671188907953
21
-18.667430776835729
31
0
0
ARC
5
123
100
AcDbEntity
8
CUTOUTS
100
AcDbCircle
10
-23.103671188907953
20
-18.167430776835729
30
0
40
0.50000000000000711
210
0
220
0
230
1
100
AcDbArc
50
180
51
270
0
LINE
5
124
100
AcDbEntity
8
CUTOUTS
100
AcDbLine
10
-23.60367118890796
20
-18.167430776835729
30
0
11
-23.60367118890796
21
-5.167430776835733
31
0
0
ARC
5
125
100
AcDbEntity
8
CUTOUTS
100
AcDbCircle
10
-23.10367118890797
20
-5.167430776835733
30
0
40
0.49999999999999822
210
0
220
-0
230
1
100
AcDbArc
50
89.999999999997954
51
180
0
ARC
5
126
100
AcDbEntity
8
CUTOUTS
100
AcDbCircle
10
106.57757881109208
20
-43.267430776835702
30
0
40
0.49999999999997158
210
-0
220
0
230
1
100
AcDbArc
50
0
51
90.000000000003254
0
LINE
5
127
100
AcDbEntity
8
CUTOUTS
100
AcDbLine
10
91.196328811092044
20
-42.767430776835731
30
0
11
106.57757881109205
21
-42.767430776835731
31
0
0
ARC
5
128
100
AcDbEntity
8
CUTOUTS
100
AcDbCircle
10
91.196328811092002
20
-43.267430776835702
30
0
40
0.49999999999997158
210
0
220
-0
230
1
100
AcDbArc
50
89.999999999995111
51
180
0
LINE
5
129
100
AcDbEntity
8
CUTOUTS
100
AcDbLine
10
90.69632881109203
20
-56.267430776835724
30
0
11
90.69632881109203
21
-43.267430776835738
31
0
0
ARC
5
12A
100
AcDbEntity
8
CUTOUTS
100
AcDbCircle
10
91.196328811092044
20
-56.267430776835724
30
0
40
0.50000000000000711
210
0
220
0
230
1
100
AcDbArc
50
180
51
270
0
LINE
5
12B
100
AcDbEntity
8
CUTOUTS
100
AcDbLine
10
106.57757881109205
20
-56.767430776835738
30
0
11
91.196328811092044
21
-56.767430776835738
31
0
0
ARC
5
12C
100
AcDbEntity
8
CUTOUTS
100
AcDbCircle
10
106.57757881109205
20
-56.267430776835724
30
0
40
0.50000000000000711
210
-0
220
0
230
1
100
AcDbArc
50
-90
51
0
0
LINE
5
12D
100
AcDbEntity
8
CUTOUTS
100
AcDbLine
10
107.07757881109205
20
-43.267430776835738
30
0
11
107.07757881109205
21
-56.267430776835724
31
0
0
ARC
5
12E
100
AcDbEntity
8
CUTOUTS
100
AcDbCircle
10
-119.64117118890795
20
32.932569223164272
30
0
40
0.50000000000000711
210
0
220
-0
230
1
100
AcDbArc
50
0
51
90
0
LINE
5
12F
100
AcDbEntity
8
CUTOUTS
100
AcDbLine
10
-132.64117118890795
20
33.432569223164272
30
0
11
-119.64117118890795
21
33.432569223164272
31
0
0
ARC
5
130
100
AcDbEntity
8
CUTOUTS
100
AcDbCircle
10
-132.64117118890795
20
32.932569223164272
30
0
40
0.49999999999999822
210
0
220
-0
230
1
100
AcDbArc
50
90
51
180
0
LINE
5
131
100
AcDbEntity
8
CUTOUTS
100
AcDbLine
10
-133.14117118890795
20
19.932569223164268
30
0
11
-133.14117118890795
21
32.932569223164272
31
0
0
ARC
5
132
100
AcDbEntity
8
CUTOUTS
100
AcDbCircle
10
-132.64117118890798
20
19.932569223164258
30
0
40
0.49999999999997158
210
0
220
0
230
1
100
AcDbArc
50
180
51
270
0
LINE
5
133
100
AcDbEntity
8
CUTOUTS
100
AcDbLine
10
-119.64117118890795
20
19.432569223164265
30
0
11
-132.64117118890795
21
19.432569223164275
31
0
0
ARC
5
134
100
AcDbEntity
8
CUTOUTS
100
AcDbCircle
10
-119.64117118890795
20
19.932569223164261
30
0
40
0.49999999999999378
210
-0
220
0
230
1
100
AcDbArc
50
-90
51
0
0
LINE
5
135
100
AcDbEntity
8
CUTOUTS
100
AcDbLine
10
-119.14117118890795
20
32.932569223164272
30
0
11
-119.14117118890795
21
19.932569223164265
31
0
0
LINE
5
136
100
AcDbEntity
8
CUTOUTS
100
AcDbLine
10
-37.391171188907947
20
33.432569223164272
30
0
11
-24.391171188907954
21
33.432569223164272
31
0
0
ARC
5
137
100
AcDbEntity
8
CUTOUTS
100
AcDbCircle
10
-24.391171188907954
20
32.932569223164265
30
0
40
0.50000000000000711
210
0
220
-0
230
1
100
AcDbArc
50
0
51
90
0
LINE
5
138
100
AcDbEntity
8
CUTOUTS
100
AcDbLine
10
-23.891171188907947
20
32.932569223164272
30
0
11
-23.891171188907947
21
19.932569223164265
31
0
0
ARC
5
139
100
AcDbEntity
8
CUTOUTS
100
AcDbCircle
10
-24.391171188907936
20
19.932569223164265
30
0
40
0.49999999999999822
210
0
220
0
230
1
100
AcDbArc
50
-90.000000000002032
51
0
0
LINE
5
13A
100
AcDbEntity
8
CUTOUTS
100
AcDbLine
10
-24.391171188907954
20
19.432569223164265
30
0
11
-37.391171188907947
21
19.432569223164258
31
0
0
ARC
5
13B
100
AcDbEntity
8
CUTOUTS
100
AcDbCircle
10
-37.391171188907904
20
19.932569223164293
30
0
40
0.50000000000004263
210
0
220
0
230
1
100
AcDbArc
50
180
51
269.99999999999511
0
LINE
5
13C
100
AcDbEntity
8
CUTOUTS
100
AcDbLine
10
-37.891171188907947
20
19.932569223164268
30
0
11
-37.891171188907933
21
32.932569223164272
31
0
0
ARC
5
13D
100
AcDbEntity
8
CUTOUTS
100
AcDbCircle
10
-37.391171188907947
20
32.932569223164279
30
0
40
0.49999999999998934
210
0
220
-0
230
1
100
AcDbArc
50
90
51
180
0
LINE
5
13E
100
AcDbEntity
8
CUTOUTS
100
AcDbLine
10
119.7713288110921
20
33.432569223164272
30
0
11
132.77132881109208
21
33.432569223164279
31
0
0
ARC
5
13F
100
AcDbEntity
8
CUTOUTS
100
AcDbCircle
10
132.77132881109208
20
32.932569223164279
30
0
40
0.50000000000000711
210
-0
220
0
230
1
100
AcDbArc
50
0
51
90.000000000003254
0
LINE
5
140
100
AcDbEntity
8
CUTOUTS
100
AcDbLine
10
133.27132881109208
20
32.932569223164272
30
0
11
133.27132881109208
21
19.932569223164265
31
0
0
ARC
5
141
100
AcDbEntity
8
CUTOUTS
100
AcDbCircle
10
132.7713288110921
20
19.932569223164251
30
0
40
0.4999999999999849
210
0
220
0
230
1
100
AcDbArc
50
-90.000000000003254
51
0
0
LINE
5
142
100
AcDbEntity
8
CUTOUTS
100
AcDbLine
10
132.77132881109208
20
19.432569223164265
30
0
11
119.7713288110921
21
19.432569223164265
31
0
0
ARC
5
143
100
AcDbEntity
8
CUTOUTS
100
AcDbCircle
10
119.7713288110921
20
19.932569223164261
30
0
40
0.50000000000000711
210
0
220
0
230
1
100
AcDbArc
50
180
51
270.00000000000159
0
LINE
5
144
100
AcDbEntity
8
CUTOUTS
100
AcDbLine
10
119.27132881109209
20
19.932569223164268
30
0
11
119.27132881109209
21
32.932569223164272
31
0
0
ARC
5
145
100
AcDbEntity
8
CUTOUTS
100
AcDbCircle
10
119.77132881109213
20
32.932569223164222
30
0
40
0.50000000000004707
210
0
220
0
230
1
100
AcDbArc
50
90.000000000003254
51
180
0
ARC
5
146
100
AcDbEntity
8
CUTOUTS
100
AcDbCircle
10
-20.36608316613215
20
-50.72218657506825
30
0
40
1.0000000000000362
210
0
220
0
230
1
100
AcDbArc
50
180.00528207323595
51
272.53477552338501
0
LINE
5
147
100
AcDbEntity
8
CUTOUTS
100
AcDbLine
10
0.22180067476085696
20
-50.811759633555518
30
0
11
-20.321857417135654
21
-51.721208137961554
31
0
0
ARC
5
148
100
AcDbEntity
8
CUTOUTS
100
AcDbCircle
10
0.17757492576429001
20
-49.81273807066222
30
0
40
1.0000000000000404
210
-0
220
0
230
1
100
AcDbArc
50
272.5347755233891
51
359.99486246760989
0
LINE
5
149
100
AcDbEntity
8
CUTOUTS
100
AcDbLine
10
1.1775827003785722
20
-49.726077353120779
30
0
11
1.1775749217442666
21
-49.812827737518873
31
0
0
ARC
5
14A
100
AcDbEntity
8
CUTOUTS
100
AcDbCircle
10
0.17758270439873769
20
-49.725987686264048
30
0
40
0.99999999999990707
210
-0
220
0
230
1
100
AcDbArc
50
-0.0051375323901290742
51
87.454990252213818
0
LINE
5
14B
100
AcDbEntity
8
CUTOUTS
100
AcDbLine
10
-20.321681397271227
20
-47.813848333571762
30
0
11
0.22198689883161649
21
-48.726974038951582
31
0
0
ARC
5
14C
100
AcDbEntity
8
CUTOUTS
100
AcDbCircle
10
-20.366085591704159
20
-48.812861980884357
30
0
40
1.0000000000000251
210
0
220
-0
230
1
100
AcDbArc
50
87.454990252211104
51
179.99486246760989
0
LINE
5
14D
100
AcDbEntity
8
CUTOUTS
100
AcDbLine
10
-21.366171188907952
20
-49.767430776835724
30
0
11
-21.366085587684118
21
-48.812772314027733
31
0
0
LINE
5
14E
100
AcDbEntity
8
CUTOUTS
100
AcDbLine
10
-21.366083161882727
20
-50.722278764637672
30
0
11
-21.366171188907952
21
-49.767430776835724
31
0
0
ARC
5
14F
100
AcDbEntity
8
CUTOUTS
100
AcDbCircle
10
17.171578811091983
20
-55.767330775581826
30
0
40
1.0000000000000455
210
-0
220
0
230
1
100
AcDbArc
50
270.00286478921595
51
360
0
LINE
5
150
100
AcDbEntity
8
CUTOUTS
100
AcDbLine
10
18.171578811092033
20
-43.767530778089601
30
0
11
18.171578811092033
21
-55.767330775581847
31
0
0
ARC
5
151
100
AcDbEntity
8
CUTOUTS
100
AcDbCircle
10
17.171578811092019
20
-43.767530778089601
30
0
40
1.0000000000000142
210
0
220
-0
230
1
100
AcDbArc
50
0
51
89.997135210786126
0
LINE
5
152
100
AcDbEntity
8
CUTOUTS
100
AcDbLine
10
15.171528811091726
20
-42.767430774335736
30
0
11
17.171628811096156
21
-42.767530779339594
31
0
0
ARC
5
153
100
AcDbEntity
8
CUTOUTS
100
AcDbCircle
10
15.171578811092097
20
-43.767430773085785
30
0
40
1.0000000000000451
210
0
220
0
230
1
100
AcDbArc
50
90.00286478899811
51
180
0
LINE
5
154
100
AcDbEntity
8
CUTOUTS
100
AcDbLine
10
14.171578811092047
20
-55.767430780585698
30
0
11
14.171578811092047
21
-43.767430773085785
31
0
0
ARC
5
155
100
AcDbEntity
8
CUTOUTS
100
AcDbCircle
10
15.171578811092026
20
-55.767430780585755
30
0
40
0.99999999999997868
210
0
220
0
230
1
100
AcDbArc
50
180
51
269.99713521100796
0
LINE
5
156
100
AcDbEntity
8
CUTOUTS
100
AcDbLine
10
17.171628811096156
20
-56.767330774331874
30
0
11
15.171528811091761
21
-56.76743077933574
31
0
0
ARC
5
157
100
AcDbEntity
8
CUTOUTS
100
AcDbCircle
10
-81.016172694374475
20
-49.799237220920247
30
0
40
1.000000000000006
210
0
220
0
230
1
100
AcDbArc
50
179.9973966418475
51
268.06856873876529
0
LINE
5
158
100
AcDbEntity
8
CUTOUTS
100
AcDbLine
10
-53.356168519866678
20
-51.732573181884959
30
0
11
-81.049876145143273
21
-50.798669098241703
31
0
0
ARC
5
159
100
AcDbEntity
8
CUTOUTS
100
AcDbCircle
10
-53.322465069097866
20
-50.733141304563532
30
0
40
0.9999999999999758
210
0
220
0
230
1
100
AcDbArc
50
268.0685687387645
51
359.9973966418475
0
LINE
5
15A
100
AcDbEntity
8
CUTOUTS
100
AcDbLine
10
-52.322421188907953
20
-49.767430776835724
30
0
11
-52.322465070130164
21
-50.733186741737853
31
0
0
LINE
5
15B
100
AcDbEntity
8
CUTOUTS
100
AcDbLine
10
-52.322447244227206
20
-48.801600047188138
30
0
11
-52.322421188907953
21
-49.767430776835724
31
0
0
ARC
5
15C
100
AcDbEntity
8
CUTOUTS
100
AcDbCircle
10
-53.322447243863337
20
-48.801627024295456
30
0
40
1.0000000000000098
210
0
220
-0
230
1
100
AcDbArc
50
0.0015456741294611373
51
91.926233935098395
0
LINE
5
15D
100
AcDbEntity
8
CUTOUTS
100
AcDbLine
10
-81.049782477210371
20
-48.733581717881265
30
0
11
-53.356060035574885
21
-47.802192093830556
31
0
0
ARC
5
15E
100
AcDbEntity
8
CUTOUTS
100
AcDbCircle
10
-81.016169685498767
20
-49.733016648346165
30
0
40
1.000000000000018
210
0
220
0
230
1
100
AcDbArc
50
91.926233935101649
51
179.9973966418475
0
LINE
5
15F
100
AcDbEntity
8
CUTOUTS
100
AcDbLine
10
-82.016172693342213
20
-49.799191783745904
30
0
11
-82.016169684466519
21
-49.732971211171808
31
0
0
LINE
5
160
100
AcDbEntity
8
CUTOUTS
100
AcDbLine
10
-142.00054618890795
20
-5.6674307768357313
30
0
11
-142.00054618890795
21
-17.667430776835744
31
0
0
ARC
5
161
100
AcDbEntity
8
CUTOUTS
100
AcDbCircle
10
-143.00054618890795
20
-17.667430776835744
30
0
40
0.99999999999999645
210
-0
220
0
230
1
100
AcDbArc
50
-90
51
0
0
LINE
5
162
100
AcDbEntity
8
CUTOUTS
100
AcDbLine
10
-143.00054618890795
20
-18.667430776835737
30
0
11
-145.00054618890795
21
-18.667430776835737
31
0
0
ARC
5
163
100
AcDbEntity
8
CUTOUTS
100
AcDbCircle
10
-145.00054618890798
20
-17.667430776835744
30
0
40
0.99999999999999645
210
0
220
0
230
1
100
AcDbArc
50
180
51
270
0
LINE
5
164
100
AcDbEntity
8
CUTOUTS
100
AcDbLine
10
-146.00054618890795
20
-17.667430776835744
30
0
11
-146.00054618890795
21
-5.6674307768357224
31
0
0
ARC
5
165
100
AcDbEntity
8
CUTOUTS
100
AcDbCircle
10
-145.00054618890798
20
-5.6674307768357313
30
0
40
0.99999999999999645
210
0
220
-0
230
1
100
AcDbArc
50
90
51
180
0
LINE
5
166
100
AcDbEntity
8
CUTOUTS
100
AcDbLine
10
-145.00054618890795
20
-4.6674307768357348
30
0
11
-143.00054618890795
21
-4.6674307768357348
31
0
0
ARC
5
167
100
AcDbEntity
8
CUTOUTS
100
AcDbCircle
10
-143.00054618890795
20
-5.6674307768357313
30
0
40
0.99999999999999645
210
0
220
-0
230
1
100
AcDbArc
50
0
51
90
0
ARC
5
168
100
AcDbEntity
8
CUTOUTS
100
AcDbCircle
10
-48.203671188907968
20
-5.1674307768357419
30
0
40
0.50000000000002487
210
0
220
-0
230
1
100
AcDbArc
50
0
51
89.999999999997556
0
LINE
5
169
100
AcDbEntity
8
CUTOUTS
100
AcDbLine
10
-61.20367118890794
20
-4.6674307768357348
30
0
11
-48.203671188907947
21
-4.6674307768357259
31
0
0
ARC
5
16A
100
AcDbEntity
8
CUTOUTS
100
AcDbCircle
10
-61.203671188907961
20
-5.167430776835733
30
0
40
0.49999999999999822
210
0
220
-0
230
1
100
AcDbArc
50
89.999999999997556
51
180
0
LINE
5
16B
100
AcDbEntity
8
CUTOUTS
100
AcDbLine
10
-61.703671188907947
20
-18.167430776835729
30
0
11
-61.703671188907947
21
-5.167430776835733
31
0
0
ARC
5
16C
100
AcDbEntity
8
CUTOUTS
100
AcDbCircle
10
-61.20367118890794
20
-18.167430776835729
30
0
40
0.50000000000000711
210
0
220
0
230
1
100
AcDbArc
50
180
51
270
0
LINE
5
16D
100
AcDbEntity
8
CUTOUTS
100
AcDbLine
10
-48.203671188907947
20
-18.667430776835729
30
0
11
-61.20367118890794
21
-18.667430776835737
31
0
0
ARC
5
16E
100
AcDbEntity
8
CUTOUTS
100
AcDbCircle
10
-48.203671188907947
20
-18.16743077683574
30
0
40
0.49999999999998934
210
-0
220
0
230
1
100
AcDbArc
50
-90
51
0
0
LINE
5
16F
100
AcDbEntity
8
CUTOUTS
100
AcDbLine
10
-47.703671188907947
20
-5.167430776835733
30
0
11
-47.703671188907961
21
-18.167430776835729
31
0
0
LINE
5
170
100
AcDbEntity
8
CUTOUTS
100
AcDbLine
10
138.32132881109203
20
43.745069223164272
30
0
11
138.32132881109203
21
56.745069223164265
31
0
0
ARC
5
171
100
AcDbEntity
8
CUTOUTS
100
AcDbCircle
10
138.82132881109209
20
56.745069223164222
30
0
40
0.50000000000005151
210
0
220
0
230
1
100
AcDbArc
50
90.000000000006523
51
180
0
LINE
5
172
100
AcDbEntity
8
CUTOUTS
100
AcDbLine
10
138.82132881109203
20
57.245069223164265
30
0
11
151.821328811092
21
57.2450692231643
31
0
0
ARC
5
173
100
AcDbEntity
8
CUTOUTS
100
AcDbCircle
10
151.821328811092
20
56.745069223164265
30
0
40
0.50000000000004263
210
0
220
0
230
1
100
AcDbArc
50
0
51
90
0
LINE
5
174
100
AcDbEntity
8
CUTOUTS
100
AcDbLine
10
152.32132881109206
20
56.745069223164265
30
0
11
152.32132881109206
21
43.745069223164279
31
0
0
ARC
5
175
100
AcDbEntity
8
CUTOUTS
100
AcDbCircle
10
151.82132881109209
20
43.745069223164172
30
0
40
0.49999999999990052
210
0
220
0
230
1
100
AcDbArc
50
-90.000000000009777
51
0
0
LINE
5
176
100
AcDbEntity
8
CUTOUTS
100
AcDbLine
10
151.821328811092
20
43.245069223164272
30
0
11
138.82132881109203
21
43.245069223164272
31
0
0
ARC
5
177
100
AcDbEntity
8
CUTOUTS
100
AcDbCircle
10
138.821328811092
20
43.745069223164265
30
0
40
0.49999999999997158
210
0
220
0
230
1
100
AcDbArc
50
180
51
270.00000000000324
0
ARC
5
178
100
AcDbEntity
8
CUTOUTS
100
AcDbCircle
10
-133.92867118890794
20
56.745069223164279
30
0
40
0.49999999999998934
210
-0
220
0
230
1
100
AcDbArc
50
0
51
90.000000000003254
0
LINE
5
179
100
AcDbEntity
8
CUTOUTS
100
AcDbLine
10
-146.92867118890797
20
57.245069223164265
30
0
11
-133.92867118890794
21
57.245069223164279
31
0
0
ARC
5
17A
100
AcDbEntity
8
CUTOUTS
100
AcDbCircle
10
-146.92867118890797
20
56.745069223164265
30
0
40
0.49999999999999822
210
0
220
-0
230
1
100
AcDbArc
50
90
51
180
0
LINE
5
17B
100
AcDbEntity
8
CUTOUTS
100
AcDbLine
10
-147.42867118890797
20
43.745069223164272
30
0
11
-147.42867118890797
21
56.745069223164265
31
0
0
ARC
5
17C
100
AcDbEntity
8
CUTOUTS
100
AcDbCircle
10
-146.92867118890797
20
43.745069223164272
30
0
40
0.50000000000000711
210
0
220
0
230
1
100
AcDbArc
50
180
51
270
0
LINE
5
17D
100
AcDbEntity
8
CUTOUTS
100
AcDbLine
10
-133.92867118890794
20
43.245069223164272
30
0
11
-146.92867118890797
21
43.245069223164272
31
0
0
ARC
5
17E
100
AcDbEntity
8
CUTOUTS
100
AcDbCircle
10
-133.92867118890794
20
43.745069223164265
30
0
40
0.49999999999998934
210
-0
220
0
230
1
100
AcDbArc
50
-90
51
0
0
LINE
5
17F
100
AcDbEntity
8
CUTOUTS
100
AcDbLine
10
-133.42867118890794
20
56.745069223164265
30
0
11
-133.42867118890794
21
43.745069223164279
31
0
0
ARC
5
180
100
AcDbEntity
8
CUTOUTS
100
AcDbCircle
10
-19.628671188907951
20
-37.217430776835734
30
0
40
0.50000000000000711
210
-0
220
0
230
1
100
AcDbArc
50
-90
51
0
0
LINE
5
181
100
AcDbEntity
8
CUTOUTS
100
AcDbLine
10
-19.128671188907962
20
-24.217430776835727
30
0
11
-19.128671188907944
21
-37.217430776835734
31
0
0
ARC
5
182
100
AcDbEntity
8
CUTOUTS
100
AcDbCircle
10
-19.628671188907916
20
-24.217430776835691
30
0
40
0.49999999999995381
210
-0
220
0
230
1
100
AcDbArc
50
0
51
90.000000000004079
0
LINE
5
183
100
AcDbEntity
8
CUTOUTS
100
AcDbLine
10
-32.628671188907958
20
-23.71743077683572
30
0
11
-19.628671188907951
21
-23.717430776835737
31
0
0
ARC
5
184
100
AcDbEntity
8
CUTOUTS
100
AcDbCircle
10
-32.628671188907958
20
-24.217430776835727
30
0
40
0.50000000000000711
210
0
220
-0
230
1
100
AcDbArc
50
90
51
180
0
LINE
5
185
100
AcDbEntity
8
CUTOUTS
100
AcDbLine
10
-33.128671188907965
20
-37.217430776835734
30
0
11
-33.128671188907965
21
-24.217430776835727
31
0
0
ARC
5
186
100
AcDbEntity
8
CUTOUTS
100
AcDbCircle
10
-32.628671188907958
20
-37.217430776835734
30
0
40
0.50000000000000711
210
0
220
0
230
1
100
AcDbArc
50
180
51
270
0
LINE
5
187
100
AcDbEntity
8
CUTOUTS
100
AcDbLine
10
-19.628671188907951
20
-37.717430776835741
30
0
11
-32.628671188907958
21
-37.717430776835741
31
0
0
ARC
5
188
100
AcDbEntity
8
CUTOUTS
100
AcDbCircle
10
-86.303671188907941
20
-18.16743077683574
30
0
40
0.49999999999998934
210
-0
220
0
230
1
100
AcDbArc
50
-90
51
0
0
LINE
5
189
100
AcDbEntity
8
CUTOUTS
100
AcDbLine
10
-85.803671188907941
20
-5.167430776835733
30
0
11
-85.803671188907941
21
-18.167430776835729
31
0
0
ARC
5
18A
100
AcDbEntity
8
CUTOUTS
100
AcDbCircle
10
-86.303671188907941
20
-5.167430776835733
30
0
40
0.49999999999998934
210
0
220
-0
230
1
100
AcDbArc
50
0
51
90
0
LINE
5
18B
100
AcDbEntity
8
CUTOUTS
100
AcDbLine
10
-99.303671188907941
20
-4.6674307768357348
30
0
11
-86.303671188907941
21
-4.6674307768357437
31
0
0
ARC
5
18C
100
AcDbEntity
8
CUTOUTS
100
AcDbCircle
10
-99.30367118890797
20
-5.1674307768357242
30
0
40
0.49999999999998934
210
0
220
-0
230
1
100
AcDbArc
50
90
51
180
0
LINE
5
18D
100
AcDbEntity
8
CUTOUTS
100
AcDbLine
10
-99.803671188907941
20
-18.167430776835729
30
0
11
-99.803671188907941
21
-5.167430776835733
31
0
0
ARC
5
18E
100
AcDbEntity
8
CUTOUTS
100
AcDbCircle
10
-99.303671188907941
20
-18.167430776835729
30
0
40
0.49999999999998934
210
0
220
0
230
1
100
AcDbArc
50
180
51
270
0
LINE
5
18F
100
AcDbEntity
8
CUTOUTS
100
AcDbLine
10
-86.303671188907941
20
-18.667430776835729
30
0
11
-99.303671188907941
21
-18.667430776835729
31
0
0
ARC
5
190
100
AcDbEntity
8
CUTOUTS
100
AcDbCircle
10
23.23382881109211
20
13.882569223164278
30
0
40
0.49999999999997158
210
-0
220
0
230
1
100
AcDbArc
50
0
51
90.000000000004079
0
LINE
5
191
100
AcDbEntity
8
CUTOUTS
100
AcDbLine
10
10.233828811092067
20
14.382569223164268
30
0
11
23.233828811092074
21
14.382569223164277
31
0
0
ARC
5
192
100
AcDbEntity
8
CUTOUTS
100
AcDbCircle
10
10.233828811092067
20
13.882569223164234
30
0
40
0.50000000000003375
210
0
220
-0
230
1
100
AcDbArc
50
90
51
180
0
LINE
5
193
100
AcDbEntity
8
CUTOUTS
100
AcDbLine
10
9.7338288110920601
20
0.88256922316426234
30
0
11
9.7338288110920246
21
13.882569223164269
31
0
0
ARC
5
194
100
AcDbEntity
8
CUTOUTS
100
AcDbCircle
10
10.233828811092032
20
0.88256922316423569
30
0
40
0.49999999999997158
210
0
220
0
230
1
100
AcDbArc
50
180
51
270.00000000000409
0
LINE
5
195
100
AcDbEntity
8
CUTOUTS
100
AcDbLine
10
23.233828811092074
20
0.38256922316426412
30
0
11
10.233828811092067
21
0.38256922316426412
31
0
0
ARC
5
196
100
AcDbEntity
8
CUTOUTS
100
AcDbCircle
10
23.233828811092003
20
0.88256922316431563
30
0
40
0.50000000000005151
210
-0
220
0
230
1
100
AcDbArc
50
270.00000000000813
51
360
0
LINE
5
197
100
AcDbEntity
8
CUTOUTS
100
AcDbLine
10
23.733828811092081
20
13.882569223164269
30
0
11
23.733828811092081
21
0.88256922316426234
31
0
0
ARC
5
198
100
AcDbEntity
8
CUTOUTS
100
AcDbCircle
10
170.87132881109201
20
-43.267430776835738
30
0
40
0.50000000000004263
210
0
220
-0
230
1
100
AcDbArc
50
0
51
90
0
LINE
5
199
100
AcDbEntity
8
CUTOUTS
100
AcDbLine
10
157.87132881109204
20
-42.767430776835731
30
0
11
170.87132881109201
21
-42.767430776835695
31
0
0
ARC
5
19A
100
AcDbEntity
8
CUTOUTS
100
AcDbCircle
10
157.87132881109198
20
-43.267430776835738
30
0
40
0.50000000000000711
210
0
220
-0
230
1
100
AcDbArc
50
89.999999999993491
51
180
0
LINE
5
19B
100
AcDbEntity
8
CUTOUTS
100
AcDbLine
10
157.37132881109207
20
-56.267430776835724
30
0
11
157.37132881109201
21
-43.267430776835738
31
0
0
ARC
5
19C
100
AcDbEntity
8
CUTOUTS
100
AcDbCircle
10
157.87132881109213
20
-56.267430776835674
30
0
40
0.50000000000004263
210
0
220
0
230
1
100
AcDbArc
50
180
51
269.99999999999022
0
LINE
5
19D
100
AcDbEntity
8
CUTOUTS
100
AcDbLine
10
170.87132881109201
20
-56.767430776835738
30
0
11
157.87132881109204
21
-56.767430776835695
31
0
0
ARC
5
19E
100
AcDbEntity
8
CUTOUTS
100
AcDbCircle
10
170.8713288110921
20
-56.267430776835724
30
0
40
0.50000000000000711
210
0
220
0
230
1
100
AcDbArc
50
-90.000000000009777
51
0
0
LINE
5
19F
100
AcDbEntity
8
CUTOUTS
100
AcDbLine
10
171.37132881109207
20
-43.267430776835738
30
0
11
171.37132881109207
21
-56.267430776835724
31
0
0
LINE
5
1A0
100
AcDbEntity
8
CUTOUTS
100
AcDbLine
10
174.71594292107565
20
63.141507823181513
30
0
11
173.35916978848002
21
65.491507823181522
31
0
0
LINE
5
1A1
100
AcDbEntity
8
CUTOUTS
100
AcDbLine
10
173.35916978848002
20
65.491507823181522
30
0
11
174.71594292107565
21
67.84150782318153
31
0
0
LINE
5
1A2
100
AcDbEntity
8
CUTOUTS
100
AcDbLine
10
174.71594292107565
20
67.84150782318153
30
0
11
177.42948918626692
21
67.841507823181558
31
0
0
LINE
5
1A3
100
AcDbEntity
8
CUTOUTS
100
AcDbLine
10
177.42948918626692
20
67.841507823181558
30
0
11
178.78626231886255
21
65.491507823181522
31
0
0
LINE
5
1A4
100
AcDbEntity
8
CUTOUTS
100
AcDbLine
10
178.78626231886255
20
65.491507823181522
30
0
11
177.42948918626692
21
63.141507823181513
31
0
0
LINE
5
1A5
100
AcDbEntity
8
CUTOUTS
100
AcDbLine
10
177.42948918626692
20
63.141507823181513
30
0
11
174.71594292107565
21
63.141507823181513
31
0
0
LINE
5
1A6
100
AcDbEntity
8
CUTOUTS
100
AcDbLine
10
8.2332960281392076
20
63.141273557893562
30
0
11
6.8765166818984724
21
65.49126997043291
31
0
0
LINE
5
1A7
100
AcDbEntity
8
CUTOUTS
100
AcDbLine
10
6.8765166818984724
20
65.49126997043291
30
0
11
8.233283600839485
21
67.841273557877116
31
0
0
LINE
5
1A8
100
AcDbEntity
8
CUTOUTS
100
AcDbLine
10
8.233283600839485
20
67.841273557877116
30
0
11
10.946829866021233
21
67.841280732781954
31
0
0
LINE
5
1A9
100
AcDbEntity
8
CUTOUTS
100
AcDbLine
10
10.946829866021233
20
67.841280732781954
30
0
11
12.303609212261968
21
65.491284320242599
31
0
0
LINE
5
1AA
100
AcDbEntity
8
CUTOUTS
100
AcDbLine
10
12.303609212261968
20
65.491284320242599
30
0
11
10.946842293320955
21
63.141280732798393
31
0
0
LINE
5
1AB
100
AcDbEntity
8
CUTOUTS
100
AcDbLine
10
10.946842293320955
20
63.141280732798393
30
0
11
8.2332960281392076
21
63.141273557893562
31
0
0
ARC
5
1AC
100
AcDbEntity
8
CUTOUTS
100
AcDbCircle
10
27.996328811092077
20
-5.1674307768356975
30
0
40
0.49999999999997158
210
-0
220
0
230
1
100
AcDbArc
50
0
51
90.000000000004079
0
LINE
5
1AD
100
AcDbEntity
8
CUTOUTS
100
AcDbLine
10
14.996328811092035
20
-4.6674307768357348
30
0
11
27.996328811092042
21
-4.6674307768357348
31
0
0
ARC
5
1AE
100
AcDbEntity
8
CUTOUTS
100
AcDbCircle
10
14.996328811092106
20
-5.1674307768357863
30
0
40
0.50000000000005151
210
0
220
0
230
1
100
AcDbArc
50
90.000000000008143
51
180
0
LINE
5
1AF
100
AcDbEntity
8
CUTOUTS
100
AcDbLine
10
14.496328811092027
20
-18.167430776835729
30
0
11
14.496328811092063
21
-5.167430776835733
31
0
0
ARC
5
1B0
100
AcDbEntity
8
CUTOUTS
100
AcDbCircle
10
14.996328811091999
20
-18.16743077683574
30
0
40
0.49999999999997158
210
0
220
0
230
1
100
AcDbArc
50
180
51
270.00000000000409
0
LINE
5
1B1
100
AcDbEntity
8
CUTOUTS
100
AcDbLine
10
27.996328811092042
20
-18.667430776835729
30
0
11
14.996328811092035
21
-18.667430776835737
31
0
0
ARC
5
1B2
100
AcDbEntity
8
CUTOUTS
100
AcDbCircle
10
27.996328811092042
20
-18.167430776835694
30
0
40
0.50000000000003375
210
-0
220
0
230
1
100
AcDbArc
50
270
51
360
0
LINE
5
1B3
100
AcDbEntity
8
CUTOUTS
100
AcDbLine
10
28.496328811092049
20
-5.167430776835733
30
0
11
28.496328811092049
21
-18.167430776835729
31
0
0
LINE
5
1B4
100
AcDbEntity
8
CUTOUTS
100
AcDbLine
10
-128.37867118890796
20
43.745069223164279
30
0
11
-128.37867118890796
21
56.745069223164265
31
0
0
ARC
5
1B5
100
AcDbEntity
8
CUTOUTS
100
AcDbCircle
10
-127.87867118890794
20
56.745069223164265
30
0
40
0.49999999999999822
210
0
220
-0
230
1
100
AcDbArc
50
90
51
180
0
LINE
5
1B6
100
AcDbEntity
8
CUTOUTS
100
AcDbLine
10
-127.87867118890794
20
57.245069223164265
30
0
11
-114.87867118890793
21
57.245069223164265
31
0
0
ARC
5
1B7
100
AcDbEntity
8
CUTOUTS
100
AcDbCircle
10
-114.87867118890793
20
56.745069223164265
30
0
40
0.50000000000000711
210
0
220
0
230
1
100
AcDbArc
50
0
51
90
0
LINE
5
1B8
100
AcDbEntity
8
CUTOUTS
100
AcDbLine
10
-114.37867118890794
20
56.745069223164265
30
0
11
-114.37867118890794
21
43.745069223164279
31
0
0
ARC
5
1B9
100
AcDbEntity
8
CUTOUTS
100
AcDbCircle
10
-114.87867118890793
20
43.745069223164272
30
0
40
0.49999999999999822
210
-0
220
0
230
1
100
AcDbArc
50
-90
51
0
0
LINE
5
1BA
100
AcDbEntity
8
CUTOUTS
100
AcDbLine
10
-114.87867118890793
20
43.245069223164272
30
0
11
-127.87867118890794
21
43.245069223164272
31
0
0
ARC
5
1BB
100
AcDbEntity
8
CUTOUTS
100
AcDbCircle
10
-127.87867118890794
20
43.745069223164272
30
0
40
0.50000000000000711
210
0
220
0
230
1
100
AcDbArc
50
180
51
270
0
LINE
5
1BC
100
AcDbEntity
8
CUTOUTS
100
AcDbLine
10
-52.96617118890795
20
0.38256922316426412
30
0
11
-65.966171188907936
21
0.38256922316425523
31
0
0
ARC
5
1BD
100
AcDbEntity
8
CUTOUTS
100
AcDbCircle
10
-65.966171188907936
20
0.88256922316426234
30
0
40
0.50000000000000711
210
0
220
0
230
1
100
AcDbArc
50
180
51
270
0
LINE
5
1BE
100
AcDbEntity
8
CUTOUTS
100
AcDbLine
10
-66.46617118890795
20
0.88256922316426234
30
0
11
-66.46617118890795
21
13.882569223164269
31
0
0
ARC
5
1BF
100
AcDbEntity
8
CUTOUTS
100
AcDbCircle
10
-65.966171188907936
20
13.882569223164261
30
0
40
0.50000000000000711
210
0
220
-0
230
1
100
AcDbArc
50
90
51
180
0
LINE
5
1C0
100
AcDbEntity
8
CUTOUTS
100
AcDbLine
10
-65.966171188907936
20
14.382569223164268
30
0
11
-52.96617118890795
21
14.382569223164277
31
0
0
ARC
5
1C1
100
AcDbEntity
8
CUTOUTS
100
AcDbCircle
10
-52.966171188907971
20
13.882569223164252
30
0
40
0.50000000000002487
210
0
220
-0
230
1
100
AcDbArc
50
0
51
89.999999999997556
0
LINE
5
1C2
100
AcDbEntity
8
CUTOUTS
100
AcDbLine
10
-52.46617118890795
20
13.882569223164269
30
0
11
-52.46617118890795
21
0.88256922316426234
31
0
0
ARC
5
1C3
100
AcDbEntity
8
CUTOUTS
100
AcDbCircle
10
-52.96617118890795
20
0.88256922316425346
30
0
40
0.49999999999998934
210
-0
220
0
230
1
100
AcDbArc
50
-90
51
0
0
LINE
5
1C4
100
AcDbEntity
8
CUTOUTS
100
AcDbLine
10
89.195758088770845
20
67.841365865095213
30
0
11
91.909304353714816
21
67.841402498609966
31
0
0
LINE
5
1C5
100
AcDbEntity
8
CUTOUTS
100
AcDbLine
10
91.909304353714816
20
67.841402498609966
30
0
11
93.266109211741195
21
65.491420815581478
31
0
0
LINE
5
1C6
100
AcDbEntity
8
CUTOUTS
100
AcDbLine
10
93.266109211741195
20
65.491420815581478
30
0
11
91.909367804823603
21
63.141402499038279
31
0
0
LINE
5
1C7
100
AcDbEntity
8
CUTOUTS
100
AcDbLine
10
91.909367804823603
20
63.141402499038279
30
0
11
89.195821539879631
21
63.141365865523525
31
0
0
LINE
5
1C8
100
AcDbEntity
8
CUTOUTS
100
AcDbLine
10
89.195821539879631
20
63.141365865523525
30
0
11
87.839016681853252
21
65.491347548552014
31
0
0
LINE
5
1C9
100
AcDbEntity
8
CUTOUTS
100
AcDbLine
10
87.839016681853252
20
65.491347548552014
30
0
11
89.195758088770845
21
67.841365865095213
31
0
0
ARC
5
1CA
100
AcDbEntity
8
CUTOUTS
100
AcDbCircle
10
-129.16617118890798
20
-56.26743077683571
30
0
40
0.50000000000002487
210
-0
220
0
230
1
100
AcDbArc
50
270.00000000000324
51
360
0
LINE
5
1CB
100
AcDbEntity
8
CUTOUTS
100
AcDbLine
10
-128.66617118890792
20
-43.267430776835738
30
0
11
-128.66617118890792
21
-56.267430776835724
31
0
0
ARC
5
1CC
100
AcDbEntity
8
CUTOUTS
100
AcDbCircle
10
-129.16617118890795
20
-43.267430776835738
30
0
40
0.50000000000000711
210
0
220
-0
230
1
100
AcDbArc
50
0
51
90
0
LINE
5
1CD
100
AcDbEntity
8
CUTOUTS
100
AcDbLine
10
-144.54742118890795
20
-42.767430776835731
30
0
11
-129.16617118890795
21
-42.767430776835731
31
0
0
ARC
5
1CE
100
AcDbEntity
8
CUTOUTS
100
AcDbCircle
10
-144.54742118890795
20
-43.267430776835738
30
0
40
0.50000000000000711
210
0
220
-0
230
1
100
AcDbArc
50
90
51
180
0
LINE
5
1CF
100
AcDbEntity
8
CUTOUTS
100
AcDbLine
10
-145.04742118890795
20
-56.267430776835724
30
0
11
-145.04742118890795
21
-43.267430776835738
31
0
0
ARC
5
1D0
100
AcDbEntity
8
CUTOUTS
100
AcDbCircle
10
-144.54742118890795
20
-56.267430776835724
30
0
40
0.49999999999998934
210
0
220
0
230
1
100
AcDbArc
50
180
51
270
0
LINE
5
1D1
100
AcDbEntity
8
CUTOUTS
100
AcDbLine
10
-129.16617118890795
20
-56.767430776835738
30
0
11
-144.54742118890795
21
-56.767430776835717
31
0
0
ARC
5
1D2
100
AcDbEntity
8
CUTOUTS
100
AcDbCircle
10
4.1838288110920274
20
43.745069223164293
30
0
40
0.50000000000002487
210
-0
220
0
230
1
100
AcDbArc
50
270
51
360
0
LINE
5
1D3
100
AcDbEntity
8
CUTOUTS
100
AcDbLine
10
4.6838288110920345
20
56.745069223164265
30
0
11
4.6838288110920701
21
43.745069223164279
31
0
0
ARC
5
1D4
100
AcDbEntity
8
CUTOUTS
100
AcDbCircle
10
4.1838288110920629
20
56.745069223164307
30
0
40
0.49999999999997158
210
-0
220
0
230
1
100
AcDbArc
50
0
51
90.000000000004079
0
LINE
5
1D5
100
AcDbEntity
8
CUTOUTS
100
AcDbLine
10
-8.8161711889079442
20
57.245069223164265
30
0
11
4.1838288110920274
21
57.245069223164265
31
0
0
ARC
5
1D6
100
AcDbEntity
8
CUTOUTS
100
AcDbCircle
10
-8.8161711889079442
20
56.745069223164244
30
0
40
0.50000000000003375
210
0
220
-0
230
1
100
AcDbArc
50
90
51
180
0
LINE
5
1D7
100
AcDbEntity
8
CUTOUTS
100
AcDbLine
10
-9.3161711889079513
20
43.745069223164279
30
0
11
-9.3161711889079868
21
56.745069223164265
31
0
0
ARC
5
1D8
100
AcDbEntity
8
CUTOUTS
100
AcDbCircle
10
-8.8161711889079797
20
43.745069223164244
30
0
40
0.49999999999997158
210
0
220
0
230
1
100
AcDbArc
50
180
51
270.00000000000409
0
LINE
5
1D9
100
AcDbEntity
8
CUTOUTS
100
AcDbLine
10
4.1838288110920274
20
43.245069223164272
30
0
11
-8.8161711889079442
21
43.245069223164272
31
0
0
ARC
5
1DA
100
AcDbEntity
8
CUTOUTS
100
AcDbCircle
10
-94.541171188907953
20
32.932569223164279
30
0
40
0.49999999999999378
210
0
220
-0
230
1
100
AcDbArc
50
90
51
180
0
LINE
5
1DB
100
AcDbEntity
8
CUTOUTS
100
AcDbLine
10
-95.041171188907967
20
19.932569223164265
30
0
11
-95.041171188907967
21
32.932569223164272
31
0
0
ARC
5
1DC
100
AcDbEntity
8
CUTOUTS
100
AcDbCircle
10
-94.541171188907981
20
19.932569223164251
30
0
40
0.49999999999998934
210
0
220
0
230
1
100
AcDbArc
50
180
51
270.00000000000324
0
LINE
5
1DD
100
AcDbEntity
8
CUTOUTS
100
AcDbLine
10
-81.541171188907953
20
19.432569223164265
30
0
11
-94.541171188907953
21
19.432569223164275
31
0
0
ARC
5
1DE
100
AcDbEntity
8
CUTOUTS
100
AcDbCircle
10
-81.541171188907938
20
19.932569223164265
30
0
40
0.49999999999999822
210
0
220
0
230
1
100
AcDbArc
50
-90.000000000001634
51
0
0
LINE
5
1DF
100
AcDbEntity
8
CUTOUTS
100
AcDbLine
10
-81.041171188907967
20
32.932569223164272
30
0
11
-81.041171188907953
21
19.932569223164265
31
0
0
ARC
5
1E0
100
AcDbEntity
8
CUTOUTS
100
AcDbCircle
10
-81.541171188907938
20
32.932569223164286
30
0
40
0.49999999999997158
210
-0
220
0
230
1
100
AcDbArc
50
0
51
90.000000000001634
0
LINE
5
1E1
100
AcDbEntity
8
CUTOUTS
100
AcDbLine
10
-94.541171188907953
20
33.432569223164272
30
0
11
-81.541171188907953
21
33.432569223164258
31
0
0
ARC
5
1E2
100
AcDbEntity
8
CUTOUTS
100
AcDbCircle
10
-123.11617118890794
20
13.882569223164269
30
0
40
0.49999999999999822
210
0
220
-0
230
1
100
AcDbArc
50
90
51
180
0
LINE
5
1E3
100
AcDbEntity
8
CUTOUTS
100
AcDbLine
10
-123.61617118890794
20
0.88256922316426234
30
0
11
-123.61617118890794
21
13.882569223164269
31
0
0
ARC
5
1E4
100
AcDbEntity
8
CUTOUTS
100
AcDbCircle
10
-123.11617118890794
20
0.88256922316426234
30
0
40
0.50000000000000711
210
0
220
0
230
1
100
AcDbArc
50
180
51
270
0
LINE
5
1E5
100
AcDbEntity
8
CUTOUTS
100
AcDbLine
10
-110.11617118890796
20
0.38256922316426412
30
0
11
-123.11617118890794
21
0.38256922316426412
31
0
0
ARC
5
1E6
100
AcDbEntity
8
CUTOUTS
100
AcDbCircle
10
-110.11617118890796
20
0.88256922316426234
30
0
40
0.49999999999999822
210
-0
220
0
230
1
100
AcDbArc
50
-90
51
0
0
LINE
5
1E7
100
AcDbEntity
8
CUTOUTS
100
AcDbLine
10
-109.61617118890794
20
13.882569223164269
30
0
11
-109.61617118890794
21
0.88256922316426234
31
0
0
ARC
5
1E8
100
AcDbEntity
8
CUTOUTS
100
AcDbCircle
10
-110.11617118890794
20
13.882569223164278
30
0
40
0.49999999999998934
210
-0
220
0
230
1
100
AcDbArc
50
0
51
90.000000000001634
0
LINE
5
1E9
100
AcDbEntity
8
CUTOUTS
100
AcDbLine
10
-123.11617118890794
20
14.382569223164268
30
0
11
-110.11617118890794
21
14.382569223164277
31
0
0
ARC
5
1EA
100
AcDbEntity
8
CUTOUTS
100
AcDbCircle
10
47.046328811092053
20
-18.167430776835694
30
0
40
0.50000000000003375
210
-0
220
0
230
1
100
AcDbArc
50
270
51
360
0
LINE
5
1EB
100
AcDbEntity
8
CUTOUTS
100
AcDbLine
10
47.54632881109206
20
-5.167430776835733
30
0
11
47.54632881109206
21
-18.167430776835729
31
0
0
ARC
5
1EC
100
AcDbEntity
8
CUTOUTS
100
AcDbCircle
10
47.046328811092089
20
-5.1674307768356975
30
0
40
0.49999999999997158
210
-0
220
0
230
1
100
AcDbArc
50
0
51
90.000000000004079
0
LINE
5
1ED
100
AcDbEntity
8
CUTOUTS
100
AcDbLine
10
34.046328811092046
20
-4.6674307768357348
30
0
11
47.046328811092053
21
-4.6674307768357348
31
0
0
ARC
5
1EE
100
AcDbEntity
8
CUTOUTS
100
AcDbCircle
10
34.046328811092117
20
-5.1674307768357863
30
0
40
0.50000000000005151
210
0
220
0
230
1
100
AcDbArc
50
90.000000000008143
51
180
0
LINE
5
1EF
100
AcDbEntity
8
CUTOUTS
100
AcDbLine
10
33.546328811092039
20
-18.167430776835729
30
0
11
33.546328811092074
21
-5.167430776835733
31
0
0
ARC
5
1F0
100
AcDbEntity
8
CUTOUTS
100
AcDbCircle
10
34.04632881109201
20
-18.16743077683574
30
0
40
0.49999999999997158
210
0
220
0
230
1
100
AcDbArc
50
180
51
270.00000000000409
0
LINE
5
1F1
100
AcDbEntity
8
CUTOUTS
100
AcDbLine
10
47.046328811092053
20
-18.667430776835729
30
0
11
34.046328811092046
21
-18.667430776835729
31
0
0
LINE
5
1F2
100
AcDbEntity
8
CUTOUTS
100
AcDbLine
10
4.6838288110920345
20
13.882569223164269
30
0
11
4.6838288110920345
21
0.88256922316426234
31
0
0
ARC
5
1F3
100
AcDbEntity
8
CUTOUTS
100
AcDbCircle
10
4.1838288110920274
20
0.88256922316429787
30
0
40
0.50000000000003375
210
-0
220
0
230
1
100
AcDbArc
50
270
51
360
0
LINE
5
1F4
100
AcDbEntity
8
CUTOUTS
100
AcDbLine
10
4.1838288110920274
20
0.38256922316426412
30
0
11
-8.8161711889079442
21
0.38256922316426412
31
0
0
ARC
5
1F5
100
AcDbEntity
8
CUTOUTS
100
AcDbCircle
10
-8.8161711889079797
20
0.88256922316423569
30
0
40
0.49999999999997158
210
0
220
0
230
1
100
AcDbArc
50
180
51
270.00000000000409
0
LINE
5
1F6
100
AcDbEntity
8
CUTOUTS
100
AcDbLine
10
-9.3161711889079513
20
0.88256922316426234
30
0
11
-9.3161711889079868
21
13.882569223164269
31
0
0
ARC
5
1F7
100
AcDbEntity
8
CUTOUTS
100
AcDbCircle
10
-8.8161711889079442
20
13.882569223164234
30
0
40
0.50000000000003375
210
0
220
-0
230
1
100
AcDbArc
50
90
51
180
0
LINE
5
1F8
100
AcDbEntity
8
CUTOUTS
100
AcDbLine
10
-8.8161711889079442
20
14.382569223164268
30
0
11
4.1838288110920274
21
14.382569223164277
31
0
0
ARC
5
1F9
100
AcDbEntity
8
CUTOUTS
100
AcDbCircle
10
4.1838288110920629
20
13.882569223164296
30
0
40
0.49999999999997158
210
-0
220
0
230
1
100
AcDbArc
50
0
51
90.000000000004079
0
ARC
5
1FA
100
AcDbEntity
8
CUTOUTS
100
AcDbCircle
10
94.728078811092118
20
-24.217430776835744
30
0
40
0.50000000000004263
210
0
220
-0
230
1
100
AcDbArc
50
90
51
180
0
LINE
5
1FB
100
AcDbEntity
8
CUTOUTS
100
AcDbLine
10
94.228078811092075
20
-39.217430776835727
30
0
11
94.228078811092075
21
-24.217430776835727
31
0
0
ARC
5
1FC
100
AcDbEntity
8
CUTOUTS
100
AcDbCircle
10
94.728078811092075
20
-39.217430776835741
30
0
40
0.50000000000000711
210
0
220
0
230
1
100
AcDbArc
50
180
51
270
0
LINE
5
1FD
100
AcDbEntity
8
CUTOUTS
100
AcDbLine
10
100.7280788110921
20
-39.717430776835734
30
0
11
94.728078811092075
21
-39.717430776835734
31
0
0
ARC
5
1FE
100
AcDbEntity
8
CUTOUTS
100
AcDbCircle
10
100.7280788110921
20
-39.217430776835741
30
0
40
0.49999999999998934
210
-0
220
0
230
1
100
AcDbArc
50
-90
51
0
0
LINE
5
1FF
100
AcDbEntity
8
CUTOUTS
100
AcDbLine
10
101.22807881109208
20
-37.717430776835741
30
0
11
101.2280788110921
21
-39.217430776835727
31
0
0
LINE
5
200
100
AcDbEntity
8
CUTOUTS
100
AcDbLine
10
108.95882881109209
20
-37.717430776835741
30
0
11
101.22807881109208
21
-37.717430776835741
31
0
0
ARC
5
201
100
AcDbEntity
8
CUTOUTS
100
AcDbCircle
10
108.95882881109213
20
-37.217430776835769
30
0
40
0.49999999999997158
210
0
220
0
230
1
100
AcDbArc
50
-90.000000000004889
51
0
0
LINE
5
202
100
AcDbEntity
8
CUTOUTS
100
AcDbLine
10
109.4588288110921
20
-24.217430776835727
30
0
11
109.4588288110921
21
-37.217430776835734
31
0
0
ARC
5
203
100
AcDbEntity
8
CUTOUTS
100
AcDbCircle
10
108.95882881109213
20
-24.217430776835691
30
0
40
0.49999999999997158
210
-0
220
0
230
1
100
AcDbArc
50
0
51
90.000000000004889
0
LINE
5
204
100
AcDbEntity
8
CUTOUTS
100
AcDbLine
10
94.728078811092118
20
-23.717430776835702
30
0
11
108.95882881109209
21
-23.71743077683572
31
0
0
LINE
5
205
100
AcDbEntity
8
CUTOUTS
100
AcDbLine
10
-68.658890787455022
20
65.491177283513622
30
0
11
-70.015657706396027
21
63.141173696069416
31
0
0
LINE
5
206
100
AcDbEntity
8
CUTOUTS
100
AcDbLine
10
-70.015657706396027
20
63.141173696069416
30
0
11
-72.729203971577789
21
63.14116652116455
31
0
0
LINE
5
207
100
AcDbEntity
8
CUTOUTS
100
AcDbLine
10
-72.729203971577789
20
63.14116652116455
30
0
11
-74.085983317818545
21
65.491162933703919
31
0
0
LINE
5
208
100
AcDbEntity
8
CUTOUTS
100
AcDbLine
10
-74.085983317818545
20
65.491162933703919
30
0
11
-72.72921639887754
21
67.841166521148153
31
0
0
LINE
5
209
100
AcDbEntity
8
CUTOUTS
100
AcDbLine
10
-72.72921639887754
20
67.841166521148153
30
0
11
-70.015670133695778
21
67.841173696052991
31
0
0
LINE
5
20A
100
AcDbEntity
8
CUTOUTS
100
AcDbLine
10
-70.015670133695778
20
67.841173696052991
30
0
11
-68.658890787455022
21
65.491177283513622
31
0
0
LINE
5
20B
100
AcDbEntity
8
CUTOUTS
100
AcDbLine
10
-52.96617118890795
20
43.245069223164272
30
0
11
-65.966171188907936
21
43.245069223164272
31
0
0
ARC
5
20C
100
AcDbEntity
8
CUTOUTS
100
AcDbCircle
10
-65.966171188907936
20
43.745069223164272
30
0
40
0.50000000000000711
210
0
220
0
230
1
100
AcDbArc
50
180
51
270
0
LINE
5
20D
100
AcDbEntity
8
CUTOUTS
100
AcDbLine
10
-66.46617118890795
20
43.745069223164272
30
0
11
-66.466171188907964
21
56.745069223164265
31
0
0
ARC
5
20E
100
AcDbEntity
8
CUTOUTS
100
AcDbCircle
10
-65.966171188907964
20
56.745069223164265
30
0
40
0.49999999999999822
210
0
220
-0
230
1
100
AcDbArc
50
89.999999999996746
51
180
0
LINE
5
20F
100
AcDbEntity
8
CUTOUTS
100
AcDbLine
10
-65.966171188907936
20
57.245069223164265
30
0
11
-52.96617118890795
21
57.245069223164279
31
0
0
ARC
5
210
100
AcDbEntity
8
CUTOUTS
100
AcDbCircle
10
-52.966171188907971
20
56.745069223164251
30
0
40
0.50000000000002487
210
0
220
-0
230
1
100
AcDbArc
50
0
51
89.999999999997556
0
LINE
5
211
100
AcDbEntity
8
CUTOUTS
100
AcDbLine
10
-52.46617118890795
20
56.745069223164265
30
0
11
-52.46617118890795
21
43.745069223164279
31
0
0
ARC
5
212
100
AcDbEntity
8
CUTOUTS
100
AcDbCircle
10
-52.966171188907971
20
43.745069223164265
30
0
40
0.49999999999998934
210
-0
220
0
230
1
100
AcDbArc
50
-89.999999999997556
51
0
0
LINE
5
213
100
AcDbEntity
8
CUTOUTS
100
AcDbLine
10
-4.8411711889079356
20
32.932569223164272
30
0
11
-4.8411711889079356
21
19.932569223164265
31
0
0
ARC
5
214
100
AcDbEntity
8
CUTOUTS
100
AcDbCircle
10
-5.3411711889079072
20
19.932569223164251
30
0
40
0.4999999999999849
210
0
220
0
230
1
100
AcDbArc
50
-90.000000000004079
51
0
0
LINE
5
215
100
AcDbEntity
8
CUTOUTS
100
AcDbLine
10
-5.3411711889079427
20
19.432569223164265
30
0
11
-18.341171188907932
21
19.432569223164265
31
0
0
ARC
5
216
100
AcDbEntity
8
CUTOUTS
100
AcDbCircle
10
-18.341171188907897
20
19.932569223164293
30
0
40
0.50000000000004263
210
0
220
0
230
1
100
AcDbArc
50
180
51
269.99999999999591
0
LINE
5
217
100
AcDbEntity
8
CUTOUTS
100
AcDbLine
10
-18.841171188907939
20
19.932569223164268
30
0
11
-18.841171188907921
21
32.932569223164272
31
0
0
ARC
5
218
100
AcDbEntity
8
CUTOUTS
100
AcDbCircle
10
-18.341171188907932
20
32.932569223164279
30
0
40
0.49999999999998934
210
0
220
-0
230
1
100
AcDbArc
50
90
51
180
0
LINE
5
219
100
AcDbEntity
8
CUTOUTS
100
AcDbLine
10
-18.341171188907932
20
33.432569223164272
30
0
11
-5.3411711889079427
21
33.432569223164279
31
0
0
ARC
5
21A
100
AcDbEntity
8
CUTOUTS
100
AcDbCircle
10
-5.3411711889079427
20
32.932569223164279
30
0
40
0.50000000000000711
210
-0
220
0
230
1
100
AcDbArc
50
0
51
90
0
LINE
5
21B
100
AcDbEntity
8
CUTOUTS
100
AcDbLine
10
-168.35992118890798
20
-23.71743077683572
30
0
11
-155.35992118890795
21
-23.71743077683572
31
0
0
ARC
5
21C
100
AcDbEntity
8
CUTOUTS
100
AcDbCircle
10
-155.35992118890795
20
-24.217430776835709
30
0
40
0.50000000000000711
210
-0
220
0
230
1
100
AcDbArc
50
0
51
90
0
LINE
5
21D
100
AcDbEntity
8
CUTOUTS
100
AcDbLine
10
-154.85992118890795
20
-24.217430776835727
30
0
11
-154.85992118890795
21
-37.217430776835734
31
0
0
ARC
5
21E
100
AcDbEntity
8
CUTOUTS
100
AcDbCircle
10
-155.35992118890795
20
-37.217430776835734
30
0
40
0.50000000000000711
210
-0
220
0
230
1
100
AcDbArc
50
-90
51
0
0
LINE
5
21F
100
AcDbEntity
8
CUTOUTS
100
AcDbLine
10
-155.35992118890795
20
-37.717430776835741
30
0
11
-168.35992118890798
21
-37.717430776835741
31
0
0
ARC
5
220
100
AcDbEntity
8
CUTOUTS
100
AcDbCircle
10
-168.35992118890798
20
-37.217430776835755
30
0
40
0.50000000000000711
210
0
220
0
230
1
100
AcDbArc
50
180
51
270
0
LINE
5
221
100
AcDbEntity
8
CUTOUTS
100
AcDbLine
10
-168.85992118890795
20
-37.217430776835734
30
0
11
-168.85992118890795
21
-24.217430776835727
31
0
0
ARC
5
222
100
AcDbEntity
8
CUTOUTS
100
AcDbCircle
10
-168.35992118890798
20
-24.217430776835727
30
0
40
0.50000000000000711
210
0
220
-0
230
1
100
AcDbArc
50
90
51
180
0
LINE
5
223
100
AcDbEntity
8
CUTOUTS
100
AcDbLine
10
170.37132881109198
20
37.338819223164286
30
0
11
120.27132881109218
21
37.338819223164151
31
0
0
ARC
5
224
100
AcDbEntity
8
CUTOUTS
100
AcDbCircle
10
120.27132881109213
20
38.338819223164215
30
0
40
1.0000000000000586
210
0
220
0
230
1
100
AcDbArc
50
90.000000000001634
51
270.00000000000244
0
LINE
5
225
100
AcDbEntity
8
CUTOUTS
100
AcDbLine
10
120.2713288110921
20
39.338819223164272
30
0
11
170.37132881109198
21
39.338819223164265
31
0
0
ARC
5
226
100
AcDbEntity
8
CUTOUTS
100
AcDbCircle
10
170.37132881109198
20
38.338819223164279
30
0
40
0.99999999999998757
210
-0
220
0
230
1
100
AcDbArc
50
-90
51
90
0
LINE
5
227
100
AcDbEntity
8
CUTOUTS
100
AcDbLine
10
138.32132881109203
20
-37.217430776835734
30
0
11
138.32132881109203
21
-24.217430776835727
31
0
0
ARC
5
228
100
AcDbEntity
8
CUTOUTS
100
AcDbCircle
10
138.82132881109203
20
-24.217430776835709
30
0
40
0.49999999999998934
210
0
220
-0
230
1
100
AcDbArc
50
90
51
180
0
LINE
5
229
100
AcDbEntity
8
CUTOUTS
100
AcDbLine
10
138.82132881109203
20
-23.71743077683572
30
0
11
151.821328811092
21
-23.717430776835684
31
0
0
ARC
5
22A
100
AcDbEntity
8
CUTOUTS
100
AcDbCircle
10
151.821328811092
20
-24.217430776835727
30
0
40
0.50000000000004263
210
0
220
-0
230
1
100
AcDbArc
50
0
51
90
0
LINE
5
22B
100
AcDbEntity
8
CUTOUTS
100
AcDbLine
10
152.32132881109206
20
-24.217430776835727
30
0
11
152.32132881109206
21
-37.217430776835734
31
0
0
ARC
5
22C
100
AcDbEntity
8
CUTOUTS
100
AcDbCircle
10
151.82132881109209
20
-37.217430776835734
30
0
40
0.50000000000000711
210
0
220
0
230
1
100
AcDbArc
50
-90.000000000009777
51
0
0
LINE
5
22D
100
AcDbEntity
8
CUTOUTS
100
AcDbLine
10
151.821328811092
20
-37.717430776835741
30
0
11
138.82132881109203
21
-37.717430776835741
31
0
0
ARC
5
22E
100
AcDbEntity
8
CUTOUTS
100
AcDbCircle
10
138.82132881109203
20
-37.217430776835755
30
0
40
0.50000000000000711
210
0
220
0
230
1
100
AcDbArc
50
180
51
270
0
LINE
5
22F
100
AcDbEntity
8
CUTOUTS
100
AcDbLine
10
61.333828811092062
20
0.38256922316426412
30
0
11
48.333828811092054
21
0.38256922316428188
31
0
0
ARC
5
230
100
AcDbEntity
8
CUTOUTS
100
AcDbCircle
10
48.333828811092019
20
0.88256922316425346
30
0
40
0.49999999999997158
210
0
220
0
230
1
100
AcDbArc
50
180
51
270.00000000000409
0
LINE
5
231
100
AcDbEntity
8
CUTOUTS
100
AcDbLine
10
47.833828811092047
20
0.88256922316426234
30
0
11
47.833828811092083
21
13.882569223164269
31
0
0
ARC
5
232
100
AcDbEntity
8
CUTOUTS
100
AcDbCircle
10
48.333828811092125
20
13.882569223164216
30
0
40
0.50000000000005151
210
0
220
0
230
1
100
AcDbArc
50
90.000000000008143
51
180
0
LINE
5
233
100
AcDbEntity
8
CUTOUTS
100
AcDbLine
10
48.333828811092054
20
14.382569223164268
30
0
11
61.333828811092062
21
14.382569223164268
31
0
0
ARC
5
234
100
AcDbEntity
8
CUTOUTS
100
AcDbCircle
10
61.333828811092097
20
13.882569223164296
30
0
40
0.49999999999997158
210
-0
220
0
230
1
100
AcDbArc
50
0
51
90.000000000004079
0
LINE
5
235
100
AcDbEntity
8
CUTOUTS
100
AcDbLine
10
61.833828811092069
20
13.882569223164269
30
0
11
61.833828811092104
21
0.88256922316426234
31
0
0
ARC
5
236
100
AcDbEntity
8
CUTOUTS
100
AcDbCircle
10
61.333828811092062
20
0.88256922316429787
30
0
40
0.50000000000003375
210
-0
220
0
230
1
100
AcDbArc
50
270
51
360
0
LINE
5
237
100
AcDbEntity
8
CUTOUTS
100
AcDbLine
10
43.071328811092044
20
-56.267430776835724
30
0
11
43.07132881109208
21
-43.267430776835738
31
0
0
ARC
5
238
100
AcDbEntity
8
CUTOUTS
100
AcDbCircle
10
43.571328811092052
20
-43.267430776835724
30
0
40
0.49999999999998934
210
0
220
-0
230
1
100
AcDbArc
50
90
51
180
0
LINE
5
239
100
AcDbEntity
8
CUTOUTS
100
AcDbLine
10
43.571328811092052
20
-42.767430776835731
30
0
11
58.95257881109206
21
-42.767430776835731
31
0
0
ARC
5
23A
100
AcDbEntity
8
CUTOUTS
100
AcDbCircle
10
58.95257881109206
20
-43.267430776835724
30
0
40
0.50000000000000711
210
-0
220
0
230
1
100
AcDbArc
50
0
51
90
0
LINE
5
23B
100
AcDbEntity
8
CUTOUTS
100
AcDbLine
10
59.452578811092067
20
-43.267430776835738
30
0
11
59.452578811092067
21
-56.267430776835724
31
0
0
ARC
5
23C
100
AcDbEntity
8
CUTOUTS
100
AcDbCircle
10
58.95257881109206
20
-56.26743077683571
30
0
40
0.50000000000002487
210
-0
220
0
230
1
100
AcDbArc
50
270
51
360
0
LINE
5
23D
100
AcDbEntity
8
CUTOUTS
100
AcDbLine
10
58.95257881109206
20
-56.767430776835738
30
0
11
43.571328811092052
21
-56.767430776835738
31
0
0
ARC
5
23E
100
AcDbEntity
8
CUTOUTS
100
AcDbCircle
10
43.571328811092052
20
-56.26743077683571
30
0
40
0.50000000000000711
210
0
220
0
230
1
100
AcDbArc
50
180
51
270
0
LINE
5
23F
100
AcDbEntity
8
CUTOUTS
100
AcDbLine
10
9.4463288110920729
20
-5.167430776835733
30
0
11
9.4463288110920729
21
-18.167430776835729
31
0
0
ARC
5
240
100
AcDbEntity
8
CUTOUTS
100
AcDbCircle
10
8.9463288110919947
20
-18.16743077683568
30
0
40
0.50000000000005151
210
-0
220
0
230
1
100
AcDbArc
50
270.00000000000813
51
360
0
LINE
5
241
100
AcDbEntity
8
CUTOUTS
100
AcDbLine
10
8.9463288110920658
20
-18.667430776835729
30
0
11
-4.0536711889079413
21
-18.667430776835737
31
0
0
ARC
5
242
100
AcDbEntity
8
CUTOUTS
100
AcDbCircle
10
-4.0536711889079768
20
-18.167430776835758
30
0
40
0.49999999999997158
210
0
220
0
230
1
100
AcDbArc
50
180
51
270.00000000000409
0
LINE
5
243
100
AcDbEntity
8
CUTOUTS
100
AcDbLine
10
-4.5536711889079484
20
-18.167430776835729
30
0
11
-4.5536711889079839
21
-5.167430776835733
31
0
0
ARC
5
244
100
AcDbEntity
8
CUTOUTS
100
AcDbCircle
10
-4.0536711889079413
20
-5.1674307768357686
30
0
40
0.50000000000003375
210
0
220
-0
230
1
100
AcDbArc
50
90
51
180
0
LINE
5
245
100
AcDbEntity
8
CUTOUTS
100
AcDbLine
10
-4.0536711889079413
20
-4.6674307768357348
30
0
11
8.9463288110920658
21
-4.6674307768357348
31
0
0
ARC
5
246
100
AcDbEntity
8
CUTOUTS
100
AcDbCircle
10
8.9463288110921013
20
-5.1674307768357153
30
0
40
0.49999999999997158
210
-0
220
0
230
1
100
AcDbArc
50
0
51
90.000000000004079
0
LINE
5
247
100
AcDbEntity
8
CUTOUTS
100
AcDbLine
10
-157.24117118890797
20
56.745069223164265
30
0
11
-157.24117118890797
21
43.745069223164279
31
0
0
ARC
5
248
100
AcDbEntity
8
CUTOUTS
100
AcDbCircle
10
-157.74117118890797
20
43.745069223164272
30
0
40
0.49999999999999822
210
-0
220
0
230
1
100
AcDbArc
50
-90
51
0
0
LINE
5
249
100
AcDbEntity
8
CUTOUTS
100
AcDbLine
10
-157.74117118890797
20
43.245069223164272
30
0
11
-170.74117118890797
21
43.245069223164272
31
0
0
ARC
5
24A
100
AcDbEntity
8
CUTOUTS
100
AcDbCircle
10
-170.74117118890797
20
43.745069223164272
30
0
40
0.50000000000000711
210
0
220
0
230
1
100
AcDbArc
50
180
51
270
0
LINE
5
24B
100
AcDbEntity
8
CUTOUTS
100
AcDbLine
10
-171.24117118890794
20
43.745069223164272
30
0
11
-171.24117118890794
21
56.745069223164265
31
0
0
ARC
5
24C
100
AcDbEntity
8
CUTOUTS
100
AcDbCircle
10
-170.74117118890797
20
56.745069223164265
30
0
40
0.49999999999999822
210
0
220
-0
230
1
100
AcDbArc
50
90
51
180
0
LINE
5
24D
100
AcDbEntity
8
CUTOUTS
100
AcDbLine
10
-170.74117118890797
20
57.245069223164265
30
0
11
-157.74117118890797
21
57.245069223164279
31
0
0
ARC
5
24E
100
AcDbEntity
8
CUTOUTS
100
AcDbCircle
10
-157.74117118890797
20
56.745069223164265
30
0
40
0.50000000000000711
210
0
220
0
230
1
100
AcDbArc
50
0
51
90
0
LINE
5
24F
100
AcDbEntity
8
CUTOUTS
100
AcDbLine
10
51.808828811092056
20
19.432569223164265
30
0
11
38.808828811092049
21
19.432569223164258
31
0
0
ARC
5
250
100
AcDbEntity
8
CUTOUTS
100
AcDbCircle
10
38.808828811092049
20
19.932569223164261
30
0
40
0.50000000000000711
210
0
220
0
230
1
100
AcDbArc
50
180
51
270
0
LINE
5
251
100
AcDbEntity
8
CUTOUTS
100
AcDbLine
10
38.308828811092042
20
19.932569223164265
30
0
11
38.308828811092042
21
32.932569223164272
31
0
0
ARC
5
252
100
AcDbEntity
8
CUTOUTS
100
AcDbCircle
10
38.808828811092084
20
32.932569223164222
30
0
40
0.50000000000004707
210
0
220
0
230
1
100
AcDbArc
50
90.000000000004079
51
180
0
LINE
5
253
100
AcDbEntity
8
CUTOUTS
100
AcDbLine
10
38.808828811092049
20
33.432569223164272
30
0
11
51.808828811092056
21
33.432569223164272
31
0
0
ARC
5
254
100
AcDbEntity
8
CUTOUTS
100
AcDbCircle
10
51.808828811092091
20
32.9325692231643
30
0
40
0.49999999999997158
210
-0
220
0
230
1
100
AcDbArc
50
0
51
90.000000000004079
0
LINE
5
255
100
AcDbEntity
8
CUTOUTS
100
AcDbLine
10
52.308828811092063
20
32.932569223164272
30
0
11
52.308828811092063
21
19.932569223164265
31
0
0
ARC
5
256
100
AcDbEntity
8
CUTOUTS
100
AcDbCircle
10
51.808828811092091
20
19.932569223164233
30
0
40
0.49999999999996714
210
0
220
0
230
1
100
AcDbArc
50
-90.000000000004079
51
0
0
ARC
5
257
100
AcDbEntity
8
CUTOUTS
100
AcDbCircle
10
66.096328811092093
20
56.745069223164307
30
0
40
0.49999999999997158
210
-0
220
0
230
1
100
AcDbArc
50
0
51
90.000000000003254
0
LINE
5
258
100
AcDbEntity
8
CUTOUTS
100
AcDbLine
10
53.096328811092057
20
57.245069223164265
30
0
11
66.096328811092064
21
57.245069223164279
31
0
0
ARC
5
259
100
AcDbEntity
8
CUTOUTS
100
AcDbCircle
10
53.096328811092093
20
56.745069223164222
30
0
40
0.50000000000005151
210
0
220
0
230
1
100
AcDbArc
50
90.000000000004079
51
180
0
LINE
5
25A
100
AcDbEntity
8
CUTOUTS
100
AcDbLine
10
52.596328811092086
20
43.745069223164272
30
0
11
52.59632881109205
21
56.745069223164265
31
0
0
ARC
5
25B
100
AcDbEntity
8
CUTOUTS
100
AcDbCircle
10
53.096328811092057
20
43.745069223164272
30
0
40
0.49999999999997158
210
0
220
0
230
1
100
AcDbArc
50
180
51
270
0
LINE
5
25C
100
AcDbEntity
8
CUTOUTS
100
AcDbLine
10
66.096328811092064
20
43.245069223164272
30
0
11
53.096328811092057
21
43.245069223164272
31
0
0
ARC
5
25D
100
AcDbEntity
8
CUTOUTS
100
AcDbCircle
10
66.096328811092064
20
43.745069223164293
30
0
40
0.50000000000002487
210
-0
220
0
230
1
100
AcDbArc
50
270
51
360
0
LINE
5
25E
100
AcDbEntity
8
CUTOUTS
100
AcDbLine
10
66.596328811092064
20
56.745069223164265
30
0
11
66.596328811092064
21
43.745069223164279
31
0
0
LINE
5
25F
100
AcDbEntity
8
CUTOUTS
100
AcDbLine
10
101.37182881109204
20
19.432569223164265
30
0
11
84.495828811092053
21
19.432569223164265
31
0
0
LINE
5
260
100
AcDbEntity
8
CUTOUTS
100
AcDbLine
10
84.495828811092053
20
19.432569223164265
30
0
11
84.495828811092053
21
17.932569223164272
31
0
0
ARC
5
261
100
AcDbEntity
8
CUTOUTS
100
AcDbCircle
10
83.995828811091997
20
17.932569223164325
30
0
40
0.50000000000005151
210
-0
220
0
230
1
100
AcDbArc
50
270.00000000000978
51
360
0
LINE
5
262
100
AcDbEntity
8
CUTOUTS
100
AcDbLine
10
83.995828811092082
20
17.432569223164272
30
0
11
77.995828811092053
21
17.432569223164265
31
0
0
ARC
5
263
100
AcDbEntity
8
CUTOUTS
100
AcDbCircle
10
77.995828811092025
20
17.932569223164254
30
0
40
0.49999999999997158
210
0
220
0
230
1
100
AcDbArc
50
180
51
270.00000000000324
0
LINE
5
264
100
AcDbEntity
8
CUTOUTS
100
AcDbLine
10
77.495828811092053
20
17.932569223164272
30
0
11
77.495828811092053
21
19.432569223164265
31
0
0
LINE
5
265
100
AcDbEntity
8
CUTOUTS
100
AcDbLine
10
77.495828811092053
20
19.432569223164265
30
0
11
76.908828811092064
21
19.432569223164265
31
0
0
ARC
5
266
100
AcDbEntity
8
CUTOUTS
100
AcDbCircle
10
76.908828811092064
20
19.932569223164261
30
0
40
0.50000000000000711
210
0
220
0
230
1
100
AcDbArc
50
180
51
270
0
LINE
5
267
100
AcDbEntity
8
CUTOUTS
100
AcDbLine
10
76.408828811092064
20
19.932569223164268
30
0
11
76.408828811092064
21
32.932569223164272
31
0
0
ARC
5
268
100
AcDbEntity
8
CUTOUTS
100
AcDbCircle
10
76.908828811092107
20
32.932569223164222
30
0
40
0.50000000000004707
210
0
220
0
230
1
100
AcDbArc
50
90.000000000004889
51
180
0
LINE
5
269
100
AcDbEntity
8
CUTOUTS
100
AcDbLine
10
76.908828811092064
20
33.432569223164272
30
0
11
108.95882881109209
21
33.432569223164272
31
0
0
ARC
5
26A
100
AcDbEntity
8
CUTOUTS
100
AcDbCircle
10
108.95882881109213
20
32.9325692231643
30
0
40
0.49999999999997158
210
-0
220
0
230
1
100
AcDbArc
50
0
51
90.000000000003254
0
LINE
5
26B
100
AcDbEntity
8
CUTOUTS
100
AcDbLine
10
109.4588288110921
20
32.932569223164272
30
0
11
109.4588288110921
21
19.932569223164265
31
0
0
ARC
5
26C
100
AcDbEntity
8
CUTOUTS
100
AcDbCircle
10
108.95882881109213
20
19.932569223164233
30
0
40
0.49999999999996714
210
0
220
0
230
1
100
AcDbArc
50
-90.000000000004889
51
0
0
LINE
5
26D
100
AcDbEntity
8
CUTOUTS
100
AcDbLine
10
108.95882881109209
20
19.432569223164265
30
0
11
108.37182881109203
21
19.432569223164265
31
0
0
LINE
5
26E
100
AcDbEntity
8
CUTOUTS
100
AcDbLine
10
108.37182881109203
20
19.432569223164265
30
0
11
108.37182881109203
21
17.932569223164272
31
0
0
ARC
5
26F
100
AcDbEntity
8
CUTOUTS
100
AcDbCircle
10
107.87182881109203
20
17.932569223164307
30
0
40
0.50000000000003375
210
-0
220
0
230
1
100
AcDbArc
50
270
51
360
0
LINE
5
270
100
AcDbEntity
8
CUTOUTS
100
AcDbLine
10
107.87182881109203
20
17.432569223164272
30
0
11
101.87182881109206
21
17.432569223164265
31
0
0
ARC
5
271
100
AcDbEntity
8
CUTOUTS
100
AcDbCircle
10
101.87182881109202
20
17.932569223164254
30
0
40
0.49999999999997158
210
0
220
0
230
1
100
AcDbArc
50
180
51
270.00000000000489
0
LINE
5
272
100
AcDbEntity
8
CUTOUTS
100
AcDbLine
10
101.37182881109204
20
17.932569223164272
30
0
11
101.37182881109204
21
19.432569223164265
31
0
0
ARC
5
273
100
AcDbEntity
8
CUTOUTS
100
AcDbCircle
10
32.75882881109208
20
32.932569223164279
30
0
40
0.49999999999997158
210
-0
220
0
230
1
100
AcDbArc
50
0
51
90
0
LINE
5
274
100
AcDbEntity
8
CUTOUTS
100
AcDbLine
10
19.758828811092073
20
33.432569223164272
30
0
11
32.75882881109208
21
33.432569223164272
31
0
0
ARC
5
275
100
AcDbEntity
8
CUTOUTS
100
AcDbCircle
10
19.758828811092073
20
32.932569223164244
30
0
40
0.50000000000002931
210
0
220
-0
230
1
100
AcDbArc
50
90
51
180
0
LINE
5
276
100
AcDbEntity
8
CUTOUTS
100
AcDbLine
10
19.258828811092066
20
19.932569223164268
30
0
11
19.25882881109203
21
32.932569223164272
31
0
0
ARC
5
277
100
AcDbEntity
8
CUTOUTS
100
AcDbCircle
10
19.758828811092073
20
19.932569223164244
30
0
40
0.50000000000000711
210
0
220
0
230
1
100
AcDbArc
50
180
51
270
0
LINE
5
278
100
AcDbEntity
8
CUTOUTS
100
AcDbLine
10
32.75882881109208
20
19.432569223164265
30
0
11
19.758828811092073
21
19.432569223164258
31
0
0
ARC
5
279
100
AcDbEntity
8
CUTOUTS
100
AcDbCircle
10
32.758828811092116
20
19.932569223164251
30
0
40
0.4999999999999849
210
0
220
0
230
1
100
AcDbArc
50
-90.000000000004079
51
0
0
LINE
5
27A
100
AcDbEntity
8
CUTOUTS
100
AcDbLine
10
33.258828811092052
20
32.932569223164272
30
0
11
33.258828811092052
21
19.932569223164265
31
0
0
LINE
5
27B
100
AcDbEntity
8
CUTOUTS
100
AcDbLine
10
-109.32867118890795
20
43.745069223164272
30
0
11
-109.32867118890795
21
56.745069223164265
31
0
0
ARC
5
27C
100
AcDbEntity
8
CUTOUTS
100
AcDbCircle
10
-108.82867118890795
20
56.745069223164279
30
0
40
0.49999999999999822
210
0
220
-0
230
1
100
AcDbArc
50
90
51
180
0
LINE
5
27D
100
AcDbEntity
8
CUTOUTS
100
AcDbLine
10
-108.82867118890795
20
57.245069223164265
30
0
11
-95.828671188907961
21
57.245069223164279
31
0
0
ARC
5
27E
100
AcDbEntity
8
CUTOUTS
100
AcDbCircle
10
-95.828671188907961
20
56.745069223164265
30
0
40
0.50000000000000711
210
0
220
0
230
1
100
AcDbArc
50
0
51
90
0
LINE
5
27F
100
AcDbEntity
8
CUTOUTS
100
AcDbLine
10
-95.328671188907947
20
56.745069223164265
30
0
11
-95.328671188907947
21
43.745069223164279
31
0
0
ARC
5
280
100
AcDbEntity
8
CUTOUTS
100
AcDbCircle
10
-95.828671188907961
20
43.745069223164272
30
0
40
0.49999999999999822
210
-0
220
0
230
1
100
AcDbArc
50
-90
51
0
0
LINE
5
281
100
AcDbEntity
8
CUTOUTS
100
AcDbLine
10
-95.828671188907961
20
43.245069223164272
30
0
11
-108.82867118890798
21
43.245069223164272
31
0
0
ARC
5
282
100
AcDbEntity
8
CUTOUTS
100
AcDbCircle
10
-108.82867118890795
20
43.745069223164265
30
0
40
0.49999999999998934
210
0
220
0
230
1
100
AcDbArc
50
180
51
270
0
LINE
5
283
100
AcDbEntity
8
CUTOUTS
100
AcDbLine
10
-96.297421188907961
20
-55.267430776835731
30
0
11
-96.297421188907975
21
-41.26743077683571
31
0
0
ARC
5
284
100
AcDbEntity
8
CUTOUTS
100
AcDbCircle
10
-95.797421188907947
20
-41.267430776835745
30
0
40
0.50000000000002487
210
0
220
-0
230
1
100
AcDbArc
50
90
51
180
0
LINE
5
285
100
AcDbEntity
8
CUTOUTS
100
AcDbLine
10
-95.797421188907947
20
-40.767430776835724
30
0
11
-85.041171188907953
21
-40.767430776835724
31
0
0
ARC
5
286
100
AcDbEntity
8
CUTOUTS
100
AcDbCircle
10
-85.041171188907981
20
-41.267430776835766
30
0
40
0.50000000000004263
210
0
220
-0
230
1
100
AcDbArc
50
0
51
89.999999999996746
0
LINE
5
287
100
AcDbEntity
8
CUTOUTS
100
AcDbLine
10
-84.541171188907938
20
-41.267430776835724
30
0
11
-84.541171188907953
21
-55.267430776835731
31
0
0
ARC
5
288
100
AcDbEntity
8
CUTOUTS
100
AcDbCircle
10
-85.041171188907924
20
-55.267430776835766
30
0
40
0.49999999999995381
210
0
220
0
230
1
100
AcDbArc
50
-90.000000000003254
51
0
0
LINE
5
289
100
AcDbEntity
8
CUTOUTS
100
AcDbLine
10
-85.041171188907953
20
-55.767430776835724
30
0
11
-95.797421188907947
21
-55.767430776835738
31
0
0
ARC
5
28A
100
AcDbEntity
8
CUTOUTS
100
AcDbCircle
10
-95.797421188907947
20
-55.267430776835752
30
0
40
0.50000000000000711
210
0
220
0
230
1
100
AcDbArc
50
180
51
270
0
LINE
5
28B
100
AcDbEntity
8
CUTOUTS
100
AcDbLine
10
-104.85367118890795
20
-5.167430776835733
30
0
11
-104.85367118890795
21
-18.167430776835729
31
0
0
ARC
5
28C
100
AcDbEntity
8
CUTOUTS
100
AcDbCircle
10
-105.35367118890797
20
-18.167430776835729
30
0
40
0.49999999999999822
210
-0
220
0
230
1
100
AcDbArc
50
-90
51
0
0
LINE
5
28D
100
AcDbEntity
8
CUTOUTS
100
AcDbLine
10
-105.35367118890797
20
-18.667430776835729
30
0
11
-118.35367118890795
21
-18.667430776835729
31
0
0
ARC
5
28E
100
AcDbEntity
8
CUTOUTS
100
AcDbCircle
10
-118.35367118890794
20
-18.167430776835729
30
0
40
0.50000000000000711
210
0
220
0
230
1
100
AcDbArc
50
180
51
270
0
LINE
5
28F
100
AcDbEntity
8
CUTOUTS
100
AcDbLine
10
-118.85367118890795
20
-18.167430776835729
30
0
11
-118.85367118890795
21
-5.167430776835733
31
0
0
ARC
5
290
100
AcDbEntity
8
CUTOUTS
100
AcDbCircle
10
-118.35367118890794
20
-5.167430776835733
30
0
40
0.49999999999999822
210
0
220
-0
230
1
100
AcDbArc
50
90
51
180
0
LINE
5
291
100
AcDbEntity
8
CUTOUTS
100
AcDbLine
10
-118.35367118890794
20
-4.6674307768357348
30
0
11
-105.35367118890795
21
-4.6674307768357348
31
0
0
ARC
5
292
100
AcDbEntity
8
CUTOUTS
100
AcDbCircle
10
-105.35367118890797
20
-5.167430776835733
30
0
40
0.50000000000000711
210
0
220
-0
230
1
100
AcDbArc
50
0
51
90
0
LINE
5
293
100
AcDbEntity
8
CUTOUTS
100
AcDbLine
10
171.37132881109198
20
13.882569223164269
30
0
11
171.37132881109198
21
0.88256922316426234
31
0
0
ARC
5
294
100
AcDbEntity
8
CUTOUTS
100
AcDbCircle
10
170.8713288110921
20
0.88256922316415576
30
0
40
0.49999999999989164
210
0
220
0
230
1
100
AcDbArc
50
-90.000000000009777
51
0
0
LINE
5
295
100
AcDbEntity
8
CUTOUTS
100
AcDbLine
10
170.87132881109201
20
0.38256922316426412
30
0
11
157.87132881109204
21
0.38256922316426412
31
0
0
ARC
5
296
100
AcDbEntity
8
CUTOUTS
100
AcDbCircle
10
157.87132881109213
20
0.88256922316431563
30
0
40
0.50000000000004263
210
0
220
0
230
1
100
AcDbArc
50
180
51
269.99999999999022
0
LINE
5
297
100
AcDbEntity
8
CUTOUTS
100
AcDbLine
10
157.37132881109207
20
0.88256922316426234
30
0
11
157.37132881109207
21
13.882569223164269
31
0
0
ARC
5
298
100
AcDbEntity
8
CUTOUTS
100
AcDbCircle
10
157.87132881109198
20
13.882569223164376
30
0
40
0.49999999999989164
210
0
220
-0
230
1
100
AcDbArc
50
89.999999999993491
51
180
0
LINE
5
299
100
AcDbEntity
8
CUTOUTS
100
AcDbLine
10
157.87132881109204
20
14.382569223164268
30
0
11
170.87132881109201
21
14.382569223164268
31
0
0
ARC
5
29A
100
AcDbEntity
8
CUTOUTS
100
AcDbCircle
10
170.87132881109196
20
13.882569223164216
30
0
40
0.50000000000004263
210
0
220
-0
230
1
100
AcDbArc
50
0
51
89.999999999990237
0
ARC
5
29B
100
AcDbEntity
8
CUTOUTS
100
AcDbCircle
10
-133.92867118890794
20
-24.217430776835709
30
0
40
0.50000000000000711
210
-0
220
0
230
1
100
AcDbArc
50
0
51
90
0
LINE
5
29C
100
AcDbEntity
8
CUTOUTS
100
AcDbLine
10
-146.92867118890797
20
-23.717430776835737
30
0
11
-133.92867118890794
21
-23.71743077683572
31
0
0
ARC
5
29D
100
AcDbEntity
8
CUTOUTS
100
AcDbCircle
10
-146.92867118890797
20
-24.217430776835709
30
0
40
0.49999999999997158
210
0
220
-0
230
1
100
AcDbArc
50
90
51
180
0
LINE
5
29E
100
AcDbEntity
8
CUTOUTS
100
AcDbLine
10
-147.42867118890797
20
-37.217430776835734
30
0
11
-147.42867118890794
21
-24.217430776835727
31
0
0
ARC
5
29F
100
AcDbEntity
8
CUTOUTS
100
AcDbCircle
10
-146.92867118890797
20
-37.217430776835755
30
0
40
0.50000000000000711
210
0
220
0
230
1
100
AcDbArc
50
180
51
270
0
LINE
5
2A0
100
AcDbEntity
8
CUTOUTS
100
AcDbLine
10
-133.92867118890794
20
-37.717430776835741
30
0
11
-146.92867118890797
21
-37.717430776835741
31
0
0
ARC
5
2A1
100
AcDbEntity
8
CUTOUTS
100
AcDbCircle
10
-133.92867118890794
20
-37.217430776835734
30
0
40
0.50000000000000711
210
-0
220
0
230
1
100
AcDbArc
50
-90
51
0
0
LINE
5
2A2
100
AcDbEntity
8
CUTOUTS
100
AcDbLine
10
-133.42867118890794
20
-24.217430776835727
30
0
11
-133.42867118890794
21
-37.217430776835734
31
0
0
ARC
5
2A3
100
AcDbEntity
8
CUTOUTS
100
AcDbCircle
10
-38.678671188907963
20
-24.217430776835744
30
0
40
0.50000000000002487
210
0
220
-0
230
1
100
AcDbArc
50
0
51
89.999999999997556
0
LINE
5
2A4
100
AcDbEntity
8
CUTOUTS
100
AcDbLine
10
-51.678671188907934
20
-23.717430776835737
30
0
11
-38.678671188907941
21
-23.71743077683572
31
0
0
ARC
5
2A5
100
AcDbEntity
8
CUTOUTS
100
AcDbCircle
10
-51.67867118890797
20
-24.217430776835691
30
0
40
0.49999999999995381
210
0
220
-0
230
1
100
AcDbArc
50
89.999999999995936
51
180
0
LINE
5
2A6
100
AcDbEntity
8
CUTOUTS
100
AcDbLine
10
-52.178671188907941
20
-37.217430776835734
30
0
11
-52.178671188907927
21
-24.217430776835727
31
0
0
ARC
5
2A7
100
AcDbEntity
8
CUTOUTS
100
AcDbCircle
10
-51.678671188907934
20
-37.217430776835734
30
0
40
0.50000000000000711
210
0
220
0
230
1
100
AcDbArc
50
180
51
270
0
LINE
5
2A8
100
AcDbEntity
8
CUTOUTS
100
AcDbLine
10
-38.678671188907941
20
-37.717430776835741
30
0
11
-51.678671188907934
21
-37.717430776835741
31
0
0
ARC
5
2A9
100
AcDbEntity
8
CUTOUTS
100
AcDbCircle
10
-38.678671188907963
20
-37.217430776835712
30
0
40
0.50000000000002487
210
-0
220
0
230
1
100
AcDbArc
50
270.00000000000244
51
360
0
LINE
5
2AA
100
AcDbEntity
8
CUTOUTS
100
AcDbLine
10
-38.178671188907941
20
-24.217430776835727
30
0
11
-38.178671188907941
21
-37.217430776835734
31
0
0
LINE
5
2AB
100
AcDbEntity
8
CUTOUTS
100
AcDbLine
10
-57.728671188907953
20
-37.717430776835741
30
0
11
-70.728671188907953
21
-37.717430776835741
31
0
0
ARC
5
2AC
100
AcDbEntity
8
CUTOUTS
100
AcDbCircle
10
-70.728671188907953
20
-37.217430776835734
30
0
40
0.50000000000000711
210
0
220
0
230
1
100
AcDbArc
50
180
51
270
0
LINE
5
2AD
100
AcDbEntity
8
CUTOUTS
100
AcDbLine
10
-71.228671188907953
20
-37.217430776835734
30
0
11
-71.228671188907938
21
-24.217430776835727
31
0
0
ARC
5
2AE
100
AcDbEntity
8
CUTOUTS
100
AcDbCircle
10
-70.728671188907981
20
-24.217430776835691
30
0
40
0.49999999999995381
210
0
220
-0
230
1
100
AcDbArc
50
89.999999999996746
51
180
0
LINE
5
2AF
100
AcDbEntity
8
CUTOUTS
100
AcDbLine
10
-70.728671188907953
20
-23.717430776835737
30
0
11
-57.728671188907953
21
-23.71743077683572
31
0
0
ARC
5
2B0
100
AcDbEntity
8
CUTOUTS
100
AcDbCircle
10
-57.728671188907974
20
-24.217430776835744
30
0
40
0.50000000000002487
210
0
220
-0
230
1
100
AcDbArc
50
0
51
89.999999999997556
0
LINE
5
2B1
100
AcDbEntity
8
CUTOUTS
100
AcDbLine
10
-57.228671188907953
20
-24.217430776835727
30
0
11
-57.228671188907953
21
-37.217430776835734
31
0
0
ARC
5
2B2
100
AcDbEntity
8
CUTOUTS
100
AcDbCircle
10
-57.728671188907974
20
-37.217430776835712
30
0
40
0.50000000000002487
210
-0
220
0
230
1
100
AcDbArc
50
270.00000000000244
51
360
0
LINE
5
2B3
100
AcDbEntity
8
CUTOUTS
100
AcDbLine
10
-33.416171188907953
20
56.745069223164265
30
0
11
-33.416171188907953
21
43.745069223164279
31
0
0
ARC
5
2B4
100
AcDbEntity
8
CUTOUTS
100
AcDbCircle
10
-33.916171188907938
20
43.745069223164272
30
0
40
0.49999999999999822
210
0
220
0
230
1
100
AcDbArc
50
-90.000000000002444
51
0
0
LINE
5
2B5
100
AcDbEntity
8
CUTOUTS
100
AcDbLine
10
-33.91617118890796
20
43.245069223164272
30
0
11
-46.916171188907953
21
43.245069223164272
31
0
0
ARC
5
2B6
100
AcDbEntity
8
CUTOUTS
100
AcDbCircle
10
-46.916171188907931
20
43.745069223164286
30
0
40
0.50000000000002487
210
0
220
0
230
1
100
AcDbArc
50
180
51
269.99999999999756
0
LINE
5
2B7
100
AcDbEntity
8
CUTOUTS
100
AcDbLine
10
-47.416171188907953
20
43.745069223164272
30
0
11
-47.416171188907953
21
56.745069223164265
31
0
0
ARC
5
2B8
100
AcDbEntity
8
CUTOUTS
100
AcDbCircle
10
-46.916171188907931
20
56.745069223164251
30
0
40
0.50000000000001599
210
0
220
0
230
1
100
AcDbArc
50
90.000000000002444
51
180
0
LINE
5
2B9
100
AcDbEntity
8
CUTOUTS
100
AcDbLine
10
-46.916171188907953
20
57.245069223164265
30
0
11
-33.91617118890796
21
57.245069223164279
31
0
0
ARC
5
2BA
100
AcDbEntity
8
CUTOUTS
100
AcDbCircle
10
-33.91617118890796
20
56.745069223164265
30
0
40
0.50000000000000711
210
0
220
0
230
1
100
AcDbArc
50
0
51
90
0
ARC
5
2BB
100
AcDbEntity
8
CUTOUTS
100
AcDbCircle
10
-137.40367118890794
20
-5.167430776835733
30
0
40
0.49999999999999822
210
0
220
-0
230
1
100
AcDbArc
50
90
51
180
0
LINE
5
2BC
100
AcDbEntity
8
CUTOUTS
100
AcDbLine
10
-137.90367118890796
20
-18.167430776835729
30
0
11
-137.90367118890796
21
-5.167430776835733
31
0
0
ARC
5
2BD
100
AcDbEntity
8
CUTOUTS
100
AcDbCircle
10
-137.40367118890794
20
-18.167430776835729
30
0
40
0.50000000000000711
210
0
220
0
230
1
100
AcDbArc
50
180
51
270
0
LINE
5
2BE
100
AcDbEntity
8
CUTOUTS
100
AcDbLine
10
-124.40367118890794
20
-18.667430776835729
30
0
11
-137.40367118890794
21
-18.667430776835729
31
0
0
ARC
5
2BF
100
AcDbEntity
8
CUTOUTS
100
AcDbCircle
10
-124.40367118890794
20
-18.167430776835729
30
0
40
0.49999999999999822
210
-0
220
0
230
1
100
AcDbArc
50
-90
51
0
0
LINE
5
2C0
100
AcDbEntity
8
CUTOUTS
100
AcDbLine
10
-123.90367118890795
20
-5.167430776835733
30
0
11
-123.90367118890795
21
-18.167430776835729
31
0
0
ARC
5
2C1
100
AcDbEntity
8
CUTOUTS
100
AcDbCircle
10
-124.40367118890794
20
-5.167430776835733
30
0
40
0.50000000000000711
210
0
220
-0
230
1
100
AcDbArc
50
0
51
90
0
LINE
5
2C2
100
AcDbEntity
8
CUTOUTS
100
AcDbLine
10
-137.40367118890794
20
-4.6674307768357348
30
0
11
-124.40367118890794
21
-4.6674307768357348
31
0
0
LINE
5
2C3
100
AcDbEntity
8
CUTOUTS
100
AcDbLine
10
-109.32867118890795
20
-37.217430776835734
30
0
11
-109.32867118890796
21
-24.217430776835727
31
0
0
ARC
5
2C4
100
AcDbEntity
8
CUTOUTS
100
AcDbCircle
10
-108.82867118890798
20
-24.217430776835727
30
0
40
0.50000000000000711
210
0
220
-0
230
1
100
AcDbArc
50
90
51
180
0
LINE
5
2C5
100
AcDbEntity
8
CUTOUTS
100
AcDbLine
10
-108.82867118890795
20
-23.71743077683572
30
0
11
-95.828671188907961
21
-23.71743077683572
31
0
0
ARC
5
2C6
100
AcDbEntity
8
CUTOUTS
100
AcDbCircle
10
-95.828671188907961
20
-24.217430776835727
30
0
40
0.50000000000000711
210
0
220
-0
230
1
100
AcDbArc
50
0
51
89.99999999999838
0
LINE
5
2C7
100
AcDbEntity
8
CUTOUTS
100
AcDbLine
10
-95.328671188907947
20
-24.217430776835727
30
0
11
-95.328671188907947
21
-37.217430776835734
31
0
0
ARC
5
2C8
100
AcDbEntity
8
CUTOUTS
100
AcDbCircle
10
-95.828671188907961
20
-37.217430776835734
30
0
40
0.50000000000000711
210
-0
220
0
230
1
100
AcDbArc
50
-90
51
0
0
LINE
5
2C9
100
AcDbEntity
8
CUTOUTS
100
AcDbLine
10
-95.828671188907961
20
-37.717430776835741
30
0
11
-108.82867118890798
21
-37.717430776835741
31
0
0
ARC
5
2CA
100
AcDbEntity
8
CUTOUTS
100
AcDbCircle
10
-108.82867118890795
20
-37.217430776835755
30
0
40
0.49999999999998934
210
0
220
0
230
1
100
AcDbArc
50
180
51
270
0
LINE
5
2CB
100
AcDbEntity
8
CUTOUTS
100
AcDbLine
10
10.702578811092067
20
-41.267430776835724
30
0
11
10.702578811092032
21
-55.267430776835731
31
0
0
ARC
5
2CC
100
AcDbEntity
8
CUTOUTS
100
AcDbCircle
10
10.202578811092025
20
-55.267430776835731
30
0
40
0.49999999999998934
210
-0
220
0
230
1
100
AcDbArc
50
-89.999999999995936
51
0
0
LINE
5
2CD
100
AcDbEntity
8
CUTOUTS
100
AcDbLine
10
10.20257881109206
20
-55.767430776835724
30
0
11
4.2025788110920459
21
-55.767430776835738
31
0
0
ARC
5
2CE
100
AcDbEntity
8
CUTOUTS
100
AcDbCircle
10
4.2025788110920459
20
-55.267430776835752
30
0
40
0.50000000000000711
210
0
220
0
230
1
100
AcDbArc
50
180
51
270
0
LINE
5
2CF
100
AcDbEntity
8
CUTOUTS
100
AcDbLine
10
3.7025788110920388
20
-55.267430776835731
30
0
11
3.7025788110920033
21
-41.267430776835724
31
0
0
ARC
5
2D0
100
AcDbEntity
8
CUTOUTS
100
AcDbCircle
10
4.2025788110920459
20
-41.267430776835745
30
0
40
0.50000000000002487
210
0
220
-0
230
1
100
AcDbArc
50
90
51
180
0
LINE
5
2D1
100
AcDbEntity
8
CUTOUTS
100
AcDbLine
10
4.2025788110920459
20
-40.767430776835724
30
0
11
10.20257881109206
21
-40.767430776835724
31
0
0
ARC
5
2D2
100
AcDbEntity
8
CUTOUTS
100
AcDbCircle
10
10.20257881109206
20
-41.267430776835745
30
0
40
0.50000000000000711
210
0
220
-0
230
1
100
AcDbArc
50
0
51
90
0
LINE
5
2D3
100
AcDbEntity
8
CUTOUTS
100
AcDbLine
10
174.71350765315836
20
-67.841491403758397
30
0
11
173.35673474786543
21
-65.491491797458181
31
0
0
LINE
5
2D4
100
AcDbEntity
8
CUTOUTS
100
AcDbLine
10
173.35673474786543
20
-65.491491797458181
30
0
11
174.71350765315836
21
-63.14149219115798
31
0
0
LINE
5
2D5
100
AcDbEntity
8
CUTOUTS
100
AcDbLine
10
174.71350765315836
20
-63.14149219115798
30
0
11
177.42705346374424
21
-63.14149219115798
31
0
0
LINE
5
2D6
100
AcDbEntity
8
CUTOUTS
100
AcDbLine
10
177.42705346374424
20
-63.14149219115798
30
0
11
178.7838263690372
21
-65.491491797458195
31
0
0
LINE
5
2D7
100
AcDbEntity
8
CUTOUTS
100
AcDbLine
10
178.7838263690372
20
-65.491491797458195
30
0
11
177.42705346374424
21
-67.841491403758425
31
0
0
LINE
5
2D8
100
AcDbEntity
8
CUTOUTS
100
AcDbLine
10
177.42705346374424
20
-67.841491403758425
30
0
11
174.71350765315836
21
-67.841491403758397
31
0
0
LINE
5
2D9
100
AcDbEntity
8
CUTOUTS
100
AcDbLine
10
-76.278671188907936
20
56.745069223164265
30
0
11
-76.278671188907936
21
43.745069223164279
31
0
0
ARC
5
2DA
100
AcDbEntity
8
CUTOUTS
100
AcDbCircle
10
-76.778671188907936
20
43.745069223164272
30
0
40
0.49999999999999822
210
0
220
0
230
1
100
AcDbArc
50
-90.000000000001634
51
0
0
LINE
5
2DB
100
AcDbEntity
8
CUTOUTS
100
AcDbLine
10
-76.77867118890795
20
43.245069223164272
30
0
11
-89.778671188907964
21
43.245069223164272
31
0
0
ARC
5
2DC
100
AcDbEntity
8
CUTOUTS
100
AcDbCircle
10
-89.778671188907978
20
43.745069223164251
30
0
40
0.49999999999997158
210
0
220
0
230
1
100
AcDbArc
50
180
51
270.00000000000159
0
LINE
5
2DD
100
AcDbEntity
8
CUTOUTS
100
AcDbLine
10
-90.27867118890795
20
43.745069223164272
30
0
11
-90.278671188907978
21
56.745069223164265
31
0
0
ARC
5
2DE
100
AcDbEntity
8
CUTOUTS
100
AcDbCircle
10
-89.778671188907978
20
56.745069223164265
30
0
40
0.49999999999999822
210
0
220
-0
230
1
100
AcDbArc
50
89.99999999999838
51
180
0
LINE
5
2DF
100
AcDbEntity
8
CUTOUTS
100
AcDbLine
10
-89.778671188907964
20
57.245069223164265
30
0
11
-76.77867118890795
21
57.245069223164279
31
0
0
ARC
5
2E0
100
AcDbEntity
8
CUTOUTS
100
AcDbCircle
10
-76.77867118890795
20
56.745069223164265
30
0
40
0.50000000000000711
210
0
220
0
230
1
100
AcDbArc
50
0
51
90
0
LINE
5
2E1
100
AcDbEntity
8
CUTOUTS
100
AcDbLine
10
-120.73492118890795
20
-42.767430776835731
30
0
11
-105.35367118890795
21
-42.767430776835731
31
0
0
ARC
5
2E2
100
AcDbEntity
8
CUTOUTS
100
AcDbCircle
10
-105.35367118890797
20
-43.267430776835738
30
0
40
0.50000000000000711
210
0
220
-0
230
1
100
AcDbArc
50
0
51
89.99999999999838
0
LINE
5
2E3
100
AcDbEntity
8
CUTOUTS
100
AcDbLine
10
-104.85367118890795
20
-43.267430776835738
30
0
11
-104.85367118890795
21
-56.267430776835724
31
0
0
ARC
5
2E4
100
AcDbEntity
8
CUTOUTS
100
AcDbCircle
10
-105.35367118890797
20
-56.26743077683571
30
0
40
0.50000000000002487
210
-0
220
0
230
1
100
AcDbArc
50
270.00000000000159
51
360
0
LINE
5
2E5
100
AcDbEntity
8
CUTOUTS
100
AcDbLine
10
-105.35367118890797
20
-56.767430776835738
30
0
11
-120.73492118890796
21
-56.767430776835717
31
0
0
ARC
5
2E6
100
AcDbEntity
8
CUTOUTS
100
AcDbCircle
10
-120.73492118890796
20
-56.267430776835724
30
0
40
0.49999999999998934
210
0
220
0
230
1
100
AcDbArc
50
180
51
270
0
LINE
5
2E7
100
AcDbEntity
8
CUTOUTS
100
AcDbLine
10
-121.23492118890795
20
-56.267430776835724
30
0
11
-121.23492118890795
21
-43.267430776835738
31
0
0
ARC
5
2E8
100
AcDbEntity
8
CUTOUTS
100
AcDbCircle
10
-120.73492118890795
20
-43.267430776835738
30
0
40
0.50000000000000711
210
0
220
-0
230
1
100
AcDbArc
50
90
51
180
0
LINE
5
2E9
100
AcDbEntity
8
CUTOUTS
100
AcDbLine
10
-67.253671188907944
20
-18.667430776835729
30
0
11
-80.253671188907958
21
-18.667430776835729
31
0
0
ARC
5
2EA
100
AcDbEntity
8
CUTOUTS
100
AcDbCircle
10
-80.253671188907973
20
-18.167430776835751
30
0
40
0.49999999999997158
210
0
220
0
230
1
100
AcDbArc
50
180
51
270.00000000000159
0
LINE
5
2EB
100
AcDbEntity
8
CUTOUTS
100
AcDbLine
10
-80.753671188907944
20
-18.167430776835729
30
0
11
-80.753671188907958
21
-5.167430776835733
31
0
0
ARC
5
2EC
100
AcDbEntity
8
CUTOUTS
100
AcDbCircle
10
-80.253671188907973
20
-5.167430776835733
30
0
40
0.49999999999999822
210
0
220
-0
230
1
100
AcDbArc
50
89.99999999999838
51
180
0
LINE
5
2ED
100
AcDbEntity
8
CUTOUTS
100
AcDbLine
10
-80.253671188907958
20
-4.6674307768357348
30
0
11
-67.253671188907944
21
-4.6674307768357259
31
0
0
ARC
5
2EE
100
AcDbEntity
8
CUTOUTS
100
AcDbCircle
10
-67.253671188907944
20
-5.1674307768357242
30
0
40
0.50000000000000711
210
-0
220
0
230
1
100
AcDbArc
50
0
51
90
0
LINE
5
2EF
100
AcDbEntity
8
CUTOUTS
100
AcDbLine
10
-66.75367118890793
20
-5.167430776835733
30
0
11
-66.75367118890793
21
-18.167430776835729
31
0
0
ARC
5
2F0
100
AcDbEntity
8
CUTOUTS
100
AcDbCircle
10
-67.253671188907944
20
-18.167430776835722
30
0
40
0.50000000000000711
210
-0
220
0
230
1
100
AcDbArc
50
270
51
360
0
LINE
5
2F1
100
AcDbEntity
8
CUTOUTS
100
AcDbLine
10
133.27132881109208
20
13.882569223164269
30
0
11
133.27132881109208
21
0.88256922316426234
31
0
0
ARC
5
2F2
100
AcDbEntity
8
CUTOUTS
100
AcDbCircle
10
132.77132881109199
20
0.88256922316431563
30
0
40
0.50000000000005151
210
-0
220
0
230
1
100
AcDbArc
50
270.00000000000978
51
360
0
LINE
5
2F3
100
AcDbEntity
8
CUTOUTS
100
AcDbLine
10
132.77132881109208
20
0.38256922316426412
30
0
11
119.7713288110921
21
0.38256922316426412
31
0
0
ARC
5
2F4
100
AcDbEntity
8
CUTOUTS
100
AcDbCircle
10
119.77132881109206
20
0.88256922316425346
30
0
40
0.49999999999997158
210
0
220
0
230
1
100
AcDbArc
50
180
51
270.00000000000489
0
LINE
5
2F5
100
AcDbEntity
8
CUTOUTS
100
AcDbLine
10
119.27132881109209
20
0.88256922316426234
30
0
11
119.27132881109213
21
13.882569223164269
31
0
0
ARC
5
2F6
100
AcDbEntity
8
CUTOUTS
100
AcDbCircle
10
119.77132881109216
20
13.882569223164216
30
0
40
0.50000000000005151
210
0
220
0
230
1
100
AcDbArc
50
90.000000000006523
51
180
0
LINE
5
2F7
100
AcDbEntity
8
CUTOUTS
100
AcDbLine
10
119.7713288110921
20
14.382569223164268
30
0
11
132.77132881109208
21
14.382569223164268
31
0
0
ARC
5
2F8
100
AcDbEntity
8
CUTOUTS
100
AcDbCircle
10
132.7713288110921
20
13.882569223164278
30
0
40
0.49999999999997158
210
-0
220
0
230
1
100
AcDbArc
50
0
51
90.000000000003254
0
ARC
5
2F9
100
AcDbEntity
8
CUTOUTS
100
AcDbCircle
10
-127.87867118890794
20
-37.217430776835734
30
0
40
0.50000000000000711
210
0
220
0
230
1
100
AcDbArc
50
180
51
269.99999999999835
0
LINE
5
2FA
100
AcDbEntity
8
CUTOUTS
100
AcDbLine
10
-114.87867118890793
20
-37.717430776835741
30
0
11
-127.87867118890794
21
-37.717430776835741
31
0
0
ARC
5
2FB
100
AcDbEntity
8
CUTOUTS
100
AcDbCircle
10
-114.87867118890793
20
-37.217430776835734
30
0
40
0.50000000000000711
210
-0
220
0
230
1
100
AcDbArc
50
-90
51
0
0
LINE
5
2FC
100
AcDbEntity
8
CUTOUTS
100
AcDbLine
10
-114.37867118890794
20
-24.217430776835727
30
0
11
-114.37867118890793
21
-37.217430776835734
31
0
0
ARC
5
2FD
100
AcDbEntity
8
CUTOUTS
100
AcDbCircle
10
-114.87867118890796
20
-24.217430776835727
30
0
40
0.50000000000000711
210
0
220
-0
230
1
100
AcDbArc
50
0
51
89.999999999996746
0
LINE
5
2FE
100
AcDbEntity
8
CUTOUTS
100
AcDbLine
10
-127.87867118890794
20
-23.71743077683572
30
0
11
-114.87867118890793
21
-23.71743077683572
31
0
0
ARC
5
2FF
100
AcDbEntity
8
CUTOUTS
100
AcDbCircle
10
-127.87867118890794
20
-24.217430776835727
30
0
40
0.50000000000000711
210
0
220
-0
230
1
100
AcDbArc
50
90
51
180
0
LINE
5
300
100
AcDbEntity
8
CUTOUTS
100
AcDbLine
10
-128.37867118890796
20
-37.217430776835734
30
0
11
-128.37867118890796
21
-24.217430776835727
31
0
0
ARC
5
301
100
AcDbEntity
8
CUTOUTS
100
AcDbCircle
10
24.52132881109204
20
-24.217430776835709
30
0
40
0.49999999999998934
210
0
220
-0
230
1
100
AcDbArc
50
90
51
180
0
LINE
5
302
100
AcDbEntity
8
CUTOUTS
100
AcDbLine
10
24.021328811092033
20
-37.217430776835734
30
0
11
24.021328811092069
21
-24.217430776835727
31
0
0
ARC
5
303
100
AcDbEntity
8
CUTOUTS
100
AcDbCircle
10
24.52132881109204
20
-37.217430776835755
30
0
40
0.50000000000000711
210
0
220
0
230
1
100
AcDbArc
50
180
51
270
0
LINE
5
304
100
AcDbEntity
8
CUTOUTS
100
AcDbLine
10
37.521328811092047
20
-37.717430776835741
30
0
11
24.52132881109204
21
-37.717430776835741
31
0
0
ARC
5
305
100
AcDbEntity
8
CUTOUTS
100
AcDbCircle
10
37.521328811092083
20
-37.217430776835769
30
0
40
0.49999999999997158
210
0
220
0
230
1
100
AcDbArc
50
-90.000000000004079
51
0
0
LINE
5
306
100
AcDbEntity
8
CUTOUTS
100
AcDbLine
10
38.021328811092054
20
-24.217430776835727
30
0
11
38.021328811092054
21
-37.217430776835734
31
0
0
ARC
5
307
100
AcDbEntity
8
CUTOUTS
100
AcDbCircle
10
37.521328811092083
20
-24.217430776835691
30
0
40
0.49999999999997158
210
-0
220
0
230
1
100
AcDbArc
50
0
51
90.000000000004079
0
LINE
5
308
100
AcDbEntity
8
CUTOUTS
100
AcDbLine
10
24.52132881109204
20
-23.71743077683572
30
0
11
37.521328811092047
21
-23.717430776835737
31
0
0
LINE
5
309
100
AcDbEntity
8
CUTOUTS
100
AcDbLine
10
-113.59117118890795
20
33.432569223164272
30
0
11
-100.59117118890796
21
33.432569223164272
31
0
0
ARC
5
30A
100
AcDbEntity
8
CUTOUTS
100
AcDbCircle
10
-100.59117118890796
20
32.932569223164272
30
0
40
0.50000000000000711
210
0
220
-0
230
1
100
AcDbArc
50
0
51
90
0
LINE
5
30B
100
AcDbEntity
8
CUTOUTS
100
AcDbLine
10
-100.09117118890796
20
32.932569223164272
30
0
11
-100.09117118890796
21
19.932569223164265
31
0
0
ARC
5
30C
100
AcDbEntity
8
CUTOUTS
100
AcDbCircle
10
-100.59117118890795
20
19.932569223164261
30
0
40
0.49999999999999378
210
0
220
0
230
1
100
AcDbArc
50
-90.000000000001634
51
0
0
LINE
5
30D
100
AcDbEntity
8
CUTOUTS
100
AcDbLine
10
-100.59117118890796
20
19.432569223164265
30
0
11
-113.59117118890796
21
19.432569223164275
31
0
0
ARC
5
30E
100
AcDbEntity
8
CUTOUTS
100
AcDbCircle
10
-113.59117118890796
20
19.932569223164251
30
0
40
0.49999999999997158
210
0
220
0
230
1
100
AcDbArc
50
180
51
270.00000000000159
0
LINE
5
30F
100
AcDbEntity
8
CUTOUTS
100
AcDbLine
10
-114.09117118890794
20
19.932569223164268
30
0
11
-114.09117118890794
21
32.932569223164272
31
0
0
ARC
5
310
100
AcDbEntity
8
CUTOUTS
100
AcDbCircle
10
-113.59117118890795
20
32.932569223164279
30
0
40
0.49999999999999378
210
0
220
-0
230
1
100
AcDbArc
50
90
51
180
0
LINE
5
311
100
AcDbEntity
8
CUTOUTS
100
AcDbLine
10
-126.30731929096402
20
-63.141491379248421
30
0
11
-123.59377302577279
21
-63.141491385060355
31
0
0
LINE
5
312
100
AcDbEntity
8
CUTOUTS
100
AcDbLine
10
-123.59377302577279
20
-63.141491385060355
30
0
11
-122.23699989821046
21
-65.491491387966335
31
0
0
LINE
5
313
100
AcDbEntity
8
CUTOUTS
100
AcDbLine
10
-122.23699989821046
20
-65.491491387966335
30
0
11
-123.59377303583938
21
-67.841491385060365
31
0
0
LINE
5
314
100
AcDbEntity
8
CUTOUTS
100
AcDbLine
10
-123.59377303583938
20
-67.841491385060365
30
0
11
-126.3073193010306
21
-67.841491379248424
31
0
0
LINE
5
315
100
AcDbEntity
8
CUTOUTS
100
AcDbLine
10
-126.3073193010306
20
-67.841491379248424
30
0
11
-127.66409242859294
21
-65.491491376342452
31
0
0
LINE
5
316
100
AcDbEntity
8
CUTOUTS
100
AcDbLine
10
-127.66409242859294
20
-65.491491376342452
30
0
11
-126.30731929096402
21
-63.141491379248421
31
0
0
LINE
5
317
100
AcDbEntity
8
CUTOUTS
100
AcDbLine
10
133.27132881109208
20
-43.267430776835738
30
0
11
133.27132881109208
21
-56.267430776835724
31
0
0
ARC
5
318
100
AcDbEntity
8
CUTOUTS
100
AcDbCircle
10
132.77132881109208
20
-56.26743077683571
30
0
40
0.50000000000002487
210
-0
220
0
230
1
100
AcDbArc
50
270
51
360
0
LINE
5
319
100
AcDbEntity
8
CUTOUTS
100
AcDbLine
10
132.77132881109208
20
-56.767430776835738
30
0
11
119.7713288110921
21
-56.767430776835738
31
0
0
ARC
5
31A
100
AcDbEntity
8
CUTOUTS
100
AcDbCircle
10
119.7713288110921
20
-56.26743077683571
30
0
40
0.50000000000000711
210
0
220
0
230
1
100
AcDbArc
50
180
51
270
0
LINE
5
31B
100
AcDbEntity
8
CUTOUTS
100
AcDbLine
10
119.27132881109209
20
-56.267430776835724
30
0
11
119.27132881109213
21
-43.267430776835738
31
0
0
ARC
5
31C
100
AcDbEntity
8
CUTOUTS
100
AcDbCircle
10
119.7713288110921
20
-43.267430776835724
30
0
40
0.49999999999998934
210
0
220
-0
230
1
100
AcDbArc
50
90
51
180
0
LINE
5
31D
100
AcDbEntity
8
CUTOUTS
100
AcDbLine
10
119.7713288110921
20
-42.767430776835731
30
0
11
132.77132881109208
21
-42.767430776835731
31
0
0
ARC
5
31E
100
AcDbEntity
8
CUTOUTS
100
AcDbCircle
10
132.77132881109208
20
-43.267430776835724
30
0
40
0.50000000000000711
210
-0
220
0
230
1
100
AcDbArc
50
0
51
90
0
LINE
5
31F
100
AcDbEntity
8
CUTOUTS
100
AcDbLine
10
-42.941171188907958
20
32.932569223164272
30
0
11
-42.941171188907958
21
19.932569223164265
31
0
0
ARC
5
320
100
AcDbEntity
8
CUTOUTS
100
AcDbCircle
10
-43.441171188907944
20
19.932569223164265
30
0
40
0.49999999999999822
210
0
220
0
230
1
100
AcDbArc
50
-90.000000000002444
51
0
0
LINE
5
321
100
AcDbEntity
8
CUTOUTS
100
AcDbLine
10
-43.441171188907965
20
19.432569223164265
30
0
11
-56.441171188907937
21
19.432569223164265
31
0
0
ARC
5
322
100
AcDbEntity
8
CUTOUTS
100
AcDbCircle
10
-56.441171188907937
20
19.932569223164272
30
0
40
0.50000000000000711
210
0
220
0
230
1
100
AcDbArc
50
180
51
269.9999999999992
0
LINE
5
323
100
AcDbEntity
8
CUTOUTS
100
AcDbLine
10
-56.941171188907944
20
19.932569223164268
30
0
11
-56.941171188907944
21
32.932569223164272
31
0
0
ARC
5
324
100
AcDbEntity
8
CUTOUTS
100
AcDbCircle
10
-56.441171188907958
20
32.932569223164272
30
0
40
0.49999999999999822
210
0
220
-0
230
1
100
AcDbArc
50
89.999999999997556
51
180
0
LINE
5
325
100
AcDbEntity
8
CUTOUTS
100
AcDbLine
10
-56.441171188907937
20
33.432569223164272
30
0
11
-43.441171188907965
21
33.432569223164279
31
0
0
ARC
5
326
100
AcDbEntity
8
CUTOUTS
100
AcDbCircle
10
-43.441171188907965
20
32.932569223164265
30
0
40
0.50000000000000711
210
0
220
-0
230
1
100
AcDbArc
50
0
51
89.99999999999919
0
LINE
5
327
100
AcDbEntity
8
CUTOUTS
100
AcDbLine
10
-14.366171188907941
20
56.745069223164265
30
0
11
-14.366171188907941
21
43.745069223164279
31
0
0
ARC
5
328
100
AcDbEntity
8
CUTOUTS
100
AcDbCircle
10
-14.866171188907931
20
43.745069223164272
30
0
40
0.49999999999999822
210
0
220
0
230
1
100
AcDbArc
50
-90.000000000002032
51
0
0
LINE
5
329
100
AcDbEntity
8
CUTOUTS
100
AcDbLine
10
-14.866171188907948
20
43.245069223164272
30
0
11
-27.866171188907938
21
43.245069223164272
31
0
0
ARC
5
32A
100
AcDbEntity
8
CUTOUTS
100
AcDbCircle
10
-27.86617118890792
20
43.745069223164286
30
0
40
0.50000000000002487
210
0
220
0
230
1
100
AcDbArc
50
180
51
269.99999999999795
0
LINE
5
32B
100
AcDbEntity
8
CUTOUTS
100
AcDbLine
10
-28.366171188907945
20
43.745069223164272
30
0
11
-28.366171188907945
21
56.745069223164265
31
0
0
ARC
5
32C
100
AcDbEntity
8
CUTOUTS
100
AcDbCircle
10
-27.86617118890792
20
56.745069223164251
30
0
40
0.50000000000001599
210
0
220
0
230
1
100
AcDbArc
50
90.000000000002032
51
180
0
LINE
5
32D
100
AcDbEntity
8
CUTOUTS
100
AcDbLine
10
-27.866171188907938
20
57.245069223164265
30
0
11
-14.866171188907948
21
57.245069223164279
31
0
0
ARC
5
32E
100
AcDbEntity
8
CUTOUTS
100
AcDbCircle
10
-14.866171188907948
20
56.745069223164265
30
0
40
0.50000000000000711
210
0
220
0
230
1
100
AcDbArc
50
0
51
89.999999999999801
0
ARC
5
32F
100
AcDbEntity
8
CUTOUTS
100
AcDbCircle
10
-91.066171188907958
20
13.882569223164252
30
0
40
0.50000000000002487
210
0
220
-0
230
1
100
AcDbArc
50
0
51
89.99999999999838
0
LINE
5
330
100
AcDbEntity
8
CUTOUTS
100
AcDbLine
10
-104.06617118890794
20
14.382569223164268
30
0
11
-91.066171188907944
21
14.382569223164268
31
0
0
ARC
5
331
100
AcDbEntity
8
CUTOUTS
100
AcDbCircle
10
-104.06617118890794
20
13.882569223164269
30
0
40
0.49999999999999822
210
0
220
-0
230
1
100
AcDbArc
50
90
51
180
0
LINE
5
332
100
AcDbEntity
8
CUTOUTS
100
AcDbLine
10
-104.56617118890793
20
0.88256922316426234
30
0
11
-104.56617118890793
21
13.882569223164269
31
0
0
ARC
5
333
100
AcDbEntity
8
CUTOUTS
100
AcDbCircle
10
-104.06617118890794
20
0.88256922316426234
30
0
40
0.49999999999998934
210
0
220
0
230
1
100
AcDbArc
50
180
51
270
0
LINE
5
334
100
AcDbEntity
8
CUTOUTS
100
AcDbLine
10
-91.066171188907944
20
0.38256922316426412
30
0
11
-104.06617118890794
21
0.38256922316426412
31
0
0
ARC
5
335
100
AcDbEntity
8
CUTOUTS
100
AcDbCircle
10
-91.066171188907944
20
0.88256922316425346
30
0
40
0.49999999999998934
210
-0
220
0
230
1
100
AcDbArc
50
-90
51
0
0
LINE
5
336
100
AcDbEntity
8
CUTOUTS
100
AcDbLine
10
-90.56617118890793
20
13.882569223164269
30
0
11
-90.56617118890793
21
0.88256922316426234
31
0
0
ARC
5
337
100
AcDbEntity
8
CUTOUTS
100
AcDbCircle
10
93.57757881109211
20
4.3575692231642105
30
0
40
0.50000000000005151
210
0
220
0
230
1
100
AcDbArc
50
90.000000000006523
51
180
0
LINE
5
338
100
AcDbEntity
8
CUTOUTS
100
AcDbLine
10
93.077578811092039
20
-8.6424307768357256
30
0
11
93.077578811092081
21
4.3575692231642638
31
0
0
ARC
5
339
100
AcDbEntity
8
CUTOUTS
100
AcDbCircle
10
93.57757881109201
20
-8.6424307768357345
30
0
40
0.49999999999997158
210
0
220
0
230
1
100
AcDbArc
50
180
51
270.00000000000489
0
LINE
5
33A
100
AcDbEntity
8
CUTOUTS
100
AcDbLine
10
106.57757881109205
20
-9.1424307768357238
30
0
11
93.577578811092053
21
-9.142430776835706
31
0
0
ARC
5
33B
100
AcDbEntity
8
CUTOUTS
100
AcDbCircle
10
106.57757881109205
20
-8.6424307768356901
30
0
40
0.50000000000003375
210
-0
220
0
230
1
100
AcDbArc
50
270
51
360
0
LINE
5
33C
100
AcDbEntity
8
CUTOUTS
100
AcDbLine
10
107.07757881109205
20
4.3575692231642638
30
0
11
107.0775788110921
21
-8.6424307768357256
31
0
0
ARC
5
33D
100
AcDbEntity
8
CUTOUTS
100
AcDbCircle
10
106.57757881109208
20
4.3575692231642904
30
0
40
0.49999999999997158
210
-0
220
0
230
1
100
AcDbArc
50
0
51
90.000000000001634
0
LINE
5
33E
100
AcDbEntity
8
CUTOUTS
100
AcDbLine
10
93.577578811092053
20
4.857569223164262
30
0
11
106.57757881109205
21
4.857569223164262
31
0
0
ARC
5
33F
100
AcDbEntity
8
CUTOUTS
100
AcDbCircle
10
-24.391171188907954
20
-43.267430776835738
30
0
40
0.50000000000000711
210
0
220
-0
230
1
100
AcDbArc
50
0
51
90
0
LINE
5
340
100
AcDbEntity
8
CUTOUTS
100
AcDbLine
10
-49.297421188907947
20
-42.767430776835731
30
0
11
-24.391171188907954
21
-42.767430776835731
31
0
0
ARC
5
341
100
AcDbEntity
8
CUTOUTS
100
AcDbCircle
10
-49.297421188907933
20
-43.267430776835752
30
0
40
0.50000000000002487
210
0
220
0
230
1
100
AcDbArc
50
90.000000000001634
51
180
0
LINE
5
342
100
AcDbEntity
8
CUTOUTS
100
AcDbLine
10
-49.797421188907961
20
-56.267430776835724
30
0
11
-49.797421188907961
21
-43.267430776835738
31
0
0
ARC
5
343
100
AcDbEntity
8
CUTOUTS
100
AcDbCircle
10
-49.297421188907919
20
-56.267430776835695
30
0
40
0.50000000000004263
210
0
220
0
230
1
100
AcDbArc
50
180
51
269.99999999999676
0
LINE
5
344
100
AcDbEntity
8
CUTOUTS
100
AcDbLine
10
-24.391171188907954
20
-56.767430776835738
30
0
11
-49.297421188907947
21
-56.767430776835738
31
0
0
ARC
5
345
100
AcDbEntity
8
CUTOUTS
100
AcDbCircle
10
-24.391171188907972
20
-56.26743077683571
30
0
40
0.50000000000002487
210
-0
220
0
230
1
100
AcDbArc
50
270.00000000000205
51
360
0
LINE
5
346
100
AcDbEntity
8
CUTOUTS
100
AcDbLine
10
-23.891171188907947
20
-43.267430776835738
30
0
11
-23.891171188907947
21
-56.267430776835724
31
0
0
ARC
5
347
100
AcDbEntity
8
CUTOUTS
100
AcDbCircle
10
-27.866171188907938
20
13.882569223164278
30
0
40
0.49999999999998934
210
0
220
-0
230
1
100
AcDbArc
50
90
51
180
0
LINE
5
348
100
AcDbEntity
8
CUTOUTS
100
AcDbLine
10
-28.366171188907945
20
0.88256922316426234
30
0
11
-28.366171188907927
21
13.882569223164269
31
0
0
ARC
5
349
100
AcDbEntity
8
CUTOUTS
100
AcDbCircle
10
-27.86617118890792
20
0.8825692231642801
30
0
40
0.50000000000002487
210
0
220
0
230
1
100
AcDbArc
50
180
51
269.99999999999795
0
LINE
5
34A
100
AcDbEntity
8
CUTOUTS
100
AcDbLine
10
-14.866171188907948
20
0.38256922316426412
30
0
11
-27.866171188907938
21
0.38256922316425523
31
0
0
ARC
5
34B
100
AcDbEntity
8
CUTOUTS
100
AcDbCircle
10
-14.866171188907948
20
0.88256922316427122
30
0
40
0.50000000000000711
210
-0
220
0
230
1
100
AcDbArc
50
270
51
360
0
LINE
5
34C
100
AcDbEntity
8
CUTOUTS
100
AcDbLine
10
-14.366171188907941
20
13.882569223164269
30
0
11
-14.366171188907941
21
0.88256922316426234
31
0
0
ARC
5
34D
100
AcDbEntity
8
CUTOUTS
100
AcDbCircle
10
-14.866171188907948
20
13.882569223164269
30
0
40
0.50000000000000711
210
0
220
-0
230
1
100
AcDbArc
50
0
51
90
0
LINE
5
34E
100
AcDbEntity
8
CUTOUTS
100
AcDbLine
10
-27.866171188907938
20
14.382569223164268
30
0
11
-14.866171188907948
21
14.382569223164277
31
0
0
ARC
5
34F
100
AcDbEntity
8
CUTOUTS
100
AcDbCircle
10
160.08432881109198
20
-35.004930776835778
30
0
40
0.99999999999994316
210
0
220
0
230
1
100
AcDbArc
50
180
51
270.00000000000324
0
LINE
5
350
100
AcDbEntity
8
CUTOUTS
100
AcDbLine
10
160.08432881109204
20
-36.004930776835721
30
0
11
170.37132881109213
21
-36.004930776835664
31
0
0
ARC
5
351
100
AcDbEntity
8
CUTOUTS
100
AcDbCircle
10
170.37132881109213
20
-37.004930776835664
30
0
40
0.99999999999999645
210
-0
220
0
230
1
100
AcDbArc
50
-90
51
90
0
LINE
5
352
100
AcDbEntity
8
CUTOUTS
100
AcDbLine
10
170.37132881109213
20
-38.004930776835657
30
0
11
160.08382881109202
21
-38.004930776835749
31
0
0
ARC
5
353
100
AcDbEntity
8
CUTOUTS
100
AcDbCircle
10
160.0838288110921
20
-35.004930776835707
30
0
40
3.0000000000000426
210
0
220
0
230
1
100
AcDbArc
50
180
51
269.99999999999943
0
LINE
5
354
100
AcDbEntity
8
CUTOUTS
100
AcDbLine
10
157.08382881109205
20
-35.004930776835721
30
0
11
157.08382881109205
21
-19.954930776835713
31
0
0
ARC
5
355
100
AcDbEntity
8
CUTOUTS
100
AcDbCircle
10
156.08382881109205
20
-19.954930776835702
30
0
40
1.0000000000000142
210
-0
220
0
230
1
100
AcDbArc
50
0
51
90.000000000001634
0
LINE
5
356
100
AcDbEntity
8
CUTOUTS
100
AcDbLine
10
156.08382881109205
20
-18.954930776835688
30
0
11
148.82132881109197
21
-18.954930776835674
31
0
0
ARC
5
357
100
AcDbEntity
8
CUTOUTS
100
AcDbCircle
10
148.82132881109197
20
-17.95493077683571
30
0
40
0.99999999999997868
210
0
220
-0
230
1
100
AcDbArc
50
89.999999999996746
51
269.99999999999511
0
LINE
5
358
100
AcDbEntity
8
CUTOUTS
100
AcDbLine
10
148.82132881109203
20
-16.954930776835731
30
0
11
156.08432881109206
21
-16.954930776835752
31
0
0
ARC
5
359
100
AcDbEntity
8
CUTOUTS
100
AcDbCircle
10
156.08432881109198
20
-19.954930776835759
30
0
40
3.0000000000000426
210
0
220
-0
230
1
100
AcDbArc
50
0
51
89.99999999999838
0
LINE
5
35A
100
AcDbEntity
8
CUTOUTS
100
AcDbLine
10
159.08432881109204
20
-19.954930776835724
30
0
11
159.08432881109204
21
-35.004930776835721
31
0
0
ARC
5
35B
100
AcDbEntity
8
CUTOUTS
100
AcDbCircle
10
138.82132881109212
20
13.882569223164216
30
0
40
0.50000000000005151
210
0
220
0
230
1
100
AcDbArc
50
90.000000000009777
51
180
0
LINE
5
35C
100
AcDbEntity
8
CUTOUTS
100
AcDbLine
10
138.32132881109203
20
0.88256922316426234
30
0
11
138.32132881109206
21
13.882569223164269
31
0
0
ARC
5
35D
100
AcDbEntity
8
CUTOUTS
100
AcDbCircle
10
138.821328811092
20
0.88256922316425346
30
0
40
0.49999999999997158
210
0
220
0
230
1
100
AcDbArc
50
180
51
270.00000000000324
0
LINE
5
35E
100
AcDbEntity
8
CUTOUTS
100
AcDbLine
10
151.821328811092
20
0.38256922316426412
30
0
11
138.82132881109203
21
0.38256922316428188
31
0
0
ARC
5
35F
100
AcDbEntity
8
CUTOUTS
100
AcDbCircle
10
151.82132881109209
20
0.88256922316415576
30
0
40
0.49999999999989164
210
0
220
0
230
1
100
AcDbArc
50
-90.000000000009777
51
0
0
LINE
5
360
100
AcDbEntity
8
CUTOUTS
100
AcDbLine
10
152.32132881109206
20
13.882569223164269
30
0
11
152.32132881109197
21
0.88256922316426234
31
0
0
ARC
5
361
100
AcDbEntity
8
CUTOUTS
100
AcDbCircle
10
151.821328811092
20
13.882569223164261
30
0
40
0.50000000000004263
210
0
220
-0
230
1
100
AcDbArc
50
0
51
89.999999999996746
0
LINE
5
362
100
AcDbEntity
8
CUTOUTS
100
AcDbLine
10
138.82132881109203
20
14.382569223164268
30
0
11
151.821328811092
21
14.382569223164303
31
0
0
ARC
5
363
100
AcDbEntity
8
CUTOUTS
100
AcDbCircle
10
-129.16617118890795
20
13.882569223164269
30
0
40
0.50000000000000711
210
0
220
-0
230
1
100
AcDbArc
50
0
51
90
0
LINE
5
364
100
AcDbEntity
8
CUTOUTS
100
AcDbLine
10
-142.16617118890795
20
14.382569223164268
30
0
11
-129.16617118890795
21
14.382569223164268
31
0
0
ARC
5
365
100
AcDbEntity
8
CUTOUTS
100
AcDbCircle
10
-142.16617118890795
20
13.882569223164269
30
0
40
0.49999999999999822
210
0
220
-0
230
1
100
AcDbArc
50
90
51
180
0
LINE
5
366
100
AcDbEntity
8
CUTOUTS
100
AcDbLine
10
-142.66617118890795
20
0.88256922316426234
30
0
11
-142.66617118890795
21
13.882569223164269
31
0
0
ARC
5
367
100
AcDbEntity
8
CUTOUTS
100
AcDbCircle
10
-142.16617118890795
20
0.88256922316426234
30
0
40
0.50000000000000711
210
0
220
0
230
1
100
AcDbArc
50
180
51
270
0
LINE
5
368
100
AcDbEntity
8
CUTOUTS
100
AcDbLine
10
-129.16617118890795
20
0.38256922316426412
30
0
11
-142.16617118890795
21
0.38256922316426412
31
0
0
ARC
5
369
100
AcDbEntity
8
CUTOUTS
100
AcDbCircle
10
-129.16617118890795
20
0.88256922316426234
30
0
40
0.49999999999999822
210
-0
220
0
230
1
100
AcDbArc
50
-90
51
0
0
LINE
5
36A
100
AcDbEntity
8
CUTOUTS
100
AcDbLine
10
-128.66617118890795
20
13.882569223164269
30
0
11
-128.66617118890792
21
0.88256922316426234
31
0
0
ARC
5
36B
100
AcDbEntity
8
CUTOUTS
100
AcDbCircle
10
-29.153671188907939
20
-18.16743077683574
30
0
40
0.49999999999998934
210
-0
220
0
230
1
100
AcDbArc
50
-90
51
0
0
LINE
5
36C
100
AcDbEntity
8
CUTOUTS
100
AcDbLine
10
-28.653671188907932
20
-5.167430776835733
30
0
11
-28.65367118890795
21
-18.167430776835729
31
0
0
ARC
5
36D
100
AcDbEntity
8
CUTOUTS
100
AcDbCircle
10
-29.153671188907957
20
-5.1674307768357419
30
0
40
0.50000000000002487
210
0
220
-0
230
1
100
AcDbArc
50
0
51
89.999999999995936
0
LINE
5
36E
100
AcDbEntity
8
CUTOUTS
100
AcDbLine
10
-42.153671188907929
20
-4.6674307768357348
30
0
11
-29.153671188907921
21
-4.6674307768357171
31
0
0
ARC
5
36F
100
AcDbEntity
8
CUTOUTS
100
AcDbCircle
10
-42.15367118890795
20
-5.167430776835733
30
0
40
0.49999999999999822
210
0
220
-0
230
1
100
AcDbArc
50
89.999999999997556
51
180
0
LINE
5
370
100
AcDbEntity
8
CUTOUTS
100
AcDbLine
10
-42.653671188907936
20
-18.167430776835729
30
0
11
-42.653671188907936
21
-5.167430776835733
31
0
0
ARC
5
371
100
AcDbEntity
8
CUTOUTS
100
AcDbCircle
10
-42.153671188907929
20
-18.167430776835729
30
0
40
0.50000000000000711
210
0
220
0
230
1
100
AcDbArc
50
180
51
270
0
LINE
5
372
100
AcDbEntity
8
CUTOUTS
100
AcDbLine
10
-29.153671188907939
20
-18.667430776835729
30
0
11
-42.153671188907929
21
-18.667430776835737
31
0
0
LINE
5
373
100
AcDbEntity
8
CUTOUTS
100
AcDbLine
10
-170.74117118890797
20
33.432569223164272
30
0
11
-157.74117118890797
21
33.432569223164272
31
0
0
ARC
5
374
100
AcDbEntity
8
CUTOUTS
100
AcDbCircle
10
-157.74117118890794
20
32.932569223164272
30
0
40
0.49999999999998934
210
0
220
-0
230
1
100
AcDbArc
50
0
51
90
0
LINE
5
375
100
AcDbEntity
8
CUTOUTS
100
AcDbLine
10
-157.24117118890797
20
32.932569223164272
30
0
11
-157.24117118890797
21
19.932569223164265
31
0
0
ARC
5
376
100
AcDbEntity
8
CUTOUTS
100
AcDbCircle
10
-157.74117118890794
20
19.932569223164265
30
0
40
0.49999999999999822
210
-0
220
0
230
1
100
AcDbArc
50
-90
51
0
0
LINE
5
377
100
AcDbEntity
8
CUTOUTS
100
AcDbLine
10
-157.74117118890797
20
19.432569223164265
30
0
11
-170.74117118890797
21
19.432569223164265
31
0
0
ARC
5
378
100
AcDbEntity
8
CUTOUTS
100
AcDbCircle
10
-170.74117118890794
20
19.932569223164283
30
0
40
0.50000000000000711
210
0
220
0
230
1
100
AcDbArc
50
180
51
269.99999999999676
0
LINE
5
379
100
AcDbEntity
8
CUTOUTS
100
AcDbLine
10
-171.24117118890794
20
19.932569223164268
30
0
11
-171.24117118890794
21
32.932569223164272
31
0
0
ARC
5
37A
100
AcDbEntity
8
CUTOUTS
100
AcDbCircle
10
-170.74117118890797
20
32.932569223164272
30
0
40
0.49999999999999822
210
0
220
-0
230
1
100
AcDbArc
50
90
51
180
0
LINE
5
37B
100
AcDbEntity
8
CUTOUTS
100
AcDbLine
10
-152.97867118890795
20
0.38256922316426412
30
0
11
-165.97867118890798
21
0.38256922316425523
31
0
0
ARC
5
37C
100
AcDbEntity
8
CUTOUTS
100
AcDbCircle
10
-165.97867118890798
20
0.88256922316426234
30
0
40
0.50000000000000711
210
0
220
0
230
1
100
AcDbArc
50
180
51
270
0
LINE
5
37D
100
AcDbEntity
8
CUTOUTS
100
AcDbLine
10
-166.47867118890792
20
0.88256922316426234
30
0
11
-166.47867118890792
21
13.882569223164269
31
0
0
ARC
5
37E
100
AcDbEntity
8
CUTOUTS
100
AcDbCircle
10
-165.97867118890798
20
13.882569223164269
30
0
40
0.49999999999999822
210
0
220
-0
230
1
100
AcDbArc
50
90
51
180
0
LINE
5
37F
100
AcDbEntity
8
CUTOUTS
100
AcDbLine
10
-165.97867118890798
20
14.382569223164268
30
0
11
-152.97867118890795
21
14.382569223164268
31
0
0
ARC
5
380
100
AcDbEntity
8
CUTOUTS
100
AcDbCircle
10
-152.97867118890795
20
13.882569223164269
30
0
40
0.50000000000000711
210
0
220
-0
230
1
100
AcDbArc
50
0
51
90
0
LINE
5
381
100
AcDbEntity
8
CUTOUTS
100
AcDbLine
10
-152.47867118890795
20
13.882569223164269
30
0
11
-152.47867118890795
21
0.88256922316426234
31
0
0
ARC
5
382
100
AcDbEntity
8
CUTOUTS
100
AcDbCircle
10
-152.97867118890795
20
0.88256922316426234
30
0
40
0.49999999999999822
210
-0
220
0
230
1
100
AcDbArc
50
-90
51
0
0
LINE
5
383
100
AcDbEntity
8
CUTOUTS
100
AcDbLine
10
113.36507881109202
20
-55.767430776835681
30
0
11
113.36507881109213
21
32.432569223164251
31
0
0
ARC
5
384
100
AcDbEntity
8
CUTOUTS
100
AcDbCircle
10
114.3650788110921
20
32.432569223164272
30
0
40
0.99999999999997868
210
-0
220
0
230
1
100
AcDbArc
50
0
51
180
0
LINE
5
385
100
AcDbEntity
8
CUTOUTS
100
AcDbLine
10
115.36507881109209
20
32.432569223164258
30
0
11
115.36507881109205
21
-55.767430776835674
31
0
0
ARC
5
386
100
AcDbEntity
8
CUTOUTS
100
AcDbCircle
10
114.36507881109205
20
-55.767430776835681
30
0
40
1.0000000000000142
210
0
220
0
230
1
100
AcDbArc
50
-180
51
0
0
LINE
5
387
100
AcDbEntity
8
CUTOUTS
100
AcDbLine
10
-71.516171188907947
20
13.882569223164269
30
0
11
-71.516171188907947
21
0.88256922316426234
31
0
0
ARC
5
388
100
AcDbEntity
8
CUTOUTS
100
AcDbCircle
10
-72.016171188907947
20
0.88256922316427122
30
0
40
0.50000000000000711
210
-0
220
0
230
1
100
AcDbArc
50
270
51
360
0
LINE
5
389
100
AcDbEntity
8
CUTOUTS
100
AcDbLine
10
-72.016171188907947
20
0.38256922316426412
30
0
11
-85.016171188907947
21
0.38256922316426412
31
0
0
ARC
5
38A
100
AcDbEntity
8
CUTOUTS
100
AcDbCircle
10
-85.016171188907947
20
0.88256922316426234
30
0
40
0.50000000000000711
210
0
220
0
230
1
100
AcDbArc
50
180
51
270
0
LINE
5
38B
100
AcDbEntity
8
CUTOUTS
100
AcDbLine
10
-85.516171188907961
20
0.88256922316426234
30
0
11
-85.516171188907961
21
13.882569223164269
31
0
0
ARC
5
38C
100
AcDbEntity
8
CUTOUTS
100
AcDbCircle
10
-85.016171188907947
20
13.882569223164261
30
0
40
0.50000000000000711
210
0
220
-0
230
1
100
AcDbArc
50
90
51
180
0
LINE
5
38D
100
AcDbEntity
8
CUTOUTS
100
AcDbLine
10
-85.016171188907947
20
14.382569223164268
30
0
11
-72.016171188907947
21
14.382569223164268
31
0
0
ARC
5
38E
100
AcDbEntity
8
CUTOUTS
100
AcDbCircle
10
-72.016171188907947
20
13.882569223164269
30
0
40
0.50000000000000711
210
0
220
-0
230
1
100
AcDbArc
50
0
51
90
0
LINE
5
38F
100
AcDbEntity
8
CUTOUTS
100
AcDbLine
10
152.32132881109206
20
32.932569223164272
30
0
11
152.32132881109206
21
19.932569223164265
31
0
0
ARC
5
390
100
AcDbEntity
8
CUTOUTS
100
AcDbCircle
10
151.82132881109209
20
19.932569223164172
30
0
40
0.49999999999990496
210
0
220
0
230
1
100
AcDbArc
50
-90.000000000009777
51
0
0
LINE
5
391
100
AcDbEntity
8
CUTOUTS
100
AcDbLine
10
151.821328811092
20
19.432569223164265
30
0
11
138.82132881109203
21
19.432569223164258
31
0
0
ARC
5
392
100
AcDbEntity
8
CUTOUTS
100
AcDbCircle
10
138.82132881109203
20
19.932569223164261
30
0
40
0.50000000000000711
210
0
220
0
230
1
100
AcDbArc
50
180
51
270.00000000000324
0
LINE
5
393
100
AcDbEntity
8
CUTOUTS
100
AcDbLine
10
138.32132881109203
20
19.932569223164268
30
0
11
138.32132881109203
21
32.932569223164272
31
0
0
ARC
5
394
100
AcDbEntity
8
CUTOUTS
100
AcDbCircle
10
138.82132881109209
20
32.932569223164222
30
0
40
0.50000000000004707
210
0
220
0
230
1
100
AcDbArc
50
90.000000000006523
51
180
0
LINE
5
395
100
AcDbEntity
8
CUTOUTS
100
AcDbLine
10
138.82132881109203
20
33.432569223164272
30
0
11
151.821328811092
21
33.432569223164272
31
0
0
ARC
5
396
100
AcDbEntity
8
CUTOUTS
100
AcDbCircle
10
151.821328811092
20
32.932569223164272
30
0
40
0.50000000000004263
210
0
220
-0
230
1
100
AcDbArc
50
0
51
90
0
LINE
5
397
100
AcDbEntity
8
CUTOUTS
100
AcDbLine
10
-152.97867118890795
20
-56.767430776835738
30
0
11
-168.35992118890798
21
-56.767430776835738
31
0
0
ARC
5
398
100
AcDbEntity
8
CUTOUTS
100
AcDbCircle
10
-168.35992118890795
20
-56.26743077683571
30
0
40
0.50000000000000711
210
0
220
0
230
1
100
AcDbArc
50
180
51
269.99999999999676
0
LINE
5
399
100
AcDbEntity
8
CUTOUTS
100
AcDbLine
10
-168.85992118890795
20
-56.267430776835724
30
0
11
-168.85992118890795
21
-43.267430776835738
31
0
0
ARC
5
39A
100
AcDbEntity
8
CUTOUTS
100
AcDbCircle
10
-168.35992118890798
20
-43.267430776835738
30
0
40
0.50000000000000711
210
0
220
-0
230
1
100
AcDbArc
50
90
51
180
0
LINE
5
39B
100
AcDbEntity
8
CUTOUTS
100
AcDbLine
10
-168.35992118890798
20
-42.767430776835731
30
0
11
-152.97867118890795
21
-42.767430776835731
31
0
0
ARC
5
39C
100
AcDbEntity
8
CUTOUTS
100
AcDbCircle
10
-152.97867118890795
20
-43.267430776835724
30
0
40
0.50000000000000711
210
-0
220
0
230
1
100
AcDbArc
50
0
51
90
0
LINE
5
39D
100
AcDbEntity
8
CUTOUTS
100
AcDbLine
10
-152.47867118890795
20
-43.267430776835738
30
0
11
-152.47867118890795
21
-56.267430776835724
31
0
0
ARC
5
39E
100
AcDbEntity
8
CUTOUTS
100
AcDbCircle
10
-152.97867118890798
20
-56.26743077683571
30
0
40
0.50000000000002487
210
-0
220
0
230
1
100
AcDbArc
50
270.00000000000324
51
360
0
ARC
5
39F
100
AcDbEntity
8
CUTOUTS
100
AcDbCircle
10
35.140078811092046
20
-43.267430776835724
30
0
40
0.50000000000000711
210
-0
220
0
230
1
100
AcDbArc
50
0
51
90
0
LINE
5
3A0
100
AcDbEntity
8
CUTOUTS
100
AcDbLine
10
35.640078811092053
20
-43.267430776835738
30
0
11
35.640078811092053
21
-56.267430776835724
31
0
0
ARC
5
3A1
100
AcDbEntity
8
CUTOUTS
100
AcDbCircle
10
35.140078811092046
20
-56.26743077683571
30
0
40
0.50000000000002487
210
-0
220
0
230
1
100
AcDbArc
50
270
51
360
0
LINE
5
3A2
100
AcDbEntity
8
CUTOUTS
100
AcDbLine
10
35.140078811092046
20
-56.767430776835738
30
0
11
22.140078811092074
21
-56.767430776835738
31
0
0
ARC
5
3A3
100
AcDbEntity
8
CUTOUTS
100
AcDbCircle
10
22.140078811092074
20
-56.26743077683571
30
0
40
0.50000000000000711
210
0
220
0
230
1
100
AcDbArc
50
180
51
270
0
LINE
5
3A4
100
AcDbEntity
8
CUTOUTS
100
AcDbLine
10
21.640078811092067
20
-56.267430776835724
30
0
11
21.640078811092067
21
-41.267430776835724
31
0
0
ARC
5
3A5
100
AcDbEntity
8
CUTOUTS
100
AcDbCircle
10
22.14007881109211
20
-41.267430776835781
30
0
40
0.50000000000004263
210
0
220
0
230
1
100
AcDbArc
50
90.000000000004079
51
180
0
LINE
5
3A6
100
AcDbEntity
8
CUTOUTS
100
AcDbLine
10
22.140078811092074
20
-40.767430776835738
30
0
11
29.258828811092066
21
-40.767430776835724
31
0
0
ARC
5
3A7
100
AcDbEntity
8
CUTOUTS
100
AcDbCircle
10
29.258828811092066
20
-41.267430776835745
30
0
40
0.50000000000000711
210
0
220
-0
230
1
100
AcDbArc
50
0
51
90
0
LINE
5
3A8
100
AcDbEntity
8
CUTOUTS
100
AcDbLine
10
29.758828811092073
20
-41.267430776835724
30
0
11
29.758828811092073
21
-42.767430776835731
31
0
0
LINE
5
3A9
100
AcDbEntity
8
CUTOUTS
100
AcDbLine
10
29.758828811092073
20
-42.767430776835731
30
0
11
35.140078811092046
21
-42.767430776835731
31
0
0
LINE
5
3AA
100
AcDbEntity
8
CUTOUTS
100
AcDbLine
10
-151.334921188908
20
56.245069221914257
30
0
11
-151.334921188908
21
44.245069224414273
31
0
0
ARC
5
3AB
100
AcDbEntity
8
CUTOUTS
100
AcDbCircle
10
-152.33492118890803
20
44.245069224414273
30
0
40
1.00000000000001
210
-0
220
0
230
1
100
AcDbArc
50
-89.997135210786084
51
0
0
LINE
5
3AC
100
AcDbEntity
8
CUTOUTS
100
AcDbLine
10
-152.33487118890389
20
43.245069225664267
30
0
11
-152.33497118890827
21
43.245069220664263
31
0
0
ARC
5
3AD
100
AcDbEntity
8
CUTOUTS
100
AcDbCircle
10
-152.33492118890794
20
44.245069219414304
30
0
40
1.0000000000000497
210
0
220
0
230
1
100
AcDbArc
50
180
51
269.99713521100432
0
LINE
5
3AE
100
AcDbEntity
8
CUTOUTS
100
AcDbLine
10
-153.334921188908
20
44.245069219414304
30
0
11
-153.334921188908
21
56.245069226914211
31
0
0
ARC
5
3AF
100
AcDbEntity
8
CUTOUTS
100
AcDbCircle
10
-152.33492118890794
20
56.245069226914211
30
0
40
1.0000000000000542
210
0
220
0
230
1
100
AcDbArc
50
90.0028647889973
51
180
0
LINE
5
3B0
100
AcDbEntity
8
CUTOUTS
100
AcDbLine
10
-152.3349711889083
20
57.245069225664267
30
0
11
-152.33487118890389
21
57.245069220664263
31
0
0
ARC
5
3B1
100
AcDbEntity
8
CUTOUTS
100
AcDbCircle
10
-152.33492118890803
20
56.245069221914257
30
0
40
1.0000000000000142
210
0
220
0
230
1
100
AcDbArc
50
0
51
89.997135210786126
0
ARC
5
3B2
100
AcDbEntity
8
CUTOUTS
100
AcDbCircle
10
0.70882881109206153
20
19.932569223164244
30
0
40
0.50000000000000711
210
0
220
0
230
1
100
AcDbArc
50
180
51
270
0
LINE
5
3B3
100
AcDbEntity
8
CUTOUTS
100
AcDbLine
10
13.708828811092033
20
19.432569223164265
30
0
11
0.70882881109206153
21
19.43256922316424
31
0
0
ARC
5
3B4
100
AcDbEntity
8
CUTOUTS
100
AcDbCircle
10
13.708828811092069
20
19.932569223164233
30
0
40
0.49999999999996714
210
0
220
0
230
1
100
AcDbArc
50
-90.000000000004079
51
0
0
LINE
5
3B5
100
AcDbEntity
8
CUTOUTS
100
AcDbLine
10
14.20882881109204
20
32.932569223164272
30
0
11
14.20882881109204
21
19.932569223164265
31
0
0
ARC
5
3B6
100
AcDbEntity
8
CUTOUTS
100
AcDbCircle
10
13.708828811092069
20
32.9325692231643
30
0
40
0.49999999999997158
210
-0
220
0
230
1
100
AcDbArc
50
0
51
90.000000000004079
0
LINE
5
3B7
100
AcDbEntity
8
CUTOUTS
100
AcDbLine
10
0.70882881109206153
20
33.432569223164272
30
0
11
13.708828811092033
21
33.432569223164272
31
0
0
ARC
5
3B8
100
AcDbEntity
8
CUTOUTS
100
AcDbCircle
10
0.70882881109206153
20
32.932569223164244
30
0
40
0.50000000000002931
210
0
220
-0
230
1
100
AcDbArc
50
89.999999999999986
51
180
0
LINE
5
3B9
100
AcDbEntity
8
CUTOUTS
100
AcDbLine
10
0.20882881109205442
20
19.932569223164265
30
0
11
0.2088288110920189
21
32.932569223164272
31
0
0
LINE
5
3BA
100
AcDbEntity
8
CUTOUTS
100
AcDbLine
10
90.552528811091719
20
57.245069225664267
30
0
11
90.552628811096156
21
57.245069220664263
31
0
0
ARC
5
3BB
100
AcDbEntity
8
CUTOUTS
100
AcDbCircle
10
90.552578811092062
20
56.245069221914285
30
0
40
0.99999999999997868
210
-0
220
0
230
1
100
AcDbArc
50
0
51
89.997135210788556
0
LINE
5
3BC
100
AcDbEntity
8
CUTOUTS
100
AcDbLine
10
91.552578811092047
20
56.245069221914257
30
0
11
91.552578811092047
21
44.245069224414273
31
0
0
ARC
5
3BD
100
AcDbEntity
8
CUTOUTS
100
AcDbCircle
10
90.552578811092062
20
44.245069224414237
30
0
40
0.99999999999997435
210
-0
220
0
230
1
100
AcDbArc
50
-89.997135210788528
51
0
0
LINE
5
3BE
100
AcDbEntity
8
CUTOUTS
100
AcDbLine
10
90.552628811096156
20
43.245069225664267
30
0
11
90.552528811091761
21
43.245069220664263
31
0
0
ARC
5
3BF
100
AcDbEntity
8
CUTOUTS
100
AcDbCircle
10
90.552578811092062
20
44.245069219414276
30
0
40
1.0000000000000142
210
0
220
0
230
1
100
AcDbArc
50
180
51
269.99713521100597
0
LINE
5
3C0
100
AcDbEntity
8
CUTOUTS
100
AcDbLine
10
89.552578811092047
20
44.245069219414304
30
0
11
89.552578811092047
21
56.245069226914211
31
0
0
ARC
5
3C1
100
AcDbEntity
8
CUTOUTS
100
AcDbCircle
10
90.552578811092104
20
56.245069226914225
30
0
40
1.0000000000000451
210
0
220
0
230
1
100
AcDbArc
50
90.002864788998934
51
180
0
ARC
5
3C2
100
AcDbEntity
8
CUTOUTS
100
AcDbCircle
10
56.571328811092094
20
-37.217430776835769
30
0
40
0.49999999999997158
210
0
220
0
230
1
100
AcDbArc
50
-90.000000000004079
51
0
0
LINE
5
3C3
100
AcDbEntity
8
CUTOUTS
100
AcDbLine
10
57.071328811092066
20
-24.217430776835727
30
0
11
57.071328811092066
21
-37.217430776835734
31
0
0
ARC
5
3C4
100
AcDbEntity
8
CUTOUTS
100
AcDbCircle
10
56.571328811092094
20
-24.217430776835691
30
0
40
0.49999999999997158
210
-0
220
0
230
1
100
AcDbArc
50
0
51
90.000000000004079
0
LINE
5
3C5
100
AcDbEntity
8
CUTOUTS
100
AcDbLine
10
43.571328811092052
20
-23.71743077683572
30
0
11
56.571328811092059
21
-23.71743077683572
31
0
0
ARC
5
3C6
100
AcDbEntity
8
CUTOUTS
100
AcDbCircle
10
43.571328811092052
20
-24.217430776835709
30
0
40
0.49999999999998934
210
0
220
-0
230
1
100
AcDbArc
50
90
51
180
0
LINE
5
3C7
100
AcDbEntity
8
CUTOUTS
100
AcDbLine
10
43.071328811092044
20
-37.217430776835734
30
0
11
43.07132881109208
21
-24.217430776835727
31
0
0
ARC
5
3C8
100
AcDbEntity
8
CUTOUTS
100
AcDbCircle
10
43.571328811092052
20
-37.217430776835755
30
0
40
0.50000000000000711
210
0
220
0
230
1
100
AcDbArc
50
180
51
270
0
LINE
5
3C9
100
AcDbEntity
8
CUTOUTS
100
AcDbLine
10
56.571328811092059
20
-37.717430776835741
30
0
11
43.571328811092052
21
-37.717430776835755
31
0
0
ARC
5
3CA
100
AcDbEntity
8
CUTOUTS
100
AcDbCircle
10
9.5900788110920487
20
56.245069226914225
30
0
40
1.0000000000000451
210
0
220
0
230
1
100
AcDbArc
50
90.00286478899811
51
180
0
LINE
5
3CB
100
AcDbEntity
8
CUTOUTS
100
AcDbLine
10
8.590078811091999
20
44.245069219414304
30
0
11
8.590078811091999
21
56.245069226914211
31
0
0
ARC
5
3CC
100
AcDbEntity
8
CUTOUTS
100
AcDbCircle
10
9.5900788110920132
20
44.245069219414276
30
0
40
1.0000000000000142
210
0
220
0
230
1
100
AcDbArc
50
180
51
269.99713521100597
0
LINE
5
3CD
100
AcDbEntity
8
CUTOUTS
100
AcDbLine
10
9.5901288110961147
20
43.245069225664267
30
0
11
9.5900288110917131
21
43.245069220664263
31
0
0
ARC
5
3CE
100
AcDbEntity
8
CUTOUTS
100
AcDbCircle
10
9.5900788110920132
20
44.245069224414237
30
0
40
0.99999999999997435
210
-0
220
0
230
1
100
AcDbArc
50
-89.99713521078813
51
0
0
LINE
5
3CF
100
AcDbEntity
8
CUTOUTS
100
AcDbLine
10
10.590078811091992
20
56.245069221914257
30
0
11
10.590078811091992
21
44.245069224414273
31
0
0
ARC
5
3D0
100
AcDbEntity
8
CUTOUTS
100
AcDbCircle
10
9.5900788110920132
20
56.245069221914285
30
0
40
0.99999999999997868
210
-0
220
0
230
1
100
AcDbArc
50
0
51
89.997135210788258
0
LINE
5
3D1
100
AcDbEntity
8
CUTOUTS
100
AcDbLine
10
9.5900288110916776
20
57.245069225664267
30
0
11
9.5901288110961147
21
57.245069220664263
31
0
0
LINE
5
3D2
100
AcDbEntity
8
CUTOUTS
100
AcDbLine
10
-149.57242118890795
20
1.3825692231642606
30
0
11
-149.57242118890795
21
13.382569223164271
31
0
0
ARC
5
3D3
100
AcDbEntity
8
CUTOUTS
100
AcDbCircle
10
-148.57242118890795
20
13.382569223164271
30
0
40
0.99999999999999645
210
0
220
-0
230
1
100
AcDbArc
50
90
51
180
0
LINE
5
3D4
100
AcDbEntity
8
CUTOUTS
100
AcDbLine
10
-148.57242118890795
20
14.382569223164268
30
0
11
-146.57242118890795
21
14.382569223164277
31
0
0
ARC
5
3D5
100
AcDbEntity
8
CUTOUTS
100
AcDbCircle
10
-146.57242118890795
20
13.382569223164271
30
0
40
1.0000000000000142
210
-0
220
0
230
1
100
AcDbArc
50
0
51
90.000000000001634
0
LINE
5
3D6
100
AcDbEntity
8
CUTOUTS
100
AcDbLine
10
-145.57242118890795
20
13.382569223164262
30
0
11
-145.57242118890795
21
1.3825692231642606
31
0
0
ARC
5
3D7
100
AcDbEntity
8
CUTOUTS
100
AcDbCircle
10
-146.57242118890795
20
1.3825692231642606
30
0
40
0.99999999999999645
210
-0
220
0
230
1
100
AcDbArc
50
-90
51
0
0
LINE
5
3D8
100
AcDbEntity
8
CUTOUTS
100
AcDbLine
10
-146.57242118890795
20
0.38256922316426412
30
0
11
-148.57242118890795
21
0.38256922316426412
31
0
0
ARC
5
3D9
100
AcDbEntity
8
CUTOUTS
100
AcDbCircle
10
-148.57242118890795
20
1.3825692231642606
30
0
40
0.99999999999999645
210
0
220
0
230
1
100
AcDbArc
50
180
51
270
0
LINE
5
3DA
100
AcDbEntity
8
CUTOUTS
100
AcDbLine
10
108.45882881109205
20
37.338819223164244
30
0
11
-170.24117118890791
21
37.338819223164272
31
0
0
ARC
5
3DB
100
AcDbEntity
8
CUTOUTS
100
AcDbCircle
10
-170.24117118890797
20
38.338819223164279
30
0
40
1.0000000000000009
210
0
220
-0
230
1
100
AcDbArc
50
90
51
270
0
LINE
5
3DC
100
AcDbEntity
8
CUTOUTS
100
AcDbLine
10
-170.24117118890797
20
39.338819223164279
30
0
11
108.45882881109202
21
39.338819223164236
31
0
0
ARC
5
3DD
100
AcDbEntity
8
CUTOUTS
100
AcDbCircle
10
108.45882881109205
20
38.338819223164236
30
0
40
0.99999999999999645
210
-0
220
0
230
1
100
AcDbArc
50
-90
51
90
0
LINE
5
3DE
100
AcDbEntity
8
CUTOUTS
100
AcDbLine
10
-71.372371188903855
20
43.245069225664267
30
0
11
-71.372471188908293
21
43.245069220664263
31
0
0
ARC
5
3DF
100
AcDbEntity
8
CUTOUTS
100
AcDbCircle
10
-71.372421188907936
20
44.245069219414319
30
0
40
1.0000000000000497
210
0
220
0
230
1
100
AcDbArc
50
180
51
269.99713521100267
0
LINE
5
3E0
100
AcDbEntity
8
CUTOUTS
100
AcDbLine
10
-72.372421188907978
20
44.245069219414304
30
0
11
-72.372421188907978
21
56.245069226914211
31
0
0
ARC
5
3E1
100
AcDbEntity
8
CUTOUTS
100
AcDbCircle
10
-71.372421188907936
20
56.245069226914211
30
0
40
1.0000000000000542
210
0
220
0
230
1
100
AcDbArc
50
90.0028647889973
51
180
0
LINE
5
3E2
100
AcDbEntity
8
CUTOUTS
100
AcDbLine
10
-71.372471188908293
20
57.245069225664267
30
0
11
-71.372371188903855
21
57.245069220664263
31
0
0
ARC
5
3E3
100
AcDbEntity
8
CUTOUTS
100
AcDbCircle
10
-71.372421188907978
20
56.245069221914264
30
0
40
0.99999999999999645
210
-0
220
0
230
1
100
AcDbArc
50
0
51
89.997135210786936
0
LINE
5
3E4
100
AcDbEntity
8
CUTOUTS
100
AcDbLine
10
-70.372421188907992
20
56.245069221914257
30
0
11
-70.372421188907992
21
44.245069224414273
31
0
0
ARC
5
3E5
100
AcDbEntity
8
CUTOUTS
100
AcDbCircle
10
-71.372421188908021
20
44.245069224414294
30
0
40
1.0000000000000275
210
-0
220
0
230
1
100
AcDbArc
50
270.00286478921555
51
360
0
LINE
5
3E6
100
AcDbEntity
8
CUTOUTS
100
AcDbLine
10
-0.078671188907932788
20
-24.217430776835727
30
0
11
-0.078671188907932788
21
-37.217430776835734
31
0
0
ARC
5
3E7
100
AcDbEntity
8
CUTOUTS
100
AcDbCircle
10
-0.57867118890793989
20
-37.217430776835755
30
0
40
0.49999999999998934
210
0
220
0
230
1
100
AcDbArc
50
-90
51
0
0
LINE
5
3E8
100
AcDbEntity
8
CUTOUTS
100
AcDbLine
10
-0.57867118890793989
20
-37.717430776835741
30
0
11
-13.578671188907947
21
-37.717430776835741
31
0
0
ARC
5
3E9
100
AcDbEntity
8
CUTOUTS
100
AcDbCircle
10
-13.578671188907947
20
-37.217430776835734
30
0
40
0.50000000000000711
210
0
220
0
230
1
100
AcDbArc
50
180
51
270
0
LINE
5
3EA
100
AcDbEntity
8
CUTOUTS
100
AcDbLine
10
-14.078671188907954
20
-37.217430776835734
30
0
11
-14.078671188907954
21
-24.217430776835727
31
0
0
ARC
5
3EB
100
AcDbEntity
8
CUTOUTS
100
AcDbCircle
10
-13.578671188907947
20
-24.217430776835727
30
0
40
0.50000000000000711
210
0
220
-0
230
1
100
AcDbArc
50
90
51
180
0
LINE
5
3EC
100
AcDbEntity
8
CUTOUTS
100
AcDbLine
10
-13.578671188907947
20
-23.71743077683572
30
0
11
-0.57867118890793989
21
-23.71743077683572
31
0
0
ARC
5
3ED
100
AcDbEntity
8
CUTOUTS
100
AcDbCircle
10
-0.57867118890793989
20
-24.217430776835709
30
0
40
0.50000000000000711
210
-0
220
0
230
1
100
AcDbArc
50
0
51
90
0
ARC
5
3EE
100
AcDbEntity
8
CUTOUTS
100
AcDbCircle
10
151.82132881109194
20
-43.267430776835795
30
0
40
0.50000000000004263
210
0
220
-0
230
1
100
AcDbArc
50
0
51
89.999999999993491
0
LINE
5
3EF
100
AcDbEntity
8
CUTOUTS
100
AcDbLine
10
138.82132881109203
20
-42.767430776835731
30
0
11
151.821328811092
21
-42.767430776835766
31
0
0
ARC
5
3F0
100
AcDbEntity
8
CUTOUTS
100
AcDbCircle
10
138.82132881109203
20
-43.267430776835724
30
0
40
0.49999999999998934
210
0
220
-0
230
1
100
AcDbArc
50
90
51
180
0
LINE
5
3F1
100
AcDbEntity
8
CUTOUTS
100
AcDbLine
10
138.32132881109203
20
-56.267430776835724
30
0
11
138.32132881109206
21
-43.267430776835738
31
0
0
ARC
5
3F2
100
AcDbEntity
8
CUTOUTS
100
AcDbCircle
10
138.82132881109203
20
-56.26743077683571
30
0
40
0.50000000000000711
210
0
220
0
230
1
100
AcDbArc
50
180
51
270
0
LINE
5
3F3
100
AcDbEntity
8
CUTOUTS
100
AcDbLine
10
151.821328811092
20
-56.767430776835738
30
0
11
138.82132881109203
21
-56.767430776835738
31
0
0
ARC
5
3F4
100
AcDbEntity
8
CUTOUTS
100
AcDbCircle
10
151.82132881109209
20
-56.267430776835724
30
0
40
0.50000000000000711
210
0
220
0
230
1
100
AcDbArc
50
-90.000000000009777
51
0
0
LINE
5
3F5
100
AcDbEntity
8
CUTOUTS
100
AcDbLine
10
152.32132881109197
20
-43.267430776835738
30
0
11
152.32132881109197
21
-56.267430776835724
31
0
0
LINE
5
3F6
100
AcDbEntity
8
CUTOUTS
100
AcDbLine
10
120.2713288110921
20
-36.004930776835721
30
0
11
130.558328811092
21
-36.0049307768357
31
0
0
ARC
5
3F7
100
AcDbEntity
8
CUTOUTS
100
AcDbCircle
10
130.55832881109205
20
-35.004930776835721
30
0
40
0.99999999999997868
210
0
220
0
230
1
100
AcDbArc
50
-90.000000000003254
51
0
0
LINE
5
3F8
100
AcDbEntity
8
CUTOUTS
100
AcDbLine
10
131.55832881109203
20
-35.004930776835721
30
0
11
131.55832881109203
21
-19.954930776835724
31
0
0
ARC
5
3F9
100
AcDbEntity
8
CUTOUTS
100
AcDbCircle
10
134.55832881109203
20
-19.954930776835724
30
0
40
3.0000000000000071
210
0
220
-0
230
1
100
AcDbArc
50
90
51
180
0
LINE
5
3FA
100
AcDbEntity
8
CUTOUTS
100
AcDbLine
10
134.55832881109203
20
-16.954930776835717
30
0
11
141.821328811092
21
-16.954930776835724
31
0
0
ARC
5
3FB
100
AcDbEntity
8
CUTOUTS
100
AcDbCircle
10
141.821328811092
20
-17.954930776835738
30
0
40
1.0000000000000053
210
-0
220
0
230
1
100
AcDbArc
50
-90
51
90
0
LINE
5
3FC
100
AcDbEntity
8
CUTOUTS
100
AcDbLine
10
141.821328811092
20
-18.954930776835745
30
0
11
134.55882881109201
21
-18.954930776835717
31
0
0
ARC
5
3FD
100
AcDbEntity
8
CUTOUTS
100
AcDbCircle
10
134.55882881109207
20
-19.954930776835766
30
0
40
1.0000000000000497
210
0
220
0
230
1
100
AcDbArc
50
90.000000000003254
51
180
0
LINE
5
3FE
100
AcDbEntity
8
CUTOUTS
100
AcDbLine
10
133.55882881109204
20
-19.954930776835713
30
0
11
133.55882881109204
21
-35.004930776835721
31
0
0
ARC
5
3FF
100
AcDbEntity
8
CUTOUTS
100
AcDbCircle
10
130.55882881109198
20
-35.004930776835685
30
0
40
3.0000000000000426
210
-0
220
0
230
1
100
AcDbArc
50
270.00000000000051
51
360
0
LINE
5
400
100
AcDbEntity
8
CUTOUTS
100
AcDbLine
10
130.55882881109201
20
-38.004930776835728
30
0
11
120.27132881109213
21
-38.004930776835749
31
0
0
ARC
5
401
100
AcDbEntity
8
CUTOUTS
100
AcDbCircle
10
120.27132881109213
20
-37.004930776835749
30
0
40
1.000000000000032
210
0
220
0
230
1
100
AcDbArc
50
90.000000000001634
51
270.00000000000244
0
LINE
5
402
100
AcDbEntity
8
CUTOUTS
100
AcDbLine
10
170.37132881109198
20
-5.5231807768357211
30
0
11
120.27132881109218
21
-5.5231807768358365
31
0
0
ARC
5
403
100
AcDbEntity
8
CUTOUTS
100
AcDbCircle
10
120.27132881109213
20
-4.5231807768357868
30
0
40
1.0000000000000497
210
0
220
0
230
1
100
AcDbArc
50
90.000000000001634
51
270.00000000000244
0
LINE
5
404
100
AcDbEntity
8
CUTOUTS
100
AcDbLine
10
120.2713288110921
20
-3.523180776835737
30
0
11
170.37132881109198
21
-3.5231807768357459
31
0
0
ARC
5
405
100
AcDbEntity
8
CUTOUTS
100
AcDbCircle
10
170.37132881109198
20
-4.5231807768357335
30
0
40
0.99999999999998757
210
-0
220
0
230
1
100
AcDbArc
50
-90
51
90
0
LINE
5
406
100
AcDbEntity
8
CUTOUTS
100
AcDbLine
10
-150.59742118890796
20
-18.667430776835729
30
0
11
-168.35992118890798
21
-18.667430776835729
31
0
0
ARC
5
407
100
AcDbEntity
8
CUTOUTS
100
AcDbCircle
10
-168.35992118890798
20
-18.167430776835729
30
0
40
0.50000000000000711
210
0
220
0
230
1
100
AcDbArc
50
180
51
270
0
LINE
5
408
100
AcDbEntity
8
CUTOUTS
100
AcDbLine
10
-168.85992118890795
20
-18.167430776835729
30
0
11
-168.85992118890795
21
-5.167430776835733
31
0
0
ARC
5
409
100
AcDbEntity
8
CUTOUTS
100
AcDbCircle
10
-168.35992118890798
20
-5.167430776835733
30
0
40
0.49999999999999822
210
0
220
-0
230
1
100
AcDbArc
50
90
51
180
0
LINE
5
40A
100
AcDbEntity
8
CUTOUTS
100
AcDbLine
10
-168.35992118890798
20
-4.6674307768357348
30
0
11
-150.59742118890796
21
-4.6674307768357437
31
0
0
ARC
5
40B
100
AcDbEntity
8
CUTOUTS
100
AcDbCircle
10
-150.59742118890796
20
-5.167430776835733
30
0
40
0.49999999999998934
210
0
220
-0
230
1
100
AcDbArc
50
0
51
90
0
LINE
5
40C
100
AcDbEntity
8
CUTOUTS
100
AcDbLine
10
-150.09742118890796
20
-5.167430776835733
30
0
11
-150.09742118890796
21
-18.167430776835729
31
0
0
ARC
5
40D
100
AcDbEntity
8
CUTOUTS
100
AcDbCircle
10
-150.59742118890796
20
-18.167430776835729
30
0
40
0.49999999999999822
210
-0
220
0
230
1
100
AcDbArc
50
-90
51
0
0
LINE
5
40E
100
AcDbEntity
8
CUTOUTS
100
AcDbLine
10
-173.21427356669284
20
-65.491491403758431
30
0
11
-174.57104669928844
21
-67.841491403758425
31
0
0
LINE
5
40F
100
AcDbEntity
8
CUTOUTS
100
AcDbLine
10
-174.57104669928844
20
-67.841491403758425
30
0
11
-177.28459296447969
21
-67.841491403758425
31
0
0
LINE
5
410
100
AcDbEntity
8
CUTOUTS
100
AcDbLine
10
-177.28459296447966
20
-67.841491403758425
30
0
11
-178.64136609707529
21
-65.491491403758431
31
0
0
LINE
5
411
100
AcDbEntity
8
CUTOUTS
100
AcDbLine
10
-178.64136609707529
20
-65.491491403758431
30
0
11
-177.28459296447966
21
-63.14149140375843
31
0
0
LINE
5
412
100
AcDbEntity
8
CUTOUTS
100
AcDbLine
10
-177.28459296447966
20
-63.14149140375843
30
0
11
-174.57104669928842
21
-63.14149140375843
31
0
0
LINE
5
413
100
AcDbEntity
8
CUTOUTS
100
AcDbLine
10
-174.57104669928844
20
-63.14149140375843
30
0
11
-173.21427356669284
21
-65.491491403758431
31
0
0
ARC
5
414
100
AcDbEntity
8
CUTOUTS
100
AcDbCircle
10
-151.69117118890799
20
19.932569223164258
30
0
40
0.49999999999997158
210
0
220
0
230
1
100
AcDbArc
50
180
51
270
0
LINE
5
415
100
AcDbEntity
8
CUTOUTS
100
AcDbLine
10
-138.69117118890796
20
19.432569223164265
30
0
11
-151.69117118890796
21
19.432569223164275
31
0
0
ARC
5
416
100
AcDbEntity
8
CUTOUTS
100
AcDbCircle
10
-138.69117118890796
20
19.932569223164261
30
0
40
0.49999999999999378
210
-0
220
0
230
1
100
AcDbArc
50
-90
51
0
0
LINE
5
417
100
AcDbEntity
8
CUTOUTS
100
AcDbLine
10
-138.19117118890796
20
32.932569223164272
30
0
11
-138.19117118890796
21
19.932569223164265
31
0
0
ARC
5
418
100
AcDbEntity
8
CUTOUTS
100
AcDbCircle
10
-138.69117118890796
20
32.932569223164272
30
0
40
0.50000000000000711
210
0
220
-0
230
1
100
AcDbArc
50
0
51
90
0
LINE
5
419
100
AcDbEntity
8
CUTOUTS
100
AcDbLine
10
-151.69117118890796
20
33.432569223164272
30
0
11
-138.69117118890796
21
33.432569223164272
31
0
0
ARC
5
41A
100
AcDbEntity
8
CUTOUTS
100
AcDbCircle
10
-151.69117118890796
20
32.932569223164272
30
0
40
0.49999999999999822
210
0
220
-0
230
1
100
AcDbArc
50
90
51
180
0
LINE
5
41B
100
AcDbEntity
8
CUTOUTS
100
AcDbLine
10
-152.19117118890796
20
19.932569223164265
30
0
11
-152.19117118890796
21
32.932569223164272
31
0
0
ARC
5
41C
100
AcDbEntity
8
CUTOUTS
100
AcDbCircle
10
53.096328811092128
20
-5.1674307768357863
30
0
40
0.50000000000005151
210
0
220
0
230
1
100
AcDbArc
50
90.000000000008143
51
180
0
LINE
5
41D
100
AcDbEntity
8
CUTOUTS
100
AcDbLine
10
52.59632881109205
20
-18.167430776835729
30
0
11
52.596328811092086
21
-5.167430776835733
31
0
0
ARC
5
41E
100
AcDbEntity
8
CUTOUTS
100
AcDbCircle
10
53.096328811092022
20
-18.16743077683574
30
0
40
0.49999999999997158
210
0
220
0
230
1
100
AcDbArc
50
180
51
270.00000000000409
0
LINE
5
41F
100
AcDbEntity
8
CUTOUTS
100
AcDbLine
10
66.096328811092064
20
-18.667430776835729
30
0
11
53.096328811092057
21
-18.667430776835712
31
0
0
ARC
5
420
100
AcDbEntity
8
CUTOUTS
100
AcDbCircle
10
66.096328811092064
20
-18.167430776835694
30
0
40
0.50000000000003375
210
-0
220
0
230
1
100
AcDbArc
50
270
51
360
0
LINE
5
421
100
AcDbEntity
8
CUTOUTS
100
AcDbLine
10
66.596328811092064
20
-5.167430776835733
30
0
11
66.596328811092107
21
-18.167430776835729
31
0
0
ARC
5
422
100
AcDbEntity
8
CUTOUTS
100
AcDbCircle
10
66.096328811092093
20
-5.1674307768356975
30
0
40
0.49999999999997158
210
-0
220
0
230
1
100
AcDbArc
50
0
51
90.000000000003254
0
LINE
5
423
100
AcDbEntity
8
CUTOUTS
100
AcDbLine
10
53.096328811092057
20
-4.6674307768357348
30
0
11
66.096328811092064
21
-4.6674307768357259
31
0
0
ARC
5
424
100
AcDbEntity
8
CUTOUTS
100
AcDbCircle
10
85.146328811092076
20
-18.167430776835694
30
0
40
0.50000000000003375
210
-0
220
0
230
1
100
AcDbArc
50
270
51
360
0
LINE
5
425
100
AcDbEntity
8
CUTOUTS
100
AcDbLine
10
85.646328811092076
20
-5.167430776835733
30
0
11
85.646328811092118
21
-18.167430776835729
31
0
0
ARC
5
426
100
AcDbEntity
8
CUTOUTS
100
AcDbCircle
10
85.146328811092104
20
-5.1674307768356975
30
0
40
0.49999999999997158
210
-0
220
0
230
1
100
AcDbArc
50
0
51
90.000000000003254
0
LINE
5
427
100
AcDbEntity
8
CUTOUTS
100
AcDbLine
10
72.146328811092076
20
-4.6674307768357348
30
0
11
85.146328811092076
21
-4.6674307768357259
31
0
0
ARC
5
428
100
AcDbEntity
8
CUTOUTS
100
AcDbCircle
10
72.146328811092133
20
-5.1674307768357863
30
0
40
0.50000000000005151
210
0
220
0
230
1
100
AcDbArc
50
90.000000000006523
51
180
0
LINE
5
429
100
AcDbEntity
8
CUTOUTS
100
AcDbLine
10
71.646328811092062
20
-18.167430776835729
30
0
11
71.646328811092104
21
-5.167430776835733
31
0
0
ARC
5
42A
100
AcDbEntity
8
CUTOUTS
100
AcDbCircle
10
72.146328811092033
20
-18.16743077683574
30
0
40
0.49999999999997158
210
0
220
0
230
1
100
AcDbArc
50
180
51
270.00000000000489
0
LINE
5
42B
100
AcDbEntity
8
CUTOUTS
100
AcDbLine
10
85.146328811092076
20
-18.667430776835729
30
0
11
72.146328811092076
21
-18.667430776835712
31
0
0
LINE
5
42C
100
AcDbEntity
8
CUTOUTS
100
AcDbLine
10
71.646328811092062
20
43.745069223164272
30
0
11
71.646328811092062
21
56.745069223164265
31
0
0
ARC
5
42D
100
AcDbEntity
8
CUTOUTS
100
AcDbCircle
10
72.146328811092104
20
56.745069223164222
30
0
40
0.50000000000005151
210
0
220
0
230
1
100
AcDbArc
50
90.000000000003254
51
180
0
LINE
5
42E
100
AcDbEntity
8
CUTOUTS
100
AcDbLine
10
72.146328811092076
20
57.245069223164265
30
0
11
85.146328811092076
21
57.245069223164265
31
0
0
ARC
5
42F
100
AcDbEntity
8
CUTOUTS
100
AcDbCircle
10
85.146328811092104
20
56.745069223164307
30
0
40
0.49999999999997158
210
-0
220
0
230
1
100
AcDbArc
50
0
51
90.000000000003254
0
LINE
5
430
100
AcDbEntity
8
CUTOUTS
100
AcDbLine
10
85.646328811092076
20
56.745069223164265
30
0
11
85.646328811092076
21
43.745069223164279
31
0
0
ARC
5
431
100
AcDbEntity
8
CUTOUTS
100
AcDbCircle
10
85.146328811092076
20
43.745069223164293
30
0
40
0.50000000000002487
210
-0
220
0
230
1
100
AcDbArc
50
270
51
360
0
LINE
5
432
100
AcDbEntity
8
CUTOUTS
100
AcDbLine
10
85.146328811092076
20
43.245069223164272
30
0
11
72.146328811092076
21
43.245069223164272
31
0
0
ARC
5
433
100
AcDbEntity
8
CUTOUTS
100
AcDbCircle
10
72.146328811092033
20
43.745069223164265
30
0
40
0.49999999999997158
210
0
220
0
230
1
100
AcDbArc
50
180
51
270.00000000000324
0
LINE
5
434
100
AcDbEntity
8
CUTOUTS
100
AcDbLine
10
-33.91617118890796
20
0.38256922316426412
30
0
11
-46.916171188907953
21
0.38256922316426412
31
0
0
ARC
5
435
100
AcDbEntity
8
CUTOUTS
100
AcDbCircle
10
-46.916171188907931
20
0.8825692231642801
30
0
40
0.50000000000002487
210
0
220
0
230
1
100
AcDbArc
50
180
51
269.99999999999756
0
LINE
5
436
100
AcDbEntity
8
CUTOUTS
100
AcDbLine
10
-47.416171188907953
20
0.88256922316426234
30
0
11
-47.416171188907938
21
13.882569223164269
31
0
0
ARC
5
437
100
AcDbEntity
8
CUTOUTS
100
AcDbCircle
10
-46.916171188907953
20
13.882569223164278
30
0
40
0.49999999999998934
210
0
220
-0
230
1
100
AcDbArc
50
90
51
180
0
LINE
5
438
100
AcDbEntity
8
CUTOUTS
100
AcDbLine
10
-46.916171188907953
20
14.382569223164268
30
0
11
-33.91617118890796
21
14.382569223164268
31
0
0
ARC
5
439
100
AcDbEntity
8
CUTOUTS
100
AcDbCircle
10
-33.91617118890796
20
13.882569223164269
30
0
40
0.50000000000000711
210
0
220
-0
230
1
100
AcDbArc
50
0
51
90
0
LINE
5
43A
100
AcDbEntity
8
CUTOUTS
100
AcDbLine
10
-33.416171188907953
20
13.882569223164269
30
0
11
-33.416171188907953
21
0.88256922316426234
31
0
0
ARC
5
43B
100
AcDbEntity
8
CUTOUTS
100
AcDbCircle
10
-33.91617118890796
20
0.88256922316427122
30
0
40
0.50000000000000711
210
-0
220
0
230
1
100
AcDbArc
50
270
51
360
0
ARC
5
43C
100
AcDbEntity
8
CUTOUTS
100
AcDbCircle
10
18.471328811092071
20
-37.217430776835755
30
0
40
0.49999999999998934
210
-0
220
0
230
1
100
AcDbArc
50
-90
51
0
0
LINE
5
43D
100
AcDbEntity
8
CUTOUTS
100
AcDbLine
10
18.971328811092079
20
-24.217430776835727
30
0
11
18.971328811092043
21
-37.217430776835734
31
0
0
ARC
5
43E
100
AcDbEntity
8
CUTOUTS
100
AcDbCircle
10
18.471328811092071
20
-24.217430776835709
30
0
40
0.50000000000000711
210
-0
220
0
230
1
100
AcDbArc
50
0
51
90
0
LINE
5
43F
100
AcDbEntity
8
CUTOUTS
100
AcDbLine
10
5.4713288110920644
20
-23.717430776835737
30
0
11
18.471328811092071
21
-23.717430776835702
31
0
0
ARC
5
440
100
AcDbEntity
8
CUTOUTS
100
AcDbCircle
10
5.4713288110920644
20
-24.217430776835744
30
0
40
0.50000000000000711
210
0
220
-0
230
1
100
AcDbArc
50
90
51
180
0
LINE
5
441
100
AcDbEntity
8
CUTOUTS
100
AcDbLine
10
4.9713288110920573
20
-37.217430776835734
30
0
11
4.9713288110920573
21
-24.217430776835727
31
0
0
ARC
5
442
100
AcDbEntity
8
CUTOUTS
100
AcDbCircle
10
5.4713288110920288
20
-37.217430776835769
30
0
40
0.49999999999997158
210
0
220
0
230
1
100
AcDbArc
50
180
51
270.00000000000409
0
LINE
5
443
100
AcDbEntity
8
CUTOUTS
100
AcDbLine
10
18.471328811092071
20
-37.717430776835741
30
0
11
5.4713288110920644
21
-37.717430776835741
31
0
0
ARC
5
444
100
AcDbEntity
8
CUTOUTS
100
AcDbCircle
10
157.87132881109213
20
19.932569223164339
30
0
40
0.50000000000004263
210
0
220
0
230
1
100
AcDbArc
50
180
51
269.99999999999022
0
LINE
5
445
100
AcDbEntity
8
CUTOUTS
100
AcDbLine
10
170.87132881109201
20
19.432569223164265
30
0
11
157.87132881109204
21
19.432569223164265
31
0
0
ARC
5
446
100
AcDbEntity
8
CUTOUTS
100
AcDbCircle
10
170.8713288110921
20
19.932569223164172
30
0
40
0.49999999999990496
210
0
220
0
230
1
100
AcDbArc
50
-90.000000000009777
51
0
0
LINE
5
447
100
AcDbEntity
8
CUTOUTS
100
AcDbLine
10
171.37132881109207
20
32.932569223164272
30
0
11
171.37132881109207
21
19.932569223164265
31
0
0
ARC
5
448
100
AcDbEntity
8
CUTOUTS
100
AcDbCircle
10
170.87132881109201
20
32.932569223164272
30
0
40
0.50000000000004263
210
0
220
-0
230
1
100
AcDbArc
50
0
51
90
0
LINE
5
449
100
AcDbEntity
8
CUTOUTS
100
AcDbLine
10
157.87132881109204
20
33.432569223164272
30
0
11
170.87132881109201
21
33.432569223164272
31
0
0
ARC
5
44A
100
AcDbEntity
8
CUTOUTS
100
AcDbCircle
10
157.87132881109198
20
32.932569223164371
30
0
40
0.49999999999990052
210
0
220
-0
230
1
100
AcDbArc
50
89.999999999993491
51
180
0
LINE
5
44B
100
AcDbEntity
8
CUTOUTS
100
AcDbLine
10
157.37132881109207
20
19.932569223164268
30
0
11
157.37132881109207
21
32.932569223164272
31
0
0
ARC
5
44C
100
AcDbEntity
8
CUTOUTS
100
AcDbCircle
10
80.383828811092073
20
0.88256922316429787
30
0
40
0.50000000000003375
210
-0
220
0
230
1
100
AcDbArc
50
270
51
360
0
LINE
5
44D
100
AcDbEntity
8
CUTOUTS
100
AcDbLine
10
80.883828811092087
20
13.882569223164269
30
0
11
80.883828811092116
21
0.88256922316426234
31
0
0
ARC
5
44E
100
AcDbEntity
8
CUTOUTS
100
AcDbCircle
10
80.383828811092116
20
13.882569223164296
30
0
40
0.49999999999997158
210
-0
220
0
230
1
100
AcDbArc
50
0
51
90.000000000003254
0
LINE
5
44F
100
AcDbEntity
8
CUTOUTS
100
AcDbLine
10
67.383828811092059
20
14.382569223164268
30
0
11
80.383828811092073
21
14.382569223164268
31
0
0
ARC
5
450
100
AcDbEntity
8
CUTOUTS
100
AcDbCircle
10
67.383828811092144
20
13.882569223164216
30
0
40
0.50000000000005151
210
0
220
0
230
1
100
AcDbArc
50
90.000000000009777
51
180
0
LINE
5
451
100
AcDbEntity
8
CUTOUTS
100
AcDbLine
10
66.883828811092059
20
0.88256922316426234
30
0
11
66.883828811092087
21
13.882569223164269
31
0
0
ARC
5
452
100
AcDbEntity
8
CUTOUTS
100
AcDbCircle
10
67.38382881109203
20
0.88256922316425346
30
0
40
0.49999999999997158
210
0
220
0
230
1
100
AcDbArc
50
180
51
270.00000000000324
0
LINE
5
453
100
AcDbEntity
8
CUTOUTS
100
AcDbLine
10
80.383828811092073
20
0.38256922316426412
30
0
11
67.383828811092059
21
0.38256922316428188
31
0
0
LINE
5
454
100
AcDbEntity
8
CUTOUTS
100
AcDbLine
10
-173.11791263657724
20
65.490518217088322
30
0
11
-174.47468576917288
21
63.140518217088335
31
0
0
LINE
5
455
100
AcDbEntity
8
CUTOUTS
100
AcDbLine
10
-174.47468576917288
20
63.140518217088335
30
0
11
-177.18823203436412
21
63.140518217088335
31
0
0
LINE
5
456
100
AcDbEntity
8
CUTOUTS
100
AcDbLine
10
-177.18823203436415
20
63.140518217088335
30
0
11
-178.54500516695978
21
65.490518217088322
31
0
0
LINE
5
457
100
AcDbEntity
8
CUTOUTS
100
AcDbLine
10
-178.54500516695975
20
65.490518217088322
30
0
11
-177.18823203436415
21
67.840518217088317
31
0
0
LINE
5
458
100
AcDbEntity
8
CUTOUTS
100
AcDbLine
10
-177.18823203436415
20
67.840518217088317
30
0
11
-174.47468576917288
21
67.840518217088317
31
0
0
LINE
5
459
100
AcDbEntity
8
CUTOUTS
100
AcDbLine
10
-174.47468576917288
20
67.840518217088317
30
0
11
-173.11791263657724
21
65.490518217088322
31
0
0
LINE
5
45A
100
AcDbEntity
8
CUTOUTS
100
AcDbLine
10
71.358828811092081
20
32.932569223164272
30
0
11
71.358828811092081
21
19.932569223164265
31
0
0
ARC
5
45B
100
AcDbEntity
8
CUTOUTS
100
AcDbCircle
10
70.85882881109211
20
19.932569223164233
30
0
40
0.49999999999996714
210
0
220
0
230
1
100
AcDbArc
50
-90.000000000004889
51
0
0
LINE
5
45C
100
AcDbEntity
8
CUTOUTS
100
AcDbLine
10
70.858828811092067
20
19.432569223164265
30
0
11
57.85882881109206
21
19.432569223164265
31
0
0
ARC
5
45D
100
AcDbEntity
8
CUTOUTS
100
AcDbCircle
10
57.85882881109206
20
19.932569223164261
30
0
40
0.50000000000000711
210
0
220
0
230
1
100
AcDbArc
50
180
51
270
0
LINE
5
45E
100
AcDbEntity
8
CUTOUTS
100
AcDbLine
10
57.358828811092053
20
19.932569223164268
30
0
11
57.358828811092053
21
32.932569223164272
31
0
0
ARC
5
45F
100
AcDbEntity
8
CUTOUTS
100
AcDbCircle
10
57.858828811092096
20
32.932569223164222
30
0
40
0.50000000000004707
210
0
220
0
230
1
100
AcDbArc
50
90.000000000004079
51
180
0
LINE
5
460
100
AcDbEntity
8
CUTOUTS
100
AcDbLine
10
57.85882881109206
20
33.432569223164272
30
0
11
70.858828811092067
21
33.432569223164279
31
0
0
ARC
5
461
100
AcDbEntity
8
CUTOUTS
100
AcDbCircle
10
70.85882881109211
20
32.9325692231643
30
0
40
0.49999999999997158
210
-0
220
0
230
1
100
AcDbArc
50
0
51
90.000000000004889
0
LINE
5
462
100
AcDbEntity
8
CUTOUTS
100
AcDbLine
10
14.496328811092027
20
43.745069223164272
30
0
11
14.496328811092027
21
56.745069223164265
31
0
0
ARC
5
463
100
AcDbEntity
8
CUTOUTS
100
AcDbCircle
10
14.99632881109207
20
56.745069223164222
30
0
40
0.50000000000005151
210
0
220
0
230
1
100
AcDbArc
50
90.000000000004079
51
180
0
LINE
5
464
100
AcDbEntity
8
CUTOUTS
100
AcDbLine
10
14.996328811092035
20
57.245069223164265
30
0
11
27.996328811092042
21
57.245069223164279
31
0
0
ARC
5
465
100
AcDbEntity
8
CUTOUTS
100
AcDbCircle
10
27.996328811092077
20
56.745069223164307
30
0
40
0.49999999999997158
210
-0
220
0
230
1
100
AcDbArc
50
0
51
90.000000000004079
0
LINE
5
466
100
AcDbEntity
8
CUTOUTS
100
AcDbLine
10
28.496328811092049
20
56.745069223164265
30
0
11
28.496328811092049
21
43.745069223164279
31
0
0
ARC
5
467
100
AcDbEntity
8
CUTOUTS
100
AcDbCircle
10
27.996328811092042
20
43.745069223164293
30
0
40
0.50000000000002487
210
-0
220
0
230
1
100
AcDbArc
50
270
51
360
0
LINE
5
468
100
AcDbEntity
8
CUTOUTS
100
AcDbLine
10
27.996328811092042
20
43.245069223164272
30
0
11
14.996328811092035
21
43.245069223164272
31
0
0
ARC
5
469
100
AcDbEntity
8
CUTOUTS
100
AcDbCircle
10
14.996328811091999
20
43.745069223164265
30
0
40
0.49999999999997158
210
0
220
0
230
1
100
AcDbArc
50
180
51
270.00000000000409
0
LINE
5
46A
100
AcDbEntity
8
CUTOUTS
100
AcDbLine
10
76.852078811092042
20
-39.717430776835734
30
0
11
70.852078811092056
21
-39.717430776835734
31
0
0
ARC
5
46B
100
AcDbEntity
8
CUTOUTS
100
AcDbCircle
10
70.852078811092014
20
-39.217430776835762
30
0
40
0.49999999999997158
210
0
220
0
230
1
100
AcDbArc
50
180
51
270.00000000000489
0
LINE
5
46C
100
AcDbEntity
8
CUTOUTS
100
AcDbLine
10
70.352078811092042
20
-39.217430776835727
30
0
11
70.352078811092042
21
-37.717430776835741
31
0
0
LINE
5
46D
100
AcDbEntity
8
CUTOUTS
100
AcDbLine
10
70.352078811092042
20
-37.717430776835741
30
0
11
69.765078811092067
21
-37.717430776835741
31
0
0
ARC
5
46E
100
AcDbEntity
8
CUTOUTS
100
AcDbCircle
10
69.765078811092025
20
-37.217430776835769
30
0
40
0.49999999999997158
210
0
220
0
230
1
100
AcDbArc
50
180
51
270.00000000000489
0
LINE
5
46F
100
AcDbEntity
8
CUTOUTS
100
AcDbLine
10
69.265078811092053
20
-37.217430776835734
30
0
11
69.265078811092053
21
-24.217430776835727
31
0
0
ARC
5
470
100
AcDbEntity
8
CUTOUTS
100
AcDbCircle
10
69.765078811092067
20
-24.217430776835744
30
0
40
0.50000000000000711
210
0
220
-0
230
1
100
AcDbArc
50
90
51
180
0
LINE
5
471
100
AcDbEntity
8
CUTOUTS
100
AcDbLine
10
69.765078811092067
20
-23.717430776835737
30
0
11
92.290078811092044
21
-23.71743077683572
31
0
0
ARC
5
472
100
AcDbEntity
8
CUTOUTS
100
AcDbCircle
10
92.290078811092087
20
-24.217430776835691
30
0
40
0.49999999999997158
210
-0
220
0
230
1
100
AcDbArc
50
0
51
90.000000000004889
0
LINE
5
473
100
AcDbEntity
8
CUTOUTS
100
AcDbLine
10
92.790078811092059
20
-24.217430776835727
30
0
11
92.790078811092059
21
-37.217430776835734
31
0
0
ARC
5
474
100
AcDbEntity
8
CUTOUTS
100
AcDbCircle
10
92.290078811092087
20
-37.217430776835769
30
0
40
0.49999999999997158
210
0
220
0
230
1
100
AcDbArc
50
-90.000000000004889
51
0
0
LINE
5
475
100
AcDbEntity
8
CUTOUTS
100
AcDbLine
10
92.290078811092044
20
-37.717430776835741
30
0
11
77.352078811092042
21
-37.717430776835741
31
0
0
LINE
5
476
100
AcDbEntity
8
CUTOUTS
100
AcDbLine
10
77.352078811092042
20
-37.717430776835741
30
0
11
77.352078811092042
21
-39.217430776835727
31
0
0
ARC
5
477
100
AcDbEntity
8
CUTOUTS
100
AcDbCircle
10
76.852078811092042
20
-39.217430776835741
30
0
40
0.49999999999998934
210
-0
220
0
230
1
100
AcDbArc
50
-90
51
0
0
LINE
5
478
100
AcDbEntity
8
CUTOUTS
100
AcDbLine
10
47.54632881109206
20
56.745069223164265
30
0
11
47.54632881109206
21
43.745069223164279
31
0
0
ARC
5
479
100
AcDbEntity
8
CUTOUTS
100
AcDbCircle
10
47.046328811092053
20
43.745069223164293
30
0
40
0.50000000000002487
210
-0
220
0
230
1
100
AcDbArc
50
270
51
360
0
LINE
5
47A
100
AcDbEntity
8
CUTOUTS
100
AcDbLine
10
47.046328811092053
20
43.245069223164272
30
0
11
34.046328811092046
21
43.245069223164272
31
0
0
ARC
5
47B
100
AcDbEntity
8
CUTOUTS
100
AcDbCircle
10
34.04632881109201
20
43.745069223164265
30
0
40
0.49999999999997158
210
0
220
0
230
1
100
AcDbArc
50
180
51
270.00000000000409
0
LINE
5
47C
100
AcDbEntity
8
CUTOUTS
100
AcDbLine
10
33.546328811092039
20
43.745069223164272
30
0
11
33.546328811092039
21
56.745069223164265
31
0
0
ARC
5
47D
100
AcDbEntity
8
CUTOUTS
100
AcDbCircle
10
34.046328811092081
20
56.745069223164222
30
0
40
0.50000000000005151
210
0
220
0
230
1
100
AcDbArc
50
90.000000000004079
51
180
0
LINE
5
47E
100
AcDbEntity
8
CUTOUTS
100
AcDbLine
10
34.046328811092046
20
57.245069223164265
30
0
11
47.046328811092053
21
57.245069223164279
31
0
0
ARC
5
47F
100
AcDbEntity
8
CUTOUTS
100
AcDbCircle
10
47.046328811092089
20
56.745069223164307
30
0
40
0.49999999999997158
210
-0
220
0
230
1
100
AcDbArc
50
0
51
90.000000000004079
0
LINE
5
480
100
AcDbEntity
8
CUTOUTS
100
AcDbLine
10
29.283828811092079
20
14.382569223164268
30
0
11
42.283828811092086
21
14.382569223164241
31
0
0
ARC
5
481
100
AcDbEntity
8
CUTOUTS
100
AcDbCircle
10
42.283828811092086
20
13.882569223164278
30
0
40
0.49999999999997158
210
-0
220
0
230
1
100
AcDbArc
50
0
51
90
0
LINE
5
482
100
AcDbEntity
8
CUTOUTS
100
AcDbLine
10
42.783828811092057
20
13.882569223164269
30
0
11
42.783828811092093
21
0.88256922316426234
31
0
0
ARC
5
483
100
AcDbEntity
8
CUTOUTS
100
AcDbCircle
10
42.283828811092015
20
0.88256922316431563
30
0
40
0.50000000000005151
210
-0
220
0
230
1
100
AcDbArc
50
270.00000000000813
51
360
0
LINE
5
484
100
AcDbEntity
8
CUTOUTS
100
AcDbLine
10
42.283828811092086
20
0.38256922316426412
30
0
11
29.283828811092079
21
0.38256922316425523
31
0
0
ARC
5
485
100
AcDbEntity
8
CUTOUTS
100
AcDbCircle
10
29.283828811092043
20
0.88256922316423569
30
0
40
0.49999999999997158
210
0
220
0
230
1
100
AcDbArc
50
180
51
270.00000000000409
0
LINE
5
486
100
AcDbEntity
8
CUTOUTS
100
AcDbLine
10
28.783828811092071
20
0.88256922316426234
30
0
11
28.783828811092036
21
13.882569223164269
31
0
0
ARC
5
487
100
AcDbEntity
8
CUTOUTS
100
AcDbCircle
10
29.283828811092079
20
13.882569223164234
30
0
40
0.50000000000003375
210
0
220
-0
230
1
100
AcDbArc
50
90
51
180
0
ARC
5
488
100
AcDbEntity
8
CUTOUTS
100
AcDbCircle
10
105.577578811092
20
-17.08043077683568
30
0
40
0.50000000000005151
210
-0
220
0
230
1
100
AcDbArc
50
270.00000000000978
51
360
0
LINE
5
489
100
AcDbEntity
8
CUTOUTS
100
AcDbLine
10
106.07757881109205
20
-11.080430776835728
30
0
11
106.07757881109208
21
-17.080430776835733
31
0
0
ARC
5
48A
100
AcDbEntity
8
CUTOUTS
100
AcDbCircle
10
105.57757881109208
20
-11.080430776835719
30
0
40
0.49999999999997158
210
-0
220
0
230
1
100
AcDbArc
50
0
51
90
0
LINE
5
48B
100
AcDbEntity
8
CUTOUTS
100
AcDbLine
10
91.577578811092053
20
-10.58043077683573
30
0
11
105.57757881109208
21
-10.580430776835748
31
0
0
ARC
5
48C
100
AcDbEntity
8
CUTOUTS
100
AcDbCircle
10
91.577578811092053
20
-11.080430776835763
30
0
40
0.50000000000003375
210
0
220
-0
230
1
100
AcDbArc
50
90
51
180
0
LINE
5
48D
100
AcDbEntity
8
CUTOUTS
100
AcDbLine
10
91.077578811092053
20
-17.080430776835733
30
0
11
91.077578811092053
21
-11.080430776835728
31
0
0
ARC
5
48E
100
AcDbEntity
8
CUTOUTS
100
AcDbCircle
10
91.577578811092025
20
-17.080430776835769
30
0
40
0.49999999999997158
210
0
220
0
230
1
100
AcDbArc
50
180
51
270.00000000000324
0
LINE
5
48F
100
AcDbEntity
8
CUTOUTS
100
AcDbLine
10
105.57757881109208
20
-17.580430776835733
30
0
11
91.577578811092053
21
-17.58043077683574
31
0
0
LINE
5
490
100
AcDbEntity
8
CUTOUTS
100
AcDbLine
10
91.577578811092053
20
13.29556922316427
30
0
11
105.57757881109208
21
13.295569223164261
31
0
0
ARC
5
491
100
AcDbEntity
8
CUTOUTS
100
AcDbCircle
10
105.57757881109211
20
12.795569223164289
30
0
40
0.49999999999997158
210
-0
220
0
230
1
100
AcDbArc
50
0
51
90.000000000003254
0
LINE
5
492
100
AcDbEntity
8
CUTOUTS
100
AcDbLine
10
106.07757881109208
20
12.795569223164271
30
0
11
106.07757881109205
21
6.7955692231642661
31
0
0
ARC
5
493
100
AcDbEntity
8
CUTOUTS
100
AcDbCircle
10
105.577578811092
20
6.7955692231643194
30
0
40
0.50000000000005151
210
-0
220
0
230
1
100
AcDbArc
50
270.00000000000978
51
360
0
LINE
5
494
100
AcDbEntity
8
CUTOUTS
100
AcDbLine
10
105.57757881109208
20
6.2955692231642679
30
0
11
91.577578811092053
21
6.2955692231642679
31
0
0
ARC
5
495
100
AcDbEntity
8
CUTOUTS
100
AcDbCircle
10
91.577578811092025
20
6.7955692231642395
30
0
40
0.49999999999997158
210
0
220
0
230
1
100
AcDbArc
50
180
51
270.00000000000159
0
LINE
5
496
100
AcDbEntity
8
CUTOUTS
100
AcDbLine
10
91.077578811092053
20
6.7955692231642661
30
0
11
91.07757881109201
21
12.795569223164271
31
0
0
ARC
5
497
100
AcDbEntity
8
CUTOUTS
100
AcDbCircle
10
91.577578811092053
20
12.795569223164236
30
0
40
0.50000000000003375
210
0
220
-0
230
1
100
AcDbArc
50
90
51
180
0
ARC
5
498
100
AcDbEntity
8
CUTOUTS
100
AcDbCircle
10
-62.491171188907941
20
32.932569223164265
30
0
40
0.50000000000000711
210
0
220
-0
230
1
100
AcDbArc
50
0
51
89.99999999999919
0
LINE
5
499
100
AcDbEntity
8
CUTOUTS
100
AcDbLine
10
-75.491171188907941
20
33.432569223164272
30
0
11
-62.491171188907941
21
33.432569223164279
31
0
0
ARC
5
49A
100
AcDbEntity
8
CUTOUTS
100
AcDbCircle
10
-75.49117118890797
20
32.932569223164272
30
0
40
0.49999999999999822
210
0
220
-0
230
1
100
AcDbArc
50
89.999999999996746
51
180
0
LINE
5
49B
100
AcDbEntity
8
CUTOUTS
100
AcDbLine
10
-75.991171188907941
20
19.932569223164268
30
0
11
-75.991171188907956
21
32.932569223164272
31
0
0
ARC
5
49C
100
AcDbEntity
8
CUTOUTS
100
AcDbCircle
10
-75.49117118890797
20
19.932569223164258
30
0
40
0.49999999999997158
210
0
220
0
230
1
100
AcDbArc
50
180
51
270.00000000000159
0
LINE
5
49D
100
AcDbEntity
8
CUTOUTS
100
AcDbLine
10
-62.491171188907941
20
19.432569223164265
30
0
11
-75.491171188907941
21
19.432569223164265
31
0
0
ARC
5
49E
100
AcDbEntity
8
CUTOUTS
100
AcDbCircle
10
-62.491171188907927
20
19.932569223164265
30
0
40
0.49999999999999822
210
0
220
0
230
1
100
AcDbArc
50
-90.000000000001634
51
0
0
LINE
5
49F
100
AcDbEntity
8
CUTOUTS
100
AcDbLine
10
-61.991171188907934
20
32.932569223164272
30
0
11
-61.991171188907934
21
19.932569223164265
31
0
0
ARC
5
4A0
100
AcDbEntity
8
PERIMETER
100
AcDbCircle
10
119.77132881109206
20
43.745069223164265
30
0
40
0.49999999999997158
210
0
220
0
230
1
100
AcDbArc
50
180
51
270.00000000000489
0
LINE
5
4A1
100
AcDbEntity
8
PERIMETER
100
AcDbLine
10
119.27132881109209
20
43.745069223164272
30
0
11
119.27132881109209
21
53.245069223164272
31
0
0
ARC
5
4A2
100
AcDbEntity
8
PERIMETER
100
AcDbCircle
10
118.77132881109208
20
53.245069223164272
30
0
40
0.50000000000000711
210
-0
220
0
230
1
100
AcDbArc
50
0
51
90
0
LINE
5
4A3
100
AcDbEntity
8
PERIMETER
100
AcDbLine
10
118.77132881109208
20
53.745069223164279
30
0
11
109.9588288110921
21
53.745069223164279
31
0
0
ARC
5
4A4
100
AcDbEntity
8
PERIMETER
100
AcDbCircle
10
109.95882881109208
20
53.245069223164293
30
0
40
0.49999999999998934
210
0
220
-0
230
1
100
AcDbArc
50
89.999999999996746
51
180
0
LINE
5
4A5
100
AcDbEntity
8
PERIMETER
100
AcDbLine
10
109.4588288110921
20
53.245069223164272
30
0
11
109.4588288110921
21
43.745069223164279
31
0
0
ARC
5
4A6
100
AcDbEntity
8
PERIMETER
100
AcDbCircle
10
108.95882881109209
20
43.745069223164293
30
0
40
0.50000000000002487
210
-0
220
0
230
1
100
AcDbArc
50
270
51
360
0
LINE
5
4A7
100
AcDbEntity
8
PERIMETER
100
AcDbLine
10
108.95882881109209
20
43.245069223164272
30
0
11
95.958828811092076
21
43.245069223164272
31
0
0
ARC
5
4A8
100
AcDbEntity
8
PERIMETER
100
AcDbCircle
10
95.958828811092047
20
43.745069223164265
30
0
40
0.49999999999997158
210
0
220
0
230
1
100
AcDbArc
50
180
51
270.00000000000324
0
LINE
5
4A9
100
AcDbEntity
8
PERIMETER
100
AcDbLine
10
95.458828811092076
20
43.745069223164272
30
0
11
95.458828811092076
21
56.745069223164265
31
0
0
ARC
5
4AA
100
AcDbEntity
8
PERIMETER
100
AcDbCircle
10
95.958828811092118
20
56.745069223164222
30
0
40
0.50000000000005151
210
0
220
0
230
1
100
AcDbArc
50
90.000000000004889
51
180
0
LINE
5
4AB
100
AcDbEntity
8
PERIMETER
100
AcDbLine
10
95.958828811092076
20
57.245069223164279
30
0
11
106.95882766146883
21
57.245073016881669
31
0
0
ARC
5
4AC
100
AcDbEntity
8
PERIMETER
100
AcDbCircle
10
106.95882748902716
20
57.745073016881577
30
0
40
0.49999999999993916
210
-0
220
0
230
1
100
AcDbArc
50
-89.999980239639811
51
0.00015149611320898552
0
LINE
5
4AD
100
AcDbEntity
8
PERIMETER
100
AcDbLine
10
107.45882748902534
20
57.745074338934764
30
0
11
107.45878717638597
21
72.99129914073049
31
0
0
ARC
5
4AE
100
AcDbEntity
8
PERIMETER
100
AcDbCircle
10
104.95878717639471
20
72.991292530464705
30
0
40
2.4999999999999996
210
0
220
-0
230
1
100
AcDbArc
50
0.00015149611320898552
51
90.000151496132389
0
LINE
5
4AF
100
AcDbEntity
8
PERIMETER
100
AcDbLine
10
104.95878056612892
20
75.491292530455951
30
0
11
-176.18992719249565
21
75.49054914338052
31
0
0
ARC
5
4B0
100
AcDbEntity
8
PERIMETER
100
AcDbCircle
10
-176.18990075143245
20
65.490549143415478
30
0
40
10.000000000000007
210
0
220
0
230
1
100
AcDbArc
50
90.000151496132716
51
180.00469079216342
0
LINE
5
4B1
100
AcDbEntity
8
PERIMETER
100
AcDbLine
10
-186.18990071791916
20
65.489730445733898
30
0
11
-186.17917724861991
21
-65.492309747753339
31
0
0
ARC
5
4B2
100
AcDbEntity
8
PERIMETER
100
AcDbCircle
10
-176.1791772821332
20
-65.491491050071772
30
0
40
9.9999999999999787
210
0
220
0
230
1
100
AcDbArc
50
180.00469079216342
51
269.99999987728256
0
LINE
5
4B3
100
AcDbEntity
8
PERIMETER
100
AcDbLine
10
-176.17917730355146
20
-75.491491050071772
30
0
11
176.19023874679948
21
-75.4914918047848
31
0
0
ARC
5
4B4
100
AcDbEntity
8
PERIMETER
100
AcDbCircle
10
176.19023876821774
20
-65.4914918047848
30
0
40
10
210
0
220
0
230
1
100
AcDbArc
50
269.99999987728256
51
360
0
LINE
5
4B5
100
AcDbEntity
8
PERIMETER
100
AcDbLine
10
186.19023876821774
20
-65.491491885035046
30
0
11
186.19023981935928
21
65.491480793717244
31
0
0
ARC
5
4B6
100
AcDbEntity
8
PERIMETER
100
AcDbCircle
10
176.1902398193541
20
65.49148087396749
30
0
40
10.000000000005187
210
-0
220
0
230
1
100
AcDbArc
50
0
51
90.000151496102418
0
LINE
5
4B7
100
AcDbEntity
8
PERIMETER
100
AcDbLine
10
176.19021337829619
20
75.491480873937718
30
0
11
123.77128056600441
21
75.491346238865617
31
0
0
ARC
5
4B8
100
AcDbEntity
8
PERIMETER
100
AcDbCircle
10
123.77128717627019
20
72.991346238874371
30
0
40
2.4999999999999996
210
0
220
0
230
1
100
AcDbArc
50
90.000151496132389
51
180.0001514961132
0
LINE
5
4B9
100
AcDbEntity
8
PERIMETER
100
AcDbLine
10
121.27128717627895
20
72.991339628608529
30
0
11
121.27132748904242
21
57.745067901111113
31
0
0
ARC
5
4BA
100
AcDbEntity
8
PERIMETER
100
AcDbCircle
10
121.77132748904064
20
57.745069223164265
30
0
40
0.49999999999997857
210
0
220
0
230
1
100
AcDbArc
50
180.0001514961132
51
270.00000000000489
0
LINE
5
4BB
100
AcDbEntity
8
PERIMETER
100
AcDbLine
10
121.77132748904069
20
57.245069223164286
30
0
11
132.77132881109208
21
57.245069223164279
31
0
0
ARC
5
4BC
100
AcDbEntity
8
PERIMETER
100
AcDbCircle
10
132.77132881109208
20
56.745069223164286
30
0
40
0.50000000000000711
210
-0
220
0
230
1
100
AcDbArc
50
0
51
90
0
LINE
5
4BD
100
AcDbEntity
8
PERIMETER
100
AcDbLine
10
133.27132881109208
20
56.745069223164265
30
0
11
133.27132881109208
21
43.745069223164279
31
0
0
ARC
5
4BE
100
AcDbEntity
8
PERIMETER
100
AcDbCircle
10
132.77132881109202
20
43.745069223164315
30
0
40
0.50000000000004263
210
-0
220
0
230
1
100
AcDbArc
50
270.00000000000648
51
360
0
LINE
5
4BF
100
AcDbEntity
8
PERIMETER
100
AcDbLine
10
132.77132881109208
20
43.245069223164272
30
0
11
119.7713288110921
21
43.245069223164272
31
0
0
ENDSEC
0
SECTION
2
OBJECTS
0
DICTIONARY
5
C
100
AcDbDictionary
3
ACAD_GROUP
350
D
3
ACAD_MLINESTYLE
350
17
0
DICTIONARY
5
D
100
AcDbDictionary
0
DICTIONARY
5
1A
330
C
100
AcDbDictionary
0
DICTIONARY
5
17
100
AcDbDictionary
0
ENDSEC
0
EOF
