0
SECTION
2
HEADER
9
$INSUNITS
70
4
9
$ACADVER
1
AC1014
9
$HANDSEED
5
FFFF
0
ENDSEC
0
SECTION
2
TABLES
0
TABLE
2
VPORT
5
8
100
AcDbSymbolTable
0
ENDTAB
0
TABLE
2
LTYPE
5
5
100
AcDbSymbolTable
0
LTYPE
5
14
100
AcDbSymbolTableRecord
100
AcDbLinetypeTableRecord
2
BYBLOCK
70
0
0
LTYPE
5
15
100
AcDbSymbolTableRecord
100
AcDbLinetypeTableRecord
2
BYLAYER
70
0
0
ENDTAB
0
TABLE
2
LAYER
5
2
100
AcDbSymbolTable
70
2
0
LAYER
5
50
100
AcDbSymbolTableRecord
100
AcDbLayerTableRecord
2
0
70
0
6
CONTINUOUS
0
ENDTAB
0
TABLE
2
STYLE
5
3
100
AcDbSymbolTable
70
1
0
STYLE
5
11
100
AcDbSymbolTableRecord
100
AcDbTextStyleTableRecord
2
STANDARD
70
0
0
ENDTAB
0
TABLE
2
VIEW
5
6
100
AcDbSymbolTable
70
0
0
ENDTAB
0
TABLE
2
UCS
5
7
100
AcDbSymbolTable
70
0
0
ENDTAB
0
TABLE
2
APPID
5
9
100
AcDbSymbolTable
70
2
0
APPID
5
12
100
AcDbSymbolTableRecord
100
AcDbRegAppTableRecord
2
ACAD
70
0
0
ENDTAB
0
TABLE
2
DIMSTYLE
5
A
100
AcDbSymbolTable
70
1
0
ENDTAB
0
TABLE
2
BLOCK_RECORD
5
1
100
AcDbSymbolTable
70
1
0
BLOCK_RECORD
5
1F
100
AcDbSymbolTableRecord
100
AcDbBlockTableRecord
2
*MODEL_SPACE
0
BLOCK_RECORD
5
1B
100
AcDbSymbolTableRecord
100
AcDbBlockTableRecord
2
*PAPER_SPACE
0
ENDTAB
0
ENDSEC
0
SECTION
2
BLOCKS
0
BLOCK
5
20
100
AcDbEntity
100
AcDbBlockBegin
2
*MODEL_SPACE
0
ENDBLK
5
21
100
AcDbEntity
100
AcDbBlockEnd
0
BLOCK
5
1C
100
AcDbEntity
100
AcDbBlockBegin
2
*PAPER_SPACE
0
ENDBLK
5
1D
100
AcDbEntity
100
AcDbBlockEnd
0
ENDSEC
0
SECTION
2
ENTITIES
0
LWPOLYLINE
5
100
100
AcDbEntity
8
0
100
AcDbPolyline
90
8
70
1
43
0.0
10
14.996328811092036
20
-18.667430776835726
10
27.996328811092042
20
-18.667430776835733
42
0.41421356237309115
10
28.496328811092081
20
-18.16743077683569
10
28.496328811092056
20
-5.1674307768357339
42
0.41421356237312817
10
27.996328811092042
20
-4.6674307768357339
10
14.996328811092035
20
-4.6674307768357348
42
0.41421356237305018
10
14.496328811092054
20
-5.1674307768357846
10
14.496328811092029
20
-18.167430776835754
42
0.41421356237311846
0
LWPOLYLINE
5
101
100
AcDbEntity
8
0
100
AcDbPolyline
90
8
70
1
43
0.0
10
-138.19117118890802
20
19.932569223164272
10
-138.19117118890796
20
32.932569223164279
42
0.41421356237312362
10
-138.69117118890796
20
33.432569223164293
10
-151.69117118890796
20
33.432569223164272
42
0.41421356237310542
10
-152.19117118890796
20
32.932569223164279
10
-152.19117118890804
20
19.932569223164272
42
0.41421356237312756
10
-151.69117118890802
20
19.43256922316429
10
-138.69117118890796
20
19.432569223164268
42
0.41421356237310414
0
LWPOLYLINE
5
102
100
AcDbEntity
8
0
100
AcDbPolyline
90
6
70
1
43
0.0
10
173.35916978848005
20
65.491507823181522
10
174.71594292107565
20
67.84150782318153
10
177.42948918626692
20
67.841507823181558
10
178.78626231886261
20
65.491507823181522
10
177.42948918626692
20
63.141507823181513
10
174.71594292107565
20
63.141507823181513
0
LWPOLYLINE
5
103
100
AcDbEntity
8
0
100
AcDbPolyline
90
6
70
1
43
0.0
10
-173.11791263657727
20
65.490518217088322
10
-174.47468576917285
20
63.140518217088363
10
-177.18823203436412
20
63.140518217088363
10
-178.54500516695975
20
65.490518217088322
10
-177.18823203436412
20
67.840518217088317
10
-174.47468576917285
20
67.840518217088317
0
LWPOLYLINE
5
104
100
AcDbEntity
8
0
100
AcDbPolyline
90
6
70
1
43
0.0
10
174.71350765315844
20
-63.141492191157944
10
177.42705346374424
20
-63.141492191157923
10
178.7838263690372
20
-65.491491797458139
10
177.42705346374424
20
-67.841491403758383
10
174.71350765315844
20
-67.841491403758369
10
173.35673474786549
20
-65.491491797458139
0
LWPOLYLINE
5
105
100
AcDbEntity
8
0
100
AcDbPolyline
90
8
70
1
43
0.0
10
-150.09742118890796
20
-18.167430776835726
42
-0.41421356237305862
10
-150.59742118890796
20
-18.667430776835726
10
-168.35992118890798
20
-18.667430776835687
42
-0.41421356237306639
10
-168.85992118890798
20
-18.167430776835726
10
-168.85992118890795
20
-5.1674307768357339
42
-0.41421356237314316
10
-168.35992118890798
20
-4.6674307768357357
10
-150.59742118890802
20
-4.6674307768357268
42
-0.41421356237312557
10
-150.09742118890796
20
-5.167430776835733
0
LWPOLYLINE
5
106
100
AcDbEntity
8
0
100
AcDbPolyline
90
8
70
1
43
0.0
10
80.383828811092059
20
14.382569223164268
10
67.383828811092059
20
14.382569223164268
42
0.4142135623730378
10
66.883828811092087
20
13.882569223164216
10
66.883828811092059
20
0.88256922316426234
42
0.41421356237312523
10
67.383828811092059
20
0.382569223164273
10
80.383828811092059
20
0.382569223164267
42
0.41421356237308293
10
80.883828811092101
20
0.88256922316425346
10
80.883828811092101
20
13.882569223164261
42
0.41421356237315354
0
LWPOLYLINE
5
107
100
AcDbEntity
8
0
100
AcDbPolyline
90
8
70
1
43
0.0
10
152.32132881109206
20
-24.217430776835691
10
152.32132881109206
20
-37.217430776835691
42
-0.41421356237311063
10
151.821328811092
20
-37.717430776835705
10
138.82132881109209
20
-37.717430776835727
42
-0.41421356237310802
10
138.32132881109206
20
-37.217430776835727
10
138.32132881109206
20
-24.217430776835684
42
-0.41421356237310281
10
138.82132881109209
20
-23.717430776835691
10
151.821328811092
20
-23.717430776835634
42
-0.41421356237307161
0
LWPOLYLINE
5
108
100
AcDbEntity
8
0
100
AcDbPolyline
90
8
70
1
43
0.0
10
-38.678671188907941
20
-23.717430776835684
10
-51.678671188907941
20
-23.717430776835712
42
0.41421356237313145
10
-52.178671188907934
20
-24.217430776835656
10
-52.178671188907941
20
-37.217430776835705
42
0.41421356237308204
10
-51.678671188907941
20
-37.717430776835705
10
-38.678671188907941
20
-37.717430776835727
42
0.41421356237307161
10
-38.178671188907941
20
-37.217430776835691
10
-38.178671188907948
20
-24.217430776835709
42
0.41421356237310025
0
LWPOLYLINE
5
109
100
AcDbEntity
8
0
100
AcDbPolyline
90
8
70
1
43
0.0
10
-9.6036711889079367
20
-5.1674307768357339
42
0.41421356237312101
10
-10.103671188907946
20
-4.6674307768357526
10
-23.103671188907953
20
-4.6674307768357357
42
0.41421356237309698
10
-23.603671188907963
20
-5.1674307768357419
10
-23.603671188907967
20
-18.167430776835737
42
0.41421356237309243
10
-23.103671188907953
20
-18.667430776835747
10
-10.103671188907944
20
-18.667430776835737
42
0.41421356237304952
10
-9.6036711889079651
20
-18.16743077683568
0
LWPOLYLINE
5
110
100
AcDbEntity
8
0
100
AcDbPolyline
90
8
70
1
43
0.0
10
-128.66617118890795
20
13.882569223164261
42
0.41421356237307555
10
-129.16617118890795
20
14.382569223164268
10
-142.16617118890795
20
14.382569223164271
42
0.41421356237309243
10
-142.66617118890795
20
13.882569223164269
10
-142.66617118890798
20
0.88256922316426234
42
0.41421356237310014
10
-142.16617118890795
20
0.382569223164273
10
-129.16617118890795
20
0.38256922316426356
42
0.41421356237309015
10
-128.66617118890798
20
0.88256922316426234
0
LWPOLYLINE
5
111
100
AcDbEntity
8
0
100
AcDbPolyline
90
8
70
1
43
0.0
10
-56.941171188907944
20
19.932569223164283
42
0.41421356237308593
10
-56.441171188907937
20
19.43256922316429
10
-43.441171188907965
20
19.432569223164268
42
0.41421356237310936
10
-42.941171188907944
20
19.932569223164283
10
-42.941171188907958
20
32.932569223164279
42
0.41421356237307422
10
-43.441171188907958
20
33.432569223164293
10
-56.441171188907937
20
33.432569223164272
42
0.41421356237308982
10
-56.941171188907958
20
32.932569223164293
0
LWPOLYLINE
5
112
100
AcDbEntity
8
0
100
AcDbPolyline
90
8
70
1
43
0.0
10
-147.42867118890797
20
-24.217430776835691
42
-0.41421356237307161
10
-146.92867118890797
20
-23.717430776835684
10
-133.92867118890794
20
-23.717430776835705
42
-0.41421356237309764
10
-133.42867118890794
20
-24.217430776835684
10
-133.42867118890794
20
-37.217430776835691
42
-0.41421356237309503
10
-133.92867118890794
20
-37.717430776835705
10
-146.92867118890797
20
-37.717430776835727
42
-0.41421356237308721
10
-147.42867118890797
20
-37.217430776835727
0
LWPOLYLINE
5
113
100
AcDbEntity
8
0
100
AcDbPolyline
90
20
70
1
43
0.0
10
84.495828811092053
20
19.432569223164272
10
101.37182881109209
20
19.432569223164272
10
101.37182881109204
20
17.932569223164258
42
0.41421356237314444
10
101.87182881109209
20
17.432569223164283
10
107.87182881109209
20
17.432569223164268
42
0.41421356237308854
10
108.37182881109214
20
17.932569223164283
10
108.37182881109207
20
19.432569223164272
10
108.95882881109209
20
19.432569223164279
42
0.41421356237311452
10
109.45882881109213
20
19.932569223164247
10
109.45882881109213
20
32.932569223164307
42
0.41421356237311063
10
108.95882881109209
20
33.432569223164279
10
76.908828811092036
20
33.432569223164286
42
0.41421356237306384
10
76.408828811092036
20
32.932569223164229
10
76.408828811092064
20
19.932569223164272
42
0.41421356237310542
10
76.908828811092064
20
19.432569223164265
10
77.495828811092039
20
19.432569223164265
10
77.495828811092039
20
17.932569223164258
42
0.41421356237311452
10
77.995828811092039
20
17.432569223164283
10
83.995828811092096
20
17.432569223164279
42
0.41421356237306511
10
84.495828811092053
20
17.932569223164325
0
LWPOLYLINE
5
114
100
AcDbEntity
8
0
100
AcDbPolyline
90
8
70
1
43
0.0
10
-61.991171188907934
20
32.932569223164279
42
0.41421356237312362
10
-62.491171188907941
20
33.432569223164293
10
-75.491171188907941
20
33.432569223164279
42
0.41421356237311063
10
-75.99117118890797
20
32.932569223164279
10
-75.991171188907956
20
19.932569223164283
42
0.41421356237314316
10
-75.491171188907941
20
19.4325692231643
10
-62.491171188907941
20
19.43256922316429
42
0.41421356237310153
10
-61.991171188907941
20
19.932569223164283
0
LWPOLYLINE
5
115
100
AcDbEntity
8
0
100
AcDbPolyline
90
8
70
1
43
0.0
10
119.77132881109213
20
0.38256922316425968
42
-0.41421356237313406
10
119.27132881109209
20
0.88256922316426234
10
119.27132881109216
20
13.882569223164269
42
-0.41421356237301177
10
119.7713288110921
20
14.382569223164268
10
132.77132881109208
20
14.382569223164257
42
-0.41421356237310936
10
133.27132881109208
20
13.882569223164278
10
133.27132881109208
20
0.88256922316425357
42
-0.41421356237303508
10
132.77132881109208
20
0.38256922316426417
0
LWPOLYLINE
5
116
100
AcDbEntity
8
0
100
AcDbPolyline
90
8
70
1
43
0.0
10
-85.041171188907953
20
-55.767430776835681
10
-95.797421188907933
20
-55.767430776835752
42
-0.41421356237311585
10
-96.297421188907947
20
-55.26743077683571
10
-96.297421188907961
20
-41.267430776835681
42
-0.4142135623730534
10
-95.797421188907933
20
-40.767430776835695
10
-85.041171188907924
20
-40.767430776835667
42
-0.41421356237307944
10
-84.541171188907938
20
-41.267430776835702
10
-84.541171188907953
20
-55.267430776835702
42
-0.41421356237313145
0
LWPOLYLINE
5
117
100
AcDbEntity
8
0
100
AcDbPolyline
90
8
70
1
43
0.0
10
47.83382881109204
20
0.88256922316426234
10
47.833828811092083
20
13.882569223164216
42
-0.41421356237305473
10
48.333828811092047
20
14.382569223164268
10
61.333828811092062
20
14.382569223164275
42
-0.41421356237311974
10
61.833828811092069
20
13.882569223164296
10
61.833828811092104
20
0.88256922316429798
42
-0.41421356237311108
10
61.333828811092062
20
0.38256922316426417
10
48.333828811092047
20
0.38256922316427022
42
-0.41421356237311746
0
LWPOLYLINE
5
118
100
AcDbEntity
8
0
100
AcDbPolyline
90
8
70
1
43
0.0
10
-118.35367118890794
20
-4.6674307768357357
10
-105.35367118890797
20
-4.6674307768357277
42
-0.4142135623730937
10
-104.85367118890795
20
-5.167430776835733
10
-104.85367118890795
20
-18.167430776835726
42
-0.41421356237309243
10
-105.35367118890797
20
-18.667430776835726
10
-118.35367118890794
20
-18.667430776835737
42
-0.41421356237308721
10
-118.85367118890797
20
-18.167430776835726
10
-118.85367118890797
20
-5.1674307768357339
42
-0.41421356237310153
0
LWPOLYLINE
5
119
100
AcDbEntity
8
0
100
AcDbPolyline
90
8
70
1
43
0.0
10
43.57132881109203
20
-23.717430776835716
42
0.41421356237308204
10
43.071328811092044
20
-24.217430776835684
10
43.071328811092044
20
-37.217430776835727
42
0.41421356237307161
10
43.571328811092044
20
-37.717430776835727
10
56.571328811092073
20
-37.717430776835727
42
0.41421356237313667
10
57.071328811092073
20
-37.217430776835691
10
57.071328811092073
20
-24.217430776835656
42
0.41421356237312101
10
56.571328811092073
20
-23.717430776835684
0
LWPOLYLINE
5
120
100
AcDbEntity
8
0
100
AcDbPolyline
90
8
70
1
43
0.0
10
138.82132881109209
20
-56.76743077683571
42
-0.41421356237308982
10
138.32132881109206
20
-56.26743077683571
10
138.32132881109206
20
-43.267430776835702
42
-0.4142135623730846
10
138.82132881109209
20
-42.76743077683571
10
151.821328811092
20
-42.767430776835695
42
-0.41421356237307422
10
152.32132881109203
20
-43.267430776835774
10
152.32132881109206
20
-56.26743077683571
42
-0.41421356237314705
10
151.821328811092
20
-56.767430776835717
0
LWPOLYLINE
5
121
100
AcDbEntity
8
0
100
AcDbPolyline
90
6
70
1
43
0.0
10
10.946842293320957
20
63.141280732798393
10
8.2332960281392058
20
63.14127355789357
10
6.8765166818984724
20
65.491269970432924
10
8.233283600839485
20
67.841273557877145
10
10.946829866021233
20
67.841280732781954
10
12.303609212261968
20
65.491284320242599
0
LWPOLYLINE
5
122
100
AcDbEntity
8
0
100
AcDbPolyline
90
8
70
1
43
0.0
10
10.20257881109206
20
-55.767430776835702
10
4.2025788110920459
20
-55.767430776835752
42
-0.4142135623731113
10
3.7025788110920392
20
-55.267430776835702
10
3.7025788110920761
20
-41.267430776835681
42
-0.41421356237310447
10
4.2025788110920459
20
-40.767430776835695
10
10.20257881109206
20
-40.767430776835674
42
-0.41421356237311713
10
10.702578811092067
20
-41.267430776835702
10
10.702578811092033
20
-55.267430776835702
42
-0.41421356237308071
0
LWPOLYLINE
5
123
100
AcDbEntity
8
0
100
AcDbPolyline
90
8
70
1
43
0.0
10
106.57757881109205
20
-56.767430776835724
42
0.41421356237310025
10
107.07757881109205
20
-56.26743077683571
10
107.07757881109204
20
-43.267430776835731
42
0.41421356237313145
10
106.57757881109202
20
-42.76743077683571
10
91.196328811092044
20
-42.767430776835724
42
0.41421356237307944
10
90.696328811092059
20
-43.267430776835681
10
90.696328811092073
20
-56.26743077683571
42
0.41421356237307944
10
91.196328811092059
20
-56.767430776835717
0
LWPOLYLINE
5
124
100
AcDbEntity
8
0
100
AcDbPolyline
90
8
70
1
43
0.0
10
29.283828811092079
20
0.38256922316427328
42
-0.41421356237313395
10
28.783828811092075
20
0.88256922316426234
10
28.783828811092043
20
13.882569223164269
42
-0.41421356237308332
10
29.283828811092079
20
14.382569223164268
10
42.283828811092093
20
14.382569223164239
42
-0.41421356237309892
10
42.783828811092064
20
13.882569223164261
10
42.783828811092093
20
0.88256922316425346
42
-0.41421356237299778
10
42.283828811092093
20
0.38256922316426417
0
LWPOLYLINE
5
125
100
AcDbEntity
8
0
100
AcDbPolyline
90
8
70
1
43
0.0
10
-65.966171188907936
20
14.382569223164261
10
-52.966171188907971
20
14.382569223164271
42
-0.41421356237309764
10
-52.466171188907964
20
13.882569223164261
10
-52.466171188907992
20
0.88256922316424458
42
-0.41421356237308293
10
-52.966171188907971
20
0.38256922316426412
10
-65.966171188907936
20
0.38256922316424996
42
-0.41421356237310336
10
-66.466171188907964
20
0.88256922316425346
10
-66.466171188907964
20
13.882569223164261
42
-0.41421356237311197
0
LWPOLYLINE
5
126
100
AcDbEntity
8
0
100
AcDbPolyline
90
8
70
1
43
0.0
10
23.733828811092053
20
0.88256922316425346
10
23.733828811092078
20
13.882569223164278
42
0.41421356237311713
10
23.233828811092078
20
14.382569223164252
10
10.233828811092067
20
14.382569223164268
42
0.41421356237307555
10
9.7338288110920317
20
13.882569223164269
10
9.7338288110920619
20
0.88256922316422692
42
0.4142135623731194
10
10.233828811092067
20
0.38256922316425535
10
23.233828811092078
20
0.382569223164268
42
0.41421356237302254
0
LWPOLYLINE
5
127
100
AcDbEntity
8
0
100
AcDbPolyline
90
11
70
1
43
0.0
10
29.258828811092066
20
-40.767430776835681
10
22.140078811092078
20
-40.76743077683571
42
0.41421356237307683
10
21.640078811092085
20
-41.267430776835738
10
21.640078811092064
20
-56.26743077683571
42
0.41421356237309503
10
22.140078811092078
20
-56.767430776835688
10
35.140078811092053
20
-56.767430776835717
42
0.41421356237308982
10
35.640078811092074
20
-56.26743077683571
10
35.640078811092053
20
-43.267430776835702
42
0.41421356237310025
10
35.140078811092053
20
-42.767430776835695
10
29.758828811092076
20
-42.767430776835695
10
29.758828811092076
20
-41.267430776835674
42
0.41421356237307683
0
LWPOLYLINE
5
128
100
AcDbEntity
8
0
100
AcDbPolyline
90
8
70
1
43
0.0
10
157.87132881109204
20
57.245069223164293
42
0.41421356237313667
10
157.3713288110921
20
56.745069223164393
10
157.3713288110921
20
43.745069223164279
42
0.41421356237300139
10
157.8713288110921
20
43.2450692231643
10
170.87132881109198
20
43.245069223164279
42
0.41421356237311585
10
171.37132881109198
20
43.74506922316418
10
171.37132881109198
20
56.745069223164293
42
0.41421356237303258
10
170.87132881109204
20
57.245069223164258
0
LWPOLYLINE
5
129
100
AcDbEntity
8
0
100
AcDbPolyline
90
8
70
1
43
0.0
10
119.27132881109209
20
-56.267430776835681
42
0.41421356237309503
10
119.7713288110921
20
-56.767430776835688
10
132.77132881109208
20
-56.767430776835724
42
0.41421356237310542
10
133.2713288110921
20
-56.267430776835681
10
133.2713288110921
20
-43.267430776835702
42
0.4142135623730534
10
132.77132881109208
20
-42.767430776835695
10
119.7713288110921
20
-42.76743077683571
42
0.41421356237310542
10
119.27132881109209
20
-43.267430776835702
0
LWPOLYLINE
5
130
100
AcDbEntity
8
0
100
AcDbPolyline
90
8
70
1
43
0.0
10
33.546328811092074
20
-5.1674307768357846
10
33.546328811092039
20
-18.167430776835754
42
0.41421356237311974
10
34.046328811092053
20
-18.667430776835726
10
47.046328811092046
20
-18.667430776835719
42
0.41421356237309631
10
47.546328811092089
20
-18.16743077683569
10
47.54632881109206
20
-5.1674307768357055
42
0.41421356237314122
10
47.046328811092046
20
-4.6674307768357339
10
34.046328811092053
20
-4.667430776835733
42
0.4142135623730534
0
LWPOLYLINE
5
131
100
AcDbEntity
8
0
100
AcDbPolyline
90
8
70
1
43
0.0
10
-13.578671188907947
20
-23.717430776835684
10
-0.57867118890794
20
-23.717430776835684
42
-0.41421356237309387
10
-0.078671188907932801
20
-24.217430776835684
10
-0.078671188907966788
20
-37.217430776835691
42
-0.41421356237310897
10
-0.57867118890793989
20
-37.717430776835727
10
-13.578671188907947
20
-37.717430776835705
42
-0.4142135623730937
10
-14.078671188907954
20
-37.217430776835705
10
-14.078671188907952
20
-24.217430776835709
42
-0.41421356237310414
0
LWPOLYLINE
5
132
100
AcDbEntity
8
0
100
AcDbPolyline
90
6
70
1
43
0.0
10
89.195758088770845
20
67.841365865095213
10
91.909304353714788
20
67.841402498609966
10
93.26610921174121
20
65.491420815581478
10
91.909367804823589
20
63.141402499038293
10
89.195821539879631
20
63.141365865523547
10
87.839016681853252
20
65.491347548552028
0
LWPOLYLINE
5
133
100
AcDbEntity
8
0
100
AcDbPolyline
90
8
70
1
43
0.0
10
-166.47867118890798
20
0.88256922316426234
42
0.41421356237310181
10
-165.97867118890798
20
0.38256922316425523
10
-152.97867118890795
20
0.38256922316426717
42
0.41421356237310369
10
-152.47867118890795
20
0.88256922316425346
10
-152.47867118890795
20
13.882569223164261
42
0.41421356237310153
10
-152.97867118890795
20
14.382569223164252
10
-165.97867118890798
20
14.382569223164241
42
0.41421356237312101
10
-166.47867118890798
20
13.882569223164261
0
LWPOLYLINE
5
134
100
AcDbEntity
8
0
100
AcDbPolyline
90
8
70
1
43
0.0
10
85.646328811092133
20
-18.167430776835726
42
-0.41421356237308721
10
85.146328811092062
20
-18.667430776835726
10
72.146328811092076
20
-18.667430776835722
42
-0.41421356237313406
10
71.646328811092062
20
-18.167430776835758
10
71.646328811092104
20
-5.1674307768357854
42
-0.41421356237305407
10
72.14632881109209
20
-4.6674307768357339
10
85.146328811092062
20
-4.6674307768357446
42
-0.41421356237314705
10
85.646328811092062
20
-5.167430776835733
0
LWPOLYLINE
5
135
100
AcDbEntity
8
0
100
AcDbPolyline
90
8
70
1
43
0.0
10
67.383828811092059
20
-56.76743077683571
42
-0.41421356237309503
10
66.883828811092059
20
-56.267430776835681
10
66.883828811092073
20
-43.267430776835702
42
-0.41421356237307422
10
67.383828811092059
20
-42.76743077683571
10
82.76507881109211
20
-42.767430776835695
42
-0.41421356237310025
10
83.265078811092096
20
-43.267430776835731
10
83.26507881109211
20
-56.267430776835681
42
-0.4142135623730846
10
82.765078811092096
20
-56.767430776835717
0
LWPOLYLINE
5
136
100
AcDbEntity
8
0
100
AcDbPolyline
90
6
70
1
43
0.0
10
36.642157533049826
20
-65.491491549227078
10
37.998930670678703
20
-63.14149155213304
10
40.712476935869937
20
-63.141491557944967
10
42.0692500634323
20
-65.491491560850903
10
40.712476925803429
20
-67.84149155794492
10
37.998930660612203
20
-67.841491552133022
0
LWPOLYLINE
5
137
100
AcDbEntity
8
0
100
AcDbPolyline
90
8
70
1
43
0.0
10
24.021328811092072
20
-24.217430776835709
42
-0.41421356237312884
10
24.52132881109204
20
-23.717430776835691
10
37.521328811092047
20
-23.717430776835684
42
-0.41421356237313406
10
38.021328811092047
20
-24.217430776835691
10
38.021328811092047
20
-37.217430776835691
42
-0.41421356237316526
10
37.521328811092047
20
-37.717430776835727
10
24.52132881109204
20
-37.717430776835712
42
-0.41421356237309764
10
24.021328811092033
20
-37.217430776835705
0
LWPOLYLINE
5
138
100
AcDbEntity
8
0
100
AcDbPolyline
90
8
70
1
43
0.0
10
32.758828811092073
20
33.432569223164265
42
-0.41421356237310025
10
33.258828811092044
20
32.932569223164293
10
33.258828811092108
20
19.932569223164265
42
-0.41421356237311585
10
32.758828811092073
20
19.432569223164286
10
19.758828811092073
20
19.432569223164251
42
-0.41421356237311063
10
19.258828811092066
20
19.932569223164283
10
19.258828811092034
20
32.9325692231643
42
-0.41421356237307294
10
19.758828811092073
20
33.432569223164293
0
LWPOLYLINE
5
139
100
AcDbEntity
8
0
100
AcDbPolyline
90
8
70
1
43
0.0
10
151.821328811092
20
57.245069223164329
42
-0.41421356237307944
10
152.32132881109206
20
56.745069223164293
10
152.32132881109206
20
43.745069223164293
42
-0.4142135623731783
10
151.821328811092
20
43.245069223164279
10
138.82132881109209
20
43.2450692231643
42
-0.41421356237311585
10
138.32132881109206
20
43.745069223164272
10
138.32132881109206
20
56.745069223164215
42
-0.41421356237311063
10
138.82132881109209
20
57.245069223164258
0
LWPOLYLINE
5
140
100
AcDbEntity
8
0
100
AcDbPolyline
90
8
70
1
43
0.0
10
-61.20367118890794
20
-4.6674307768357348
10
-48.20367118890794
20
-4.6674307768357366
42
-0.41421356237308332
10
-47.703671188907947
20
-5.1674307768357508
10
-47.703671188907947
20
-18.167430776835754
42
-0.41421356237309892
10
-48.20367118890794
20
-18.667430776835737
10
-61.20367118890794
20
-18.667430776835719
42
-0.41421356237310025
10
-61.703671188907947
20
-18.167430776835737
10
-61.703671188907947
20
-5.1674307768357419
42
-0.41421356237310347
0
LWPOLYLINE
5
141
100
AcDbEntity
8
0
100
AcDbPolyline
90
8
70
1
43
0.0
10
-57.728671188907974
20
-23.717430776835702
42
-0.4142135623730846
10
-57.228671188907967
20
-24.217430776835691
10
-57.228671188907967
20
-37.217430776835691
42
-0.4142135623730846
10
-57.728671188907974
20
-37.717430776835727
10
-70.728671188907953
20
-37.717430776835705
42
-0.41421356237309503
10
-71.228671188907967
20
-37.217430776835705
10
-71.228671188907938
20
-24.217430776835709
42
-0.41421356237314444
10
-70.728671188907953
20
-23.717430776835705
0
LWPOLYLINE
5
142
100
AcDbEntity
8
0
100
AcDbPolyline
90
8
70
1
43
0.0
10
-145.04742118890795
20
-43.267430776835702
42
-0.41421356237307944
10
-144.547421188908
20
-42.767430776835731
10
-129.16617118890798
20
-42.767430776835695
42
-0.41421356237311063
10
-128.66617118890795
20
-43.267430776835731
10
-128.66617118890792
20
-56.26743077683571
42
-0.41421356237304302
10
-129.16617118890795
20
-56.767430776835717
10
-144.54742118890803
20
-56.767430776835688
42
-0.41421356237308982
10
-145.04742118890798
20
-56.26743077683571
0
LWPOLYLINE
5
143
100
AcDbEntity
8
0
100
AcDbPolyline
90
8
70
1
43
0.0
10
13.708828811092033
20
19.432569223164286
10
0.70882881109206153
20
19.432569223164272
42
-0.41421356237310958
10
0.20882881109205442
20
19.932569223164283
10
0.2088288110920547
20
32.932569223164293
42
-0.41421356237306628
10
0.70882881109206153
20
33.432569223164293
10
13.708828811092033
20
33.432569223164293
42
-0.41421356237313145
10
14.20882881109204
20
32.932569223164279
10
14.208828811092033
20
19.932569223164247
42
-0.41421356237311974
0
LWPOLYLINE
5
144
100
AcDbEntity
8
0
100
AcDbPolyline
90
8
70
1
43
0.0
10
-37.891171188907947
20
19.932569223164283
42
0.4142135623730443
10
-37.391171188907947
20
19.432569223164265
10
-24.391171188907954
20
19.432569223164272
42
0.41421356237309892
10
-23.891171188907943
20
19.932569223164283
10
-23.891171188907947
20
32.932569223164279
42
0.41421356237309503
10
-24.391171188907954
20
33.432569223164293
10
-37.391171188907947
20
33.432569223164293
42
0.41421356237309764
10
-37.89117118890794
20
32.932569223164293
0
LWPOLYLINE
5
145
100
AcDbEntity
8
0
100
AcDbPolyline
90
8
70
1
43
0.0
10
-19.628671188907951
20
-37.717430776835705
10
-32.628671188907958
20
-37.717430776835712
42
-0.41421356237309243
10
-33.128671188907965
20
-37.217430776835705
10
-33.128671188907965
20
-24.217430776835709
42
-0.41421356237311063
10
-32.628671188907958
20
-23.717430776835684
10
-19.628671188907962
20
-23.717430776835705
42
-0.41421356237311846
10
-19.128671188907973
20
-24.217430776835656
10
-19.128671188907941
20
-37.217430776835698
42
-0.41421356237309631
0
LWPOLYLINE
5
146
100
AcDbEntity
8
0
100
AcDbPolyline
90
8
70
1
43
0.0
10
-85.516171188907961
20
13.882569223164261
10
-85.516171188907947
20
0.88256922316425346
42
0.41421356237307355
10
-85.016171188907933
20
0.38256922316424641
10
-72.016171188907961
20
0.38256922316426178
42
0.41421356237311208
10
-71.516171188907947
20
0.88256922316426234
10
-71.516171188907947
20
13.882569223164269
42
0.41421356237308721
10
-72.016171188907933
20
14.382569223164277
10
-85.016171188907933
20
14.382569223164266
42
0.41421356237312495
0
LWPOLYLINE
5
147
100
AcDbEntity
8
0
100
AcDbPolyline
90
8
70
1
43
0.0
10
170.87132881109198
20
0.38256922316423941
42
0.41421356237309392
10
171.37132881109198
20
0.88256922316417352
10
171.37132881109207
20
13.882569223164216
42
0.41421356237299095
10
170.87132881109204
20
14.382569223164261
10
157.87132881109204
20
14.382569223164266
42
0.41421356237312495
10
157.3713288110921
20
13.882569223164349
10
157.3713288110921
20
0.88256922316431574
42
0.41421356237303564
10
157.87132881109204
20
0.382569223164273
0
LWPOLYLINE
5
148
100
AcDbEntity
8
0
100
AcDbPolyline
90
8
70
1
43
0.0
10
-100.59117118890796
20
33.432569223164272
42
-0.41421356237310542
10
-100.09117118890796
20
32.932569223164279
10
-100.09117118890796
20
19.932569223164272
42
-0.41421356237310153
10
-100.59117118890799
20
19.432569223164286
10
-113.59117118890795
20
19.432569223164286
42
-0.41421356237308854
10
-114.09117118890792
20
19.932569223164283
10
-114.09117118890794
20
32.932569223164293
42
-0.41421356237308721
10
-113.59117118890795
20
33.432569223164293
0
LWPOLYLINE
5
149
100
AcDbEntity
8
0
100
AcDbPolyline
90
8
70
1
43
0.0
10
157.87132881109204
20
33.432569223164272
42
0.41421356237318346
10
157.3713288110921
20
32.932569223164293
10
157.3713288110921
20
19.932569223164364
42
0.41421356237301959
10
157.87132881109204
20
19.432569223164315
10
170.87132881109198
20
19.432569223164293
42
0.41421356237320428
10
171.37132881109198
20
19.932569223164272
10
171.37132881109213
20
32.932569223164279
42
0.41421356237308204
10
170.87132881109198
20
33.432569223164322
0
LWPOLYLINE
5
150
100
AcDbEntity
8
0
100
AcDbPolyline
90
8
70
1
43
0.0
10
-91.066171188907944
20
0.38256922316426412
10
-104.06617118890793
20
0.38256922316427688
42
-0.41421356237310314
10
-104.56617118890793
20
0.88256922316426234
10
-104.56617118890793
20
13.882569223164269
42
-0.41421356237310542
10
-104.06617118890793
20
14.382569223164261
10
-91.066171188907873
20
14.382569223164269
42
-0.41421356237307555
10
-90.56617118890793
20
13.882569223164261
10
-90.566171188907958
20
0.88256922316425357
42
-0.41421356237311568
0
LWPOLYLINE
5
151
100
AcDbEntity
8
0
100
AcDbPolyline
90
8
70
1
43
0.0
10
-27.866171188907938
20
14.382569223164261
10
-14.866171188907948
20
14.382569223164275
42
-0.41421356237309892
10
-14.366171188907941
20
13.882569223164261
10
-14.366171188907941
20
0.88256922316425346
42
-0.41421356237309798
10
-14.866171188907948
20
0.38256922316426412
10
-27.866171188907941
20
0.38256922316424968
42
-0.41421356237308266
10
-28.366171188907948
20
0.88256922316426234
10
-28.366171188907927
20
13.882569223164269
42
-0.41421356237310153
0
LWPOLYLINE
5
152
100
AcDbEntity
8
0
100
AcDbPolyline
90
8
70
1
43
0.0
10
-76.778671188907964
20
-23.717430776835684
10
-89.778671188907978
20
-23.717430776835702
42
0.4142135623730846
10
-90.27867118890795
20
-24.217430776835691
10
-90.278671188907964
20
-37.217430776835705
42
0.4142135623730846
10
-89.778671188907978
20
-37.717430776835705
10
-76.778671188907964
20
-37.717430776835712
42
0.41421356237309764
10
-76.278671188907964
20
-37.217430776835705
10
-76.278671188907978
20
-24.217430776835691
42
0.41421356237309243
0
LWPOLYLINE
5
153
100
AcDbEntity
8
0
100
AcDbPolyline
90
8
70
1
43
0.0
10
-123.61617118890793
20
13.882569223164261
10
-123.61617118890793
20
0.88256922316426245
42
0.41421356237305906
10
-123.11617118890794
20
0.38256922316425523
10
-110.11617118890796
20
0.38256922316425579
42
0.41421356237312074
10
-109.61617118890793
20
0.88256922316425346
10
-109.61617118890793
20
13.882569223164261
42
0.4142135623730937
10
-110.11617118890794
20
14.382569223164268
10
-123.11617118890794
20
14.382569223164253
42
0.41421356237311846
0
LWPOLYLINE
5
154
100
AcDbEntity
8
0
100
AcDbPolyline
90
8
70
1
43
0.0
10
105.57757881109211
20
13.29556922316424
42
-0.41421356237314444
10
106.0775788110921
20
12.795569223164271
10
106.07757881109208
20
6.7955692231642679
42
-0.41421356237302087
10
105.57757881109208
20
6.2955692231642768
10
91.577578811092053
20
6.2955692231642768
42
-0.4142135623731425
10
91.077578811092067
20
6.7955692231642404
10
91.077578811091996
20
12.79556922316428
42
-0.41421356237305601
10
91.577578811092053
20
13.29556922316427
0
LWPOLYLINE
5
155
100
AcDbEntity
8
0
100
AcDbPolyline
90
8
70
1
43
0.0
10
-119.14117118890795
20
32.932569223164279
10
-119.141171188908
20
19.932569223164272
42
-0.41421356237311713
10
-119.64117118890799
20
19.432569223164286
10
-132.64117118890795
20
19.4325692231643
42
-0.41421356237310153
10
-133.141171188908
20
19.932569223164283
10
-133.14117118890795
20
32.932569223164293
42
-0.41421356237310025
10
-132.64117118890795
20
33.432569223164279
10
-119.64117118890796
20
33.432569223164286
42
-0.41421356237307422
0
LWPOLYLINE
5
156
100
AcDbEntity
8
0
100
AcDbPolyline
90
8
70
1
43
0.0
10
-4.8411711889079392
20
32.9325692231643
42
0.41421356237309115
10
-5.3411711889079445
20
33.4325692231643
10
-18.341171188907925
20
33.432569223164293
42
0.41421356237309631
10
-18.841171188907914
20
32.932569223164293
10
-18.841171188907925
20
19.932569223164283
42
0.41421356237306639
10
-18.341171188907921
20
19.432569223164265
10
-5.3411711889079436
20
19.432569223164286
42
0.41421356237311779
10
-4.8411711889079214
20
19.932569223164265
0
LWPOLYLINE
5
157
100
AcDbEntity
8
0
100
AcDbPolyline
90
8
70
1
43
0.0
10
91.077578811092067
20
-17.080430776835762
42
0.41421356237308204
10
91.577578811092053
20
-17.580430776835733
10
105.57757881109211
20
-17.580430776835744
42
0.41421356237300661
10
106.07757881109207
20
-17.080430776835726
10
106.0775788110921
20
-11.0804307768357
42
0.41421356237312756
10
105.57757881109208
20
-10.580430776835728
10
91.577578811092053
20
-10.580430776835712
42
0.41421356237308593
10
91.077578811091996
20
-11.080430776835756
0
LWPOLYLINE
5
158
100
AcDbEntity
8
0
100
AcDbPolyline
90
6
70
1
43
0.0
10
-126.30731929096402
20
-63.141491379248379
10
-123.5937730257728
20
-63.14149138506032
10
-122.23699989821046
20
-65.491491387966292
10
-123.59377303583938
20
-67.841491385060323
10
-126.3073193010306
20
-67.841491379248367
10
-127.66409242859294
20
-65.491491376342424
0
LWPOLYLINE
5
159
100
AcDbEntity
8
0
100
AcDbPolyline
90
8
70
1
43
0.0
10
-80.253671188907987
20
-18.667430776835708
42
-0.41421356237308982
10
-80.753671188907944
20
-18.167430776835726
10
-80.753671188907973
20
-5.1674307768357339
42
-0.41421356237307227
10
-80.253671188907973
20
-4.6674307768357348
10
-67.253671188907944
20
-4.6674307768357304
42
-0.41421356237310281
10
-66.75367118890793
20
-5.167430776835733
10
-66.75367118890793
20
-18.167430776835726
42
-0.41421356237310414
10
-67.253671188907958
20
-18.667430776835726
0
LWPOLYLINE
5
160
100
AcDbEntity
8
0
100
AcDbPolyline
90
11
70
1
43
0.0
10
94.728078811092132
20
-23.717430776835663
42
0.41421356237306639
10
94.228078811092089
20
-24.217430776835691
10
94.228078811092075
20
-39.217430776835656
42
0.41421356237309243
10
94.728078811092075
20
-39.717430776835663
10
100.7280788110921
20
-39.717430776835691
42
0.41421356237311324
10
101.22807881109213
20
-39.217430776835656
10
101.22807881109209
20
-37.717430776835705
10
108.95882881109209
20
-37.71743077683572
42
0.41421356237311063
10
109.45882881109213
20
-37.217430776835755
10
109.4588288110921
20
-24.217430776835691
42
0.41421356237313928
10
108.95882881109209
20
-23.717430776835684
0
LWPOLYLINE
5
161
100
AcDbEntity
8
0
100
AcDbPolyline
90
8
70
1
43
0.0
10
93.077578811092025
20
-8.6424307768357096
10
93.077578811092053
20
4.3575692231642797
42
-0.41421356237302054
10
93.577578811092067
20
4.8575692231642709
10
106.57757881109205
20
4.8575692231642789
42
-0.414213562373136
10
107.07757881109205
20
4.3575692231642735
10
107.07757881109205
20
-8.6424307768357149
42
-0.41421356237308593
10
106.57757881109205
20
-9.1424307768357078
10
93.577578811091996
20
-9.1424307768356847
42
-0.41421356237309698
0
LWPOLYLINE
5
162
100
AcDbEntity
8
0
100
AcDbPolyline
90
8
70
1
43
0.0
10
171.37132881109207
20
-43.267430776835731
10
171.3713288110921
20
-56.26743077683571
42
-0.4142135623731939
10
170.87132881109198
20
-56.767430776835717
10
157.87132881109204
20
-56.767430776835724
42
-0.41421356237301699
10
157.3713288110921
20
-56.26743077683571
10
157.37132881109201
20
-43.267430776835731
42
-0.41421356237310542
10
157.87132881109204
20
-42.767430776835731
10
170.87132881109198
20
-42.767430776835695
42
-0.41421356237311063
0
LINE
5
163
100
AcDbEntity
8
0
100
AcDbLine
10
119.27132881109209
20
43.745069223164272
30
0
11
119.27132881109209
21
53.245069223164279
31
0
0
LWPOLYLINE
5
164
100
AcDbEntity
8
0
100
AcDbPolyline
90
8
70
1
43
0.0
10
-95.328671188907947
20
-24.217430776835691
42
0.41421356237305862
10
-95.828671188907947
20
-23.717430776835684
10
-108.82867118890798
20
-23.717430776835712
42
0.41421356237311063
10
-109.328671188908
20
-24.217430776835709
10
-109.32867118890796
20
-37.217430776835705
42
0.41421356237309503
10
-108.828671188908
20
-37.717430776835727
10
-95.828671188907919
20
-37.717430776835712
42
0.41421356237311063
10
-95.328671188907933
20
-37.217430776835691
0
LWPOLYLINE
5
165
100
AcDbEntity
8
0
100
AcDbPolyline
90
8
70
1
43
0.0
10
-81.541171188907953
20
19.432569223164275
42
0.41421356237312101
10
-81.041171188907967
20
19.932569223164272
10
-81.041171188907967
20
32.932569223164279
42
0.41421356237313145
10
-81.541171188907953
20
33.432569223164265
10
-94.541171188907953
20
33.432569223164293
42
0.41421356237312101
10
-95.041171188907953
20
32.932569223164293
10
-95.041171188907953
20
19.932569223164265
42
0.41421356237311585
10
-94.541171188907924
20
19.432569223164272
0
LINE
5
166
100
AcDbEntity
8
0
100
AcDbLine
10
118.77132881109208
20
53.745069223164293
30
0
11
109.9588288110921
21
53.745069223164293
31
0
0
LINE
5
167
100
AcDbEntity
8
0
100
AcDbLine
10
176.19021337829619
20
75.491480873937732
30
4.4408920985006254e-15
11
123.77128056600441
21
75.491346238865617
31
0
0
LINE
5
168
100
AcDbEntity
8
0
100
AcDbLine
10
-176.17917730355148
20
-75.49149105007173
30
0
11
176.19023874679951
21
-75.491491804784744
31
0
0
LWPOLYLINE
5
169
100
AcDbEntity
8
0
100
AcDbPolyline
90
8
70
1
43
0.0
10
-24.391171188907954
20
-56.767430776835717
10
-49.29742118890794
20
-56.767430776835717
42
-0.41421356237308982
10
-49.797421188907975
20
-56.267430776835653
10
-49.797421188907961
20
-43.267430776835702
42
-0.41421356237305862
10
-49.29742118890794
20
-42.76743077683571
10
-24.391171188907954
20
-42.767430776835695
42
-0.41421356237308982
10
-23.891171188907947
20
-43.267430776835731
10
-23.891171188907947
20
-56.267430776835681
42
-0.41421356237308982
0
ARC
5
170
100
AcDbEntity
8
0
100
AcDbCircle
10
119.77132881109208
20
43.745069223164272
30
0
40
0.49999999999997158
210
0
220
0
230
1
100
AcDbArc
50
180
51
270.00000000000489
0
LINE
5
171
100
AcDbEntity
8
0
100
AcDbLine
10
133.27132881109208
20
56.745069223164293
30
0
11
133.27132881109208
21
43.745069223164322
31
0
0
ARC
5
172
100
AcDbEntity
8
0
100
AcDbCircle
10
121.77132748904064
20
57.745069223164258
30
0
40
0.49999999999997857
210
0
220
0
230
1
100
AcDbArc
50
180.0001514961132
51
270.00000000000648
0
ARC
5
173
100
AcDbEntity
8
0
100
AcDbCircle
10
176.19023876821774
20
-65.491491804784744
30
0
40
10
210
0
220
0
230
1
100
AcDbArc
50
-90.00000012271741
51
0
0
LINE
5
174
100
AcDbEntity
8
0
100
AcDbLine
10
121.27128717627897
20
72.991339628608557
30
-4.4408920985006254e-15
11
121.27132748904242
21
57.745067901111263
31
0
0
ARC
5
175
100
AcDbEntity
8
0
100
AcDbCircle
10
176.1902398193541
20
65.49148087396749
30
4.4408920985006254e-15
40
10.000000000005187
210
0
220
0
230
1
100
AcDbArc
50
0
51
90.000151496102418
0
ARC
5
176
100
AcDbEntity
8
0
100
AcDbCircle
10
109.95882881109209
20
53.245069223164307
30
-4.4408920985006254e-15
40
0.49999999999998934
210
-3.1554436208841813e-28
220
-8.8817841970014401e-15
230
1
100
AcDbArc
50
89.99999999999838
51
180
0
LINE
5
177
100
AcDbEntity
8
0
100
AcDbLine
10
186.19023876821774
20
-65.491491885035003
30
0
11
186.19023981935928
21
65.491480793717258
31
2.2204460492503127e-15
0
ARC
5
178
100
AcDbEntity
8
0
100
AcDbCircle
10
132.77132881109202
20
43.745069223164322
30
0
40
0.50000000000004263
210
0
220
0
230
1
100
AcDbArc
50
-89.999999999993491
51
0
0
LINE
5
179
100
AcDbEntity
8
0
100
AcDbLine
10
-186.18990071791916
20
65.489730445738616
30
0
11
-186.17917724861999
21
-65.49230974775331
31
0
0
LINE
5
180
100
AcDbEntity
8
0
100
AcDbLine
10
121.7713274890407
20
57.245069223164279
30
0
11
132.77132881109208
21
57.245069223164293
31
-2.465190328815661e-31
0
ARC
5
181
100
AcDbEntity
8
0
100
AcDbCircle
10
123.77128717627019
20
72.991346238874385
30
0
40
2.4999999999999996
210
0
220
0
230
1
100
AcDbArc
50
90.000151496132389
51
180.0001514961132
0
ARC
5
182
100
AcDbEntity
8
0
100
AcDbCircle
10
-176.18990075143242
20
65.490549143415478
30
0
40
10.000000000000007
210
0
220
0
230
1
100
AcDbArc
50
90.000151496132716
51
180.00469079216342
0
ARC
5
183
100
AcDbEntity
8
0
100
AcDbCircle
10
106.95882748902717
20
57.745073016881605
30
0
40
0.49999999999993916
210
0
220
0
230
1
100
AcDbArc
50
-89.999980239638177
51
0.00015149611320898552
0
LINE
5
184
100
AcDbEntity
8
0
100
AcDbLine
10
132.77132881109208
20
43.245069223164279
30
0
11
119.77132881109212
21
43.2450692231643
31
0
0
ARC
5
185
100
AcDbEntity
8
0
100
AcDbCircle
10
104.95878717639471
20
72.991292530464705
30
0
40
2.4999999999999996
210
0
220
-0
230
1
100
AcDbArc
50
0.00015149611320898552
51
90.000151496132062
0
ARC
5
186
100
AcDbEntity
8
0
100
AcDbCircle
10
118.77132881109208
20
53.245069223164279
30
0
40
0.50000000000000711
210
0
220
0
230
1
100
AcDbArc
50
0
51
90
0
ARC
5
187
100
AcDbEntity
8
0
100
AcDbCircle
10
132.77132881109208
20
56.745069223164293
30
0
40
0.50000000000000711
210
0
220
0
230
1
100
AcDbArc
50
0
51
90
0
ARC
5
188
100
AcDbEntity
8
0
100
AcDbCircle
10
-176.17917728213314
20
-65.491491050071744
30
0
40
10.000000000000014
210
0
220
0
230
1
100
AcDbArc
50
180.00469079216342
51
269.99999987728194
0
LINE
5
189
100
AcDbEntity
8
0
100
AcDbLine
10
104.95878056612894
20
75.491292530455965
30
0
11
-176.18992719249562
21
75.490549143380534
31
0
0
LINE
5
190
100
AcDbEntity
8
0
100
AcDbLine
10
107.45882748902537
20
57.7450743389346
30
0
11
107.45878717638597
21
72.991299140729652
31
0
0
LWPOLYLINE
5
191
100
AcDbEntity
8
0
100
AcDbPolyline
90
6
70
1
43
0.0
10
-178.64136609707526
20
-65.491491403758403
10
-177.28459296447969
20
-63.141491403758401
10
-174.57104669928844
20
-63.141491403758401
10
-173.2142735666929
20
-65.491491403758403
10
-174.57104669928844
20
-67.841491403758383
10
-177.28459296447969
20
-67.841491403758383
0
LWPOLYLINE
5
192
100
AcDbEntity
8
0
100
AcDbPolyline
90
6
70
1
43
0.0
10
-68.658890787455022
20
65.491177283513608
10
-70.015657706396041
20
63.141173696069437
10
-72.729203971577803
20
63.141166521164564
10
-74.085983317818574
20
65.491162933703919
10
-72.729216398877526
20
67.841166521148153
10
-70.015670133695778
20
67.841173696052991
0
LWPOLYLINE
5
193
100
AcDbEntity
8
0
100
AcDbPolyline
90
8
70
1
43
0.0
10
5.4713288110920644
20
-23.717430776835705
10
18.471328811092075
20
-23.717430776835677
42
-0.41421356237308071
10
18.971328811092079
20
-24.217430776835684
10
18.971328811092071
20
-37.217430776835727
42
-0.41421356237308982
10
18.471328811092075
20
-37.717430776835727
10
5.4713288110920644
20
-37.717430776835727
42
-0.41421356237315032
10
4.9713288110920564
20
-37.217430776835705
10
4.9713288110920555
20
-24.217430776835709
42
-0.4142135623730937
0
LWPOLYLINE
5
194
100
AcDbEntity
8
0
100
AcDbPolyline
90
8
70
1
43
0.0
10
-168.85992118890798
20
-37.217430776835705
42
0.41421356237316009
10
-168.35992118890798
20
-37.717430776835691
10
-155.35992118890798
20
-37.717430776835734
42
0.41421356237307422
10
-154.859921188908
20
-37.217430776835705
10
-154.859921188908
20
-24.217430776835684
42
0.41421356237309503
10
-155.35992118890798
20
-23.71743077683567
10
-168.35992118890798
20
-23.71743077683568
42
0.41421356237309764
10
-168.85992118890798
20
-24.217430776835691
0
LWPOLYLINE
5
195
100
AcDbEntity
8
0
100
AcDbPolyline
90
8
70
1
43
0.0
10
8.9463288110920676
20
-4.6674307768357339
42
-0.41421356237312101
10
9.4463288110920729
20
-5.167430776835733
10
9.4463288110920729
20
-18.167430776835726
42
-0.41421356237302542
10
8.946328811092064
20
-18.667430776835737
10
-4.0536711889079422
20
-18.667430776835737
42
-0.414213562373136
10
-4.5536711889079484
20
-18.167430776835726
10
-4.5536711889079839
20
-5.1674307768357339
42
-0.41421356237307488
10
-4.0536711889079413
20
-4.6674307768357348
0
LWPOLYLINE
5
196
100
AcDbEntity
8
0
100
AcDbPolyline
90
8
70
1
43
0.0
10
138.32132881109206
20
32.932569223164293
10
138.32132881109206
20
19.932569223164272
42
0.41421356237312495
10
138.82132881109212
20
19.432569223164265
10
151.821328811092
20
19.432569223164268
42
0.41421356237316398
10
152.32132881109203
20
19.93256922316418
10
152.32132881109206
20
32.932569223164279
42
0.41421356237307161
10
151.821328811092
20
33.432569223164322
10
138.82132881109209
20
33.432569223164286
42
0.4142135623730846
0
LWPOLYLINE
5
197
100
AcDbEntity
8
0
100
AcDbPolyline
90
8
70
1
43
0.0
10
119.27132881109209
20
19.932569223164283
42
0.41421356237307944
10
119.77132881109213
20
19.432569223164265
10
132.77132881109208
20
19.432569223164265
42
0.41421356237312101
10
133.2713288110921
20
19.932569223164265
10
133.2713288110921
20
32.932569223164293
42
0.41421356237312623
10
132.77132881109205
20
33.4325692231643
10
119.7713288110921
20
33.432569223164279
42
0.41421356237309764
10
119.27132881109209
20
32.932569223164229
0
LWPOLYLINE
5
198
100
AcDbEntity
8
0
100
AcDbPolyline
90
8
70
1
43
0.0
10
-9.3161711889079513
20
0.88256922316426234
10
-9.3161711889079868
20
13.882569223164269
42
-0.41421356237307683
10
-8.8161711889079442
20
14.382569223164268
10
4.1838288110920274
20
14.382569223164278
42
-0.41421356237311746
10
4.6838288110920345
20
13.882569223164296
10
4.6838288110920701
20
0.88256922316425357
42
-0.41421356237306917
10
4.1838288110920274
20
0.38256922316426417
10
-8.8161711889079442
20
0.38256922316425551
42
-0.41421356237313783
0
LWPOLYLINE
5
199
100
AcDbEntity
8
0
100
AcDbPolyline
90
8
70
1
43
0.0
10
-42.653671188907936
20
-18.167430776835726
42
0.41421356237310025
10
-42.153671188907929
20
-18.667430776835747
10
-29.153671188907939
20
-18.667430776835737
42
0.41421356237309631
10
-28.653671188907953
20
-18.167430776835754
10
-28.653671188907932
20
-5.1674307768357508
42
0.41421356237307227
10
-29.153671188907936
20
-4.6674307768357259
10
-42.153671188907929
20
-4.6674307768357393
42
0.41421356237308787
10
-42.653671188907936
20
-5.167430776835733
0
LWPOLYLINE
5
200
100
AcDbEntity
8
0
100
AcDbPolyline
90
8
70
1
43
0.0
10
57.358828811092053
20
19.932569223164272
42
0.41421356237310542
10
57.85882881109206
20
19.432569223164265
10
70.858828811092067
20
19.432569223164268
42
0.41421356237314055
10
71.358828811092081
20
19.932569223164272
10
71.358828811092081
20
32.932569223164307
42
0.41421356237308982
10
70.858828811092067
20
33.432569223164279
10
57.858828811092081
20
33.432569223164279
42
0.41421356237301959
10
57.358828811092053
20
32.932569223164293
0
LWPOLYLINE
5
201
100
AcDbEntity
8
0
100
AcDbPolyline
90
8
70
1
43
0.0
10
-46.91617118890796
20
14.382569223164257
42
0.41421356237310414
10
-47.416171188907938
20
13.882569223164278
10
-47.416171188907967
20
0.88256922316427122
42
0.41421356237306439
10
-46.91617118890796
20
0.38256922316424641
10
-33.91617118890796
20
0.38256922316426423
42
0.41421356237310536
10
-33.416171188907938
20
0.88256922316425346
10
-33.416171188907953
20
13.882569223164261
42
0.41421356237309892
10
-33.91617118890796
20
14.382569223164277
0
LWPOLYLINE
5
202
100
AcDbEntity
8
0
100
AcDbPolyline
90
8
70
1
43
0.0
10
59.452578811092074
20
-43.267430776835731
10
59.452578811092096
20
-56.26743077683571
42
-0.41421356237307944
10
58.95257881109206
20
-56.767430776835717
10
43.571328811092044
20
-56.767430776835717
42
-0.4142135623730846
10
43.071328811092044
20
-56.267430776835681
10
43.071328811092037
20
-43.267430776835702
42
-0.41421356237307422
10
43.571328811092044
20
-42.76743077683571
10
58.95257881109206
20
-42.767430776835695
42
-0.41421356237311585
0
LWPOLYLINE
5
203
100
AcDbEntity
8
0
100
AcDbPolyline
90
8
70
1
43
0.0
10
-137.40367118890794
20
-4.6674307768357357
10
-124.40367118890792
20
-4.6674307768357206
42
-0.41421356237308854
10
-123.90367118890794
20
-5.167430776835733
10
-123.90367118890794
20
-18.167430776835726
42
-0.41421356237308593
10
-124.40367118890792
20
-18.667430776835726
10
-137.40367118890794
20
-18.667430776835715
42
-0.41421356237311452
10
-137.90367118890794
20
-18.167430776835726
10
-137.90367118890794
20
-5.1674307768357339
42
-0.41421356237305668
0
LWPOLYLINE
5
204
100
AcDbEntity
8
0
100
AcDbPolyline
90
8
70
1
43
0.0
10
138.82132881109209
20
0.38256922316427022
42
-0.41421356237311746
10
138.32132881109206
20
0.88256922316424458
10
138.32132881109206
20
13.882569223164269
42
-0.4142135623730222
10
138.82132881109209
20
14.382569223164268
10
151.821328811092
20
14.382569223164282
42
-0.41421356237309243
10
152.32132881109206
20
13.882569223164261
10
152.32132881109206
20
0.88256922316425357
42
-0.4142135623731788
10
151.821328811092
20
0.38256922316426412
0
LWPOLYLINE
5
205
100
AcDbEntity
8
0
100
AcDbPolyline
90
8
70
1
43
0.0
10
-86.303671188907913
20
-4.6674307768357401
42
-0.41421356237308721
10
-85.803671188907941
20
-5.167430776835733
10
-85.803671188907941
20
-18.167430776835726
42
-0.41421356237314838
10
-86.303671188907941
20
-18.667430776835737
10
-99.303671188907927
20
-18.667430776835715
42
-0.41421356237310414
10
-99.803671188907941
20
-18.167430776835726
10
-99.803671188907941
20
-5.1674307768357339
42
-0.41421356237309243
10
-99.303671188907927
20
-4.6674307768357357
0
LWPOLYLINE
5
206
100
AcDbEntity
8
0
100
AcDbPolyline
90
8
70
1
43
0.0
10
-114.87867118890793
20
-37.717430776835705
10
-127.87867118890794
20
-37.717430776835698
42
-0.41421356237309764
10
-128.37867118890796
20
-37.217430776835705
10
-128.37867118890796
20
-24.217430776835709
42
-0.41421356237309503
10
-127.87867118890794
20
-23.717430776835684
10
-114.87867118890793
20
-23.717430776835691
42
-0.41421356237308982
10
-114.37867118890793
20
-24.217430776835691
10
-114.37867118890793
20
-37.217430776835691
42
-0.41421356237309503
0
LWPOLYLINE
5
207
100
AcDbEntity
8
0
100
AcDbPolyline
90
14
70
1
43
0.0
10
69.265078811092039
20
-37.217430776835705
10
69.265078811092039
20
-24.217430776835709
42
-0.41421356237308204
10
69.765078811092067
20
-23.717430776835705
10
92.290078811092059
20
-23.71743077683568
42
-0.41421356237313928
10
92.790078811092073
20
-24.217430776835691
10
92.790078811092059
20
-37.217430776835691
42
-0.41421356237313667
10
92.290078811092059
20
-37.717430776835727
10
77.352078811092028
20
-37.717430776835705
10
77.352078811092042
20
-39.217430776835656
42
-0.41421356237309503
10
76.852078811092042
20
-39.717430776835684
10
70.852078811092056
20
-39.71743077683567
42
-0.41421356237310025
10
70.352078811092042
20
-39.21743077683567
10
70.352078811092042
20
-37.717430776835677
10
69.765078811092081
20
-37.717430776835727
42
-0.41421356237316265
0
LWPOLYLINE
5
208
100
AcDbEntity
8
0
100
AcDbPolyline
90
8
70
1
43
0.0
10
-168.85992118890798
20
-56.267430776835681
10
-168.85992118890798
20
-43.267430776835731
42
-0.41421356237313667
10
-168.35992118890798
20
-42.767430776835731
10
-152.97867118890795
20
-42.767430776835702
42
-0.41421356237312623
10
-152.47867118890795
20
-43.267430776835731
10
-152.47867118890792
20
-56.26743077683571
42
-0.4142135623730534
10
-152.9786711889079
20
-56.767430776835717
10
-168.359921188908
20
-56.767430776835724
42
-0.4142135623730534
0
LWPOLYLINE
5
209
100
AcDbEntity
8
0
100
AcDbPolyline
90
8
70
1
43
0.0
10
-105.35367118890797
20
-56.767430776835717
10
-120.73492118890796
20
-56.767430776835717
42
-0.41421356237310542
10
-121.23492118890795
20
-56.26743077683571
10
-121.23492118890795
20
-43.267430776835702
42
-0.4142135623730846
10
-120.73492118890796
20
-42.767430776835731
10
-105.35367118890797
20
-42.767430776835738
42
-0.4142135623730846
10
-104.85367118890795
20
-43.267430776835731
10
-104.85367118890795
20
-56.26743077683571
42
-0.41421356237308982
0
LWPOLYLINE
5
210
100
AcDbEntity
8
0
100
AcDbPolyline
90
8
70
1
43
0.0
10
52.59632881109205
20
-18.167430776835726
10
52.596328811092107
20
-5.1674307768357339
42
-0.41421356237303192
10
53.096328811092064
20
-4.6674307768357339
10
66.096328811092064
20
-4.6674307768357473
42
-0.41421356237312429
10
66.596328811092064
20
-5.167430776835733
10
66.596328811092093
20
-18.16743077683569
42
-0.41421356237309764
10
66.096328811092064
20
-18.667430776835726
10
53.096328811092064
20
-18.667430776835722
42
-0.41421356237312495
0
LWPOLYLINE
5
211
100
AcDbEntity
8
0
100
AcDbPolyline
90
8
70
1
43
0.0
10
-171.24117118890794
20
19.9325692231643
10
-171.24117118890803
20
32.932569223164279
42
-0.41421356237312101
10
-170.74117118890797
20
33.432569223164279
10
-157.74117118890797
20
33.4325692231643
42
-0.41421356237312362
10
-157.24117118890797
20
32.932569223164279
10
-157.24117118890797
20
19.932569223164272
42
-0.41421356237308332
10
-157.74117118890797
20
19.43256922316429
10
-170.74117118890797
20
19.432569223164261
42
-0.41421356237305212
0
LWPOLYLINE
5
212
100
AcDbEntity
8
0
100
AcDbPolyline
90
8
70
1
43
0.0
10
51.808828811092063
20
33.432569223164279
10
38.808828811092042
20
33.432569223164279
42
0.414213562373069
10
38.308828811092042
20
32.932569223164229
10
38.308828811092049
20
19.932569223164272
42
0.41421356237309243
10
38.808828811092049
20
19.432569223164265
10
51.808828811092063
20
19.432569223164286
42
0.41421356237312623
10
52.308828811092063
20
19.932569223164247
10
52.308828811092063
20
32.932569223164307
42
0.41421356237311846
0
LWPOLYLINE
5
213
100
AcDbEntity
8
0
100
AcDbPolyline
90
8
70
1
43
0.0
10
70.858828811092025
20
57.2450692231643
10
57.858828811092025
20
57.2450692231643
42
0.41421356237309503
10
57.358828811092017
20
56.745069223164293
10
57.358828811092017
20
43.745069223164307
42
0.41421356237309503
10
57.858828811092025
20
43.2450692231643
10
70.858828811092025
20
43.2450692231643
42
0.41421356237309503
10
71.358828811092039
20
43.745069223164307
10
71.358828811092039
20
56.745069223164293
42
0.41421356237309503
0
LWPOLYLINE
5
214
100
AcDbEntity
8
0
100
AcDbPolyline
90
8
70
1
43
0.0
10
90.40882881109205
20
43.745069223164307
42
-0.41421356237309503
10
89.908828811092036
20
43.2450692231643
10
76.908828811092036
20
43.2450692231643
42
-0.41421356237309503
10
76.408828811092036
20
43.745069223164307
10
76.408828811092036
20
56.745069223164293
42
-0.41421356237309503
10
76.908828811092036
20
57.2450692231643
10
89.908828811092036
20
57.2450692231643
42
-0.41421356237309503
10
90.40882881109205
20
56.745069223164293
0
LWPOLYLINE
5
215
100
AcDbEntity
8
0
100
AcDbPolyline
90
8
70
1
43
0.0
10
-62.491171188907977
20
57.2450692231643
10
-75.491171188907984
20
57.2450692231643
42
0.41421356237309503
10
-75.99117118890797
20
56.745069223164293
10
-75.991171188907998
20
43.745069223164307
42
0.41421356237309503
10
-75.491171188907984
20
43.2450692231643
10
-62.491171188907977
20
43.2450692231643
42
0.41421356237309503
10
-61.99117118890797
20
43.745069223164307
10
-61.99117118890797
20
56.745069223164293
42
0.41421356237309503
0
LWPOLYLINE
5
216
100
AcDbEntity
8
0
100
AcDbPolyline
90
8
70
1
43
0.0
10
38.808828811092013
20
43.2450692231643
42
-0.41421356237309503
10
38.308828811092006
20
43.745069223164307
10
38.308828811092006
20
56.745069223164293
42
-0.41421356237309503
10
38.808828811092013
20
57.2450692231643
10
51.80882881109202
20
57.2450692231643
42
-0.41421356237309503
10
52.308828811092027
20
56.745069223164293
10
52.308828811092027
20
43.745069223164307
42
-0.41421356237309503
10
51.80882881109202
20
43.2450692231643
0
LWPOLYLINE
5
217
100
AcDbEntity
8
0
100
AcDbPolyline
90
8
70
1
43
0.0
10
-94.541171188907995
20
43.2450692231643
42
-0.41421356237309503
10
-95.04117118890801
20
43.745069223164307
10
-95.04117118890801
20
56.745069223164293
42
-0.41421356237309503
10
-94.541171188907995
20
57.2450692231643
10
-81.541171188907981
20
57.245069223164286
42
-0.41421356237309503
10
-81.041171188907995
20
56.745069223164293
10
-81.041171188907981
20
43.745069223164307
42
-0.41421356237309503
10
-81.541171188907981
20
43.2450692231643
0
LWPOLYLINE
5
218
100
AcDbEntity
8
0
100
AcDbPolyline
90
8
70
1
43
0.0
10
-14.866171188907984
20
57.2450692231643
42
-0.41421356237309503
10
-14.366171188907977
20
56.745069223164293
10
-14.366171188907977
20
43.745069223164307
42
-0.41421356237309503
10
-14.866171188907984
20
43.2450692231643
10
-27.866171188907973
20
43.2450692231643
42
-0.41421356237309503
10
-28.36617118890798
20
43.745069223164307
10
-28.36617118890798
20
56.745069223164293
42
-0.41421356237309503
10
-27.866171188907973
20
57.2450692231643
0
LWPOLYLINE
5
219
100
AcDbEntity
8
0
100
AcDbPolyline
90
8
70
1
43
0.0
10
-157.741171188908
20
57.2450692231643
10
-170.741171188908
20
57.2450692231643
42
0.41421356237309503
10
-171.24117118890797
20
56.745069223164293
10
-171.24117118890797
20
43.745069223164307
42
0.41421356237309503
10
-170.741171188908
20
43.2450692231643
10
-157.741171188908
20
43.2450692231643
42
0.41421356237309503
10
-157.241171188908
20
43.745069223164307
10
-157.241171188908
20
56.745069223164293
42
0.41421356237309503
0
LWPOLYLINE
5
220
100
AcDbEntity
8
0
100
AcDbPolyline
90
8
70
1
43
0.0
10
4.683828811091999
20
43.745069223164307
42
-0.41421356237309503
10
4.1838288110919919
20
43.2450692231643
10
-8.8161711889079797
20
43.2450692231643
42
-0.41421356237309503
10
-9.3161711889079868
20
43.745069223164307
10
-9.3161711889079868
20
56.745069223164293
42
-0.41421356237309503
10
-8.8161711889079797
20
57.2450692231643
10
4.1838288110919919
20
57.2450692231643
42
-0.41421356237309503
10
4.683828811091999
20
56.745069223164293
0
LWPOLYLINE
5
221
100
AcDbEntity
8
0
100
AcDbPolyline
90
8
70
1
43
0.0
10
10.233828811092032
20
43.2450692231643
42
-0.41421356237309503
10
9.7338288110920246
20
43.745069223164307
10
9.7338288110920246
20
56.745069223164293
42
-0.41421356237309503
10
10.233828811092032
20
57.2450692231643
10
23.233828811092039
20
57.245069223164265
42
-0.41421356237309503
10
23.73382881109201
20
56.745069223164293
10
23.733828811092046
20
43.745069223164307
42
-0.41421356237309503
10
23.233828811092039
20
43.2450692231643
0
LWPOLYLINE
5
222
100
AcDbEntity
8
0
100
AcDbPolyline
90
8
70
1
43
0.0
10
-114.09117118890799
20
56.745069223164293
42
-0.41421356237309503
10
-113.59117118890799
20
57.2450692231643
10
-100.59117118890799
20
57.2450692231643
42
-0.41421356237309503
10
-100.09117118890799
20
56.745069223164293
10
-100.09117118890799
20
43.745069223164307
42
-0.41421356237309503
10
-100.59117118890799
20
43.2450692231643
10
-113.59117118890799
20
43.245069223164315
42
-0.41421356237309503
10
-114.09117118890798
20
43.745069223164307
0
LWPOLYLINE
5
223
100
AcDbEntity
8
0
100
AcDbPolyline
90
8
70
1
43
0.0
10
-133.141171188908
20
43.745069223164307
10
-133.141171188908
20
56.745069223164293
42
-0.41421356237309503
10
-132.64117118890798
20
57.2450692231643
10
-119.64117118890798
20
57.245069223164286
42
-0.41421356237309503
10
-119.14117118890799
20
56.745069223164293
10
-119.14117118890798
20
43.745069223164307
42
-0.41421356237309503
10
-119.64117118890798
20
43.2450692231643
10
-132.64117118890798
20
43.2450692231643
42
-0.41421356237309503
0
LWPOLYLINE
5
224
100
AcDbEntity
8
0
100
AcDbPolyline
90
8
70
1
43
0.0
10
-33.916171188907995
20
57.2450692231643
10
-46.916171188907981
20
57.2450692231643
42
0.41421356237309503
10
-47.416171188907995
20
56.745069223164293
10
-47.416171188907995
20
43.745069223164307
42
0.41421356237309503
10
-46.916171188907981
20
43.2450692231643
10
-33.916171188907995
20
43.2450692231643
42
0.41421356237309503
10
-33.416171188907988
20
43.745069223164307
10
-33.416171188907988
20
56.745069223164293
42
0.41421356237309503
0
LINE
5
225
100
AcDbEntity
8
0
100
AcDbLine
10
95.958828811092047
20
43.2450692231643
30
0
11
108.95882881109205
21
43.2450692231643
31
0
0
LINE
5
226
100
AcDbEntity
8
0
100
AcDbLine
10
109.4588288110921
20
53.245069223164307
30
-4.4408920985006254e-15
11
109.45882881109206
21
43.745069223164307
31
0
0
LINE
5
227
100
AcDbEntity
8
0
100
AcDbLine
10
95.958828811092076
20
57.245069223164265
30
-4.4408920985006254e-15
11
106.95882766146887
21
57.245073016881676
31
-4.4408920985006254e-15
0
LINE
5
228
100
AcDbEntity
8
0
100
AcDbLine
10
95.458828811092076
20
43.745069223164272
30
0
11
95.458828811092076
21
56.745069223164215
31
-4.4408920985006254e-15
0
ARC
5
229
100
AcDbEntity
8
0
100
AcDbCircle
10
95.958828811092047
20
43.745069223164272
30
0
40
0.49999999999997158
210
0
220
0
230
1
100
AcDbArc
50
180
51
270.00000000000324
0
ARC
5
230
100
AcDbEntity
8
0
100
AcDbCircle
10
95.958828811092133
20
56.745069223164215
30
-4.4408920985006254e-15
40
0.50000000000005151
210
0
220
0
230
1
100
AcDbArc
50
90.000000000006523
51
180
0
ARC
5
231
100
AcDbEntity
8
0
100
AcDbCircle
10
108.95882881109205
20
43.745069223164307
30
0
40
0.50000000000000711
210
0
220
0
230
1
100
AcDbArc
50
-90
51
0
0
ENDSEC
0
SECTION
2
OBJECTS
0
DICTIONARY
5
C
100
AcDbDictionary
3
ACAD_GROUP
350
D
3
ACAD_MLINESTYLE
350
17
0
DICTIONARY
5
D
100
AcDbDictionary
0
DICTIONARY
5
1A
330
C
100
AcDbDictionary
0
DICTIONARY
5
17
100
AcDbDictionary
0
ENDSEC
0
EOF
