0
SECTION
2
HEADER
9
$INSUNITS
70
4
9
$ACADVER
1
AC1014
9
$HANDSEED
5
FFFF
0
ENDSEC
0
SECTION
2
TABLES
0
TABLE
2
VPORT
5
8
100
AcDbSymbolTable
0
ENDTAB
0
TABLE
2
LTYPE
5
5
100
AcDbSymbolTable
0
LTYPE
5
14
100
AcDbSymbolTableRecord
100
AcDbLinetypeTableRecord
2
BYBLOCK
70
0
0
LTYPE
5
15
100
AcDbSymbolTableRecord
100
AcDbLinetypeTableRecord
2
BYLAYER
70
0
0
ENDTAB
0
TABLE
2
LAYER
5
2
100
AcDbSymbolTable
70
2
0
LAYER
5
50
100
AcDbSymbolTableRecord
100
AcDbLayerTableRecord
2
0
70
0
6
CONTINUOUS
0
ENDTAB
0
TABLE
2
STYLE
5
3
100
AcDbSymbolTable
70
1
0
STYLE
5
11
100
AcDbSymbolTableRecord
100
AcDbTextStyleTableRecord
2
STANDARD
70
0
0
ENDTAB
0
TABLE
2
VIEW
5
6
100
AcDbSymbolTable
70
0
0
ENDTAB
0
TABLE
2
UCS
5
7
100
AcDbSymbolTable
70
0
0
ENDTAB
0
TABLE
2
APPID
5
9
100
AcDbSymbolTable
70
2
0
APPID
5
12
100
AcDbSymbolTableRecord
100
AcDbRegAppTableRecord
2
ACAD
70
0
0
ENDTAB
0
TABLE
2
DIMSTYLE
5
A
100
AcDbSymbolTable
70
1
0
ENDTAB
0
TABLE
2
BLOCK_RECORD
5
1
100
AcDbSymbolTable
70
1
0
BLOCK_RECORD
5
1F
100
AcDbSymbolTableRecord
100
AcDbBlockTableRecord
2
*MODEL_SPACE
0
BLOCK_RECORD
5
1B
100
AcDbSymbolTableRecord
100
AcDbBlockTableRecord
2
*PAPER_SPACE
0
ENDTAB
0
ENDSEC
0
SECTION
2
BLOCKS
0
BLOCK
5
20
100
AcDbEntity
100
AcDbBlockBegin
2
*MODEL_SPACE
0
ENDBLK
5
21
100
AcDbEntity
100
AcDbBlockEnd
0
BLOCK
5
1C
100
AcDbEntity
100
AcDbBlockBegin
2
*PAPER_SPACE
0
ENDBLK
5
1D
100
AcDbEntity
100
AcDbBlockEnd
0
ENDSEC
0
SECTION
2
ENTITIES
0
LWPOLYLINE
5
100
100
AcDbEntity
8
0
100
AcDbPolyline
90
8
70
1
43
0.0
10
10.702578811092041
20
-58.267430776835702
42
-0.41421356237305862
10
10.20257881109206
20
-58.76743077683571
10
4.2025788110920459
20
-58.767430776835745
42
-0.41421356237311224
10
3.7025788110920477
20
-58.267430776835702
10
3.7025788110920708
20
-44.267430776835681
42
-0.41421356237311258
10
4.2025788110920459
20
-43.767430776835702
10
10.20257881109206
20
-43.767430776835681
42
-0.41421356237311197
10
10.70257881109206
20
-44.26743077683571
0
LWPOLYLINE
5
101
100
AcDbEntity
8
0
100
AcDbPolyline
90
13
70
1
43
0.0
10
29.758828811092073
20
-58.267430776835702
10
29.758828811092076
20
-56.76743077683571
10
35.140078811092053
20
-56.767430776835717
42
0.41421356237310281
10
35.640078811092074
20
-56.26743077683571
10
35.640078811092046
20
-43.267430776835702
42
0.41421356237308721
10
35.140078811092053
20
-42.767430776835695
10
29.758828811092076
20
-42.767430776835695
10
22.140078811092071
20
-42.767430776835695
42
0.41421356237309243
10
21.640078811092067
20
-43.267430776835702
10
21.640078811092067
20
-58.424126046080708
10
21.640078811092071
20
-58.267430776835681
42
0.41421356237309503
10
22.140078811092071
20
-58.767430776835681
10
29.25882881109208
20
-58.76743077683571
42
0.41421356237308982
0
LINE
5
102
100
AcDbEntity
8
0
100
AcDbLine
10
109.4588288110921
20
53.245069223164307
30
-4.4408920985006254e-15
11
109.45882881109208
21
43.745069223164307
31
0
0
LINE
5
103
100
AcDbEntity
8
0
100
AcDbLine
10
95.958828811092076
20
43.2450692231643
30
0
11
108.95882881109205
21
43.2450692231643
31
0
0
LWPOLYLINE
5
104
100
AcDbEntity
8
0
100
AcDbPolyline
90
8
70
1
43
0.0
10
-96.297421188907947
20
-58.26743077683571
10
-96.297421188907961
20
-44.267430776835681
42
-0.41421356237304818
10
-95.797421188907933
20
-43.767430776835702
10
-85.041171188907924
20
-43.767430776835674
42
-0.41421356237304818
10
-84.541171188907924
20
-44.26743077683571
10
-84.541171188907953
20
-58.267430776835702
42
-0.41421356237312101
10
-85.041171188907967
20
-58.767430776835681
10
-95.797421188907919
20
-58.767430776835745
42
-0.41421356237313145
0
LINE
5
105
100
AcDbEntity
8
0
100
AcDbLine
10
95.958828811092076
20
57.245069223164258
30
-4.4408920985006254e-15
11
106.95882766146887
21
57.245073016881705
31
0
0
LWPOLYLINE
5
106
100
AcDbEntity
8
0
100
AcDbPolyline
90
8
70
1
43
0.0
10
-170.741171188908
20
57.2450692231643
10
-157.741171188908
20
57.245069223164293
42
-0.41421356237312101
10
-157.241171188908
20
56.745069223164293
10
-157.241171188908
20
43.745069223164307
42
-0.41421356237311585
10
-157.741171188908
20
43.245069223164307
10
-170.741171188908
20
43.245069223164336
42
-0.41421356237309503
10
-171.24117118890806
20
43.745069223164307
10
-171.24117118890806
20
56.745069223164293
42
-0.41421356237307422
0
ARC
5
107
100
AcDbEntity
8
0
100
AcDbCircle
10
106.95882748902717
20
57.745073016881612
30
0
40
0.49999999999994804
210
0
220
0
230
1
100
AcDbArc
50
-89.999980239636557
51
0.00015149611320898552
0
ARC
5
108
100
AcDbEntity
8
0
100
AcDbCircle
10
123.77128717627019
20
72.991346238874385
30
0
40
2.4999999999999996
210
0
220
0
230
1
100
AcDbArc
50
90.000151496132389
51
180.0001514961132
0
ARC
5
109
100
AcDbEntity
8
0
100
AcDbCircle
10
-176.18990075143242
20
65.490549143415478
30
0
40
10.000000000000007
210
0
220
0
230
1
100
AcDbArc
50
90.000151496132716
51
180.00469079216342
0
LINE
5
110
100
AcDbEntity
8
0
100
AcDbLine
10
176.19021337829619
20
75.491480873937732
30
4.4408920985006254e-15
11
123.77128056600441
21
75.491346238865646
31
0
0
ARC
5
111
100
AcDbEntity
8
0
100
AcDbCircle
10
108.95882881109205
20
43.745069223164307
30
0
40
0.50000000000000711
210
0
220
0
230
1
100
AcDbArc
50
-90
51
0
0
LWPOLYLINE
5
112
100
AcDbEntity
8
0
100
AcDbPolyline
90
8
70
1
43
0.0
10
-168.359921188908
20
-56.767430776835717
10
-152.97867118890792
20
-56.767430776835752
42
0.41421356237300661
10
-152.4786711889079
20
-56.267430776835681
10
-152.47867118890795
20
-43.267430776835731
42
0.41421356237313145
10
-152.97867118890795
20
-42.767430776835695
10
-168.35992118890798
20
-42.767430776835759
42
0.41421356237318346
10
-168.85992118890798
20
-43.267430776835702
10
-168.85992118890795
20
-56.26743077683571
42
0.41421356237304818
0
LWPOLYLINE
5
113
100
AcDbEntity
8
0
100
AcDbPolyline
90
8
70
1
43
0.0
10
-28.653671188907953
20
-18.167430776835754
10
-28.653671188907929
20
-5.1674307768357508
42
0.41421356237309764
10
-29.15367118890795
20
-4.6674307768357268
10
-42.153671188907929
20
-4.6674307768357428
42
0.4142135623731113
10
-42.653671188907936
20
-5.1674307768357419
10
-42.653671188907936
20
-18.167430776835726
42
0.41421356237310025
10
-42.153671188907929
20
-18.667430776835747
10
-29.153671188907936
20
-18.667430776835722
42
0.41421356237309243
0
LWPOLYLINE
5
114
100
AcDbEntity
8
0
100
AcDbPolyline
90
20
70
1
43
0.0
10
108.37182881109207
20
19.432569223164272
10
108.95882881109209
20
19.432569223164254
42
0.41421356237312884
10
109.45882881109213
20
19.932569223164283
10
109.45882881109213
20
32.932569223164307
42
0.41421356237310281
10
108.95882881109209
20
33.432569223164293
10
76.908828811092064
20
33.432569223164293
42
0.41421356237307161
10
76.408828811092036
20
32.932569223164229
10
76.408828811092064
20
19.932569223164283
42
0.41421356237309892
10
76.908828811092064
20
19.432569223164265
10
77.495828811092039
20
19.432569223164265
10
77.495828811092039
20
17.932569223164265
42
0.41421356237311713
10
77.995828811092039
20
17.432569223164283
10
83.99582881109211
20
17.432569223164272
42
0.41421356237302737
10
84.495828811092068
20
17.932569223164325
10
84.495828811092053
20
19.432569223164272
10
101.37182881109209
20
19.432569223164261
10
101.37182881109209
20
17.932569223164265
42
0.41421356237316526
10
101.87182881109209
20
17.432569223164283
10
107.87182881109206
20
17.432569223164293
42
0.41421356237308982
10
108.37182881109214
20
17.932569223164307
0
LWPOLYLINE
5
115
100
AcDbEntity
8
0
100
AcDbPolyline
90
8
70
1
43
0.0
10
5.4713288110920644
20
-23.717430776835684
10
18.471328811092075
20
-23.717430776835684
42
-0.4142135623730781
10
18.971328811092079
20
-24.217430776835688
10
18.971328811092075
20
-37.217430776835691
42
-0.41421356237311197
10
18.471328811092075
20
-37.717430776835727
10
5.4713288110920644
20
-37.717430776835705
42
-0.41421356237314838
10
4.9713288110920564
20
-37.217430776835705
10
4.9713288110920564
20
-24.217430776835709
42
-0.4142135623731425
0
LWPOLYLINE
5
116
100
AcDbEntity
8
0
100
AcDbPolyline
90
8
70
1
43
0.0
10
82.765078811092096
20
-56.767430776835717
10
67.383828811092059
20
-56.767430776835695
42
-0.41421356237304302
10
66.883828811092059
20
-56.26743077683571
10
66.883828811092087
20
-43.267430776835702
42
-0.4142135623730846
10
67.383828811092059
20
-42.76743077683571
10
82.76507881109211
20
-42.767430776835695
42
-0.41421356237307944
10
83.265078811092096
20
-43.267430776835731
10
83.265078811092081
20
-56.26743077683571
42
-0.41421356237308982
0
LWPOLYLINE
5
117
100
AcDbEntity
8
0
100
AcDbPolyline
90
8
70
1
43
0.0
10
-56.441171188907937
20
33.432569223164293
10
-43.441171188907965
20
33.432569223164272
42
-0.41421356237308721
10
-42.941171188907958
20
32.932569223164279
10
-42.941171188907944
20
19.932569223164283
42
-0.41421356237308204
10
-43.441171188907937
20
19.43256922316429
10
-56.441171188907937
20
19.432569223164293
42
-0.41421356237308071
10
-56.941171188907944
20
19.932569223164293
10
-56.941171188907944
20
32.932569223164293
42
-0.41421356237307944
0
LWPOLYLINE
5
118
100
AcDbEntity
8
0
100
AcDbPolyline
90
8
70
1
43
0.0
10
-85.516171188907947
20
13.882569223164269
42
-0.41421356237305079
10
-85.016171188907933
20
14.382569223164275
10
-72.016171188907933
20
14.382569223164275
42
-0.41421356237306772
10
-71.516171188907947
20
13.882569223164269
10
-71.516171188907947
20
0.88256922316426245
42
-0.41421356237309037
10
-72.016171188907961
20
0.3825692231642619
10
-85.016171188907933
20
0.38256922316423719
42
-0.41421356237304324
10
-85.516171188907947
20
0.88256922316426234
0
LWPOLYLINE
5
119
100
AcDbEntity
8
0
100
AcDbPolyline
90
8
70
1
43
0.0
10
138.32132881109206
20
19.932569223164283
10
138.32132881109206
20
32.932569223164229
42
-0.41421356237311324
10
138.82132881109209
20
33.432569223164265
10
151.821328811092
20
33.432569223164236
42
-0.41421356237307683
10
152.32132881109203
20
32.932569223164279
10
152.32132881109197
20
19.932569223164283
42
-0.41421356237320561
10
151.821328811092
20
19.432569223164265
10
138.82132881109209
20
19.432569223164275
42
-0.41421356237309503
0
LWPOLYLINE
5
120
100
AcDbEntity
8
0
100
AcDbPolyline
90
8
70
1
43
0.0
10
-32.628671188907958
20
-37.717430776835698
42
-0.41421356237308982
10
-33.128671188907958
20
-37.217430776835705
10
-33.128671188907965
20
-24.217430776835709
42
-0.41421356237311063
10
-32.628671188907958
20
-23.717430776835684
10
-19.628671188907951
20
-23.717430776835691
42
-0.41421356237309631
10
-19.128671188907951
20
-24.217430776835691
10
-19.128671188907941
20
-37.217430776835691
42
-0.41421356237309892
10
-19.628671188907951
20
-37.717430776835705
0
LWPOLYLINE
5
121
100
AcDbEntity
8
0
100
AcDbPolyline
90
8
70
1
43
0.0
10
47.046328811092046
20
-18.667430776835722
42
0.4142135623730781
10
47.546328811092089
20
-18.167430776835726
10
47.546328811092053
20
-5.1674307768357055
42
0.41421356237310414
10
47.046328811092046
20
-4.6674307768357339
10
34.046328811092053
20
-4.6674307768357348
42
0.41421356237305273
10
33.546328811092074
20
-5.1674307768357863
10
33.546328811092039
20
-18.167430776835761
42
0.41421356237312101
10
34.046328811092053
20
-18.667430776835726
0
LWPOLYLINE
5
122
100
AcDbEntity
8
0
100
AcDbPolyline
90
8
70
1
43
0.0
10
33.258828811092087
20
19.932569223164283
42
-0.41421356237313017
10
32.758828811092073
20
19.43256922316429
10
19.758828811092073
20
19.432569223164265
42
-0.41421356237310802
10
19.258828811092066
20
19.932569223164283
10
19.258828811092048
20
32.932569223164251
42
-0.41421356237309503
10
19.758828811092073
20
33.432569223164293
10
32.758828811092073
20
33.4325692231643
42
-0.41421356237311846
10
33.258828811092073
20
32.932569223164279
0
LWPOLYLINE
5
123
100
AcDbEntity
8
0
100
AcDbPolyline
90
8
70
1
43
0.0
10
170.87132881109198
20
0.38256922316426811
10
157.87132881109204
20
0.3825692231642952
42
-0.41421356237304041
10
157.3713288110921
20
0.88256922316431563
10
157.3713288110921
20
13.882569223164349
42
-0.41421356237312495
10
157.87132881109204
20
14.382569223164268
10
170.87132881109204
20
14.38256922316425
42
-0.41421356237304818
10
171.3713288110921
20
13.882569223164216
10
171.37132881109198
20
0.88256922316417352
42
-0.41421356237307416
0
LWPOLYLINE
5
124
100
AcDbEntity
8
0
100
AcDbPolyline
90
8
70
1
43
0.0
10
71.358828811092081
20
32.932569223164279
42
0.41421356237313667
10
70.858828811092067
20
33.432569223164293
10
57.85882881109206
20
33.432569223164293
42
0.41421356237306384
10
57.358828811092053
20
32.932569223164229
10
57.358828811092046
20
19.932569223164272
42
0.41421356237311846
10
57.85882881109206
20
19.432569223164272
10
70.858828811092067
20
19.43256922316429
42
0.41421356237312362
10
71.358828811092096
20
19.932569223164247
0
LWPOLYLINE
5
125
100
AcDbEntity
8
0
100
AcDbPolyline
90
8
70
1
43
0.0
10
170.87132881109198
20
19.432569223164247
42
0.41421356237305212
10
171.37132881109198
20
19.93256922316418
10
171.3713288110921
20
32.932569223164279
42
0.41421356237307161
10
170.87132881109204
20
33.432569223164265
10
157.87132881109204
20
33.432569223164279
42
0.41421356237313667
10
157.3713288110921
20
32.932569223164379
10
157.3713288110921
20
19.932569223164364
42
0.41421356237301438
10
157.87132881109204
20
19.432569223164315
0
LWPOLYLINE
5
126
100
AcDbEntity
8
0
100
AcDbPolyline
90
8
70
1
43
0.0
10
58.95257881109206
20
-42.767430776835688
10
43.571328811092044
20
-42.76743077683571
42
0.41421356237311063
10
43.071328811092044
20
-43.267430776835702
10
43.071328811092044
20
-56.26743077683571
42
0.41421356237307422
10
43.571328811092044
20
-56.767430776835688
10
58.95257881109206
20
-56.767430776835717
42
0.41421356237307422
10
59.452578811092081
20
-56.26743077683571
10
59.452578811092081
20
-43.267430776835731
42
0.41421356237311585
0
LWPOLYLINE
5
127
100
AcDbEntity
8
0
100
AcDbPolyline
90
8
70
1
43
0.0
10
-37.891171188907947
20
32.932569223164293
42
-0.41421356237310542
10
-37.391171188907947
20
33.432569223164293
10
-24.391171188907954
20
33.432569223164293
42
-0.41421356237309503
10
-23.891171188907947
20
32.932569223164279
10
-23.891171188907947
20
19.932569223164283
42
-0.41421356237310542
10
-24.391171188907954
20
19.432569223164293
10
-37.391171188907954
20
19.432569223164265
42
-0.41421356237304952
10
-37.891171188907947
20
19.932569223164283
0
LWPOLYLINE
5
128
100
AcDbEntity
8
0
100
AcDbPolyline
90
6
70
1
43
0.0
10
177.42948918626692
20
67.841507823181558
10
178.78626231886261
20
65.49150782318155
10
177.42948918626692
20
63.141507823181513
10
174.71594292107565
20
63.141507823181513
10
173.35916978848005
20
65.49150782318155
10
174.71594292107565
20
67.84150782318153
0
LWPOLYLINE
5
129
100
AcDbEntity
8
0
100
AcDbPolyline
90
8
70
1
43
0.0
10
138.32132881109206
20
-37.217430776835705
10
138.32132881109206
20
-24.217430776835691
42
-0.41421356237310542
10
138.82132881109209
20
-23.717430776835691
10
151.821328811092
20
-23.717430776835666
42
-0.41421356237308982
10
152.32132881109203
20
-24.217430776835755
10
152.32132881109212
20
-37.217430776835705
42
-0.41421356237316526
10
151.821328811092
20
-37.717430776835691
10
138.82132881109209
20
-37.717430776835712
42
-0.41421356237309243
0
LWPOLYLINE
5
130
100
AcDbEntity
8
0
100
AcDbPolyline
90
8
70
1
43
0.0
10
37.521328811092047
20
-37.717430776835727
10
24.52132881109204
20
-37.717430776835698
42
-0.41421356237308982
10
24.021328811092037
20
-37.217430776835705
10
24.021328811092072
20
-24.217430776835709
42
-0.41421356237312884
10
24.52132881109204
20
-23.717430776835691
10
37.521328811092047
20
-23.717430776835684
42
-0.41421356237310802
10
38.021328811092047
20
-24.217430776835656
10
38.021328811092047
20
-37.217430776835691
42
-0.41421356237317569
0
LWPOLYLINE
5
131
100
AcDbEntity
8
0
100
AcDbPolyline
90
14
70
1
43
0.0
10
77.352078811092028
20
-39.217430776835656
10
77.352078811092028
20
-37.717430776835705
10
92.290078811092059
20
-37.717430776835741
42
0.41421356237308204
10
92.790078811092073
20
-37.217430776835755
10
92.790078811092073
20
-24.217430776835691
42
0.41421356237313928
10
92.290078811092059
20
-23.71743077683568
10
69.765078811092067
20
-23.717430776835705
42
0.41421356237313406
10
69.265078811092039
20
-24.217430776835709
10
69.265078811092039
20
-37.217430776835755
42
0.41421356237310542
10
69.765078811092081
20
-37.717430776835727
10
70.352078811092042
20
-37.717430776835677
10
70.352078811092042
20
-39.21743077683567
42
0.41421356237310802
10
70.852078811092056
20
-39.71743077683567
10
76.852078811092042
20
-39.717430776835677
42
0.41421356237311846
0
LWPOLYLINE
5
132
100
AcDbEntity
8
0
100
AcDbPolyline
90
8
70
1
43
0.0
10
-152.19117118890802
20
19.932569223164272
10
-152.19117118890796
20
32.932569223164279
42
-0.41421356237312362
10
-151.69117118890796
20
33.432569223164293
10
-138.69117118890799
20
33.432569223164315
42
-0.41421356237302737
10
-138.19117118890796
20
32.932569223164279
10
-138.19117118890796
20
19.932569223164283
42
-0.41421356237314838
10
-138.69117118890796
20
19.432569223164293
10
-151.69117118890802
20
19.432569223164311
42
-0.41421356237316265
0
LWPOLYLINE
5
133
100
AcDbEntity
8
0
100
AcDbPolyline
90
6
70
1
43
0.0
10
89.195758088770845
20
67.841365865095241
10
91.909304353714788
20
67.841402498609966
10
93.26610921174121
20
65.491420815581492
10
91.909367804823589
20
63.141402499038293
10
89.195821539879631
20
63.141365865523518
10
87.839016681853252
20
65.491347548552028
0
LWPOLYLINE
5
134
100
AcDbEntity
8
0
100
AcDbPolyline
90
6
70
1
43
0.0
10
177.42705346374424
20
-63.141492191157923
10
178.7838263690372
20
-65.491491797458167
10
177.42705346374424
20
-67.841491403758397
10
174.71350765315844
20
-67.841491403758369
10
173.35673474786549
20
-65.491491797458167
10
174.71350765315844
20
-63.14149219115798
0
LWPOLYLINE
5
135
100
AcDbEntity
8
0
100
AcDbPolyline
90
8
70
1
43
0.0
10
-113.59117118890795
20
33.4325692231643
10
-100.59117118890796
20
33.432569223164258
42
-0.41421356237311846
10
-100.09117118890796
20
32.932569223164279
10
-100.09117118890796
20
19.932569223164283
42
-0.41421356237314444
10
-100.59117118890804
20
19.432569223164297
10
-113.59117118890795
20
19.432569223164258
42
-0.41421356237312623
10
-114.09117118890792
20
19.932569223164283
10
-114.09117118890792
20
32.932569223164293
42
-0.41421356237307161
0
LWPOLYLINE
5
136
100
AcDbEntity
8
0
100
AcDbPolyline
90
8
70
1
43
0.0
10
-109.32867118890796
20
-37.217430776835727
10
-109.328671188908
20
-24.217430776835691
42
-0.41421356237312623
10
-108.82867118890795
20
-23.717430776835684
10
-95.828671188907919
20
-23.717430776835691
42
-0.41421356237305862
10
-95.328671188907933
20
-24.217430776835691
10
-95.328671188907933
20
-37.217430776835705
42
-0.414213562373069
10
-95.828671188907947
20
-37.717430776835705
10
-108.828671188908
20
-37.717430776835727
42
-0.4142135623730378
0
LWPOLYLINE
5
137
100
AcDbEntity
8
0
100
AcDbPolyline
90
8
70
1
43
0.0
10
97.052578811092076
20
-18.667430776835726
10
84.052578811092062
20
-18.667430776835737
42
-0.41421356237307683
10
83.55257881109209
20
-18.167430776835726
10
83.552578811092033
20
-5.1674307768357339
42
-0.41421356237303714
10
84.052578811092062
20
-4.6674307768357348
10
97.052578811092104
20
-4.6674307768357313
42
-0.41421356237309698
10
97.55257881109209
20
-5.1674307768357242
10
97.55257881109209
20
-18.16743077683568
42
-0.41421356237305601
0
LWPOLYLINE
5
138
100
AcDbEntity
8
0
100
AcDbPolyline
90
8
70
1
43
0.0
10
-52.178671188907934
20
-24.217430776835709
42
-0.41421356237310802
10
-51.678671188907963
20
-23.71743077683568
10
-38.678671188907941
20
-23.717430776835684
42
-0.41421356237306639
10
-38.178671188907941
20
-24.217430776835691
10
-38.178671188907941
20
-37.217430776835691
42
-0.41421356237307161
10
-38.678671188907941
20
-37.717430776835727
10
-51.678671188907956
20
-37.717430776835691
42
-0.41421356237311846
10
-52.178671188907941
20
-37.217430776835705
0
LWPOLYLINE
5
139
100
AcDbEntity
8
0
100
AcDbPolyline
90
8
70
1
43
0.0
10
-160.77292118890796
20
-39.21743077683567
10
-160.77292118890796
20
-25.217430776835648
42
0.41421356237314183
10
-161.27292118890796
20
-24.717430776835645
10
-167.27292118890801
20
-24.717430776835677
42
0.41421356237304563
10
-167.77292118890801
20
-25.21743077683567
10
-167.77292118890799
20
-39.217430776835656
42
0.41421356237301699
10
-167.27292118890801
20
-39.717430776835641
10
-161.27292118890796
20
-39.717430776835684
42
0.41421356237313928
0
LWPOLYLINE
5
140
100
AcDbEntity
8
0
100
AcDbPolyline
90
6
70
1
43
0.0
10
-174.57104669928844
20
-63.141491403758401
10
-173.21427356669292
20
-65.491491403758403
10
-174.57104669928844
20
-67.841491403758383
10
-177.28459296447969
20
-67.841491403758383
10
-178.64136609707526
20
-65.491491403758403
10
-177.28459296447969
20
-63.141491403758401
0
LWPOLYLINE
5
141
100
AcDbEntity
8
0
100
AcDbPolyline
90
8
70
1
43
0.0
10
170.87132881109198
20
-56.767430776835738
10
157.87132881109204
20
-56.767430776835688
42
-0.41421356237297535
10
157.3713288110921
20
-56.267430776835639
10
157.37132881109201
20
-43.267430776835702
42
-0.41421356237311063
10
157.87132881109204
20
-42.767430776835731
10
170.87132881109198
20
-42.767430776835702
42
-0.41421356237310542
10
171.37132881109213
20
-43.267430776835731
10
171.3713288110921
20
-56.26743077683571
42
-0.41421356237319906
0
LWPOLYLINE
5
142
100
AcDbEntity
8
0
100
AcDbPolyline
90
8
70
1
43
0.0
10
-94.541171188907953
20
33.432569223164293
42
0.41421356237312362
10
-95.041171188907953
20
32.932569223164293
10
-95.041171188907953
20
19.932569223164283
42
0.41421356237310675
10
-94.541171188907953
20
19.432569223164272
10
-81.541171188907953
20
19.4325692231643
42
0.41421356237313273
10
-81.041171188907967
20
19.932569223164283
10
-81.041171188907953
20
32.932569223164279
42
0.41421356237310281
10
-81.541171188907953
20
33.432569223164293
0
LWPOLYLINE
5
143
100
AcDbEntity
8
0
100
AcDbPolyline
90
6
70
1
43
0.0
10
8.233283600839485
20
67.841273557877116
10
10.946829866021233
20
67.841280732781954
10
12.303609212261968
20
65.491284320242599
10
10.946842293320957
20
63.141280732798393
10
8.2332960281392058
20
63.141273557893562
10
6.8765166818984724
20
65.491269970432924
0
LWPOLYLINE
5
144
100
AcDbEntity
8
0
100
AcDbPolyline
90
8
70
1
43
0.0
10
-159.334921188908
20
-37.217430776835705
10
-159.33492118890797
20
-24.217430776835709
42
-0.41421356237309503
10
-158.83492118890797
20
-23.717430776835684
10
-145.83492118890797
20
-23.71743077683567
42
-0.41421356237309243
10
-145.33492118890797
20
-24.217430776835691
10
-145.33492118890797
20
-37.217430776835691
42
-0.41421356237301177
10
-145.83492118890797
20
-37.717430776835705
10
-158.834921188908
20
-37.717430776835727
42
-0.41421356237312362
0
LWPOLYLINE
5
145
100
AcDbEntity
8
0
100
AcDbPolyline
90
8
70
1
43
0.0
10
75.614578811092059
20
-2.6674307768357353
42
0.41421356237308854
10
75.114578811092031
20
-3.1674307768357668
10
75.114578811092059
20
-17.167430776835715
42
0.41421356237315748
10
75.614578811092059
20
-17.667430776835715
10
81.614578811092088
20
-17.667430776835719
42
0.41421356237306639
10
82.114578811092116
20
-17.167430776835744
10
82.114578811092102
20
-3.1674307768356962
42
0.4142135623731113
10
81.614578811092059
20
-2.667430776835729
0
LWPOLYLINE
5
146
100
AcDbEntity
8
0
100
AcDbPolyline
90
8
70
1
43
0.0
10
57.071328811092073
20
-24.217430776835656
10
57.071328811092073
20
-37.217430776835755
42
-0.41421356237312101
10
56.571328811092073
20
-37.717430776835727
10
43.571328811092044
20
-37.717430776835705
42
-0.41421356237309503
10
43.071328811092044
20
-37.217430776835705
10
43.07132881109208
20
-24.217430776835709
42
-0.41421356237308721
10
43.571328811092044
20
-23.717430776835691
10
56.571328811092059
20
-23.71743077683568
42
-0.41421356237312362
0
LWPOLYLINE
5
147
100
AcDbEntity
8
0
100
AcDbPolyline
90
8
70
1
43
0.0
10
-5.3411711889079445
20
19.43256922316429
42
0.41421356237312623
10
-4.8411711889079214
20
19.932569223164283
10
-4.8411711889079392
20
32.932569223164279
42
0.41421356237311258
10
-5.3411711889079445
20
33.4325692231643
10
-18.341171188907925
20
33.432569223164293
42
0.41421356237310025
10
-18.841171188907921
20
32.9325692231643
10
-18.841171188907925
20
19.932569223164283
42
0.4142135623730599
10
-18.341171188907925
20
19.432569223164265
0
LWPOLYLINE
5
148
100
AcDbEntity
8
0
100
AcDbPolyline
90
8
70
1
43
0.0
10
14.208828811092037
20
19.932569223164283
10
14.208828811092037
20
32.932569223164307
42
0.41421356237312362
10
13.708828811092033
20
33.432569223164279
10
0.70882881109206153
20
33.4325692231643
42
0.41421356237310969
10
0.20882881109203541
20
32.932569223164251
10
0.20882881109205595
20
19.932569223164258
42
0.41421356237309948
10
0.70882881109206153
20
19.432569223164251
10
13.708828811092033
20
19.432569223164272
42
0.41421356237314055
0
LWPOLYLINE
5
149
100
AcDbEntity
8
0
100
AcDbPolyline
90
6
70
1
43
0.0
10
-72.72921639887754
20
67.841166521148153
10
-70.015670133695778
20
67.841173696052991
10
-68.658890787455022
20
65.491177283513636
10
-70.015657706396027
20
63.141173696069401
10
-72.729203971577803
20
63.141166521164564
10
-74.085983317818545
20
65.491162933703933
0
LWPOLYLINE
5
150
100
AcDbEntity
8
0
100
AcDbPolyline
90
8
70
1
43
0.0
10
-124.40367118890792
20
-18.667430776835726
42
0.41421356237310153
10
-123.90367118890794
20
-18.167430776835726
10
-123.90367118890795
20
-5.1674307768357339
42
0.41421356237307355
10
-124.40367118890792
20
-4.6674307768357242
10
-137.40367118890794
20
-4.6674307768357339
42
0.41421356237305929
10
-137.90367118890794
20
-5.167430776835733
10
-137.90367118890794
20
-18.167430776835726
42
0.41421356237312101
10
-137.40367118890794
20
-18.667430776835726
0
LWPOLYLINE
5
151
100
AcDbEntity
8
0
100
AcDbPolyline
90
6
70
1
43
0.0
10
42.0692500634323
20
-65.491491560850903
10
40.712476925803429
20
-67.84149155794492
10
37.998930660612203
20
-67.841491552133007
10
36.642157533049826
20
-65.491491549227078
10
37.998930670678703
20
-63.14149155213304
10
40.712476935869937
20
-63.141491557944967
0
LWPOLYLINE
5
152
100
AcDbEntity
8
0
100
AcDbPolyline
90
8
70
1
43
0.0
10
-71.228671188907967
20
-24.217430776835691
10
-71.228671188907953
20
-37.217430776835705
42
0.41421356237308204
10
-70.728671188907953
20
-37.717430776835705
10
-57.728671188907974
20
-37.717430776835705
42
0.41421356237307683
10
-57.228671188907967
20
-37.217430776835691
10
-57.228671188907967
20
-24.217430776835691
42
0.41421356237307422
10
-57.728671188907974
20
-23.717430776835684
10
-70.728671188907953
20
-23.717430776835702
42
0.41421356237310025
0
LWPOLYLINE
5
153
100
AcDbEntity
8
0
100
AcDbPolyline
90
6
70
1
43
0.0
10
-126.3073193010306
20
-67.841491379248396
10
-127.66409242859294
20
-65.491491376342395
10
-126.30731929096402
20
-63.141491379248379
10
-123.5937730257728
20
-63.14149138506032
10
-122.23699989821046
20
-65.491491387966292
10
-123.59377303583938
20
-67.841491385060309
0
LWPOLYLINE
5
154
100
AcDbEntity
8
0
100
AcDbPolyline
90
8
70
1
43
0.0
10
-104.066171188908
20
0.38256922316425734
10
-91.066171188907944
20
0.38256922316426356
42
0.41421356237306933
10
-90.566171188907958
20
0.88256922316424458
10
-90.56617118890793
20
13.882569223164252
42
0.41421356237308071
10
-91.066171188907873
20
14.382569223164268
10
-104.06617118890793
20
14.382569223164261
42
0.41421356237310675
10
-104.56617118890793
20
13.882569223164269
10
-104.56617118890793
20
0.88256922316425357
42
0.41421356237306595
0
LWPOLYLINE
5
155
100
AcDbEntity
8
0
100
AcDbPolyline
90
8
70
1
43
0.0
10
132.77132881109208
20
33.432569223164307
10
119.7713288110921
20
33.432569223164272
42
0.41421356237311324
10
119.27132881109209
20
32.932569223164229
10
119.27132881109209
20
19.932569223164283
42
0.41421356237312495
10
119.7713288110921
20
19.432569223164261
10
132.7713288110921
20
19.432569223164272
42
0.41421356237310675
10
133.2713288110921
20
19.932569223164265
10
133.27132881109208
20
32.932569223164279
42
0.41421356237307683
0
LWPOLYLINE
5
156
100
AcDbEntity
8
0
100
AcDbPolyline
90
8
70
1
43
0.0
10
-33.916171188907953
20
0.38256922316426256
42
0.41421356237310381
10
-33.416171188907938
20
0.88256922316426234
10
-33.41617118890796
20
13.882569223164269
42
0.4142135623730937
10
-33.91617118890796
20
14.382569223164277
10
-46.91617118890796
20
14.382569223164261
42
0.41421356237310153
10
-47.416171188907938
20
13.882569223164269
10
-47.416171188907967
20
0.88256922316427133
42
0.41421356237310036
10
-46.916171188907967
20
0.38256922316424219
0
LWPOLYLINE
5
157
100
AcDbEntity
8
0
100
AcDbPolyline
90
8
70
1
43
0.0
10
-128.66617118890798
20
0.88256922316426234
42
-0.41421356237308554
10
-129.16617118890795
20
0.38256922316427089
10
-142.16617118890795
20
0.38256922316427161
42
-0.4142135623731063
10
-142.66617118890795
20
0.88256922316426234
10
-142.66617118890795
20
13.882569223164261
42
-0.41421356237309631
10
-142.16617118890795
20
14.382569223164268
10
-129.16617118890795
20
14.382569223164287
42
-0.4142135623730443
10
-128.66617118890795
20
13.882569223164261
0
LWPOLYLINE
5
158
100
AcDbEntity
8
0
100
AcDbPolyline
90
8
70
1
43
0.0
10
-99.803671188907956
20
-18.167430776835737
42
0.41421356237311585
10
-99.303671188907927
20
-18.667430776835722
10
-86.303671188907941
20
-18.66743077683574
42
0.41421356237305079
10
-85.803671188907941
20
-18.167430776835754
10
-85.803671188907913
20
-5.1674307768357348
42
0.41421356237309309
10
-86.303671188907913
20
-4.6674307768357339
10
-99.303671188907927
20
-4.6674307768357446
42
0.41421356237310608
10
-99.803671188907941
20
-5.1674307768357348
0
LWPOLYLINE
5
159
100
AcDbEntity
8
0
100
AcDbPolyline
90
8
70
1
43
0.0
10
-80.253671188907973
20
-18.667430776835751
42
-0.41421356237305601
10
-80.753671188907973
20
-18.167430776835737
10
-80.753671188907958
20
-5.1674307768357419
42
-0.41421356237304363
10
-80.253671188907973
20
-4.6674307768357268
10
-67.253671188907944
20
-4.6674307768357348
42
-0.4142135623731113
10
-66.75367118890793
20
-5.167430776835733
10
-66.75367118890793
20
-18.167430776835726
42
-0.41421356237311452
10
-67.253671188907944
20
-18.667430776835722
0
LWPOLYLINE
5
160
100
AcDbEntity
8
0
100
AcDbPolyline
90
8
70
1
43
0.0
10
-143.39692118890795
20
-39.717430776835691
42
-0.41421356237312362
10
-143.89692118890795
20
-39.21743077683567
10
-143.89692118890795
20
-25.21743077683567
42
-0.41421356237309243
10
-143.39692118890795
20
-24.717430776835666
10
-137.39692118890792
20
-24.71743077683567
42
-0.41421356237318346
10
-136.89692118890798
20
-25.21743077683567
10
-136.89692118890798
20
-39.21743077683567
42
-0.41421356237305601
10
-137.39692118890795
20
-39.717430776835684
0
LWPOLYLINE
5
161
100
AcDbEntity
8
0
100
AcDbPolyline
90
8
70
1
43
0.0
10
51.808828811092063
20
19.43256922316429
10
38.808828811092049
20
19.432569223164261
42
-0.41421356237308854
10
38.308828811092042
20
19.932569223164272
10
38.308828811092042
20
32.932569223164293
42
-0.41421356237304041
10
38.808828811092049
20
33.432569223164279
10
51.80882881109207
20
33.432569223164307
42
-0.41421356237310542
10
52.308828811092063
20
32.932569223164279
10
52.308828811092056
20
19.932569223164283
42
-0.41421356237312623
0
LWPOLYLINE
5
162
100
AcDbEntity
8
0
100
AcDbPolyline
90
8
70
1
43
0.0
10
-168.35992118890798
20
-18.667430776835747
10
-150.59742118890796
20
-18.667430776835722
42
0.41421356237313928
10
-150.09742118890796
20
-18.167430776835726
10
-150.09742118890796
20
-5.1674307768357339
42
0.41421356237306317
10
-150.59742118890802
20
-4.6674307768357277
10
-168.35992118890798
20
-4.6674307768357268
42
0.41421356237313667
10
-168.85992118890798
20
-5.167430776835733
10
-168.85992118890798
20
-18.167430776835726
42
0.41421356237314705
0
LWPOLYLINE
5
163
100
AcDbEntity
8
0
100
AcDbPolyline
90
8
70
1
43
0.0
10
23.233828811092078
20
0.38256922316426362
10
10.233828811092067
20
0.38256922316426328
42
-0.41421356237313595
10
9.7338288110920619
20
0.88256922316426234
10
9.7338288110920246
20
13.882569223164269
42
-0.41421356237307683
10
10.233828811092067
20
14.382569223164268
10
23.233828811092078
20
14.382569223164285
42
-0.41421356237312101
10
23.733828811092078
20
13.882569223164261
10
23.733828811092078
20
0.88256922316425357
42
-0.4142135623730116
0
LWPOLYLINE
5
164
100
AcDbEntity
8
0
100
AcDbPolyline
90
8
70
1
43
0.0
10
-75.491171188907941
20
33.432569223164293
10
-62.491171188907941
20
33.432569223164293
42
-0.41421356237308204
10
-61.991171188907941
20
32.932569223164279
10
-61.991171188907934
20
19.932569223164283
42
-0.41421356237316787
10
-62.491171188907941
20
19.432569223164297
10
-75.49117118890797
20
19.43256922316429
42
-0.4142135623730599
10
-75.991171188907956
20
19.932569223164283
10
-75.991171188907956
20
32.932569223164293
42
-0.41421356237307944
0
LWPOLYLINE
5
165
100
AcDbEntity
8
0
100
AcDbPolyline
90
8
70
1
43
0.0
10
132.77132881109208
20
14.382569223164257
10
119.7713288110921
20
14.382569223164266
42
0.41421356237305729
10
119.27132881109209
20
13.882569223164216
10
119.27132881109209
20
0.88256922316424458
42
0.41421356237309853
10
119.77132881109213
20
0.38256922316426495
10
132.77132881109208
20
0.3825692231642655
42
0.41421356237303703
10
133.27132881109205
20
0.88256922316431563
10
133.27132881109205
20
13.882569223164278
42
0.41421356237309764
0
LWPOLYLINE
5
166
100
AcDbEntity
8
0
100
AcDbPolyline
90
8
70
1
43
0.0
10
-128.37867118890796
20
-24.217430776835709
10
-128.37867118890796
20
-37.217430776835705
42
0.41421356237311324
10
-127.87867118890794
20
-37.717430776835691
10
-114.87867118890793
20
-37.717430776835684
42
0.41421356237311846
10
-114.37867118890793
20
-37.217430776835705
10
-114.37867118890793
20
-24.217430776835691
42
0.41421356237309243
10
-114.87867118890793
20
-23.717430776835691
10
-127.87867118890794
20
-23.717430776835723
42
0.41421356237311324
0
LWPOLYLINE
5
167
100
AcDbEntity
8
0
100
AcDbPolyline
90
8
70
1
43
0.0
10
-49.29742118890794
20
-56.767430776835717
10
-24.391171188907954
20
-56.767430776835717
42
0.41421356237307422
10
-23.891171188907947
20
-56.26743077683571
10
-23.891171188907951
20
-43.267430776835738
42
0.41421356237306639
10
-24.391171188907954
20
-42.767430776835731
10
-49.29742118890794
20
-42.767430776835702
42
0.41421356237309503
10
-49.797421188907975
20
-43.267430776835738
10
-49.797421188907975
20
-56.267430776835653
42
0.41421356237308982
0
LWPOLYLINE
5
168
100
AcDbEntity
8
0
100
AcDbPolyline
90
8
70
1
43
0.0
10
98.990578811092092
20
-17.167430776835715
10
98.990578811092149
20
-3.1674307768357246
42
-0.41421356237301959
10
99.490578811092092
20
-2.6674307768357397
10
105.49057881109208
20
-2.6674307768357202
42
-0.41421356237309764
10
105.99057881109205
20
-3.1674307768356957
10
105.99057881109206
20
-17.167430776835737
42
-0.41421356237306639
10
105.49057881109208
20
-17.667430776835719
10
99.490578811092092
20
-17.667430776835758
42
-0.41421356237316659
0
LWPOLYLINE
5
169
100
AcDbEntity
8
0
100
AcDbPolyline
90
11
70
1
43
0.0
10
94.228078811092075
20
-24.217430776835709
42
-0.41421356237308982
10
94.728078811092075
20
-23.717430776835645
10
108.95882881109209
20
-23.71743077683568
42
-0.41421356237313928
10
109.45882881109213
20
-24.217430776835691
10
109.4588288110921
20
-37.217430776835691
42
-0.41421356237312884
10
108.95882881109209
20
-37.717430776835727
10
101.22807881109209
20
-37.717430776835705
10
101.22807881109213
20
-39.217430776835691
42
-0.41421356237303258
10
100.7280788110921
20
-39.71743077683567
10
94.728078811092075
20
-39.717430776835648
42
-0.41421356237311846
10
94.228078811092075
20
-39.21743077683567
0
LWPOLYLINE
5
170
100
AcDbEntity
8
0
100
AcDbPolyline
90
8
70
1
43
0.0
10
52.59632881109205
20
-18.167430776835726
10
52.596328811092093
20
-5.1674307768357854
42
-0.41421356237307683
10
53.096328811092064
20
-4.6674307768357348
10
66.096328811092079
20
-4.6674307768357401
42
-0.41421356237311846
10
66.596328811092064
20
-5.167430776835733
10
66.596328811092064
20
-18.167430776835726
42
-0.41421356237307161
10
66.096328811092064
20
-18.667430776835726
10
53.096328811092064
20
-18.667430776835715
42
-0.41421356237313145
0
LWPOLYLINE
5
171
100
AcDbEntity
8
0
100
AcDbPolyline
90
8
70
1
43
0.0
10
-9.6036711889079385
20
-5.167430776835733
10
-9.6036711889079385
20
-18.167430776835726
42
-0.41421356237302737
10
-10.103671188907946
20
-18.667430776835737
10
-23.103671188907953
20
-18.667430776835747
42
-0.41421356237311197
10
-23.603671188907967
20
-18.167430776835737
10
-23.603671188907967
20
-5.1674307768357348
42
-0.41421356237309631
10
-23.103671188907953
20
-4.6674307768357357
10
-10.103671188907946
20
-4.6674307768357535
42
-0.4142135623731204
0
LWPOLYLINE
5
172
100
AcDbEntity
8
0
100
AcDbPolyline
90
6
70
1
43
0.0
10
-174.47468576917285
20
63.140518217088363
10
-177.18823203436412
20
63.140518217088363
10
-178.54500516695975
20
65.490518217088351
10
-177.18823203436412
20
67.840518217088317
10
-174.47468576917285
20
67.840518217088317
10
-173.11791263657727
20
65.490518217088322
0
LWPOLYLINE
5
173
100
AcDbEntity
8
0
100
AcDbPolyline
90
8
70
1
43
0.0
10
14.496328811092027
20
-18.167430776835761
10
14.496328811092054
20
-5.1674307768357854
42
-0.4142135623730625
10
14.996328811092038
20
-4.6674307768357348
10
27.996328811092042
20
-4.6674307768357366
42
-0.41421356237312756
10
28.496328811092052
20
-5.167430776835733
10
28.496328811092052
20
-18.167430776835726
42
-0.41421356237306772
10
27.996328811092042
20
-18.667430776835726
10
14.996328811092036
20
-18.667430776835729
42
-0.41421356237311713
0
LWPOLYLINE
5
174
100
AcDbEntity
8
0
100
AcDbPolyline
90
8
70
1
43
0.0
10
138.32132881109206
20
-56.26743077683571
10
138.32132881109206
20
-43.267430776835702
42
-0.4142135623730846
10
138.82132881109209
20
-42.76743077683571
10
151.821328811092
20
-42.767430776835724
42
-0.41421356237304302
10
152.32132881109206
20
-43.267430776835731
10
152.32132881109203
20
-56.26743077683571
42
-0.41421356237315748
10
151.821328811092
20
-56.767430776835738
10
138.82132881109209
20
-56.767430776835674
42
-0.41421356237311063
0
LWPOLYLINE
5
175
100
AcDbEntity
8
0
100
AcDbPolyline
90
8
70
1
43
0.0
10
-65.966171188907936
20
14.382569223164261
10
-52.966171188907936
20
14.382569223164275
42
-0.4142135623730625
10
-52.466171188907964
20
13.882569223164252
10
-52.466171188908007
20
0.88256922316424458
42
-0.41421356237310375
10
-52.966171188907971
20
0.38256922316426328
10
-65.966171188907936
20
0.38256922316427883
42
-0.41421356237310203
10
-66.466171188907964
20
0.88256922316426234
10
-66.466171188907964
20
13.882569223164261
42
-0.41421356237311197
0
LWPOLYLINE
5
176
100
AcDbEntity
8
0
100
AcDbPolyline
90
8
70
1
43
0.0
10
-123.61617118890793
20
13.882569223164269
42
-0.41421356237304818
10
-123.11617118890794
20
14.382569223164252
10
-110.11617118890794
20
14.382569223164285
42
-0.41421356237312623
10
-109.61617118890793
20
13.882569223164261
10
-109.61617118890794
20
0.88256922316425357
42
-0.41421356237304024
10
-110.11617118890796
20
0.38256922316426312
10
-123.11617118890794
20
0.38256922316426245
42
-0.41421356237305956
10
-123.61617118890793
20
0.88256922316426234
0
LWPOLYLINE
5
177
100
AcDbEntity
8
0
100
AcDbPolyline
90
8
70
1
43
0.0
10
-128.66617118890792
20
-43.267430776835731
10
-128.66617118890792
20
-56.26743077683571
42
-0.41421356237304302
10
-129.16617118890795
20
-56.767430776835717
10
-144.54742118890803
20
-56.767430776835759
42
-0.41421356237305862
10
-145.047421188908
20
-56.26743077683571
10
-145.04742118890798
20
-43.267430776835702
42
-0.41421356237309503
10
-144.54742118890803
20
-42.767430776835731
10
-129.16617118890798
20
-42.767430776835738
42
-0.4142135623730846
0
LWPOLYLINE
5
178
100
AcDbEntity
8
0
100
AcDbPolyline
90
8
70
1
43
0.0
10
-48.20367118890794
20
-4.6674307768357446
42
-0.41421356237306967
10
-47.703671188907947
20
-5.1674307768357348
10
-47.703671188907947
20
-18.167430776835754
42
-0.41421356237310675
10
-48.20367118890794
20
-18.667430776835737
10
-61.20367118890794
20
-18.667430776835729
42
-0.41421356237311713
10
-61.703671188907947
20
-18.167430776835737
10
-61.703671188907947
20
-5.1674307768357348
42
-0.41421356237308071
10
-61.20367118890794
20
-4.6674307768357339
0
LWPOLYLINE
5
179
100
AcDbEntity
8
0
100
AcDbPolyline
90
8
70
1
43
0.0
10
9.4463288110920445
20
-18.16743077683568
10
9.4463288110920729
20
-5.1674307768357348
42
0.41421356237311846
10
8.9463288110920676
20
-4.6674307768357526
10
-4.0536711889079404
20
-4.6674307768357446
42
0.4142135623730957
10
-4.5536711889079742
20
-5.1674307768357686
10
-4.5536711889079493
20
-18.167430776835765
42
0.41421356237311552
10
-4.0536711889079422
20
-18.667430776835737
10
8.946328811092064
20
-18.667430776835737
42
0.41421356237304885
0
LWPOLYLINE
5
180
100
AcDbEntity
8
0
100
AcDbPolyline
90
8
70
1
43
0.0
10
42.783828811092093
20
13.882569223164278
10
42.783828811092064
20
0.88256922316431563
42
-0.41421356237303747
10
42.283828811092093
20
0.38256922316426328
10
29.283828811092079
20
0.38256922316427522
42
-0.41421356237312235
10
28.783828811092075
20
0.88256922316422681
10
28.783828811092054
20
13.882569223164234
42
-0.41421356237308982
10
29.283828811092079
20
14.382569223164268
10
42.283828811092093
20
14.382569223164285
42
-0.41421356237310025
0
LWPOLYLINE
5
181
100
AcDbEntity
8
0
100
AcDbPolyline
90
8
70
1
43
0.0
10
171.37132881109198
20
43.745069223164279
42
-0.41421356237313667
10
170.87132881109198
20
43.245069223164272
10
157.87132881109204
20
43.245069223164279
42
-0.41421356237300139
10
157.3713288110921
20
43.745069223164343
10
157.3713288110921
20
56.745069223164293
42
-0.41421356237315227
10
157.87132881109204
20
57.245069223164293
10
170.87132881109198
20
57.245069223164293
42
-0.41421356237304818
10
171.37132881109213
20
56.745069223164293
0
LWPOLYLINE
5
182
100
AcDbEntity
8
0
100
AcDbPolyline
90
8
70
1
43
0.0
10
-0.57867118890793989
20
-23.71743077683567
10
-13.578671188907947
20
-23.717430776835691
42
0.4142135623730937
10
-14.078671188907954
20
-24.217430776835691
10
-14.078671188907952
20
-37.217430776835705
42
0.41421356237308854
10
-13.578671188907947
20
-37.717430776835705
10
-0.57867118890794
20
-37.717430776835727
42
0.41421356237308182
10
-0.078671188907946957
20
-37.217430776835727
10
-0.078671188907934869
20
-24.217430776835691
42
0.41421356237310164
0
LWPOLYLINE
5
183
100
AcDbEntity
8
0
100
AcDbPolyline
90
8
70
1
43
0.0
10
-170.74117118890797
20
19.432569223164261
42
-0.41421356237298967
10
-171.24117118890791
20
19.9325692231643
10
-171.24117118890806
20
32.932569223164279
42
-0.41421356237314444
10
-170.74117118890797
20
33.432569223164293
10
-157.74117118890797
20
33.432569223164315
42
-0.41421356237301699
10
-157.24117118890797
20
32.932569223164279
10
-157.24117118890797
20
19.932569223164283
42
-0.41421356237306511
10
-157.74117118890797
20
19.43256922316429
0
LWPOLYLINE
5
184
100
AcDbEntity
8
0
100
AcDbPolyline
90
8
70
1
43
0.0
10
-132.64117118890795
20
19.432569223164272
42
-0.41421356237310281
10
-133.141171188908
20
19.932569223164272
10
-133.14117118890795
20
32.932569223164279
42
-0.41421356237312362
10
-132.64117118890795
20
33.432569223164293
10
-119.64117118890796
20
33.432569223164307
42
-0.41421356237304302
10
-119.14117118890795
20
32.932569223164279
10
-119.141171188908
20
19.932569223164272
42
-0.41421356237310414
10
-119.641171188908
20
19.43256922316429
0
LWPOLYLINE
5
185
100
AcDbEntity
8
0
100
AcDbPolyline
90
8
70
1
43
0.0
10
106.57757881109205
20
-42.767430776835731
10
91.196328811092059
20
-42.767430776835731
42
0.41421356237309503
10
90.696328811092073
20
-43.267430776835681
10
90.696328811092073
20
-56.26743077683571
42
0.41421356237308982
10
91.196328811092059
20
-56.767430776835717
10
106.57757881109205
20
-56.767430776835745
42
0.41421356237311063
10
107.07757881109205
20
-56.26743077683571
10
107.07757881109205
20
-43.267430776835681
42
0.41421356237312623
0
LWPOLYLINE
5
186
100
AcDbEntity
8
0
100
AcDbPolyline
90
8
70
1
43
0.0
10
151.821328811092
20
57.245069223164258
10
138.82132881109209
20
57.245069223164307
42
0.41421356237299617
10
138.32132881109206
20
56.745069223164293
10
138.32132881109206
20
43.745069223164272
42
0.41421356237313667
10
138.82132881109209
20
43.2450692231643
10
151.821328811092
20
43.245069223164265
42
0.4142135623731783
10
152.32132881109203
20
43.74506922316418
10
152.32132881109206
20
56.745069223164215
42
0.41421356237307944
0
LWPOLYLINE
5
187
100
AcDbEntity
8
0
100
AcDbPolyline
90
8
70
1
43
0.0
10
133.2713288110921
20
-43.267430776835702
42
0.41421356237304302
10
132.77132881109208
20
-42.767430776835695
10
119.7713288110921
20
-42.76743077683571
42
0.41421356237310542
10
119.27132881109209
20
-43.267430776835702
10
119.27132881109209
20
-56.267430776835681
42
0.41421356237309503
10
119.7713288110921
20
-56.767430776835688
10
132.7713288110921
20
-56.767430776835745
42
0.41421356237311063
10
133.2713288110921
20
-56.26743077683571
0
LWPOLYLINE
5
188
100
AcDbEntity
8
0
100
AcDbPolyline
90
8
70
1
43
0.0
10
61.333828811092062
20
0.38256922316426517
10
48.333828811092047
20
0.38256922316426145
42
-0.41421356237311219
10
47.83382881109204
20
0.88256922316426234
10
47.833828811092083
20
13.882569223164269
42
-0.41421356237302087
10
48.333828811092047
20
14.382569223164268
10
61.333828811092062
20
14.382569223164269
42
-0.41421356237313794
10
61.833828811092069
20
13.882569223164261
10
61.833828811092069
20
0.88256922316425357
42
-0.4142135623730851
0
LWPOLYLINE
5
189
100
AcDbEntity
8
0
100
AcDbPolyline
90
8
70
1
43
0.0
10
152.32132881109203
20
0.88256922316425357
42
-0.41421356237317936
10
151.821328811092
20
0.38256922316426689
10
138.82132881109209
20
0.3825692231642841
42
-0.41421356237316137
10
138.32132881109206
20
0.88256922316426234
10
138.32132881109206
20
13.882569223164269
42
-0.41421356237300788
10
138.82132881109209
20
14.382569223164277
10
151.821328811092
20
14.382569223164234
42
-0.41421356237307033
10
152.32132881109203
20
13.882569223164216
0
LWPOLYLINE
5
190
100
AcDbEntity
8
0
100
AcDbPolyline
90
8
70
1
43
0.0
10
80.383828811092116
20
14.382569223164277
42
-0.414213562373069
10
80.883828811092101
20
13.882569223164296
10
80.883828811092101
20
0.88256922316429798
42
-0.41421356237306267
10
80.383828811092059
20
0.38256922316427189
10
67.383828811092059
20
0.382569223164267
42
-0.41421356237309853
10
66.883828811092059
20
0.88256922316424458
10
66.883828811092087
20
13.882569223164269
42
-0.41421356237301699
10
67.383828811092073
20
14.382569223164275
0
LWPOLYLINE
5
191
100
AcDbEntity
8
0
100
AcDbPolyline
90
8
70
1
43
0.0
10
-118.85367118890797
20
-18.167430776835726
10
-118.85367118890797
20
-5.1674307768357339
42
-0.41421356237311652
10
-118.35367118890794
20
-4.6674307768357437
10
-105.35367118890797
20
-4.6674307768357295
42
-0.41421356237309309
10
-104.85367118890795
20
-5.167430776835733
10
-104.85367118890795
20
-18.167430776835726
42
-0.41421356237309243
10
-105.35367118890797
20
-18.667430776835726
10
-118.35367118890794
20
-18.667430776835708
42
-0.41421356237311063
0
LWPOLYLINE
5
192
100
AcDbEntity
8
0
100
AcDbPolyline
90
8
70
1
43
0.0
10
-120.73492118890798
20
-56.767430776835724
42
-0.41421356237310025
10
-121.23492118890795
20
-56.26743077683571
10
-121.23492118890795
20
-43.267430776835702
42
-0.4142135623730222
10
-120.73492118890799
20
-42.767430776835731
10
-105.35367118890797
20
-42.767430776835695
42
-0.41421356237313145
10
-104.85367118890795
20
-43.267430776835731
10
-104.85367118890795
20
-56.26743077683571
42
-0.41421356237310025
10
-105.35367118890797
20
-56.767430776835717
0
LWPOLYLINE
5
193
100
AcDbEntity
8
0
100
AcDbPolyline
90
8
70
1
43
0.0
10
-27.866171188907938
20
14.382569223164269
42
0.41421356237308593
10
-28.366171188907927
20
13.882569223164278
10
-28.366171188907948
20
0.88256922316427122
42
0.41421356237309082
10
-27.866171188907941
20
0.38256922316424552
10
-14.866171188907948
20
0.38256922316426661
42
0.41421356237309881
10
-14.366171188907932
20
0.88256922316425346
10
-14.366171188907941
20
13.882569223164269
42
0.41421356237310025
10
-14.866171188907948
20
14.382569223164277
0
LINE
5
194
100
AcDbEntity
8
0
100
AcDbLine
10
-176.17917730355148
20
-75.49149105007173
30
0
11
176.19023874679951
21
-75.491491804784744
31
0
0
LINE
5
195
100
AcDbEntity
8
0
100
AcDbLine
10
-186.18990071791913
20
65.489730445738616
30
0
11
-186.17917724861999
21
-65.49230974775331
31
0
0
LWPOLYLINE
5
196
100
AcDbEntity
8
0
100
AcDbPolyline
90
8
70
1
43
0.0
10
-166.4786711889079
20
13.882569223164269
10
-166.4786711889079
20
0.88256922316426234
42
0.41421356237322926
10
-165.97867118890798
20
0.38256922316422748
10
-152.97867118890795
20
0.38256922316427144
42
0.41421356237310636
10
-152.47867118890795
20
0.88256922316426234
10
-152.47867118890795
20
13.882569223164261
42
0.41421356237310414
10
-152.97867118890795
20
14.382569223164246
10
-165.97867118890798
20
14.382569223164289
42
0.41421356237297796
0
LWPOLYLINE
5
197
100
AcDbEntity
8
0
100
AcDbPolyline
90
8
70
1
43
0.0
10
-90.27867118890795
20
-24.217430776835691
42
-0.41421356237307683
10
-89.778671188907978
20
-23.71743077683568
10
-76.778671188907964
20
-23.717430776835684
42
-0.41421356237308982
10
-76.278671188907964
20
-24.217430776835691
10
-76.278671188907936
20
-37.217430776835691
42
-0.41421356237309764
10
-76.778671188907964
20
-37.717430776835705
10
-89.778671188907992
20
-37.717430776835727
42
-0.41421356237310025
10
-90.278671188907936
20
-37.217430776835705
0
LINE
5
198
100
AcDbEntity
8
0
100
AcDbLine
10
119.27132881109209
20
43.745069223164279
30
0
11
119.27132881109209
21
53.245069223164279
31
0
0
LWPOLYLINE
5
199
100
AcDbEntity
8
0
100
AcDbPolyline
90
8
70
1
43
0.0
10
90.696328811091988
20
13.882569223164269
42
-0.41421356237313273
10
91.196328811092059
20
14.382569223164268
10
104.19632881109209
20
14.382569223164246
42
-0.41421356237308204
10
104.69632881109207
20
13.882569223164278
10
104.69632881109206
20
0.88256922316425357
42
-0.41421356237296225
10
104.19632881109209
20
0.38256922316425412
10
91.196328811092059
20
0.3825692231642655
42
-0.41421356237315149
10
90.696328811092059
20
0.88256922316426234
0
LWPOLYLINE
5
200
100
AcDbEntity
8
0
100
AcDbPolyline
90
8
70
1
43
0.0
10
38.308828811092006
20
56.745069223164293
10
38.308828811092013
20
43.745069223164307
42
0.41421356237307944
10
38.808828811092006
20
43.2450692231643
10
51.80882881109202
20
43.245069223164307
42
0.41421356237310025
10
52.308828811092042
20
43.745069223164307
10
52.308828811092035
20
56.745069223164293
42
0.41421356237311585
10
51.80882881109202
20
57.245069223164293
10
38.808828811092006
20
57.245069223164293
42
0.41421356237310542
0
ARC
5
201
100
AcDbEntity
8
0
100
AcDbCircle
10
95.958828811092133
20
56.745069223164215
30
-4.4408920985006254e-15
40
0.50000000000005151
210
0
220
0
230
1
100
AcDbArc
50
90.000000000006523
51
180
0
LWPOLYLINE
5
202
100
AcDbEntity
8
0
100
AcDbPolyline
90
8
70
1
43
0.0
10
9.7338288110920228
20
56.745069223164307
42
-0.41421356237309243
10
10.233828811092033
20
57.2450692231643
10
23.233828811092039
20
57.245069223164251
42
-0.4142135623730846
10
23.73382881109201
20
56.745069223164293
10
23.73382881109206
20
43.745069223164315
42
-0.41421356237308721
10
23.233828811092039
20
43.245069223164307
10
10.233828811092033
20
43.245069223164293
42
-0.41421356237311974
10
9.7338288110920228
20
43.745069223164293
0
LINE
5
203
100
AcDbEntity
8
0
100
AcDbLine
10
104.95878056612897
20
75.491292530455965
30
0
11
-176.18992719249562
21
75.490549143380534
31
0
0
LWPOLYLINE
5
204
100
AcDbEntity
8
0
100
AcDbPolyline
90
8
70
1
43
0.0
10
-132.64117118890798
20
57.245069223164293
10
-119.641171188908
20
57.245069223164293
42
-0.41421356237308982
10
-119.141171188908
20
56.745069223164293
10
-119.141171188908
20
43.745069223164307
42
-0.41421356237309503
10
-119.641171188908
20
43.2450692231643
10
-132.64117118890798
20
43.245069223164293
42
-0.41421356237308982
10
-133.14117118890803
20
43.745069223164307
10
-133.141171188908
20
56.745069223164293
42
-0.41421356237310025
0
LWPOLYLINE
5
205
100
AcDbEntity
8
0
100
AcDbPolyline
90
8
70
1
43
0.0
10
57.358828811092025
20
43.745069223164307
42
0.41421356237310025
10
57.858828811092025
20
43.2450692231643
10
70.85882881109201
20
43.245069223164307
42
0.41421356237310025
10
71.358828811092039
20
43.745069223164307
10
71.358828811092039
20
56.745069223164293
42
0.41421356237311063
10
70.85882881109201
20
57.245069223164293
10
57.858828811092025
20
57.2450692231643
42
0.41421356237310025
10
57.358828811092025
20
56.745069223164293
0
LINE
5
206
100
AcDbEntity
8
0
100
AcDbLine
10
133.2713288110921
20
56.745069223164293
30
0
11
133.27132881109208
21
43.745069223164322
31
0
0
LWPOLYLINE
5
207
100
AcDbEntity
8
0
100
AcDbPolyline
90
8
70
1
43
0.0
10
-8.8161711889079442
20
0.38256922316425634
10
4.1838288110920274
20
0.38256922316426423
42
0.41421356237309498
10
4.6838288110920612
20
0.88256922316429787
10
4.6838288110920336
20
13.882569223164261
42
0.414213562373136
10
4.1838288110920274
20
14.382569223164268
10
-8.8161711889079442
20
14.382569223164268
42
0.41421356237307877
10
-9.3161711889079832
20
13.882569223164269
10
-9.316171188907953
20
0.88256922316422703
42
0.41421356237311596
0
LWPOLYLINE
5
208
100
AcDbEntity
8
0
100
AcDbPolyline
90
8
70
1
43
0.0
10
-33.916171188907995
20
57.2450692231643
42
-0.41421356237309503
10
-33.416171188907988
20
56.745069223164293
10
-33.416171188907988
20
43.745069223164307
42
-0.41421356237309503
10
-33.916171188907995
20
43.2450692231643
10
-46.916171188907967
20
43.245069223164307
42
-0.4142135623730846
10
-47.416171188908002
20
43.745069223164307
10
-47.416171188908002
20
56.745069223164293
42
-0.41421356237310542
10
-46.916171188907967
20
57.245069223164293
0
ARC
5
209
100
AcDbEntity
8
0
100
AcDbCircle
10
121.77132748904064
20
57.745069223164272
30
0
40
0.49999999999997857
210
0
220
0
230
1
100
AcDbArc
50
180.0001514961132
51
270.00000000000648
0
LWPOLYLINE
5
210
100
AcDbEntity
8
0
100
AcDbPolyline
90
8
70
1
43
0.0
10
76.908828811092036
20
43.2450692231643
42
-0.41421356237310025
10
76.408828811092036
20
43.745069223164307
10
76.408828811092036
20
56.745069223164293
42
-0.41421356237310025
10
76.908828811092036
20
57.2450692231643
10
89.908828811092036
20
57.2450692231643
42
-0.41421356237309503
10
90.40882881109205
20
56.745069223164293
10
90.40882881109205
20
43.745069223164307
42
-0.41421356237309503
10
89.908828811092036
20
43.2450692231643
0
LWPOLYLINE
5
211
100
AcDbEntity
8
0
100
AcDbPolyline
90
8
70
1
43
0.0
10
-100.59117118890804
20
57.2450692231643
10
-113.59117118890801
20
57.245069223164293
42
0.41421356237305862
10
-114.09117118890804
20
56.745069223164293
10
-114.09117118890802
20
43.745069223164307
42
0.41421356237311063
10
-113.59117118890801
20
43.245069223164307
10
-100.59117118890804
20
43.245069223164307
42
0.41421356237305862
10
-100.09117118890801
20
43.745069223164307
10
-100.09117118890799
20
56.745069223164293
42
0.41421356237310025
0
ARC
5
212
100
AcDbEntity
8
0
100
AcDbCircle
10
104.95878717639471
20
72.991292530464705
30
0
40
2.4999999999999996
210
0
220
-0
230
1
100
AcDbArc
50
0.00015149611320898552
51
90.000151496131409
0
LWPOLYLINE
5
213
100
AcDbEntity
8
0
100
AcDbPolyline
90
8
70
1
43
0.0
10
4.6838288110919954
20
43.745069223164307
42
-0.41421356237309798
10
4.1838288110919919
20
43.245069223164307
10
-8.8161711889079797
20
43.2450692231643
42
-0.41421356237309176
10
-9.3161711889079903
20
43.745069223164293
10
-9.3161711889079832
20
56.745069223164307
42
-0.41421356237309243
10
-8.8161711889079797
20
57.245069223164293
10
4.1838288110919919
20
57.2450692231643
42
-0.41421356237309925
10
4.6838288110920043
20
56.745069223164293
0
LINE
5
214
100
AcDbEntity
8
0
100
AcDbLine
10
95.458828811092076
20
43.745069223164272
30
0
11
95.458828811092076
21
56.745069223164215
31
-4.4408920985006254e-15
0
LWPOLYLINE
5
215
100
AcDbEntity
8
0
100
AcDbPolyline
90
8
70
1
43
0.0
10
-81.541171188907981
20
57.2450692231643
10
-94.541171188907995
20
57.245069223164307
42
0.41421356237305862
10
-95.041171188908024
20
56.745069223164293
10
-95.04117118890801
20
43.745069223164307
42
0.41421356237305862
10
-94.54117118890801
20
43.2450692231643
10
-81.541171188907981
20
43.2450692231643
42
0.41421356237309503
10
-81.041171188907981
20
43.745069223164307
10
-81.041171188907981
20
56.745069223164293
42
0.41421356237309503
0
LINE
5
216
100
AcDbEntity
8
0
100
AcDbLine
10
186.19023876821774
20
-65.491491885035003
30
0
11
186.19023981935928
21
65.491480793717258
31
2.2204460492503127e-15
0
ARC
5
217
100
AcDbEntity
8
0
100
AcDbCircle
10
119.77132881109208
20
43.745069223164272
30
0
40
0.49999999999997158
210
0
220
0
230
1
100
AcDbArc
50
180
51
270.00000000000648
0
LWPOLYLINE
5
218
100
AcDbEntity
8
0
100
AcDbPolyline
90
8
70
1
43
0.0
10
-62.491171188907977
20
43.2450692231643
42
0.41421356237313145
10
-61.991171188907963
20
43.745069223164307
10
-61.991171188907963
20
56.745069223164293
42
0.41421356237311585
10
-62.491171188907977
20
57.245069223164293
10
-75.491171188907984
20
57.2450692231643
42
0.41421356237309503
10
-75.99117118890797
20
56.745069223164293
10
-75.991171188907998
20
43.745069223164307
42
0.41421356237306384
10
-75.491171188907984
20
43.245069223164307
0
ARC
5
219
100
AcDbEntity
8
0
100
AcDbCircle
10
-176.17917728213314
20
-65.491491050071744
30
0
40
10.000000000000014
210
0
220
0
230
1
100
AcDbArc
50
180.00469079216342
51
269.99999987728194
0
ARC
5
220
100
AcDbEntity
8
0
100
AcDbCircle
10
176.1902398193541
20
65.49148087396749
30
4.4408920985006254e-15
40
10.000000000005187
210
0
220
0
230
1
100
AcDbArc
50
0
51
90.000151496102418
0
LWPOLYLINE
5
221
100
AcDbEntity
8
0
100
AcDbPolyline
90
8
70
1
43
0.0
10
-14.366171188907979
20
43.745069223164307
42
-0.41421356237309892
10
-14.866171188907984
20
43.245069223164307
10
-27.86617118890797
20
43.2450692231643
42
-0.41421356237310025
10
-28.366171188907984
20
43.745069223164307
10
-28.366171188907984
20
56.745069223164293
42
-0.41421356237311585
10
-27.86617118890797
20
57.245069223164293
10
-14.866171188907984
20
57.2450692231643
42
-0.41421356237309892
10
-14.366171188907973
20
56.745069223164293
0
LINE
5
222
100
AcDbEntity
8
0
100
AcDbLine
10
118.77132881109208
20
53.745069223164293
30
0
11
109.9588288110921
21
53.745069223164293
31
-4.4408920985006254e-15
0
ARC
5
223
100
AcDbEntity
8
0
100
AcDbCircle
10
95.958828811092047
20
43.745069223164272
30
0
40
0.49999999999997158
210
0
220
0
230
1
100
AcDbArc
50
180
51
270.00000000000324
0
ARC
5
224
100
AcDbEntity
8
0
100
AcDbCircle
10
109.95882881109209
20
53.245069223164307
30
-4.4408920985006254e-15
40
0.49999999999998046
210
0
220
-0
230
1
100
AcDbArc
50
89.99999999999838
51
180
0
ARC
5
225
100
AcDbEntity
8
0
100
AcDbCircle
10
132.77132881109208
20
56.745069223164293
30
0
40
0.50000000000000711
210
0
220
0
230
1
100
AcDbArc
50
0
51
90
0
LINE
5
226
100
AcDbEntity
8
0
100
AcDbLine
10
121.7713274890407
20
57.245069223164293
30
0
11
132.77132881109208
21
57.2450692231643
31
0
0
LINE
5
227
100
AcDbEntity
8
0
100
AcDbLine
10
107.45882748902537
20
57.745074338934607
30
0
11
107.45878717638597
21
72.991299140729652
31
0
0
ARC
5
228
100
AcDbEntity
8
0
100
AcDbCircle
10
132.77132881109202
20
43.745069223164322
30
0
40
0.50000000000004263
210
0
220
0
230
1
100
AcDbArc
50
-89.999999999993491
51
0
0
LINE
5
229
100
AcDbEntity
8
0
100
AcDbLine
10
121.27128717627895
20
72.991339628609438
30
0
11
121.27132748904242
21
57.745067901111284
31
0
0
LINE
5
230
100
AcDbEntity
8
0
100
AcDbLine
10
132.77132881109208
20
43.245069223164279
30
0
11
119.77132881109213
21
43.2450692231643
31
0
0
ARC
5
231
100
AcDbEntity
8
0
100
AcDbCircle
10
176.19023876821774
20
-65.491491804784744
30
0
40
10
210
0
220
0
230
1
100
AcDbArc
50
-90.00000012271741
51
0
0
ARC
5
232
100
AcDbEntity
8
0
100
AcDbCircle
10
118.77132881109208
20
53.245069223164279
30
0
40
0.50000000000000711
210
0
220
0
230
1
100
AcDbArc
50
0
51
90
0
ENDSEC
0
SECTION
2
OBJECTS
0
DICTIONARY
5
C
100
AcDbDictionary
3
ACAD_GROUP
350
D
3
ACAD_MLINESTYLE
350
17
0
DICTIONARY
5
D
100
AcDbDictionary
0
DICTIONARY
5
1A
330
C
100
AcDbDictionary
0
DICTIONARY
5
17
100
AcDbDictionary
0
ENDSEC
0
EOF
