0
SECTION
2
HEADER
9
$INSUNITS
70
4
9
$ACADVER
1
AC1014
9
$HANDSEED
5
FFFF
0
ENDSEC
0
SECTION
2
TABLES
0
TABLE
2
VPORT
5
8
100
AcDbSymbolTable
0
ENDTAB
0
TABLE
2
LTYPE
5
5
100
AcDbSymbolTable
0
LTYPE
5
14
100
AcDbSymbolTableRecord
100
AcDbLinetypeTableRecord
2
BYBLOCK
70
0
0
LTYPE
5
15
100
AcDbSymbolTableRecord
100
AcDbLinetypeTableRecord
2
BYLAYER
70
0
0
ENDTAB
0
TABLE
2
LAYER
5
2
100
AcDbSymbolTable
70
2
0
LAYER
5
50
100
AcDbSymbolTableRecord
100
AcDbLayerTableRecord
2
0
70
0
6
CONTINUOUS
0
ENDTAB
0
TABLE
2
STYLE
5
3
100
AcDbSymbolTable
70
1
0
STYLE
5
11
100
AcDbSymbolTableRecord
100
AcDbTextStyleTableRecord
2
STANDARD
70
0
0
ENDTAB
0
TABLE
2
VIEW
5
6
100
AcDbSymbolTable
70
0
0
ENDTAB
0
TABLE
2
UCS
5
7
100
AcDbSymbolTable
70
0
0
ENDTAB
0
TABLE
2
APPID
5
9
100
AcDbSymbolTable
70
2
0
APPID
5
12
100
AcDbSymbolTableRecord
100
AcDbRegAppTableRecord
2
ACAD
70
0
0
ENDTAB
0
TABLE
2
DIMSTYLE
5
A
100
AcDbSymbolTable
70
1
0
ENDTAB
0
TABLE
2
BLOCK_RECORD
5
1
100
AcDbSymbolTable
70
1
0
BLOCK_RECORD
5
1F
100
AcDbSymbolTableRecord
100
AcDbBlockTableRecord
2
*MODEL_SPACE
0
BLOCK_RECORD
5
1B
100
AcDbSymbolTableRecord
100
AcDbBlockTableRecord
2
*PAPER_SPACE
0
ENDTAB
0
ENDSEC
0
SECTION
2
BLOCKS
0
BLOCK
5
20
100
AcDbEntity
100
AcDbBlockBegin
2
*MODEL_SPACE
0
ENDBLK
5
21
100
AcDbEntity
100
AcDbBlockEnd
0
BLOCK
5
1C
100
AcDbEntity
100
AcDbBlockBegin
2
*PAPER_SPACE
0
ENDBLK
5
1D
100
AcDbEntity
100
AcDbBlockEnd
0
ENDSEC
0
SECTION
2
ENTITIES
0
LWPOLYLINE
5
100
100
AcDbEntity
8
0
100
AcDbPolyline
90
6
70
1
43
0.0
10
363.35916978848002
20
305.49150781690713
10
364.71594292107568
20
303.14150781690716
10
367.42948918626695
20
303.14150781690716
10
368.78626231886255
20
305.49150781690713
10
367.42948918626695
20
307.84150781690721
10
364.71594292107568
20
307.8415078169071
0
LWPOLYLINE
5
101
100
AcDbEntity
8
0
100
AcDbPolyline
90
6
70
1
43
0.0
10
279.19582153987966
20
303.14136585924916
10
281.9093678048236
20
303.14140249276392
10
283.2661092117412
20
305.4914208093071
10
281.90930435371479
20
307.84140249233559
10
279.19575808877084
20
307.84136585882089
10
277.83901668185325
20
305.49134754227765
0
LWPOLYLINE
5
102
100
AcDbEntity
8
0
100
AcDbPolyline
90
6
70
1
43
0.0
10
202.30360921226196
20
305.49128431396821
10
200.94682986602123
20
307.84128072650759
10
198.23328360083948
20
307.8412735516028
10
196.87651668189847
20
305.49126996415856
10
198.23329602813919
20
303.14127355161924
10
200.94684229332097
20
303.14128072652403
0
CIRCLE
5
103
100
AcDbEntity
8
0
100
AcDbCircle
10
76.000671545884416
20
305.49126657598845
30
0
40
3.0000000000000071
210
0
220
0
230
1
0
LWPOLYLINE
5
104
100
AcDbEntity
8
0
100
AcDbPolyline
90
6
70
1
43
0.0
10
66.406226964160624
20
172.15850860866527
10
67.763000101789544
20
174.50850860575929
10
66.406226974227195
20
176.85850860866526
10
63.692680709035976
20
176.85850861447719
10
62.33590757140707
20
174.50850861738317
10
63.692680698969397
20
172.1585086144772
0
LWPOLYLINE
5
105
100
AcDbEntity
8
0
100
AcDbPolyline
90
6
70
1
43
0.0
10
11.454994833040253
20
305.49051821081389
10
12.811767965635887
20
303.14051821081398
10
15.525314230827085
20
303.14051821081392
10
16.88208736342272
20
305.49051821081389
10
15.525314230827085
20
307.84051821081391
10
12.811767965635887
20
307.84051821081391
0
LWPOLYLINE
5
106
100
AcDbEntity
8
0
100
AcDbPolyline
90
6
70
1
43
0.0
10
367.4270534637443
20
172.1585085899672
10
368.78382636903723
20
174.50850819626743
10
367.4270534637443
20
176.85850780256766
10
364.71350765315839
20
176.85850780256766
10
363.35673474786546
20
174.50850819626743
10
364.71350765315839
20
172.1585085899672
0
LWPOLYLINE
5
107
100
AcDbEntity
8
0
100
AcDbPolyline
90
6
70
1
43
0.0
10
230.71247692580343
20
172.15850843578065
10
232.06925006343229
20
174.50850843287472
10
230.71247693586994
20
176.85850843578064
10
227.9989306706787
20
176.85850844159256
10
226.64215753304984
20
174.50850844449849
10
227.99893066061219
20
172.1585084415926
0
LWPOLYLINE
5
108
100
AcDbEntity
8
0
100
AcDbPolyline
90
6
70
1
43
0.0
10
121.34110921254501
20
305.49117727723922
10
119.98432986630419
20
307.8411736897786
10
117.27078360112247
20
307.84116651487381
10
115.9140166821814
20
305.49116292742951
10
117.27079602842217
20
303.14116651489019
10
119.98434229360396
20
303.1411736897951
0
LWPOLYLINE
5
109
100
AcDbEntity
8
0
100
AcDbPolyline
90
6
70
1
43
0.0
10
12.715407035520307
20
172.1585085899672
10
15.428953300711576
20
172.1585085899672
10
16.785726433307069
20
174.50850858996719
10
15.428953300711576
20
176.85850858996719
10
12.715407035520307
20
176.85850858996719
10
11.358633902924673
20
174.50850858996719
0
LINE
5
110
100
AcDbEntity
8
0
100
AcDbLine
10
192.27943785041745
20
180.50750336218638
30
0
11
106.92105198466366
21
180.50750335839908
31
0
0
ARC
5
111
100
AcDbEntity
8
0
100
AcDbCircle
10
106.92045956372679
20
178.19330098635101
30
0
40
2.3142024478760619
210
0
220
-0
230
1
100
AcDbArc
50
89.98533264893068
51
134.98580883250136
0
ARC
5
112
100
AcDbEntity
8
0
100
AcDbCircle
10
192.2788380822968
20
178.19333634189204
30
0
40
2.3141670980160072
210
0
220
-0
230
1
100
AcDbArc
50
45.014373311494218
51
89.985150518122069
0
LINE
5
113
100
AcDbEntity
8
0
100
AcDbLine
10
105.28447667487532
20
179.83009448497592
30
0
11
105.10445655806805
21
179.65007416313892
31
0
0
ARC
5
114
100
AcDbEntity
8
0
100
AcDbCircle
10
196.79518590014681
20
182.35028194930197
30
0
40
3.8187777211741487
210
0
220
0
230
1
100
AcDbArc
50
225.00160909958402
51
270.02457515180492
0
LINE
5
115
100
AcDbEntity
8
0
100
AcDbLine
10
194.09497811372208
20
179.64992249288375
30
0
11
193.9147907778987
21
179.83011003892307
31
0
0
LINE
5
116
100
AcDbEntity
8
0
100
AcDbLine
10
102.40245916154953
20
178.53150457939722
30
0
11
96.717549180174402
21
178.53150457124275
31
0
0
ARC
5
117
100
AcDbEntity
8
0
100
AcDbCircle
10
102.4040971013868
20
182.35028194930192
30
0
40
3.8187777211750644
210
0
220
0
230
1
100
AcDbArc
50
269.97542484807934
51
315.00160910515137
0
LINE
5
118
100
AcDbEntity
8
0
100
AcDbLine
10
94.018805318855044
20
179.65009125864191
30
0
11
93.838786749619885
21
179.83011003888686
31
0
0
LINE
5
119
100
AcDbEntity
8
0
100
AcDbLine
10
22.168556962925727
20
299.49050748959996
30
0
11
296.45860920427617
21
299.49132931610137
31
0
0
ARC
5
120
100
AcDbEntity
8
0
100
AcDbCircle
10
366.19023876821768
20
174.50850818894082
30
0
40
10
210
0
220
0
230
1
100
AcDbArc
50
-90.000000122717239
51
0
0
ARC
5
121
100
AcDbEntity
8
0
100
AcDbCircle
10
22.072033756249461
20
294.74013628060021
30
0
40
4.7513517395285492
210
0
220
-0
230
1
100
AcDbArc
50
88.835962241012936
51
181.1515461964575
0
ARC
5
122
100
AcDbEntity
8
0
100
AcDbCircle
10
13.810099248567589
20
305.4905491371411
30
0
40
10.000000000000069
210
0
220
0
230
1
100
AcDbArc
50
90.000151496132702
51
180.00469079216342
0
LINE
5
123
100
AcDbEntity
8
0
100
AcDbLine
10
197.684456842191
20
178.53150457939722
30
0
11
196.79682383997635
21
178.53150457939822
31
0
0
LINE
5
124
100
AcDbEntity
8
0
100
AcDbLine
10
311.27156853004811
20
312.99133565691864
30
0
11
311.27160356434445
21
300.49137405081524
31
0
0
ARC
5
125
100
AcDbEntity
8
0
100
AcDbCircle
10
312.27160356434092
20
300.49137669492148
30
0
40
0.99999999999995715
210
0
220
0
230
1
100
AcDbArc
50
180.0001514961132
51
270.00017166932855
0
ARC
5
126
100
AcDbEntity
8
0
100
AcDbCircle
10
96.719196606336766
20
182.35031748264302
30
0
40
3.8188132667479784
210
0
220
0
230
1
100
AcDbArc
50
224.99824882233048
51
269.97528274820024
0
ARC
5
127
100
AcDbEntity
8
0
100
AcDbCircle
10
294.95860620808116
20
312.99129252371182
30
0
40
2.5
210
0
220
0
230
1
100
AcDbArc
50
0
51
90.000151496133043
0
LINE
5
128
100
AcDbEntity
8
0
100
AcDbLine
10
376.19023876821768
20
174.50850818894082
30
0
11
376.19023981935925
21
305.49148078744815
31
0
0
LINE
5
129
100
AcDbEntity
8
0
100
AcDbLine
10
358.07028057130225
20
180.5085082204717
30
0
11
329.01460917198904
21
180.5085064721234
31
0
0
ARC
5
130
100
AcDbEntity
8
0
100
AcDbCircle
10
202.20247188914681
20
178.19326563015699
30
0
40
2.3142377984590339
210
0
220
-0
230
1
100
AcDbArc
50
89.985514794694183
51
134.98599098862562
0
LINE
5
131
100
AcDbEntity
8
0
100
AcDbLine
10
297.45860620808111
20
300.49132931609677
30
0
11
297.45860620808116
21
312.99129252371182
31
0
0
ARC
5
132
100
AcDbEntity
8
0
100
AcDbCircle
10
22.07309380100547
20
185.25996058009423
30
0
40
4.7514524482464404
210
0
220
0
230
1
100
AcDbArc
50
179.98898303790736
51
269.98898303767396
0
LINE
5
133
100
AcDbEntity
8
0
100
AcDbLine
10
13.820822696448509
20
164.50850894365385
30
0
11
366.19023874679948
21
164.50850818894082
31
0
0
ARC
5
134
100
AcDbEntity
8
0
100
AcDbCircle
10
197.68609478204678
20
182.35028194930214
30
0
40
3.8187777211753211
210
0
220
0
230
1
100
AcDbArc
50
269.97542484780149
51
315.00160910422551
0
ARC
5
135
100
AcDbEntity
8
0
100
AcDbCircle
10
215.8131888061267
20
182.35027826089288
30
0
40
3.8187733699321806
210
0
220
0
230
1
100
AcDbArc
50
224.99839925335763
51
269.98503116820933
0
LINE
5
136
100
AcDbEntity
8
0
100
AcDbLine
10
213.11283282024056
20
179.65007315749941
30
0
11
212.93362746462751
21
179.82927871298546
31
0
0
LINE
5
137
100
AcDbEntity
8
0
100
AcDbLine
10
92.203584791688385
20
180.50750331813478
30
0
11
66.607630055544931
21
180.50850647212411
31
0
0
ARC
5
138
100
AcDbEntity
8
0
100
AcDbCircle
10
366.19023981935936
20
305.49148086769839
30
0
40
9.9999999999999289
210
0
220
0
230
1
100
AcDbArc
50
0
51
90.000151496132716
0
ARC
5
139
100
AcDbEntity
8
0
100
AcDbCircle
10
358.07288604960235
20
294.7417589016901
30
0
40
4.7497550248424849
210
0
220
0
230
1
100
AcDbArc
50
-0.0018592753583251526
51
90.001859269261431
0
LINE
5
140
100
AcDbEntity
8
0
100
AcDbLine
10
329.01460917198904
20
180.5085064721234
30
0
11
224.96122459089764
21
180.5135036966779
31
0
0
LINE
5
141
100
AcDbEntity
8
0
100
AcDbLine
10
216.70246221333582
20
178.53150457939719
30
0
11
215.81219113097407
21
178.53150502128469
31
0
0
LINE
5
142
100
AcDbEntity
8
0
100
AcDbLine
10
66.607630055544931
20
180.50850647212411
30
0
11
22.072180180966811
21
180.50850821968424
31
0
0
ARC
5
143
100
AcDbEntity
8
0
100
AcDbCircle
10
221.22044797099679
20
178.19333634189204
30
0
40
2.3141670980159956
210
0
220
0
230
1
100
AcDbArc
50
90.167878102878234
51
135.01437323384036
0
LINE
5
144
100
AcDbEntity
8
0
100
AcDbLine
10
224.96122459089764
20
180.5135036966779
30
0
11
221.21366741177269
21
180.50749350629474
31
0
0
ARC
5
145
100
AcDbEntity
8
0
100
AcDbCircle
10
313.77157051310849
20
312.99134226718962
30
0
40
2.5000019830690685
210
0
220
0
230
1
100
AcDbArc
50
90.00015149613013
51
180.0001514961132
0
LINE
5
146
100
AcDbEntity
8
0
100
AcDbLine
10
312.27160656053593
20
299.49137669492598
30
0
11
358.07273191829302
21
299.49151392403178
31
0
0
LINE
5
147
100
AcDbEntity
8
0
100
AcDbLine
10
294.95859959781535
20
315.49129252370307
30
0
11
13.810072807504392
21
315.4905491371062
31
0
0
ARC
5
148
100
AcDbEntity
8
0
100
AcDbCircle
10
211.29681416414681
20
178.19326563015699
30
0
40
2.3142377984590192
210
0
220
-0
230
1
100
AcDbArc
50
44.985990979086267
51
89.985514776113945
0
LINE
5
149
100
AcDbEntity
8
0
100
AcDbLine
10
211.29739923782176
20
180.50750335465835
30
0
11
202.20305696207129
21
180.50750335465858
31
0
0
LINE
5
150
100
AcDbEntity
8
0
100
AcDbLine
10
366.19021337829616
20
315.49148086766337
30
0
11
313.77156390283756
21
315.49134425024994
31
0
0
LINE
5
151
100
AcDbEntity
8
0
100
AcDbLine
10
3.8100992820808743
20
305.48973043946427
30
0
11
3.8208227513800708
21
174.50769024597696
31
0
0
LINE
5
152
100
AcDbEntity
8
0
100
AcDbLine
10
362.82264107194402
20
294.74160476987538
30
0
11
362.82264124183689
21
185.25904575150818
31
0
0
LINE
5
153
100
AcDbEntity
8
0
100
AcDbLine
10
200.5664588060458
20
179.83007893036532
30
0
11
200.38645423868456
21
179.65007416309535
31
0
0
ARC
5
154
100
AcDbEntity
8
0
100
AcDbCircle
10
358.07119214111242
20
185.25995732119614
30
0
40
4.7514491881671885
210
0
220
0
230
1
100
AcDbArc
50
269.98900775298097
51
359.98900775447305
0
ARC
5
155
100
AcDbEntity
8
0
100
AcDbCircle
10
92.202834053981775
20
178.19333634189204
30
0
40
2.3141670980159694
210
0
220
-0
230
1
100
AcDbArc
50
45.014373310226382
51
89.981412706583939
0
LINE
5
156
100
AcDbEntity
8
0
100
AcDbLine
10
219.58367427618299
20
179.82928903971228
30
0
11
219.404307939315
21
179.64992249262582
31
0
0
LINE
5
157
100
AcDbEntity
8
0
100
AcDbLine
10
17.321641440595492
20
185.26087420011629
30
0
11
17.321641616264902
21
294.64464874689088
31
0
0
ARC
5
158
100
AcDbEntity
8
0
100
AcDbCircle
10
296.45860620808116
20
300.49132931609677
30
0
40
0.99999999999988431
210
0
220
0
230
1
100
AcDbArc
50
-89.999828330671463
51
0
0
ARC
5
159
100
AcDbEntity
8
0
100
AcDbCircle
10
216.70410015314673
20
182.35028194930214
30
0
40
3.8187777211753371
210
0
220
0
230
1
100
AcDbArc
50
269.9754248484748
51
314.99839089495703
0
ARC
5
160
100
AcDbEntity
8
0
100
AcDbCircle
10
13.820822717866861
20
174.50850894365385
30
0
40
10.000000000000085
210
0
220
0
230
1
100
AcDbArc
50
180.00469079216342
51
269.99999987728188
0
LWPOLYLINE
5
161
100
AcDbEntity
8
0
100
AcDbPolyline
90
6
70
1
43
0.0
10
230.71244303230631
20
327.15850953513541
10
232.0692161699352
20
329.50850953222937
10
230.71244304237283
20
331.85850953513534
10
227.99889677718159
20
331.85850954094724
10
226.64212363955272
20
329.50850954385317
10
227.99889676711507
20
327.15850954094725
0
LWPOLYLINE
5
162
100
AcDbEntity
8
0
100
AcDbPolyline
90
6
70
1
43
0.0
10
279.19578764638254
20
458.14136695860384
10
281.90933391132654
20
458.14140359211865
10
283.26607531824408
20
460.49142190866183
10
281.90927046021773
20
462.84140359169032
10
279.19572419527378
20
462.84136695817557
10
277.83898278835613
20
460.49134864163238
0
LWPOLYLINE
5
163
100
AcDbEntity
8
0
100
AcDbPolyline
90
6
70
1
43
0.0
10
196.87648278840135
20
460.49127106351318
10
198.2332621346421
20
458.14127465097391
10
200.94680839982385
20
458.14128182587871
10
202.30357531876484
20
460.49128541332294
10
200.94679597252411
20
462.84128182586232
10
198.23324970734237
20
462.84127465095753
0
LWPOLYLINE
5
164
100
AcDbEntity
8
0
100
AcDbPolyline
90
6
70
1
43
0.0
10
67.762966208292411
20
329.50850970511397
10
66.406193080730134
20
331.85850970801994
10
63.692646815538851
20
331.85850971383189
10
62.335873677909944
20
329.50850971673788
10
63.692646805472265
20
327.1585097138319
10
66.406193070663505
20
327.15850970801995
0
CIRCLE
5
165
100
AcDbEntity
8
0
100
AcDbCircle
10
76.000637652387297
20
460.49126767534318
30
0
40
3.0000000000000071
210
0
220
0
230
1
0
CIRCLE
5
166
100
AcDbEntity
8
0
100
AcDbCircle
10
304.00063763898191
20
460.50076456847961
30
0
40
3.0000000000000071
210
0
220
0
230
1
0
LWPOLYLINE
5
167
100
AcDbEntity
8
0
100
AcDbPolyline
90
6
70
1
43
0.0
10
16.7856925398101
20
329.50850968932184
10
15.42891940721443
20
331.85850968932186
10
12.715373142023161
20
331.85850968932186
10
11.358600009427597
20
329.50850968932184
10
12.715373142023196
20
327.15850968932187
10
15.42891940721443
20
327.15850968932187
0
LWPOLYLINE
5
168
100
AcDbEntity
8
0
100
AcDbPolyline
90
35
70
1
43
0.0
10
105.10442266457096
20
334.65007526249366
42
-0.19903114089908261
10
102.4024252680524
20
333.5315056787519
10
96.717515286677283
20
333.53150567059748
42
-0.19880819619459891
10
94.018771425357897
20
334.6500923579967
10
93.838752856122767
20
334.83011113824153
42
0.19876286357891634
10
92.203550898191224
20
335.50750441748949
10
66.607596162047869
20
335.50850757147884
10
22.072146287469714
20
335.50850931903892
42
-0.41421356237207452
10
17.321607547098381
20
340.26087529947091
10
17.32160772276772
20
449.64464984624556
42
-0.42610086779759387
10
22.168523069428545
20
454.49050858895475
10
358.07269802479595
20
454.49151502338646
42
-0.4142325715198415
10
362.8226071784469
20
449.74160586921363
10
362.82260734833977
20
340.25904685086448
42
-0.41421356238072499
10
358.07024667780524
20
335.50850931982643
10
329.01457527849203
20
335.50850757147816
10
224.96119069740061
20
335.51350479603263
10
221.21363351827557
20
335.50749460564941
42
0.19821616763306724
10
219.58364038268587
20
334.82929013906698
10
219.40427404581789
20
334.6499235919805
42
-0.19901654259221549
10
216.7024283198387
20
333.5315056787519
10
215.81215723747698
20
333.53150612063939
42
-0.19885173094431222
10
213.11279892674347
20
334.65007425685417
10
212.93359357113042
20
334.82927981234013
42
0.1989102073415219
10
211.29736534432465
20
335.50750445401309
10
202.20302306857417
20
335.50750445401326
42
0.19891452737857146
10
200.56642491254871
20
334.83008002972008
10
200.38642034518745
20
334.65007526245006
42
-0.19903114089614032
10
197.68442294869388
20
333.5315056787519
10
196.79678994647927
20
333.53150567875286
42
-0.19901654261824459
10
194.09494422022499
20
334.64992359223845
10
193.91475688440158
20
334.8301111382778
42
0.19877981723308169
10
192.27940395692033
20
335.50750446154109
10
106.92101809116657
20
335.50750445775378
42
0.19891452733158252
10
105.2844427813782
20
334.83009558433059
0
LWPOLYLINE
5
169
100
AcDbEntity
8
0
100
AcDbPolyline
90
6
70
1
43
0.0
10
15.525280337329974
20
458.14051931016871
10
16.882053469925609
20
460.49051931016862
10
15.52528033733001
20
462.84051931016859
10
12.811734072138705
20
462.8405193101687
10
11.454960939543106
20
460.49051931016868
10
12.811734072138705
20
458.14051931016871
0
LWPOLYLINE
5
170
100
AcDbEntity
8
0
100
AcDbPolyline
90
6
70
1
43
0.0
10
368.78622842536544
20
460.49150891626186
10
367.42945529276989
20
462.84150891626189
10
364.7159090275785
20
462.84150891626183
10
363.3591358949829
20
460.49150891626186
10
364.7159090275785
20
458.14150891626184
10
367.42945529276989
20
458.14150891626184
0
LWPOLYLINE
5
171
100
AcDbEntity
8
0
100
AcDbPolyline
90
6
70
1
43
0.0
10
367.42701957024724
20
331.85850890192233
10
364.71347375966133
20
331.85850890192233
10
363.35670085436834
20
329.50850929562216
10
364.71347375966133
20
327.15850968932193
10
367.42701957024713
20
327.15850968932193
10
368.78379247554017
20
329.50850929562216
0
LWPOLYLINE
5
172
100
AcDbEntity
8
0
100
AcDbPolyline
90
6
70
1
43
0.0
10
121.34107531904787
20
460.49117837659395
10
119.9842959728071
20
462.84117478913333
10
117.27074970762533
20
462.84116761422854
10
115.91398278868438
20
460.49116402678419
10
117.27076213492509
20
458.14116761424486
10
119.98430840010684
20
458.14117478914977
0
ARC
5
173
100
AcDbEntity
8
0
100
AcDbCircle
10
366.19020487472073
20
329.5085092882955
30
0
40
7.9999999999999716
210
0
220
0
230
1
100
AcDbArc
50
-90.000000122717907
51
0
0
LINE
5
174
100
AcDbEntity
8
0
100
AcDbLine
10
366.19018477301165
20
468.49148196702504
30
0
11
13.810044202219842
21
468.49055023646781
31
0
0
LINE
5
175
100
AcDbEntity
8
0
100
AcDbLine
10
374.19020487472068
20
329.50850922409535
30
0
11
374.19020592586213
21
460.49148196705318
31
0
0
LINE
5
176
100
AcDbEntity
8
0
100
AcDbLine
10
5.8100653818810954
20
460.48989527835431
30
0
11
5.8207888511802963
21
329.50785508486706
31
0
0
ARC
5
177
100
AcDbEntity
8
0
100
AcDbCircle
10
13.810065355070407
20
460.49055023649589
30
0
40
7.9999999999999414
210
0
220
0
230
1
100
AcDbArc
50
90.000151496132744
51
180.00469079216342
0
LINE
5
178
100
AcDbEntity
8
0
100
AcDbLine
10
13.820788807235118
20
321.50851004300864
30
0
11
366.19020485758608
21
321.50850928829556
31
0
0
ARC
5
179
100
AcDbEntity
8
0
100
AcDbCircle
10
13.820788824369679
20
329.50851004300858
30
0
40
8.0000000000000178
210
0
220
0
230
1
100
AcDbArc
50
180.00469079216342
51
269.99999987728279
0
ARC
5
180
100
AcDbEntity
8
0
100
AcDbCircle
10
366.19020592586224
20
460.49148196705312
30
0
40
7.9999999999999005
210
0
220
-0
230
1
100
AcDbArc
50
0
51
90.000151496132943
0
LWPOLYLINE
5
181
100
AcDbEntity
8
0
100
AcDbPolyline
90
6
70
1
43
0.0
10
277.83901669847364
20
145.49134754855095
10
279.19582155650005
20
143.14136586552249
10
281.90936782144399
20
143.14140249903721
10
283.26610922836159
20
145.49142081558043
10
281.90930437033518
20
147.84140249860889
10
279.19575810539123
20
147.84136586509416
0
LWPOLYLINE
5
182
100
AcDbEntity
8
0
100
AcDbPolyline
90
6
70
1
43
0.0
10
364.71350766977878
20
12.158508596240516
10
367.42705348036463
20
12.158508596240489
10
368.78382638565768
20
14.508508202540717
10
367.42705348036463
20
16.858507808840955
10
364.71350766977878
20
16.858507808840955
10
363.35673476448591
20
14.508508202540753
0
LWPOLYLINE
5
183
100
AcDbEntity
8
0
100
AcDbPolyline
90
6
70
1
43
0.0
10
119.98434231022432
20
143.14117369606836
10
121.34110922916534
20
145.49117728351257
10
119.98432988292461
20
147.84117369605195
10
117.27078361774286
20
147.84116652114707
10
115.91401669880182
20
145.49116293370287
10
117.27079604504257
20
143.14116652116351
0
LWPOLYLINE
5
184
100
AcDbEntity
8
0
100
AcDbPolyline
90
6
70
1
43
0.0
10
232.06925008005268
20
14.508508439148029
10
230.71247695249031
20
16.858508442053939
10
227.99893068729909
20
16.858508447865859
10
226.6421575496702
20
14.508508450771807
10
227.99893067723258
20
12.158508447865879
10
230.71247694242379
20
12.158508442053941
0
LWPOLYLINE
5
185
100
AcDbEntity
8
0
100
AcDbPolyline
90
6
70
1
43
0.0
10
12.715407052140684
20
16.858508596240505
10
11.35863391954512
20
14.50850859624051
10
12.715407052140684
20
12.158508596240489
10
15.428953317331917
20
12.158508596240489
10
16.785726449927516
20
14.50850859624051
10
15.428953317331917
20
16.858508596240505
0
LWPOLYLINE
5
186
100
AcDbEntity
8
0
100
AcDbPolyline
90
6
70
1
43
0.0
10
202.30360922888235
20
145.49128432024156
10
200.94682988264162
20
147.84128073278089
10
198.23328361745985
20
147.84127355787606
10
196.87651669851886
20
145.49126997043186
10
198.23329604475958
20
143.1412735578925
10
200.94684230994133
20
143.14128073279733
0
LWPOLYLINE
5
187
100
AcDbEntity
8
0
100
AcDbPolyline
90
6
70
1
43
0.0
10
368.786262335483
20
145.49150782318048
10
367.4294892028874
20
147.84150782318051
10
364.71594293769613
20
147.84150782318048
10
363.35916980510046
20
145.49150782318048
10
364.71594293769613
20
143.14150782318043
10
367.4294892028874
20
143.14150782318046
0
LWPOLYLINE
5
188
100
AcDbEntity
8
0
100
AcDbPolyline
90
6
70
1
43
0.0
10
66.406226980780986
20
12.158508614938563
10
67.763000118409906
20
14.508508612032607
10
66.406226990847571
20
16.858508614938572
10
63.692680725656317
20
16.858508620750499
10
62.335907588027425
20
14.508508623656464
10
63.692680715589773
20
12.15850862075051
0
LWPOLYLINE
5
189
100
AcDbEntity
8
0
100
AcDbPolyline
90
6
70
1
43
0.0
10
12.811767982256264
20
147.84051821708726
10
11.454994849660594
20
145.49051821708727
10
12.811767982256264
20
143.14051821708728
10
15.525314247447533
20
143.14051821708728
10
16.882087380043096
20
145.49051821708727
10
15.525314247447533
20
147.84051821708726
0
ARC
5
190
100
AcDbEntity
8
0
100
AcDbCircle
10
215.81318882274707
20
22.350278267166175
30
0
40
3.8187733699321762
210
0
220
0
230
1
100
AcDbArc
50
224.9983992533578
51
269.98503116820979
0
LINE
5
191
100
AcDbEntity
8
0
100
AcDbLine
10
213.11283283686095
20
19.650073163772717
30
0
11
212.9336274812479
21
19.829278719258781
31
0
0
LINE
5
192
100
AcDbEntity
8
0
100
AcDbLine
10
211.29739925444213
20
20.507503360931665
30
0
11
202.20305697869165
21
20.507503360931878
31
0
0
ARC
5
193
100
AcDbEntity
8
0
100
AcDbCircle
10
211.29681418076717
20
18.193265636430311
30
0
40
2.3142377984590192
210
0
220
-0
230
1
100
AcDbArc
50
44.985990979085763
51
89.985514776113945
0
ARC
5
194
100
AcDbEntity
8
0
100
AcDbCircle
10
197.68609479866714
20
22.350281955575451
30
0
40
3.8187777211753211
210
0
220
0
230
1
100
AcDbArc
50
269.97542484780149
51
315.00160910422539
0
LINE
5
195
100
AcDbEntity
8
0
100
AcDbLine
10
17.321641457215868
20
25.260874206389552
30
0
11
17.321641632885267
21
134.64464875316412
31
0
0
LINE
5
196
100
AcDbEntity
8
0
100
AcDbLine
10
197.68445685881136
20
18.531504585670522
30
0
11
196.79682385659675
21
18.531504585671506
31
0
0
ARC
5
197
100
AcDbEntity
8
0
100
AcDbCircle
10
92.202834070602151
20
18.193336348165339
30
0
40
2.314167098015977
210
0
220
-0
230
1
100
AcDbArc
50
45.014373310226688
51
89.981412706583939
0
ARC
5
198
100
AcDbEntity
8
0
100
AcDbCircle
10
296.4586062247015
20
140.49132932237006
30
0
40
0.99999999999993761
210
0
220
0
230
1
100
AcDbArc
50
-89.999828330671463
51
0
0
LINE
5
199
100
AcDbEntity
8
0
100
AcDbLine
10
200.56645882266619
20
19.830078936638664
30
0
11
200.38645425530493
21
19.650074169368651
31
0
0
ARC
5
200
100
AcDbEntity
8
0
100
AcDbCircle
10
22.072033772869837
20
134.74013628687351
30
0
40
4.7513517395285492
210
0
220
-0
230
1
100
AcDbArc
50
88.83596224101295
51
181.1515461964581
0
LINE
5
201
100
AcDbEntity
8
0
100
AcDbLine
10
216.70246222995618
20
18.531504585670497
30
0
11
215.81219114759446
21
18.531505027558001
31
0
0
ARC
5
202
100
AcDbEntity
8
0
100
AcDbCircle
10
196.7951859167672
20
22.350281955575309
30
0
40
3.8187777211741598
210
0
220
0
230
1
100
AcDbArc
50
225.00160909958419
51
270.02457515180492
0
ARC
5
203
100
AcDbEntity
8
0
100
AcDbCircle
10
13.81009926518793
20
145.4905491434144
30
0
40
10.000000000000016
210
0
220
0
230
1
100
AcDbArc
50
90.000151496132844
51
180.00469079216342
0
LINE
5
204
100
AcDbEntity
8
0
100
AcDbLine
10
297.4586062247015
20
140.49132932237006
30
0
11
297.45860622470155
21
152.99129252998515
31
0
0
LINE
5
205
100
AcDbEntity
8
0
100
AcDbLine
10
22.168556979546103
20
139.49050749587329
30
0
11
296.45860922089651
21
139.49132932237464
31
0
0
LINE
5
206
100
AcDbEntity
8
0
100
AcDbLine
10
13.820822713068956
20
4.508508949927128
30
0
11
366.19023876341998
21
4.5085081952141337
31
0
0
ARC
5
207
100
AcDbEntity
8
0
100
AcDbCircle
10
13.820822734487201
20
14.508508949927146
30
0
40
10.000000000000014
210
0
220
0
230
1
100
AcDbArc
50
180.00469079216342
51
269.99999987728251
0
ARC
5
208
100
AcDbEntity
8
0
100
AcDbCircle
10
202.20247190576717
20
18.193265636430311
30
0
40
2.3142377984590339
210
0
220
-0
230
1
100
AcDbArc
50
89.985514794694183
51
134.98599098862471
0
ARC
5
209
100
AcDbEntity
8
0
100
AcDbCircle
10
366.19023878483813
20
14.508508195214116
30
0
40
9.9999999999999911
210
0
220
0
230
1
100
AcDbArc
50
-90.000000122716941
51
0
0
ARC
5
210
100
AcDbEntity
8
0
100
AcDbCircle
10
192.27883809891719
20
18.193336348165339
30
0
40
2.3141670980160121
210
0
220
-0
230
1
100
AcDbArc
50
45.014373311494708
51
89.985150518122779
0
ARC
5
211
100
AcDbEntity
8
0
100
AcDbCircle
10
358.07119215773287
20
25.259957327469422
30
0
40
4.751449188167153
210
0
220
0
230
1
100
AcDbArc
50
269.98900775298097
51
359.98900775447305
0
ARC
5
212
100
AcDbEntity
8
0
100
AcDbCircle
10
221.22044798761718
20
18.193336348165339
30
0
40
2.3141670980160045
210
0
220
0
230
1
100
AcDbArc
50
90.167878102878234
51
135.0143732338399
0
ARC
5
213
100
AcDbEntity
8
0
100
AcDbCircle
10
358.07288606622279
20
134.74175890796343
30
0
40
4.7497550248424849
210
0
220
0
230
1
100
AcDbArc
50
-0.0018592753583251526
51
90.001859269261431
0
ARC
5
214
100
AcDbEntity
8
0
100
AcDbCircle
10
96.719196622957156
20
22.350317488916289
30
0
40
3.8188132667479597
210
0
220
0
230
1
100
AcDbArc
50
224.99824882232969
51
269.97528274819996
0
ARC
5
215
100
AcDbEntity
8
0
100
AcDbCircle
10
22.073093817625846
20
25.259960586367505
30
0
40
4.7514524482464404
210
0
220
0
230
1
100
AcDbArc
50
179.98898303790736
51
269.98898303767419
0
ARC
5
216
100
AcDbEntity
8
0
100
AcDbCircle
10
366.1902398359797
20
145.49148087397171
30
0
40
10
210
0
220
0
230
1
100
AcDbArc
50
0
51
90.000151496132389
0
LINE
5
217
100
AcDbEntity
8
0
100
AcDbLine
10
329.01460918860948
20
20.508506478396704
30
0
11
224.96122460751809
21
20.513503702951219
31
0
0
LINE
5
218
100
AcDbEntity
8
0
100
AcDbLine
10
219.58367429280338
20
19.829289045985607
30
0
11
219.40430795593539
21
19.649922498899137
31
0
0
LINE
5
219
100
AcDbEntity
8
0
100
AcDbLine
10
102.40245917816991
20
18.531504585670511
30
0
11
96.717549196794778
21
18.531504577516039
31
0
0
LINE
5
220
100
AcDbEntity
8
0
100
AcDbLine
10
192.27943786703781
20
20.507503368459695
30
0
11
106.92105200128407
21
20.507503364672388
31
0
0
ARC
5
221
100
AcDbEntity
8
0
100
AcDbCircle
10
102.40409711800716
20
22.35028195557522
30
0
40
3.8187777211750822
210
0
220
0
230
1
100
AcDbArc
50
269.97542484807951
51
315.00160910515137
0
LINE
5
222
100
AcDbEntity
8
0
100
AcDbLine
10
3.810099298701215
20
145.48973044573754
30
0
11
3.8208227680004825
21
14.507690252250285
31
0
0
LINE
5
223
100
AcDbEntity
8
0
100
AcDbLine
10
66.607630072165307
20
20.508506478397422
30
0
11
22.072180197587208
21
20.508508225957534
31
0
0
ARC
5
224
100
AcDbEntity
8
0
100
AcDbCircle
10
294.95860622470155
20
152.99129252998515
30
0
40
2.5
210
0
220
0
230
1
100
AcDbArc
50
0
51
90.000151496134336
0
LINE
5
225
100
AcDbEntity
8
0
100
AcDbLine
10
366.19021339491655
20
155.49148087393672
30
0
11
313.77156391946301
21
155.49134227345419
31
0
0
LINE
5
226
100
AcDbEntity
8
0
100
AcDbLine
10
194.09497813034247
20
19.649922499157068
30
0
11
193.91479079451909
21
19.830110045196399
31
0
0
LINE
5
227
100
AcDbEntity
8
0
100
AcDbLine
10
92.203584808308761
20
20.507503324408102
30
0
11
66.607630072165307
21
20.508506478397422
31
0
0
LINE
5
228
100
AcDbEntity
8
0
100
AcDbLine
10
376.19023878483813
20
14.508508114963883
30
0
11
376.1902398359797
21
145.49148079372145
31
0
0
LINE
5
229
100
AcDbEntity
8
0
100
AcDbLine
10
224.96122460751809
20
20.513503702951219
30
0
11
221.21366742839308
21
20.507493512568054
31
0
0
ARC
5
230
100
AcDbEntity
8
0
100
AcDbCircle
10
216.70410016976714
20
22.350281955575451
30
0
40
3.8187777211753193
210
0
220
0
230
1
100
AcDbArc
50
269.97542484847401
51
314.99839089495686
0
LINE
5
231
100
AcDbEntity
8
0
100
AcDbLine
10
362.82264108856447
20
134.74160477614868
30
0
11
362.82264125845728
21
25.259045757782985
31
0
0
LINE
5
232
100
AcDbEntity
8
0
100
AcDbLine
10
94.01880533547542
20
19.65009126491524
30
0
11
93.838786766240247
21
19.830110045160165
31
0
0
ARC
5
233
100
AcDbEntity
8
0
100
AcDbCircle
10
312.27160358096125
20
140.49137670119475
30
0
40
0.99999999999995715
210
0
220
0
230
1
100
AcDbArc
50
180.0001514961132
51
270.00017166932855
0
ARC
5
234
100
AcDbEntity
8
0
100
AcDbCircle
10
106.92045958034717
20
18.193300992624295
30
0
40
2.3142024478760619
210
0
220
-0
230
1
100
AcDbArc
50
89.985332648929969
51
134.98580883250153
0
ARC
5
235
100
AcDbEntity
8
0
100
AcDbCircle
10
313.77157052972882
20
152.99134227346289
30
0
40
2.5000000000000351
210
0
220
0
230
1
100
AcDbArc
50
90.000151496133043
51
180.0001514961132
0
LINE
5
236
100
AcDbEntity
8
0
100
AcDbLine
10
311.27157052973752
20
152.99133566319796
30
0
11
311.27160358096484
21
140.49137405708876
31
0
0
LINE
5
237
100
AcDbEntity
8
0
100
AcDbLine
10
105.2844766914957
20
19.830094491249195
30
0
11
105.10445657468841
21
19.650074169412225
31
0
0
LINE
5
238
100
AcDbEntity
8
0
100
AcDbLine
10
312.27160657715626
20
139.49137670119927
30
0
11
358.07273193491346
21
139.4915139303051
31
0
0
LINE
5
239
100
AcDbEntity
8
0
100
AcDbLine
10
294.95859961443568
20
155.49129252997639
30
0
11
13.810072824124708
21
155.49054914337947
31
0
0
LINE
5
240
100
AcDbEntity
8
0
100
AcDbLine
10
358.0702805879227
20
20.508508226745015
30
0
11
329.01460918860948
21
20.508506478396704
31
0
0
CIRCLE
5
241
100
AcDbEntity
8
0
100
AcDbCircle
10
229.35563599462853
20
479.50851063112339
30
2.2204460492503131e-14
40
1.6000000000000014
210
0
220
0
230
1
0
CIRCLE
5
242
100
AcDbEntity
8
0
100
AcDbCircle
10
118.62749514375066
20
610.49117229477122
30
-1.7763568394002501e-14
40
1.6000000000000014
210
0
220
0
230
1
0
CIRCLE
5
243
100
AcDbEntity
8
0
100
AcDbCircle
10
199.58999514346769
20
610.49127933150021
30
-2.2204460492503131e-14
40
1.6000000000000025
210
0
220
0
230
1
0
CIRCLE
5
244
100
AcDbEntity
8
0
100
AcDbCircle
10
280.55249514318467
20
610.4913863682292
30
-2.2204460492503131e-14
40
1.6000000000000014
210
0
220
0
230
1
0
CIRCLE
5
245
100
AcDbEntity
8
0
100
AcDbCircle
10
65.049386032985765
20
479.50851080400804
30
2.6645352591003757e-14
40
1.6000000000000014
210
0
220
0
230
1
0
CIRCLE
5
246
100
AcDbEntity
8
0
100
AcDbCircle
10
76.000603742271835
20
610.49126876842524
30
-1.7763568394002501e-14
40
1.6000000000000014
210
0
220
0
230
1
0
CIRCLE
5
247
100
AcDbEntity
8
0
100
AcDbCircle
10
366.07021275483874
20
479.50851038870417
30
1.7763568394002501e-14
40
1.5999999999999659
210
0
220
0
230
1
0
CIRCLE
5
248
100
AcDbEntity
8
0
100
AcDbCircle
10
14.168473294618913
20
610.4905204032508
30
-1.5543122344752192e-14
40
1.6000000000000014
210
0
220
0
230
1
0
CIRCLE
5
249
100
AcDbEntity
8
0
100
AcDbCircle
10
14.072112364503404
20
479.50851078240396
30
2.886579864025407e-14
40
1.6000000000000014
210
0
220
0
230
1
0
CIRCLE
5
250
100
AcDbEntity
8
0
100
AcDbCircle
10
304.00060372886639
20
610.50076566156167
30
-2.4424906541753444e-14
40
1.6000000000000014
210
0
220
0
230
1
0
CIRCLE
5
251
100
AcDbEntity
8
0
100
AcDbCircle
10
366.07264825005871
20
610.49151000934398
30
-2.6645352591003757e-14
40
1.6000000000000369
210
0
220
0
230
1
0
LINE
5
252
100
AcDbEntity
8
0
100
AcDbLine
10
366.19015615110686
20
616.49148306011409
30
0
11
13.810015625338536
21
616.49055132955698
31
0
0
LINE
5
253
100
AcDbEntity
8
0
100
AcDbLine
10
7.8100314650628988
20
610.4900601109689
30
0
11
7.8207549343622773
21
479.50801991748455
31
0
0
ARC
5
254
100
AcDbEntity
8
0
100
AcDbCircle
10
13.820754914254252
20
479.50851113609065
30
0
40
5.9999999999999867
210
0
220
0
230
1
100
AcDbArc
50
180.00469079216342
51
269.9999998772829
0
ARC
5
255
100
AcDbEntity
8
0
100
AcDbCircle
10
13.81003144495498
20
610.4905513295779
30
0
40
5.9999999999999796
210
0
220
0
230
1
100
AcDbArc
50
90.000151066209298
51
180.00469079208571
0
ARC
5
256
100
AcDbEntity
8
0
100
AcDbCircle
10
366.19017096460527
20
479.50851038137762
30
0
40
6.0000000000000142
210
0
220
0
230
1
100
AcDbArc
50
-90.000000122717907
51
0
0
LINE
5
257
100
AcDbEntity
8
0
100
AcDbLine
10
13.820754901403348
20
473.50851113609059
30
0
11
366.19017095175428
21
473.50851038137762
31
0
0
LINE
5
258
100
AcDbEntity
8
0
100
AcDbLine
10
372.19017096460516
20
479.50851033322749
30
0
11
372.19017201574673
21
610.49148301197977
31
0
0
ARC
5
259
100
AcDbEntity
8
0
100
AcDbCircle
10
366.19017201574161
20
610.49148306012989
30
0
40
6.0000000000052012
210
0
220
0
230
1
100
AcDbArc
50
0
51
90.000151496102418
0
LWPOLYLINE
5
260
100
AcDbEntity
8
0
100
AcDbPolyline
90
6
70
1
43
0.0
10
511.34110922916534
20
145.49117728351257
10
509.98432988292456
20
147.84117369605195
10
507.27078361774289
20
147.84116652114707
10
505.91401669880184
20
145.49116293370287
10
507.27079604504263
20
143.14116652116351
10
509.98434231022435
20
143.14117369606836
0
LWPOLYLINE
5
261
100
AcDbEntity
8
0
100
AcDbPolyline
90
6
70
1
43
0.0
10
757.42705348036463
20
12.158508596240489
10
758.78382638565768
20
14.508508202540717
10
757.42705348036463
20
16.858507808840955
10
754.71350766977878
20
16.858507808840955
10
753.35673476448596
20
14.508508202540753
10
754.71350766977878
20
12.158508596240516
0
LWPOLYLINE
5
262
100
AcDbEntity
8
0
100
AcDbPolyline
90
6
70
1
43
0.0
10
588.23329604475953
20
143.1412735578925
10
590.9468423099413
20
143.14128073279733
10
592.30360922888235
20
145.49128432024156
10
590.94682988264162
20
147.84128073278089
10
588.23328361745985
20
147.84127355787606
10
586.87651669851891
20
145.49126997043186
0
LWPOLYLINE
5
263
100
AcDbEntity
8
0
100
AcDbPolyline
90
6
70
1
43
0.0
10
401.35863391954507
20
14.50850859624051
10
402.71540705214068
20
12.158508596240489
10
405.42895331733189
20
12.158508596240489
10
406.78572644992755
20
14.50850859624051
10
405.42895331733189
20
16.858508596240505
10
402.71540705214068
20
16.858508596240505
0
LWPOLYLINE
5
264
100
AcDbEntity
8
0
100
AcDbPolyline
90
6
70
1
43
0.0
10
671.90936782144388
20
143.14140249903718
10
673.26610922836153
20
145.49142081558043
10
671.90930437033512
20
147.84140249860889
10
669.19575810539129
20
147.84136586509416
10
667.83901669847364
20
145.49134754855095
10
669.19582155650005
20
143.14136586552249
0
LWPOLYLINE
5
265
100
AcDbEntity
8
0
100
AcDbPolyline
90
6
70
1
43
0.0
10
617.99893068729898
20
16.858508447865859
10
616.64215754967017
20
14.508508450771807
10
617.99893067723258
20
12.158508447865879
10
620.7124769424239
20
12.158508442053941
10
622.0692500800526
20
14.508508439148029
10
620.71247695249031
20
16.858508442053939
0
LWPOLYLINE
5
266
100
AcDbEntity
8
0
100
AcDbPolyline
90
6
70
1
43
0.0
10
402.8117679822563
20
143.14051821708728
10
405.52531424744757
20
143.14051821708728
10
406.88208738004312
20
145.49051821708727
10
405.52531424744757
20
147.84051821708726
10
402.8117679822563
20
147.84051821708726
10
401.45499484966058
20
145.49051821708727
0
LWPOLYLINE
5
267
100
AcDbEntity
8
0
100
AcDbPolyline
90
6
70
1
43
0.0
10
757.42948920288745
20
147.84150782318048
10
754.71594293769613
20
147.84150782318048
10
753.35916980510046
20
145.49150782318048
10
754.71594293769613
20
143.14150782318043
10
757.42948920288745
20
143.14150782318046
10
758.786262335483
20
145.49150782318048
0
LWPOLYLINE
5
268
100
AcDbEntity
8
0
100
AcDbPolyline
90
6
70
1
43
0.0
10
453.69268072565632
20
16.858508620750499
10
452.3359075880274
20
14.508508623656464
10
453.69268071558974
20
12.15850862075051
10
456.40622698078096
20
12.158508614938563
10
457.76300011840993
20
14.508508612032607
10
456.40622699084759
20
16.858508614938572
0
LINE
5
269
100
AcDbEntity
8
0
100
AcDbLine
10
702.27160657715626
20
139.4913767011993
30
0
11
748.07273193491346
21
139.49151393030508
31
0
0
LINE
5
270
100
AcDbEntity
8
0
100
AcDbLine
10
590.56645882266616
20
19.830078936638664
30
0
11
590.38645425530501
21
19.650074169368644
31
0
0
ARC
5
271
100
AcDbEntity
8
0
100
AcDbCircle
10
412.07203377286987
20
134.74013628687351
30
0
40
4.7513517395285492
210
0
220
-0
230
1
100
AcDbArc
50
88.835962241013306
51
181.15154619645782
0
ARC
5
272
100
AcDbEntity
8
0
100
AcDbCircle
10
403.81009926518794
20
145.4905491434144
30
0
40
10.000000000000016
210
0
220
0
230
1
100
AcDbArc
50
90.000151496133043
51
180.00469079216342
0
ARC
5
273
100
AcDbEntity
8
0
100
AcDbCircle
10
601.29681418076711
20
18.193265636430311
30
0
40
2.3142377984590192
210
0
220
-0
230
1
100
AcDbArc
50
44.985990979085145
51
89.985514776113263
0
ARC
5
274
100
AcDbEntity
8
0
100
AcDbCircle
10
486.71919662295716
20
22.350317488916289
30
0
40
3.8188132667479597
210
0
220
0
230
1
100
AcDbArc
50
224.99824882232949
51
269.97528274819996
0
ARC
5
275
100
AcDbEntity
8
0
100
AcDbCircle
10
686.4586062247015
20
140.49132932237006
30
0
40
0.99999999999993761
210
0
220
0
230
1
100
AcDbArc
50
-89.999828330671463
51
0
0
ARC
5
276
100
AcDbEntity
8
0
100
AcDbCircle
10
587.68609479866711
20
22.350281955575451
30
0
40
3.8187777211753211
210
0
220
0
230
1
100
AcDbArc
50
269.97542484780189
51
315.00160910422653
0
LINE
5
277
100
AcDbEntity
8
0
100
AcDbLine
10
456.60763007216531
20
20.508506478397422
30
0
11
412.07218019758727
21
20.508508225957549
31
0
0
LINE
5
278
100
AcDbEntity
8
0
100
AcDbLine
10
684.95859961443568
20
155.49129252997633
30
0
11
403.81007282412469
21
155.49054914337947
31
0
0
ARC
5
279
100
AcDbEntity
8
0
100
AcDbCircle
10
482.20283407060214
20
18.193336348165339
30
0
40
2.3141670980159517
210
0
220
-0
230
1
100
AcDbArc
50
45.014373310226937
51
89.981412706584308
0
LINE
5
280
100
AcDbEntity
8
0
100
AcDbLine
10
495.28447669149568
20
19.830094491249195
30
0
11
495.10445657468847
21
19.650074169412221
31
0
0
ARC
5
281
100
AcDbEntity
8
0
100
AcDbCircle
10
605.81318882274707
20
22.350278267166175
30
0
40
3.8187733699321762
210
0
220
0
230
1
100
AcDbArc
50
224.99839925335721
51
269.98503116820848
0
LINE
5
282
100
AcDbEntity
8
0
100
AcDbLine
10
584.0949781303425
20
19.649922499157064
30
0
11
583.91479079451915
21
19.830110045196392
31
0
0
ARC
5
283
100
AcDbEntity
8
0
100
AcDbCircle
10
582.27883809891728
20
18.193336348165339
30
0
40
2.3141670980160121
210
0
220
-0
230
1
100
AcDbArc
50
45.014373311495085
51
89.985150518122069
0
LINE
5
284
100
AcDbEntity
8
0
100
AcDbLine
10
752.82264108856441
20
134.74160477614868
30
0
11
752.82264125845722
21
25.259045757783021
31
0
0
LINE
5
285
100
AcDbEntity
8
0
100
AcDbLine
10
482.20358480830873
20
20.507503324408102
30
0
11
456.60763007216531
21
20.508506478397422
31
0
0
ARC
5
286
100
AcDbEntity
8
0
100
AcDbCircle
10
586.7951859167672
20
22.350281955575309
30
0
40
3.8187777211741345
210
0
220
0
230
1
100
AcDbArc
50
225.00160909958453
51
270.02457515180578
0
LINE
5
287
100
AcDbEntity
8
0
100
AcDbLine
10
748.07028058792275
20
20.508508226745015
30
0
11
719.01460918860948
21
20.508506478396704
31
0
0
LINE
5
288
100
AcDbEntity
8
0
100
AcDbLine
10
603.11283283686089
20
19.650073163772717
30
0
11
602.93362748124787
21
19.829278719258774
31
0
0
LINE
5
289
100
AcDbEntity
8
0
100
AcDbLine
10
606.70246222995627
20
18.531504585670497
30
0
11
605.81219114759438
21
18.531505027558001
31
0
0
LINE
5
290
100
AcDbEntity
8
0
100
AcDbLine
10
601.2973992544421
20
20.507503360931672
30
0
11
592.20305697869162
21
20.507503360931878
31
0
0
LINE
5
291
100
AcDbEntity
8
0
100
AcDbLine
10
582.27943786703793
20
20.507503368459695
30
0
11
496.92105200128412
21
20.507503364672388
31
0
0
LINE
5
292
100
AcDbEntity
8
0
100
AcDbLine
10
492.40245917816992
20
18.531504585670511
30
0
11
486.71754919679478
21
18.531504577516039
31
0
0
ARC
5
293
100
AcDbEntity
8
0
100
AcDbCircle
10
492.40409711800714
20
22.35028195557522
30
0
40
3.8187777211750822
210
0
220
0
230
1
100
AcDbArc
50
269.97542484807991
51
315.00160910515206
0
LINE
5
294
100
AcDbEntity
8
0
100
AcDbLine
10
587.68445685881136
20
18.531504585670522
30
0
11
586.7968238565968
21
18.531504585671538
31
0
0
ARC
5
295
100
AcDbEntity
8
0
100
AcDbCircle
10
496.9204595803472
20
18.193300992624295
30
0
40
2.3142024478760619
210
0
220
-0
230
1
100
AcDbArc
50
89.985332648929287
51
134.98580883250224
0
ARC
5
296
100
AcDbEntity
8
0
100
AcDbCircle
10
684.95860622470161
20
152.99129252998515
30
0
40
2.5
210
0
220
0
230
1
100
AcDbArc
50
0
51
90.000151496135643
0
ARC
5
297
100
AcDbEntity
8
0
100
AcDbCircle
10
592.2024719057672
20
18.193265636430311
30
0
40
2.3142377984590339
210
0
220
-0
230
1
100
AcDbArc
50
89.985514794695604
51
134.9859909886257
0
LINE
5
298
100
AcDbEntity
8
0
100
AcDbLine
10
719.01460918860948
20
20.508506478396704
30
0
11
614.96122460751803
21
20.513503702951219
31
0
0
LINE
5
299
100
AcDbEntity
8
0
100
AcDbLine
10
614.96122460751803
20
20.513503702951219
30
0
11
611.21366742839302
21
20.507493512568047
31
0
0
ARC
5
300
100
AcDbEntity
8
0
100
AcDbCircle
10
412.07309381762582
20
25.259960586367505
30
0
40
4.7514524482464759
210
0
220
0
230
1
100
AcDbArc
50
179.98898303787428
51
269.98898303767533
0
ARC
5
301
100
AcDbEntity
8
0
100
AcDbCircle
10
748.07288606622274
20
134.74175890796343
30
0
40
4.749755024842556
210
0
220
0
230
1
100
AcDbArc
50
-0.0018592753583251526
51
90.001859269260748
0
LINE
5
302
100
AcDbEntity
8
0
100
AcDbLine
10
412.16855697954611
20
139.49050749587329
30
0
11
686.45860922089651
21
139.49132932237464
31
0
0
LINE
5
303
100
AcDbEntity
8
0
100
AcDbLine
10
609.58367429280338
20
19.829289045985597
30
0
11
609.40430795593545
21
19.649922498899137
31
0
0
LINE
5
304
100
AcDbEntity
8
0
100
AcDbLine
10
766.19023878483813
20
14.508508114963883
30
0
11
766.1902398359797
21
145.49148079372145
31
0
0
ARC
5
305
100
AcDbEntity
8
0
100
AcDbCircle
10
403.82082273448714
20
14.508508949927146
30
0
40
9.9999999999999787
210
0
220
0
230
1
100
AcDbArc
50
180.00469079216342
51
269.99999987728279
0
LINE
5
306
100
AcDbEntity
8
0
100
AcDbLine
10
756.19021339491655
20
155.49148087393669
30
0
11
703.77156391946301
21
155.49134227345419
31
0
0
LINE
5
307
100
AcDbEntity
8
0
100
AcDbLine
10
407.32164145721583
20
25.260874206389552
30
0
11
407.3216416328853
21
134.64464875316415
31
0
0
ARC
5
308
100
AcDbEntity
8
0
100
AcDbCircle
10
703.77157052972893
20
152.99134227346289
30
0
40
2.5000000000000351
210
0
220
0
230
1
100
AcDbArc
50
90.000151496135643
51
180.0001514961132
0
LINE
5
309
100
AcDbEntity
8
0
100
AcDbLine
10
687.4586062247015
20
140.49132932237006
30
0
11
687.45860622470161
21
152.99129252998515
31
0
0
LINE
5
310
100
AcDbEntity
8
0
100
AcDbLine
10
393.81009929870123
20
145.48973044573754
30
0
11
393.82082276800048
21
14.507690252250285
31
0
0
ARC
5
311
100
AcDbEntity
8
0
100
AcDbCircle
10
611.22044798761726
20
18.193336348165339
30
0
40
2.3141670980160045
210
0
220
0
230
1
100
AcDbArc
50
90.167878102881744
51
135.01437323384161
0
ARC
5
312
100
AcDbEntity
8
0
100
AcDbCircle
10
606.70410016976712
20
22.350281955575451
30
0
40
3.8187777211753193
210
0
220
0
230
1
100
AcDbArc
50
269.97542484847565
51
314.99839089495777
0
ARC
5
313
100
AcDbEntity
8
0
100
AcDbCircle
10
748.07119215773287
20
25.259957327469422
30
0
40
4.751449188167153
210
0
220
0
230
1
100
AcDbArc
50
269.98900775298165
51
359.98900775447305
0
ARC
5
314
100
AcDbEntity
8
0
100
AcDbCircle
10
702.27160358096125
20
140.49137670119475
30
0
40
0.99999999999988609
210
0
220
0
230
1
100
AcDbArc
50
180.0001514961132
51
270.00017166932855
0
ARC
5
315
100
AcDbEntity
8
0
100
AcDbCircle
10
756.19023878483813
20
14.508508195214116
30
0
40
9.9999999999999911
210
0
220
0
230
1
100
AcDbArc
50
-90.000000122716941
51
0
0
LINE
5
316
100
AcDbEntity
8
0
100
AcDbLine
10
484.01880533547541
20
19.65009126491524
30
0
11
483.83878676624022
21
19.830110045160165
31
0
0
LINE
5
317
100
AcDbEntity
8
0
100
AcDbLine
10
403.82082271306894
20
4.5085089499271325
30
0
11
756.19023876341998
21
4.5085081952141248
31
0
0
LINE
5
318
100
AcDbEntity
8
0
100
AcDbLine
10
701.27157052973757
20
152.99133566319796
30
0
11
701.27160358096489
21
140.49137405708876
31
0
0
ARC
5
319
100
AcDbEntity
8
0
100
AcDbCircle
10
756.1902398359797
20
145.49148087397171
30
0
40
10
210
0
220
0
230
1
100
AcDbArc
50
0
51
90.000151496132389
0
LWPOLYLINE
5
320
100
AcDbEntity
8
0
100
AcDbPolyline
90
6
70
1
43
0.0
10
78.713546498282682
20
629.99525163087242
10
77.356773365687047
20
632.34525163087244
10
74.643227100495778
20
632.34525163087244
10
73.286453967900158
20
629.99525163087242
10
74.643227100495778
20
627.64525163087239
10
77.356773365687047
20
627.64525163087239
0
CIRCLE
5
321
100
AcDbEntity
8
0
100
AcDbCircle
10
118.62689163457023
20
630.01315515721808
30
0
40
3.0000000000000071
210
0
220
0
230
1
0
LWPOLYLINE
5
322
100
AcDbEntity
8
0
100
AcDbPolyline
90
6
70
1
43
0.0
10
305.35677335228161
20
632.35474852400876
10
302.64322708709039
20
632.35474852400876
10
301.28645395449485
20
630.00474852400873
10
302.64322708709039
20
627.65474852400871
10
305.35677335228166
20
627.65474852400871
10
306.71354648487721
20
630.00474852400873
0
CIRCLE
5
323
100
AcDbEntity
8
0
100
AcDbCircle
10
280.55189163400422
20
630.01336923067606
30
0
40
3.0000000000000071
210
0
220
0
230
1
0
CIRCLE
5
324
100
AcDbEntity
8
0
100
AcDbCircle
10
199.58939163428724
20
630.01326219394718
30
0
40
3.0000000000000071
210
0
220
0
230
1
0
ARC
5
325
100
AcDbEntity
8
0
100
AcDbCircle
10
353.99999948909635
20
630.01342671940324
30
0
40
5.9999999999999867
210
0
220
0
230
1
100
AcDbArc
50
-89.995309207808532
51
90.004689084643616
0
LINE
5
326
100
AcDbEntity
8
0
100
AcDbLine
10
353.9995084253448
20
636.01342669930796
30
0
11
25.999509369723484
21
635.98657341533988
31
0
0
ARC
5
327
100
AcDbEntity
8
0
100
AcDbCircle
10
26.000000588332313
20
629.98657343544778
30
0
40
5.9999999999999867
210
0
220
0
230
1
100
AcDbArc
50
90.00469079218928
51
270.0046907921901
0
LINE
5
328
100
AcDbEntity
8
0
100
AcDbLine
10
26.000491806941227
20
623.9865734555558
30
0
11
354.00049070770541
21
624.01342673951126
31
0
0
LWPOLYLINE
5
329
100
AcDbEntity
8
0
100
AcDbPolyline
90
6
70
1
43
0.0
10
77.356773365687047
20
647.34525163087244
10
74.643227100495778
20
647.34525163087244
10
73.286453967900158
20
644.99525163087242
10
74.643227100495778
20
642.64525163087239
10
77.356773365687047
20
642.64525163087239
10
78.713546498282682
20
644.99525163087242
0
LWPOLYLINE
5
330
100
AcDbEntity
8
0
100
AcDbPolyline
90
6
70
1
43
0.0
10
305.35677335228161
20
647.35474852400876
10
302.64322708709039
20
647.35474852400876
10
301.28645395449485
20
645.00474852400873
10
302.64322708709039
20
642.65474852400871
10
305.35677335228166
20
642.65474852400871
10
306.71354648487727
20
645.00474852400873
0
CIRCLE
5
331
100
AcDbEntity
8
0
100
AcDbCircle
10
199.58939163428724
20
645.01326219394718
30
0
40
3.0000000000000071
210
0
220
0
230
1
0
CIRCLE
5
332
100
AcDbEntity
8
0
100
AcDbCircle
10
118.62689163457023
20
645.01315515721808
30
0
40
3.0000000000000071
210
0
220
0
230
1
0
CIRCLE
5
333
100
AcDbEntity
8
0
100
AcDbCircle
10
280.55189163400422
20
645.01336923067606
30
0
40
3.0000000000000071
210
0
220
0
230
1
0
ARC
5
334
100
AcDbEntity
8
0
100
AcDbCircle
10
353.99999948909635
20
645.01342671940324
30
0
40
5.9999999999999867
210
0
220
0
230
1
100
AcDbArc
50
-89.995309207808532
51
90.004689084643616
0
LINE
5
335
100
AcDbEntity
8
0
100
AcDbLine
10
353.9995084253448
20
651.01342669930784
30
0
11
25.999509369723484
21
650.98657341533976
31
0
0
LINE
5
336
100
AcDbEntity
8
0
100
AcDbLine
10
26.000491806941248
20
638.9865734555558
30
0
11
354.00049070770541
21
639.01342673951126
31
0
0
ARC
5
337
100
AcDbEntity
8
0
100
AcDbCircle
10
26.000000588332313
20
644.98657343544778
30
0
40
5.9999999999999867
210
0
220
0
230
1
100
AcDbArc
50
90.00469079218928
51
270.00469079219027
0
LWPOLYLINE
5
338
100
AcDbEntity
8
0
100
AcDbPolyline
90
6
70
1
43
0.0
10
77.356773349324342
20
662.34525159814848
10
74.64322708413313
20
662.34525159814848
10
73.286453951537496
20
659.99525159814857
10
74.64322708413313
20
657.64525159814855
10
77.356773349324342
20
657.64525159814855
10
78.713546481919977
20
659.99525159814857
0
LWPOLYLINE
5
339
100
AcDbEntity
8
0
100
AcDbPolyline
90
6
70
1
43
0.0
10
306.71354646851455
20
660.00474849128477
10
305.35677333591889
20
662.35474849128479
10
302.64322707072773
20
662.35474849128479
10
301.28645393813213
20
660.00474849128477
10
302.64322707072773
20
657.65474849128486
10
305.356773335919
20
657.65474849128486
0
LINE
5
340
100
AcDbEntity
8
0
100
AcDbLine
10
26.000491790578515
20
653.98657342283184
30
0
11
354.00049069134252
21
654.0134267067873
31
0
0
LINE
5
341
100
AcDbEntity
8
0
100
AcDbLine
10
353.99950825412475
20
666.01342666657138
30
0
11
25.99950935336075
21
665.98657338261592
31
0
0
ARC
5
342
100
AcDbEntity
8
0
100
AcDbCircle
10
353.99999947273363
20
660.01342668667928
30
0
40
5.9999999999999867
210
0
220
0
230
1
100
AcDbArc
50
-89.995309207810166
51
90.004691645963476
0
ARC
5
343
100
AcDbEntity
8
0
100
AcDbCircle
10
26.000000571969615
20
659.98657340272393
30
0
40
5.9999999999999867
210
0
220
0
230
1
100
AcDbArc
50
90.004690792189621
51
270.00469079218993
0
LWPOLYLINE
5
344
100
AcDbEntity
8
0
100
AcDbPolyline
90
6
70
1
43
0.0
10
78.713546481919977
20
674.99525159814857
10
77.356773349324342
20
677.34525159814848
10
74.64322708413313
20
677.34525159814848
10
73.286453951537496
20
674.99525159814857
10
74.64322708413313
20
672.64525159814855
10
77.356773349324342
20
672.64525159814855
0
LINE
5
345
100
AcDbEntity
8
0
100
AcDbLine
10
26.000491790578515
20
668.98657342283184
30
0
11
354.00049069134252
21
669.0134267067873
31
0
0
LINE
5
346
100
AcDbEntity
8
0
100
AcDbLine
10
353.99950825412475
20
681.01342666657138
30
0
11
25.99950935336075
21
680.98657338261592
31
0
0
LWPOLYLINE
5
347
100
AcDbEntity
8
0
100
AcDbPolyline
90
6
70
1
43
0.0
10
306.71354646851455
20
675.00474849128477
10
305.35677333591889
20
677.35474849128479
10
302.64322707072773
20
677.35474849128479
10
301.28645393813213
20
675.00474849128477
10
302.64322707072773
20
672.65474849128486
10
305.356773335919
20
672.65474849128486
0
ARC
5
348
100
AcDbEntity
8
0
100
AcDbCircle
10
353.99999947273363
20
675.01342668667928
30
0
40
5.9999999999999867
210
0
220
0
230
1
100
AcDbArc
50
-89.995309207810166
51
90.004691645963476
0
ARC
5
349
100
AcDbEntity
8
0
100
AcDbCircle
10
26.000000571969615
20
674.98657340272393
30
0
40
5.9999999999999867
210
0
220
0
230
1
100
AcDbArc
50
90.004690792189621
51
270.00469079218993
0
LWPOLYLINE
5
350
100
AcDbEntity
8
0
100
AcDbPolyline
90
6
70
1
43
0.0
10
78.713546481919977
20
689.99525159814857
10
77.356773349324342
20
692.34525159814848
10
74.64322708413313
20
692.34525159814848
10
73.286453951537496
20
689.99525159814857
10
74.64322708413313
20
687.64525159814855
10
77.356773349324342
20
687.64525159814855
0
LINE
5
351
100
AcDbEntity
8
0
100
AcDbLine
10
26.000491790578515
20
683.98657342283184
30
0
11
354.00049069134252
21
684.0134267067873
31
0
0
LINE
5
352
100
AcDbEntity
8
0
100
AcDbLine
10
353.99950825412475
20
696.01342666657138
30
0
11
25.99950935336075
21
695.98657338261592
31
0
0
LWPOLYLINE
5
353
100
AcDbEntity
8
0
100
AcDbPolyline
90
6
70
1
43
0.0
10
306.71354646851455
20
690.00474849128477
10
305.35677333591889
20
692.35474849128479
10
302.64322707072773
20
692.35474849128479
10
301.28645393813213
20
690.00474849128477
10
302.64322707072773
20
687.65474849128486
10
305.356773335919
20
687.65474849128486
0
ARC
5
354
100
AcDbEntity
8
0
100
AcDbCircle
10
353.99999947273363
20
690.01342668667928
30
0
40
5.9999999999999867
210
0
220
0
230
1
100
AcDbArc
50
-89.995309207810166
51
90.004691645963476
0
ARC
5
355
100
AcDbEntity
8
0
100
AcDbCircle
10
26.000000571969615
20
689.98657340272393
30
0
40
5.9999999999999867
210
0
220
0
230
1
100
AcDbArc
50
90.004690792189621
51
270.00469079218993
0
LWPOLYLINE
5
356
100
AcDbEntity
8
0
100
AcDbPolyline
90
6
70
1
43
0.0
10
78.713546481919977
20
704.99525159814857
10
77.356773349324342
20
707.34525159814848
10
74.64322708413313
20
707.34525159814848
10
73.286453951537496
20
704.99525159814857
10
74.64322708413313
20
702.64525159814855
10
77.356773349324342
20
702.64525159814855
0
LINE
5
357
100
AcDbEntity
8
0
100
AcDbLine
10
26.000491790578515
20
698.98657342283184
30
0
11
354.00049069134252
21
699.0134267067873
31
0
0
LINE
5
358
100
AcDbEntity
8
0
100
AcDbLine
10
353.99950825412475
20
711.01342666657138
30
0
11
25.99950935336075
21
710.98657338261592
31
0
0
LWPOLYLINE
5
359
100
AcDbEntity
8
0
100
AcDbPolyline
90
6
70
1
43
0.0
10
306.71354646851455
20
705.00474849128477
10
305.35677333591889
20
707.35474849128479
10
302.64322707072773
20
707.35474849128479
10
301.28645393813213
20
705.00474849128477
10
302.64322707072773
20
702.65474849128486
10
305.356773335919
20
702.65474849128486
0
ARC
5
360
100
AcDbEntity
8
0
100
AcDbCircle
10
353.99999947273363
20
705.01342668667928
30
0
40
5.9999999999999867
210
0
220
0
230
1
100
AcDbArc
50
-89.995309207810166
51
90.004691645963476
0
ARC
5
361
100
AcDbEntity
8
0
100
AcDbCircle
10
26.000000571969615
20
704.98657340272393
30
0
40
5.9999999999999867
210
0
220
0
230
1
100
AcDbArc
50
90.004690792189621
51
270.00469079218993
0
LWPOLYLINE
5
362
100
AcDbEntity
8
0
100
AcDbPolyline
90
6
70
1
43
0.0
10
78.713546481919977
20
719.99525159814857
10
77.356773349324342
20
722.34525159814848
10
74.64322708413313
20
722.34525159814848
10
73.286453951537496
20
719.99525159814857
10
74.64322708413313
20
717.64525159814855
10
77.356773349324342
20
717.64525159814855
0
LINE
5
363
100
AcDbEntity
8
0
100
AcDbLine
10
26.000491790578515
20
713.98657342283184
30
0
11
354.00049069134252
21
714.0134267067873
31
0
0
LINE
5
364
100
AcDbEntity
8
0
100
AcDbLine
10
353.99950825412475
20
726.01342666657138
30
0
11
25.99950935336075
21
725.98657338261592
31
0
0
LWPOLYLINE
5
365
100
AcDbEntity
8
0
100
AcDbPolyline
90
6
70
1
43
0.0
10
306.71354646851455
20
720.00474849128477
10
305.35677333591889
20
722.35474849128479
10
302.64322707072773
20
722.35474849128479
10
301.28645393813213
20
720.00474849128477
10
302.64322707072773
20
717.65474849128486
10
305.356773335919
20
717.65474849128486
0
ARC
5
366
100
AcDbEntity
8
0
100
AcDbCircle
10
353.99999947273363
20
720.01342668667928
30
0
40
5.9999999999999867
210
0
220
0
230
1
100
AcDbArc
50
-89.995309207810166
51
90.004691645963476
0
ARC
5
367
100
AcDbEntity
8
0
100
AcDbCircle
10
26.000000571969615
20
719.98657340272393
30
0
40
5.9999999999999867
210
0
220
0
230
1
100
AcDbArc
50
90.004690792189621
51
270.00469079218993
0
CIRCLE
5
368
100
AcDbEntity
8
0
100
AcDbCircle
10
304.00000020332345
20
735.00474849128477
30
0
40
1.6000000000000014
210
0
220
0
230
1
0
CIRCLE
5
369
100
AcDbEntity
8
0
100
AcDbCircle
10
76.000000216728765
20
734.99525159814857
30
0
40
1.6000000000000014
210
0
220
0
230
1
0
LINE
5
370
100
AcDbEntity
8
0
100
AcDbLine
10
353.99950825412475
20
741.01342666657138
30
0
11
25.99950935336075
21
740.98657338261592
31
0
0
LINE
5
371
100
AcDbEntity
8
0
100
AcDbLine
10
26.00049179057855
20
728.98657342283184
30
-2.2204460492503127e-15
11
354.00049069134263
21
729.0134267067873
31
-2.2204460492503127e-15
0
ARC
5
372
100
AcDbEntity
8
0
100
AcDbCircle
10
353.99999947273363
20
735.01342668667928
30
0
40
5.9999999999999867
210
3.0297900544674063e-20
220
-3.7007434030147855e-16
230
1
100
AcDbArc
50
-89.9953092078091
51
90.004689938417258
0
ARC
5
373
100
AcDbEntity
8
0
100
AcDbCircle
10
26.000000571969615
20
734.98657340272393
30
0
40
5.9999999999999867
210
0
220
0
230
1
100
AcDbArc
50
90.004690792189621
51
270.00469079219027
0
LWPOLYLINE
5
374
100
AcDbEntity
8
0
100
AcDbPolyline
90
8
70
1
43
0.0
10
754.37132882771164
20
388.382569216891
42
-0.41421356237321988
10
753.3713288277113
20
387.38256921689106
10
697.27132882771161
20
387.38256921689106
42
-0.4142135623730534
10
696.2713288277115
20
388.38256921689128
10
696.2713288277115
20
425.4325692168909
42
-0.41421356237309503
10
697.27132882771161
20
426.43256921689101
10
753.37132882771118
20
426.43256921689101
42
-0.41421356237319906
10
754.37132882771164
20
425.43256921689101
0
LWPOLYLINE
5
375
100
AcDbEntity
8
0
100
AcDbPolyline
90
8
70
1
43
0.0
10
406.7588288277114
20
330.23256921689108
10
691.45882882771161
20
330.23256921689102
42
0.41421356237313667
10
692.45882882771184
20
331.23256921689114
10
692.45882882771161
20
425.43256921689084
42
0.41421356237303258
10
691.45882882771161
20
426.43256921689107
10
406.75882882771134
20
426.43256921689112
42
0.41421356237321988
10
405.7588288277114
20
425.43256921689107
10
405.7588288277114
20
331.23256921689114
42
0.41421356237313667
0
LWPOLYLINE
5
376
100
AcDbEntity
8
0
100
AcDbPolyline
90
8
70
1
43
0.0
10
692.45882882771161
20
431.24506921689101
10
692.45882882771161
20
449.24506921689101
42
0.41421356237301177
10
691.45882882771161
20
450.24506921689095
10
616.30882882771152
20
450.24506921689112
42
0.4142135623730534
10
615.30882882771141
20
449.24506921689101
10
615.30882882771164
20
431.24506921689101
42
0.41421356237311585
10
616.30882882771164
20
430.24506921689112
10
691.45882882771161
20
430.24506921689112
42
0.41421356237301177
0
LWPOLYLINE
5
377
100
AcDbEntity
8
0
100
AcDbPolyline
90
6
70
1
43
0.0
10
588.23328361745894
20
457.84127355160393
10
586.87651669851789
20
455.49126996415964
10
588.23329604475873
20
453.14127355162043
10
590.94684230994039
20
453.14128072652522
10
592.30360922888133
20
455.49128431396929
10
590.94682988264071
20
457.84128072650873
0
LWPOLYLINE
5
378
100
AcDbEntity
8
0
100
AcDbPolyline
90
6
70
1
43
0.0
10
617.99893067723167
20
322.15850844159377
10
620.712476942423
20
322.15850843578181
10
622.06925008005169
20
324.50850843287583
10
620.7124769524894
20
326.8585084357818
10
617.99893068729807
20
326.8585084415937
10
616.64215754966915
20
324.50850844449968
0
LWPOLYLINE
5
379
100
AcDbEntity
8
0
100
AcDbPolyline
90
6
70
1
43
0.0
10
402.81176798225522
20
453.14051821081506
10
405.52531424744643
20
453.14051821081506
10
406.88208738004221
20
455.49051821081503
10
405.52531424744649
20
457.84051821081505
10
402.81176798225533
20
457.84051821081505
10
401.45499484965967
20
455.49051821081503
0
LWPOLYLINE
5
380
100
AcDbEntity
8
0
100
AcDbPolyline
90
6
70
1
43
0.0
10
757.42705348036361
20
326.85850780256879
10
754.71350766977764
20
326.85850780256879
10
753.35673476448483
20
324.50850819626856
10
754.71350766977764
20
322.15850858996839
10
757.42705348036384
20
322.15850858996839
10
758.78382638565654
20
324.50850819626856
0
LWPOLYLINE
5
381
100
AcDbEntity
8
0
100
AcDbPolyline
90
8
70
1
43
0.0
10
754.37132882771152
20
431.24506921689118
10
754.37132882771164
20
449.24506921689107
42
0.41421356237319906
10
753.37132882771152
20
450.24506921689124
10
697.27132882771161
20
450.24506921689095
42
0.4142135623730534
10
696.27132882771161
20
449.2450692168909
10
696.2713288277115
20
431.24506921689095
42
0.41421356237315748
10
697.27132882771161
20
430.24506921689118
10
753.37132882771152
20
430.24506921689095
42
0.4142135623730534
0
LWPOLYLINE
5
382
100
AcDbEntity
8
0
100
AcDbPolyline
90
8
70
1
43
0.0
10
605.73382882771159
20
450.24506921689101
42
-0.41421356237311585
10
606.73382882771159
20
449.24506921689107
10
606.73382882771159
20
431.24506921689101
42
-0.41421356237311585
10
605.73382882771159
20
430.24506921689112
10
530.58382882771161
20
430.24506921689101
42
-0.41421356237311585
10
529.5838288277115
20
431.24506921689095
10
529.5838288277115
20
449.24506921689095
42
-0.41421356237307422
10
530.58382882771161
20
450.24506921689118
0
LWPOLYLINE
5
383
100
AcDbEntity
8
0
100
AcDbPolyline
90
6
70
1
43
0.0
10
509.98432988292359
20
457.84117368977974
10
507.27078361774193
20
457.841166514875
10
505.91401669880088
20
455.49116292743065
10
507.27079604504161
20
453.14116651489138
10
509.98434231022338
20
453.14117368979623
10
511.34110922916426
20
455.49117727724047
0
LWPOLYLINE
5
384
100
AcDbEntity
8
0
100
AcDbPolyline
90
6
70
1
43
0.0
10
757.42948920288643
20
457.84150781690835
10
754.71594293769499
20
457.84150781690835
10
753.35916980509955
20
455.49150781690827
10
754.71594293769488
20
453.14150781690842
10
757.42948920288632
20
453.14150781690842
10
758.78626233548175
20
455.49150781690827
0
LWPOLYLINE
5
385
100
AcDbEntity
8
0
100
AcDbPolyline
90
6
70
1
43
0.0
10
405.42895331733092
20
322.15850858996839
10
406.78572644992641
20
324.50850858996836
10
405.42895331733092
20
326.85850858996838
10
402.71540705213965
20
326.85850858996838
10
401.3586339195441
20
324.50850858996836
10
402.71540705213965
20
322.15850858996839
0
LWPOLYLINE
5
386
100
AcDbEntity
8
0
100
AcDbPolyline
90
14
70
1
43
0.0
10
696.2713288277115
20
349.23256921689074
10
696.2713288277115
20
331.23256921689119
42
0.41421356237309503
10
697.27132882771161
20
330.23256921689108
10
753.37132882771141
20
330.23256921689108
42
0.41421356237321988
10
754.37132882771152
20
331.23256921689091
10
754.37132882771164
20
349.23256921689108
42
0.41421356237330315
10
753.3713288277113
20
350.23256921689097
10
735.32132882771134
20
350.23256921689097
10
735.32132882771157
20
368.28256921689081
42
0.41421356237299095
10
734.32132882771168
20
369.28256921689115
10
716.32132882771134
20
369.28256921689103
42
0.41421356237307422
10
715.32132882771157
20
368.28256921689103
10
715.32132882771134
20
350.23256921689097
10
697.27132882771161
20
350.23256921689108
42
0.4142135623730534
0
LWPOLYLINE
5
387
100
AcDbEntity
8
0
100
AcDbPolyline
90
6
70
1
43
0.0
10
669.1957581053905
20
457.84136585882209
10
667.83901669847273
20
455.49134754227885
10
669.19582155649891
20
453.14136585925036
10
671.90936782144308
20
453.14140249276505
10
673.26610922836051
20
455.49142080930835
10
671.90930437033421
20
457.84140249233678
0
LWPOLYLINE
5
388
100
AcDbEntity
8
0
100
AcDbPolyline
90
6
70
1
43
0.0
10
453.69268072565546
20
326.85850861447841
10
452.33590758802649
20
324.50850861738439
10
453.69268071558878
20
322.15850861447842
10
456.40622698078005
20
322.15850860866635
10
457.76300011840902
20
324.50850860576048
10
456.40622699084656
20
326.85850860866645
0
LWPOLYLINE
5
389
100
AcDbEntity
8
0
100
AcDbPolyline
90
8
70
1
43
0.0
10
443.85882882771148
20
449.24506921689095
10
443.85882882771159
20
431.24506921689095
42
0.41421356237311585
10
444.85882882771159
20
430.24506921689101
10
520.00882882771157
20
430.24506921689112
42
0.41421356237309503
10
521.00882882771157
20
431.24506921689101
10
521.00882882771157
20
449.24506921689101
42
0.41421356237309503
10
520.00882882771157
20
450.24506921689095
10
444.85882882771165
20
450.24506921689112
42
0.41421356237307422
0
LWPOLYLINE
5
390
100
AcDbEntity
8
0
100
AcDbPolyline
90
8
70
1
43
0.0
10
425.75882882771145
20
431.24506921689101
10
425.75882882771157
20
449.24506921689107
42
0.41421356237313667
10
424.75882882771151
20
450.24506921689112
10
406.75882882771157
20
450.24506921689118
42
0.41421356237307422
10
405.75882882771145
20
449.24506921689101
10
405.75882882771157
20
431.24506921689095
42
0.41421356237313667
10
406.75882882771162
20
430.24506921689101
10
424.75882882771151
20
430.24506921689112
42
0.41421356237309503
0
LWPOLYLINE
5
391
100
AcDbEntity
8
0
100
AcDbPolyline
90
16
70
1
43
0.0
10
684.95878058274855
20
465.49129252418288
42
-0.41421356237316997
10
687.45878719300561
20
462.99129913445654
10
687.45879615100466
20
457.24504768424549
42
0.41421356239230389
10
688.4587977099327
20
456.2450492431106
10
700.27129770986016
20
456.24506765796178
42
0.41421356235399026
10
701.27129615092997
20
457.24506921682439
10
701.27128719289828
20
462.99133962233623
42
-0.41421356237299511
10
703.77128058262383
20
465.49134623259243
10
756.19021339491553
20
465.49148086766434
42
-0.41421433681396314
10
766.19023983597856
20
455.49148086769424
10
766.19023878483688
20
324.50850818894196
42
-0.41421356300041468
10
756.19023876341885
20
314.50850818894196
10
403.82082271306797
20
314.50850894365504
42
-0.41418958284925778
10
393.82082276799963
20
324.50769024597821
10
393.81009929870049
20
455.48973043946546
42
-0.4142367672224655
10
403.81007282412384
20
465.49054913710734
0
LWPOLYLINE
5
392
100
AcDbEntity
8
0
100
AcDbPolyline
90
8
70
1
43
0.0
10
405.7588288277114
20
585.43256921689112
10
405.7588288277114
20
491.23256921689114
42
0.41421356237311585
10
406.75882882771134
20
490.23256921689108
10
691.45882882771161
20
490.23256921689102
42
0.41421356237313667
10
692.45882882771184
20
491.23256921689114
10
692.45882882771161
20
585.4325692168909
42
0.41421356237299095
10
691.45882882771173
20
586.43256921689112
10
406.75882882771134
20
586.43256921689112
42
0.41421356237321988
0
LWPOLYLINE
5
393
100
AcDbEntity
8
0
100
AcDbPolyline
90
8
70
1
43
0.0
10
616.30882882771152
20
590.24506921689112
42
-0.41421356237309503
10
615.30882882771164
20
591.24506921689101
10
615.30882882771141
20
609.24506921689101
42
-0.4142135623730534
10
616.30882882771152
20
610.24506921689112
10
691.45882882771161
20
610.2450692168909
42
-0.41421356237301177
10
692.45882882771161
20
609.24506921689101
10
692.45882882771161
20
591.24506921689112
42
-0.4142135623730534
10
691.45882882771161
20
590.24506921689112
0
LWPOLYLINE
5
394
100
AcDbEntity
8
0
100
AcDbPolyline
90
8
70
1
43
0.0
10
696.2713288277115
20
585.4325692168909
10
696.2713288277115
20
548.38256921689128
42
0.4142135623730534
10
697.27132882771161
20
547.38256921689106
10
753.3713288277113
20
547.38256921689106
42
0.41421356237321988
10
754.37132882771164
20
548.38256921689106
10
754.37132882771152
20
585.43256921689112
42
0.4142135623731783
10
753.3713288277113
20
586.43256921689101
10
697.27132882771161
20
586.43256921689101
42
0.41421356237309503
0
LWPOLYLINE
5
395
100
AcDbEntity
8
0
100
AcDbPolyline
90
6
70
1
43
0.0
10
505.91401669880088
20
615.49116292743065
10
507.27079604504161
20
613.14116651489132
10
509.98434231022338
20
613.14117368979623
10
511.34110922916426
20
615.49117727724047
10
509.98432988292359
20
617.84117368977968
10
507.27078361774193
20
617.841166514875
0
LWPOLYLINE
5
396
100
AcDbEntity
8
0
100
AcDbPolyline
90
6
70
1
43
0.0
10
753.35673476448483
20
484.50850819626856
10
754.71350766977764
20
482.15850858996839
10
757.42705348036384
20
482.15850858996839
10
758.78382638565654
20
484.50850819626856
10
757.42705348036361
20
486.85850780256879
10
754.71350766977764
20
486.85850780256879
0
LWPOLYLINE
5
397
100
AcDbEntity
8
0
100
AcDbPolyline
90
6
70
1
43
0.0
10
592.30360922888133
20
615.49128431396935
10
590.94682988264071
20
617.84128072650878
10
588.23328361745894
20
617.84127355160399
10
586.87651669851789
20
615.49126996415964
10
588.23329604475873
20
613.14127355162043
10
590.94684230994039
20
613.14128072652522
0
LWPOLYLINE
5
398
100
AcDbEntity
8
0
100
AcDbPolyline
90
6
70
1
43
0.0
10
754.71594293769488
20
613.14150781690842
10
757.42948920288632
20
613.14150781690842
10
758.78626233548175
20
615.49150781690832
10
757.42948920288643
20
617.84150781690835
10
754.71594293769499
20
617.84150781690835
10
753.35916980509955
20
615.49150781690832
0
LWPOLYLINE
5
399
100
AcDbEntity
8
0
100
AcDbPolyline
90
8
70
1
43
0.0
10
697.27132882771161
20
590.24506921689124
42
-0.4142135623731783
10
696.2713288277115
20
591.24506921689101
10
696.27132882771161
20
609.2450692168909
42
-0.4142135623730534
10
697.27132882771161
20
610.2450692168909
10
753.37132882771152
20
610.24506921689124
42
-0.41421356237319906
10
754.37132882771164
20
609.24506921689112
10
754.37132882771164
20
591.24506921689112
42
-0.4142135623730534
10
753.37132882771152
20
590.2450692168909
0
LWPOLYLINE
5
400
100
AcDbEntity
8
0
100
AcDbPolyline
90
6
70
1
43
0.0
10
617.99893068729807
20
486.8585084415937
10
616.64215754966915
20
484.50850844449968
10
617.99893067723167
20
482.15850844159377
10
620.712476942423
20
482.15850843578181
10
622.06925008005169
20
484.50850843287583
10
620.7124769524894
20
486.8585084357818
0
LWPOLYLINE
5
401
100
AcDbEntity
8
0
100
AcDbPolyline
90
8
70
1
43
0.0
10
529.5838288277115
20
609.2450692168909
10
529.5838288277115
20
591.24506921689101
42
0.41421356237311585
10
530.58382882771161
20
590.24506921689101
10
605.73382882771159
20
590.24506921689112
42
0.41421356237311585
10
606.73382882771159
20
591.24506921689101
10
606.73382882771159
20
609.24506921689101
42
0.41421356237313667
10
605.73382882771159
20
610.24506921689112
10
530.58382882771161
20
610.24506921689112
42
0.41421356237307422
0
LWPOLYLINE
5
402
100
AcDbEntity
8
0
100
AcDbPolyline
90
6
70
1
43
0.0
10
452.33590758802649
20
484.50850861738439
10
453.69268071558878
20
482.15850861447842
10
456.40622698078005
20
482.15850860866635
10
457.76300011840902
20
484.50850860576048
10
456.40622699084656
20
486.85850860866645
10
453.69268072565546
20
486.85850861447841
0
LWPOLYLINE
5
403
100
AcDbEntity
8
0
100
AcDbPolyline
90
6
70
1
43
0.0
10
673.26610922836051
20
615.49142080930835
10
671.90930437033421
20
617.84140249233678
10
669.1957581053905
20
617.84136585882209
10
667.83901669847251
20
615.49134754227885
10
669.19582155649891
20
613.1413658592503
10
671.90936782144308
20
613.14140249276511
0
LWPOLYLINE
5
404
100
AcDbEntity
8
0
100
AcDbPolyline
90
8
70
1
43
0.0
10
521.00882882771157
20
591.24506921689101
10
521.00882882771157
20
609.24506921689101
42
0.41421356237309503
10
520.00882882771157
20
610.2450692168909
10
444.85882882771165
20
610.24506921689112
42
0.41421356237307422
10
443.85882882771159
20
609.2450692168909
10
443.85882882771159
20
591.24506921689101
42
0.41421356237311585
10
444.85882882771159
20
590.24506921689101
10
520.00882882771157
20
590.24506921689112
42
0.41421356237309503
0
LWPOLYLINE
5
405
100
AcDbEntity
8
0
100
AcDbPolyline
90
14
70
1
43
0.0
10
753.37132882771141
20
510.23256921689102
42
-0.41421356237321988
10
754.37132882771164
20
509.23256921689125
10
754.37132882771164
20
491.23256921689091
42
-0.41421356237321988
10
753.37132882771141
20
490.23256921689108
10
697.27132882771161
20
490.23256921689108
42
-0.41421356237309503
10
696.2713288277115
20
491.23256921689119
10
696.27132882771139
20
509.23256921689074
42
-0.41421356237301177
10
697.27132882771139
20
510.23256921689108
10
715.32132882771157
20
510.23256921689097
10
715.32132882771157
20
528.28256921689115
42
-0.4142135623730534
10
716.32132882771134
20
529.28256921689103
10
734.32132882771157
20
529.28256921689115
42
-0.41421356237299095
10
735.32132882771157
20
528.28256921689081
10
735.32132882771157
20
510.23256921689097
0
LWPOLYLINE
5
406
100
AcDbEntity
8
0
100
AcDbPolyline
90
6
70
1
43
0.0
10
406.88208738004215
20
615.49051821081503
10
405.52531424744643
20
617.84051821081505
10
402.81176798225533
20
617.84051821081505
10
401.45499484965961
20
615.49051821081503
10
402.81176798225522
20
613.14051821081512
10
405.52531424744643
20
613.14051821081512
0
LWPOLYLINE
5
407
100
AcDbEntity
8
0
100
AcDbPolyline
90
8
70
1
43
0.0
10
425.75882882771145
20
591.24506921689101
42
-0.41421356237309503
10
424.75882882771151
20
590.24506921689112
10
406.75882882771162
20
590.24506921689101
42
-0.41421356237313667
10
405.75882882771157
20
591.24506921689101
10
405.75882882771145
20
609.24506921689101
42
-0.41421356237307422
10
406.75882882771157
20
610.24506921689112
10
424.75882882771151
20
610.24506921689112
42
-0.41421356237311585
10
425.75882882771157
20
609.24506921689112
0
LWPOLYLINE
5
408
100
AcDbEntity
8
0
100
AcDbPolyline
90
6
70
1
43
0.0
10
401.3586339195441
20
484.50850858996836
10
402.71540705213965
20
482.15850858996839
10
405.42895331733092
20
482.15850858996839
10
406.78572644992641
20
484.50850858996836
10
405.42895331733092
20
486.85850858996838
10
402.71540705213965
20
486.85850858996838
0
LWPOLYLINE
5
409
100
AcDbEntity
8
0
100
AcDbPolyline
90
16
70
1
43
0.0
10
766.19023983597856
20
615.49148086769424
10
766.19023878483688
20
484.50850818894196
42
-0.41421356300041468
10
756.19023876341885
20
474.50850818894196
10
403.82082271306797
20
474.50850894365499
42
-0.41418958284925778
10
393.82082276799963
20
484.50769024597821
10
393.81009929870049
20
615.48973043946546
42
-0.41423676722246133
10
403.81007282412372
20
625.49054913710734
10
684.95878058274855
20
625.49129252418288
42
-0.41421356237318663
10
687.45878719300561
20
622.99129913445654
10
687.45879615100466
20
617.24504768424572
42
0.41421356239234552
10
688.4587977099327
20
616.24504924311066
10
700.27129770986039
20
616.24506765796173
42
0.41421356235392781
10
701.27129615092997
20
617.24506921682428
10
701.27128719289828
20
622.99133962233623
42
-0.41421356237300344
10
703.77128058262383
20
625.49134623259238
10
756.19021339491553
20
625.49148086766434
42
-0.41421433681396314
0
LWPOLYLINE
5
410
100
AcDbEntity
8
0
100
AcDbPolyline
90
6
70
1
43
0.0
10
667.83898278835613
20
768.49134863661448
10
669.19578764638277
20
766.14136695358593
10
671.90933391132671
20
766.14140358710074
10
673.26607531824425
20
768.4914219036441
10
671.90927046021773
20
770.84140358667241
10
669.1957241952739
20
770.8413669531576
0
LWPOLYLINE
5
411
100
AcDbEntity
8
0
100
AcDbPolyline
90
8
70
1
43
0.0
10
697.27129491759513
20
700.3825703112268
10
753.37129491759492
20
700.3825703112268
42
0.41421356237313667
10
754.37129491759538
20
701.38257031122703
10
754.37129491759515
20
738.4325703112263
42
0.41421356237301177
10
753.37129491759526
20
739.43257031122653
10
697.27129491759547
20
739.43257031122675
42
0.41421356237313667
10
696.27129491759524
20
738.43257031122664
10
696.27129491759536
20
701.38257031122657
42
0.41421356237309503
0
LWPOLYLINE
5
412
100
AcDbEntity
8
0
100
AcDbPolyline
90
14
70
1
43
0.0
10
734.32129491759508
20
682.28257031122678
10
716.3212949175952
20
682.28257031122678
42
0.4142135623731783
10
715.32129491759497
20
681.28257031122689
10
715.32129491759508
20
663.23257031122682
10
697.27129491759547
20
663.23257031122694
42
0.4142135623731783
10
696.27129491759524
20
662.23257031122694
10
696.2712949175949
20
644.23257031122716
42
0.41421356237309503
10
697.27129491759513
20
643.23257031122694
10
753.37129491759492
20
643.23257031122682
42
0.4142135623731783
10
754.37129491759515
20
644.23257031122671
10
754.37129491759538
20
662.23257031122682
42
0.4142135623730534
10
753.37129491759492
20
663.23257031122705
10
735.32129491759497
20
663.23257031122682
10
735.32129491759497
20
681.28257031122689
42
0.4142135623730534
0
LWPOLYLINE
5
413
100
AcDbEntity
8
0
100
AcDbPolyline
90
6
70
1
43
0.0
10
509.98429597280733
20
770.84117478411554
10
507.27074970762555
20
770.84116760921063
10
505.91398278868451
20
768.49116402176628
10
507.27076213492518
20
766.14116760922695
10
509.98430840010707
20
766.14117478413175
10
511.34107531904812
20
768.4911783715761
0
LWPOLYLINE
5
414
100
AcDbEntity
8
0
100
AcDbPolyline
90
8
70
1
43
0.0
10
616.30879491759504
20
743.24507031122675
10
691.45879491759501
20
743.24507031122675
42
0.41421356237309503
10
692.45879491759513
20
744.24507031122687
10
692.45879491759513
20
762.24507031122675
42
0.41421356237309503
10
691.45879491759501
20
763.24507031122664
10
616.30879491759504
20
763.24507031122698
42
0.41421356237307422
10
615.30879491759504
20
762.24507031122675
10
615.30879491759515
20
744.24507031122675
42
0.41421356237307422
0
LWPOLYLINE
5
415
100
AcDbEntity
8
0
100
AcDbPolyline
90
6
70
1
43
0.0
10
753.35913589498318
20
768.49150891124384
10
754.71590902757885
20
766.14150891124382
10
757.42945529276994
20
766.14150891124382
10
758.78622842536572
20
768.49150891124407
10
757.42945529276994
20
770.84150891124409
10
754.71590902757885
20
770.84150891124409
0
LWPOLYLINE
5
416
100
AcDbEntity
8
0
100
AcDbPolyline
90
6
70
1
43
0.0
10
402.71537314202334
20
639.85850968430407
10
401.35860000942773
20
637.50850968430404
10
402.71537314202334
20
635.15850968430402
10
405.42891940721461
20
635.15850968430402
10
406.7856925398101
20
637.50850968430404
10
405.42891940721461
20
639.85850968430407
0
LWPOLYLINE
5
417
100
AcDbEntity
8
0
100
AcDbPolyline
90
6
70
1
43
0.0
10
620.71244303230662
20
635.15850953011761
10
622.06921616993532
20
637.50850952721157
10
620.71244304237302
20
639.85850953011754
10
617.99889677718181
20
639.85850953592944
10
616.64212363955289
20
637.50850953883548
10
617.99889676711507
20
635.1585095359294
0
LWPOLYLINE
5
418
100
AcDbEntity
8
0
100
AcDbPolyline
90
6
70
1
43
0.0
10
402.81173407213896
20
770.84051930515091
10
401.45496093954353
20
768.49051930515088
10
402.81173407213896
20
766.14051930515086
10
405.52528033733029
20
766.14051930515086
10
406.88205346992589
20
768.49051930515088
10
405.52528033733029
20
770.84051930515079
0
LWPOLYLINE
5
419
100
AcDbEntity
8
0
100
AcDbPolyline
90
6
70
1
43
0.0
10
456.40619308073036
20
639.85850970300203
10
453.69264681553915
20
639.85850970881404
10
452.33587367791023
20
637.50850971171997
10
453.69264680547241
20
635.15850970881399
10
456.40619307066373
20
635.1585097030021
10
457.76296620829271
20
637.50850970009628
0
LWPOLYLINE
5
420
100
AcDbEntity
8
0
100
AcDbPolyline
90
8
70
1
43
0.0
10
696.27129491759524
20
762.24507031122675
10
696.27129491759536
20
744.24507031122675
42
0.4142135623731783
10
697.27129491759524
20
743.2450703112271
10
753.37129491759526
20
743.24507031122698
42
0.41421356237301177
10
754.37129491759515
20
744.24507031122721
10
754.37129491759538
20
762.24507031122675
42
0.41421356237288692
10
753.37129491759526
20
763.24507031122698
10
697.27129491759547
20
763.24507031122664
42
0.41421356237321988
0
LWPOLYLINE
5
421
100
AcDbEntity
8
0
100
AcDbPolyline
90
8
70
1
43
0.0
10
444.85879491759511
20
743.24507031122664
10
520.00879491759508
20
743.24507031122698
42
0.41421356237309503
10
521.00879491759497
20
744.24507031122675
10
521.00879491759508
20
762.24507031122675
42
0.41421356237313667
10
520.00879491759508
20
763.24507031122664
10
444.85879491759511
20
763.24507031122698
42
0.41421356237307422
10
443.85879491759505
20
762.24507031122675
10
443.85879491759511
20
744.24507031122675
42
0.41421356237311585
0
LWPOLYLINE
5
422
100
AcDbEntity
8
0
100
AcDbPolyline
90
8
70
1
43
0.0
10
529.58379491759501
20
762.24507031122675
10
529.58379491759513
20
744.24507031122675
42
0.4142135623731783
10
530.58379491759513
20
743.24507031122675
10
605.73379491759511
20
743.24507031122698
42
0.41421356237311585
10
606.73379491759511
20
744.24507031122675
10
606.73379491759511
20
762.24507031122687
42
0.41421356237313667
10
605.73379491759511
20
763.24507031122664
10
530.58379491759513
20
763.24507031122698
42
0.41421356237307422
0
LWPOLYLINE
5
423
100
AcDbEntity
8
0
100
AcDbPolyline
90
8
70
1
43
0.0
10
424.75879491759514
20
763.24507031122664
10
406.75879491759508
20
763.24507031122675
42
0.41421356237307422
10
405.75879491759497
20
762.24507031122675
10
405.75879491759508
20
744.24507031122675
42
0.41421356237311585
10
406.75879491759508
20
743.24507031122675
10
424.75879491759497
20
743.24507031122675
42
0.41421356237309503
10
425.75879491759486
20
744.24507031122675
10
425.75879491759508
20
762.24507031122675
42
0.41421356237309503
0
LWPOLYLINE
5
424
100
AcDbEntity
8
0
100
AcDbPolyline
90
8
70
1
43
0.0
10
405.75879491759508
20
738.43257031122698
10
405.75879491759531
20
644.23257031122671
42
0.41421356237309503
10
406.75879491759508
20
643.23257031122694
10
691.45879491759524
20
643.23257031122671
42
0.41421356237292856
10
692.45879491759501
20
644.23257031122694
10
692.45879491759513
20
738.43257031122664
42
0.41421356237309503
10
691.45879491759501
20
739.43257031122675
10
406.75879491759508
20
739.43257031122687
42
0.41421356237315748
0
LWPOLYLINE
5
425
100
AcDbEntity
8
0
100
AcDbPolyline
90
6
70
1
43
0.0
10
757.42701957024735
20
635.15850968430402
10
758.78379247554017
20
637.50850929060425
10
757.42701957024735
20
639.8585088969046
10
754.71347375966138
20
639.8585088969046
10
753.35670085436846
20
637.50850929060425
10
754.71347375966138
20
635.15850968430402
0
LWPOLYLINE
5
426
100
AcDbEntity
8
0
100
AcDbPolyline
90
6
70
1
43
0.0
10
590.94679597252434
20
770.8412818208443
10
588.23324970734257
20
770.84127464593962
10
586.87648278840152
20
768.49127105849539
10
588.23326213464225
20
766.14127464595595
10
590.94680839982391
20
766.14128182086074
10
592.30357531876518
20
768.49128540830509
0
LWPOLYLINE
5
427
100
AcDbEntity
8
0
100
AcDbPolyline
90
8
70
1
43
0.0
10
403.82078880723526
20
629.50851003799062
42
-0.41418958284925933
10
395.82078885118045
20
637.50785507984915
10
395.8100653818812
20
768.4898952733364
42
-0.41423676804663934
10
403.81004422473075
20
776.49055023145002
10
756.19018477301097
20
776.49148196200713
42
-0.4142143368139673
10
764.19020592586264
20
768.49148196202987
10
764.19020487472096
20
637.5085092832777
42
-0.41421356300041051
10
756.19020485758654
20
629.5085092832777
0
CIRCLE
5
428
100
AcDbEntity
8
0
100
AcDbCircle
10
455.04938603298518
20
789.50851080024404
30
-1.2878587085651813e-13
40
1.5999999999999659
210
0
220
0
230
1
0
LWPOLYLINE
5
429
100
AcDbEntity
8
0
100
AcDbPolyline
90
8
70
1
43
0.0
10
691.45876100747819
20
915.24507140556238
42
-0.41421356237301177
10
692.45876100747807
20
914.24507140556216
10
692.45876100747807
20
896.2450714055625
42
-0.41421356237292856
10
691.45876100747819
20
895.2450714055625
10
616.3087610074781
20
895.2450714055625
42
-0.41421356237301177
10
615.30876100747821
20
896.2450714055625
10
615.3087610074781
20
914.24507140556238
42
-0.41421356237307422
10
616.3087610074781
20
915.2450714055625
0
LWPOLYLINE
5
430
100
AcDbEntity
8
0
100
AcDbPolyline
90
8
70
1
43
0.0
10
697.27126100747842
20
895.24507140556238
42
-0.4142135623730534
10
696.2712610074783
20
896.24507140556261
10
696.27126100747842
20
914.24507140556273
42
-0.4142135623731783
10
697.27126100747842
20
915.24507140556238
10
753.37126100747832
20
915.24507140556284
42
-0.41421356237309503
10
754.37126100747844
20
914.24507140556273
10
754.37126100747844
20
896.24507140556261
42
-0.4142135623730534
10
753.37126100747832
20
895.24507140556238
0
CIRCLE
5
431
100
AcDbEntity
8
0
100
AcDbCircle
10
756.07021275483817
20
789.50851038494022
30
-1.3322676295501876e-13
40
1.5999999999999659
210
0
220
0
230
1
0
CIRCLE
5
432
100
AcDbEntity
8
0
100
AcDbCircle
10
404.16847329461825
20
920.49052039948697
30
-1.2878587085651813e-13
40
1.5999999999999659
210
0
220
0
230
1
0
LWPOLYLINE
5
433
100
AcDbEntity
8
0
100
AcDbPolyline
90
14
70
1
43
0.0
10
715.32126100747814
20
833.28257140556263
10
715.32126100747803
20
815.23257140556268
10
697.27126100747842
20
815.23257140556279
42
0.41421356237297013
10
696.27126100747842
20
814.23257140556245
10
696.2712610074783
20
796.23257140556245
42
0.41421356237334478
10
697.27126100747842
20
795.23257140556268
10
753.37126100747832
20
795.23257140556268
42
0.41421356237301177
10
754.37126100747844
20
796.23257140556245
10
754.37126100747844
20
814.23257140556279
42
0.41421356237326151
10
753.37126100747832
20
815.23257140556268
10
735.32126100747803
20
815.23257140556268
10
735.32126100747803
20
833.28257140556286
42
0.4142135623731783
10
734.32126100747814
20
834.28257140556252
10
716.32126100747837
20
834.28257140556241
42
0.41421356237288692
0
LWPOLYLINE
5
434
100
AcDbEntity
8
0
100
AcDbPolyline
90
8
70
1
43
0.0
10
405.75876100747803
20
914.24507140556238
42
-0.41421356237307422
10
406.75876100747809
20
915.2450714055625
10
424.75876100747814
20
915.24507140556261
42
-0.41421356237309503
10
425.75876100747814
20
914.24507140556261
10
425.75876100747803
20
896.24507140556261
42
-0.4142135623730534
10
424.75876100747814
20
895.2450714055625
10
406.75876100747814
20
895.24507140556261
42
-0.4142135623730534
10
405.75876100747803
20
896.2450714055625
0
CIRCLE
5
435
100
AcDbEntity
8
0
100
AcDbCircle
10
756.07264825005814
20
920.49151000558004
30
-1.2878587085651813e-13
40
1.5999999999999659
210
0
220
0
230
1
0
CIRCLE
5
436
100
AcDbEntity
8
0
100
AcDbCircle
10
670.55249514318393
20
920.49138636446537
30
-1.2878587085651813e-13
40
1.5999999999999659
210
0
220
0
230
1
0
CIRCLE
5
437
100
AcDbEntity
8
0
100
AcDbCircle
10
508.62749514375002
20
920.49117229100739
30
-1.2878587085651813e-13
40
1.5999999999999659
210
0
220
0
230
1
0
CIRCLE
5
438
100
AcDbEntity
8
0
100
AcDbCircle
10
404.0721123645028
20
789.50851077864013
30
-1.2878587085651813e-13
40
1.6000000000000369
210
0
220
0
230
1
0
CIRCLE
5
439
100
AcDbEntity
8
0
100
AcDbCircle
10
589.58999514346715
20
920.49127932773627
30
-1.2878587085651813e-13
40
1.6000000000000369
210
0
220
0
230
1
0
CIRCLE
5
440
100
AcDbEntity
8
0
100
AcDbCircle
10
619.35563599462785
20
789.50851062735956
30
-1.2878587085651813e-13
40
1.5999999999999659
210
0
220
0
230
1
0
LWPOLYLINE
5
441
100
AcDbEntity
8
0
100
AcDbPolyline
90
8
70
1
43
0.0
10
406.75876100747814
20
795.23257140556279
10
691.45876100747842
20
795.23257140556268
42
0.4142135623730534
10
692.45876100747842
20
796.23257140556245
10
692.45876100747842
20
890.43257140556261
42
0.4142135623730534
10
691.45876100747842
20
891.43257140556273
10
406.7587610074782
20
891.43257140556238
42
0.4142135623732407
10
405.75876100747791
20
890.43257140556261
10
405.75876100747803
20
796.23257140556257
42
0.4142135623731783
0
LWPOLYLINE
5
442
100
AcDbEntity
8
0
100
AcDbPolyline
90
8
70
1
43
0.0
10
696.2712610074783
20
890.43257140556216
42
-0.4142135623730534
10
697.27126100747842
20
891.43257140556238
10
753.37126100747832
20
891.43257140556273
42
-0.41421356237313667
10
754.37126100747844
20
890.43257140556284
10
754.37126100747844
20
853.38257140556266
42
-0.41421356237309503
10
753.37126100747832
20
852.38257140556254
10
697.27126100747842
20
852.38257140556254
42
-0.41421356237313667
10
696.2712610074783
20
853.38257140556254
0
LWPOLYLINE
5
443
100
AcDbEntity
8
0
100
AcDbPolyline
90
8
70
1
43
0.0
10
444.85876100747817
20
895.24507140556261
42
-0.41421356237309503
10
443.85876100747817
20
896.24507140556261
10
443.85876100747817
20
914.24507140556238
42
-0.41421356237307422
10
444.85876100747817
20
915.2450714055625
10
520.00876100747814
20
915.24507140556238
42
-0.4142135623730534
10
521.00876100747814
20
914.24507140556227
10
521.00876100747814
20
896.24507140556261
42
-0.4142135623730534
10
520.00876100747814
20
895.2450714055625
0
LWPOLYLINE
5
444
100
AcDbEntity
8
0
100
AcDbPolyline
90
8
70
1
43
0.0
10
606.73376100747817
20
896.24507140556261
42
-0.41421356237307422
10
605.73376100747817
20
895.2450714055625
10
530.58376100747819
20
895.24507140556261
42
-0.41421356237311585
10
529.58376100747819
20
896.24507140556261
10
529.58376100747819
20
914.24507140556238
42
-0.41421356237307422
10
530.58376100747819
20
915.2450714055625
10
605.73376100747817
20
915.24507140556261
42
-0.41421356237309503
10
606.73376100747817
20
914.24507140556261
0
LWPOLYLINE
5
445
100
AcDbEntity
8
0
100
AcDbPolyline
90
8
70
1
43
0.0
10
762.19017096460402
20
789.50851037761367
42
-0.41421356300043827
10
756.19017095175286
20
783.50851037761367
10
403.82075490140187
20
783.50851113232682
42
-0.41418958284911978
10
397.82075493436082
20
789.50801991371782
10
397.81003146506168
20
920.49006010720768
42
-0.4142367694202555
10
403.81001562533726
20
926.49055132579304
10
756.19015615110538
20
926.49148305635003
42
-0.41421433681397429
10
762.19017201574559
20
920.49148305636595
0
ENDSEC
0
SECTION
2
OBJECTS
0
DICTIONARY
5
C
100
AcDbDictionary
3
ACAD_GROUP
350
D
3
ACAD_MLINESTYLE
350
17
0
DICTIONARY
5
D
100
AcDbDictionary
0
DICTIONARY
5
1A
330
C
100
AcDbDictionary
0
DICTIONARY
5
17
100
AcDbDictionary
0
ENDSEC
0
EOF
