0
SECTION
2
HEADER
9
$INSUNITS
70
4
9
$ACADVER
1
AC1014
9
$HANDSEED
5
FFFF
0
ENDSEC
0
SECTION
2
TABLES
0
TABLE
2
VPORT
5
8
100
AcDbSymbolTable
0
ENDTAB
0
TABLE
2
LTYPE
5
5
100
AcDbSymbolTable
0
LTYPE
5
14
100
AcDbSymbolTableRecord
100
AcDbLinetypeTableRecord
2
BYBLOCK
70
0
0
LTYPE
5
15
100
AcDbSymbolTableRecord
100
AcDbLinetypeTableRecord
2
BYLAYER
70
0
0
ENDTAB
0
TABLE
2
LAYER
5
2
100
AcDbSymbolTable
70
2
0
LAYER
5
50
100
AcDbSymbolTableRecord
100
AcDbLayerTableRecord
2
0
70
0
6
CONTINUOUS
0
ENDTAB
0
TABLE
2
STYLE
5
3
100
AcDbSymbolTable
70
1
0
STYLE
5
11
100
AcDbSymbolTableRecord
100
AcDbTextStyleTableRecord
2
STANDARD
70
0
0
ENDTAB
0
TABLE
2
VIEW
5
6
100
AcDbSymbolTable
70
0
0
ENDTAB
0
TABLE
2
UCS
5
7
100
AcDbSymbolTable
70
0
0
ENDTAB
0
TABLE
2
APPID
5
9
100
AcDbSymbolTable
70
2
0
APPID
5
12
100
AcDbSymbolTableRecord
100
AcDbRegAppTableRecord
2
ACAD
70
0
0
ENDTAB
0
TABLE
2
DIMSTYLE
5
A
100
AcDbSymbolTable
70
1
0
ENDTAB
0
TABLE
2
BLOCK_RECORD
5
1
100
AcDbSymbolTable
70
1
0
BLOCK_RECORD
5
1F
100
AcDbSymbolTableRecord
100
AcDbBlockTableRecord
2
*MODEL_SPACE
0
BLOCK_RECORD
5
1B
100
AcDbSymbolTableRecord
100
AcDbBlockTableRecord
2
*PAPER_SPACE
0
ENDTAB
0
ENDSEC
0
SECTION
2
BLOCKS
0
BLOCK
5
20
100
AcDbEntity
100
AcDbBlockBegin
2
*MODEL_SPACE
0
ENDBLK
5
21
100
AcDbEntity
100
AcDbBlockEnd
0
BLOCK
5
1C
100
AcDbEntity
100
AcDbBlockBegin
2
*PAPER_SPACE
0
ENDBLK
5
1D
100
AcDbEntity
100
AcDbBlockEnd
0
ENDSEC
0
SECTION
2
ENTITIES
0
LWPOLYLINE
5
100
100
AcDbEntity
8
0
100
AcDbPolyline
90
6
70
1
43
0.0
10
364.7159090275785
20
462.84150891626183
10
363.3591358949829
20
460.49150891626186
10
364.7159090275785
20
458.14150891626184
10
367.42945529276989
20
458.14150891626184
10
368.78622842536544
20
460.49150891626186
10
367.42945529276989
20
462.84150891626189
0
LINE
5
101
100
AcDbEntity
8
0
100
AcDbLine
10
353.99950825412475
20
711.01342666657138
30
0
11
25.99950935336075
21
710.98657338261592
31
0
0
CIRCLE
5
102
100
AcDbEntity
8
0
100
AcDbCircle
10
304.00063763898191
20
460.50076456847961
30
0
40
3.0000000000000071
210
0
220
0
230
1
0
LWPOLYLINE
5
103
100
AcDbEntity
8
0
100
AcDbPolyline
90
6
70
1
43
0.0
10
281.90927046021773
20
462.84140359169032
10
279.19572419527378
20
462.84136695817557
10
277.83898278835613
20
460.49134864163238
10
279.19578764638254
20
458.14136695860384
10
281.90933391132654
20
458.14140359211865
10
283.26607531824408
20
460.49142190866183
0
LINE
5
104
100
AcDbEntity
8
0
100
AcDbLine
10
22.168556962925727
20
299.49050748959996
30
0
11
296.45860920427617
21
299.49132931610137
31
0
0
LINE
5
105
100
AcDbEntity
8
0
100
AcDbLine
10
22.168556979546103
20
139.49050749587329
30
0
11
296.45860922089651
21
139.49132932237464
31
0
0
LINE
5
106
100
AcDbEntity
8
0
100
AcDbLine
10
366.19015615110686
20
616.49148306011409
30
0
11
13.810015625338536
21
616.49055132955698
31
0
0
CIRCLE
5
107
100
AcDbEntity
8
0
100
AcDbCircle
10
366.07264825005871
20
610.49151000934398
30
-2.6645352591003757e-14
40
1.6000000000000369
210
0
220
0
230
1
0
LINE
5
108
100
AcDbEntity
8
0
100
AcDbLine
10
26.000491806941248
20
638.9865734555558
30
0
11
354.00049070770541
21
639.01342673951126
31
0
0
LWPOLYLINE
5
109
100
AcDbEntity
8
0
100
AcDbPolyline
90
35
70
1
43
0.0
10
358.07269802479595
20
454.49151502338651
10
22.168523069428581
20
454.49050858895475
42
0.42610086779759387
10
17.321607722767755
20
449.64464984624556
10
17.321607547098381
20
340.26087529947091
42
0.41421356237207452
10
22.072146287469714
20
335.50850931903892
10
66.607596162047869
20
335.50850757147884
10
92.203550898191224
20
335.50750441748954
42
-0.19876286357891634
10
93.838752856122767
20
334.83011113824153
10
94.018771425357897
20
334.6500923579967
42
0.19880819619459894
10
96.717515286677283
20
333.53150567059743
10
102.4024252680524
20
333.5315056787519
42
0.19903114089908261
10
105.10442266457092
20
334.65007526249366
10
105.2844427813782
20
334.83009558433059
42
-0.19891452733158255
10
106.92101809116657
20
335.50750445775378
10
192.27940395692033
20
335.50750446154109
42
-0.19877981723308172
10
193.91475688440158
20
334.8301111382778
10
194.09494422022499
20
334.64992359223845
42
0.19901654261824459
10
196.79678994647927
20
333.53150567875286
10
197.68442294869388
20
333.5315056787519
42
0.1990311408961403
10
200.38642034518745
20
334.65007526245006
10
200.56642491254874
20
334.83008002972008
42
-0.19891452737857149
10
202.20302306857417
20
335.50750445401326
10
211.29736534432465
20
335.50750445401309
42
-0.19891020734152187
10
212.93359357113042
20
334.82927981234013
10
213.11279892674347
20
334.65007425685417
42
0.19885173094431227
10
215.81215723747698
20
333.53150612063939
10
216.7024283198387
20
333.5315056787519
42
0.19901654259221546
10
219.40427404581789
20
334.6499235919805
10
219.58364038268587
20
334.82929013906698
42
-0.19821616763306724
10
221.21363351827557
20
335.50749460564941
10
224.96119069740061
20
335.51350479603263
10
329.01457527849203
20
335.50850757147816
10
358.07024667780524
20
335.50850931982643
42
0.41421356238072499
10
362.82260734833983
20
340.25904685086448
10
362.8226071784469
20
449.74160586921363
42
0.4142325715198415
0
LINE
5
110
100
AcDbEntity
8
0
100
AcDbLine
10
294.95859961443568
20
155.49129252997639
30
0
11
13.810072824124708
21
155.49054914337947
31
0
0
LINE
5
111
100
AcDbEntity
8
0
100
AcDbLine
10
192.27943786703781
20
20.507503368459695
30
0
11
106.92105200128407
21
20.507503364672388
31
0
0
LINE
5
112
100
AcDbEntity
8
0
100
AcDbLine
10
353.99950825412475
20
666.01342666657138
30
0
11
25.99950935336075
21
665.98657338261592
31
0
0
LINE
5
113
100
AcDbEntity
8
0
100
AcDbLine
10
353.9995084253448
20
636.01342669930796
30
0
11
25.999509369723484
21
635.98657341533988
31
0
0
LINE
5
114
100
AcDbEntity
8
0
100
AcDbLine
10
353.99950825412475
20
741.01342666657138
30
0
11
25.99950935336075
21
740.98657338261592
31
0
0
LINE
5
115
100
AcDbEntity
8
0
100
AcDbLine
10
294.95859959781535
20
315.49129252370307
30
0
11
13.810072807504392
21
315.4905491371062
31
0
0
LINE
5
116
100
AcDbEntity
8
0
100
AcDbLine
10
192.27943785041745
20
180.50750336218638
30
0
11
106.92105198466366
21
180.50750335839908
31
0
0
LINE
5
117
100
AcDbEntity
8
0
100
AcDbLine
10
26.00049179057855
20
728.98657342283184
30
-2.2204460492503127e-15
11
354.00049069134263
21
729.0134267067873
31
-2.2204460492503127e-15
0
LINE
5
118
100
AcDbEntity
8
0
100
AcDbLine
10
407.32164145721583
20
25.260874206389552
30
0
11
407.3216416328853
21
134.64464875316415
31
0
0
LINE
5
119
100
AcDbEntity
8
0
100
AcDbLine
10
766.19023878483813
20
14.508508114963883
30
0
11
766.1902398359797
21
145.49148079372145
31
0
0
LINE
5
120
100
AcDbEntity
8
0
100
AcDbLine
10
362.82264108856447
20
134.74160477614868
30
0
11
362.82264125845728
21
25.259045757782985
31
0
0
LINE
5
121
100
AcDbEntity
8
0
100
AcDbLine
10
752.82264108856441
20
134.74160477614868
30
0
11
752.82264125845722
21
25.259045757783021
31
0
0
LINE
5
122
100
AcDbEntity
8
0
100
AcDbLine
10
26.000491806941227
20
623.9865734555558
30
0
11
354.00049070770541
21
624.01342673951126
31
0
0
ARC
5
123
100
AcDbEntity
8
0
100
AcDbCircle
10
353.99999947273363
20
660.01342668667928
30
0
40
5.9999999999999867
210
0
220
0
230
1
100
AcDbArc
50
-89.995309207810166
51
90.004691645963476
0
LINE
5
124
100
AcDbEntity
8
0
100
AcDbLine
10
26.000491790578515
20
668.98657342283184
30
0
11
354.00049069134252
21
669.0134267067873
31
0
0
LINE
5
125
100
AcDbEntity
8
0
100
AcDbLine
10
353.99950825412475
20
681.01342666657138
30
0
11
25.99950935336075
21
680.98657338261592
31
0
0
ARC
5
126
100
AcDbEntity
8
0
100
AcDbCircle
10
353.99999947273363
20
675.01342668667928
30
0
40
5.9999999999999867
210
0
220
0
230
1
100
AcDbArc
50
-89.995309207810166
51
90.004691645963476
0
LINE
5
127
100
AcDbEntity
8
0
100
AcDbLine
10
92.203584791688385
20
180.50750331813478
30
0
11
66.607630055544931
21
180.50850647212411
31
0
0
LINE
5
128
100
AcDbEntity
8
0
100
AcDbLine
10
366.19018477301165
20
468.49148196702504
30
0
11
13.810044202219842
21
468.49055023646781
31
0
0
LINE
5
129
100
AcDbEntity
8
0
100
AcDbLine
10
66.607630072165307
20
20.508506478397422
30
0
11
22.072180197587208
21
20.508508225957534
31
0
0
LINE
5
130
100
AcDbEntity
8
0
100
AcDbLine
10
376.19023878483813
20
14.508508114963883
30
0
11
376.1902398359797
21
145.49148079372145
31
0
0
LWPOLYLINE
5
131
100
AcDbEntity
8
0
100
AcDbPolyline
90
6
70
1
43
0.0
10
62.335907588027425
20
14.508508623656464
10
63.692680715589773
20
12.15850862075051
10
66.406226980780986
20
12.158508614938563
10
67.763000118409906
20
14.508508612032607
10
66.406226990847571
20
16.858508614938572
10
63.692680725656317
20
16.858508620750499
0
ARC
5
132
100
AcDbEntity
8
0
100
AcDbCircle
10
353.99999947273363
20
720.01342668667928
30
0
40
5.9999999999999867
210
0
220
0
230
1
100
AcDbArc
50
-89.995309207810166
51
90.004691645963476
0
LINE
5
133
100
AcDbEntity
8
0
100
AcDbLine
10
403.82082271306894
20
4.5085089499271325
30
0
11
756.19023876341998
21
4.5085081952141248
31
0
0
LWPOLYLINE
5
134
100
AcDbEntity
8
0
100
AcDbPolyline
90
6
70
1
43
0.0
10
119.98432988292461
20
147.84117369605195
10
117.27078361774286
20
147.84116652114707
10
115.91401669880182
20
145.49116293370287
10
117.27079604504257
20
143.14116652116351
10
119.98434231022432
20
143.14117369606836
10
121.34110922916534
20
145.49117728351257
0
ARC
5
135
100
AcDbEntity
8
0
100
AcDbCircle
10
106.92045958034717
20
18.193300992624295
30
0
40
2.3142024478760708
210
0
220
-0
230
1
100
AcDbArc
50
89.985332648929969
51
134.98580883250153
0
LWPOLYLINE
5
136
100
AcDbEntity
8
0
100
AcDbPolyline
90
6
70
1
43
0.0
10
63.692646815538851
20
331.85850971383189
10
62.335873677909944
20
329.50850971673788
10
63.692646805472265
20
327.1585097138319
10
66.406193070663505
20
327.15850970801995
10
67.762966208292411
20
329.50850970511397
10
66.406193080730134
20
331.85850970801994
0
LWPOLYLINE
5
137
100
AcDbEntity
8
0
100
AcDbPolyline
90
6
70
1
43
0.0
10
200.94684230994133
20
143.14128073279733
10
202.30360922888235
20
145.49128432024156
10
200.94682988264162
20
147.84128073278089
10
198.23328361745985
20
147.84127355787606
10
196.87651669851886
20
145.49126997043186
10
198.23329604475958
20
143.1412735578925
0
LWPOLYLINE
5
138
100
AcDbEntity
8
0
100
AcDbPolyline
90
6
70
1
43
0.0
10
367.4270534637443
20
172.1585085899672
10
368.78382636903723
20
174.50850819626743
10
367.4270534637443
20
176.85850780256766
10
364.71350765315839
20
176.85850780256766
10
363.35673474786546
20
174.50850819626743
10
364.71350765315839
20
172.1585085899672
0
LINE
5
139
100
AcDbEntity
8
0
100
AcDbLine
10
362.82264107194402
20
294.74160476987538
30
0
11
362.82264124183689
21
185.25904575150818
31
0
0
ARC
5
140
100
AcDbEntity
8
0
100
AcDbCircle
10
202.20247188914681
20
178.19326563015699
30
0
40
2.3142377984590339
210
0
220
-0
230
1
100
AcDbArc
50
89.985514794694183
51
134.98599098862562
0
ARC
5
141
100
AcDbEntity
8
0
100
AcDbCircle
10
102.40409711800716
20
22.35028195557522
30
0
40
3.8187777211750906
210
0
220
0
230
1
100
AcDbArc
50
269.97542484807951
51
315.00160910515137
0
ARC
5
142
100
AcDbEntity
8
0
100
AcDbCircle
10
366.19023876821768
20
174.50850818894082
30
0
40
10
210
0
220
0
230
1
100
AcDbArc
50
-90.000000122717239
51
0
0
ARC
5
143
100
AcDbEntity
8
0
100
AcDbCircle
10
96.719196622957156
20
22.350317488916289
30
0
40
3.8188132667479597
210
0
220
0
230
1
100
AcDbArc
50
224.99824882232969
51
269.97528274819996
0
LINE
5
144
100
AcDbEntity
8
0
100
AcDbLine
10
197.684456842191
20
178.53150457939722
30
0
11
196.79682383997635
21
178.53150457939822
31
0
0
LINE
5
145
100
AcDbEntity
8
0
100
AcDbLine
10
3.810099298701215
20
145.48973044573754
30
0
11
3.8208227680004825
21
14.507690252250285
31
0
0
ARC
5
146
100
AcDbEntity
8
0
100
AcDbCircle
10
92.202834053981775
20
178.19333634189204
30
0
40
2.3141670980159694
210
0
220
-0
230
1
100
AcDbArc
50
45.014373310226382
51
89.981412706583939
0
LWPOLYLINE
5
147
100
AcDbEntity
8
0
100
AcDbPolyline
90
6
70
1
43
0.0
10
196.87648278840135
20
460.49127106351318
10
198.2332621346421
20
458.14127465097391
10
200.94680839982385
20
458.14128182587871
10
202.30357531876484
20
460.49128541332294
10
200.94679597252411
20
462.84128182586232
10
198.23324970734237
20
462.84127465095753
0
LINE
5
148
100
AcDbEntity
8
0
100
AcDbLine
10
582.27943786703793
20
20.507503368459695
30
0
11
496.92105200128412
21
20.507503364672388
31
0
0
LINE
5
149
100
AcDbEntity
8
0
100
AcDbLine
10
66.607630055544931
20
180.50850647212411
30
0
11
22.072180180966811
21
180.50850821968424
31
0
0
ARC
5
150
100
AcDbEntity
8
0
100
AcDbCircle
10
96.719196606336766
20
182.35031748264302
30
0
40
3.8188132667479784
210
0
220
0
230
1
100
AcDbArc
50
224.99824882233048
51
269.97528274820024
0
ARC
5
151
100
AcDbEntity
8
0
100
AcDbCircle
10
92.202834070602151
20
18.193336348165339
30
0
40
2.314167098015977
210
0
220
-0
230
1
100
AcDbArc
50
45.014373310226688
51
89.981412706583939
0
LWPOLYLINE
5
152
100
AcDbEntity
8
0
100
AcDbPolyline
90
6
70
1
43
0.0
10
77.356773365687047
20
627.64525163087239
10
78.713546498282682
20
629.99525163087242
10
77.356773365687047
20
632.34525163087244
10
74.643227100495778
20
632.34525163087244
10
73.286453967900158
20
629.99525163087242
10
74.643227100495778
20
627.64525163087239
0
LWPOLYLINE
5
153
100
AcDbEntity
8
0
100
AcDbPolyline
90
6
70
1
43
0.0
10
74.64322708413313
20
672.64525159814855
10
77.356773349324342
20
672.64525159814855
10
78.713546481919977
20
674.99525159814857
10
77.356773349324342
20
677.34525159814848
10
74.64322708413313
20
677.34525159814848
10
73.286453951537496
20
674.99525159814857
0
LWPOLYLINE
5
154
100
AcDbEntity
8
0
100
AcDbPolyline
90
6
70
1
43
0.0
10
15.428953317331917
20
12.158508596240489
10
16.785726449927516
20
14.50850859624051
10
15.428953317331917
20
16.858508596240505
10
12.715407052140684
20
16.858508596240505
10
11.35863391954512
20
14.50850859624051
10
12.715407052140684
20
12.158508596240489
0
ARC
5
155
100
AcDbEntity
8
0
100
AcDbCircle
10
13.820754914254252
20
479.50851113609065
30
0
40
5.9999999999999512
210
0
220
0
230
1
100
AcDbArc
50
180.00469079216342
51
269.9999998772829
0
ARC
5
156
100
AcDbEntity
8
0
100
AcDbCircle
10
353.99999947273363
20
690.01342668667928
30
0
40
5.9999999999999867
210
0
220
0
230
1
100
AcDbArc
50
-89.995309207810166
51
90.004691645963476
0
LWPOLYLINE
5
157
100
AcDbEntity
8
0
100
AcDbPolyline
90
6
70
1
43
0.0
10
115.9140166821814
20
305.49116292742951
10
117.27079602842217
20
303.14116651489019
10
119.98434229360396
20
303.1411736897951
10
121.34110921254501
20
305.49117727723922
10
119.98432986630419
20
307.8411736897786
10
117.27078360112247
20
307.84116651487381
0
LWPOLYLINE
5
158
100
AcDbEntity
8
0
100
AcDbPolyline
90
6
70
1
43
0.0
10
119.9842959728071
20
462.84117478913333
10
117.27074970762533
20
462.84116761422854
10
115.91398278868438
20
460.49116402678419
10
117.27076213492509
20
458.14116761424486
10
119.98430840010684
20
458.14117478914977
10
121.34107531904787
20
460.49117837659395
0
LINE
5
159
100
AcDbEntity
8
0
100
AcDbLine
10
94.018805318855044
20
179.65009125864191
30
0
11
93.838786749619885
21
179.83011003888686
31
0
0
LINE
5
160
100
AcDbEntity
8
0
100
AcDbLine
10
17.321641457215868
20
25.260874206389552
30
0
11
17.321641632885267
21
134.64464875316412
31
0
0
LINE
5
161
100
AcDbEntity
8
0
100
AcDbLine
10
329.01460917198904
20
180.5085064721234
30
0
11
224.96122459089764
21
180.5135036966779
31
0
0
LWPOLYLINE
5
162
100
AcDbEntity
8
0
100
AcDbPolyline
90
6
70
1
43
0.0
10
78.713546498282682
20
644.99525163087242
10
77.356773365687047
20
647.34525163087244
10
74.643227100495778
20
647.34525163087244
10
73.286453967900158
20
644.99525163087242
10
74.643227100495778
20
642.64525163087239
10
77.356773365687047
20
642.64525163087239
0
LINE
5
163
100
AcDbEntity
8
0
100
AcDbLine
10
393.81009929870123
20
145.48973044573754
30
0
11
393.82082276800048
21
14.507690252250285
31
0
0
LINE
5
164
100
AcDbEntity
8
0
100
AcDbLine
10
376.19023876821768
20
174.50850818894082
30
0
11
376.19023981935925
21
305.49148078744815
31
0
0
LINE
5
165
100
AcDbEntity
8
0
100
AcDbLine
10
102.40245917816991
20
18.531504585670511
30
0
11
96.717549196794778
21
18.531504577516039
31
0
0
LINE
5
166
100
AcDbEntity
8
0
100
AcDbLine
10
102.40245916154953
20
178.53150457939722
30
0
11
96.717549180174402
21
178.53150457124275
31
0
0
LINE
5
167
100
AcDbEntity
8
0
100
AcDbLine
10
26.000491790578515
20
683.98657342283184
30
0
11
354.00049069134252
21
684.0134267067873
31
0
0
CIRCLE
5
168
100
AcDbEntity
8
0
100
AcDbCircle
10
366.07021275483874
20
479.50851038870417
30
1.7763568394002501e-14
40
1.5999999999999659
210
0
220
0
230
1
0
ARC
5
169
100
AcDbEntity
8
0
100
AcDbCircle
10
592.2024719057672
20
18.193265636430311
30
0
40
2.3142377984590339
210
0
220
-0
230
1
100
AcDbArc
50
89.985514794695604
51
134.9859909886257
0
LWPOLYLINE
5
170
100
AcDbEntity
8
0
100
AcDbPolyline
90
6
70
1
43
0.0
10
77.356773349324342
20
662.34525159814848
10
74.64322708413313
20
662.34525159814848
10
73.286453951537496
20
659.99525159814857
10
74.64322708413313
20
657.64525159814855
10
77.356773349324342
20
657.64525159814855
10
78.713546481919977
20
659.99525159814857
0
ARC
5
171
100
AcDbEntity
8
0
100
AcDbCircle
10
215.8131888061267
20
182.35027826089288
30
0
40
3.8187733699321806
210
0
220
0
230
1
100
AcDbArc
50
224.99839925335763
51
269.98503116820933
0
LWPOLYLINE
5
172
100
AcDbEntity
8
0
100
AcDbPolyline
90
6
70
1
43
0.0
10
63.692680698969397
20
172.1585086144772
10
66.406226964160624
20
172.15850860866527
10
67.763000101789544
20
174.50850860575929
10
66.406226974227195
20
176.85850860866526
10
63.692680709035976
20
176.85850861447719
10
62.33590757140707
20
174.50850861738317
0
LINE
5
173
100
AcDbEntity
8
0
100
AcDbLine
10
358.0702805879227
20
20.508508226745015
30
0
11
329.01460918860948
21
20.508506478396704
31
0
0
CIRCLE
5
174
100
AcDbEntity
8
0
100
AcDbCircle
10
76.000637652387297
20
460.49126767534318
30
0
40
3.0000000000000071
210
0
220
0
230
1
0
LWPOLYLINE
5
175
100
AcDbEntity
8
0
100
AcDbPolyline
90
6
70
1
43
0.0
10
74.64322708413313
20
717.64525159814855
10
77.356773349324342
20
717.64525159814855
10
78.713546481919977
20
719.99525159814857
10
77.356773349324342
20
722.34525159814848
10
74.64322708413313
20
722.34525159814848
10
73.286453951537496
20
719.99525159814857
0
LWPOLYLINE
5
176
100
AcDbEntity
8
0
100
AcDbPolyline
90
6
70
1
43
0.0
10
78.713546481919977
20
689.99525159814857
10
77.356773349324342
20
692.34525159814848
10
74.64322708413313
20
692.34525159814848
10
73.286453951537496
20
689.99525159814857
10
74.64322708413313
20
687.64525159814855
10
77.356773349324342
20
687.64525159814855
0
LINE
5
177
100
AcDbEntity
8
0
100
AcDbLine
10
105.2844766914957
20
19.830094491249195
30
0
11
105.10445657468841
21
19.650074169412225
31
0
0
LWPOLYLINE
5
178
100
AcDbEntity
8
0
100
AcDbPolyline
90
6
70
1
43
0.0
10
230.71247693586994
20
176.85850843578064
10
227.9989306706787
20
176.85850844159256
10
226.64215753304984
20
174.50850844449849
10
227.99893066061219
20
172.1585084415926
10
230.71247692580343
20
172.15850843578065
10
232.06925006343229
20
174.50850843287472
0
CIRCLE
5
179
100
AcDbEntity
8
0
100
AcDbCircle
10
118.62749514375066
20
610.49117229477122
30
-1.7763568394002501e-14
40
1.6000000000000014
210
0
220
0
230
1
0
LWPOLYLINE
5
180
100
AcDbEntity
8
0
100
AcDbPolyline
90
6
70
1
43
0.0
10
305.35677335228161
20
647.35474852400876
10
302.64322708709039
20
647.35474852400876
10
301.28645395449485
20
645.00474852400873
10
302.64322708709039
20
642.65474852400871
10
305.35677335228166
20
642.65474852400871
10
306.71354648487727
20
645.00474852400873
0
ARC
5
181
100
AcDbEntity
8
0
100
AcDbCircle
10
22.073093817625846
20
25.259960586367505
30
0
40
4.7514524482464404
210
0
220
0
230
1
100
AcDbArc
50
179.98898303790736
51
269.98898303767419
0
ARC
5
182
100
AcDbEntity
8
0
100
AcDbCircle
10
358.07119214111242
20
185.25995732119614
30
0
40
4.7514491881671885
210
0
220
0
230
1
100
AcDbArc
50
269.98900775298097
51
359.98900775447305
0
LWPOLYLINE
5
183
100
AcDbEntity
8
0
100
AcDbPolyline
90
6
70
1
43
0.0
10
200.94684229332097
20
303.14128072652403
10
202.30360921226196
20
305.49128431396821
10
200.94682986602123
20
307.84128072650759
10
198.23328360083948
20
307.8412735516028
10
196.87651668189847
20
305.49126996415856
10
198.23329602813919
20
303.14127355161924
0
LWPOLYLINE
5
184
100
AcDbEntity
8
0
100
AcDbPolyline
90
6
70
1
43
0.0
10
78.713546481919977
20
704.99525159814857
10
77.356773349324342
20
707.34525159814848
10
74.64322708413313
20
707.34525159814848
10
73.286453951537496
20
704.99525159814857
10
74.64322708413313
20
702.64525159814855
10
77.356773349324342
20
702.64525159814855
0
LINE
5
185
100
AcDbEntity
8
0
100
AcDbLine
10
358.07028057130225
20
180.5085082204717
30
0
11
329.01460917198904
21
180.5085064721234
31
0
0
ARC
5
186
100
AcDbEntity
8
0
100
AcDbCircle
10
102.4040971013868
20
182.35028194930192
30
0
40
3.8187777211750644
210
0
220
0
230
1
100
AcDbArc
50
269.97542484807934
51
315.00160910515137
0
LINE
5
187
100
AcDbEntity
8
0
100
AcDbLine
10
374.19020487472068
20
329.50850922409535
30
0
11
374.19020592586213
21
460.49148196705318
31
0
0
CIRCLE
5
188
100
AcDbEntity
8
0
100
AcDbCircle
10
76.000000216728765
20
734.99525159814857
30
0
40
1.6000000000000014
210
0
220
0
230
1
0
ARC
5
189
100
AcDbEntity
8
0
100
AcDbCircle
10
211.29681418076717
20
18.193265636430311
30
0
40
2.3142377984590254
210
0
220
-0
230
1
100
AcDbArc
50
44.985990979085763
51
89.985514776113945
0
LWPOLYLINE
5
190
100
AcDbEntity
8
0
100
AcDbPolyline
90
6
70
1
43
0.0
10
11.454960939543106
20
460.49051931016868
10
12.811734072138705
20
458.14051931016871
10
15.525280337329974
20
458.14051931016871
10
16.882053469925609
20
460.49051931016862
10
15.52528033733001
20
462.84051931016859
10
12.811734072138705
20
462.8405193101687
0
LINE
5
191
100
AcDbEntity
8
0
100
AcDbLine
10
412.16855697954611
20
139.49050749587329
30
0
11
686.45860922089651
21
139.49132932237464
31
0
0
CIRCLE
5
192
100
AcDbEntity
8
0
100
AcDbCircle
10
65.049386032985765
20
479.50851080400804
30
2.6645352591003757e-14
40
1.6000000000000014
210
0
220
0
230
1
0
LINE
5
193
100
AcDbEntity
8
0
100
AcDbLine
10
213.11283282024056
20
179.65007315749941
30
0
11
212.93362746462751
21
179.82927871298546
31
0
0
LINE
5
194
100
AcDbEntity
8
0
100
AcDbLine
10
684.95859961443568
20
155.49129252997633
30
0
11
403.81007282412469
21
155.49054914337947
31
0
0
CIRCLE
5
195
100
AcDbEntity
8
0
100
AcDbCircle
10
76.000603742271835
20
610.49126876842524
30
-1.7763568394002501e-14
40
1.6000000000000014
210
0
220
0
230
1
0
LINE
5
196
100
AcDbEntity
8
0
100
AcDbLine
10
94.01880533547542
20
19.65009126491524
30
0
11
93.838786766240247
21
19.830110045160165
31
0
0
LWPOLYLINE
5
197
100
AcDbEntity
8
0
100
AcDbPolyline
90
6
70
1
43
0.0
10
11.454994833040253
20
305.49051821081389
10
12.811767965635887
20
303.14051821081398
10
15.525314230827085
20
303.14051821081392
10
16.88208736342272
20
305.49051821081389
10
15.525314230827085
20
307.84051821081391
10
12.811767965635887
20
307.84051821081391
0
LWPOLYLINE
5
198
100
AcDbEntity
8
0
100
AcDbPolyline
90
6
70
1
43
0.0
10
12.811767982256264
20
147.84051821708726
10
11.454994849660594
20
145.49051821708727
10
12.811767982256264
20
143.14051821708728
10
15.525314247447533
20
143.14051821708728
10
16.882087380043096
20
145.49051821708727
10
15.525314247447533
20
147.84051821708726
0
LINE
5
199
100
AcDbEntity
8
0
100
AcDbLine
10
372.19017096460516
20
479.50851033322749
30
0
11
372.19017201574673
21
610.49148301197977
31
0
0
LINE
5
200
100
AcDbEntity
8
0
100
AcDbLine
10
224.96122459089764
20
180.5135036966779
30
0
11
221.21366741177269
21
180.50749350629474
31
0
0
LWPOLYLINE
5
201
100
AcDbEntity
8
0
100
AcDbPolyline
90
6
70
1
43
0.0
10
306.71354648487721
20
630.00474852400873
10
305.35677335228161
20
632.35474852400876
10
302.64322708709039
20
632.35474852400876
10
301.28645395449485
20
630.00474852400873
10
302.64322708709039
20
627.65474852400871
10
305.35677335228166
20
627.65474852400871
0
LWPOLYLINE
5
202
100
AcDbEntity
8
0
100
AcDbPolyline
90
6
70
1
43
0.0
10
283.2661092117412
20
305.4914208093071
10
281.90930435371479
20
307.84140249233559
10
279.19575808877084
20
307.84136585882089
10
277.83901668185325
20
305.49134754227765
10
279.19582153987966
20
303.14136585924916
10
281.9093678048236
20
303.14140249276392
0
LINE
5
203
100
AcDbEntity
8
0
100
AcDbLine
10
366.19021337829616
20
315.49148086766337
30
0
11
313.77156390283756
21
315.49134425024994
31
0
0
CIRCLE
5
204
100
AcDbEntity
8
0
100
AcDbCircle
10
118.62689163457023
20
630.01315515721808
30
0
40
3.0000000000000071
210
0
220
0
230
1
0
LWPOLYLINE
5
205
100
AcDbEntity
8
0
100
AcDbPolyline
90
6
70
1
43
0.0
10
226.64212363955272
20
329.50850954385317
10
227.99889676711507
20
327.15850954094725
10
230.71244303230631
20
327.15850953513541
10
232.0692161699352
20
329.50850953222937
10
230.71244304237283
20
331.85850953513534
10
227.99889677718159
20
331.85850954094724
0
ARC
5
206
100
AcDbEntity
8
0
100
AcDbCircle
10
196.79518590014681
20
182.35028194930197
30
0
40
3.8187777211741487
210
0
220
0
230
1
100
AcDbArc
50
225.00160909958402
51
270.02457515180492
0
ARC
5
207
100
AcDbEntity
8
0
100
AcDbCircle
10
358.07288604960235
20
294.7417589016901
30
0
40
4.7497550248424849
210
0
220
0
230
1
100
AcDbArc
50
-0.0018592753583251526
51
90.001859269261431
0
LINE
5
208
100
AcDbEntity
8
0
100
AcDbLine
10
216.70246221333582
20
178.53150457939719
30
0
11
215.81219113097407
21
178.53150502128469
31
0
0
ARC
5
209
100
AcDbEntity
8
0
100
AcDbCircle
10
13.81009926518793
20
145.4905491434144
30
0
40
10.000000000000016
210
0
220
0
230
1
100
AcDbArc
50
90.000151496132844
51
180.00469079216342
0
CIRCLE
5
210
100
AcDbEntity
8
0
100
AcDbCircle
10
118.62689163457023
20
645.01315515721808
30
0
40
3.0000000000000071
210
0
220
0
230
1
0
ARC
5
211
100
AcDbEntity
8
0
100
AcDbCircle
10
211.29681416414681
20
178.19326563015699
30
0
40
2.3142377984590192
210
0
220
-0
230
1
100
AcDbArc
50
44.985990979086267
51
89.985514776113945
0
LWPOLYLINE
5
212
100
AcDbEntity
8
0
100
AcDbPolyline
90
6
70
1
43
0.0
10
402.71540705214068
20
16.858508596240505
10
401.35863391954507
20
14.50850859624051
10
402.71540705214068
20
12.158508596240489
10
405.42895331733189
20
12.158508596240489
10
406.78572644992755
20
14.50850859624051
10
405.42895331733189
20
16.858508596240505
0
CIRCLE
5
213
100
AcDbEntity
8
0
100
AcDbCircle
10
280.55249514318467
20
610.4913863682292
30
-2.2204460492503131e-14
40
1.6000000000000014
210
0
220
0
230
1
0
LWPOLYLINE
5
214
100
AcDbEntity
8
0
100
AcDbPolyline
90
6
70
1
43
0.0
10
757.42948920288745
20
143.14150782318046
10
758.786262335483
20
145.49150782318048
10
757.42948920288745
20
147.84150782318048
10
754.71594293769613
20
147.84150782318048
10
753.35916980510046
20
145.49150782318048
10
754.71594293769613
20
143.14150782318043
0
LWPOLYLINE
5
215
100
AcDbEntity
8
0
100
AcDbPolyline
90
6
70
1
43
0.0
10
457.76300011840993
20
14.508508612032607
10
456.40622699084759
20
16.858508614938572
10
453.69268072565632
20
16.858508620750499
10
452.3359075880274
20
14.508508623656464
10
453.69268071558974
20
12.15850862075051
10
456.40622698078096
20
12.158508614938563
0
LINE
5
216
100
AcDbEntity
8
0
100
AcDbLine
10
213.11283283686095
20
19.650073163772717
30
0
11
212.9336274812479
21
19.829278719258781
31
0
0
LWPOLYLINE
5
217
100
AcDbEntity
8
0
100
AcDbPolyline
90
6
70
1
43
0.0
10
669.19575810539129
20
147.84136586509416
10
667.83901669847364
20
145.49134754855095
10
669.19582155650005
20
143.14136586552249
10
671.90936782144388
20
143.14140249903718
10
673.26610922836153
20
145.49142081558043
10
671.90930437033512
20
147.84140249860889
0
LINE
5
218
100
AcDbEntity
8
0
100
AcDbLine
10
492.40245917816992
20
18.531504585670511
30
0
11
486.71754919679478
21
18.531504577516039
31
0
0
LWPOLYLINE
5
219
100
AcDbEntity
8
0
100
AcDbPolyline
90
6
70
1
43
0.0
10
302.64322707072773
20
662.35474849128479
10
301.28645393813213
20
660.00474849128477
10
302.64322707072773
20
657.65474849128486
10
305.356773335919
20
657.65474849128486
10
306.71354646851455
20
660.00474849128477
10
305.35677333591889
20
662.35474849128479
0
LWPOLYLINE
5
220
100
AcDbEntity
8
0
100
AcDbPolyline
90
6
70
1
43
0.0
10
757.42705348036463
20
12.158508596240489
10
758.78382638565768
20
14.508508202540717
10
757.42705348036463
20
16.858507808840955
10
754.71350766977878
20
16.858507808840955
10
753.35673476448596
20
14.508508202540753
10
754.71350766977878
20
12.158508596240516
0
ARC
5
221
100
AcDbEntity
8
0
100
AcDbCircle
10
221.22044797099679
20
178.19333634189204
30
0
40
2.3141670980159956
210
0
220
0
230
1
100
AcDbArc
50
90.167878102878234
51
135.01437323384036
0
ARC
5
222
100
AcDbEntity
8
0
100
AcDbCircle
10
486.71919662295716
20
22.350317488916289
30
0
40
3.8188132667479597
210
0
220
0
230
1
100
AcDbArc
50
224.99824882232949
51
269.97528274819996
0
LINE
5
223
100
AcDbEntity
8
0
100
AcDbLine
10
484.01880533547541
20
19.65009126491524
30
0
11
483.83878676624022
21
19.830110045160165
31
0
0
ARC
5
224
100
AcDbEntity
8
0
100
AcDbCircle
10
13.820822734487201
20
14.508508949927146
30
0
40
10.000000000000014
210
0
220
0
230
1
100
AcDbArc
50
180.00469079216342
51
269.99999987728251
0
CIRCLE
5
225
100
AcDbEntity
8
0
100
AcDbCircle
10
76.000671545884416
20
305.49126657598845
30
0
40
3.0000000000000071
210
0
220
0
230
1
0
ARC
5
226
100
AcDbEntity
8
0
100
AcDbCircle
10
496.9204595803472
20
18.193300992624295
30
0
40
2.3142024478760708
210
0
220
-0
230
1
100
AcDbArc
50
89.985332648929287
51
134.98580883250224
0
LINE
5
227
100
AcDbEntity
8
0
100
AcDbLine
10
456.60763007216531
20
20.508506478397422
30
0
11
412.07218019758727
21
20.508508225957549
31
0
0
LWPOLYLINE
5
228
100
AcDbEntity
8
0
100
AcDbPolyline
90
6
70
1
43
0.0
10
306.71354646851455
20
720.00474849128477
10
305.35677333591889
20
722.35474849128479
10
302.64322707072773
20
722.35474849128479
10
301.28645393813213
20
720.00474849128477
10
302.64322707072773
20
717.65474849128486
10
305.356773335919
20
717.65474849128486
0
LINE
5
229
100
AcDbEntity
8
0
100
AcDbLine
10
216.70246222995618
20
18.531504585670497
30
0
11
215.81219114759446
21
18.531505027558001
31
0
0
LWPOLYLINE
5
230
100
AcDbEntity
8
0
100
AcDbPolyline
90
6
70
1
43
0.0
10
302.64322707072773
20
677.35474849128479
10
301.28645393813213
20
675.00474849128477
10
302.64322707072773
20
672.65474849128486
10
305.356773335919
20
672.65474849128486
10
306.71354646851455
20
675.00474849128477
10
305.35677333591889
20
677.35474849128479
0
CIRCLE
5
231
100
AcDbEntity
8
0
100
AcDbCircle
10
280.55189163400422
20
630.01336923067606
30
0
40
3.0000000000000071
210
0
220
0
230
1
0
ARC
5
232
100
AcDbEntity
8
0
100
AcDbCircle
10
412.07309381762582
20
25.259960586367505
30
0
40
4.7514524482464759
210
0
220
0
230
1
100
AcDbArc
50
179.98898303787428
51
269.98898303767533
0
ARC
5
233
100
AcDbEntity
8
0
100
AcDbCircle
10
703.77157052972893
20
152.99134227346289
30
0
40
2.5000000000000351
210
0
220
0
230
1
100
AcDbArc
50
90.000151496135643
51
180.0001514961132
0
LWPOLYLINE
5
234
100
AcDbEntity
8
0
100
AcDbPolyline
90
6
70
1
43
0.0
10
509.98434231022435
20
143.14117369606836
10
511.34110922916534
20
145.49117728351257
10
509.98432988292456
20
147.84117369605195
10
507.27078361774289
20
147.84116652114707
10
505.91401669880184
20
145.49116293370287
10
507.27079604504263
20
143.14116652116351
0
LINE
5
235
100
AcDbEntity
8
0
100
AcDbLine
10
702.27160657715626
20
139.4913767011993
30
0
11
748.07273193491346
21
139.49151393030508
31
0
0
ARC
5
236
100
AcDbEntity
8
0
100
AcDbCircle
10
294.95860622470155
20
152.99129252998515
30
0
40
2.5
210
0
220
0
230
1
100
AcDbArc
50
0
51
90.000151496134336
0
LWPOLYLINE
5
237
100
AcDbEntity
8
0
100
AcDbPolyline
90
6
70
1
43
0.0
10
590.94682988264162
20
147.84128073278089
10
588.23328361745985
20
147.84127355787606
10
586.87651669851891
20
145.49126997043186
10
588.23329604475953
20
143.1412735578925
10
590.9468423099413
20
143.14128073279733
10
592.30360922888235
20
145.49128432024156
0
LWPOLYLINE
5
238
100
AcDbEntity
8
0
100
AcDbPolyline
90
6
70
1
43
0.0
10
302.64322707072773
20
692.35474849128479
10
301.28645393813213
20
690.00474849128477
10
302.64322707072773
20
687.65474849128486
10
305.356773335919
20
687.65474849128486
10
306.71354646851455
20
690.00474849128477
10
305.35677333591889
20
692.35474849128479
0
ARC
5
239
100
AcDbEntity
8
0
100
AcDbCircle
10
221.22044798761718
20
18.193336348165339
30
0
40
2.3141670980160045
210
0
220
0
230
1
100
AcDbArc
50
90.167878102878234
51
135.0143732338399
0
LWPOLYLINE
5
240
100
AcDbEntity
8
0
100
AcDbPolyline
90
6
70
1
43
0.0
10
302.64322707072773
20
702.65474849128486
10
305.356773335919
20
702.65474849128486
10
306.71354646851455
20
705.00474849128477
10
305.35677333591889
20
707.35474849128479
10
302.64322707072773
20
707.35474849128479
10
301.28645393813213
20
705.00474849128477
0
LINE
5
241
100
AcDbEntity
8
0
100
AcDbLine
10
587.68445685881136
20
18.531504585670522
30
0
11
586.7968238565968
21
18.531504585671538
31
0
0
ARC
5
242
100
AcDbEntity
8
0
100
AcDbCircle
10
482.20283407060214
20
18.193336348165339
30
0
40
2.3141670980159517
210
0
220
-0
230
1
100
AcDbArc
50
45.014373310226937
51
89.981412706584308
0
LWPOLYLINE
5
243
100
AcDbEntity
8
0
100
AcDbPolyline
90
6
70
1
43
0.0
10
405.52531424744757
20
143.14051821708728
10
406.88208738004312
20
145.49051821708727
10
405.52531424744757
20
147.84051821708726
10
402.8117679822563
20
147.84051821708726
10
401.45499484966058
20
145.49051821708727
10
402.8117679822563
20
143.14051821708728
0
ARC
5
244
100
AcDbEntity
8
0
100
AcDbCircle
10
312.27160356434092
20
300.49137669492148
30
0
40
0.99999999999995715
210
0
220
0
230
1
100
AcDbArc
50
180.0001514961132
51
270.00017166932855
0
LWPOLYLINE
5
245
100
AcDbEntity
8
0
100
AcDbPolyline
90
6
70
1
43
0.0
10
230.71247694242379
20
12.158508442053941
10
232.06925008005268
20
14.508508439148029
10
230.71247695249031
20
16.858508442053939
10
227.99893068729909
20
16.858508447865859
10
226.6421575496702
20
14.508508450771807
10
227.99893067723258
20
12.158508447865879
0
LWPOLYLINE
5
246
100
AcDbEntity
8
0
100
AcDbPolyline
90
6
70
1
43
0.0
10
279.19582155650005
20
143.14136586552249
10
281.90936782144399
20
143.14140249903721
10
283.26610922836159
20
145.49142081558043
10
281.90930437033518
20
147.84140249860889
10
279.19575810539123
20
147.84136586509416
10
277.83901669847364
20
145.49134754855095
0
LWPOLYLINE
5
247
100
AcDbEntity
8
0
100
AcDbPolyline
90
6
70
1
43
0.0
10
367.42948918626695
20
303.14150781690716
10
368.78626231886255
20
305.49150781690713
10
367.42948918626695
20
307.84150781690721
10
364.71594292107568
20
307.8415078169071
10
363.35916978848002
20
305.49150781690713
10
364.71594292107568
20
303.14150781690716
0
LINE
5
248
100
AcDbEntity
8
0
100
AcDbLine
10
366.19021339491655
20
155.49148087393672
30
0
11
313.77156391946301
21
155.49134227345419
31
0
0
LWPOLYLINE
5
249
100
AcDbEntity
8
0
100
AcDbPolyline
90
6
70
1
43
0.0
10
367.42705348036463
20
16.858507808840955
10
364.71350766977878
20
16.858507808840955
10
363.35673476448591
20
14.508508202540753
10
364.71350766977878
20
12.158508596240516
10
367.42705348036463
20
12.158508596240489
10
368.78382638565768
20
14.508508202540717
0
CIRCLE
5
250
100
AcDbEntity
8
0
100
AcDbCircle
10
14.072112364503404
20
479.50851078240396
30
2.886579864025407e-14
40
1.6000000000000014
210
0
220
0
230
1
0
ARC
5
251
100
AcDbEntity
8
0
100
AcDbCircle
10
196.7951859167672
20
22.350281955575309
30
0
40
3.8187777211741598
210
0
220
0
230
1
100
AcDbArc
50
225.00160909958419
51
270.02457515180492
0
LWPOLYLINE
5
252
100
AcDbEntity
8
0
100
AcDbPolyline
90
6
70
1
43
0.0
10
12.715373142023161
20
331.85850968932186
10
11.358600009427597
20
329.50850968932184
10
12.715373142023196
20
327.15850968932187
10
15.42891940721443
20
327.15850968932187
10
16.7856925398101
20
329.50850968932184
10
15.42891940721443
20
331.85850968932186
0
ARC
5
253
100
AcDbEntity
8
0
100
AcDbCircle
10
197.68609479866714
20
22.350281955575451
30
0
40
3.8187777211753211
210
0
220
0
230
1
100
AcDbArc
50
269.97542484780149
51
315.00160910422539
0
LWPOLYLINE
5
254
100
AcDbEntity
8
0
100
AcDbPolyline
90
6
70
1
43
0.0
10
364.71347375966133
20
331.85850890192233
10
363.35670085436834
20
329.50850929562216
10
364.71347375966133
20
327.15850968932193
10
367.42701957024713
20
327.15850968932193
10
368.78379247554017
20
329.50850929562216
10
367.42701957024724
20
331.85850890192233
0
ARC
5
255
100
AcDbEntity
8
0
100
AcDbCircle
10
582.27883809891728
20
18.193336348165339
30
0
40
2.3141670980160072
210
0
220
-0
230
1
100
AcDbArc
50
45.014373311495085
51
89.985150518122069
0
LINE
5
256
100
AcDbEntity
8
0
100
AcDbLine
10
495.28447669149568
20
19.830094491249195
30
0
11
495.10445657468847
21
19.650074169412221
31
0
0
LWPOLYLINE
5
257
100
AcDbEntity
8
0
100
AcDbPolyline
90
6
70
1
43
0.0
10
363.35916980510046
20
145.49150782318048
10
364.71594293769613
20
143.14150782318043
10
367.4294892028874
20
143.14150782318046
10
368.786262335483
20
145.49150782318048
10
367.4294892028874
20
147.84150782318051
10
364.71594293769613
20
147.84150782318048
0
LINE
5
258
100
AcDbEntity
8
0
100
AcDbLine
10
194.09497813034247
20
19.649922499157068
30
0
11
193.91479079451909
21
19.830110045196399
31
0
0
ARC
5
259
100
AcDbEntity
8
0
100
AcDbCircle
10
606.70410016976712
20
22.350281955575451
30
0
40
3.8187777211753282
210
0
220
0
230
1
100
AcDbArc
50
269.97542484847565
51
314.99839089495777
0
LINE
5
260
100
AcDbEntity
8
0
100
AcDbLine
10
211.29739925444213
20
20.507503360931665
30
0
11
202.20305697869165
21
20.507503360931878
31
0
0
LINE
5
261
100
AcDbEntity
8
0
100
AcDbLine
10
194.09497811372208
20
179.64992249288375
30
0
11
193.9147907778987
21
179.83011003892307
31
0
0
LINE
5
262
100
AcDbEntity
8
0
100
AcDbLine
10
219.58367429280338
20
19.829289045985607
30
0
11
219.40430795593539
21
19.649922498899137
31
0
0
ARC
5
263
100
AcDbEntity
8
0
100
AcDbCircle
10
13.810099248567589
20
305.4905491371411
30
0
40
10.000000000000069
210
0
220
0
230
1
100
AcDbArc
50
90.000151496132702
51
180.00469079216342
0
ARC
5
264
100
AcDbEntity
8
0
100
AcDbCircle
10
296.4586062247015
20
140.49132932237006
30
0
40
0.99999999999993761
210
0
220
0
230
1
100
AcDbArc
50
-89.999828330671463
51
0
0
ARC
5
265
100
AcDbEntity
8
0
100
AcDbCircle
10
215.81318882274707
20
22.350278267166175
30
0
40
3.8187733699321762
210
0
220
0
230
1
100
AcDbArc
50
224.9983992533578
51
269.98503116820979
0
LWPOLYLINE
5
266
100
AcDbEntity
8
0
100
AcDbPolyline
90
6
70
1
43
0.0
10
616.64215754967017
20
14.508508450771807
10
617.99893067723258
20
12.158508447865879
10
620.7124769424239
20
12.158508442053941
10
622.0692500800526
20
14.508508439148029
10
620.71247695249031
20
16.858508442053939
10
617.99893068729898
20
16.858508447865859
0
ARC
5
267
100
AcDbEntity
8
0
100
AcDbCircle
10
192.2788380822968
20
178.19333634189204
30
0
40
2.3141670980160072
210
0
220
-0
230
1
100
AcDbArc
50
45.014373311494218
51
89.985150518122069
0
ARC
5
268
100
AcDbEntity
8
0
100
AcDbCircle
10
686.4586062247015
20
140.49132932237006
30
0
40
0.99999999999993761
210
0
220
0
230
1
100
AcDbArc
50
-89.999828330671463
51
0
0
LINE
5
269
100
AcDbEntity
8
0
100
AcDbLine
10
701.27157052973757
20
152.99133566319796
30
0
11
701.27160358096489
21
140.49137405708876
31
0
0
ARC
5
270
100
AcDbEntity
8
0
100
AcDbCircle
10
202.20247190576717
20
18.193265636430311
30
0
40
2.3142377984590339
210
0
220
-0
230
1
100
AcDbArc
50
89.985514794694183
51
134.98599098862471
0
LWPOLYLINE
5
271
100
AcDbEntity
8
0
100
AcDbPolyline
90
6
70
1
43
0.0
10
12.715407035520307
20
176.85850858996719
10
11.358633902924673
20
174.50850858996719
10
12.715407035520307
20
172.1585085899672
10
15.428953300711576
20
172.1585085899672
10
16.785726433307069
20
174.50850858996719
10
15.428953300711576
20
176.85850858996719
0
LINE
5
272
100
AcDbEntity
8
0
100
AcDbLine
10
224.96122460751809
20
20.513503702951219
30
0
11
221.21366742839308
21
20.507493512568054
31
0
0
ARC
5
273
100
AcDbEntity
8
0
100
AcDbCircle
10
684.95860622470161
20
152.99129252998515
30
0
40
2.5
210
0
220
0
230
1
100
AcDbArc
50
0
51
90.000151496135643
0
ARC
5
274
100
AcDbEntity
8
0
100
AcDbCircle
10
13.820822717866861
20
174.50850894365385
30
0
40
10.000000000000085
210
0
220
0
230
1
100
AcDbArc
50
180.00469079216342
51
269.99999987728188
0
ARC
5
275
100
AcDbEntity
8
0
100
AcDbCircle
10
605.81318882274707
20
22.350278267166175
30
0
40
3.8187733699321762
210
0
220
0
230
1
100
AcDbArc
50
224.99839925335721
51
269.98503116820848
0
LINE
5
276
100
AcDbEntity
8
0
100
AcDbLine
10
590.56645882266616
20
19.830078936638664
30
0
11
590.38645425530501
21
19.650074169368644
31
0
0
ARC
5
277
100
AcDbEntity
8
0
100
AcDbCircle
10
702.27160358096125
20
140.49137670119475
30
0
40
0.99999999999988609
210
0
220
0
230
1
100
AcDbArc
50
180.0001514961132
51
270.00017166932855
0
LINE
5
278
100
AcDbEntity
8
0
100
AcDbLine
10
614.96122460751803
20
20.513503702951219
30
0
11
611.21366742839302
21
20.507493512568047
31
0
0
ARC
5
279
100
AcDbEntity
8
0
100
AcDbCircle
10
586.7951859167672
20
22.350281955575309
30
0
40
3.8187777211741363
210
0
220
0
230
1
100
AcDbArc
50
225.00160909958453
51
270.02457515180578
0
LINE
5
280
100
AcDbEntity
8
0
100
AcDbLine
10
601.2973992544421
20
20.507503360931672
30
0
11
592.20305697869162
21
20.507503360931878
31
0
0
ARC
5
281
100
AcDbEntity
8
0
100
AcDbCircle
10
216.70410015314673
20
182.35028194930214
30
0
40
3.8187777211753371
210
0
220
0
230
1
100
AcDbArc
50
269.9754248484748
51
314.99839089495703
0
ARC
5
282
100
AcDbEntity
8
0
100
AcDbCircle
10
358.07119215773287
20
25.259957327469422
30
0
40
4.751449188167153
210
0
220
0
230
1
100
AcDbArc
50
269.98900775298097
51
359.98900775447305
0
LINE
5
283
100
AcDbEntity
8
0
100
AcDbLine
10
297.45860620808111
20
300.49132931609677
30
0
11
297.45860620808116
21
312.99129252371182
31
0
0
LINE
5
284
100
AcDbEntity
8
0
100
AcDbLine
10
105.28447667487532
20
179.83009448497592
30
0
11
105.10445655806805
21
179.65007416313892
31
0
0
CIRCLE
5
285
100
AcDbEntity
8
0
100
AcDbCircle
10
199.58999514346769
20
610.49127933150021
30
-2.2204460492503131e-14
40
1.6000000000000025
210
0
220
0
230
1
0
ARC
5
286
100
AcDbEntity
8
0
100
AcDbCircle
10
492.40409711800714
20
22.35028195557522
30
0
40
3.8187777211750906
210
0
220
0
230
1
100
AcDbArc
50
269.97542484807991
51
315.00160910515206
0
ARC
5
287
100
AcDbEntity
8
0
100
AcDbCircle
10
106.92045956372679
20
178.19330098635101
30
0
40
2.3142024478760619
210
0
220
-0
230
1
100
AcDbArc
50
89.98533264893068
51
134.98580883250136
0
ARC
5
288
100
AcDbEntity
8
0
100
AcDbCircle
10
611.22044798761726
20
18.193336348165339
30
0
40
2.3141670980159956
210
0
220
0
230
1
100
AcDbArc
50
90.167878102881744
51
135.01437323384161
0
CIRCLE
5
289
100
AcDbEntity
8
0
100
AcDbCircle
10
280.55189163400422
20
645.01336923067606
30
0
40
3.0000000000000071
210
0
220
0
230
1
0
ARC
5
290
100
AcDbEntity
8
0
100
AcDbCircle
10
313.77157051310849
20
312.99134226718962
30
0
40
2.5000019830690685
210
0
220
0
230
1
100
AcDbArc
50
90.00015149613013
51
180.0001514961132
0
LINE
5
291
100
AcDbEntity
8
0
100
AcDbLine
10
219.58367427618299
20
179.82928903971228
30
0
11
219.404307939315
21
179.64992249262582
31
0
0
ARC
5
292
100
AcDbEntity
8
0
100
AcDbCircle
10
403.82082273448714
20
14.508508949927146
30
0
40
9.9999999999999787
210
0
220
0
230
1
100
AcDbArc
50
180.00469079216342
51
269.99999987728279
0
LINE
5
293
100
AcDbEntity
8
0
100
AcDbLine
10
200.56645882266619
20
19.830078936638664
30
0
11
200.38645425530493
21
19.650074169368651
31
0
0
ARC
5
294
100
AcDbEntity
8
0
100
AcDbCircle
10
601.29681418076711
20
18.193265636430311
30
0
40
2.3142377984590192
210
0
220
-0
230
1
100
AcDbArc
50
44.985990979085145
51
89.985514776113263
0
LINE
5
295
100
AcDbEntity
8
0
100
AcDbLine
10
606.70246222995627
20
18.531504585670497
30
0
11
605.81219114759438
21
18.531505027558001
31
0
0
LINE
5
296
100
AcDbEntity
8
0
100
AcDbLine
10
311.27156853004811
20
312.99133565691864
30
0
11
311.27160356434445
21
300.49137405081524
31
0
0
ARC
5
297
100
AcDbEntity
8
0
100
AcDbCircle
10
358.07288606622279
20
134.74175890796343
30
0
40
4.7497550248424849
210
0
220
0
230
1
100
AcDbArc
50
-0.0018592753583251526
51
90.001859269261431
0
CIRCLE
5
298
100
AcDbEntity
8
0
100
AcDbCircle
10
199.58939163428724
20
645.01326219394718
30
0
40
3.0000000000000071
210
0
220
0
230
1
0
LINE
5
299
100
AcDbEntity
8
0
100
AcDbLine
10
329.01460918860948
20
20.508506478396704
30
0
11
224.96122460751809
21
20.513503702951219
31
0
0
ARC
5
300
100
AcDbEntity
8
0
100
AcDbCircle
10
748.07119215773287
20
25.259957327469422
30
0
40
4.751449188167153
210
0
220
0
230
1
100
AcDbArc
50
269.98900775298165
51
359.98900775447305
0
LINE
5
301
100
AcDbEntity
8
0
100
AcDbLine
10
197.68445685881136
20
18.531504585670522
30
0
11
196.79682385659675
21
18.531504585671506
31
0
0
ARC
5
302
100
AcDbEntity
8
0
100
AcDbCircle
10
197.68609478204678
20
182.35028194930214
30
0
40
3.8187777211753211
210
0
220
0
230
1
100
AcDbArc
50
269.97542484780149
51
315.00160910422551
0
ARC
5
303
100
AcDbEntity
8
0
100
AcDbCircle
10
13.810065355070407
20
460.49055023649589
30
0
40
7.9999999999999414
210
0
220
0
230
1
100
AcDbArc
50
90.000151496132744
51
180.00469079216342
0
LINE
5
304
100
AcDbEntity
8
0
100
AcDbLine
10
211.29739923782176
20
180.50750335465835
30
0
11
202.20305696207129
21
180.50750335465858
31
0
0
ARC
5
305
100
AcDbEntity
8
0
100
AcDbCircle
10
756.1902398359797
20
145.49148087397171
30
0
40
10
210
0
220
0
230
1
100
AcDbArc
50
0
51
90.000151496132389
0
LINE
5
306
100
AcDbEntity
8
0
100
AcDbLine
10
200.5664588060458
20
179.83007893036532
30
0
11
200.38645423868456
21
179.65007416309535
31
0
0
CIRCLE
5
307
100
AcDbEntity
8
0
100
AcDbCircle
10
199.58939163428724
20
630.01326219394718
30
0
40
3.0000000000000071
210
0
220
0
230
1
0
LINE
5
308
100
AcDbEntity
8
0
100
AcDbLine
10
719.01460918860948
20
20.508506478396704
30
0
11
614.96122460751803
21
20.513503702951219
31
0
0
ARC
5
309
100
AcDbEntity
8
0
100
AcDbCircle
10
587.68609479866711
20
22.350281955575451
30
0
40
3.8187777211753211
210
0
220
0
230
1
100
AcDbArc
50
269.97542484780189
51
315.00160910422653
0
ARC
5
310
100
AcDbEntity
8
0
100
AcDbCircle
10
366.19023981935936
20
305.49148086769839
30
0
40
9.9999999999999289
210
0
220
0
230
1
100
AcDbArc
50
0
51
90.000151496132716
0
ARC
5
311
100
AcDbEntity
8
0
100
AcDbCircle
10
192.27883809891719
20
18.193336348165339
30
0
40
2.3141670980160121
210
0
220
-0
230
1
100
AcDbArc
50
45.014373311494708
51
89.985150518122779
0
LINE
5
312
100
AcDbEntity
8
0
100
AcDbLine
10
297.4586062247015
20
140.49132932237006
30
0
11
297.45860622470155
21
152.99129252998515
31
0
0
ARC
5
313
100
AcDbEntity
8
0
100
AcDbCircle
10
216.70410016976714
20
22.350281955575451
30
0
40
3.8187777211753282
210
0
220
0
230
1
100
AcDbArc
50
269.97542484847401
51
314.99839089495686
0
LINE
5
314
100
AcDbEntity
8
0
100
AcDbLine
10
13.820788807235118
20
321.50851004300864
30
0
11
366.19020485758608
21
321.50850928829556
31
0
0
ARC
5
315
100
AcDbEntity
8
0
100
AcDbCircle
10
366.19017096460527
20
479.50851038137762
30
0
40
6.0000000000000142
210
0
220
0
230
1
100
AcDbArc
50
-90.000000122717907
51
0
0
ARC
5
316
100
AcDbEntity
8
0
100
AcDbCircle
10
353.99999947273363
20
705.01342668667928
30
0
40
5.9999999999999867
210
0
220
0
230
1
100
AcDbArc
50
-89.995309207810166
51
90.004691645963476
0
LINE
5
317
100
AcDbEntity
8
0
100
AcDbLine
10
26.000491790578515
20
713.98657342283184
30
0
11
354.00049069134252
21
714.0134267067873
31
0
0
LINE
5
318
100
AcDbEntity
8
0
100
AcDbLine
10
13.820822696448509
20
164.50850894365385
30
0
11
366.19023874679948
21
164.50850818894082
31
0
0
ARC
5
319
100
AcDbEntity
8
0
100
AcDbCircle
10
353.99999948909635
20
645.01342671940324
30
0
40
5.9999999999999867
210
0
220
0
230
1
100
AcDbArc
50
-89.995309207808532
51
90.004689084643616
0
LINE
5
320
100
AcDbEntity
8
0
100
AcDbLine
10
26.000491790578515
20
653.98657342283184
30
0
11
354.00049069134252
21
654.0134267067873
31
0
0
ARC
5
321
100
AcDbEntity
8
0
100
AcDbCircle
10
353.99999948909635
20
630.01342671940324
30
0
40
5.9999999999999867
210
0
220
0
230
1
100
AcDbArc
50
-89.995309207808532
51
90.004689084643616
0
LINE
5
322
100
AcDbEntity
8
0
100
AcDbLine
10
353.99950825412475
20
696.01342666657138
30
0
11
25.99950935336075
21
695.98657338261592
31
0
0
LINE
5
323
100
AcDbEntity
8
0
100
AcDbLine
10
13.820822713068956
20
4.508508949927128
30
0
11
366.19023876341998
21
4.5085081952141337
31
0
0
LINE
5
324
100
AcDbEntity
8
0
100
AcDbLine
10
92.203584808308761
20
20.507503324408102
30
0
11
66.607630072165307
21
20.508506478397422
31
0
0
LINE
5
325
100
AcDbEntity
8
0
100
AcDbLine
10
26.000491790578515
20
698.98657342283184
30
0
11
354.00049069134252
21
699.0134267067873
31
0
0
LINE
5
326
100
AcDbEntity
8
0
100
AcDbLine
10
353.9995084253448
20
651.01342669930784
30
0
11
25.999509369723484
21
650.98657341533976
31
0
0
ARC
5
327
100
AcDbEntity
8
0
100
AcDbCircle
10
366.19017201574161
20
610.49148306012989
30
0
40
6.0000000000052012
210
0
220
0
230
1
100
AcDbArc
50
0
51
90.000151496102418
0
ARC
5
328
100
AcDbEntity
8
0
100
AcDbCircle
10
353.99999947273363
20
735.01342668667928
30
0
40
5.9999999999999867
210
3.0297900544674063e-20
220
-3.7007434030147855e-16
230
1
100
AcDbArc
50
-89.9953092078091
51
90.004689938417258
0
LINE
5
329
100
AcDbEntity
8
0
100
AcDbLine
10
353.99950825412475
20
726.01342666657138
30
0
11
25.99950935336075
21
725.98657338261592
31
0
0
LINE
5
330
100
AcDbEntity
8
0
100
AcDbLine
10
13.820754901403348
20
473.50851113609059
30
0
11
366.19017095175428
21
473.50851038137762
31
0
0
ARC
5
331
100
AcDbEntity
8
0
100
AcDbCircle
10
366.19020592586224
20
460.49148196705312
30
0
40
7.9999999999999005
210
0
220
-0
230
1
100
AcDbArc
50
0
51
90.000151496132943
0
ARC
5
332
100
AcDbEntity
8
0
100
AcDbCircle
10
756.19023878483813
20
14.508508195214116
30
0
40
9.9999999999999911
210
0
220
0
230
1
100
AcDbArc
50
-90.000000122716941
51
0
0
ARC
5
333
100
AcDbEntity
8
0
100
AcDbCircle
10
366.19020487472073
20
329.5085092882955
30
0
40
7.9999999999999716
210
0
220
0
230
1
100
AcDbArc
50
-90.000000122717907
51
0
0
LINE
5
334
100
AcDbEntity
8
0
100
AcDbLine
10
748.07028058792275
20
20.508508226745015
30
0
11
719.01460918860948
21
20.508506478396704
31
0
0
LINE
5
335
100
AcDbEntity
8
0
100
AcDbLine
10
584.0949781303425
20
19.649922499157064
30
0
11
583.91479079451915
21
19.830110045196392
31
0
0
LINE
5
336
100
AcDbEntity
8
0
100
AcDbLine
10
312.27160656053593
20
299.49137669492598
30
0
11
358.07273191829302
21
299.49151392403178
31
0
0
CIRCLE
5
337
100
AcDbEntity
8
0
100
AcDbCircle
10
304.00000020332345
20
735.00474849128477
30
0
40
1.6000000000000014
210
0
220
0
230
1
0
LINE
5
338
100
AcDbEntity
8
0
100
AcDbLine
10
7.8100314650628988
20
610.4900601109689
30
0
11
7.8207549343622773
21
479.50801991748455
31
0
0
ARC
5
339
100
AcDbEntity
8
0
100
AcDbCircle
10
13.81003144495498
20
610.4905513295779
30
0
40
5.9999999999999796
210
0
220
0
230
1
100
AcDbArc
50
90.000151066209298
51
180.00469079208571
0
ARC
5
340
100
AcDbEntity
8
0
100
AcDbCircle
10
26.000000588332313
20
629.98657343544778
30
0
40
6.0000000000000586
210
0
220
0
230
1
100
AcDbArc
50
90.00469079218928
51
270.0046907921901
0
CIRCLE
5
341
100
AcDbEntity
8
0
100
AcDbCircle
10
229.35563599462853
20
479.50851063112339
30
2.2204460492503131e-14
40
1.6000000000000014
210
0
220
0
230
1
0
LINE
5
342
100
AcDbEntity
8
0
100
AcDbLine
10
609.58367429280338
20
19.829289045985597
30
0
11
609.40430795593545
21
19.649922498899137
31
0
0
ARC
5
343
100
AcDbEntity
8
0
100
AcDbCircle
10
366.19023878483813
20
14.508508195214116
30
0
40
9.9999999999999822
210
0
220
0
230
1
100
AcDbArc
50
-90.000000122716941
51
0
0
ARC
5
344
100
AcDbEntity
8
0
100
AcDbCircle
10
294.95860620808116
20
312.99129252371182
30
0
40
2.5
210
0
220
0
230
1
100
AcDbArc
50
0
51
90.000151496133043
0
ARC
5
345
100
AcDbEntity
8
0
100
AcDbCircle
10
313.77157052972882
20
152.99134227346289
30
0
40
2.5000000000000351
210
0
220
0
230
1
100
AcDbArc
50
90.000151496133043
51
180.0001514961132
0
LINE
5
346
100
AcDbEntity
8
0
100
AcDbLine
10
5.8100653818810954
20
460.48989527835431
30
0
11
5.8207888511802963
21
329.50785508486706
31
0
0
LINE
5
347
100
AcDbEntity
8
0
100
AcDbLine
10
603.11283283686089
20
19.650073163772717
30
0
11
602.93362748124787
21
19.829278719258774
31
0
0
CIRCLE
5
348
100
AcDbEntity
8
0
100
AcDbCircle
10
304.00060372886639
20
610.50076566156167
30
-2.4424906541753444e-14
40
1.6000000000000014
210
0
220
0
230
1
0
LINE
5
349
100
AcDbEntity
8
0
100
AcDbLine
10
756.19021339491655
20
155.49148087393669
30
0
11
703.77156391946301
21
155.49134227345419
31
0
0
ARC
5
350
100
AcDbEntity
8
0
100
AcDbCircle
10
13.820788824369679
20
329.50851004300858
30
0
40
8.0000000000000178
210
0
220
0
230
1
100
AcDbArc
50
180.00469079216342
51
269.99999987728279
0
LINE
5
351
100
AcDbEntity
8
0
100
AcDbLine
10
482.20358480830873
20
20.507503324408102
30
0
11
456.60763007216531
21
20.508506478397422
31
0
0
LINE
5
352
100
AcDbEntity
8
0
100
AcDbLine
10
3.8100992820808743
20
305.48973043946427
30
0
11
3.8208227513800708
21
174.50769024597696
31
0
0
ARC
5
353
100
AcDbEntity
8
0
100
AcDbCircle
10
312.27160358096125
20
140.49137670119475
30
0
40
0.99999999999995715
210
0
220
0
230
1
100
AcDbArc
50
180.0001514961132
51
270.00017166932855
0
ARC
5
354
100
AcDbEntity
8
0
100
AcDbCircle
10
26.000000571969615
20
659.98657340272393
30
0
40
5.9999999999999867
210
0
220
0
230
1
100
AcDbArc
50
90.004690792189621
51
270.00469079218993
0
ARC
5
355
100
AcDbEntity
8
0
100
AcDbCircle
10
296.45860620808116
20
300.49132931609677
30
0
40
0.99999999999988431
210
0
220
0
230
1
100
AcDbArc
50
-89.999828330671463
51
0
0
LINE
5
356
100
AcDbEntity
8
0
100
AcDbLine
10
687.4586062247015
20
140.49132932237006
30
0
11
687.45860622470161
21
152.99129252998515
31
0
0
ARC
5
357
100
AcDbEntity
8
0
100
AcDbCircle
10
403.81009926518794
20
145.4905491434144
30
0
40
10.000000000000016
210
0
220
0
230
1
100
AcDbArc
50
90.000151496133043
51
180.00469079216342
0
ARC
5
358
100
AcDbEntity
8
0
100
AcDbCircle
10
412.07203377286987
20
134.74013628687351
30
0
40
4.7513517395285492
210
0
220
-0
230
1
100
AcDbArc
50
88.835962241013306
51
181.15154619645782
0
ARC
5
359
100
AcDbEntity
8
0
100
AcDbCircle
10
748.07288606622274
20
134.74175890796343
30
0
40
4.7497550248424139
210
0
220
0
230
1
100
AcDbArc
50
-0.0018592753583251526
51
90.001859269260748
0
ARC
5
360
100
AcDbEntity
8
0
100
AcDbCircle
10
26.000000571969615
20
674.98657340272393
30
0
40
5.9999999999999867
210
0
220
0
230
1
100
AcDbArc
50
90.004690792189621
51
270.00469079218993
0
LINE
5
361
100
AcDbEntity
8
0
100
AcDbLine
10
311.27157052973752
20
152.99133566319796
30
0
11
311.27160358096484
21
140.49137405708876
31
0
0
LINE
5
362
100
AcDbEntity
8
0
100
AcDbLine
10
17.321641440595492
20
185.26087420011629
30
0
11
17.321641616264902
21
294.64464874689088
31
0
0
ARC
5
363
100
AcDbEntity
8
0
100
AcDbCircle
10
22.072033772869837
20
134.74013628687351
30
0
40
4.7513517395285492
210
0
220
-0
230
1
100
AcDbArc
50
88.83596224101295
51
181.1515461964581
0
ARC
5
364
100
AcDbEntity
8
0
100
AcDbCircle
10
26.000000588332313
20
644.98657343544778
30
0
40
5.9999999999999867
210
0
220
0
230
1
100
AcDbArc
50
90.00469079218928
51
270.00469079219027
0
ARC
5
365
100
AcDbEntity
8
0
100
AcDbCircle
10
26.000000571969615
20
719.98657340272393
30
0
40
5.9999999999999867
210
0
220
0
230
1
100
AcDbArc
50
90.004690792189621
51
270.00469079218993
0
CIRCLE
5
366
100
AcDbEntity
8
0
100
AcDbCircle
10
14.168473294618913
20
610.4905204032508
30
-1.5543122344752192e-14
40
1.6000000000000014
210
0
220
0
230
1
0
ARC
5
367
100
AcDbEntity
8
0
100
AcDbCircle
10
26.000000571969615
20
704.98657340272393
30
0
40
5.9999999999999867
210
0
220
0
230
1
100
AcDbArc
50
90.004690792189621
51
270.00469079218993
0
ARC
5
368
100
AcDbEntity
8
0
100
AcDbCircle
10
22.07309380100547
20
185.25996058009423
30
0
40
4.7514524482464404
210
0
220
0
230
1
100
AcDbArc
50
179.98898303790736
51
269.98898303767396
0
ARC
5
369
100
AcDbEntity
8
0
100
AcDbCircle
10
22.072033756249461
20
294.74013628060021
30
0
40
4.7513517395285492
210
0
220
-0
230
1
100
AcDbArc
50
88.835962241012936
51
181.1515461964575
0
LINE
5
370
100
AcDbEntity
8
0
100
AcDbLine
10
312.27160657715626
20
139.49137670119927
30
0
11
358.07273193491346
21
139.4915139303051
31
0
0
ARC
5
371
100
AcDbEntity
8
0
100
AcDbCircle
10
26.000000571969615
20
689.98657340272393
30
0
40
5.9999999999999867
210
0
220
0
230
1
100
AcDbArc
50
90.004690792189621
51
270.00469079218993
0
ARC
5
372
100
AcDbEntity
8
0
100
AcDbCircle
10
26.000000571969615
20
734.98657340272393
30
0
40
5.9999999999999867
210
0
220
0
230
1
100
AcDbArc
50
90.004690792189621
51
270.00469079219027
0
ARC
5
373
100
AcDbEntity
8
0
100
AcDbCircle
10
366.1902398359797
20
145.49148087397171
30
0
40
10
210
0
220
0
230
1
100
AcDbArc
50
0
51
90.000151496132389
0
LWPOLYLINE
5
374
100
AcDbEntity
8
0
100
AcDbPolyline
90
16
70
1
43
0.0
10
697.2713288277123
20
335.23256921689097
42
-0.41421356237301177
10
696.2713288277123
20
336.23256921689119
10
696.27132882771264
20
354.23256921689102
42
-0.41421356237301177
10
697.27132882771252
20
355.23256921689102
10
714.82132882771248
20
355.23256921689102
42
0.41421356237309503
10
715.32132882771236
20
355.73256921689102
10
715.32132882771236
20
373.28256921689081
42
-0.41421356237307422
10
716.32132882771248
20
374.28256921689103
10
734.32132882771248
20
374.28256921689103
42
-0.41421356237309503
10
735.32132882771236
20
373.28256921689109
10
735.32132882771236
20
355.73256921689097
42
0.4142135623730534
10
735.82132882771248
20
355.23256921689091
10
753.37132882771243
20
355.23256921689102
42
-0.41421356237309503
10
754.37132882771243
20
354.23256921689108
10
754.37132882771243
20
336.23256921689097
42
-0.41421356237309503
10
753.37132882771243
20
335.23256921689102
0
LWPOLYLINE
5
375
100
AcDbEntity
8
0
100
AcDbPolyline
90
6
70
1
43
0.0
10
620.71247694242379
20
327.15850843578175
10
622.0692500800526
20
329.50850843287583
10
620.71247695249031
20
331.8585084357818
10
617.99893068729909
20
331.85850844159376
10
616.64215754967017
20
329.50850844449968
10
617.99893067723258
20
327.15850844159371
0
LWPOLYLINE
5
376
100
AcDbEntity
8
0
100
AcDbPolyline
90
6
70
1
43
0.0
10
753.35673476448596
20
329.50850819626856
10
754.71350766977878
20
327.15850858996828
10
757.42705348036463
20
327.15850858996828
10
758.78382638565768
20
329.50850819626851
10
757.42705348036463
20
331.85850780256879
10
754.71350766977878
20
331.85850780256879
0
LWPOLYLINE
5
377
100
AcDbEntity
8
0
100
AcDbPolyline
90
24
70
1
43
0.0
10
644.83382882771241
20
353.78256921689103
42
-0.41421356237309503
10
645.3338288277123
20
354.28256921689098
10
662.43382882771243
20
354.28256921689098
42
-0.41421356237309503
10
662.93382882771243
20
353.78256921689103
10
662.93382882771243
20
336.23256921689119
42
0.4142135623730534
10
663.93382882771243
20
335.23256921689091
10
691.45882882771264
20
335.23256921689108
42
0.41421356237301177
10
692.45882882771252
20
336.23256921689125
10
692.45882882771252
20
430.4325692168909
42
0.4142135623730534
10
691.45882882771252
20
431.43256921689112
10
406.75882882771236
20
431.43256921689101
42
0.41421356237309503
10
405.75882882771236
20
430.43256921689107
10
405.75882882771236
20
336.23256921689108
42
0.41421356237311585
10
406.75882882771242
20
335.23256921689108
10
434.28382882771245
20
335.23256921689108
42
0.41421356237309503
10
435.28382882771245
20
336.23256921689114
10
435.28382882771245
20
353.78256921689103
42
-0.41421356237309503
10
435.78382882771245
20
354.28256921689103
10
452.88382882771253
20
354.28256921689098
42
-0.41421356237301177
10
453.38382882771242
20
353.78256921689109
10
453.38382882771242
20
336.23256921689119
42
0.41421356237307422
10
454.38382882771242
20
335.23256921689108
10
643.8338288277123
20
335.23256921689108
42
0.41421356237313667
10
644.83382882771252
20
336.23256921689114
0
LWPOLYLINE
5
378
100
AcDbEntity
8
0
100
AcDbPolyline
90
6
70
1
43
0.0
10
588.23328361745985
20
462.84127355160376
10
586.87651669851891
20
460.49126996415964
10
588.23329604475953
20
458.14127355162032
10
590.9468423099413
20
458.14128072652511
10
592.30360922888235
20
460.49128431396929
10
590.94682988264162
20
462.84128072650867
0
LWPOLYLINE
5
379
100
AcDbEntity
8
0
100
AcDbPolyline
90
6
70
1
43
0.0
10
405.52531424744757
20
462.84051821081505
10
402.81176798225624
20
462.84051821081505
10
401.45499484966058
20
460.49051821081503
10
402.81176798225613
20
458.14051821081506
10
405.52531424744757
20
458.14051821081506
10
406.88208738004312
20
460.49051821081503
0
LWPOLYLINE
5
380
100
AcDbEntity
8
0
100
AcDbPolyline
90
8
70
1
43
0.0
10
753.37132882771255
20
455.24506921689095
10
697.27132882771252
20
455.24506921689101
42
0.4142135623730534
10
696.27132882771264
20
454.2450692168909
10
696.2713288277123
20
436.2450692168909
42
0.41421356237309503
10
697.2713288277123
20
435.24506921689095
10
753.37132882771243
20
435.24506921689101
42
0.41421356237309503
10
754.37132882771243
20
436.24506921689112
10
754.37132882771255
20
454.24506921689095
42
0.4142135623730534
0
LWPOLYLINE
5
381
100
AcDbEntity
8
0
100
AcDbPolyline
90
6
70
1
43
0.0
10
457.76300011840993
20
329.50850860576048
10
456.40622699084759
20
331.8585086086664
10
453.69268072565637
20
331.8585086144783
10
452.33590758802757
20
329.50850861738434
10
453.69268071558986
20
327.15850861447836
10
456.40622698078096
20
327.15850860866635
0
LWPOLYLINE
5
382
100
AcDbEntity
8
0
100
AcDbPolyline
90
8
70
1
43
0.0
10
444.85882882771256
20
435.24506921689095
10
520.00882882771259
20
435.24506921689101
42
0.41421356237311585
10
521.00882882771248
20
436.24506921689101
10
521.00882882771248
20
454.24506921689101
42
0.41421356237309503
10
520.00882882771259
20
455.24506921689095
10
444.85882882771256
20
455.24506921689101
42
0.41421356237309503
10
443.85882882771239
20
454.24506921689095
10
443.85882882771256
20
436.24506921689095
42
0.41421356237309503
0
LWPOLYLINE
5
383
100
AcDbEntity
8
0
100
AcDbPolyline
90
6
70
1
43
0.0
10
402.71540705214068
20
331.85850858996838
10
401.35863391954513
20
329.50850858996836
10
402.71540705214073
20
327.15850858996839
10
405.428953317332
20
327.15850858996839
10
406.78572644992755
20
329.50850858996836
10
405.428953317332
20
331.85850858996832
0
LWPOLYLINE
5
384
100
AcDbEntity
8
0
100
AcDbPolyline
90
8
70
1
43
0.0
10
406.75882882771248
20
435.24506921689101
42
-0.41421356237309503
10
405.75882882771253
20
436.24506921689095
10
405.75882882771236
20
454.24506921689095
42
-0.41421356237309503
10
406.75882882771248
20
455.24506921689101
10
424.75882882771253
20
455.24506921689101
42
-0.41421356237309503
10
425.75882882771253
20
454.24506921689101
10
425.75882882771248
20
436.24506921689095
42
-0.41421356237309503
10
424.75882882771253
20
435.24506921689101
0
LWPOLYLINE
5
385
100
AcDbEntity
8
0
100
AcDbPolyline
90
8
70
1
43
0.0
10
697.27132882771241
20
392.38256921689083
42
-0.4142135623730534
10
696.2713288277123
20
393.38256921689106
10
696.27132882771264
20
430.43256921689107
42
-0.41421356237309503
10
697.27132882771252
20
431.43256921689101
10
753.37132882771243
20
431.43256921689101
42
-0.4142135623730534
10
754.37132882771243
20
430.4325692168909
10
754.37132882771243
20
393.38256921689106
42
-0.4142135623730534
10
753.37132882771243
20
392.382569216891
0
LWPOLYLINE
5
386
100
AcDbEntity
8
0
100
AcDbPolyline
90
6
70
1
43
0.0
10
511.3411092291654
20
460.4911772772403
10
509.98432988292456
20
462.84117368977968
10
507.27078361774284
20
462.84116651487477
10
505.91401669880184
20
460.49116292743065
10
507.27079604504263
20
458.14116651489132
10
509.98434231022435
20
458.14117368979618
0
LWPOLYLINE
5
387
100
AcDbEntity
8
0
100
AcDbPolyline
90
8
70
1
43
0.0
10
615.30882882771243
20
454.24506921689095
42
-0.41421356237309503
10
616.30882882771255
20
455.24506921689112
10
691.45882882771264
20
455.24506921689095
42
-0.4142135623730534
10
692.45882882771252
20
454.2450692168909
10
692.45882882771252
20
436.24506921689112
42
-0.4142135623730534
10
691.45882882771264
20
435.24506921689101
10
616.30882882771255
20
435.24506921689112
42
-0.41421356237309503
10
615.30882882771255
20
436.24506921689101
0
LWPOLYLINE
5
388
100
AcDbEntity
8
0
100
AcDbPolyline
90
6
70
1
43
0.0
10
673.26610922836164
20
460.49142080930824
10
671.90930437033535
20
462.84140249233673
10
669.19575810539129
20
462.84136585882197
10
667.83901669847364
20
460.49134754227873
10
669.19582155650005
20
458.1413658592503
10
671.90936782144399
20
458.141402492765
0
LWPOLYLINE
5
389
100
AcDbEntity
8
0
100
AcDbPolyline
90
8
70
1
43
0.0
10
606.73382882771261
20
436.24506921689101
42
-0.41421356237311585
10
605.73382882771261
20
435.24506921689112
10
530.58382882771252
20
435.24506921689095
42
-0.41421356237315748
10
529.58382882771252
20
436.24506921689101
10
529.58382882771241
20
454.24506921689095
42
-0.41421356237309503
10
530.58382882771252
20
455.24506921689112
10
605.73382882771261
20
455.24506921689101
42
-0.41421356237311585
10
606.73382882771261
20
454.24506921689107
0
LWPOLYLINE
5
390
100
AcDbEntity
8
0
100
AcDbPolyline
90
6
70
1
43
0.0
10
758.78626233548289
20
460.49150781690827
10
757.42948920288745
20
462.84150781690823
10
754.71594293769601
20
462.84150781690823
10
753.35916980510046
20
460.49150781690832
10
754.71594293769601
20
458.1415078169083
10
757.42948920288711
20
458.1415078169083
0
LWPOLYLINE
5
391
100
AcDbEntity
8
0
100
AcDbPolyline
90
16
70
1
43
0.0
10
701.27129615093111
20
462.24506921682428
42
-0.41421356235396944
10
700.27129770986153
20
461.24506765796184
10
688.45879770993349
20
461.2450492431106
42
-0.41421356239222062
10
687.45879615100557
20
462.24504768424566
10
687.4587871930064
20
467.99129913445643
42
0.41421356237316997
10
684.95878058274957
20
470.4912925241826
10
403.81007282412469
20
470.49054913710728
42
0.41423676722246761
10
393.81009929870123
20
460.4897304394654
10
393.82082276800065
20
329.5076902459781
42
0.41418958284925983
10
403.82082271306905
20
319.50850894365499
10
756.19023876341998
20
319.50850818894196
42
0.41421356300041884
10
766.19023878483813
20
329.50850818894196
10
766.19023983597981
20
460.49148086769424
42
0.41421433681396314
10
756.19021339491667
20
470.49148086766451
10
703.77128058262485
20
470.49134623259238
42
0.41421356237300344
10
701.27128719289931
20
467.99133962233611
0
LWPOLYLINE
5
392
100
AcDbEntity
8
0
100
AcDbPolyline
90
16
70
1
43
0.0
10
735.32132882771236
20
510.73256921689097
10
735.32132882771236
20
528.28256921689115
42
0.41421356237309503
10
734.32132882771248
20
529.28256921689103
10
716.32132882771248
20
529.28256921689103
42
0.4142135623730534
10
715.32132882771236
20
528.28256921689092
10
715.32132882771248
20
510.73256921689102
42
-0.41421356237309503
10
714.82132882771248
20
510.23256921689102
10
697.27132882771252
20
510.23256921689102
42
0.41421356237301177
10
696.27132882771252
20
509.23256921689102
10
696.2713288277123
20
491.23256921689119
42
0.4142135623730534
10
697.27132882771241
20
490.23256921689097
10
753.37132882771243
20
490.23256921689102
42
0.41421356237309503
10
754.37132882771243
20
491.23256921689097
10
754.37132882771243
20
509.23256921689102
42
0.41421356237311585
10
753.37132882771243
20
510.23256921689108
10
735.82132882771248
20
510.23256921689091
42
-0.4142135623730534
0
LWPOLYLINE
5
393
100
AcDbEntity
8
0
100
AcDbPolyline
90
6
70
1
43
0.0
10
622.0692500800526
20
484.50850843287583
10
620.71247695249031
20
486.8585084357818
10
617.99893068729909
20
486.85850844159376
10
616.64215754967017
20
484.50850844449968
10
617.99893067723258
20
482.15850844159377
10
620.71247694242379
20
482.15850843578181
0
LWPOLYLINE
5
394
100
AcDbEntity
8
0
100
AcDbPolyline
90
8
70
1
43
0.0
10
606.73382882771261
20
591.24506921689101
10
606.73382882771261
20
609.24506921689112
42
0.41421356237311585
10
605.73382882771261
20
610.24506921689101
10
530.58382882771252
20
610.24506921689112
42
0.41421356237309503
10
529.58382882771252
20
609.2450692168909
10
529.58382882771252
20
591.2450692168909
42
0.41421356237311585
10
530.58382882771252
20
590.2450692168909
10
605.73382882771261
20
590.24506921689112
42
0.41421356237311585
0
LWPOLYLINE
5
395
100
AcDbEntity
8
0
100
AcDbPolyline
90
8
70
1
43
0.0
10
754.37132882771243
20
548.38256921689106
42
-0.4142135623730534
10
753.37132882771243
20
547.38256921689094
10
697.27132882771252
20
547.38256921689083
42
-0.41421356237309503
10
696.2713288277123
20
548.38256921689106
10
696.27132882771264
20
585.43256921689112
42
-0.41421356237309503
10
697.27132882771252
20
586.43256921689101
10
753.37132882771243
20
586.43256921689101
42
-0.4142135623730534
10
754.37132882771243
20
585.4325692168909
0
LWPOLYLINE
5
396
100
AcDbEntity
8
0
100
AcDbPolyline
90
8
70
1
43
0.0
10
615.30882882771243
20
609.24506921689101
10
615.30882882771255
20
591.24506921689101
42
0.41421356237309503
10
616.30882882771255
20
590.24506921689112
10
691.45882882771264
20
590.24506921689101
42
0.4142135623730534
10
692.45882882771252
20
591.24506921689112
10
692.45882882771252
20
609.2450692168909
42
0.4142135623730534
10
691.45882882771264
20
610.2450692168909
10
616.30882882771255
20
610.24506921689112
42
0.41421356237307422
0
LWPOLYLINE
5
397
100
AcDbEntity
8
0
100
AcDbPolyline
90
6
70
1
43
0.0
10
758.78626233548289
20
615.49150781690832
10
757.42948920288745
20
617.84150781690823
10
754.71594293769601
20
617.84150781690823
10
753.35916980510046
20
615.49150781690832
10
754.71594293769601
20
613.14150781690819
10
757.42948920288711
20
613.14150781690819
0
LWPOLYLINE
5
398
100
AcDbEntity
8
0
100
AcDbPolyline
90
6
70
1
43
0.0
10
669.19582155650005
20
613.1413658592503
10
671.90936782144399
20
613.141402492765
10
673.26610922836164
20
615.49142080930824
10
671.90930437033535
20
617.84140249233678
10
669.19575810539129
20
617.84136585882197
10
667.83901669847364
20
615.49134754227873
0
LWPOLYLINE
5
399
100
AcDbEntity
8
0
100
AcDbPolyline
90
6
70
1
43
0.0
10
754.71350766977878
20
482.15850858996828
10
757.42705348036463
20
482.15850858996828
10
758.78382638565768
20
484.50850819626851
10
757.42705348036463
20
486.85850780256879
10
754.71350766977878
20
486.85850780256879
10
753.35673476448596
20
484.50850819626856
0
LWPOLYLINE
5
400
100
AcDbEntity
8
0
100
AcDbPolyline
90
6
70
1
43
0.0
10
453.69268071558986
20
482.15850861447825
10
456.40622698078096
20
482.15850860866635
10
457.76300011840993
20
484.50850860576048
10
456.40622699084759
20
486.8585086086664
10
453.69268072565637
20
486.8585086144783
10
452.33590758802757
20
484.50850861738434
0
LWPOLYLINE
5
401
100
AcDbEntity
8
0
100
AcDbPolyline
90
6
70
1
43
0.0
10
507.27079604504263
20
613.14116651489132
10
509.98434231022435
20
613.14117368979612
10
511.3411092291654
20
615.49117727724035
10
509.98432988292456
20
617.84117368977968
10
507.27078361774284
20
617.84116651487489
10
505.91401669880184
20
615.49116292743065
0
LWPOLYLINE
5
402
100
AcDbEntity
8
0
100
AcDbPolyline
90
6
70
1
43
0.0
10
588.23328361745985
20
617.84127355160388
10
586.87651669851891
20
615.49126996415964
10
588.23329604475953
20
613.14127355162032
10
590.9468423099413
20
613.14128072652511
10
592.30360922888235
20
615.49128431396935
10
590.94682988264162
20
617.84128072650878
0
LWPOLYLINE
5
403
100
AcDbEntity
8
0
100
AcDbPolyline
90
24
70
1
43
0.0
10
662.43382882771243
20
509.28256921689098
42
-0.41421356237309503
10
662.93382882771243
20
508.78256921689103
10
662.93382882771243
20
491.23256921689119
42
0.4142135623730534
10
663.93382882771243
20
490.23256921689091
10
691.45882882771264
20
490.23256921689108
42
0.41421356237297013
10
692.45882882771241
20
491.23256921689114
10
692.45882882771252
20
585.4325692168909
42
0.41421356237307422
10
691.45882882771252
20
586.43256921689112
10
406.75882882771236
20
586.43256921689101
42
0.41421356237309503
10
405.75882882771236
20
585.43256921689112
10
405.75882882771236
20
491.23256921689108
42
0.41421356237309503
10
406.75882882771236
20
490.23256921689108
10
434.28382882771245
20
490.23256921689108
42
0.41421356237309503
10
435.28382882771245
20
491.23256921689114
10
435.28382882771245
20
508.78256921689103
42
-0.41421356237309503
10
435.78382882771245
20
509.28256921689103
10
452.88382882771253
20
509.28256921689098
42
-0.41421356237301177
10
453.38382882771242
20
508.78256921689109
10
453.38382882771242
20
491.23256921689119
42
0.41421356237307422
10
454.38382882771242
20
490.23256921689108
10
643.8338288277123
20
490.23256921689108
42
0.41421356237313667
10
644.83382882771252
20
491.23256921689114
10
644.83382882771241
20
508.78256921689103
42
-0.4142135623731783
10
645.33382882771252
20
509.28256921689103
0
LWPOLYLINE
5
404
100
AcDbEntity
8
0
100
AcDbPolyline
90
6
70
1
43
0.0
10
405.52531424744757
20
613.14051821081512
10
406.88208738004306
20
615.49051821081503
10
405.52531424744757
20
617.84051821081505
10
402.81176798225624
20
617.84051821081505
10
401.45499484966058
20
615.49051821081503
10
402.81176798225624
20
613.14051821081512
0
LWPOLYLINE
5
405
100
AcDbEntity
8
0
100
AcDbPolyline
90
8
70
1
43
0.0
10
697.27132882771241
20
590.2450692168909
10
753.37132882771243
20
590.24506921689101
42
0.41421356237309503
10
754.37132882771255
20
591.24506921689112
10
754.37132882771255
20
609.2450692168909
42
0.4142135623730534
10
753.37132882771255
20
610.24506921689101
10
697.27132882771252
20
610.24506921689101
42
0.4142135623730534
10
696.27132882771264
20
609.2450692168909
10
696.2713288277123
20
591.2450692168909
42
0.41421356237313667
0
LWPOLYLINE
5
406
100
AcDbEntity
8
0
100
AcDbPolyline
90
6
70
1
43
0.0
10
406.78572644992755
20
484.50850858996836
10
405.428953317332
20
486.85850858996832
10
402.71540705214068
20
486.85850858996838
10
401.35863391954513
20
484.50850858996836
10
402.71540705214068
20
482.15850858996839
10
405.428953317332
20
482.15850858996839
0
LWPOLYLINE
5
407
100
AcDbEntity
8
0
100
AcDbPolyline
90
8
70
1
43
0.0
10
406.75882882771248
20
590.2450692168909
10
424.75882882771253
20
590.24506921689101
42
0.41421356237309503
10
425.75882882771248
20
591.24506921689101
10
425.75882882771253
20
609.24506921689101
42
0.41421356237311585
10
424.75882882771248
20
610.24506921689101
10
406.75882882771248
20
610.24506921689101
42
0.41421356237309503
10
405.75882882771236
20
609.2450692168909
10
405.75882882771253
20
591.24506921689101
42
0.41421356237309503
0
LWPOLYLINE
5
408
100
AcDbEntity
8
0
100
AcDbPolyline
90
8
70
1
43
0.0
10
443.85882882771239
20
609.2450692168909
10
443.85882882771256
20
591.24506921689101
42
0.41421356237311585
10
444.85882882771256
20
590.2450692168909
10
520.00882882771259
20
590.24506921689101
42
0.41421356237309503
10
521.00882882771248
20
591.24506921689101
10
521.00882882771248
20
609.24506921689101
42
0.41421356237309503
10
520.00882882771259
20
610.2450692168909
10
444.85882882771256
20
610.24506921689101
42
0.41421356237309503
0
LWPOLYLINE
5
409
100
AcDbEntity
8
0
100
AcDbPolyline
90
16
70
1
43
0.0
10
701.27129615093111
20
617.24506921682416
10
701.27128719289942
20
622.99133962233611
42
-0.41421356237300344
10
703.77128058262485
20
625.49134623259238
10
756.19021339491667
20
625.49148086766445
42
-0.41421433681396314
10
766.19023983597981
20
615.49148086769424
10
766.19023878483813
20
484.50850818894196
42
-0.41421356300041884
10
756.19023876341998
20
474.50850818894196
10
403.82082271306899
20
474.50850894365493
42
-0.41418958284925778
10
393.82082276800065
20
484.5076902459781
10
393.81009929870123
20
615.48973043946057
42
-0.4142367672226091
10
403.81007282412475
20
625.49054913710722
10
684.95878058274934
20
625.49129252418265
42
-0.41421356237318663
10
687.4587871930064
20
622.99129913445643
10
687.45879615100557
20
617.24504768424572
42
0.41421356239226226
10
688.45879770993361
20
616.24504924311066
10
700.2712977098613
20
616.24506765796184
42
0.41421356235399026
0
LWPOLYLINE
5
410
100
AcDbEntity
8
0
100
AcDbPolyline
90
6
70
1
43
0.0
10
406.78569253980993
20
639.50850968430416
10
405.42891940721432
20
641.85850968430418
10
402.71537314202305
20
641.85850968430418
10
401.35860000942751
20
639.50850968430404
10
402.71537314202305
20
637.15850968430414
10
405.42891940721432
20
637.15850968430414
0
LWPOLYLINE
5
411
100
AcDbEntity
8
0
100
AcDbPolyline
90
8
70
1
43
0.0
10
521.00879491759508
20
746.24507031122675
42
-0.41421356237309503
10
520.00879491759508
20
745.24507031122675
10
444.85879491759511
20
745.24507031122675
42
-0.41421356237311585
10
443.85879491759511
20
746.24507031122675
10
443.85879491759499
20
764.24507031122653
42
-0.41421356237307422
10
444.85879491759511
20
765.24507031122698
10
520.00879491759508
20
765.24507031122675
42
-0.41421356237309503
10
521.00879491759508
20
764.24507031122687
0
LWPOLYLINE
5
412
100
AcDbEntity
8
0
100
AcDbPolyline
90
6
70
1
43
0.0
10
588.23326213464202
20
768.14127464595595
10
590.94680839982379
20
768.14128182086074
10
592.30357531876484
20
770.49128540830509
10
590.946795972524
20
772.84128182084442
10
588.23324970734222
20
772.84127464593962
10
586.8764827884014
20
770.4912710584955
0
LWPOLYLINE
5
413
100
AcDbEntity
8
0
100
AcDbPolyline
90
16
70
1
43
0.0
10
715.32129491759508
20
683.28257031122678
10
715.32129491759474
20
665.73257031122682
42
-0.41421356237309503
10
714.82129491759474
20
665.23257031122682
10
697.27129491759501
20
665.23257031122682
42
0.4142135623730534
10
696.2712949175949
20
664.2325703112266
10
696.2712949175949
20
646.23257031122705
42
0.41421356237301177
10
697.27129491759479
20
645.23257031122671
10
753.3712949175947
20
645.23257031122682
42
0.41421356237309503
10
754.3712949175947
20
646.23257031122671
10
754.37129491759492
20
664.23257031122671
42
0.41421356237309503
10
753.37129491759481
20
665.23257031122682
10
735.82129491759486
20
665.23257031122671
42
-0.41421356237309503
10
735.32129491759497
20
665.73257031122671
10
735.32129491759497
20
683.28257031122678
42
0.41421356237309503
10
734.32129491759486
20
684.28257031122666
10
716.32129491759497
20
684.28257031122689
42
0.4142135623730534
0
LWPOLYLINE
5
414
100
AcDbEntity
8
0
100
AcDbPolyline
90
8
70
1
43
0.0
10
529.58379491759513
20
764.24507031122653
42
-0.41421356237307422
10
530.58379491759513
20
765.24507031122675
10
605.73379491759511
20
765.24507031122675
42
-0.41421356237313667
10
606.73379491759511
20
764.24507031122698
10
606.73379491759511
20
746.24507031122675
42
-0.41421356237311585
10
605.73379491759511
20
745.24507031122675
10
530.58379491759513
20
745.24507031122675
42
-0.4142135623731783
10
529.58379491759513
20
746.24507031122687
0
LWPOLYLINE
5
415
100
AcDbEntity
8
0
100
AcDbPolyline
90
8
70
1
43
0.0
10
696.27129491759501
20
764.24507031122675
42
-0.4142135623730534
10
697.27129491759501
20
765.24507031122675
10
753.37129491759481
20
765.24507031122675
42
-0.4142135623730534
10
754.37129491759481
20
764.24507031122675
10
754.37129491759504
20
746.24507031122687
42
-0.4142135623731783
10
753.37129491759492
20
745.24507031122675
10
697.27129491759501
20
745.24507031122698
42
-0.41421356237297013
10
696.2712949175949
20
746.24507031122675
0
LWPOLYLINE
5
416
100
AcDbEntity
8
0
100
AcDbPolyline
90
24
70
1
43
0.0
10
435.28379491759489
20
646.23257031122671
10
435.28379491759495
20
663.78257031122666
42
-0.41421356237309503
10
435.78379491759495
20
664.28257031122666
10
452.88379491759491
20
664.28257031122666
42
-0.41421356237309503
10
453.38379491759491
20
663.78257031122666
10
453.38379491759491
20
646.23257031122694
42
0.41421356237309503
10
454.38379491759491
20
645.23257031122682
10
643.83379491759501
20
645.23257031122682
42
0.41421356237309503
10
644.83379491759479
20
646.23257031122671
10
644.8337949175949
20
663.78257031122666
42
-0.41421356237309503
10
645.3337949175949
20
664.28257031122666
10
662.43379491759492
20
664.28257031122666
42
-0.41421356237309503
10
662.93379491759492
20
663.78257031122666
10
662.93379491759481
20
646.23257031122671
42
0.41421356237301177
10
663.93379491759492
20
645.23257031122671
10
691.45879491759501
20
645.23257031122682
42
0.41421356237301177
10
692.45879491759479
20
646.23257031122671
10
692.45879491759513
20
740.43257031122664
42
0.41421356237313667
10
691.4587949175949
20
741.43257031122687
10
406.7587949175948
20
741.43257031122687
42
0.41421356237311585
10
405.7587949175948
20
740.43257031122698
10
405.75879491759497
20
646.23257031122671
42
0.41421356237309503
10
406.75879491759486
20
645.23257031122682
10
434.283794917595
20
645.23257031122682
42
0.41421356237309503
0
LWPOLYLINE
5
417
100
AcDbEntity
8
0
100
AcDbPolyline
90
6
70
1
43
0.0
10
622.0692161699352
20
639.50850952721157
10
620.7124430423728
20
641.85850953011754
10
617.99889677718147
20
641.85850953592944
10
616.64212363955266
20
639.50850953883548
10
617.99889676711496
20
637.15850953592951
10
620.71244303230617
20
637.15850953011761
0
LWPOLYLINE
5
418
100
AcDbEntity
8
0
100
AcDbPolyline
90
6
70
1
43
0.0
10
401.45496093954307
20
770.49051930515088
10
402.81173407213873
20
768.14051930515097
10
405.52528033732983
20
768.14051930515075
10
406.88205346992549
20
770.49051930515088
10
405.52528033732983
20
772.84051930515091
10
402.81173407213873
20
772.84051930515079
0
LWPOLYLINE
5
419
100
AcDbEntity
8
0
100
AcDbPolyline
90
8
70
1
43
0.0
10
405.75879491759497
20
764.24507031122675
10
405.75879491759508
20
746.24507031122675
42
0.41421356237311585
10
406.75879491759508
20
745.24507031122675
10
424.75879491759497
20
745.24507031122675
42
0.41421356237309503
10
425.75879491759486
20
746.24507031122675
10
425.75879491759508
20
764.24507031122687
42
0.41421356237313667
10
424.75879491759497
20
765.24507031122675
10
406.75879491759508
20
765.24507031122675
42
0.41421356237307422
0
LWPOLYLINE
5
420
100
AcDbEntity
8
0
100
AcDbPolyline
90
6
70
1
43
0.0
10
457.76296620829237
20
639.50850970009628
10
456.40619308073008
20
641.85850970300226
10
453.69264681553881
20
641.85850970881415
10
452.33587367790994
20
639.50850971172008
10
453.69264680547224
20
637.15850970881411
10
456.40619307066351
20
637.15850970300221
0
LWPOLYLINE
5
421
100
AcDbEntity
8
0
100
AcDbPolyline
90
8
70
1
43
0.0
10
697.27129491759501
20
702.3825703112268
42
-0.4142135623730534
10
696.27129491759501
20
703.38257031122691
10
696.27129491759501
20
740.43257031122675
42
-0.41421356237309503
10
697.27129491759501
20
741.43257031122675
10
753.37129491759481
20
741.43257031122698
42
-0.41421356237309503
10
754.37129491759492
20
740.43257031122698
10
754.3712949175947
20
703.3825703112268
42
-0.41421356237313667
10
753.3712949175947
20
702.3825703112268
0
LWPOLYLINE
5
422
100
AcDbEntity
8
0
100
AcDbPolyline
90
6
70
1
43
0.0
10
757.42701957024701
20
641.8585088969046
10
754.71347375966138
20
641.8585088969046
10
753.35670085436834
20
639.50850929060437
10
754.71347375966104
20
637.15850968430414
10
757.4270195702469
20
637.15850968430414
10
758.78379247553994
20
639.50850929060425
0
LWPOLYLINE
5
423
100
AcDbEntity
8
0
100
AcDbPolyline
90
6
70
1
43
0.0
10
671.90927046021761
20
772.84140358667241
10
669.19572419527356
20
772.8413669531576
10
667.83898278835591
20
770.49134863661448
10
669.19578764638231
20
768.14136695358593
10
671.90933391132626
20
768.14140358710074
10
673.26607531824391
20
770.4914219036441
0
LWPOLYLINE
5
424
100
AcDbEntity
8
0
100
AcDbPolyline
90
8
70
1
43
0.0
10
616.30879491759504
20
745.24507031122675
10
691.45879491759501
20
745.24507031122675
42
0.41421356237309503
10
692.45879491759513
20
746.24507031122687
10
692.45879491759513
20
764.24507031122675
42
0.4142135623730534
10
691.45879491759513
20
765.24507031122675
10
616.30879491759504
20
765.24507031122675
42
0.41421356237303258
10
615.30879491759504
20
764.24507031122687
10
615.30879491759515
20
746.24507031122687
42
0.41421356237311585
0
LWPOLYLINE
5
425
100
AcDbEntity
8
0
100
AcDbPolyline
90
6
70
1
43
0.0
10
505.91398278868428
20
770.49116402176639
10
507.27076213492501
20
768.14116760922707
10
509.98430840010678
20
768.14117478413198
10
511.34107531904783
20
770.4911783715761
10
509.98429597280705
20
772.84117478411542
10
507.27074970762533
20
772.84116760921063
0
LWPOLYLINE
5
426
100
AcDbEntity
8
0
100
AcDbPolyline
90
6
70
1
43
0.0
10
757.42945529276972
20
772.84150891124398
10
754.71590902757839
20
772.84150891124398
10
753.35913589498296
20
770.49150891124395
10
754.71590902757839
20
768.14150891124405
10
757.42945529276983
20
768.14150891124405
10
758.78622842536538
20
770.49150891124395
0
LWPOLYLINE
5
427
100
AcDbEntity
8
0
100
AcDbPolyline
90
8
70
1
43
0.0
10
756.19020485758597
20
631.5085092832777
10
403.82078880723509
20
631.50851003799085
42
-0.41418958284925672
10
395.82078885118023
20
639.50785507984926
10
395.8100653818808
20
770.48989527333651
42
-0.41423676722247438
10
403.81004420221979
20
778.49055023145013
10
756.19018477301051
20
778.49148196200736
42
-0.4142143368139673
10
764.19020592586219
20
770.49148196203009
10
764.19020487472062
20
639.5085092832777
42
-0.41421356300042089
0
LWPOLYLINE
5
428
100
AcDbEntity
8
0
100
AcDbPolyline
90
8
70
1
43
0.0
10
691.45876100747864
20
915.24507140556238
10
616.30876100747878
20
915.2450714055625
42
0.41421356237307422
10
615.30876100747878
20
914.24507140556238
10
615.30876100747878
20
896.2450714055625
42
0.41421356237299095
10
616.30876100747867
20
895.2450714055625
10
691.45876100747864
20
895.2450714055625
42
0.41421356237292856
10
692.45876100747864
20
896.2450714055625
10
692.45876100747864
20
914.24507140556216
42
0.41421356237301177
0
CIRCLE
5
429
100
AcDbEntity
8
0
100
AcDbCircle
10
455.04938603298518
20
789.50851080024404
30
0
40
1.5999999999999659
210
0
220
0
230
1
0
CIRCLE
5
430
100
AcDbEntity
8
0
100
AcDbCircle
10
619.35563599462785
20
789.50851062735956
30
4.4408920985006254e-15
40
1.5999999999999659
210
0
220
0
230
1
0
CIRCLE
5
431
100
AcDbEntity
8
0
100
AcDbCircle
10
670.55249514318393
20
920.49138636446514
30
0
40
1.5999999999999659
210
0
220
0
230
1
0
LWPOLYLINE
5
432
100
AcDbEntity
8
0
100
AcDbPolyline
90
8
70
1
43
0.0
10
754.37126100747889
20
853.38257140556289
42
-0.41421356237301177
10
753.37126100747901
20
852.38257140556266
10
697.27126100747898
20
852.38257140556243
42
-0.4142135623730534
10
696.27126100747887
20
853.38257140556266
10
696.27126100747887
20
890.43257140556261
42
-0.4142135623730534
10
697.2712610074791
20
891.43257140556273
10
753.37126100747901
20
891.43257140556273
42
-0.41421356237301177
10
754.37126100747889
20
890.4325714055625
0
LWPOLYLINE
5
433
100
AcDbEntity
8
0
100
AcDbPolyline
90
8
70
1
43
0.0
10
606.73376100747885
20
896.24507140556261
10
606.73376100747885
20
914.24507140556238
42
0.41421356237313667
10
605.73376100747873
20
915.2450714055625
10
530.58376100747876
20
915.2450714055625
42
0.41421356237307422
10
529.58376100747876
20
914.24507140556238
10
529.58376100747876
20
896.24507140556261
42
0.41421356237311585
10
530.58376100747876
20
895.24507140556261
10
605.73376100747873
20
895.2450714055625
42
0.41421356237307422
0
CIRCLE
5
434
100
AcDbEntity
8
0
100
AcDbCircle
10
508.62749514375002
20
920.49117229100716
30
8.8817841970012507e-15
40
1.5999999999999659
210
0
220
0
230
1
0
CIRCLE
5
435
100
AcDbEntity
8
0
100
AcDbCircle
10
404.16847329461831
20
920.49052039948674
30
-4.4408920985006254e-15
40
1.5999999999999659
210
0
220
0
230
1
0
CIRCLE
5
436
100
AcDbEntity
8
0
100
AcDbCircle
10
589.58999514346704
20
920.49127932773615
30
0
40
1.6000000000000369
210
0
220
0
230
1
0
CIRCLE
5
437
100
AcDbEntity
8
0
100
AcDbCircle
10
404.07211236450274
20
789.50851077864002
30
0
40
1.5999999999999659
210
0
220
0
230
1
0
LWPOLYLINE
5
438
100
AcDbEntity
8
0
100
AcDbPolyline
90
24
70
1
43
0.0
10
435.2837610074788
20
796.23257140556291
42
-0.41421356237303258
10
434.28376100747892
20
795.23257140556279
10
406.75876100747882
20
795.23257140556302
42
-0.41421356237313667
10
405.75876100747877
20
796.23257140556291
10
405.75876100747882
20
890.4325714055625
42
-0.41421356237307422
10
406.75876100747882
20
891.43257140556261
10
691.45876100747898
20
891.43257140556261
42
-0.41421356237301177
10
692.45876100747887
20
890.43257140556238
10
692.45876100747876
20
796.23257140556245
42
-0.41421356237313667
10
691.45876100747887
20
795.23257140556268
10
663.93376100747889
20
795.23257140556279
42
-0.41421356237313667
10
662.93376100747889
20
796.23257140556257
10
662.93376100747889
20
813.78257140556275
42
0.41421356237309503
10
662.43376100747901
20
814.28257140556275
10
645.33376100747887
20
814.28257140556275
42
0.41421356237309503
10
644.83376100747887
20
813.78257140556275
10
644.8337610074791
20
796.23257140556291
42
-0.41421356237309503
10
643.83376100747887
20
795.23257140556268
10
454.38376100747882
20
795.23257140556302
42
-0.41421356237309503
10
453.38376100747888
20
796.23257140556291
10
453.38376100747888
20
813.78257140556275
42
0.41421356237309503
10
452.88376100747888
20
814.28257140556275
10
435.78376100747892
20
814.28257140556275
42
0.41421356237309503
10
435.28376100747886
20
813.78257140556275
0
LWPOLYLINE
5
439
100
AcDbEntity
8
0
100
AcDbPolyline
90
8
70
1
43
0.0
10
424.75876100747877
20
915.24507140556261
42
-0.41421356237309503
10
425.75876100747877
20
914.24507140556261
10
425.75876100747871
20
896.24507140556261
42
-0.4142135623730534
10
424.75876100747877
20
895.2450714055625
10
406.75876100747877
20
895.24507140556261
42
-0.41421356237311585
10
405.75876100747871
20
896.24507140556261
10
405.75876100747877
20
914.24507140556238
42
-0.4142135623730534
10
406.75876100747871
20
915.2450714055625
0
LWPOLYLINE
5
440
100
AcDbEntity
8
0
100
AcDbPolyline
90
16
70
1
43
0.0
10
696.27126100747887
20
814.23257140556257
10
696.27126100747898
20
796.23257140556279
42
0.4142135623731783
10
697.27126100747898
20
795.23257140556279
10
753.37126100747878
20
795.23257140556268
42
0.4142135623730534
10
754.37126100747878
20
796.23257140556279
10
754.37126100747889
20
814.23257140556245
42
0.41421356237301177
10
753.37126100747901
20
815.23257140556268
10
735.82126100747871
20
815.23257140556268
42
-0.41421356237309503
10
735.32126100747871
20
815.73257140556268
10
735.32126100747882
20
833.28257140556252
42
0.4142135623730534
10
734.32126100747882
20
834.28257140556275
10
716.32126100747882
20
834.28257140556252
42
0.41421356237301177
10
715.32126100747882
20
833.28257140556229
10
715.32126100747871
20
815.73257140556268
42
-0.41421356237309503
10
714.82126100747882
20
815.23257140556268
10
697.27126100747898
20
815.23257140556268
42
0.41421356237301177
0
CIRCLE
5
441
100
AcDbEntity
8
0
100
AcDbCircle
10
756.07021275483817
20
789.50851038494022
30
0
40
1.5999999999999659
210
0
220
0
230
1
0
LWPOLYLINE
5
442
100
AcDbEntity
8
0
100
AcDbPolyline
90
8
70
1
43
0.0
10
521.00876100747871
20
896.24507140556261
10
521.00876100747871
20
914.24507140556227
42
0.4142135623730534
10
520.00876100747882
20
915.24507140556238
10
444.85876100747879
20
915.2450714055625
42
0.41421356237307422
10
443.85876100747879
20
914.24507140556238
10
443.85876100747879
20
896.24507140556261
42
0.41421356237309503
10
444.85876100747879
20
895.24507140556261
10
520.00876100747882
20
895.2450714055625
42
0.4142135623730534
0
LWPOLYLINE
5
443
100
AcDbEntity
8
0
100
AcDbPolyline
90
8
70
1
43
0.0
10
696.27126100747876
20
914.24507140556261
10
696.27126100747887
20
896.24507140556273
42
0.41421356237301177
10
697.27126100747898
20
895.24507140556261
10
753.37126100747878
20
895.24507140556261
42
0.41421356237313667
10
754.37126100747878
20
896.2450714055625
10
754.37126100747889
20
914.24507140556238
42
0.41421356237301177
10
753.37126100747901
20
915.24507140556261
10
697.27126100747887
20
915.24507140556261
42
0.4142135623731783
0
CIRCLE
5
444
100
AcDbEntity
8
0
100
AcDbCircle
10
756.07264825005814
20
920.49151000557981
30
4.4408920985006254e-15
40
1.5999999999999659
210
0
220
0
230
1
0
LWPOLYLINE
5
445
100
AcDbEntity
8
0
100
AcDbPolyline
90
8
70
1
43
0.0
10
762.19017201574604
20
920.49148305636595
10
762.19017096460459
20
789.50851037761367
42
-0.41421356300041745
10
756.19017095175366
20
783.50851037761356
10
403.82075490140267
20
783.5085111323267
42
-0.41418958284926194
10
397.8207549343615
20
789.50801991372043
10
397.81003146506242
20
920.49006010720768
42
-0.41423676942023813
10
403.81001562533766
20
926.49055132579304
10
756.19015615110607
20
926.49148305635003
42
-0.4142143368139673
0
ENDSEC
0
SECTION
2
OBJECTS
0
DICTIONARY
5
C
100
AcDbDictionary
3
ACAD_GROUP
350
D
3
ACAD_MLINESTYLE
350
17
0
DICTIONARY
5
D
100
AcDbDictionary
0
DICTIONARY
5
1A
330
C
100
AcDbDictionary
0
DICTIONARY
5
17
100
AcDbDictionary
0
ENDSEC
0
EOF
