0
SECTION
2
HEADER
9
$INSUNITS
70
4
9
$ACADVER
1
AC1014
9
$HANDSEED
5
FFFF
0
ENDSEC
0
SECTION
2
TABLES
0
TABLE
2
VPORT
5
8
100
AcDbSymbolTable
0
ENDTAB
0
TABLE
2
LTYPE
5
5
100
AcDbSymbolTable
70
2
0
LTYPE
5
14
100
AcDbSymbolTableRecord
100
AcDbLinetypeTableRecord
2
BYBLOCK
70
0
0
LTYPE
5
15
100
AcDbSymbolTableRecord
100
AcDbLinetypeTableRecord
2
BYLAYER
70
0
0
ENDTAB
0
TABLE
2
LAYER
5
2
100
AcDbSymbolTable
70
3
0
LAYER
5
50
100
AcDbSymbolTableRecord
100
AcDbLayerTableRecord
2
0
70
0
6
CONTINUOUS
0
LAYER
5
51
100
AcDbSymbolTableRecord
100
AcDbLayerTableRecord
2
CUTOUTS
70
0
62
1
6
CONTINUOUS
0
LAYER
5
52
100
AcDbSymbolTableRecord
100
AcDbLayerTableRecord
2
PERIMETER
70
0
62
5
6
CONTINUOUS
0
ENDTAB
0
TABLE
2
STYLE
5
3
100
AcDbSymbolTable
70
1
0
STYLE
5
11
100
AcDbSymbolTableRecord
100
AcDbTextStyleTableRecord
2
STANDARD
70
0
0
ENDTAB
0
TABLE
2
VIEW
5
6
100
AcDbSymbolTable
0
ENDTAB
0
TABLE
2
UCS
5
7
100
AcDbSymbolTable
0
ENDTAB
0
TABLE
2
APPID
5
9
100
AcDbSymbolTable
70
1
0
APPID
5
12
100
AcDbSymbolTableRecord
100
AcDbRegAppTableRecord
2
ACAD
70
0
0
ENDTAB
0
TABLE
2
DIMSTYLE
5
A
100
AcDbSymbolTable
0
ENDTAB
0
TABLE
2
BLOCK_RECORD
5
1
100
AcDbSymbolTable
70
2
0
BLOCK_RECORD
5
1F
100
AcDbSymbolTableRecord
100
AcDbBlockTableRecord
2
*MODEL_SPACE
0
BLOCK_RECORD
5
1B
100
AcDbSymbolTableRecord
100
AcDbBlockTableRecord
2
*PAPER_SPACE
0
ENDTAB
0
ENDSEC
0
SECTION
2
BLOCKS
0
BLOCK
5
20
100
AcDbEntity
100
AcDbBlockBegin
2
*MODEL_SPACE
0
ENDBLK
5
21
100
AcDbEntity
100
AcDbBlockEnd
0
BLOCK
5
1C
100
AcDbEntity
100
AcDbBlockBegin
2
*PAPER_SPACE
0
ENDBLK
5
1D
100
AcDbEntity
100
AcDbBlockEnd
0
ENDSEC
0
SECTION
2
ENTITIES
0
CIRCLE
5
100
100
AcDbEntity
8
CUTOUTS
100
AcDbCircle
10
90.552495133212361
20
65.491386368229158
30
0
40
1.6000000000000014
210
0
220
0
230
1
0
CIRCLE
5
101
100
AcDbEntity
8
CUTOUTS
100
AcDbCircle
10
176.07021274486644
20
-65.491489611295776
30
0
40
1.5999999999999659
210
0
220
0
230
1
0
CIRCLE
5
102
100
AcDbEntity
8
CUTOUTS
100
AcDbCircle
10
-175.83152671535339
20
65.490520403250741
30
0
40
1.6000000000000014
210
0
220
0
230
1
0
CIRCLE
5
103
100
AcDbEntity
8
CUTOUTS
100
AcDbCircle
10
176.07264824008641
20
65.491510009343941
30
0
40
1.6000000000000369
210
0
220
0
230
1
0
CIRCLE
5
104
100
AcDbEntity
8
CUTOUTS
100
AcDbCircle
10
-124.95061397698656
20
-65.491489195991974
30
0
40
1.6000000000000014
210
0
220
0
230
1
0
CIRCLE
5
105
100
AcDbEntity
8
CUTOUTS
100
AcDbCircle
10
-71.372504866221647
20
65.491172294771189
30
0
40
1.6000000000000014
210
0
220
0
230
1
0
CIRCLE
5
106
100
AcDbEntity
8
CUTOUTS
100
AcDbCircle
10
39.355635984656203
20
-65.4914893688766
30
0
40
1.6000000000000014
210
0
220
0
230
1
0
CIRCLE
5
107
100
AcDbEntity
8
CUTOUTS
100
AcDbCircle
10
-175.92788764546893
20
-65.491489217596012
30
0
40
1.6000000000000014
210
0
220
0
230
1
0
CIRCLE
5
108
100
AcDbEntity
8
CUTOUTS
100
AcDbCircle
10
9.589995133495357
20
65.491279331500166
30
0
40
1.6000000000000014
210
0
220
0
230
1
0
ARC
5
109
100
AcDbEntity
8
CUTOUTS
100
AcDbCircle
10
-74.278739002492799
20
59.245071409326684
30
0
40
0.99999999999999645
210
0
220
0
230
1
100
AcDbArc
50
0
51
90
0
LINE
5
10A
100
AcDbEntity
8
CUTOUTS
100
AcDbLine
10
-149.42873900249282
20
60.245071409326684
30
0
11
-74.278739002492799
21
60.24507140932667
31
0
0
ARC
5
10B
100
AcDbEntity
8
CUTOUTS
100
AcDbCircle
10
-149.42873900249282
20
59.245071409326684
30
0
40
1.0000000000000053
210
0
220
-0
230
1
100
AcDbArc
50
90
51
180
0
LINE
5
10C
100
AcDbEntity
8
CUTOUTS
100
AcDbLine
10
-150.42873900249282
20
41.245071409326684
30
0
11
-150.42873900249282
21
59.245071409326684
31
0
0
ARC
5
10D
100
AcDbEntity
8
CUTOUTS
100
AcDbCircle
10
-149.42873900249282
20
41.245071409326684
30
0
40
1.0000000000000142
210
0
220
0
230
1
100
AcDbArc
50
180
51
269.99999999999835
0
LINE
5
10E
100
AcDbEntity
8
CUTOUTS
100
AcDbLine
10
-74.278739002492799
20
40.245071409326684
30
0
11
-149.42873900249282
21
40.245071409326684
31
0
0
ARC
5
10F
100
AcDbEntity
8
CUTOUTS
100
AcDbCircle
10
-74.278739002492799
20
41.245071409326684
30
0
40
1.0000000000000053
210
-0
220
0
230
1
100
AcDbArc
50
270
51
360
0
LINE
5
110
100
AcDbEntity
8
CUTOUTS
100
AcDbLine
10
-73.278739002492799
20
59.245071409326684
30
0
11
-73.278739002492799
21
41.245071409326677
31
0
0
ARC
5
111
100
AcDbEntity
8
CUTOUTS
100
AcDbCircle
10
87.646260997507213
20
59.245071409326719
30
0
40
0.99999999999994316
210
-0
220
0
230
1
100
AcDbArc
50
0
51
90.000000000002444
0
LINE
5
112
100
AcDbEntity
8
CUTOUTS
100
AcDbLine
10
12.496260997507136
20
60.245071409326684
30
0
11
87.64626099750717
21
60.245071409326655
31
0
0
ARC
5
113
100
AcDbEntity
8
CUTOUTS
100
AcDbCircle
10
12.496260997507171
20
59.245071409326648
30
0
40
1.0000000000000409
210
0
220
0
230
1
100
AcDbArc
50
90.000000000002032
51
180
0
LINE
5
114
100
AcDbEntity
8
CUTOUTS
100
AcDbLine
10
11.496260997507157
20
41.245071409326684
30
0
11
11.496260997507122
21
59.245071409326684
31
0
0
ARC
5
115
100
AcDbEntity
8
CUTOUTS
100
AcDbCircle
10
12.496260997507136
20
41.245071409326677
30
0
40
0.99999999999997868
210
0
220
0
230
1
100
AcDbArc
50
180
51
270
0
LINE
5
116
100
AcDbEntity
8
CUTOUTS
100
AcDbLine
10
87.64626099750717
20
40.245071409326684
30
0
11
12.496260997507136
21
40.245071409326691
31
0
0
ARC
5
117
100
AcDbEntity
8
CUTOUTS
100
AcDbCircle
10
87.646260997507213
20
41.245071409326684
30
0
40
0.99999999999999645
210
0
220
0
230
1
100
AcDbArc
50
-90.000000000002444
51
0
0
LINE
5
118
100
AcDbEntity
8
CUTOUTS
100
AcDbLine
10
88.646260997507156
20
59.245071409326684
30
0
11
88.646260997507227
21
41.245071409326677
31
0
0
LINE
5
119
100
AcDbEntity
8
CUTOUTS
100
AcDbLine
10
92.458760997507198
20
41.245071409326684
30
0
11
92.458760997507198
21
59.245071409326684
31
0
0
ARC
5
11A
100
AcDbEntity
8
CUTOUTS
100
AcDbCircle
10
93.458760997507227
20
59.245071409326677
30
0
40
1.0000000000000053
210
0
220
-0
230
1
100
AcDbArc
50
90
51
180
0
LINE
5
11B
100
AcDbEntity
8
CUTOUTS
100
AcDbLine
10
93.458760997507227
20
60.245071409326691
30
0
11
111.4587609975072
21
60.245071409326691
31
0
0
ARC
5
11C
100
AcDbEntity
8
CUTOUTS
100
AcDbCircle
10
111.4587609975072
20
59.245071409326677
30
0
40
1.0000000000000142
210
0
220
-0
230
1
100
AcDbArc
50
0
51
90
0
LINE
5
11D
100
AcDbEntity
8
CUTOUTS
100
AcDbLine
10
112.4587609975072
20
59.245071409326684
30
0
11
112.4587609975072
21
41.245071409326684
31
0
0
ARC
5
11E
100
AcDbEntity
8
CUTOUTS
100
AcDbCircle
10
111.4587609975072
20
41.245071409326698
30
0
40
1.0000000000000142
210
-0
220
0
230
1
100
AcDbArc
50
270
51
360
0
LINE
5
11F
100
AcDbEntity
8
CUTOUTS
100
AcDbLine
10
111.4587609975072
20
40.245071409326684
30
0
11
93.458760997507227
21
40.245071409326684
31
0
0
ARC
5
120
100
AcDbEntity
8
CUTOUTS
100
AcDbCircle
10
93.458760997507227
20
41.245071409326698
30
0
40
1.0000000000000142
210
0
220
0
230
1
100
AcDbArc
50
180
51
269.99999999999835
0
LINE
5
121
100
AcDbEntity
8
CUTOUTS
100
AcDbLine
10
117.27126099750723
20
36.432571409326684
30
0
11
173.37126099750716
21
36.432571409326684
31
0
0
ARC
5
122
100
AcDbEntity
8
CUTOUTS
100
AcDbCircle
10
173.37126099750722
20
35.432571409326762
30
0
40
0.99999999999994316
210
-0
220
0
230
1
100
AcDbArc
50
0
51
90.000000000003254
0
LINE
5
123
100
AcDbEntity
8
CUTOUTS
100
AcDbLine
10
174.37126099750716
20
35.432571409326684
30
0
11
174.37126099750716
21
-1.6174285906733221
31
0
0
ARC
5
124
100
AcDbEntity
8
CUTOUTS
100
AcDbCircle
10
173.37126099750731
20
-1.6174285906733932
30
0
40
0.99999999999989875
210
0
220
0
230
1
100
AcDbArc
50
-90.000000000008143
51
0
0
LINE
5
125
100
AcDbEntity
8
CUTOUTS
100
AcDbLine
10
173.37126099750716
20
-2.6174285906732919
30
0
11
117.27126099750723
21
-2.6174285906733097
31
0
0
ARC
5
126
100
AcDbEntity
8
CUTOUTS
100
AcDbCircle
10
117.27126099750723
20
-1.6174285906732955
30
0
40
1.0000000000000142
210
0
220
0
230
1
100
AcDbArc
50
180
51
270
0
LINE
5
127
100
AcDbEntity
8
CUTOUTS
100
AcDbLine
10
116.27126099750723
20
-1.6174285906733221
30
0
11
116.27126099750723
21
35.432571409326684
31
0
0
ARC
5
128
100
AcDbEntity
8
CUTOUTS
100
AcDbCircle
10
117.27126099750723
20
35.432571409326677
30
0
40
1.0000000000000053
210
0
220
-0
230
1
100
AcDbArc
50
90
51
180
0
ARC
5
129
100
AcDbEntity
8
CUTOUTS
100
AcDbCircle
10
173.37126099750722
20
-40.767428590673234
30
0
40
0.99999999999994316
210
-0
220
0
230
1
100
AcDbArc
50
0
51
90.000000000003254
0
LINE
5
12A
100
AcDbEntity
8
CUTOUTS
100
AcDbLine
10
174.37126099750716
20
-40.767428590673305
30
0
11
174.37126099750716
21
-58.767428590673312
31
0
0
ARC
5
12B
100
AcDbEntity
8
CUTOUTS
100
AcDbCircle
10
173.37126099750722
20
-58.767428590673383
30
0
40
0.99999999999992539
210
0
220
0
230
1
100
AcDbArc
50
-90.000000000003254
51
0
0
LINE
5
12C
100
AcDbEntity
8
CUTOUTS
100
AcDbLine
10
173.37126099750716
20
-59.767428590673305
30
0
11
117.27126099750723
21
-59.767428590673305
31
0
0
ARC
5
12D
100
AcDbEntity
8
CUTOUTS
100
AcDbCircle
10
117.27126099750723
20
-58.767428590673291
30
0
40
1.0000000000000142
210
0
220
0
230
1
100
AcDbArc
50
180
51
270
0
LINE
5
12E
100
AcDbEntity
8
CUTOUTS
100
AcDbLine
10
116.27126099750723
20
-58.767428590673312
30
0
11
116.27126099750723
21
-40.767428590673305
31
0
0
ARC
5
12F
100
AcDbEntity
8
CUTOUTS
100
AcDbCircle
10
117.27126099750723
20
-40.767428590673319
30
0
40
1.0000000000000142
210
0
220
-0
230
1
100
AcDbArc
50
90
51
180
0
LINE
5
130
100
AcDbEntity
8
CUTOUTS
100
AcDbLine
10
117.27126099750723
20
-39.767428590673305
30
0
11
134.82126099750715
21
-39.767428590673305
31
0
0
ARC
5
131
100
AcDbEntity
8
CUTOUTS
100
AcDbCircle
10
134.82126099750718
20
-39.267428590673333
30
0
40
0.49999999999997158
210
0
220
0
230
1
100
AcDbArc
50
-90.000000000003254
51
0
0
LINE
5
132
100
AcDbEntity
8
CUTOUTS
100
AcDbLine
10
135.32126099750715
20
-39.267428590673305
30
0
11
135.32126099750715
21
-21.717428590673311
31
0
0
ARC
5
133
100
AcDbEntity
8
CUTOUTS
100
AcDbCircle
10
136.32126099750712
20
-21.717428590673311
30
0
40
0.99999999999997868
210
0
220
-0
230
1
100
AcDbArc
50
89.999999999996746
51
180
0
LINE
5
134
100
AcDbEntity
8
CUTOUTS
100
AcDbLine
10
136.32126099750718
20
-20.717428590673332
30
0
11
154.32126099750715
21
-20.717428590673315
31
0
0
ARC
5
135
100
AcDbEntity
8
CUTOUTS
100
AcDbCircle
10
154.32126099750721
20
-21.717428590673222
30
0
40
0.99999999999994316
210
-0
220
0
230
1
100
AcDbArc
50
0
51
90.000000000003254
0
LINE
5
136
100
AcDbEntity
8
CUTOUTS
100
AcDbLine
10
155.32126099750715
20
-21.717428590673311
30
0
11
155.32126099750715
21
-39.267428590673305
31
0
0
ARC
5
137
100
AcDbEntity
8
CUTOUTS
100
AcDbCircle
10
155.82126099750712
20
-39.267428590673376
30
0
40
0.49999999999997158
210
0
220
0
230
1
100
AcDbArc
50
180
51
270
0
LINE
5
138
100
AcDbEntity
8
CUTOUTS
100
AcDbLine
10
155.82126099750712
20
-39.767428590673347
30
0
11
173.37126099750716
21
-39.767428590673305
31
0
0
ARC
5
139
100
AcDbEntity
8
CUTOUTS
100
AcDbCircle
10
-145.71623900249281
20
-58.767428590673312
30
0
40
0.99999999999999645
210
-0
220
0
230
1
100
AcDbArc
50
-90
51
0
0
LINE
5
13A
100
AcDbEntity
8
CUTOUTS
100
AcDbLine
10
-144.71623900249281
20
-41.217428590673286
30
0
11
-144.71623900249284
21
-58.767428590673312
31
0
0
ARC
5
13B
100
AcDbEntity
8
CUTOUTS
100
AcDbCircle
10
-144.21623900249281
20
-41.217428590673308
30
0
40
0.50000000000000711
210
0
220
0
230
1
100
AcDbArc
50
90.000000000003254
51
180
0
LINE
5
13C
100
AcDbEntity
8
CUTOUTS
100
AcDbLine
10
-127.11623900249282
20
-40.717428590673293
30
0
11
-144.21623900249284
21
-40.717428590673293
31
0
0
ARC
5
13D
100
AcDbEntity
8
CUTOUTS
100
AcDbCircle
10
-127.11623900249282
20
-41.217428590673308
30
0
40
0.50000000000000711
210
0
220
-0
230
1
100
AcDbArc
50
0
51
89.99999999999838
0
LINE
5
13E
100
AcDbEntity
8
CUTOUTS
100
AcDbLine
10
-126.61623900249282
20
-58.767428590673312
30
0
11
-126.61623900249282
21
-41.217428590673308
31
0
0
ARC
5
13F
100
AcDbEntity
8
CUTOUTS
100
AcDbCircle
10
-125.6162390024928
20
-58.767428590673291
30
0
40
1.0000000000000142
210
0
220
0
230
1
100
AcDbArc
50
180
51
270
0
LINE
5
140
100
AcDbEntity
8
CUTOUTS
100
AcDbLine
10
63.833760997507234
20
-59.767428590673305
30
0
11
-125.6162390024928
21
-59.767428590673305
31
0
0
ARC
5
141
100
AcDbEntity
8
CUTOUTS
100
AcDbCircle
10
63.833760997507163
20
-58.767428590673262
30
0
40
1.0000000000000497
210
-0
220
0
230
1
100
AcDbArc
50
270.00000000000409
51
360
0
LINE
5
142
100
AcDbEntity
8
CUTOUTS
100
AcDbLine
10
64.83376099750717
20
-41.217428590673322
30
0
11
64.833760997507213
21
-58.767428590673312
31
0
0
ARC
5
143
100
AcDbEntity
8
CUTOUTS
100
AcDbCircle
10
65.333760997507227
20
-41.217428590673336
30
0
40
0.50000000000002487
210
0
220
-0
230
1
100
AcDbArc
50
90
51
180
0
LINE
5
144
100
AcDbEntity
8
CUTOUTS
100
AcDbLine
10
82.433760997507193
20
-40.717428590673315
30
0
11
65.333760997507227
21
-40.717428590673315
31
0
0
ARC
5
145
100
AcDbEntity
8
CUTOUTS
100
AcDbCircle
10
82.433760997507193
20
-41.217428590673322
30
0
40
0.50000000000000711
210
0
220
-0
230
1
100
AcDbArc
50
0
51
90
0
LINE
5
146
100
AcDbEntity
8
CUTOUTS
100
AcDbLine
10
82.933760997507193
20
-58.767428590673312
30
0
11
82.933760997507193
21
-41.217428590673322
31
0
0
ARC
5
147
100
AcDbEntity
8
CUTOUTS
100
AcDbCircle
10
83.933760997507221
20
-58.767428590673291
30
0
40
1.0000000000000142
210
0
220
0
230
1
100
AcDbArc
50
180
51
270
0
LINE
5
148
100
AcDbEntity
8
CUTOUTS
100
AcDbLine
10
111.45876099750726
20
-59.767428590673305
30
0
11
83.933760997507221
21
-59.767428590673305
31
0
0
ARC
5
149
100
AcDbEntity
8
CUTOUTS
100
AcDbCircle
10
111.4587609975072
20
-58.767428590673262
30
0
40
1.0000000000000497
210
-0
220
0
230
1
100
AcDbArc
50
270.00000000000324
51
360
0
LINE
5
14A
100
AcDbEntity
8
CUTOUTS
100
AcDbLine
10
112.45876099750724
20
35.432571409326684
30
0
11
112.45876099750724
21
-58.767428590673312
31
0
0
ARC
5
14B
100
AcDbEntity
8
CUTOUTS
100
AcDbCircle
10
111.4587609975072
20
35.43257140932662
30
0
40
1.0000000000000497
210
0
220
-0
230
1
100
AcDbArc
50
0
51
89.99999999999838
0
LINE
5
14C
100
AcDbEntity
8
CUTOUTS
100
AcDbLine
10
-173.24123900249282
20
36.432571409326677
30
0
11
111.45876099750723
21
36.43257140932667
31
0
0
ARC
5
14D
100
AcDbEntity
8
CUTOUTS
100
AcDbCircle
10
-173.24123900249282
20
35.432571409326677
30
0
40
1.0000000000000009
210
0
220
-0
230
1
100
AcDbArc
50
90
51
180
0
LINE
5
14E
100
AcDbEntity
8
CUTOUTS
100
AcDbLine
10
-174.24123900249282
20
-58.767428590673312
30
0
11
-174.24123900249282
21
35.432571409326705
31
0
0
ARC
5
14F
100
AcDbEntity
8
CUTOUTS
100
AcDbCircle
10
-173.24123900249282
20
-58.767428590673312
30
0
40
0.99999999999997868
210
0
220
0
230
1
100
AcDbArc
50
180
51
270
0
LINE
5
150
100
AcDbEntity
8
CUTOUTS
100
AcDbLine
10
-145.71623900249281
20
-59.767428590673305
30
0
11
-173.24123900249282
21
-59.767428590673305
31
0
0
ARC
5
151
100
AcDbEntity
8
CUTOUTS
100
AcDbCircle
10
173.37126099750716
20
41.245071409326783
30
0
40
1.0000000000000941
210
-0
220
0
230
1
100
AcDbArc
50
270.00000000000324
51
360
0
LINE
5
152
100
AcDbEntity
8
CUTOUTS
100
AcDbLine
10
174.37126099750725
20
59.245071409326684
30
0
11
174.37126099750725
21
41.245071409326684
31
0
0
ARC
5
153
100
AcDbEntity
8
CUTOUTS
100
AcDbCircle
10
173.37126099750722
20
59.245071409326712
30
0
40
1.0000000000000142
210
-0
220
0
230
1
100
AcDbArc
50
0
51
90
0
LINE
5
154
100
AcDbEntity
8
CUTOUTS
100
AcDbLine
10
117.27126099750723
20
60.245071409326691
30
0
11
173.37126099750722
21
60.245071409326705
31
0
0
ARC
5
155
100
AcDbEntity
8
CUTOUTS
100
AcDbCircle
10
117.27126099750723
20
59.245071409326677
30
0
40
1.0000000000000053
210
0
220
-0
230
1
100
AcDbArc
50
90
51
180
0
LINE
5
156
100
AcDbEntity
8
CUTOUTS
100
AcDbLine
10
116.27126099750723
20
41.245071409326684
30
0
11
116.27126099750723
21
59.245071409326684
31
0
0
ARC
5
157
100
AcDbEntity
8
CUTOUTS
100
AcDbCircle
10
117.27126099750723
20
41.245071409326698
30
0
40
1.0000000000000142
210
0
220
0
230
1
100
AcDbArc
50
180
51
269.9999999999992
0
LINE
5
158
100
AcDbEntity
8
CUTOUTS
100
AcDbLine
10
173.37126099750722
20
40.245071409326684
30
0
11
117.27126099750723
21
40.245071409326684
31
0
0
LINE
5
159
100
AcDbEntity
8
CUTOUTS
100
AcDbLine
10
6.6837609975071999
20
40.245071409326684
30
0
11
-68.466239002492827
21
40.24507140932667
31
0
0
ARC
5
15A
100
AcDbEntity
8
CUTOUTS
100
AcDbCircle
10
-68.466239002492813
20
41.245071409326698
30
0
40
1.0000000000000142
210
0
220
0
230
1
100
AcDbArc
50
180
51
269.9999999999992
0
LINE
5
15B
100
AcDbEntity
8
CUTOUTS
100
AcDbLine
10
-69.466239002492813
20
41.245071409326684
30
0
11
-69.466239002492813
21
59.245071409326684
31
0
0
ARC
5
15C
100
AcDbEntity
8
CUTOUTS
100
AcDbCircle
10
-68.466239002492827
20
59.245071409326684
30
0
40
1.0000000000000053
210
0
220
-0
230
1
100
AcDbArc
50
90
51
180
0
LINE
5
15D
100
AcDbEntity
8
CUTOUTS
100
AcDbLine
10
-68.466239002492827
20
60.245071409326684
30
0
11
6.6837609975071999
21
60.245071409326691
31
0
0
ARC
5
15E
100
AcDbEntity
8
CUTOUTS
100
AcDbCircle
10
6.6837609975071999
20
59.245071409326684
30
0
40
1.0000000000000142
210
0
220
0
230
1
100
AcDbArc
50
0
51
90
0
LINE
5
15F
100
AcDbEntity
8
CUTOUTS
100
AcDbLine
10
7.6837609975072141
20
59.245071409326684
30
0
11
7.6837609975072141
21
41.245071409326677
31
0
0
ARC
5
160
100
AcDbEntity
8
CUTOUTS
100
AcDbCircle
10
6.6837609975072354
20
41.245071409326684
30
0
40
0.99999999999999645
210
0
220
0
230
1
100
AcDbArc
50
-90.000000000002032
51
0
0
ARC
5
161
100
AcDbEntity
8
CUTOUTS
100
AcDbCircle
10
-155.24123900249282
20
41.245071409326698
30
0
40
1.0000000000000053
210
-0
220
0
230
1
100
AcDbArc
50
-90
51
0
0
LINE
5
162
100
AcDbEntity
8
CUTOUTS
100
AcDbLine
10
-154.24123900249282
20
59.245071409326684
30
0
11
-154.24123900249282
21
41.245071409326684
31
0
0
ARC
5
163
100
AcDbEntity
8
CUTOUTS
100
AcDbCircle
10
-155.24123900249282
20
59.245071409326691
30
0
40
0.99999999999999645
210
-0
220
0
230
1
100
AcDbArc
50
0
51
90.000000000001634
0
LINE
5
164
100
AcDbEntity
8
CUTOUTS
100
AcDbLine
10
-173.24123900249282
20
60.245071409326691
30
0
11
-155.24123900249285
21
60.245071409326691
31
0
0
ARC
5
165
100
AcDbEntity
8
CUTOUTS
100
AcDbCircle
10
-173.24123900249282
20
59.245071409326691
30
0
40
0.99999999999999645
210
0
220
-0
230
1
100
AcDbArc
50
90
51
180
0
LINE
5
166
100
AcDbEntity
8
CUTOUTS
100
AcDbLine
10
-174.24123900249282
20
41.245071409326698
30
0
11
-174.24123900249282
21
59.245071409326691
31
0
0
ARC
5
167
100
AcDbEntity
8
CUTOUTS
100
AcDbCircle
10
-173.24123900249282
20
41.245071409326698
30
0
40
0.99999999999997868
210
0
220
0
230
1
100
AcDbArc
50
180
51
270
0
LINE
5
168
100
AcDbEntity
8
CUTOUTS
100
AcDbLine
10
-155.24123900249282
20
40.245071409326691
30
0
11
-173.24123900249282
21
40.245071409326698
31
0
0
LINE
5
169
100
AcDbEntity
8
PERIMETER
100
AcDbLine
10
-176.17924510856903
20
-71.491488863909353
30
0
11
176.1901709417819
21
-71.491489618622381
31
0
0
ARC
5
16A
100
AcDbEntity
8
PERIMETER
100
AcDbCircle
10
176.19017095463289
20
-65.491489618622381
30
0
40
5.9999999999999964
210
0
220
0
230
1
100
AcDbArc
50
269.99999987728233
51
360
0
LINE
5
16B
100
AcDbEntity
8
PERIMETER
100
AcDbLine
10
182.19017095463289
20
-65.491489666772523
30
0
11
182.19017200577443
21
65.491483011979753
31
0
0
ARC
5
16C
100
AcDbEntity
8
PERIMETER
100
AcDbCircle
10
176.19017200576923
20
65.491483060129909
30
0
40
6.0000000000052012
210
-0
220
0
230
1
100
AcDbArc
50
0
51
90.000151496102418
0
LINE
5
16D
100
AcDbEntity
8
PERIMETER
100
AcDbLine
10
176.19015614113448
20
71.491483060114135
30
0
11
-176.18998438463382
21
71.490551329557036
31
0
0
ARC
5
16E
100
AcDbEntity
8
PERIMETER
100
AcDbCircle
10
-176.1899685650173
20
65.490551329577883
30
0
40
6.0000000000000062
210
0
220
0
230
1
100
AcDbArc
50
90.000151066210037
51
180.00469079216342
0
LINE
5
16F
100
AcDbEntity
8
PERIMETER
100
AcDbLine
10
-182.18996854490936
20
65.49006011096894
30
0
11
-182.17924507561011
21
-65.491980082518296
31
0
0
ARC
5
170
100
AcDbEntity
8
PERIMETER
100
AcDbCircle
10
-176.17924509571807
20
-65.491488863909368
30
0
40
5.9999999999999867
210
0
220
0
230
1
100
AcDbArc
50
180.00469079216342
51
269.9999998772829
0
ENDSEC
0
SECTION
2
OBJECTS
0
DICTIONARY
5
C
100
AcDbDictionary
3
ACAD_GROUP
350
D
3
ACAD_MLINESTYLE
350
17
0
DICTIONARY
5
D
100
AcDbDictionary
0
DICTIONARY
5
1A
330
C
100
AcDbDictionary
0
DICTIONARY
5
17
100
AcDbDictionary
0
ENDSEC
0
EOF
