0
SECTION
2
HEADER
9
$INSUNITS
70
4
9
$ACADVER
1
AC1014
9
$HANDSEED
5
FFFF
0
ENDSEC
0
SECTION
2
TABLES
0
TABLE
2
VPORT
5
8
100
AcDbSymbolTable
0
ENDTAB
0
TABLE
2
LTYPE
5
5
100
AcDbSymbolTable
70
2
0
LTYPE
5
14
100
AcDbSymbolTableRecord
100
AcDbLinetypeTableRecord
2
BYBLOCK
70
0
0
LTYPE
5
15
100
AcDbSymbolTableRecord
100
AcDbLinetypeTableRecord
2
BYLAYER
70
0
0
ENDTAB
0
TABLE
2
LAYER
5
2
100
AcDbSymbolTable
70
3
0
LAYER
5
50
100
AcDbSymbolTableRecord
100
AcDbLayerTableRecord
2
0
70
0
6
CONTINUOUS
0
LAYER
5
51
100
AcDbSymbolTableRecord
100
AcDbLayerTableRecord
2
CUTOUTS
70
0
62
1
6
CONTINUOUS
0
LAYER
5
52
100
AcDbSymbolTableRecord
100
AcDbLayerTableRecord
2
PERIMETER
70
0
62
5
6
CONTINUOUS
0
ENDTAB
0
TABLE
2
STYLE
5
3
100
AcDbSymbolTable
70
1
0
STYLE
5
11
100
AcDbSymbolTableRecord
100
AcDbTextStyleTableRecord
2
STANDARD
70
0
0
ENDTAB
0
TABLE
2
VIEW
5
6
100
AcDbSymbolTable
0
ENDTAB
0
TABLE
2
UCS
5
7
100
AcDbSymbolTable
0
ENDTAB
0
TABLE
2
APPID
5
9
100
AcDbSymbolTable
70
1
0
APPID
5
12
100
AcDbSymbolTableRecord
100
AcDbRegAppTableRecord
2
ACAD
70
0
0
ENDTAB
0
TABLE
2
DIMSTYLE
5
A
100
AcDbSymbolTable
0
ENDTAB
0
TABLE
2
BLOCK_RECORD
5
1
100
AcDbSymbolTable
70
2
0
BLOCK_RECORD
5
1F
100
AcDbSymbolTableRecord
100
AcDbBlockTableRecord
2
*MODEL_SPACE
0
BLOCK_RECORD
5
1B
100
AcDbSymbolTableRecord
100
AcDbBlockTableRecord
2
*PAPER_SPACE
0
ENDTAB
0
ENDSEC
0
SECTION
2
BLOCKS
0
BLOCK
5
20
100
AcDbEntity
100
AcDbBlockBegin
2
*MODEL_SPACE
0
ENDBLK
5
21
100
AcDbEntity
100
AcDbBlockEnd
0
BLOCK
5
1C
100
AcDbEntity
100
AcDbBlockBegin
2
*PAPER_SPACE
0
ENDBLK
5
1D
100
AcDbEntity
100
AcDbBlockEnd
0
ENDSEC
0
SECTION
2
ENTITIES
0
LINE
5
100
100
AcDbEntity
8
CUTOUTS
100
AcDbLine
10
91.909304353714816
20
67.841402498608858
30
0
11
93.266109211741195
21
65.491420815580383
31
0
0
LINE
5
101
100
AcDbEntity
8
CUTOUTS
100
AcDbLine
10
93.266109211741195
20
65.491420815580398
30
0
11
91.909367804823603
21
63.14140249903717
31
0
0
LINE
5
102
100
AcDbEntity
8
CUTOUTS
100
AcDbLine
10
91.909367804823603
20
63.14140249903717
30
0
11
89.195821539879631
21
63.141365865522431
31
0
0
LINE
5
103
100
AcDbEntity
8
CUTOUTS
100
AcDbLine
10
89.195821539879631
20
63.141365865522417
30
0
11
87.839016681853252
21
65.491347548550905
31
0
0
LINE
5
104
100
AcDbEntity
8
CUTOUTS
100
AcDbLine
10
87.839016681853252
20
65.491347548550905
30
0
11
89.195758088770845
21
67.841365865094119
31
0
0
LINE
5
105
100
AcDbEntity
8
CUTOUTS
100
AcDbLine
10
89.195758088770845
20
67.841365865094133
30
0
11
91.909304353714816
21
67.841402498608872
31
0
0
LINE
5
106
100
AcDbEntity
8
CUTOUTS
100
AcDbLine
10
-123.59377302577279
20
-63.141491385061457
30
0
11
-122.23699989821046
21
-65.491491387967429
31
0
0
LINE
5
107
100
AcDbEntity
8
CUTOUTS
100
AcDbLine
10
-122.23699989821046
20
-65.491491387967429
30
0
11
-123.59377303583938
21
-67.84149138506146
31
0
0
LINE
5
108
100
AcDbEntity
8
CUTOUTS
100
AcDbLine
10
-123.59377303583938
20
-67.84149138506146
30
0
11
-126.3073193010306
21
-67.841491379249533
31
0
0
LINE
5
109
100
AcDbEntity
8
CUTOUTS
100
AcDbLine
10
-126.3073193010306
20
-67.841491379249533
30
0
11
-127.66409242859294
21
-65.491491376343561
31
0
0
LINE
5
10A
100
AcDbEntity
8
CUTOUTS
100
AcDbLine
10
-127.66409242859294
20
-65.491491376343561
30
0
11
-126.30731929096402
21
-63.141491379249516
31
0
0
LINE
5
10B
100
AcDbEntity
8
CUTOUTS
100
AcDbLine
10
-126.30731929096402
20
-63.141491379249516
30
0
11
-123.59377302577279
21
-63.141491385061457
31
0
0
LINE
5
10C
100
AcDbEntity
8
CUTOUTS
100
AcDbLine
10
-174.47468576917288
20
67.840518217087222
30
0
11
-173.11791263657727
21
65.490518217087214
31
0
0
LINE
5
10D
100
AcDbEntity
8
CUTOUTS
100
AcDbLine
10
-173.11791263657727
20
65.490518217087228
30
0
11
-174.47468576917288
21
63.140518217087234
31
0
0
LINE
5
10E
100
AcDbEntity
8
CUTOUTS
100
AcDbLine
10
-174.47468576917288
20
63.140518217087227
30
0
11
-177.18823203436412
21
63.140518217087227
31
0
0
LINE
5
10F
100
AcDbEntity
8
CUTOUTS
100
AcDbLine
10
-177.18823203436412
20
63.140518217087227
30
0
11
-178.54500516695975
21
65.490518217087228
31
0
0
LINE
5
110
100
AcDbEntity
8
CUTOUTS
100
AcDbLine
10
-178.54500516695975
20
65.490518217087228
30
0
11
-177.18823203436412
21
67.840518217087222
31
0
0
LINE
5
111
100
AcDbEntity
8
CUTOUTS
100
AcDbLine
10
-177.18823203436412
20
67.840518217087222
30
0
11
-174.47468576917288
21
67.840518217087222
31
0
0
LINE
5
112
100
AcDbEntity
8
CUTOUTS
100
AcDbLine
10
-70.015670133695778
20
67.841173696051897
30
0
11
-68.658890787455036
21
65.491177283512528
31
0
0
LINE
5
113
100
AcDbEntity
8
CUTOUTS
100
AcDbLine
10
-68.658890787455036
20
65.491177283512528
30
0
11
-70.015657706396013
21
63.141173696068321
31
0
0
LINE
5
114
100
AcDbEntity
8
CUTOUTS
100
AcDbLine
10
-70.015657706396013
20
63.141173696068307
30
0
11
-72.729203971577789
21
63.141166521163456
31
0
0
LINE
5
115
100
AcDbEntity
8
CUTOUTS
100
AcDbLine
10
-72.729203971577789
20
63.141166521163456
30
0
11
-74.085983317818531
21
65.491162933702824
31
0
0
LINE
5
116
100
AcDbEntity
8
CUTOUTS
100
AcDbLine
10
-74.085983317818531
20
65.491162933702824
30
0
11
-72.729216398877554
21
67.841166521147045
31
0
0
LINE
5
117
100
AcDbEntity
8
CUTOUTS
100
AcDbLine
10
-72.729216398877554
20
67.841166521147045
30
0
11
-70.015670133695778
21
67.841173696051897
31
0
0
LINE
5
118
100
AcDbEntity
8
CUTOUTS
100
AcDbLine
10
12.303609212261968
20
65.49128432024149
30
0
11
10.946842293320955
21
63.141280732797291
31
0
0
LINE
5
119
100
AcDbEntity
8
CUTOUTS
100
AcDbLine
10
10.946842293320955
20
63.141280732797291
30
0
11
8.2332960281392076
21
63.141273557892461
31
0
0
LINE
5
11A
100
AcDbEntity
8
CUTOUTS
100
AcDbLine
10
8.2332960281392076
20
63.141273557892461
30
0
11
6.8765166818984724
21
65.491269970431816
31
0
0
LINE
5
11B
100
AcDbEntity
8
CUTOUTS
100
AcDbLine
10
6.8765166818984724
20
65.491269970431816
30
0
11
8.233283600839485
21
67.841273557876008
31
0
0
LINE
5
11C
100
AcDbEntity
8
CUTOUTS
100
AcDbLine
10
8.233283600839485
20
67.841273557876022
30
0
11
10.946829866021233
21
67.841280732780859
31
0
0
LINE
5
11D
100
AcDbEntity
8
CUTOUTS
100
AcDbLine
10
10.946829866021233
20
67.841280732780859
30
0
11
12.303609212261968
21
65.49128432024149
31
0
0
LINE
5
11E
100
AcDbEntity
8
CUTOUTS
100
AcDbLine
10
40.712476935869937
20
-63.141491557946082
30
0
11
42.0692500634323
21
-65.491491560852012
31
0
0
LINE
5
11F
100
AcDbEntity
8
CUTOUTS
100
AcDbLine
10
42.0692500634323
20
-65.491491560852012
30
0
11
40.712476925803429
21
-67.841491557946071
31
0
0
LINE
5
120
100
AcDbEntity
8
CUTOUTS
100
AcDbLine
10
40.712476925803429
20
-67.841491557946071
30
0
11
37.998930660612196
21
-67.841491552134144
31
0
0
LINE
5
121
100
AcDbEntity
8
CUTOUTS
100
AcDbLine
10
37.998930660612196
20
-67.841491552134144
30
0
11
36.642157533049833
21
-65.491491549228215
31
0
0
LINE
5
122
100
AcDbEntity
8
CUTOUTS
100
AcDbLine
10
36.642157533049833
20
-65.491491549228215
30
0
11
37.998930670678703
21
-63.141491552134177
31
0
0
LINE
5
123
100
AcDbEntity
8
CUTOUTS
100
AcDbLine
10
37.998930670678703
20
-63.141491552134177
30
0
11
40.712476935869937
21
-63.141491557946082
31
0
0
LINE
5
124
100
AcDbEntity
8
CUTOUTS
100
AcDbLine
10
-174.57104669928844
20
-63.141491403759531
30
0
11
-173.21427356669284
21
-65.491491403759525
31
0
0
LINE
5
125
100
AcDbEntity
8
CUTOUTS
100
AcDbLine
10
-173.21427356669284
20
-65.491491403759525
30
0
11
-174.57104669928844
21
-67.84149140375952
31
0
0
LINE
5
126
100
AcDbEntity
8
CUTOUTS
100
AcDbLine
10
-174.57104669928844
20
-67.84149140375952
30
0
11
-177.28459296447969
21
-67.84149140375952
31
0
0
LINE
5
127
100
AcDbEntity
8
CUTOUTS
100
AcDbLine
10
-177.28459296447969
20
-67.84149140375952
30
0
11
-178.64136609707529
21
-65.491491403759525
31
0
0
LINE
5
128
100
AcDbEntity
8
CUTOUTS
100
AcDbLine
10
-178.64136609707529
20
-65.491491403759525
30
0
11
-177.28459296447969
21
-63.141491403759531
31
0
0
LINE
5
129
100
AcDbEntity
8
CUTOUTS
100
AcDbLine
10
-177.28459296447969
20
-63.141491403759531
30
0
11
-174.57104669928844
21
-63.141491403759531
31
0
0
LINE
5
12A
100
AcDbEntity
8
CUTOUTS
100
AcDbLine
10
177.42705346374424
20
-63.141492191159081
30
0
11
178.7838263690372
21
-65.491491797459304
31
0
0
LINE
5
12B
100
AcDbEntity
8
CUTOUTS
100
AcDbLine
10
178.7838263690372
20
-65.491491797459304
30
0
11
177.42705346374424
21
-67.84149140375952
31
0
0
LINE
5
12C
100
AcDbEntity
8
CUTOUTS
100
AcDbLine
10
177.42705346374424
20
-67.84149140375952
30
0
11
174.71350765315836
21
-67.841491403759505
31
0
0
LINE
5
12D
100
AcDbEntity
8
CUTOUTS
100
AcDbLine
10
174.71350765315836
20
-67.841491403759505
30
0
11
173.35673474786543
21
-65.491491797459275
31
0
0
LINE
5
12E
100
AcDbEntity
8
CUTOUTS
100
AcDbLine
10
173.35673474786543
20
-65.491491797459275
30
0
11
174.71350765315836
21
-63.141492191159081
31
0
0
LINE
5
12F
100
AcDbEntity
8
CUTOUTS
100
AcDbLine
10
174.71350765315836
20
-63.141492191159081
30
0
11
177.42705346374424
21
-63.141492191159081
31
0
0
LINE
5
130
100
AcDbEntity
8
CUTOUTS
100
AcDbLine
10
174.71594292107565
20
63.141507823180405
30
0
11
173.35916978848002
21
65.491507823180427
31
0
0
LINE
5
131
100
AcDbEntity
8
CUTOUTS
100
AcDbLine
10
173.35916978848002
20
65.491507823180427
30
0
11
174.71594292107565
21
67.841507823180436
31
0
0
LINE
5
132
100
AcDbEntity
8
CUTOUTS
100
AcDbLine
10
174.71594292107565
20
67.841507823180436
30
0
11
177.42948918626692
21
67.841507823180464
31
0
0
LINE
5
133
100
AcDbEntity
8
CUTOUTS
100
AcDbLine
10
177.42948918626692
20
67.84150782318045
30
0
11
178.78626231886255
21
65.491507823180427
31
0
0
LINE
5
134
100
AcDbEntity
8
CUTOUTS
100
AcDbLine
10
178.78626231886255
20
65.491507823180427
30
0
11
177.42948918626692
21
63.141507823180412
31
0
0
LINE
5
135
100
AcDbEntity
8
CUTOUTS
100
AcDbLine
10
177.42948918626692
20
63.141507823180405
30
0
11
174.71594292107565
21
63.141507823180405
31
0
0
LINE
5
136
100
AcDbEntity
8
PERIMETER
100
AcDbLine
10
-155.5383896952462
20
59.491513925303664
30
0
11
106.45860620808111
21
59.491513925303458
31
0
0
ARC
5
137
100
AcDbEntity
8
PERIMETER
100
AcDbCircle
10
106.45860620808111
20
60.491513925303472
30
0
40
1.0000000000000231
210
-0
220
0
230
1
100
AcDbArc
50
270
51
360
0
LINE
5
138
100
AcDbEntity
8
PERIMETER
100
AcDbLine
10
107.45860620808114
20
60.491513925303465
30
0
11
107.45860620808114
21
72.991292529985088
31
0
0
ARC
5
139
100
AcDbEntity
8
PERIMETER
100
AcDbCircle
10
104.95860620808114
20
72.991292529985088
30
0
40
2.5
210
-0
220
0
230
1
100
AcDbArc
50
0
51
90.000151496133697
0
LINE
5
13A
100
AcDbEntity
8
PERIMETER
100
AcDbLine
10
104.95859959781529
20
75.491292529976349
30
0
11
-176.18992719249565
21
75.490549143379425
31
0
0
ARC
5
13B
100
AcDbEntity
8
PERIMETER
100
AcDbCircle
10
-176.18990075143245
20
65.49054914341437
30
0
40
10.000000000000007
210
0
220
0
230
1
100
AcDbArc
50
90.000151496132716
51
180.00469079216342
0
LINE
5
13C
100
AcDbEntity
8
PERIMETER
100
AcDbLine
10
-186.18990071791916
20
65.489730445732803
30
0
11
-186.17917724861994
21
-65.492309747754433
31
0
0
ARC
5
13D
100
AcDbEntity
8
PERIMETER
100
AcDbCircle
10
-176.1791772821332
20
-65.491491050072881
30
0
40
10.000000000000014
210
0
220
0
230
1
100
AcDbArc
50
180.00469079216342
51
269.99999987728256
0
LINE
5
13E
100
AcDbEntity
8
PERIMETER
100
AcDbLine
10
-176.17917730355146
20
-75.491491050072881
30
0
11
176.19023874679948
21
-75.491491804785909
31
0
0
ARC
5
13F
100
AcDbEntity
8
PERIMETER
100
AcDbCircle
10
176.19023876821774
20
-65.491491804785909
30
0
40
10
210
0
220
0
230
1
100
AcDbArc
50
269.99999987728256
51
360
0
LINE
5
140
100
AcDbEntity
8
PERIMETER
100
AcDbLine
10
186.19023876821774
20
-65.49149188503614
30
0
11
186.19023981935928
21
65.491480793721394
31
0
0
ARC
5
141
100
AcDbEntity
8
PERIMETER
100
AcDbCircle
10
176.19023981935936
20
65.491480873971653
30
0
40
9.9999999999999289
210
-0
220
0
230
1
100
AcDbArc
50
0
51
90.000151496133043
0
LINE
5
142
100
AcDbEntity
8
PERIMETER
100
AcDbLine
10
176.19021337829611
20
75.491480873936624
30
0
11
123.77156390284259
21
75.491342273454165
31
0
0
ARC
5
143
100
AcDbEntity
8
PERIMETER
100
AcDbCircle
10
123.77157051310843
20
72.991342273462863
30
0
40
2.5000000000000351
210
0
220
0
230
1
100
AcDbArc
50
90.000151496133697
51
180.0001514961132
0
LINE
5
144
100
AcDbEntity
8
PERIMETER
100
AcDbLine
10
121.27157051311713
20
72.991335663197106
30
0
11
121.27160356398178
21
60.491511281202222
31
0
0
ARC
5
145
100
AcDbEntity
8
PERIMETER
100
AcDbCircle
10
122.27160356397825
20
60.49151392530851
30
0
40
0.99999999999995715
210
0
220
0
230
1
100
AcDbArc
50
180.0001514961132
51
269.99999999998943
0
LINE
5
146
100
AcDbEntity
8
PERIMETER
100
AcDbLine
10
122.27160356397806
20
59.491513925308546
30
0
11
158.06464546148246
21
59.491513925303458
31
0
0
LINE
5
147
100
AcDbEntity
8
PERIMETER
100
AcDbLine
10
158.06464546148246
20
59.491513925303458
30
0
11
168.07273191829307
21
59.491513930305082
31
0
0
ARC
5
148
100
AcDbEntity
8
PERIMETER
100
AcDbCircle
10
168.07288604960237
20
54.741758907963373
30
0
40
4.7497550248424849
210
-0
220
0
230
1
100
AcDbArc
50
-0.0018592753583251526
51
90.001859269261089
0
LINE
5
149
100
AcDbEntity
8
PERIMETER
100
AcDbLine
10
172.82264107194405
20
54.741604776132192
30
0
11
172.82264124183681
21
-54.740954242218521
31
0
0
ARC
5
14A
100
AcDbEntity
8
PERIMETER
100
AcDbCircle
10
168.07119214111242
20
-54.740042672530592
30
0
40
4.7514491881671708
210
0
220
0
230
1
100
AcDbArc
50
269.98900775298137
51
359.98900775447305
0
LINE
5
14B
100
AcDbEntity
8
PERIMETER
100
AcDbLine
10
168.07028057130228
20
-59.491491773255021
30
0
11
139.01462715092845
21
-59.491491598370168
31
0
0
LINE
5
14C
100
AcDbEntity
8
PERIMETER
100
AcDbLine
10
139.01462715092845
20
-59.491491598370168
30
0
11
-123.39235527093933
21
-59.491491598369407
31
0
0
LINE
5
14D
100
AcDbEntity
8
PERIMETER
100
AcDbLine
10
-123.39235527093933
20
-59.491491598369407
30
0
11
-167.92781981903315
21
-59.491491774042458
31
0
0
ARC
5
14E
100
AcDbEntity
8
PERIMETER
100
AcDbCircle
10
-167.92690619899457
20
-54.740039413632516
30
0
40
4.7514524482464049
210
0
220
0
230
1
100
AcDbArc
50
179.98898303787428
51
269.98898303767498
0
LINE
5
14F
100
AcDbEntity
8
PERIMETER
100
AcDbLine
10
-172.6783585594045
20
-54.739125793610995
30
0
11
-172.67835838373512
21
54.644648753164077
31
0
0
ARC
5
150
100
AcDbEntity
8
PERIMETER
100
AcDbCircle
10
-167.92796624375055
20
54.740136286873465
30
0
40
4.7513517395285669
210
0
220
-0
230
1
100
AcDbArc
50
88.83596224101295
51
181.1515461964581
0
LINE
5
151
100
AcDbEntity
8
PERIMETER
100
AcDbLine
10
-167.83144303707428
20
59.490507495873253
30
0
11
-155.5383896952462
21
59.491513925303664
31
0
0
ENDSEC
0
SECTION
2
OBJECTS
0
DICTIONARY
5
C
100
AcDbDictionary
3
ACAD_GROUP
350
D
3
ACAD_MLINESTYLE
350
17
0
DICTIONARY
5
D
100
AcDbDictionary
0
DICTIONARY
5
1A
330
C
100
AcDbDictionary
0
DICTIONARY
5
17
100
AcDbDictionary
0
ENDSEC
0
EOF
